/* XPM */
static char *rcp01133166110349[] = {
/* columns rows colors chars-per-pixel */
"64 64 196 2 ",
"   c #020101",
".  c #241111",
"X  c #2D1515",
"o  c #291F1D",
"O  c #361A1A",
"+  c #28201E",
"@  c #26211E",
"#  c #312D1E",
"$  c #281F20",
"%  c #232221",
"&  c #282627",
"*  c #2A2729",
"=  c #2D2A2B",
"-  c #2D2A25",
";  c #332424",
":  c #312C2D",
">  c #3D2323",
",  c #3A3325",
"<  c #3B2E30",
"1  c #312E30",
"2  c #353234",
"3  c #3B3233",
"4  c #3A3639",
"5  c #3D393C",
"6  c #3C3835",
"7  c #433A0D",
"8  c #453A1B",
"9  c #442222",
"0  c #4A2323",
"q  c #4A2C2C",
"w  c #45292B",
"e  c #502626",
"r  c #542B2B",
"t  c #5C2C2C",
"y  c #532D21",
"u  c #483C2B",
"i  c #593221",
"p  c #513327",
"a  c #413535",
"s  c #493434",
"d  c #443836",
"f  c #4B3936",
"g  c #463C3B",
"h  c #493B3A",
"j  c #413738",
"k  c #543434",
"l  c #5B3232",
"z  c #503837",
"x  c #632F2F",
"c  c #643232",
"v  c #6B3333",
"b  c #6D3A38",
"n  c #733737",
"m  c #773838",
"M  c #7C3B3B",
"N  c #4C4104",
"B  c #4B4015",
"V  c #524717",
"C  c #524917",
"Z  c #53480F",
"A  c #605205",
"S  c #6D5E13",
"D  c #655818",
"F  c #7F5E16",
"G  c #7F6D07",
"H  c #766608",
"J  c #706113",
"K  c #49412A",
"L  c #4F4626",
"P  c #544925",
"I  c #5D5221",
"U  c #4C413C",
"Y  c #554A37",
"T  c #5E523D",
"R  c #6F5A2D",
"E  c #7B6E3F",
"W  c #70623A",
"Q  c #7E6A2B",
"!  c #443F42",
"~  c #4E4244",
"^  c #4A4548",
"/  c #4F4A4D",
"(  c #474246",
")  c #524441",
"_  c #554944",
"`  c #594A46",
"'  c #514C4F",
"]  c #5C4E49",
"[  c #5E514B",
"{  c #524C50",
"}  c #5A5356",
"|  c #5C565A",
" . c #61544D",
".. c #6C554F",
"X. c #605242",
"o. c #645750",
"O. c #6D5651",
"+. c #655851",
"@. c #6B5C55",
"#. c #655C5A",
"$. c #765C56",
"%. c #785B55",
"&. c #725D58",
"*. c #614E49",
"=. c #776948",
"-. c #74655D",
";. c #6F6059",
":. c #645E62",
">. c #696267",
",. c #6C656A",
"<. c #726A6F",
"1. c #7C6C64",
"2. c #736B70",
"3. c #797177",
"4. c #7D757B",
"5. c #823E3E",
"6. c #847107",
"7. c #8A661A",
"8. c #9C7818",
"9. c #A67E1B",
"0. c #9B5A38",
"q. c #8A5B25",
"w. c #956526",
"e. c #8A7227",
"r. c #947D2B",
"t. c #9F6330",
"y. c #897430",
"u. c #A57622",
"i. c #874040",
"p. c #8A4141",
"a. c #944646",
"s. c #9A4B49",
"d. c #A44E4E",
"f. c #A45348",
"g. c #AD5252",
"h. c #A75050",
"j. c #B55656",
"k. c #BB5958",
"l. c #8B7840",
"z. c #867447",
"x. c #8A786F",
"c. c #8C7A70",
"v. c #907D74",
"b. c #C65E5E",
"n. c #C85F5F",
"m. c #CE6262",
"M. c #D26464",
"N. c #DE6969",
"B. c #EB6F6F",
"V. c #E56D6D",
"C. c #ED7171",
"Z. c #F67575",
"A. c #978214",
"S. c #AA900C",
"D. c #B1970A",
"F. c #BB9F0C",
"G. c #A98318",
"H. c #B59619",
"J. c #BFA415",
"K. c #9E8838",
"L. c #B89C28",
"P. c #A08A37",
"I. c #CAAB15",
"U. c #D6B61B",
"Y. c #C4A70B",
"T. c #E0BE0F",
"R. c #C5A922",
"E. c #D2B422",
"W. c #EAC80E",
"Q. c #F0CE0E",
"!. c #FEDA0F",
"~. c #E1C017",
"^. c #F2CE10",
"/. c #95804B",
"(. c #9C877D",
"). c #AA9378",
"_. c #B79E79",
"`. c #877E84",
"'. c #9E8A80",
"]. c #A28E83",
"[. c #AA9388",
"{. c #A89287",
"}. c #B79F93",
"|. c #BCA398",
" X c #C3A99C",
".X c #DBBE9A",
"XX c #CAAFA2",
"oX c #CBB1A5",
"OX c #D2B6A8",
"+X c #D6B9AC",
"@X c #D1B6A2",
"#X c #DCBFB1",
"$X c #E7C9BA",
"%X c #EFD0C1",
"&X c #FCDBCB",
"*X c #F6D6C6",
/* pixels */
"% % % % % % % % % % % % g h h g % % % % % % % % % % % % % % % % g h h h h h h h h h h g % % % % g h h g % % % % % % % % % % % % ",
"% % % % % % % % % % % % g h h g % % % % % % % % & & & & ; ; ; ; f z z z z z z z z f f g % % % % g h h g % % % % % % % % % % % % ",
"% % % % % % % % % % % % g h h g % % % % % % % & > > > 9 0 r r r l l l l l l l l l l k h % % % % g h h g % % % % % % % % % % % % ",
"% % % % % % % % % % % % g h h g % % % % % % % ; 9 0 0 0 r x x x x x x x x x x x x x k h $ % % % g h h g % % % % % % % % @ @ @ + ",
"% % % % g g g g g g g g h h h h g g g g g g g s 0 0 0 0 r x x x x x x x x x x x x x k f g g g g h h h h g g g g g g g h &.&.&.&.",
"% % % % g h h h h h h h h h h h h h h s s s s k c v v v n M M M M M M M M 5.5.i.i.i.b z z z f f h h h h h h h h h h h f $.$.$.$.",
"% % % % g h h h h h h h h h h h h h s q q q q b a.d.d.h.g.g.g.g.g.g.g.g.g.k.n.M.M.m.s.b l l l z h h h h h h h h h h h f $.$.$.$.",
"% % % % g h h h h h h h h h h h h h s q 0 0 0 M g.b.b.b.b.b.b.b.b.b.b.b.b.M.C.Z.Z.Z.j.n x x l k h h h h h h h h h h h f $.$.$.$.",
"g g g g h h h h h h h h h h h h h h s q 0 0 0 M g.b.b.b.b.b.b.b.b.b.b.b.b.M.C.Z.Z.Z.j.n x x l k h h h h h h h h h h h f $.$.$.$.",
"h h h h h h h h h h h h h h d d s s s r t t t 5.j.b.b.b.b.b.b.b.n.m.M.M.M.N.C.Z.Z.Z.b.a.i.i.M b z z z z h h h h h h h f $.$.$.$.",
"h h h h h h h h h h h h h h s q q q t n 5.5.5.s.k.b.b.b.b.b.b.b.m.N.B.B.B.C.Z.Z.Z.Z.V.M.M.M.k.p.l l l l h h h h h h h f $.$.$.$.",
"h h h h h h h h h h h h h f q 0 0 0 t M a.a.a.d.k.b.b.b.b.b.b.b.M.V.Z.Z.Z.Z.Z.Z.Z.Z.Z.Z.Z.Z.N.d.x x x x h h h h h h h f $.$.$.$.",
"h h h h h h h h h h h h h f q 0 0 0 t M a.a.a.h.k.b.b.b.b.b.b.b.M.V.Z.Z.Z.Z.Z.Z.Z.Z.Z.Z.Z.Z.N.d.x x x x h h h h h h h f $.$.$.$.",
"h h h h h h h h h h h h h f q 0 0 0 t M a.a.a.d.k.b.b.b.b.b.b.b.m.N.B.B.B.B.B.B.B.B.B.B.B.B.M.s.x x x x h h h h h h h f $.$.$.$.",
"h h h h h h h h h h h h h f q 0 0 0 t M a.a.a.d.k.b.b.b.b.b.b.b.n.m.M.M.M.M.M.M.M.M.M.M.M.M.b.a.x x x x h h h h h h h f $.$.%.%.",
"g g g g h h h h h h h h h f q 0 0 0 t M a.a.a.d.k.b.b.b.b.b.b.b.b.b.b.b.b.b.b.b.b.b.b.b.b.b.j.p.x x x x h h h h h h h f $.$.%.%.",
"% % % % g h h h h h h h h f q 0 0 0 t M a.a.a.d.k.b.b.b.b.b.b.b.b.b.b.b.b.b.b.b.b.b.b.b.b.b.j.p.x x x x h h h h h h h f $.$.$.$.",
"% % % % g h h h h h h h h f q e e e t m i.i.i.a.d.g.g.g.k.b.b.b.b.b.b.b.b.j.d.a.a.a.d.j.k.k.g.i.x x x x h h h h h h h f $.$.$.$.",
"% % % % g h h h h h h h h f k t t t x v v v v n M M M 5.d.b.b.b.b.b.b.b.b.a.r X X O c a.d.d.a.M x x x x h h h h h h h f $.$.$.$.",
"% % % % g h h h h h h h h f k x x x x x x x x x x x x v a.b.b.b.b.b.b.b.b.5.X       9 5.a.a.p.m x x x x h h h h h h h f $.$.$.$.",
"g g g g h h h h h h h h h f k x x x x x x x x x x x x v a.b.b.b.b.b.b.b.b.5.X       9 5.a.a.p.m x x x x h h h h h h h f $.%.%.%.",
"h h h h h h h h h h h h h f k x x x v n M M M M M M M 5.s.j.k.k.k.k.k.k.k.M X       9 5.a.a.i.n t t t t h h h h h h h f $.%.%.%.",
"h h h h h h h h h h h h h f k x x x m a.g.g.g.g.g.g.g.g.d.d.d.d.d.d.d.d.d.v .       9 5.a.a.i.v e e e e h h h h h h h f $.$.$.$.",
"g g g g h h h h h h h h h f k x x x M d.b.b.b.b.b.b.b.b.g.a.a.a.a.a.a.a.a.x .       9 5.a.a.i.v 0 0 0 0 h h h h h h h h &.$.$.$.",
"% % % % g h h h h h h h h f k x x x M d.b.b.b.b.b.b.b.b.g.a.a.a.a.a.a.a.a.x .       9 5.a.a.i.v 0 0 0 0 h h h h h h h h h f f f ",
"% % % % g h h h h h h h h f k l l l b a.d.d.d.d.d.d.d.d.f.0.0.0.0.s.a.a.a.v O . . X e m 5.5.M c q q q q h h h h h h h h h h h h ",
"% % % % g h h h h h h h h h h f z z k c v v v v v v v v q.9.G.G.u.0.a.a.a.0.M v v v c t t t t k s s s s h h h h h h h h h h h h ",
"% % % % g h h h h h h h h h h h h h s q 0 0 0 0 0 0 0 y F S.D.D.G.t.a.a.a.a.a.a.a.a.n e 0 0 0 s h h h h h h h h h h h h h f f f ",
"% % % % g h h h h h h h h h h h h h s q 0 0 0 0 0 0 0 y F S.D.D.G.t.a.a.a.a.a.a.a.a.n e 0 0 0 s h h h h h h h h h h h h &.$.$.$.",
"% % % % g h h h h h h h h h h h h h s q q q q 0 0 0 0 y 7.F.Y.Y.H.w.5.5.5.5.5.5.5.5.c r q q q s h h h h h h h h h h h f $.$.$.$.",
"% % % % g h h h h h h h h h h h h h h s s s s q 0 0 0 i 8.T.W.W.I.w.t t t t t t t t k s s s s h h h h h h h h h h h h f $.$.%.%.",
"% % % % g h h h h h h h h h h h h h h h h h h s 0 0 0 i G.^.!.!.U.7.0 0 0 0 0 0 0 0 q f h h h h h h h h h h h h h h h h &.$.$.$.",
"% % % % g h h h h h h h h h h h h h h h h h h s 0 0 0 i G.^.!.!.U.7.0 0 0 0 0 0 0 0 q f h h h h h h h h h h h h h h h h h f f f ",
"% % % % g h h h h h h h h h h h h h g d a a a a w w w p e.R.U.U.L.Q q q q q q q q q s a a a a g h h h h h h h h h h h h h h h h ",
"% % % % g h h h h h h h h h h h h h a 3 : : : : < < < a T E E E =.X.~ ~ ~ ~ ~ ~ ~ ~ j : : : : 6 h h h h h h h h h h h h h h h h ",
"% % % % g h h h h h h h h h h h h h a : & & & = 2 2 2 4 ! / ' ' ' ' ' ' ' ' ' ' ' / 5 = & & = 3 h h h h h h h h h h h h h f f f ",
"g g g g h h h h h h h h h h h h h h a : & & & = 2 2 2 4 ! / ' ' ' ' ' ' ' ' ' ' ' / 5 = & & = 3 h h h h h h h h h h h h &.$.$.$.",
"h h h h h h h h h h h h h h h h h h a : & & & = 2 2 2 4 ( } } } } | | | | } / ^ ^ ^ 4 = & & = 3 h h h h h h h h h h h f $.$.$.$.",
"h h h h h h h h h h h h h h h h h h a : & & & = 2 2 2 4 / :.:.:.>.2.3.3.3.:.^ 5 5 5 2 * & & = 3 h h h h h h h h h h h f $.$.$.$.",
"h h h h h h h h h h h h h h h h h h a : & & & = 2 2 2 4 { >.,.,.<.4.`.`.`.,.^ 2 2 2 : * & & = 3 h h h h h h h h h h h f $.$.$.$.",
"h h h h h h h h h h h h h h h h h h a : & & & = 2 2 2 4 { >.,.,.<.4.`.`.`.,.^ 2 2 2 : * & & = 3 h h h h h h h h h h h f $.$.$.$.",
"h h h h h h h h h h h h h h h h h h a : & & & = 2 2 2 4 { >.,.,.<.4.`.`.`.,.^ 2 2 2 : * & & = 3 h h h h h h h h h h h f $.$.$.$.",
"h h h h h h h h h h h h h h h h h h a : & & & = 2 2 2 4 { >.,.,.<.4.`.`.`.,.^ 2 2 2 : * & & = 3 h h h h h h h h h h h f $.$.$.$.",
"g g g g h h h h h h h h h h h h h h a : & & & = 2 2 2 4 { >.,.,.<.4.`.`.`.,.^ 2 2 2 : * & & = 3 h h h h h h h h h h h h &.$.$.$.",
"% % % % g h h h h h h h h h h h h h a : & & & = 2 2 2 4 { >.,.,.<.4.`.`.`.,.^ 2 2 2 : * & & = 3 h h h h h h h h h h h h h f f f ",
"% % % % g h h h h h h h h h h h h h d , # # # , u K K K _ } | | #.>.2.2.2.#.Y K K K P I I I I Y h h h h h h h h h h h h h h h h ",
"% % % % g h h h h h h h h h h h h h u 8 7 7 7 Z D S S D P 6 4 4 5 ! ^ ^ ^ Y D S S J A.J.I.I.H.Q h h h h h h h h h h h h h h h h ",
"% % % % g h h h h h h h h h h h h h u B N N N A H G G H C - & & * 1 2 2 2 L S G G 6.F.Q.!.!.~.r.h h h h h h h h h h h h h h h h ",
"% % % % g h h h h h h h h h h h h h u B N N N A H G G H C - & & * 1 2 2 2 L S G G 6.F.Q.!.!.~.r.h h h h h h h h h h h h h h h h ",
"% % % % g h h h h h h h h h h h h h f L V V V D e.r.r.y.W _ _ _ ` } #.#.#.=.l.K.K.P.L.E.U.U.R.y.h h h h h h h h h h h h h h h h ",
"% % % % g h h h h h h h h h h h h h U Y T T T z.)._._._.).].].].[.|.oXoXoX@X.X.X.X.X_./.l.l.z.T h h h h h h h h h h h h h h h h ",
"% % % % g h h h h h h h h h h h h h ) ] +.+.+.c.}.XXXXXXXXXXXXXX+X$X&X&X&X&X&X&X&X*X}.-.+.+. ._ h h h h h h h h h h h h h f f f ",
"% % % % g h h h h h h h h h h h h h ) ] +.+.+.c.}.XXXXXXXXXXXXXX+X$X&X&X&X&X&X&X&X*X}.-.+.+. ._ h h h h h h h h h h h h &.$.$.$.",
"% % % % g h h h h h h h h h h h h h U ` [ [ [ 1.(.[.[.[.|.XXXXXXOX$X%X%X%X$X#X+X+XOX'.@.[ [ ` ) h h h h h h h h h h h f $.$.$.$.",
"% % % % g h h h h h g g h h h h h h h U ) ) ) ` o.@.@.-.(. XXXXXoXOX+X+X+X|.(.c.c.x.;.` ) ) U h h h h h h h h h h h h f $.$.$.$.",
"% % % % g h h h h h g g h h h h h h h h h h h h U U U ` c. XXXXXXXXXXXXXXX{.1.+.+.o.` h h h h h h h h h h h h h h h h f $.$.$.$.",
"% % % % g h h h h h h h h h h h h h h h h h h h U U U ` c. XXXXXXXXXXXXXXX{.1.+.+.o.` h h h h h h h h h h h h h h h h f $.$.$.$.",
"% % % % g h h h h h h h h h h h h h h h h h h h h h h ) 1.].[.[.[.[.[.[.[.v.-.[ [ ] _ h h h h h h h h h h h h h h h h f $.$.$.$.",
"% % % % g h h h h h h h h h h h h h h h h h h h h h h h ` @.@.@.@.@.@.@.@. .` ) ) U h h h h h h h h h h h h h h h h h f $.$.$.$.",
"+ + + o h f f f f f f h h h h h h h h h h f f h h h h h h U U U U U U U U h f f f f f h h h h h h f f f f f f f f f f f $.$.$.$.",
"&.&.&.&.$.$.$.$.$.$.$.&.h g h h h h h h &.$.$.&.h h h h ] U U U U U U U U ` O.$.$.$.$.&.f h h h &.$.$.$.$.$.$.$.$.$.$.$.$.$.$.$.",
"%.%.%.%.$.$.$.$.%.%.$.$.h g h h h h h f $.$.$.$.f h h f  .` _ _ _ _ _ _ _ *.O.$.$.$.$.$.f h h f $.$.$.$.$.$.$.$.$.$.$.$.$.$.$.$.",
"$.$.$.$.$.$.$.$.$.$.$.$.f h h h h h h f $.$.$.$.f h h f @...............O.O.%.$.$.$.%.$.f h h f $.$.$.$.$.$.$.$.$.$.$.$.$.$.$.$.",
"$.$.$.$.$.$.$.$.$.$.$.$.f h h h h h h f $.$.$.$.f h h f $.$.$.$.$.$.$.$.%.%.$.$.%.$.%.$.f h h f $.$.$.$.$.$.$.$.$.$.$.$.$.$.$.$."
};
