/* XPM */
static char *rcp0723447375647[] = {
/* columns rows colors chars-per-pixel */
"64 64 56 1 ",
"  c #222222",
". c #222224",
"X c #252120",
"o c #463C3B",
"O c #493B3A",
"+ c #493B38",
"@ c #463C3A",
"# c gray13",
"$ c #212322",
"% c #4A2323",
"& c #632F2F",
"* c #232122",
"= c #4A3A3A",
"- c #473B3B",
"; c #232220",
": c #262020",
"> c #473C3A",
", c #281F20",
"< c #252122",
"1 c #26211E",
"2 c #28201E",
"3 c #453D3B",
"4 c #705E5A",
"5 c #715E58",
"6 c #725D58",
"7 c #4C3A38",
"8 c #745D57",
"9 c #775C55",
"0 c #4A3C3B",
"q c #944646",
"w c #F77575",
"e c #C65E5E",
"r c #775B57",
"t c #202221",
"y c #775C53",
"u c #4A3B38",
"i c #FDD90F",
"p c #222220",
"a c #785B55",
"s c #282627",
"d c #514C4F",
"f c #755C57",
"g c #6C656A",
"h c #363235",
"j c #877E84",
"k c #4C4104",
"l c #7F6D07",
"z c #4B413C",
"x c #CAAFA2",
"c c #FCDBCB",
"v c #655851",
"b c #291F1D",
"n c #4C3A36",
"m c #4D3A36",
"M c #725E57",
"N c #745C58",
/* pixels */
"  ..       XoOOoX              XoOOOOOOOOO+@X  XoOOoX           ",
"  ..     # XoOOoX              XoOOOOOOOOO+@X #XoOOoX #         ",
"      $$   XoOOoX     %%%%%&&&&&&&&&&%%%%%OoX* XoO=-X ..    $$  ",
"    ;X;;XXX:-OO-:XXXXX%%%%%&&&&&&&&&&%%%%%O>,XX:-O=-:X<<XXXX1112",
"   ;3oooooo-OOOO-ooooo%%%%%&&&&&&&&&&%%%%%+O>oo-OOOO>@oooooO4556",
"   XoOOOOOOOOOOOOOOOOO%%%%%&&&&&&&&&&%%%%%++OOOOOOOO++OOOOO78999",
"   XoO0OOO++OO==O%%%%%qqqqqwwwwwwwwwwqqqqq%%%%%OOOOOOOOOOOO78999",
"XXX:-OOOOO++OOOOO%%%%%qqqqqwwwwwwwwwwqqqqq%%%%%OOOOOOOOOOOO78999",
"ooo-OOOOOOOOOOOOO%%%%%qqqqqwwwwwwwwwwqqqqq%%%%%OOOOO==OOOOO78999",
"OOOOOOOOOOOOOO>>O%%%%%qqqqqwwwwwwwwwwqqqqq%%%%%OOOOO==OOOOO78999",
"OOOOOOOOOOOO%%%%%qqqqqwwwwwwwwwwwwwwwwwwwwqqqqq%%%%%OOOOOOO78999",
"OOOOOOOOOOOO%%%%%qqqqqwwwwwwwwwwwwwwwwwwwwqqqqq%%%%%OOOOOOO78999",
"OOOOOOOOOOOO%%%%%qqqqqwwwwwwwwwwwwwwwwwwwwqqqqq%%%%%OOOOOOO78999",
"OOOOOOOOOOOO%%%%%qqqqqwwwwwwwwwwwwwwwwwwwwqqqqq%%%%%OOOOOOO78999",
"OO&&&&&&&&&&&&&&&eeeeeeeeeewwwwwwwwwweeeeeeeeee&&&&&&&&&&&&&&&rr",
"oo&&&&&&&&&&&&&&&eeeeeeeeeewwwwwwwwwweeeeeeeeee&&&&&&&&&&&&&&&rr",
";;&&&&&&&&&&&&&&&eeeeeeeeeewwwwwwwwwweeeeeeeeee&&&&&&&&&&&&&&&99",
"$t&&&&&&&&&&&&&&&eeeeeeeeeewwwwwwwwwweeeeeeeeee&&&&&&&&&&&&&&&99",
"  &&&&&&&&&&&&&&&eeeeeeeeeewwwwwwwwwweeeeeeeeee&&&&&&&&&&&&&&&99",
"XX&&&&&qqqqqqqqqqqqqqqeeeeeeeeeeeeeeeeeeeeqqqqqqqqqqqqqqq&&&&&99",
"@@&&&&&qqqqqqqqqqqqqqqeeeeeeeeeeeeeeeeeeeeqqqqqqqqqqqqqqq&&&&&yy",
"++&&&&&qqqqqqqqqqqqqqqeeeeeeeeeeeeeeeeeeeeqqqqqqqqqqqqqqq&&&&&yy",
"OO&&&&&qqqqqqqqqqqqqqqeeeeeeeeeeeeeeeeeeeeqqqqqqqqqqqqqqq&&&&&99",
"ooo-OOO%%%%%%%%%%qqqqqqqqqqqqqqqqqqqqqqqqqqqqqq%%%%%%%%%%OOu6888",
"XXX:-OO%%%%%%%%%%qqqqqqqqqqqqqqqqqqqqqqqqqqqqqq%%%%%%%%%%O++u777",
"   XoOO%%%%%%%%%%qqqqqqqqqqqqqqqqqqqqqqqqqqqqqq%%%%%%%%%%O++OOOO",
"   XoOO%%%%%%%%%%qqqqqqqqqqqqqqqqqqqqqqqqqqqqqq%%%%%%%%%%OOOOOOO",
"   XoOOOOOOOOOOOO%%%%%qqqqqqqqqqqqqqqqqqqq%%%%%iiiiiOOOOOOOOu777",
"   XoOOOOOOOOOOOO%%%%%qqqqqqqqqqqqqqqqqqqq%%%%%iiiiiOOOOOOOu6888",
"   XoOOOOOOOOO==O%%%%%qqqqqqqqqqqqqqqqqqqq%%%%%iiiiiOOOOOOO78999",
"  pX-=OOOOOOOO++O%%%%%qqqqqqqqqqqqqqqqqqqq%%%%%iiiiiOOOOOOO789aa",
"  pX-=OOOOOOsssssddddd%%%%%%%%%%%%%%%%%%%%dddddsssssOOOOOOOu68ff",
"   XoOOOOOOOsssssddddd%%%%%%%%%%%%%%%%%%%%dddddsssssOOOOOOOOu777",
" # XoOOOOOOOsssssddddd%%%%%%%%%%%%%%%%%%%%dddddsssssOOOOOOOOOOOO",
"   XoOOOOOOOsssssddddd%%%%%%%%%%%%%%%%%%%%dddddsssssOOOOOOOOOOOO",
"XXX:-OOsssssdddddgggggddddddddddddddddddddddddddddddsssssOOOu777",
"ooo-OOOsssssdddddgggggddddddddddddddddddddddddddddddsssssOOu6888",
"OOOOOOOsssssdddddgggggddddddddddddddddddddddddddddddsssssOO78999",
"OOOOOOOsssssdddddgggggddddddddddddddddddddddddddddddsssssOO78999",
"OOOOOOOhhhhhgggggggggghhhhhggggggggggggggggggggdddddsssssOO78999",
"OOOOOOOhhhhhgggggggggghhhhhggggggggggggggggggggdddddsssssOO78999",
"OOOOOOOhhhhhgggggggggghhhhhggggggggggggggggggggdddddsssssOO78999",
"OOOOOOOhhhhhgggggggggghhhhhggggggggggggggggggggdddddsssssOO78999",
"ooo-OOOhhhhhjjjjjggggghhhhhgggggggggggggggggggghhhhhsssssOOu6888",
"XXX:-OOhhhhhjjjjjggggghhhhhgggggggggggggggggggghhhhhsssssOOOu777",
"   XoOOhhhhhjjjjjggggghhhhhgggggggggggggggggggghhhhhsssssOOOOOOO",
" # XoOOhhhhhjjjjjggggghhhhhgggggggggggggggggggghhhhhsssssOOOOOOO",
"   XoOOOOOOOhhhhhhhhhhkkkkklllllllllllllllkkkkkkkkkkOOOOOOOOOOOO",
"  .<oOOOOOOOhhhhhhhhhhkkkkklllllllllllllllkkkkkkkkkkOOOOOOOOOOOO",
"  .<oOOOOOOOhhhhhhhhhhkkkkklllllllllllllllkkkkkkkkkkOOOOOOOOOOOO",
"   XoOOOOOOOhhhhhhhhhhkkkkklllllllllllllllkkkkkkkkkkOOOOOOOOOOOO",
"   XoOOOOOOOhhhhhhhhhhkkkkklllllllllllllllkkkkkkkkkkOOOOOOOOu777",
"  .<oOOOOOOOOOOOOzzzzzxxxxxxxxxxxxxxxccccccccccvvvvvOOOOOOOu6888",
"  .<oOOOOOOOOOOOOzzzzzxxxxxxxxxxxxxxxccccccccccvvvvvOOOOOOO78999",
"   XoOOOOO>>OOOOOzzzzzxxxxxxxxxxxxxxxccccccccccvvvvvOOOOOOO78999",
"   XoOOOOO>>OOOOOzzzzzxxxxxxxxxxxxxxxccccccccccvvvvvOOOOOOO78999",
"   XoOOOOOOOOOOOOOOOOOzzzzzvvvvvvvvvvxxxxxxxxxxzzzzzOOOOOOO78999",
" # XoO0OOOOOOOOOOOOOOOzzzzzvvvvvvvvvvxxxxxxxxxxzzzzzOOOOOOO78999",
"   X@+OOOOOOOOOO++OOOOzzzzzvvvvvvvvvvxxxxxxxxxxzzzzzOOOOOOO78999",
"222bun77777uOOOO++OOu7zzzzzvvvvvvvvvvxxxxxxxxxxzzzzz7777777mf999",
"MM6N88888886u>OOOOOu6886uOOu6888ff888zzzzzzzzzzu68888888888f9999",
"yyaa9999yy98u>OOOOO789987OO78999aa999zzzzzzzzzz78999999999999999",
"9999999999987OOO==O789987OO789999999rzzzzzzzzzz78999999999999999",
"9999999999987OOO==O789987OO789999999rzzzzzzzzzz78999999999999999"
};
