/* XPM */
static char *rcp07234076265722[] = {
/* columns rows colors chars-per-pixel */
"64 64 56 1 ",
"  c #222222",
". c #222224",
"X c #252120",
"o c #463C3B",
"O c #493B3A",
"+ c #493B38",
"@ c #463C3A",
"# c gray13",
"$ c #212322",
"% c #4A2323",
"& c #632F2F",
"* c #232122",
"= c #4A3A3A",
"- c #473B3B",
"; c #232220",
": c #262020",
"> c #281F20",
", c #252122",
"< c #26211E",
"1 c #28201E",
"2 c #453D3B",
"3 c #473C3A",
"4 c #705E5A",
"5 c #715E58",
"6 c #725D58",
"7 c #4C3A38",
"8 c #745D57",
"9 c #775C55",
"0 c #4A3C3B",
"q c #944646",
"w c #F77575",
"e c #C65E5E",
"r c #202221",
"t c #4A3B38",
"y c #FDD90F",
"u c #222220",
"i c #785B55",
"p c #282627",
"a c #514C4F",
"s c #755C57",
"d c #6C656A",
"f c #363235",
"g c #877E84",
"h c #4C4104",
"j c #7F6D07",
"k c #655851",
"l c #FCDBCB",
"z c #CAAFA2",
"x c #4B413C",
"c c #291F1D",
"v c #4C3A36",
"b c #4D3A36",
"n c #725E57",
"m c #745C58",
"M c #775C53",
"N c #775B57",
/* pixels */
"  ..       XoOOoX              XoOOOOOOOOO+@X  XoOOoX           ",
"  ..     # XoOOoX              XoOOOOOOOOO+@X #XoOOoX #         ",
"      $$   XoOOoX      %%%%%&&&&&&&&&&%%%%%%X* XoO=-X ..    $$  ",
"    ;X;;XXX:-OO-:XXXXXX%%%%%&&&&&&&&&&%%%%%%>XX:-O=-:X,,XXXX<<<1",
"   ;2oooooo-OOOO-oooooo%%%%%&&&&&&&&&&%%%%%%3oo-OOOO3@oooooO4556",
"   XoOOOOOOOOOOOOOOOOOO%%%%%&&&&&&&&&&%%%%%%OOOOOOOO++OOOOO78999",
"   XoO0OOO++OO==OO%%%%%qqqqqwwwwwwwwwwqqqqqq%%%%%OOOOOOOOOO78999",
"XXX:-OOOOO++OOOOOO%%%%%qqqqqwwwwwwwwwwqqqqqq%%%%%OOOOOOOOOO78999",
"ooo-OOOOOOOOOOOOOO%%%%%qqqqqwwwwwwwwwwqqqqqq%%%%%OOO==OOOOO78999",
"OOOOOOOOOOOOOO33OO%%%%%qqqqqwwwwwwwwwwqqqqqq%%%%%OOO==OOOOO78999",
"OOOOOOOOOOOOO%%%%%qqqqqwwwwwwwwwwwwwwwwwwwwwqqqqq%%%%%OOOOO78999",
"OOOOOOOOOOOOO%%%%%qqqqqwwwwwwwwwwwwwwwwwwwwwqqqqq%%%%%OOOOO78999",
"OOOOOOOOOOOOO%%%%%qqqqqwwwwwwwwwwwwwwwwwwwwwqqqqq%%%%%OOOOO78999",
"OOOOOOOOOOOOO%%%%%qqqqqwwwwwwwwwwwwwwwwwwwwwqqqqq%%%%%OOOOO78999",
"OOO&&&&&&&&&&&&&&&eeeeeeeeeewwwwwwwwwweeeeeeeeeee&&&&&&&&&&&&&&&",
"ooo&&&&&&&&&&&&&&&eeeeeeeeeewwwwwwwwwweeeeeeeeeee&&&&&&&&&&&&&&&",
";;X&&&&&&&&&&&&&&&eeeeeeeeeewwwwwwwwwweeeeeeeeeee&&&&&&&&&&&&&&&",
"$r &&&&&&&&&&&&&&&eeeeeeeeeewwwwwwwwwweeeeeeeeeee&&&&&&&&&&&&&&&",
"   &&&&&&&&&&&&&&&eeeeeeeeeewwwwwwwwwweeeeeeeeeee&&&&&&&&&&&&&&&",
"XXX&&&&&qqqqqqqqqqqqqqqeeeeeeeeeeeeeeeeeeeeeqqqqqqqqqqqqqqq&&&&&",
"@@o&&&&&qqqqqqqqqqqqqqqeeeeeeeeeeeeeeeeeeeeeqqqqqqqqqqqqqqq&&&&&",
"++O&&&&&qqqqqqqqqqqqqqqeeeeeeeeeeeeeeeeeeeeeqqqqqqqqqqqqqqq&&&&&",
"OOO&&&&&qqqqqqqqqqqqqqqeeeeeeeeeeeeeeeeeeeeeqqqqqqqqqqqqqqq&&&&&",
"ooo-OOOO%%%%%%%%%%qqqqqqqqqqqqqqqqqqqqqqqqqqqqqqq%%%%%%%%%%t6888",
"XXX:-OOO%%%%%%%%%%qqqqqqqqqqqqqqqqqqqqqqqqqqqqqqq%%%%%%%%%%+t777",
"   XoOOO%%%%%%%%%%qqqqqqqqqqqqqqqqqqqqqqqqqqqqqqq%%%%%%%%%%+OOOO",
"   XoOOO%%%%%%%%%%qqqqqqqqqqqqqqqqqqqqqqqqqqqqqqq%%%%%%%%%%OOOOO",
"   XoOOOOOOOOyyyyy%%%%%qqqqqqqqqqqqqqqqqqqqq%%%%%OOOOOOOOOOOt777",
"   XoOOOOOOOOyyyyy%%%%%qqqqqqqqqqqqqqqqqqqqq%%%%%+OOOOOOOOOt6888",
"   XoOOOOOOOOyyyyy%%%%%qqqqqqqqqqqqqqqqqqqqq%%%%%+OOOOOOOOO78999",
"  uX-=OOOOOOOyyyyy%%%%%qqqqqqqqqqqqqqqqqqqqq%%%%%OOOOOOOOOO789ii",
"  uX-=OOOOOOOpppppaaaaa%%%%%%%%%%%%%%%%%%%%%aaaaapppppOOOOOt68ss",
"   XoOOOOOOOOpppppaaaaa%%%%%%%%%%%%%%%%%%%%%aaaaapppppOOOOOOt777",
" # XoOOOOOOOOpppppaaaaa%%%%%%%%%%%%%%%%%%%%%aaaaapppppOOOOOOOOOO",
"   XoOOOOOOOOpppppaaaaa%%%%%%%%%%%%%%%%%%%%%aaaaapppppOOOOOOOOOO",
"XXX:-OOOpppppaaaaaaaaaaaaaaaaaaaaaaaaaaaaaaadddddaaaaapppppOt777",
"ooo-OOOOpppppaaaaaaaaaaaaaaaaaaaaaaaaaaaaaaadddddaaaaapppppt6888",
"OOOOOOOOpppppaaaaaaaaaaaaaaaaaaaaaaaaaaaaaaadddddaaaaappppp78999",
"OOOOOOOOpppppaaaaaaaaaaaaaaaaaaaaaaaaaaaaaaadddddaaaaappppp78999",
"OOOOOOOOpppppaaaaaddddddddddddddddddddffffffddddddddddfffff78999",
"OOOOOOOOpppppaaaaaddddddddddddddddddddffffffddddddddddfffff78999",
"OOOOOOOOpppppaaaaaddddddddddddddddddddffffffddddddddddfffff78999",
"OOOOOOOOpppppaaaaaddddddddddddddddddddffffffddddddddddfffff78999",
"ooo-OOOOpppppfffffddddddddddddddddddddffffffdddddgggggffffft6888",
"XXX:-OOOpppppfffffddddddddddddddddddddffffffdddddgggggfffffOt777",
"   XoOOOpppppfffffddddddddddddddddddddffffffdddddgggggfffffOOOOO",
" # XoOOOpppppfffffddddddddddddddddddddffffffdddddgggggfffffOOOOO",
"   XoOOOOOOOOhhhhhhhhhhjjjjjjjjjjjjjjjhhhhhhffffffffffOOOOOOOOOO",
"  .,oOOOOOOOOhhhhhhhhhhjjjjjjjjjjjjjjjhhhhhhffffffffffOOOOOOOOOO",
"  .,oOOOOOOOOhhhhhhhhhhjjjjjjjjjjjjjjjhhhhhhffffffffffOOOOOOOOOO",
"   XoOOOOOOOOhhhhhhhhhhjjjjjjjjjjjjjjjhhhhhhffffffffffOOOOOOOOOO",
"   XoOOOOOOOOhhhhhhhhhhjjjjjjjjjjjjjjjhhhhhhffffffffffOOOOOOt777",
"  .,oOOOOOOOOkkkkkllllllllllzzzzzzzzzzzzzzzzxxxxxOOOOOOOOOOt6888",
"  .,oOOOOOOOOkkkkkllllllllllzzzzzzzzzzzzzzzzxxxxxOOOOOOOOOO78999",
"   XoOOOOO33OkkkkkllllllllllzzzzzzzzzzzzzzzzxxxxxOOOOOOOOOO78999",
"   XoOOOOO33OkkkkkllllllllllzzzzzzzzzzzzzzzzxxxxxOOOOOOOOOO78999",
"   XoOOOOOOOOxxxxxzzzzzzzzzzkkkkkkkkkkxxxxxxOOOOOOOOOOOOOOO78999",
" # XoO0OOOOOOxxxxxzzzzzzzzzzkkkkkkkkkkxxxxxxOOOOOOOOOOOOOOO78999",
"   X@+OOOOOOOxxxxxzzzzzzzzzzkkkkkkkkkkxxxxxxOOOOOOOOOOOOOOO78999",
"111ctv77777tOxxxxxzzzzzzzzzzkkkkkkkkkkxxxxxx=OOOt7777777777bs999",
"nn6m88888886t3OOOOxxxxxxxxxx6888ss88888888867=Ot68888888888s9999",
"MMii9999MM98t3OOOOxxxxxxxxxx8999ii99999999987=O78999999999999999",
"9999999999987OOO==xxxxxxxxxx89999999NN9999M87OO78999999999999999",
"9999999999987OOO==xxxxxxxxxx89999999NN9999M87OO78999999999999999"
};
