/* XPM */
static char *rcp0257470602350[] = {
/* columns rows colors chars-per-pixel */
"64 64 44 1 ",
"  c #0D1316",
". c #101617",
"X c #121718",
"o c #161A1A",
"O c #1C1E1E",
"+ c #1E1F20",
"@ c #1F2020",
"# c #232222",
"$ c #292726",
"% c #2B2827",
"& c #2A2728",
"* c #2D2929",
"= c #332D2D",
"- c #37302F",
"; c #38302F",
": c #372F30",
"> c #373030",
", c #3C3333",
"< c #413636",
"1 c #433837",
"2 c #433738",
"3 c #463A39",
"4 c #4A3D3B",
"5 c #4F403E",
"6 c #50413F",
"7 c #544341",
"8 c #594743",
"9 c #5D4A46",
"0 c #5F4B48",
"q c #604C47",
"w c #624D49",
"e c #67504C",
"r c #6B534E",
"t c #6E5650",
"y c #705751",
"u c #745A53",
"i c #795D56",
"p c #7C5F58",
"a c #7E6159",
"s c #83645C",
"d c #88675F",
"f c #87685F",
"g c #88685F",
"h c #8B6B61",
/* pixels */
"#####OOoXo#*,33,*#oooOOOOOOooo#%,344444444<=#OO$,34,*#oooOOOoXXX",
"######OOOO#=,33,=#OOOO####OOOO#*,3444444441=$@#*,34,=#OOOO#@OOOO",
"##########$=<33<=$############$=,3444444441,*##=,34<=$#@###$$$$%",
"OO##$***%*=,<33<,=%$$*******%*=-,3444444443,=**=,341,=*$$*==;,,,",
"OO##*=,,,,,,1331,,===-,,,,,,-,,,<3444444443<,,,,<333<,-===,14678",
"OO#%=<3433<1333331<<<<11111111133344444444331113333333<,,<47qryu",
"+#$=,347644444444444444444444444433344444444444444444443336qtisf",
"$*=,<467744444445677777644444444443333444444677644444444347wuafh",
"=,,<3444444444445677776444444444444333344445666644444443337qypsh",
"1133344444444444444444444444444444433334444444444444443<<359ruas",
"44444433444333311111113334444333344444443311111133334442<348eyia",
"776443344443<,,,,,,,>,,<3444443333444443<,,,,,,,,,,<3443<348eyia",
"776443444543,=******%*=,3465443333446743,=*%******=,34543348eyia",
"44444344544<=$########$=,45544333344554,=$########$=<4443348ryia",
"<<13334443,=%#OO@##@OO#%=,344443344443,=%#OO@##@OO#*=,1<<348ryia",
"==,,<343,=*$##O+@@@@+O##$==,<344443<,==$##O+@@@@+O##$==:,<49ryia",
"##*=,34<=$#OO##########@+##=,145541,=##+@##########@###%=<69ryia",
"O@#=,34,=#OOO##########OOO#*,146641,*#OOO##########+OO#$=<69ryia",
"O#$=,341,*################*=,344443,=*################%*=<69ruis",
"$*=-,34441,=#OOooOOooOO#=,134444444431,=#OOooOOooOO$=,<<<149riaf",
",,,,<1479971=OX.XooX.XO=1799743<<3479971=OX.XooX.X+=38974348risg",
"333<<159tyr8,#oXoOOoXo#,8rytq5<,,<5qtyr8,#oXoOOoXo#,8ryr7447euaf",
"4431<15qyiuw4=###$$###=4wuiyq6<,,<6qyiuw4=###$$###=4euit84470rui",
"<<<,,149ryye84<,<11<,<48eyyr941,,159ryye84<,<11<,<48eyye844479wr",
"===,,14780qqqq09999999qqqq987431134789qqqq99999999qqqq9864444677",
"##$=,3444478etuuuyyuuute9744444444444479etuuuyyuuuye974444444444",
"oO#*,3431<37wypapiipapyw74<,<344443<,<37wypapiipapyw74<,<3444444",
"oO#*,343<,159ryuyyyuuyr951,,<344443<,,15qryuyyyyuyr961,,,3467788",
"oO#*,3443<3479qqq99qqq9743<<13444431<<3479qqq99qqq9743<,,347qert",
"O@#*,14443344455544555444333344444333334445654455544443<<348eyia",
"O@#*,145443333333333333334444444444444433333333333334443<348eyia",
"oO#*-145443333<<211<<<3334444444444444433322<11<<<33444333479ert",
"oO#%;14444333333333333333344444444334433333333333333443333447788",
"oO#*;14444343444444444444333444434333334444444444444443334444444",
"@#$=,14444443333333333334444444444344444333333333333444444444444",
"$*==,3456443<,,,,,,,,,,<4444443333444444<,,,,,,,,,,<444444444677",
">,,,<3467743,=***==***=,3476443333446743,=***==***=,3464444689qw",
"11133344654,=$########$=,45544333344554,=$########$=<4443347qryi",
"4444444443,=%#OO@##@OO#%=,344443344443,=%#OO@##@OO#*=,1<<149risf",
"6665443<,==$##O+@@@@+O##$==,<344443<,==$##O+@@@@+O##$===,<6qyafh",
"6666543,=##@@##########@+##=,145541,=##+@##############&=,7qyafh",
"4444441,*#OOO##########OOO#*,146641,*#OOO##########+OO##=,7qtiaf",
"<<33443,=*################*=,344443,=*################%=-<49etui",
"-,,,<34441,=#OOooOOooOO#=,134444444431,=#OOooOOooOO#=,1113479wer",
"%*==,<48q071=OX.XooX.XO=1799743<<3479971=OX.XooX.XO=189874346789",
"###*=<7wyur7,#oXoOOoXo#,8rytq5<,,<5qtyr8,#oXoOOoXo#,8ryr94333456",
"OO##=,7ruauq4=###$$###=4wuiyq6<,,<6qyiuw4=###$$###=4wuiyq51,<233",
"oO##=,6qtyte74<,<11<,<48eyyr941,,149ryye84<,<11<,148eyyr941,,,<,",
"oO#$=<479qqqqq99999999qqqq987431134789qqqq99999999qqqq98743<<,,,",
"OO#*,1444478etuuuyyuuute9744444444444479ryuuuyyuuute974444433311",
"O##=,343<<47wupapiipapuw74<,<344443<,<47wupapiipapuw74<,<3444444",
"+#$=,343<,359ruuuyyuuutq61,,<344443<,,36qtuuuyyuuutq63,,,3477889",
"+#$=,344333479qqqqqqww9743<<34444443<<3470qwqqqqwq0853<,<3479wrr",
"O##=,34444344455555666544333344444443344456665566654443<<348etui",
"oO#*-<444433311<111<<<<334444333333344331<<<<11<<<<1343<<<48ruas",
"XoO#=,34432<<<<<<<,,,,,<344433<<<<13331<,,,,,<<,,,,,<31,,,48risf",
" Xo#*,3431<<<<<111<,,,,<34443<<<<<<<<<<<,,,,<<<<,,,,<<<,,,48ruaf",
"Xo+$=<34432133333333<<<33443331113333331<<<333333<<133<,,<48rups",
"#$*-<4677544444444444544444444444444444455444444445655443479ryia",
"<134689qq98764433347898754447899988888899987444478999988789etyii",
"8890qertrrw9743<<348qre974458wrrrrreerrrtrw864468wrtrreewertyuii",
"ttyyyyuiiutw841,,259ryyw7446qtiiiuyyyyuiiitq7447qtiiiuyyyyyuuiii",
"aaaaiipasaur841,,<5qyiir8446wuasspiiiipssauw7447wuasspiiiiiiiiii",
"dffssassfspr95<,,<6quaar8447eifgfsaaaasfgfie7447eifgfsaassaaiiiu"
};
