/* XPM */
static char *rcp07425769796168[] = {
/* columns rows colors chars-per-pixel */
"64 64 236 2 ",
"   c #0C0B0C",
".  c #0B1516",
"X  c #141415",
"o  c #15191A",
"O  c #1D1C1D",
"+  c #151814",
"@  c #0E1010",
"#  c #211E1F",
"$  c #2B1D1A",
"%  c #2C111B",
"&  c #19221E",
"*  c #29201E",
"=  c #25211E",
"-  c #33241C",
";  c #1E1F21",
":  c #151D21",
">  c #2A1D27",
",  c #361B2B",
"<  c #1C2322",
"1  c #1A2423",
"2  c #1A3434",
"3  c #232322",
"4  c #2A2526",
"5  c #232925",
"6  c #2A2827",
"7  c #2D2429",
"8  c #262929",
"9  c #2C2A2A",
"0  c #242628",
"q  c #3A2925",
"w  c #332329",
"e  c #3B242C",
"r  c #332D2D",
"t  c #392C2D",
"y  c #372625",
"u  c #2D302D",
"i  c #35312E",
"p  c #38302F",
"a  c #2D3434",
"s  c #353231",
"d  c #3C3332",
"f  c #383B3A",
"g  c #6B2618",
"h  c #762B1C",
"j  c #4A1929",
"k  c #581C3A",
"l  c #57172F",
"z  c #671D32",
"x  c #43252E",
"c  c #4A2A28",
"v  c #562A28",
"b  c #4D3124",
"n  c #583129",
"m  c #4C2532",
"M  c #452931",
"N  c #442532",
"B  c #532535",
"V  c #5D2636",
"C  c #5B2639",
"Z  c #582938",
"A  c #423635",
"S  c #443837",
"D  c #4B3937",
"F  c #463B3A",
"G  c #493B3A",
"H  c #593E38",
"J  c #692F29",
"K  c #67322A",
"L  c #77362B",
"P  c #65253C",
"I  c #64293B",
"U  c #6A293C",
"Y  c #6A2738",
"T  c #73273D",
"R  c #6E3131",
"E  c #753333",
"W  c #722B2E",
"Q  c #52211A",
"!  c #3D403E",
"~  c #46423D",
"^  c #52433E",
"/  c #5B443F",
"(  c #78433A",
")  c #662240",
"_  c #6C2542",
"`  c #742642",
"'  c #7B2643",
"]  c #7E2943",
"[  c #742943",
"{  c #7B394E",
"}  c #4D3F45",
"|  c #3F4242",
" . c #474947",
".. c #564A46",
"X. c #51514D",
"o. c #5E5D5A",
"O. c #5B5553",
"+. c #4C4D51",
"@. c #624944",
"#. c #754C45",
"$. c #66524D",
"%. c #6B5752",
"&. c #685B56",
"*. c #765C55",
"=. c #795B55",
"-. c #725D58",
";. c #745457",
":. c #714D52",
">. c #5D655E",
",. c #69625E",
"<. c #526663",
"1. c #676764",
"2. c #7B736F",
"3. c #685F63",
"4. c #832D22",
"5. c #86382A",
"6. c #953628",
"7. c #8A2A3C",
"8. c #893A33",
"9. c #993931",
"0. c #9C2A3E",
"q. c #A63C2B",
"w. c #AF3D39",
"e. c #8D311F",
"r. c #CD2C14",
"t. c #CF3D2B",
"y. c #E53D22",
"u. c #9A4738",
"i. c #924231",
"p. c #BC412E",
"a. c #A44433",
"s. c #AC4533",
"d. c #A9493A",
"f. c #B84536",
"g. c #AE402A",
"h. c #C2442F",
"j. c #C24E2D",
"k. c #C34633",
"l. c #C44A34",
"z. c #CB4B35",
"x. c #C4423E",
"c. c #CA443D",
"v. c #CA4735",
"b. c #D34C34",
"n. c #DB4E36",
"m. c #D44B3A",
"M. c #DB4E39",
"N. c #D4473A",
"B. c #DD5136",
"V. c #DD513A",
"C. c #D6523D",
"Z. c #D84027",
"A. c #E7462B",
"S. c #E14E3B",
"D. c #E94D36",
"F. c #E15335",
"G. c #EC5437",
"H. c #E3523A",
"J. c #EA533A",
"K. c #F4543A",
"L. c #F44B32",
"P. c #832944",
"I. c #892946",
"U. c #882749",
"Y. c #95264E",
"T. c #94294B",
"R. c #9D294D",
"E. c #982A49",
"W. c #9D3242",
"Q. c #9B2650",
"!. c #9F2850",
"~. c #962352",
"^. c #A32B4D",
"/. c #A82F4B",
"(. c #B22F4E",
"). c #A93346",
"_. c #B13545",
"`. c #B53944",
"'. c #BD3C42",
"]. c #B4324C",
"[. c #BB354A",
"{. c #A52754",
"}. c #A42951",
"|. c #AA2A52",
" X c #A82654",
".X c #B42D53",
"XX c #B93151",
"oX c #C23D43",
"OX c #C73C48",
"+X c #D13F48",
"@X c #8D5248",
"#X c #AE4B43",
"$X c #89645D",
"%X c #847D78",
"&X c #917E78",
"*X c #AE687C",
"=X c #CD4243",
"-X c #C44040",
";X c #D44445",
":X c #DB4746",
">X c #D4594C",
",X c #E45647",
"<X c #D17275",
"1X c #E67A68",
"2X c #84827D",
"3X c #EB8D7C",
"4X c #C06E8E",
"5X c #7F8F8A",
"6X c #898782",
"7X c #948D89",
"8X c #96938E",
"9X c #9A9893",
"0X c #899891",
"qX c #A19B97",
"wX c #A7A39C",
"eX c #9EA6A0",
"rX c #AEACA6",
"tX c #B5B3AD",
"yX c #BBBAB7",
"uX c #E99D8B",
"iX c #F09582",
"pX c #C1BEB7",
"aX c #CDA9A2",
"sX c #C7A69E",
"dX c #C5C3BC",
"fX c #C8C3BC",
"gX c #D4D2CB",
"hX c #D3D1CE",
"jX c #F3C9C3",
"kX c #F6DDD5",
"lX c #FCE6DC",
"zX c #F2EBE9",
"xX c #F4F1EB",
"cX c #FBFAFA",
"vX c #E3F0E6",
"bX c #E6E3E1",
/* pixels */
"3 3 3 3 3 3 3 3 3 3 3 3 F G G F 3 3 3 3 3 3 3 3 3 3 3 3 3 3 3 = F G A d A G G G G G G F 3 3 3 3 F G G F 3 3 3 3 3 3 3 3 3 3 3 3 ",
"3 3 3 3 3 3 3 3 3 3 3 3 F G G F 3 3 3 3 3 3 3 3 3 3 3 3 3 3 3 3 F A r r d F G G G G G F 3 3 3 3 F G G F 3 3 3 3 3 3 3 3 3 3 3 3 ",
"3 3 3 3 3 3 3 3 3 3 3 3 F G G F 3 3 3 3 3 3 3 3 3 3 3 3 3 3 3 3 A s 9 6 s F G G G G G S 3 3 3 3 F G G F 3 3 3 3 3 3 3 3 3 3 3 3 ",
"3 3 3 3 3 3 3 3 3 3 3 3 F G G F 3 3 3 3 3 3 3 3 3 3 3 3 3 3 3 3 r 9 r s A F G G G G S s 3 3 3 3 F G G F 3 3 3 3 3 3 3 3 = = = * ",
"3 3 3 3 F F F F F F F F G G G G F F F F F F F F F S s 9 9 s S s 4 4 s S F F G G G F d r 4 9 d F G G G G F F F F F F F G -.-.-.-.",
"3 3 3 3 F G G G G G G G G G G G G G G G G G G F A s r 6 9 d S p 4 6 A F A p A G F d r r r r S G G G G G G G G G G G G D *.*.*.*.",
"3 3 3 3 F G G G G G G G F S S S S F F F F G G F s 4 6 0 6 s d r 0 8 d d 9 0 9 d s 6 0 r A F G G G G G G G G G G G G G D *.=.*.*.",
"3 3 3 3 F G G G G G G G A s r t p s s d S G G F p 6 8 < < 8 9 8 < 5 u 9 < 1 < 9 6 5 5 i F G G G G G G G G G G G G G G D *.*.*.*.",
"F F F F G G G G G G G G s 9 0 4 4 4 6 r d F G S r 4 0 0 3 0 4 0 3 3 3 3 3 3 3 0 4 0 4 p F F G G G G G G G G G G G G G D *.*.*.*.",
"G G G G G G G G G G G G A s r 0 0 6 4 0 9 r t r 5 3 q K 5.8.8.W z l l z W 5.8.8.E Y l x t s F G G F d r s r i A G G G D *.*.*.*.",
"G G G G G G G G G G G G F A s 6 0 0 3 3 0 4 7 0 1 3 v 9.l.b.f.w.T.U.U.E.w.f.l.l.f.).] B r 9 d F F S r 9 9 9 9 d F G G D *.*.*.*.",
"G G G G G G G G G G G G F A d 9 0 < < < 3 4 3 < . 3 n f.G.K.J.>X<X4X4X<X>XJ.A.D.,X<X*X:.9 & 8 i s s 9 0 6 9 r A F G G D *.*.*.*.",
"G G G G G G F F F F F F s 9 6 0 0 3 3 3 3 3 4 3 : 3 n s.F.A.,X3XjXzXlXjX3XV.r.Z.3XjXgX6X9 X # 9 9 0 0 0 r d A F G G G D *.*.*.*.",
"G G G G G S d d d d d d 9 5 < 3 4 e x w > < e x 7 4 n a.b.y.,XuXlXcXcXlXuXC.r.t.iXlXvX0Xs % , N w < < 0 r S G G G G G D *.*.*.*.",
"G G G G F d 9 9 9 9 9 9 0 3 < < 4 V ' P w 3 V ' B w b a.n.A.,XuXkXcXcXkXuXC.r.t.iXkXbX0Xs % z [ B < 1 3 r S G G F G G D *.*.*.*.",
"F F F F F d 9 6 4 0 5 0 w e w ; 3 Y ).).R n I.Y.k w b s.D.L.,X<XsXyXyXsX<XH.y.A.1XaXeX<.8 j 0./.P.e 4 3 r S G A d A F D *.*.*.*.",
"3 3 3 3 F S d s 9 8 < 5 B T P > 3 K c.N.k.w.].Y.k 4 b s.H.K.V.#X$.+.+.:.#XH.L.G.-X@X .2 3 v f.=X].` N 7 r A F r 9 r S D -.*.*.*.",
"3 3 3 3 F G F S s 6 < 3 U T.R.R n 5.B.G.J.M.OX).U m v 5.s.f.a.J $ . . * K a.f.s.L - o : x E l.S.:XW.C w 8 s d 9 0 9 A D -.*.*.*.",
"3 3 3 3 F G G G F s 8 0 P Y.XXw.s.j.F.G.J.H.M.x.).P.P v b b b - + @ @ + - c n b - + X , ` W.m.J.J.f.R y 1 8 9 6 0 9 A D -.*.*.*.",
"3 3 3 3 F G F F S s 9 0 N P E.-XN.N.c.c.m.n.B.M.;X].P.m > > w e e e e e w w , w 7 w m ] ).oXN.F.G.l.L q 1 < 4 9 9 s F D -.*.*.*.",
"F F F F G G F A s r 9 0 3 w V W.[.[._.`.c.B.B.n.M.;X_.] ) k ) _ ` ` [ ` _ ) ) ) ) ) P.).=XN.M.H.H.l.L q 1 0 6 r d A F D *.=.=.=.",
"D D G G G G F A r 8 4 3 3 3 x ' Y.{.(.`.c.B.H.S.F.B.N.OXXX(.(.].].].(.(.].XXXX].(.(.[.=Xn.B.H.J.J.z.E q 1 0 r A G G G D *.=.=.=.",
"G G G G G G F A r 0 5 3 x V ' U.R.].=XN.m.M.S.H.F.n.M.:X:X;X=X;X:X;X=X=X;X:X;X=X;X;X:XM.n.B.H.K.K.v.L q 1 r d F G G G D -.*.*.*.",
"F F F F G F A d r 5 < 3 B ` Y.}.^._.l.b.B.M.z.l.m.M.b.h.h.b.n.b.h.k.b.n.v.p.v.M.b.k.h.z.M.b.p.h.k.s.R q 8 d F G G G G G -.*.*.*.",
"3 3 3 3 F d r 9 6 5 3 3 w m T R.^.7.L i.b.M.9.L a.m.p.g g q.n.g.g h v.b.e.g 6.n.h.h g q.n.h.g Q Q K c 6 9 A G G F F G G G D D D ",
"3 3 3 3 F d 9 6 6 4 0 0 < 3 x ' P.C y n u.f.K q K s.d.@./ u.f.i.H H a.s.( / ( f.u.H H i.f.d.@.f 9 3 3 0 r A F G G F G G G G G G ",
"3 3 3 3 F A s s s r 9 0 1 1 4 m m , < 7 n K q O $ K $XqX8X$X( =.2X%X#.#.&X9X&X( #.%X6X=.( @X9X5X<.o o 3 r A F G G G G G G G G G ",
"3 3 3 3 F F F S F A t 9 6 6 0 3 3 3 3 3 3 4 0 O   3 2.dXyX1.S %XgXyXO. .8XfX7Xd &.yXgX%XS O.pXyX2XO X 3 s S G G G G G G G D D D ",
"3 3 3 3 F G G G G F A s s s r < < 3 3 3 : 1 3 3 . : +.6X%Xf a 8XxXbX1.a o.6Xo.1 1.bXxX8Xa f %X6X,.3 # r A F G G G G G G -.*.*.*.",
"3 3 3 3 F G G G G G F F F F A 9 0 0 3 3 3 < 3 3 ; 3 6 s 0 X u 6XgXdX1.< O 9 O o 1.dXgX6X9 o 6 d s 6 r A F G G G G G G D *.*.*.*.",
"3 3 3 3 F G G G G G G G G G S d r 9 3 3 3 3 3 3 0 3 O X     9 &.2X2. .O       O  .2.2Xo.9 X   X 3 s S G G G G G G G G D *.*.=.=.",
"3 3 3 3 F G G G G G G G G G G S A r 0 0 3 3 3 3 3 3 3 O O O 3 6 9 9 4 3 O O O 3 8 9 9 6 3 3 3 0 r F G G G G G G G G G G -.*.*.*.",
"3 3 3 3 F G G G G G G G F F G G S i 0 3 3 3 3 3 3 3 3 0 0 0 3 O X X O 3 0 0 0 0 O X X O 3 0 6 r s G G G G G G G G G G G G D D D ",
"3 3 3 3 F G G G G G G G G G G G S r 0 0 3 3 3 3 3 3 3 3 3 3 3 O O O 3 3 3 3 3 3 ; O O 3 3 0 0 9 s G G G G G G G G G G G G G G G ",
"3 3 3 3 F G G G G G G G G G G G S r 0 0 3 3 3 3 3 3 3 3 3 0 0 0 0 0 3 3 3 3 3 3 3 0 0 4 0 0 0 9 s G G G G G G G G G G G G G G G ",
"= 3 3 3 F G G G F F F F G G G F A r 0 0 3 3 3 3 3 3 3 3 3 3 3 3 3 3 3 3 3 3 3 3 3 0 3 3 3 0 0 9 s F G G G G G G F F F F G D D D ",
"F F F F G G G F d s d d A F G A s r 0 3 3 3 3 3 0 0 0 0 O X X X O 0 0 0 3 3 3 0 0 0 O X X X 3 9 r A F G G G G A d d s A %.*.*.-.",
"G G G G G G F A r 9 9 9 s A S r 9 4 0 3 3 3 3 3 3 3 3 3 3 ; = 3 3 3 3 3 3 3 3 3 3 3 3 3 < = 3 0 4 9 s S F F A r 9 9 9 t $.*.*.*.",
"G G G G G G F S s 9 9 0 r s r 6 0 0 3 3 3 3 0 3 O X   O i X.o.X.r X   X O 3 O X @ X r X.o.O.r O X X 3 r d d r 6 6 6 9 t $.*.*.*.",
"G G G G G G G F A s r 0 6 9 9 0 0 0 3 3 3 3 0 3 O X   X ~ 2XwX2Xf     X # 3 O X     S 2XwX7XF X   X # 4 r r 9 0 4 9 s A %.*.*.*.",
"G G G G G G G F S d r 0 0 0 3 3 3 < < 3 3 # o 5 X.,. .< +.yXxXtX .;  .o.| 8  .1. .<  .tXxXgX .8 f 1.X.s ; 3 0 9 r s F D -.*.*.*.",
"G G G G G G F A p 9 4 3 3 3 3 3 3 < < 3 3 O @ u 6XyX8X!  .tXzXrX .| wXtX1.f 1.dX9X|  .rXxXgX . .2XfX2X~ X O 6 s A S G D -.*.*.*.",
"G G G G G G F A r 6 4 3 3 < < 3 3 4 w 7 3 o X d 7XpXwX....8XdX7X..$.rXtX2.^ 2.fXwX$.^ 7XpXqX} O.7XfX2X~ X 3 r A F G G D -.*.*.*.",
"F F F F G G F d 9 6 4 3 3 < & & 4 B _ C 7 ; j [ :.3.=.u.u.#.O.#.u.@X-.,.@Xu.@X1.-.@Xu.#.O..._ { ;.>. .9 4 t A F G G G G -.*.*.*.",
"3 3 3 3 F G F A r 6 0 5 w e 4 < 4 Y ).W.K v 7.^.T v L k.k.L v 5.l.f.J v q.z.9.c J f.z.5.v V W.E.Y > > 3 r A F G G G G G G D D D ",
"3 3 3 3 F G G F d r 8 0 m V B 3 4 R oXx.a.9.f.'.9.4.6.b.b.q.4.q.b.v.6.4.p.b.p.4.6.v.n.q.4.6.w._.7.j > 3 r S G G G G G G G G G G ",
"3 3 3 3 F G G G G d 8 0 U T.T.B x L v.S.M.m.m.n.H.H.M.M.M.H.H.H.n.M.V.S.M.M.M.H.V.M.M.M.H.H.B.N.OXR.I w 8 d F G G G G G G G G G ",
"3 3 3 3 F G G G G A 9 0 U Y.|.P.T 7.`.[.[.'.c.n.J.H.H.M.M.H.J.H.n.M.H.H.V.M.H.J.H.M.M.H.H.J.B.S.:X#XR t 8 d G G G G G G G G G G ",
"3 3 3 3 F G G G G d 9 0 Z P.R.R.R.R.^.^.^.].x.M.F.V.M.M.M.M.M.M.n.n.V.V.M.M.M.M.M.M.M.M.V.B.n.H.J.l.E q 0 d F G G G G G G G G G ",
"3 3 3 3 F G F G G A i 0 6 e I T.}.{.Q.R.`.x.m.n.B.B.B.F.m.oX`.-XM.F.F.n.n.M.m.m.M.B.B.B.B.b.m.H.J.l.L q < 6 t S G G G G G G G G ",
"3 3 3 3 F G G G F d r 0 5 4 m P.R.{.^.).x.m.m.m.m.m.m.m.c.`.^.`.c.M.m.m.m.n.B.n.M.m.m.m.m.m.M.H.J.l.L q 1 5 9 d S F G G G G G G ",
"3 3 3 3 F G G F A r 9 0 w e V I.R.}.^.).'.c.-X'.'.'.x.t.`.^.R.^.`.'.'.x.N.B.F.F.m.c.'.'.oXc.M.G.G.l.L q 1 5 4 r d A G G G D D D ",
"3 3 3 3 F G S A r 8 < 5 V ' ^.^.R.R.R.^.^.^.^.^.^.^.^.^.^.^.^.^.^.^.}._.oXN.n.M.x._.R.Q.^.`.c.S.H.k.E q 1 5 4 6 4 r S G -.-.-.-.",
"3 3 3 3 F A s r 6 5 < 0 P T..X|.R.R.R.R.Q.Q.Y.Y.Q.{. X{.{.|.|.|.{.{.{.|.XXOXoX'._.^.Q.~.Y.^.`.oX+X`.R t < 9 r 6 0 9 A D -.*.*.*.",
"3 3 3 3 F d 9 9 4 5 < 0 V I.|.|.^.R.R.R.R.R.R.R.R.!.!.!.!.!.^.}.!.!.!.^.^./././.^.^.Q.Q.R.R.^.(.].E.I t 8 d A 9 0 r A D -.*.*.*.",
"3 3 3 3 S p 0 4 9 r 9 r M B [ R.|.|.R.R.R.^.|.}.I.T I I U U U U U U U U V P ' Q.}.}.R.R.R.}.{.Y.P.C M t d F F d r s F D *.*.*.*.",
"3 3 3 3 S s 4 6 r A S S r 9 M P.R.}.R.R.R.}.}.T.U e 0 4 w w 6 6 6 w w 6 5 w V I.^.}.^.R.^.}.!.] C 6 r A F G G F S F G D *.*.*.*.",
"3 3 3 3 F d r r d F G G i 9 r I ' T.R.}.}.}.T.[ m r 5 5 6 6 8 8 8 6 6 8 < 9 M U P.R.^.}.}.R.P.I M 8 s F G G G G G G G D *.=.*.*.",
"3 3 3 3 F S S S F G G G S S s 9 e U R..X|.I.C r 9 d d d d d d d d d d d d d r 7 B P.|..XR.] M r i d F F G G G G G G G D *.=.*.*.",
"* * * $ G D D D D D D D G G d 5 4 I }.|.I.V t 9 i S G G G D D D D D D D D S i & N P.|.R.T B r u d G D D D D D G D D D D *.*.*.*.",
"-.-.-.-.*.*.-.-.-.-.*.-.G F d 5 4 U R.Y.U t F ..A F G G -.-.-.-.*.*.-.-.-.%.~ 5 m I.!.] m t i d %.*.-.-.-.-.*.-.-.-.*.*.*.*.*.*.",
"=.=.=.=.*.*.*.*.*.=.*.-.G F d 6 6 B U V w < ^ %.D G F D -.*.*.*.*.*.*.*.*.%.~ 6 x P P N 3 8 d G -.*.*.*.*.*.*.*.*.*.*.*.=.=.*.*.",
"*.*.*.*.*.*.*.*.*.*.*.-.D G A 9 4 w w w 4 6 ..%.D G G D -.*.*.*.*.*.*.*.*.%.^ 6 7 w w 4 0 6 A D -.*.*.*.*.*.*.*.*.*.*.*.=.*.*.*.",
"*.*.*.*.*.*.*.*.*.*.*.-.D G A 9 0 3 < < 0 r ..%.D G G D *.*.*.*.*.*.*.*.*.;.^ 6 3 < < 3 4 r A D -.*.*.*.*.*.*.*.*.*.*.*.=.*.*.*."
};
