/* XPM */
static char *rcp0244420433373[] = {
/* columns rows colors chars-per-pixel */
"64 64 81 1 ",
"  c #020304",
". c #0A0B0C",
"X c #0E1214",
"o c #131314",
"O c #1B1514",
"+ c #191817",
"@ c #151718",
"# c #191718",
"$ c #151A1A",
"% c #1B1D1D",
"& c #211D1D",
"* c #2C1F1D",
"= c #1E1F20",
"- c #1F2020",
"; c #232323",
": c #292626",
"> c #2B2827",
", c #2B2728",
"< c #272B2C",
"1 c #2D2929",
"2 c #352927",
"3 c #332D2D",
"4 c #3D2F2C",
"5 c #37302F",
"6 c #39302F",
"7 c #2F3233",
"8 c #353232",
"9 c #3C3333",
"0 c #3D3C3B",
"q c #42312D",
"w c #413636",
"e c #493633",
"r c #443837",
"t c #4D3934",
"y c #433738",
"u c #463A39",
"i c #4A3D3B",
"p c #513934",
"a c #533E3A",
"s c #4F403E",
"d c #51413E",
"f c #5A423D",
"g c #414443",
"h c #534341",
"j c #594642",
"k c #544A47",
"l c #5C4946",
"z c #5F4B48",
"x c #595E5C",
"c c #654C46",
"v c #634E49",
"b c #684D48",
"n c #66504C",
"m c #6B534D",
"M c #6D5651",
"N c #6F5852",
"B c #705751",
"V c #745A54",
"C c #795D56",
"Z c #7A5F58",
"A c #7E6159",
"S c #636360",
"D c #6F726F",
"F c #787874",
"G c #7F7D78",
"H c #83655C",
"J c #88675F",
"K c #87685F",
"L c #88685F",
"P c #8A6D64",
"I c #8A736C",
"U c #887D77",
"Y c #949590",
"T c #A8938B",
"R c #BCA79D",
"E c #BABAB3",
"W c #C1B5AC",
"Q c #C9C4BC",
"! c #E7D8CE",
"~ c #EAE7DE",
"^ c #F9F2E7",
/* pixels */
";;;;;%%$@$;19uu91;$$$%%%%%%$$$;>9uiiiiiiiiw3;%%:9ui91;$$$%%%$@@@",
";;;;;;%%%%;39uu93;%%%%;;;;%%%%;19uiiiiiiiir3:-;19ui93;%%%%;-%%%%",
";;;;;;;;;;:3wuuw3:;;;;;;;;;;;;:39uiiiiiiiir91;;39uiw3:;-;;;::::>",
"%%;;:111>139wuuw93>::1111111>1359uiiiiiiiiu931139uir931::1336999",
"%%;;13999999ruur9933359999995999wuiiiiiiiiuw9999wuuuw953339ridjj",
"%%;>3wuiuuwruuuuurwwwwrrrrrrrrruuuiiiiiiiiuurrruuuuuuuw99wijvmBV",
"=;:39uihdiiiiiiiiiiiiiiiiiiiiiiiiuuuiiiiiiiiiiiiiiiiiiiuuudvNCHK",
":139widhhiiiiiiisdhhhhhdiiiiiiiiiiuuuuiiiiiidhhdiiiiiiiiuijbVAKP",
"399wuiiiiiiiiiiisdhhhhdiiiiiiiiiiiiuuuuiiiisddddiiiiiiiuuuhvBZHP",
"rruuuiiiiiiiiiiiiiiiiiiiiiiiiiiiiiiuuuuiiiiiiiiiiiiiiiuwwuszmVAH",
"iiiiiiuuiiiuuuuuuuurrruuuiiiiuuuuiiiiiiiuuuruuuuuuuuiiirwuijnBCA",
"hhdiiuuiiiiuw9999999999wuiiiiiuuuuiiiiiuw9999999999wuiiuwuijnBVA",
"hhdiiuiissiu931138831139riddiiuuuuiihhiu931138831139uisiuuijnBCA",
"iiiiiuiissi93:;;;>>;;;:39issiiuuuuiissi93:;;;>>;;;:3wiiiuuilmBCA",
"wwruuuiiiu931;%%$$$$%%;139uuiiiuuiiiuu931;%%$$$$%%;159rwwuilmBCA",
"3399wuiu933>;;%@....@%;;1339wuiiiiuw9331;;%@....@%;:13339wizmBCA",
";;139uiw3:;;;;%@.  .@%;;;;;19rissir91;;;;;%@.  .@%;;;;;,3wdzmBCA",
"%-;39ui93;%%;;;%@oo@%;;;=%;19riddir91;%=;;;%@oo@%;;;-=;;3wdzmBCA",
"%;:39uir91;%%%;180081;%%&;139uiiiiu931;&%%;180081;%%;;>35wdzmVCH",
":1359uisiu6;+@;gSFFSg;@$;6riiiiiiiiiir6;$@;gSFFSg;@$:6rrrrizmCAK",
"9999wrilnvd2Oo<xYEEYx<oO2dvvjiuwwuijvvd2Oo<xYEEYx<o+2dvzhuijmCHK",
"uuuwwrsvVCbqOo7DE~~ED7oOqbCVvsw99wsvVCbqOo7DE~~ED7oOqbVNliijnVAK",
"iiurwrsnZAmt*&0GQ^^QG0&*tmAZndw99wdnZAmt*&0GQ^^QG0&*tmAVziihzmVC",
"www99rizNVma44kUW!!WUk44dmVNzsr99rszNVmd44kUW!!WUk44dmVMliiijzbm",
"33399yijzvzjafMITRRTIMjajzvlhiurruihlvzjajMITRRTIMjajzvlhiiiidhj",
";;:39uiiiidjvmCHPIIPHCmvjdiiiiiiiiiiiidjvmCHPIIPHCmvjdiiiiiiiiii",
"$%;19uiuwwijnVCVmccmVCVmjiw9wuiiiiuw9wijmVCVmccmVCVmjiw9wuiiiiii",
"$%;19uiuw9uhvNNbfppfbNNvhu99wuiiiiu999uhvNNbfppfbNNvhu999uidhjjl",
"$%;19uiiuwuijzzjteetjzzjsuw9wuiiiiuwwwusjzzjteetjzzlsuw99uijvnmN",
"%-;19riiiuuiiiiiirriiiiiiuuuuiiiiiuuuuuiiiiiirriiiiiiiuwwuilnBCA",
"%-;19risiiuuuuuuiiiiuuuuuiiiiiiiiiiiiiiuuuuuiiiiuuuuiiiuwuijnBCA",
"%%;15risiiuuywuuiiiiuuwuuiiiiiiiiiiiiiiuuwuuiiiiuuwuuiiuuuijznmN",
"$%;>6riiiiuuuuuiiiiiiuuuuuiiiiiiiiuuiiuuuuuiiiiiiuuuuiuuuuiihjjl",
"%%;16riiiiuuuiiiiiiiiiiiiuuuiiiiuiuuuuuiiiiiiiiiiiiiiiuuuiiiiiii",
"-;:39riiiiiuuuuuuuuuuuuuiiiiiiiiiiuiiiiiuuuuuuuuuuuuiiiiiiiiiiii",
":1339uiddsiuw9999w99999wuiiiiiuuuuiiiiiuw9999999999wuiiiiiiiidhh",
"8999wuidhhir931138831139uihhiiuuuuiihhiu931138831139ridiiiidjzvb",
"rrruuuiidsi93:;;;>>;;;:39issiiuuuuiissi93:;;;>>;;;:3wiiiuuijvmBV",
"iiiiiiiiiu931;%%$$$$%%;139uuiiiuuiiiuu931;%%$$$%%%;159rwwrizmCHK",
"dddsiiuw9331;;%@....@%;;1339wuiiiiuw9331;;%@...X@%;:13339wdvBAKP",
"ddddsiu91;;;;;%@.  .@%;;;;;19rissir91;;;;;%@.  .@%;;;;;:39hvBAKP",
"iiiiiiy9,;%-;;;%@oo@%;;;=%;19riddir91;%=;;;%@oo@%;;;--;;39hvNCAH",
"wwuuiiu931;&%%;180081;%%&;139uiiiiu931;&%%;180081;%%;;>38wiznNVC",
"5999wuiiir6;#@;gSFFSg;@$;6riiiiiiiiiir6;$@;gSFFSg;@+:6riuuihzbnm",
">1339wiznvd2+X<xYEEYx<oO2dvvjiuwwuijvvd2Oo<xYEEYx<oO2dvvjiuidjlz",
";;;13whnZCbqOo7DE~~ED7oOqbCVvsw99wsvVCbqOo7DE~~ED7oOqbVVviuuuisd",
"%%;;39hmAAmt*&0GQ^^QG0&*tmAZndw99wdnZAmt*&0GQ^^QG0&*tmAZnsr9wwuu",
"%%;;39dnVVma44kUW!!WUk44dmVNzsr99rszNVmd44kUW!!WUk44amVNzir99999",
"%%;:3wijvvzfafMITRRTIMjajzvlhiurruihlvzjajMITRRTIMjafzvzjiuww999",
"%%;19riiiidjvmCHPIIPHCmvjdiiiiiiiiiiiidjvmCHPIIPHCmvjdiiiiiuuurr",
"%;;39uiuwwijnVCVmccmVCVmjiw9wuiiiiuw9wijmVCVmccmVCVmjiw9wuiiiiii",
"=;:39uiuw9uhnNBbfppfbBNnhu99wuiiiiuw99ujnBBbfppfbBBnju999uihjjlz",
"=;:39uiiuruslvzjaeeajvvlsuwwuiiiiiiuwwudlvvjaeeajvvlhuw9wuijzbmm",
"%;;39uiiiiuiisiiiiiiissiiuuuuiiiiiiiuuiiidsiiiiiisdsiiuwwuilnNVC",
"%%;15wiiiiuryryuuiiuywwruiiiiuuuuuuiiiuuwwwyuiiuuwwruiuwwwilmVAH",
"@$%;39uiiuyw9wwyuiuy9999riiiuuwwwwyuuurw9999yiiy9999wur999ijmCHK",
"X@%;19uiurwwwwruuuuw9999riiiuww9w9wwwww99999yuuy9999www999ijmVAK",
"@$=:3wuiiuyruuuuiuuurwwuuiiuuurrruuuuuuwwwwuuuuuuwwruuw99wijmVZH",
";:15widhhsiiiiiiiiiiisiiiiiiiiiiiiiiiiiissiiiiiiiisdssiiuihzmVCA",
"wruidjzvvzjjdiiuuuihjzljsiiihjzzzlljjllzzzlhiiiihlzzzzjjjjznNBVC",
"llzzvnmNmmbzjiuwwuijvmnzhiisjbmmmmmnnmmmNmbldiislbmNmmnnbnmNBVVC",
"NNBBBBVVCVNbjir99rszmBBbjiidzNVCCVBBBBVCCVNvhiihvNVCCVBBBBBVVVVC",
"AAAACCZAHAVmlir99wsvBCVmjiidbVAHHZCCCCZHHAVbjiihbVAHHZCCCCCCCVVV",
"JKKHHAHHKHZmzsw99wdvVAAmliihnCKKKHAAAAHKKKCnjiijnCKKKHAAHHAACCVV"
};
