/* XPM */
static char *rcp0742534942490[] = {
/* columns rows colors chars-per-pixel */
"64 64 242 2 ",
"   c #0A0B0B",
".  c #050A0B",
"X  c #0D1213",
"o  c #0E161C",
"O  c #141314",
"+  c #151A1B",
"@  c #1C1C1C",
"#  c #171816",
"$  c #0E1211",
"%  c #211F1F",
"&  c #2A1A18",
"*  c #3A0F16",
"=  c #13221D",
"-  c #1A221F",
";  c #25221E",
":  c #29211D",
">  c #39231D",
",  c #1D1F23",
"<  c #221E23",
"1  c #2C1E2B",
"2  c #291C24",
"3  c #3A1927",
"4  c #341C30",
"5  c #162322",
"6  c #1C2322",
"7  c #1D2628",
"8  c #1B3536",
"9  c #232323",
"0  c #2A2626",
"q  c #242926",
"w  c #292927",
"e  c #2C2428",
"r  c #24292A",
"t  c #2C2A29",
"y  c #242528",
"u  c #34232B",
"i  c #3B252B",
"p  c #332D2C",
"a  c #3A2B2D",
"s  c #372525",
"d  c #2F302C",
"f  c #34312E",
"g  c #39312F",
"h  c #382B30",
"j  c #2B3334",
"k  c #343231",
"l  c #3C3332",
"z  c #3C3C3B",
"x  c #363937",
"c  c #481518",
"v  c #4E1B2A",
"b  c #6D1832",
"n  c #4C2C26",
"m  c #42242E",
"M  c #4C2C2A",
"N  c #422526",
"B  c #522D26",
"V  c #522E2A",
"C  c #572A2B",
"Z  c #42312F",
"A  c #553227",
"S  c #442631",
"D  c #4C2433",
"F  c #482B33",
"G  c #532533",
"H  c #542936",
"J  c #5A2936",
"K  c #5C2939",
"L  c #592537",
"P  c #423635",
"I  c #443837",
"U  c #4A3937",
"Y  c #463B3A",
"T  c #493B3A",
"R  c #44373C",
"E  c #69352A",
"W  c #77382B",
"Q  c #6C263D",
"!  c #66273B",
"~  c #77283B",
"^  c #673733",
"/  c #6C2A25",
"(  c #71251A",
")  c #3C423B",
"_  c #42403E",
"`  c #4A423B",
"'  c #504137",
"]  c #68453A",
"[  c #774A3D",
"{  c #5D1E41",
"}  c #641F42",
"|  c #6A2544",
" . c #752941",
".. c #782645",
"X. c #71354F",
"o. c #513441",
"O. c #354040",
"+. c #454744",
"@. c #544541",
"#. c #584C4A",
"$. c #4C5353",
"%. c #5A5A58",
"&. c #584C4E",
"*. c #6A524A",
"=. c #6D5952",
"-. c #655E5B",
";. c #765C55",
":. c #785B55",
">. c #725D58",
",. c #794E4D",
"<. c #65615D",
"1. c #70645F",
"2. c #5A5E61",
"3. c #4F5B61",
"4. c #5E6362",
"5. c #4B6364",
"6. c #696967",
"7. c #766E6B",
"8. c #6B716C",
"9. c #74716D",
"0. c #7C7D7A",
"q. c #796773",
"w. c #842A1C",
"e. c #882B25",
"r. c #893A29",
"t. c #9A3525",
"y. c #882B3B",
"u. c #993936",
"i. c #8E302F",
"p. c #B53E2C",
"a. c #A53C34",
"s. c #B13637",
"d. c #CE2911",
"f. c #E23B1D",
"g. c #C33C3D",
"h. c #CD3923",
"j. c #954334",
"k. c #8F4334",
"l. c #A4422F",
"z. c #BD472D",
"x. c #A64232",
"c. c #AB4532",
"v. c #A84931",
"b. c #B84836",
"n. c #C8462F",
"m. c #C44935",
"M. c #C94639",
"N. c #D34D36",
"B. c #DA4E37",
"V. c #D44B3A",
"C. c #DA4E39",
"Z. c #D3453E",
"A. c #DD5136",
"S. c #DA5038",
"D. c #DA422B",
"F. c #E5452B",
"G. c #E24E3D",
"H. c #E64E35",
"J. c #F74D33",
"K. c #E35335",
"L. c #EC5436",
"P. c #E3523A",
"I. c #EB543B",
"U. c #F3553B",
"Y. c #F65738",
"T. c #852945",
"R. c #8D2A46",
"E. c #88284A",
"W. c #93254C",
"Q. c #9B264E",
"!. c #942A4B",
"~. c #9C294D",
"^. c #952744",
"/. c #973347",
"(. c #9B2651",
"). c #982451",
"_. c #8E304D",
"`. c #A22A4D",
"'. c #A82B4B",
"]. c #B62F4E",
"[. c #AC314A",
"{. c #A93645",
"}. c #B23645",
"|. c #B53943",
" X c #BA3A44",
".X c #B8334C",
"XX c #A32654",
"oX c #A42951",
"OX c #AB2953",
"+X c #A82755",
"@X c #B72B55",
"#X c #C43B47",
"$X c #D03D48",
"%X c #89544A",
"&X c #8C6359",
"*X c #B14E71",
"=X c #837570",
"-X c #A15158",
";X c #C74141",
":X c #D74643",
">X c #DA5545",
",X c #C9554A",
"<X c #EE5043",
"1X c #C55264",
"2X c #DE7C68",
"3X c #E57060",
"4X c #71827D",
"5X c #85827D",
"6X c #9A867D",
"7X c #EA8274",
"8X c #DB8D7D",
"9X c #868682",
"0X c #97948C",
"qX c #9B9A94",
"wX c #979692",
"eX c #889592",
"rX c #A2988F",
"tX c #A6A49A",
"yX c #B6AAA7",
"uX c #B8B3AB",
"iX c #BBBAB2",
"pX c #ACACA6",
"aX c #EF998C",
"sX c #EFAA99",
"dX c #C9B7AF",
"fX c #EBACAF",
"gX c #C6C5BC",
"hX c #D5C3BC",
"jX c #E2C0B4",
"kX c #E2B7C8",
"lX c #CCCAC3",
"zX c #D5D4D0",
"xX c #E2DCD5",
"cX c #F7D8C9",
"vX c #FCE5D7",
"bX c #ECE7DF",
"nX c #E9E8E3",
"mX c #FCF5ED",
"MX c #FDFDFD",
"NX c #F9F7F3",
"BX c #F7EBE4",
"VX c #D6EAE0",
/* pixels */
"9 9 9 9 9 9 9 9 9 9 9 9 Y T T Y 9 9 9 9 9 9 9 9 9 9 9 9 9 9 9 ; Y T P l P T T T T T T Y 9 9 9 ; Y T T Y 9 9 9 9 9 9 9 9 9 9 9 9 ",
"9 9 9 9 9 9 9 9 9 9 9 9 Y T T Y 9 9 9 9 9 9 9 9 9 9 9 9 9 9 9 ; Y I p 0 p Y T T T T T Y 9 9 9 ; Y T T Y 9 9 9 9 9 9 9 9 9 9 9 9 ",
"9 9 9 9 9 9 9 9 9 9 9 9 Y T T Y 9 9 9 9 9 9 9 9 9 9 9 9 9 9 9 ; P l w 0 p Y T T T T Y l 9 9 9 9 Y T T Y 9 9 9 9 9 9 9 9 9 9 9 9 ",
"9 9 9 9 9 9 9 9 9 9 9 9 Y T T Y 9 9 9 9 9 9 9 9 9 9 9 9 9 9 9 % p t p l P T T T T T P p 9 9 9 9 Y T T Y 9 9 9 9 9 9 9 9 ; ; ; : ",
"9 9 9 9 Y Y Y Y Y Y Y Y T T T T Y Y Y Y Y Y Y Y Y l l t 0 p Y P 0 w l Y T P I Y T I g t 0 g Y Y T T T T Y Y Y Y Y Y Y T >.>.>.>.",
"9 9 9 9 Y T T T T T T T T T T T T T T T T T T T I p t t w p T I 0 9 l Y l p l Y I p t p l P Y T T T T T T T T T T T T U >.:.:.:.",
"9 9 9 9 Y T T T T T U I P l P P l P P P P P I T I p w w 6 w l k q 6 f l w 6 y k f q q l Y T T T T T T T T T T T T T T U >.:.:.:.",
"9 9 9 9 Y T T T T T I l p t t t t t t t p p g Y Y p w y 6 6 w q 6 6 w w 6 6 5 q r 7 q l Y T T T T T T T T T T T T T T T >.:.:.:.",
"Y Y Y Y T T T Y T T Y l t 0 w w 9 9 9 9 w w t k k t 9 a n B M N 3 3 3 3 N n n M M N 3 a l l l l P P P P Y T T T T T T U :.:.:.:.",
"T T T T T T T T T T T I l p t w 0 9 6 6 q w 0 0 q 6 0 E u.b.c.u.~ b b ~ i.a.v.x.u.y.b m w q w w t p p p P T T T T T T U :.:.:.:.",
"T T T T T T T T T I P P P k w 6 9 0 u s e 6 9 i u , e W C.Y.L.>X1X*X*X*X,XG.H.H.>X1X-Xo.9 < s u 9 6 q 0 p l I Y T T T U :.:.:.:.",
"T T T T T T T T Y l p p p t 9 - - e L | D < u ! | i 0 W C.J.J.3XaXkXkXfX7XI.f.F.3XfXyX2.e v Q K e 5 6 w w t l Y T T T U :.:.:.:.",
"T T T T Y P P P l p 0 w w e s e 6 0 Q `.y.C J R.W.D e E M.F.D.2XcXMXMXmXsX>Xd.h.aXvXVX4Xe b `./.H 9 9 w w t l Y T T T U :.:.:.:.",
"T T T T P p t t 0 0 w q q m Q ! 1 9 E b.Z.c.a.[.W.S e W M.F.D.2XvXMXMXNXsX>Xd.h.aXBXVX4Xs ( g.#XR.L u w p l P Y T T T U :.:.:.:.",
"T T T T l p t t 0 0 0 6 6 G !.Q.Q B r.N.Y.L.:X.X..4 0 W C.J.F.3XdXzXzXhX8XP.f.F.7XjXpX5.0 ( n.<X#XT.S w d I T T T T T U :.:.;.;.",
"Y Y Y Y I l l l l l l t q D W.].|.c.z.A.L.L.:X.X..1 ; W A.Y.U.,X&X3.3.>.-XP.J.J.,X&X$.8 : W N.<X:Xu.M 6 r p P T T T T U :.:.;.;.",
"9 9 9 9 Y T T T T Y P p w i ! /.#XC.C.Z.M.N.Z.#XR.D i E c.N.m.r.> . . # / c.N.m.r.> X o m r.N.U.P.x.n 6 5 0 p l I Y T U >.:.:.:.",
"9 9 9 9 Y T T T Y l p t w 9 0 G y..X.X[.|.M.B.V.|.^. .G n A A > #     X : n A A > $ X 3 ..|.V.L.K.x.n 6 5 w t t p I T T >.:.:.:.",
"9 9 9 9 Y T T T P p 0 w w 9 9 m  .Q.oX[. XV.K.K.G.$X'.Q u , < u i S i a u u e 1 y u H T.].$XG.U.P.x.B 6 6 0 t 0 p P T U >.;.:.:.",
"; 9 9 9 Y T T T I p 0 q 9 i ! T.W.Q..X:XC.C.A.L.U.G.;X{.T.| { | E._...........| | ../.|.:XG.U.Y.I.b.V 6 w l l l l Y T T >.:.:.:.",
"Y Y Y Y T T T T I a w 6 6 m ..~.+X'.|.m.N.A.C.m.m.S.B.s.^.Q.].].^.^.'.].'.^.`..XOXW.^.M.K.N.z.n.m.j.M q k T T T T T T U :.:.:.:.",
"U U T T T T T T I p w q q 0 i Q Q.`.~ E j.S.M.W E b.H.e.* b :Xg.v c s.:Xe.* / Z.s.v v p.H.t.c * n V s t l T T T T T T U :.:.:.:.",
"T T T T T T T T I p 0 0 w = = u Q ..D < A x.u.i 9 W b.%X+.] b.v.T z j.z.[ +.[ b.j.' T k.b.%X+.8 5 6 9 t l Y T T Y T T U :.:.:.:.",
"Y Y Y Y T T T T Y p 0 w w 6 6 w i m 1 , 0 n n 0 + & ^ rXgXrX] ] qXtX*.^ 6XgXrX] *.0XqX=.] 6XiXeXO.X @ t l Y T T Y T T T >.:.:.:.",
"9 9 9 9 Y T T T I p w w w 0 0 w 6 6 9 9 6 6 6 w @ . j qXxXwXr $.bXNX8.7 9XxXwXj 4.zXbX8.j 5XzXyX#.# @ p l Y T T T T T T T U U U ",
"9 9 9 9 Y T T T P p w t p l l p w 6 9 9 6 , 6 9 @ + 7 $.9.+.o 4.mXMX4X+ z 6.+.+ 8.nXmX5X7 x 6.<.x 9 t l Y T T T T T T T T T T T ",
"9 9 9 9 Y T T T I p t p P T Y P p 0 w w 9 9 9 9 9 w 9 % #   O -.dXlX9.@   O   # <.iXdX9.9   # < 0 p P Y T T T T T T T T T T T T ",
"9 9 9 9 Y T T T Y P l P Y T T P p 0 w w 9 9 9 9 9 w 9 @ O O @ z %.-.Y @ O O O @ z %.%.Y 9 # # % p P T T T T T T T T T T T U U U ",
"9 9 9 9 Y T T T T T Y T T T T P t w w t 0 w 9 w 9 9 9 9 w w 9 @ @ @ @ 9 9 w w 9 , @ @ , w t t p P T T T T T T T T T T T >.:.:.:.",
"9 9 9 9 Y T T T T T T T T T T l t w t l p 0 w w 9 9 9 9 w w 9 @ # O @ 9 w w w 9 @ + + @ w p l I U T T T T T T T T T T U :.:.:.:.",
"9 9 9 9 Y T T T T T T T T T U l p t l Y l t w t 0 9 9 w 9 9 9 9 9 9 9 9 9 9 w w 9 w t 0 w p P T T T T T T T T T T T T T :.:.:.:.",
"9 9 9 9 Y T T T T T T T T T U I l l P Y l 0 0 p l t w w 9 9 9 9 w w 9 9 9 9 w w t l l t w p I T T T T T T T T T T T T T >.:.:.:.",
"9 9 9 9 Y T T T T T T T T T T T Y Y T Y p w 0 l I l t t 9 9 9 9 9 9 9 9 9 9 0 t p I I p t p I T T T T T T T T T T T T T T U U U ",
"9 9 9 9 Y T T T T T T T T T T T T T T I p w 0 l T I l p 9 w 9 9 9 9 9 9 w 9 t l P T T P l P Y T T T T T T T T T T T T T T T T T ",
"9 9 9 9 Y T T T T T T T T T T T T T T I p w 0 l T Y P p 9 w q 9 9 9 9 9 w 9 t l Y T Y Y I Y T T T T T T T T T T T T T T T T T T ",
"; 9 9 9 Y T T T T T T T T T T T T T T I p w 0 l Y l p t 9 9 9 9 9 9 9 9 9 9 w p l Y Y l p l Y T T T T T T T T T T T T T T U U U ",
"Y Y Y Y T T T T T I P I T T T Y P P Y Y l w 0 l l p w w 9 9 9 q 9 9 9 9 9 9 w w t l l t w p l I T T T T T T I P I Y T T >.>.:.:.",
"T T T T T T T T Y l p g I T T P p p l Y l 0 w t t 0 w w 9 9 w w 9 9 9 9 9 9 w w w t t 0 w t p l I T T T T Y l p g P T U >.;.:.:.",
"T T T T T T T T P p 0 t l I T P t w p l l w w w w w w w 9 @ @ @ , 9 q 9 9 9 9 q w w 9 @ @ 9 w p l Y T T Y l p w t P T U >.;.:.:.",
"T T T T T T T T I p 0 t t l I P p w t t t w w w w w w w 9 @ O O @ q w w 9 9 9 w w w 9 # # @ 9 t p l Y Y l p t w t P T U >.;.:.:.",
"T T T T T T T T Y l p t 0 t l l p w w w w 9 9 9 9 @ @ @ 9 k z z t @ @ @ % 9 9 @ @ @ t x z k w @ @ 0 l l p 0 t t p I T U >.;.:.:.",
"T T T T T T T T T I l p 0 0 t t 0 9 w w 9 9 9 9 % #     9 <.qX0X#.O . O @ 9 @ O . O _ 5XqX6.t     @ 0 p t 0 p l P Y T U :.:.:.:.",
"T T T T T T T T T Y P g 0 w w w 9 9 9 6 9 9 % @ t _ _ @ 6 9XBXxX%.X w +.k 6 k +.t O $.gXnXqXk @ x +.f 9 9 0 p Y T T T U :.:.:.:.",
"Y Y Y Y T T T T Y l p t w w w w 9 9 - - 9 9 # X ) 0XpX%.7 0.NXnX$.5 0.uX6.7 %.pX9Xj $.lXNXqXx $.qXqX$.@ @ 0 l Y T T Y T >.:.:.:.",
"9 9 9 9 Y T T T I p 0 w w 9 9 6 6 9 e e w 9 O O &.yXzX5XZ 1.lXiX@.I pXzX=XZ 7.lXuX#.@.tXgX0.R 7.gXiX<.@ # t l Y T T T T T U U U ",
"9 9 9 9 Y T T T P p w t w 6 - = = e G ! D , < v X.q.0.&Xj.,.6.<.k.j.=X0.&Xj.%X0.=X%Xk.:.6.&.| ,.=X8.) 9 0 l I Y T T T T T T T T ",
"9 9 9 9 Y T T T Y g 0 w 9 9 e 9 - e Q ~.y.M C R.^.G > r.N.a.s B m.N./ > r.B.u.N C b.m.E s Q ~.y.N @ 6 t l T T T T T T T T T T T ",
"9 9 9 9 Y T Y T Y P l t q i ! L 1 9 W M.M.c.x.;Xg.i.w.p.P.n.e.t.B.H.t.w.p.P.n.w.t.N.B.t.e.a.#Xs.b 3 2 t l T T T Y T T T T T T T ",
"9 9 9 9 Y T T T T T Y d w H !.W.L i W m.G.G.V.C.A.P.P.C.C.A.P.P.C.C.A.P.C.C.C.P.P.C.C.C.P.K.C.:X.XT.S q d P T T T T T T T T T T ",
"9 9 9 9 Y T T Y T T T f w H Q.OXW.~ y.|.#X#X#XV.K.I.I.C.C.P.U.I.B.C.P.I.P.C.P.I.I.C.C.P.I.K.K.G.:X{.M 6 7 p P T T T T T T T T T ",
"9 9 9 9 Y T T T T Y I t w m  .Q.oX`.`.~.Q.~.}.Z.A.A.B.C.C.C.V.V.B.B.B.N.C.C.C.C.C.C.C.B.C.N.C.I.K.x.B 6 5 0 p P Y T T T T T T T ",
"9 9 9 9 Y T T T T l p t w 9 u G T.OX+X(.`. XM.B.A.A.A.K.K.Z.|. XV.K.K.S.B.C.V.C.N.A.K.A.A.N.C.I.K.l.B 6 5 t t t g P T T T U U U ",
"9 9 9 9 Y T T Y P p 0 0 w - - i Q Q.XX`.}.V.A.C.V.V.C.S.C. X`.'.;XC.C.V.C.B.A.B.C.C.V.V.C.C.C.I.P.x.B 6 5 w 0 0 p P T T >.>.:.:.",
"9 9 9 9 Y T P p t w t q 9 e D Q R.~.oX`.[.|. X X}.}.}.|.}.'.Q.Q.[.}.}.|.M.S.K.K.V.#X}.[. XM.A.Y.K.x.B 9 w l l l l Y T U >.;.:.:.",
"9 9 9 9 Y T P p 0 0 w - 6 D T.OXOX`.Q.~.~.~.Q.Q.~.~.oXoX(.oX`.`.oX(.).`. XV.K.C.;X[.).).`.|.V.I.C.x.B q f Y T T T T T T >.:.:.:.",
"9 9 9 9 Y T Y l l l g q q H !.@XOX~.Q.~.~.(.).Q.(.oX+X+X+XOXOXOXOX+XXX+X].#X#X|.[.~.(.).Q.`.}.#X#X/.H q f T T T T T T T >.:.:.:.",
"9 9 9 9 Y T T T Y Y Y g w S  .~.oX`.~.~.~.`.`.`.`.Q.!.!.!.!.!.!.!.!.!.!.!.!.Q.~.oX`.~.~.~.~.oXoXQ. .S w g Y T T T T T U >.:.:.:.",
"9 9 9 9 Y T T T T T T I l h S ! !.OXOX~.!.Q.oXOX~...H D H J H H H J J H D G ..(.+XoX~.!.`.OX+XE.! S h l P Y T T T T T U >.:.:.:.",
"9 9 9 9 Y T T T T Y T T Y l w a Q !.oXoX`.`.oX`.T.D w 6 9 w w w w w 0 9 6 w G T.`.oX`.`.oXoX!.! a w l Y Y T Y T T T T T >.:.:.:.",
": : ; & T U U T U U T T T I g p S K T.OX@X@XQ. .D p d d t p f f f p p f f p a D  .~.@X@XOXE.K a p g I U U T T U U U U U :.:.:.:.",
">.>.>.>.:.:.:.>.>.:.:.>.U Y Y l w e J E.oX~. .F w g I I =.=.=.=.=.=.=.=.=.=.` w S  .~.oXE.K p t &.=.>.>.>.>.:.:.:.:.:.:.:.:.:.:.",
":.:.:.:.:.:.:.:.:.:.:.>.U Y T l t 9 u D K K H T g I T U :.:.:.:.:.:.;.:.;.:.@.q w m L K D Z g l =.:.;.;.:.:.:.:.:.:.:.:.:.:.:.:.",
":.:.:.:.:.:.:.:.:.:.:.>.T T T P p w q 9 9 w g #.U Y Y U >.;.;.:.:.:.;.;.>.>.' t w 9 9 9 w p P U >.:.;.:.:.:.:.:.:.:.:.:.:.:.:.:.",
":.:.:.:.:.:.:.:.:.:.:.>.U T Y P p 0 6 = = 5 f *.U T Y U >.:.:.;.;.;.;.;.=.=.@.p w - = = 6 f Y U >.;.;.:.:.:.:.:.:.:.:.:.:.:.:.:."
};
