/* XPM */
static char *rcp02444698056596[] = {
/* columns rows colors chars-per-pixel */
"64 64 190 2 ",
"   c #020001",
".  c #090405",
"X  c #0C0608",
"o  c #0B0A0C",
"O  c #080F10",
"+  c #0E1314",
"@  c #151516",
"#  c #1B1515",
"$  c #131718",
"%  c #151B1B",
"&  c #1B1C1D",
"*  c #191818",
"=  c #1E1F20",
"-  c #1F2020",
";  c #1D3636",
":  c #232222",
">  c #2A2525",
",  c #292827",
"<  c #2D2A29",
"1  c #272827",
"2  c #332C2C",
"3  c #3B2E2D",
"4  c #36302F",
"5  c #39302F",
"6  c #352F30",
"7  c #283231",
"8  c #353232",
"9  c #3C3433",
"0  c #3E3837",
"q  c #3D3C3B",
"w  c #3C3738",
"e  c #423635",
"r  c #4B3634",
"t  c #443837",
"y  c #4B3936",
"u  c #433738",
"i  c #453A39",
"p  c #4A3C3B",
"a  c #533A36",
"s  c #523D3B",
"d  c #5B3E3B",
"f  c #40312F",
"g  c #4E403F",
"h  c #45403F",
"j  c #51413F",
"k  c #5D413D",
"l  c #62423E",
"z  c #68433E",
"x  c #1E4746",
"c  c #3A4746",
"v  c #36615E",
"b  c #336564",
"n  c #2A716F",
"m  c #2D7976",
"M  c #327C78",
"N  c #4E4240",
"B  c #534342",
"V  c #5A4743",
"C  c #554A47",
"Z  c #5C4946",
"A  c #5C4D4A",
"S  c #574B49",
"D  c #5E504B",
"F  c #465551",
"G  c #5B5351",
"H  c #525250",
"J  c #644642",
"K  c #6A4742",
"L  c #624A44",
"P  c #6C4A45",
"I  c #634D49",
"U  c #684E48",
"Y  c #714742",
"T  c #744B45",
"R  c #714F49",
"E  c #7A4F49",
"W  c #784C46",
"Q  c #66514C",
"!  c #6B534E",
"~  c #72524C",
"^  c #79554F",
"/  c #6E5650",
"(  c #6B5A55",
")  c #6E5F58",
"_  c #705751",
"`  c #7D5750",
"'  c #745A54",
"]  c #795D56",
"[  c #7B5F58",
"{  c #6C635C",
"}  c #73635D",
"|  c #7D615A",
" . c #566E69",
".. c #4F716C",
"X. c #5A7973",
"o. c #57706B",
"O. c #6B6865",
"+. c #756963",
"@. c #796B66",
"#. c #62736D",
"$. c #6E756E",
"%. c #72766F",
"&. c #687D76",
"*. c #737A75",
"=. c #7D7975",
"-. c #7A7673",
";. c #83645C",
":. c #88685F",
">. c #88685F",
",. c #886B63",
"<. c #8C736B",
"1. c #87726D",
"2. c #837A75",
"3. c #877E7A",
"4. c #917E7A",
"5. c #3E817E",
"6. c #51837F",
"7. c #4B817D",
"8. c #6C817B",
"9. c #65827C",
"0. c #87817C",
"q. c #93817D",
"w. c #1A8E8C",
"e. c #298987",
"r. c #358A87",
"t. c #3C928E",
"y. c #259B99",
"u. c #369694",
"i. c #369A98",
"p. c #38A19E",
"a. c #3AA3A1",
"s. c #37A5A3",
"d. c #568C88",
"f. c #5F918E",
"g. c #4C9D98",
"h. c #589893",
"j. c #468F8B",
"k. c #6B8984",
"l. c #778380",
"z. c #63918C",
"x. c #619892",
"c. c #50A09B",
"v. c #46AAA7",
"b. c #5EB5B0",
"n. c #63B8B4",
"m. c #71C0BC",
"M. c #878A85",
"N. c #97938E",
"B. c #A9938C",
"V. c #B2948C",
"C. c #A39C94",
"Z. c #BEA59C",
"A. c #83A7A0",
"S. c #86B7B3",
"D. c #A1AEAA",
"F. c #B4AFA8",
"G. c #BBA9A0",
"H. c #B9B5AE",
"J. c #B6B0A9",
"K. c #BBB7B0",
"L. c #C1A097",
"P. c #DABCB3",
"I. c #89C0BA",
"U. c #B7C1BA",
"Y. c #C3C7BF",
"T. c #D7C5BC",
"R. c #93CFC9",
"E. c #84C8C3",
"W. c #B7CAC3",
"Q. c #A4D2CC",
"!. c #B8D2CC",
"~. c #B4D9D2",
"^. c #C1C8C1",
"/. c #D4CEC5",
"(. c #DBCDC4",
"). c #DDD3CA",
"_. c #ECD8CE",
"`. c #EBD4CA",
"'. c #E3DED5",
"]. c #C8E3DC",
"[. c #DEE7DE",
"{. c #E0E8DF",
"}. c #F0E3DA",
"|. c #C7E7E0",
" X c #E3E9E0",
".X c #E9F0E8",
"XX c #FFF9EF",
"oX c #FAF4EA",
"OX c #FFFEF3",
"+X c #FFFFFE",
/* pixels */
": : : : : & & % $ % : < 9 i i 9 < : * % % & & & & & & * % * : , 9 i p p p p p p p p e 2 : & & , 9 i p 9 < : * % * & & & % $ $ $ ",
": : : : : : & & & & : 2 9 i i 9 2 : & & & & : : : : & & & & : < 9 i p p p p p p p p t 2 , - : < 9 i p 9 2 : & & & & : - & & & & ",
": : : : : : : : : : , 2 e i i e 2 , : : : : : : : : : : : : , 2 9 i p p p p p p p p t 9 < : : 2 9 i p e 2 , : - : : : , , , , , ",
"& & : : , < < < , < 2 9 e i i t 9 2 < < < < < < < < < < , < 2 4 9 i p p p p p p p p i 9 2 2 2 9 e i i e 9 2 < , , < 2 2 4 9 9 9 ",
"& & : : < 2 9 9 9 9 9 9 e i i i t e 9 9 9 9 9 4 9 9 9 9 4 9 9 9 e i p p p p p p p p i t 9 9 9 t i i i t 9 9 4 2 2 2 9 t p j B V ",
"& & : , 2 e i p i i e t i i p p p p i i i t e e t t t t t t t i i p p p p i p p i i i i i p p p p i i i i i e 9 9 e p B I ! _ ' ",
"= : , 2 9 i p B g p p p p p p i t t t p p p p p p p p p p p p p p p i i i i p p p p p p i t t i i p p p p p p i i i j I / ] ;.>.",
", < 2 9 e p j B B p p p g p p t 9 3 3 e p p B B B p p p p p p p p p p i i i p p p p p t e 3 3 e t p p g N g p i i p B I ' | >.,.",
"2 9 9 e i p p p p p p p N g p e 3 2 2 3 t p B B N p p p p p p p p p p i i i p p g p p e 3 2 2 3 e p g B N p p i u p B I _ [ ;.,.",
"t t i i i p p p p p p p p p p t e 5 9 e t p p g p p p p p p p p p p p i i i p p p p p t e 9 9 e t p p p p p i e e i g Z ! ' | ;.",
"p p p p p p i p p p p i e t i N C S S C g i e e i p p p p i i i i p p p p p p i e t i g C S S C N i t t i p p i e t p V Q _ ] | ",
"B B j p p i i p p p p 9 2 2 i G +.2.2.+.G p 4 3 e p p p p p i i i i p p j g p e 2 2 t G +.2.2.+.G p 9 3 e p p p i i p V Q _ ] | ",
"B B j p p i p p B B p 2 : , q O.N.F.F.N.O.i < > 3 p B B g p i i i i p g B B p 2 > , q O.N.F.F.N.O.h < < 3 p j g i i p V Q _ ] | ",
"p p p p p i p N B B e > @ * q -.H.'.'.H.=.q & # > t B B j p i i i i p g B B e > @ * q -.H.'.'.K.=.q & # < t B N p i p V ! _ ] | ",
"e e t i i i p N B p 2 # . o w 0./.OXOX/.2.8 o   # 2 p B g p p i i p p g B p 2 # . o w 0./.OXOX/.2.8 o   # 3 p g i i p V ! _ ] | ",
"2 2 9 9 e i p p p 9 : X     9 q._.+X+X).=.:       : 9 p p i p p p p i p p w : X     9 q._.+X+X).=.:     . : 9 t t t p Z ! _ ] | ",
": : < 2 9 i p i w < *       3 q.`.+X+X(.-.:       @ 2 9 t i p p p p i w w < *       3 q.`.+X+X(.-.:       * < w 9 e p Z ! _ ] | ",
"& - : 2 9 i p t 8 , @     . 9 4.(.OXXXT.=.<       @ , 8 9 i p j j p i 9 8 , @     . 9 4.(.OXXXT.=.<       @ 1 6 9 e j Z ! _ ] | ",
"& : , 2 9 i p i 9 2 - + o % c l.U.[. XY.M.H , * * : < 4 9 i p g g p i e 9 2 : + O % c l.U.[. XY.M.H , * * : < 2 4 e j Z ! ' ] ;.",
", < 2 4 9 i p p y t 8 7 ; x b d.S.Q.~.W.D.M.O.G N t 9 9 e i p p p p p y y t 8 7 ; x b d.S.Q.~.W.D.M.O.G N t 9 3 3 e j I / ] | >.",
"9 9 9 9 t i p a k V C F v n e.u.v.n.E.Q.!.^.H.B.1.! j t e i p p i i p a k V C F v n e.u.v.n.E.Q.!.^.H.B.1./ s e 3 e g A / ] ;.>.",
"i i i t t i p k K ~ ) #.6.t.y.y.y.a.b.R.|..X}.T.V.,.L a r p i t t i p k K ~ ) #.6.t.y.y.y.a.b.R.|..X}.T.V.,.L r f e g Z ! ] | >.",
"p p i t t i p k P ^ } *.z.c.p.y.w.e.g.I.].oXoX`.L.<.U s y p i t 0 t s k P ^ } *.z.c.p.y.w.e.g.I.].oXoX`.L.<.U y e t p B I ! ' ] ",
"e e e 9 9 i p k J ~ } %.k.x.g.r.M M d.A.W.'._.P.V.,.L s y p i t t i p d J ! } %.k.x.g.r.M M d.A.W.'._.P.V.,.L y e t p B V Z I ! ",
"2 2 2 9 9 i p s k Z Q { $.8.9.X... .#.M.C.G.Z.B.<./ B p y p p p i i p s s V Q { $.8.9.X... .#.M.C.G.Z.B.<./ B y t i p p p j B B ",
": : , 2 9 i p p p p B A ( } +.+.{ { } @.<.<.,.| ! B p t i i p p p p p i i p B D ( } +.+.{ { } @.<.<.,.| ! B p t t i p p p p p p ",
"% & : < 9 i p p t t i s L R ^ ` ` ` ^ ^ ~ U L j p t e e i i p p p p i u 9 e i j L R ^ ` ` ` ^ ^ ~ U L j p i e e t i p p p p p p ",
"% & : < 9 t p p t 9 e y d z Y W E E T K k a r e e 9 e t i i p p p p i t 9 9 e y d z Y W E E T K k a r e e e e e t i p g B B V V ",
"% & : < 9 t p p i t e r a d l J K K J k a r e e e e t t i i p p p p i i t e t y a d l J K K J k a r e e e e e e e i p B Z Q ! / ",
"& - : < 9 t p p p i i i p p p s j j j p p p t t i i i i p p p p i p p i i i i p p p p s j j j p p p t t i i i e e i p V Q _ ] | ",
"& - : < 4 t p p p p p i p p i t 9 9 9 e i p p p p p p p p p p p p p i p p p p p p p i t 9 9 9 e i p p p p p p t e i p V Q _ ] | ",
"& & : < 4 t p p p p p p p p t 9 2 2 2 2 9 p g N p p i p i p p p p p i i p p p p p p t 9 2 2 2 2 9 p g g p p i t e i p B A Q ! / ",
"% & : , 4 t p p p p i p p p i 9 2 < < 2 9 i p g p p i i i p p p p p p i i i p p p p i 9 2 < < 2 9 i p g p p i i i i p p B B V V ",
"& & : < 4 t p p p p i p p p i e 9 3 3 9 e p p p p p i i i p p p p p p i i i p p p p i e 9 3 3 9 e p p p p p i i i p p p p p p p ",
"- : , 2 9 t p p p p p t t t p N C S S C N p t t i p p p p p p p i i p p p p p i t t p N B S S C N p t t i p p p p p p p p p p p ",
", < 2 2 9 i p B B j p 9 2 4 p G +.2.2.+.G p 3 3 e p g g p p i i i i p p g g p e 3 9 p G +.2.2.@.G p 9 3 e p g g p p p p p j B B ",
"8 9 9 9 e i p B B B p 2 : , q O.N.F.F.N.O.q , > 2 p B B j p i i i i p j B B p 2 > , q O.N.F.F.N.O.h < < 3 p B B p i p j V Z I I ",
"t t t i i i p B B B e > @ * q -.H.'.'.H.-.q * @ > e B B j p i i i i p j B B e > @ * q -.H.'.'.K.=.q & # < t B B p i p B I ! _ ] ",
"p p p p p p p g B p 2 # . o w 0./.OXOX/.0.w o . # 2 p N g p p i i p p g N p 2 # . o w 0./.OXOX/.2.8 o   # 3 p p i i p Z ! ] ;.>.",
"j j j g p p i p p w : X     4 q._.+X+X_.q.4     X : w p p i p p p p i p p w : X     9 q._.+X+X).=.:     . : w t e u j I _ | >.,.",
"B j j j p p i 9 w < *       3 4.`.+X+X`.4.3       * < w 0 i p p p p i w w < *       3 q.`.+X+X(.-.:       * < 8 9 e j I _ | >.,.",
"p p p p p p i 9 8 , @     . 9 3.(.XXXX(.4.9 .     @ , 8 9 i p j j p i 9 8 , @     . 9 4.(.OXXXT.=.<       @ 1 2 8 e j I / ] | ;.",
"e e i i p p i e 9 2 : + O % c l.U.{.{.U.l.c % O + : 2 9 e i p p p p i 9 9 2 : @ O % c l.U.[. XY.M.H , * * : < 2 9 e g Z Q / ' ] ",
"4 9 9 9 t i p p y t 8 7 ; x b f.S.Q.Q.S.f.b x ; 7 8 t y p p p p p p p y y t 8 7 ; x b d.S.Q.~.W.D.M.O.G N t 9 4 9 e p B Z I Q ! ",
", < 2 2 w t p d l Z C F v n r.g.n.m.m.n.g.r.n v F C V k a p i t t i p a k V C F v n e.u.v.n.E.Q.!.^.H.B.1./ j e e t p B B B V Z ",
": : : < 8 e s J P ~ { o.7.t.i.s.a.v.v.a.s.i.t.7.o.) ~ K k p t 0 0 t p k K ~ ) #.6.t.y.y.y.a.b.R.|..X}.T.V.,.L y e i p p p p g j ",
"& & : : 2 9 s J T ` } &.d.g.a.p.i.u.u.i.p.a.g.f.*.} ^ P k p t w w t p k P ^ } *.z.c.p.y.w.e.g.I.].oXoX`.L.<.U s y p p i t u i i ",
"& & : : 2 9 s V K ~ } $.k.f.h.j.j.5.5.j.j.h.f.k.%.} ! J d p t 0 0 t p d J ! } %.k.x.g.r.M M d.A.U.'._.P.V.,.L s y p i t e 9 e 9 ",
"& & : , 4 t p j k Z Q { $.8.9.&.X.o.o.X.&.9.8.$.{ Q V s s p i t t i p s s V Q { $.8.9.X... .#.M.C.G.Z.B.<./ B p y p p i e 9 9 9 ",
"& & : < 9 t p p p p B A ( } +.+.} { { } +.+.} ( A B p i i p p p p p p i i p B D ( } +.+.{ { } @.<.<.,.| ! B p t t i p i i i t t ",
"& : : 2 9 i p p t t i j L R ^ ` ` ^ ^ ` ` ^ R J j i e 9 u i p p p p i t 9 e i j L R ^ ` ` ` ^ ^ ~ U L j p i e e t i p p p p p p ",
"= : , 2 9 i p p t e e y d z Y T T T T T T Y z d y e 9 9 t i p p p p i t 9 9 t p d z Y W W W T K d a r e e e e e t i p j B V V Z ",
"= : , 2 9 i p p p i t y a d d l l l l l l l d a p t e t i p p p p p p i t t i p s d l J z l k d a r r e t t i u t i p B Z I ! ! ",
"& : : 2 9 i p p p p i p p p p p p p p p s p p p p i i i i p p p p p p p i i p p p p s s s p p p p p p p p p i t e i p V Q / ' ] ",
"& & : < 4 e p p p p i i i i i i i i i t t t t i i p p p p i i i i i i i p p p i i t t t t t i i i i i p p p i e 9 e p V ! ' | ;.",
"$ % & : 2 9 i p p i u t t t t t t t t 9 9 w 9 t i p p p i i e e e e t i i i i e 9 9 w 9 0 t t t t t t i i i e 9 9 9 p V ! ] ;.>.",
"+ $ & : < 9 i p i e e e t t t i i t t 9 9 w 9 e i p p p i e e 9 e e e e e e e 9 9 w 9 9 e t t t e 9 9 e e t e 9 9 9 p V ! ' | >.",
"$ % = , 2 e i p p i u t i i i i i i i i t e t i i p p i i i t t t i i i i i i t e e t i i i i i i t e t i i e 9 9 9 p V ! ' [ ;.",
": , < 4 e p j B B g p p p p p p p p p p p g p p p p p p p p p p p p p p p p p p g g p p p p p p p p g j g g p p i p B Z ! _ ] | ",
"e t i p j V Z I I Z V B j p p i i i p B V Z V B g p p p B V Z Z Z V V V V V V Z Z Z V B p p p p B V Z Z Z Z V V B V Z Q / _ ] ] ",
"V V Z A I Q ! / ! ! I Z B p i e e i p V I ! Q Z B p p g V I ! ! ! ! ! Q Q ! ! ! / ! I V j p p j V I ! / ! ! Q Q I Q ! / _ ' ] ] ",
"/ / _ _ _ _ ' ] ] ' / I V p t 9 9 t g Z ! _ _ I B p p j I / ] ] ] ' _ _ _ _ ' ] ] ] / I B p p B I / ] ] ] ' _ _ _ _ _ ' ' ] ] ] ",
"| | | | ] ] [ | ;.| ' ! V p t 9 9 e g I _ ] ] ! V p p j I ' | ;.;.[ ] ] ] ] [ ;.;.| ' I B p p B I ' | ;.;.[ ] ] ] ] ] ] ] ] ] ] ",
">.>.>.;.;.| ;.;.>.;.[ ! Z g e 9 9 e j I ' | | ! V p p B Q ] >.>.>.;.| | | | ;.>.>.>.] Q B p p B Q ] >.>.>.;.| | ;.;.| | ] ] ] ' "
};
