/* XPM */
static char *rcp02445198083434[] = {
/* columns rows colors chars-per-pixel */
"64 64 205 2 ",
"   c #0C0D0D",
".  c #1A0C0E",
"X  c #1E0F11",
"o  c #121314",
"O  c #131618",
"+  c #15191A",
"@  c #1B1D1D",
"#  c #1A1716",
"$  c #0D1316",
"%  c #231C1C",
"&  c #2B1C1D",
"*  c #271516",
"=  c #351E1E",
"-  c #2A201F",
";  c #1E1F20",
":  c #2B1F20",
">  c #1F2020",
",  c #1F2829",
"<  c #232323",
"1  c #2B2525",
"2  c #2A2827",
"3  c #2D2A2A",
"4  c #242728",
"5  c #342424",
"6  c #392525",
"7  c #332C2C",
"8  c #3A2D2D",
"9  c #382827",
"0  c #37302F",
"q  c #3A302F",
"w  c #2A3130",
"e  c #29393A",
"r  c #353131",
"t  c #3C3333",
"y  c #3E3838",
"u  c #1B201F",
"i  c #442C2A",
"p  c #472C29",
"a  c #46312F",
"s  c #423636",
"d  c #4A3735",
"f  c #443837",
"g  c #4A3936",
"h  c #453A39",
"j  c #4A3C3B",
"k  c #433738",
"l  c #5A3935",
"z  c #533D3B",
"x  c #5B3E3B",
"c  c #553835",
"v  c #52312F",
"b  c #643C37",
"n  c #3F423F",
"m  c #4E403F",
"M  c #52413F",
"N  c #5D413D",
"B  c #62423E",
"V  c #6D443F",
"C  c #3A4F4E",
"Z  c #2F5251",
"A  c #305452",
"S  c #264544",
"D  c #376A68",
"F  c #397D7B",
"G  c #4E4241",
"H  c #474242",
"J  c #534442",
"K  c #5A4643",
"L  c #554847",
"P  c #5C4945",
"I  c #544B49",
"U  c #5C4D4A",
"Y  c #5B514E",
"T  c #5C5452",
"R  c #5B5957",
"E  c #6B4641",
"W  c #654A46",
"Q  c #6D4A45",
"!  c #634D4A",
"~  c #664743",
"^  c #724C46",
"/  c #65514C",
"(  c #6B534D",
")  c #72524C",
"_  c #79554E",
"`  c #6D5651",
"'  c #655955",
"]  c #705751",
"[  c #7A5750",
"{  c #745A54",
"}  c #795D56",
"|  c #745E58",
" . c #7B5F58",
".. c #6D615C",
"X. c #75645D",
"o. c #7E6159",
"O. c #416461",
"+. c #526E6B",
"@. c #55726D",
"#. c #6B6A65",
"$. c #6E6865",
"%. c #776A64",
"&. c #6A736D",
"*. c #7C716E",
"=. c #647771",
"-. c #667973",
";. c #6D7972",
":. c #797773",
">. c #83645C",
",. c #88685F",
"<. c #836B63",
"1. c #8A6D65",
"2. c #886F68",
"3. c #8A7E79",
"4. c #857875",
"5. c #997E78",
"6. c #5B857F",
"7. c #78827B",
"8. c #A1847C",
"9. c #8B807C",
"0. c #0E9594",
"q. c #019898",
"w. c #199998",
"e. c #2A9492",
"r. c #399B98",
"t. c #3C8987",
"y. c #37A09E",
"u. c #0EA6A5",
"i. c #11A8A7",
"p. c #26A6A4",
"a. c #3CA9A6",
"s. c #3AACA9",
"d. c #26B0AD",
"f. c #2AB2B0",
"g. c #478885",
"h. c #578984",
"j. c #4C928E",
"k. c #56918C",
"l. c #4D9591",
"z. c #549996",
"x. c #72938F",
"c. c #6A9690",
"v. c #41A19D",
"b. c #4AABA7",
"n. c #5BA6A1",
"m. c #61A8A3",
"M. c #64B0AB",
"N. c #73B4AE",
"B. c #8C8A85",
"V. c #948A85",
"C. c #9A8C87",
"Z. c #9C918B",
"A. c #9B9691",
"S. c #A48F88",
"D. c #A3938C",
"F. c #AB948D",
"G. c #B7988F",
"H. c #A89993",
"J. c #B89F97",
"K. c #8CA69F",
"L. c #ADA19B",
"P. c #BEA299",
"I. c #B3A29B",
"U. c #93B5AF",
"Y. c #8CBFB9",
"T. c #8EA8A1",
"R. c #ACACA6",
"E. c #BBB4AD",
"W. c #B1B8B1",
"Q. c #B1AEA8",
"!. c #CDB8AF",
"~. c #C2BDB6",
"^. c #C6BFB8",
"/. c #C0A299",
"(. c #8EC0BA",
"). c #B9C6BF",
"_. c #C4C2BA",
"`. c #D9C3BA",
"'. c #8CD2CC",
"]. c #8AD7D1",
"[. c #99CCC4",
"{. c #AACAC3",
"}. c #BDC9C1",
"|. c #BAD2CB",
" X c #CAC8C0",
".X c #DBCFC7",
"XX c #DFD4CB",
"oX c #C2DAD3",
"OX c #E3D4CC",
"+X c #E8D8CF",
"@X c #F2D8CD",
"#X c #EDDCD3",
"$X c #E3DFD6",
"%X c #F4DED5",
"&X c #CDE5DC",
"*X c #E4E5DC",
"=X c #E5E5DC",
"-X c #F6E1D7",
";X c #D0F4EC",
":X c #DCFFFC",
">X c #D9F9F0",
",X c #EAEAE1",
"<X c #FFF9EF",
"1X c #FFFEF3",
"2X c #FFFFFF",
/* pixels */
"< < < < < @ @ + O + < 3 t h j f r 2 < u @ @ @ @ @ @ @ + + + > 2 t h j j j j j j j j f t 2 < < 7 t h h t 3 < + + + @ @ @ + O O O ",
"< < < < < < @ @ @ @ < 7 t h h s 7 2 < @ @ > < < < < @ @ @ @ < 3 t h j j j j j j j j f t 2 < < 3 t h j t 7 < @ @ @ @ < > @ @ @ @ ",
"< < < < < < < < < < 2 7 s h h t 7 < @ @ @ < < 2 2 < < < < < 2 7 t h j j j j j j j j f 7 2 % < 3 t h j f 7 2 < > < < < 2 2 2 2 2 ",
"@ @ < < 2 3 3 3 2 3 7 t h j h q 1 % @ @ < 2 7 7 7 3 3 2 2 3 7 0 t h j j j j j j j j s 7 1 % % 2 8 h j h t 7 2 2 2 3 7 7 q t t t ",
"@ @ < < 3 7 t t t t t s j j f q 5 & % < 1 7 t t t t q 7 7 t t t s h j j j j j j j j s 8 1 % % 1 8 f j j f t 7 7 7 7 t f j M J K ",
"@ @ < 2 7 s h j h h h h j j h s t 8 8 8 t s h h h h f s f f f h h h h j j j j j j j h s q 8 8 t s h j j j h s t t s j J ! ( ] { ",
"; < 2 7 t h j J J j j h h h j J L U U U L m j j j j j j j j j j j h j j j j h h f h j J L U U L J j h j j j j h h h M ! ` } >.,.",
"2 3 7 t s j M J J J j s t s G ' *.3.9.4.| U j s j j m m m j j j j j j j j j h s t s L ' *.3.3.*.' L h s f j j j h j J ! { o.,.1.",
"7 t t s h j j J J m h q 7 t I *.H.E.E.H.4./ j t s j j j j j j j j j j j j j s 8 9 t I *.H.E.E.H.4.Y s 8 s j j j h h J ! ]  .>.1.",
"f f h h h j j j G j s 9 5 8 T B.~.=X=X^.V.' t 5 8 s j m j j j j j j j j m j s 9 1 8 T B.~.=X=X~.V.T t 5 8 s j j h h m P ( { o.>.",
"j j j j j j h j G m s 5 & 6 / D.OX1X1XXXZ.U 5 % 5 s m G m j h h h j j j J m s 5 & 6 / D.OX1X1XXXZ.U 5 & 5 s j j h h j K / ] } o.",
"J J M j j j h j J J s 5 * 5 ! F.-X2X2X#XC.J * X & s J J G j h h h h j G J J s 5 * 5 ! F.-X2X2X#XC.L % X : s G G h h j K / ] } o.",
"J J M j j j h m L J s 5 * = W F.%X2X2X+XV.j * . & s J L J j h h h h j G J J d 5 * = W F.%X2X2X+XC.m * . & s J L j h j K / ] } o.",
"j j j j j j j m J J s 5 & 6 ! S.OX1X1X.XV.J & * 5 s J J G j h h h j j m J J s 5 & 6 ! S.OX1X1X.XV.L & * 5 s G G h h j K / ] } o.",
"s s f h h j j j j h t 7 1 t R B._.*X*X XA...j 8 8 t h h h h j j j j h j j h t 7 1 t R B._.*X*X XA...j 8 8 s f s t s m P ( ] } o.",
"7 7 t t f h h s t 7 3 3 e C +.x.U.{.|.).R.V.%.Y j r 7 7 t s j G m j f s q 7 3 w e C +.x.U.{.|.).R.V.%.Y j t 3 3 7 s J U ( ] } o.",
"< < 3 0 f j f 8 5 < 4 e Z D g.z.m.N.Y.{.}.~.L.4.Y 7 @ @ 1 t m J J j s 8 1 < 4 e Z D g.z.m.N.Y.{.}.~.L.3.Y 7 + # < t J ! ( ] } o.",
"@ > < 7 t j s 8 & % , S D t.r.y.r.v.M.[.&X,XXXI.$.r o o % t J L J m s 5 & % , S D t.r.y.r.v.M.[.&X,XXXI.$.r o   @ 8 J / ` { } o.",
"@ < 2 7 t j d i 5 1 w Z F r.s.p.0.w.b.'.>X2X<X`.3.h # o % t J L L m s 6 = - w A F r.s.p.0.w.b.'.>X2X<X`.3.h #   @ 8 J / ` { } >.",
"2 3 7 r y h d a p i n D g.a.f.i.q.0.a.'.:X2X2X#XD.U 1 % 1 s G L G j s p i i n O.g.a.f.i.q.0.a.'.:X2X2X#XD.Y 1 # % t J / ] } o.,.",
"t t t t y h j c l N Y @.j.a.d.u.q.0.a.].:X2X2X-XJ.X.d 9 8 s j H h j j c l N Y @.j.a.d.u.q.0.a.].:X2X2X-XP.X.d 5 5 t J ! ` } >.,.",
"h h h f f h j x V ) ..-.k.v.p.w.0.w.b.'.;X2X1X@X/.1.P d d j h h f h j x E ) ..-.k.v.p.w.0.w.b.'.;X2X1X@X/.1.K a 8 s m P ( } o.,.",
"j j h f f h j N Q _ X.;.h.l.r.e.e.r.n.(.oX*X#X`.G.1./ z g j h f y f j N Q [ X.;.h.l.r.e.e.r.n.(.oX*X%X`.G.1./ z d f j J ! ( { } ",
"s s s t t h j N W ) | #.-.6.h.g.g.h.c.T.W._.!.P.8.>.! M j j h f f h j N W ) | #.-.6.h.g.g.h.c.T.W._.!.P.8.>.! z d h j J J P ! ( ",
"7 7 7 t t h j M K P / ' #.&.-.-.-.;.7.B.Z.F.S.5.<.` K j j j h h h h j z J P / ' #.&.-.-.-.;.7.B.Z.F.S.5.<.` K j d j j j j M J J ",
"< < 2 7 t h j j j j J U ` X.X.%.%.%.%.<.2.1.<.| / J j h h h j j j j j h j j J U ` X.X.%.%.%.%.<.2.1.<.| / J j f f h j j j j j j ",
"+ @ < 3 t h j h h s h M W ) _ _ _ ) ^ ) ) ( ! K m h s s f h j j j j h s t s h M W ) _ _ _ ) ^ ) ) ( ! K m h s s s h j j j j j j ",
"+ @ < 3 t f j h f t s j K E Q V b b l l l x z j f s t s f h j j j j h s t t s z K E Q V b b l l l x z j f s t t s h j M J J K K ",
"+ @ < 3 t f j j h s h j M N x l v p p p a d g j f s s f h h j j j j h f s s h j M N x l v p p p a d g j h f s t s h j J P / ( ` ",
"@ > < 3 t f j j j h h j j j j d s a a s s d j j h h h h h j j j j j j h h h h j j j j d s a s s s d j j j j h s s h j K / ] } o.",
"@ > < 3 q f j m j j h h f f h H G I L L G j h h h j j j j j j j j j j j j j j h h h h H G I L L G j h h j j j h s h j K / ] } o.",
"+ @ < 3 0 f j M M j h t t t H T $.:.:.$.' L h s s h j j j j j j j j j j j j h s t t H T $.:.:.$.' L h s s j j h h h j J P / ( ` ",
"+ @ < 2 0 f j J J j s 8 7 t I *.A.Q.Q.A.*.U s 8 t f j j j j j j j j j j j j s 8 9 t I *.A.Q.Q.A.*.U s 8 t h j j h h j m J J K K ",
"+ @ < 3 q f j J J j s 9 1 8 Y B.~.$X$X~.V.T t 5 8 s j m j j j j j j h j m j s 9 1 8 Y B.~.$X$X~.V.T t 5 8 s j j j j j j j j j j ",
"> < 2 7 t f j J J m s 5 & 8 / D.OX1X1XXXZ.U 5 & 5 s m J j j j j h h h j J m s 5 & 8 / D.OX1X1XXXZ.U 5 & 5 s m J j j j j j j j j ",
"2 3 7 7 t h j J L J s 5 * 6 ! F.-X2X2X#XZ.J & X & s J J G j h h h h j G J J s 5 * 6 ! F.-X2X2X#XZ.J & X : s J J G j j j j M J J ",
"r t t t s h j J L J d 5 * = W F.%X2X2X+XC.m * . & s J K J j h h h h j G J J d 5 * = W F.%X2X2X+XC.m * . & s J J G h j M K P ! ! ",
"f f f h h h j m L J s 5 & 6 ! S.OX1X1X.XV.L & * 5 s J J G j h h h j j m J J s 5 & 6 ! S.OX1X1X.XV.L & * 5 s J G j h j J ! ( ] } ",
"j j j j j j h h j h t 7 1 t R B._.*X*X XA...j 8 8 t h h h h j j j j h j j h t 7 1 t R B._.*X*X XA...j 8 8 s f s t s m P ` } >.,.",
"M M M m m j f t 8 7 3 w e C +.x.U.{.|.).R.V.%.Y j r 7 7 t s j G m j f s q 7 3 w e C +.x.U.{.|.).R.V.%.Y j t 3 2 7 t J ! ] o.,.1.",
"M M M J J j s 8 1 < 4 e Z D g.z.m.N.Y.{.}.~.L.4.Y 7 @ @ 1 t m J J j s 8 1 < 4 e Z D g.z.m.N.Y.{.}.~.L.3.Y 7 + # : t J / { o.,.1.",
"j j j G G j s 5 & % , S D t.r.y.r.v.M.[.&X,XXXI.$.r o o % t J L J m s 5 & % , S D t.r.y.r.y.M.[.&X,XXXI.$.r o   @ 8 J / ] } o.>.",
"f s h h j j s 8 = - w A F r.s.p.0.w.b.'.>X2X<X`.3.h # o % t J L L m s 6 = - w A F r.s.p.0.w.b.'.>X2X<X`.3.h #   @ 8 J ! ( ` { } ",
"0 t t t f h j p p i n O.g.a.f.i.q.0.a.'.:X2X2X#XD.U 1 % 1 s G L G j s p i i n O.g.a.f.i.q.0.a.'.:X2X2X#XD.U 1 # & t J K ! ! / ( ",
"2 3 7 r t f j c l N Y @.j.a.d.u.q.0.a.].:X2X2X-XJ.X.d 9 8 s j H h j j c l N Y @.j.a.d.u.q.0.a.].:X2X2X-XJ.X.d 5 9 s m J J J K P ",
"< < < 3 r f z B Q ) ..-.k.v.p.w.0.w.b.'.;X2X1X@XP.1.P d d j h h f h j x E ) ..-.k.v.p.w.0.w.b.'.;X2X1X@XP.1.P d s f j j j j m M ",
"@ @ < < 7 t z ~ ^ [ X.;.h.l.r.e.e.r.n.(.oX*X#X`.G.1./ z g j h f y f j K ^ [ X.;.h.l.r.e.e.r.n.(.oX*X#X`.G.1./ M g j h h f k h h ",
"+ @ < < 7 t z ~ W ) | #.-.6.g.g.g.h.c.K.W._.!.P.8.>.! M j j h f f h j N W ) | #.-.h.g.g.g.h.c.K.W._.!.P.8.>.! M j j h f s t s t ",
"+ @ < 2 7 f j J K P / ' #.&.=.=.=.=.;.B.Z.F.S.5.<.` K j j j h h h h j z M P / ' #.&.=.=.=.=.;.B.Z.F.S.5.<.` K j j j j f s t t t ",
"@ @ < 3 t f j j j j J U ' X.X.%.X.X.X.%.2.1.<.| / J j h h h j j j j j h j j J U ' X.X.%.X.X.X.%.2.1.<.| / J j h h j j h h h f f ",
"@ < < 7 t h j h f s h M W ) [ [ [ _ ) ) ) ( W K j h s s f h j j j j h s t s h M W ) [ [ [ _ ) ) ) ( W K m h s s s h j j j j j j ",
"; < 2 7 t h j j f t s j N E ^ ^ ^ Q E ~ B N z g s s s s h h j j j j h f t t s j N E ^ ^ ^ ^ E ~ B N z g f s s t s h j M J K K P ",
"; < 2 7 t h j j h h h j z x B B B N N x z c g s s s f h h j j j j j j h f f h j z N ~ ~ B N N x z c g d f h f s s h j J P ! ( ( ",
"@ < < 7 t h j j j j h j j j j j j j j j j j j j h h h h j j j j j j j j h h j j j j z z z j j j j j j j j j h f s h j K / ` { } ",
"+ @ < 3 0 s j j j j h h h h f f f h h h h h h j j j j j j h h h h h h h j j j h h f f f f f h h h h h j j j h s t s j K ( { o.>.",
"O + @ < 7 t h j j h k f f f f f f f f f f f f h j j j j h h s s s s f h h h h s t t t t y f f f f f f h h h s t t t j K ( } >.,.",
"$ O + < 3 t h j h s s s f f f f f f f s s t s f h j j h h s s t s s s s s s s t t t t t s f f f s t t s s f s t t t j K ( { o.,.",
"O + ; 2 7 s h j j h k f h h h h h h h h f s f h h j j h h h f f f h h h h h h f f s f h h h h h h f s f h h s t t t j K ( {  .>.",
"< 2 3 0 s j M J J m j j j j j j j j j j j m j j j j j j j j j j j j j j j j j j m m j j j j j j j j m M m m j j h j J P ( ] } o.",
"s f h j M K P ! ! P K J M j j h h h j J K P K J m j j j J K P P P K K K K K K P P P K J j j j j J K P P P P K K J K P / ` ] } } ",
"K K P U ! / ( ` ( ( ! P J j h s s h j K ! ( / P J j j m K ! ( ( ( ( ( / / ( ( ( ` ( ! K M j j M K ! ( ` ( ( / / ! / ( ` ] { } } ",
"` ` ] ] ] ] { } } { ` ! K j f t t s m P ( ] ] ! J j j M ! ` } } } { ] ] ] ] { } } } ` ! J j j J ! ` } } } { ] ] ] ] ] { { } } } ",
"o.o.o.o.} }  .o.>.o.{ ( K j f t t s m ! ] } } ( K j j M ! { o.>.>. .} } } }  .>.>.o.{ ! J j j J ! { o.>.>. .} } } } } } } } } } ",
",.,.,.>.>.o.>.>.,.>. .( P m s t t s M ! { o.o.( K j j J / } ,.,.,.>.o.o.o.o.>.,.,.,.} / J j j J / } ,.,.,.>.o.o.>.>.o.o.} } } { "
};
