/* XPM */
static char *out[] = {
/* columns rows colors chars-per-pixel */
"128 128 4 1 ",
"  c #D6634A",
". c #ED8453",
"X c #F7B65F",
"o c #FFE169",
/* pixels */
"        ........        XXXXXXXX........                ................        ........................                        ",
"        ........        XXXXXXXX........                ................        ........................                        ",
"        ........        XXXXXXXX........                ................        ........................                        ",
"        ........        XXXXXXXX........                ................        ........................                        ",
"        ........        XXXXXXXX........                ................        ........................                        ",
"        ........        XXXXXXXX........                ................        ........................                        ",
"        ........        XXXXXXXX........                ................        ........................                        ",
"        ........        XXXXXXXX........                ................        ........................                        ",
"                XXXXXXXX........                ................                        ........XXXXXXXXXXXXXXXXXXXXXXXX........",
"                XXXXXXXX........                ................                        ........XXXXXXXXXXXXXXXXXXXXXXXX........",
"                XXXXXXXX........                ................                        ........XXXXXXXXXXXXXXXXXXXXXXXX........",
"                XXXXXXXX........                ................                        ........XXXXXXXXXXXXXXXXXXXXXXXX........",
"                XXXXXXXX........                ................                        ........XXXXXXXXXXXXXXXXXXXXXXXX........",
"                XXXXXXXX........                ................                        ........XXXXXXXXXXXXXXXXXXXXXXXX........",
"                XXXXXXXX........                ................                        ........XXXXXXXXXXXXXXXXXXXXXXXX........",
"                XXXXXXXX........                ................                        ........XXXXXXXXXXXXXXXXXXXXXXXX........",
"                        ........                        XXXXXXXX                                ........XXXXXXXXoooooooo        ",
"                        ........                        XXXXXXXX                                ........XXXXXXXXoooooooo        ",
"                        ........                        XXXXXXXX                                ........XXXXXXXXoooooooo        ",
"                        ........                        XXXXXXXX                                ........XXXXXXXXoooooooo        ",
"                        ........                        XXXXXXXX                                ........XXXXXXXXoooooooo        ",
"                        ........                        XXXXXXXX                                ........XXXXXXXXoooooooo        ",
"                        ........                        XXXXXXXX                                ........XXXXXXXXoooooooo        ",
"                        ........                        XXXXXXXX                                ........XXXXXXXXoooooooo        ",
"                                ........                ........                                XXXXXXXXXXXXXXXX                ",
"                                ........                ........                                XXXXXXXXXXXXXXXX                ",
"                                ........                ........                                XXXXXXXXXXXXXXXX                ",
"                                ........                ........                                XXXXXXXXXXXXXXXX                ",
"                                ........                ........                                XXXXXXXXXXXXXXXX                ",
"                                ........                ........                                XXXXXXXXXXXXXXXX                ",
"                                ........                ........                                XXXXXXXXXXXXXXXX                ",
"                                ........                ........                                XXXXXXXXXXXXXXXX                ",
"                                XXXXXXXX                                        XXXXXXXX........        ........                ",
"                                XXXXXXXX                                        XXXXXXXX........        ........                ",
"                                XXXXXXXX                                        XXXXXXXX........        ........                ",
"                                XXXXXXXX                                        XXXXXXXX........        ........                ",
"                                XXXXXXXX                                        XXXXXXXX........        ........                ",
"                                XXXXXXXX                                        XXXXXXXX........        ........                ",
"                                XXXXXXXX                                        XXXXXXXX........        ........                ",
"                                XXXXXXXX                                        XXXXXXXX........        ........                ",
"........                        ........XXXXXXXX                        ................        ........        ........        ",
"........                        ........XXXXXXXX                        ................        ........        ........        ",
"........                        ........XXXXXXXX                        ................        ........        ........        ",
"........                        ........XXXXXXXX                        ................        ........        ........        ",
"........                        ........XXXXXXXX                        ................        ........        ........        ",
"........                        ........XXXXXXXX                        ................        ........        ........        ",
"........                        ........XXXXXXXX                        ................        ........        ........        ",
"........                        ........XXXXXXXX                        ................        ........        ........        ",
"                        ........XXXXXXXXXXXXXXXXXXXXXXXX        ........                                ........XXXXXXXX........",
"                        ........XXXXXXXXXXXXXXXXXXXXXXXX        ........                                ........XXXXXXXX........",
"                        ........XXXXXXXXXXXXXXXXXXXXXXXX        ........                                ........XXXXXXXX........",
"                        ........XXXXXXXXXXXXXXXXXXXXXXXX        ........                                ........XXXXXXXX........",
"                        ........XXXXXXXXXXXXXXXXXXXXXXXX        ........                                ........XXXXXXXX........",
"                        ........XXXXXXXXXXXXXXXXXXXXXXXX        ........                                ........XXXXXXXX........",
"                        ........XXXXXXXXXXXXXXXXXXXXXXXX        ........                                ........XXXXXXXX........",
"                        ........XXXXXXXXXXXXXXXXXXXXXXXX        ........                                ........XXXXXXXX........",
"................        XXXXXXXXooooooooXXXXXXXX........                                                        ........XXXXXXXX",
"................        XXXXXXXXooooooooXXXXXXXX........                                                        ........XXXXXXXX",
"................        XXXXXXXXooooooooXXXXXXXX........                                                        ........XXXXXXXX",
"................        XXXXXXXXooooooooXXXXXXXX........                                                        ........XXXXXXXX",
"................        XXXXXXXXooooooooXXXXXXXX........                                                        ........XXXXXXXX",
"................        XXXXXXXXooooooooXXXXXXXX........                                                        ........XXXXXXXX",
"................        XXXXXXXXooooooooXXXXXXXX........                                                        ........XXXXXXXX",
"................        XXXXXXXXooooooooXXXXXXXX........                                                        ........XXXXXXXX",
"oooooooo        XXXXXXXX                ........XXXXXXXX........                ........                        ................",
"oooooooo        XXXXXXXX                ........XXXXXXXX........                ........                        ................",
"oooooooo        XXXXXXXX                ........XXXXXXXX........                ........                        ................",
"oooooooo        XXXXXXXX                ........XXXXXXXX........                ........                        ................",
"oooooooo        XXXXXXXX                ........XXXXXXXX........                ........                        ................",
"oooooooo        XXXXXXXX                ........XXXXXXXX........                ........                        ................",
"oooooooo        XXXXXXXX                ........XXXXXXXX........                ........                        ................",
"oooooooo        XXXXXXXX                ........XXXXXXXX........                ........                        ................",
"................                ........XXXXXXXXoooooooo................                        XXXXXXXX........                ",
"................                ........XXXXXXXXoooooooo................                        XXXXXXXX........                ",
"................                ........XXXXXXXXoooooooo................                        XXXXXXXX........                ",
"................                ........XXXXXXXXoooooooo................                        XXXXXXXX........                ",
"................                ........XXXXXXXXoooooooo................                        XXXXXXXX........                ",
"................                ........XXXXXXXXoooooooo................                        XXXXXXXX........                ",
"................                ........XXXXXXXXoooooooo................                        XXXXXXXX........                ",
"................                ........XXXXXXXXoooooooo................                        XXXXXXXX........                ",
"XXXXXXXX........        ................XXXXXXXXXXXXXXXX........                        XXXXXXXX........                        ",
"XXXXXXXX........        ................XXXXXXXXXXXXXXXX........                        XXXXXXXX........                        ",
"XXXXXXXX........        ................XXXXXXXXXXXXXXXX........                        XXXXXXXX........                        ",
"XXXXXXXX........        ................XXXXXXXXXXXXXXXX........                        XXXXXXXX........                        ",
"XXXXXXXX........        ................XXXXXXXXXXXXXXXX........                        XXXXXXXX........                        ",
"XXXXXXXX........        ................XXXXXXXXXXXXXXXX........                        XXXXXXXX........                        ",
"XXXXXXXX........        ................XXXXXXXXXXXXXXXX........                        XXXXXXXX........                        ",
"XXXXXXXX........        ................XXXXXXXXXXXXXXXX........                        XXXXXXXX........                        ",
"        ................        XXXXXXXX........XXXXXXXXXXXXXXXX                        oooooooo                                ",
"        ................        XXXXXXXX........XXXXXXXXXXXXXXXX                        oooooooo                                ",
"        ................        XXXXXXXX........XXXXXXXXXXXXXXXX                        oooooooo                                ",
"        ................        XXXXXXXX........XXXXXXXXXXXXXXXX                        oooooooo                                ",
"        ................        XXXXXXXX........XXXXXXXXXXXXXXXX                        oooooooo                                ",
"        ................        XXXXXXXX........XXXXXXXXXXXXXXXX                        oooooooo                                ",
"        ................        XXXXXXXX........XXXXXXXXXXXXXXXX                        oooooooo                                ",
"        ................        XXXXXXXX........XXXXXXXXXXXXXXXX                        oooooooo                                ",
"........                ........        ................XXXXXXXX........        ........................                        ",
"........                ........        ................XXXXXXXX........        ........................                        ",
"........                ........        ................XXXXXXXX........        ........................                        ",
"........                ........        ................XXXXXXXX........        ........................                        ",
"........                ........        ................XXXXXXXX........        ........................                        ",
"........                ........        ................XXXXXXXX........        ........................                        ",
"........                ........        ................XXXXXXXX........        ........................                        ",
"........                ........        ................XXXXXXXX........        ........................                        ",
"                                                ooooooooXXXXXXXXXXXXXXXX........oooooooo........        XXXXXXXX................",
"                                                ooooooooXXXXXXXXXXXXXXXX........oooooooo........        XXXXXXXX................",
"                                                ooooooooXXXXXXXXXXXXXXXX........oooooooo........        XXXXXXXX................",
"                                                ooooooooXXXXXXXXXXXXXXXX........oooooooo........        XXXXXXXX................",
"                                                ooooooooXXXXXXXXXXXXXXXX........oooooooo........        XXXXXXXX................",
"                                                ooooooooXXXXXXXXXXXXXXXX........oooooooo........        XXXXXXXX................",
"                                                ooooooooXXXXXXXXXXXXXXXX........oooooooo........        XXXXXXXX................",
"                                                ooooooooXXXXXXXXXXXXXXXX........oooooooo........        XXXXXXXX................",
"                                XXXXXXXX........                        XXXXXXXX................XXXXXXXXXXXXXXXX                ",
"                                XXXXXXXX........                        XXXXXXXX................XXXXXXXXXXXXXXXX                ",
"                                XXXXXXXX........                        XXXXXXXX................XXXXXXXXXXXXXXXX                ",
"                                XXXXXXXX........                        XXXXXXXX................XXXXXXXXXXXXXXXX                ",
"                                XXXXXXXX........                        XXXXXXXX................XXXXXXXXXXXXXXXX                ",
"                                XXXXXXXX........                        XXXXXXXX................XXXXXXXXXXXXXXXX                ",
"                                XXXXXXXX........                        XXXXXXXX................XXXXXXXXXXXXXXXX                ",
"                                XXXXXXXX........                        XXXXXXXX................XXXXXXXXXXXXXXXX                ",
"                        ................                                        ........XXXXXXXX........                        ",
"                        ................                                        ........XXXXXXXX........                        ",
"                        ................                                        ........XXXXXXXX........                        ",
"                        ................                                        ........XXXXXXXX........                        ",
"                        ................                                        ........XXXXXXXX........                        ",
"                        ................                                        ........XXXXXXXX........                        ",
"                        ................                                        ........XXXXXXXX........                        ",
"                        ................                                        ........XXXXXXXX........                        "
};
