/* XPM */
static char *out[] = {
/* columns rows colors chars-per-pixel */
"128 128 4 1 ",
"  c #D6634A",
". c #ED8453",
"X c #F7B65F",
"o c #FFE169",
/* pixels */
"........        ........................                                ........XXXXXXXXXXXXXXXXXXXXXXXX........        ........",
"........        ........................                                ........XXXXXXXXXXXXXXXXXXXXXXXX........        ........",
"........        ........................                                ........XXXXXXXXXXXXXXXXXXXXXXXX........        ........",
"........        ........................                                ........XXXXXXXXXXXXXXXXXXXXXXXX........        ........",
"........        ........................                                ........XXXXXXXXXXXXXXXXXXXXXXXX........        ........",
"........        ........................                                ........XXXXXXXXXXXXXXXXXXXXXXXX........        ........",
"........        ........................                                ........XXXXXXXXXXXXXXXXXXXXXXXX........        ........",
"........        ........................                                ........XXXXXXXXXXXXXXXXXXXXXXXX........        ........",
"XXXXXXXX........XXXXXXXXXXXXXXXX                                                XXXXXXXX................XXXXXXXX................",
"XXXXXXXX........XXXXXXXXXXXXXXXX                                                XXXXXXXX................XXXXXXXX................",
"XXXXXXXX........XXXXXXXXXXXXXXXX                                                XXXXXXXX................XXXXXXXX................",
"XXXXXXXX........XXXXXXXXXXXXXXXX                                                XXXXXXXX................XXXXXXXX................",
"XXXXXXXX........XXXXXXXXXXXXXXXX                                                XXXXXXXX................XXXXXXXX................",
"XXXXXXXX........XXXXXXXXXXXXXXXX                                                XXXXXXXX................XXXXXXXX................",
"XXXXXXXX........XXXXXXXXXXXXXXXX                                                XXXXXXXX................XXXXXXXX................",
"XXXXXXXX........XXXXXXXXXXXXXXXX                                                XXXXXXXX................XXXXXXXX................",
"XXXXXXXX........                        ........                                        ................        ........XXXXXXXX",
"XXXXXXXX........                        ........                                        ................        ........XXXXXXXX",
"XXXXXXXX........                        ........                                        ................        ........XXXXXXXX",
"XXXXXXXX........                        ........                                        ................        ........XXXXXXXX",
"XXXXXXXX........                        ........                                        ................        ........XXXXXXXX",
"XXXXXXXX........                        ........                                        ................        ........XXXXXXXX",
"XXXXXXXX........                        ........                                        ................        ........XXXXXXXX",
"XXXXXXXX........                        ........                                        ................        ........XXXXXXXX",
"................XXXXXXXXXXXXXXXX                                                ........                                oooooooo",
"................XXXXXXXXXXXXXXXX                                                ........                                oooooooo",
"................XXXXXXXXXXXXXXXX                                                ........                                oooooooo",
"................XXXXXXXXXXXXXXXX                                                ........                                oooooooo",
"................XXXXXXXXXXXXXXXX                                                ........                                oooooooo",
"................XXXXXXXXXXXXXXXX                                                ........                                oooooooo",
"................XXXXXXXXXXXXXXXX                                                ........                                oooooooo",
"................XXXXXXXXXXXXXXXX                                                ........                                oooooooo",
"........XXXXXXXX........XXXXXXXXXXXXXXXX........                                                                ................",
"........XXXXXXXX........XXXXXXXXXXXXXXXX........                                                                ................",
"........XXXXXXXX........XXXXXXXXXXXXXXXX........                                                                ................",
"........XXXXXXXX........XXXXXXXXXXXXXXXX........                                                                ................",
"........XXXXXXXX........XXXXXXXXXXXXXXXX........                                                                ................",
"........XXXXXXXX........XXXXXXXXXXXXXXXX........                                                                ................",
"........XXXXXXXX........XXXXXXXXXXXXXXXX........                                                                ................",
"........XXXXXXXX........XXXXXXXXXXXXXXXX........                                                                ................",
"........................        XXXXXXXXXXXXXXXX........                ........                        ........                ",
"........................        XXXXXXXXXXXXXXXX........                ........                        ........                ",
"........................        XXXXXXXXXXXXXXXX........                ........                        ........                ",
"........................        XXXXXXXXXXXXXXXX........                ........                        ........                ",
"........................        XXXXXXXXXXXXXXXX........                ........                        ........                ",
"........................        XXXXXXXXXXXXXXXX........                ........                        ........                ",
"........................        XXXXXXXXXXXXXXXX........                ........                        ........                ",
"........................        XXXXXXXXXXXXXXXX........                ........                        ........                ",
"........XXXXXXXXoooooooo        ........XXXXXXXX                                                                                ",
"........XXXXXXXXoooooooo        ........XXXXXXXX                                                                                ",
"........XXXXXXXXoooooooo        ........XXXXXXXX                                                                                ",
"........XXXXXXXXoooooooo        ........XXXXXXXX                                                                                ",
"........XXXXXXXXoooooooo        ........XXXXXXXX                                                                                ",
"........XXXXXXXXoooooooo        ........XXXXXXXX                                                                                ",
"........XXXXXXXXoooooooo        ........XXXXXXXX                                                                                ",
"........XXXXXXXXoooooooo        ........XXXXXXXX                                                                                ",
"XXXXXXXX........        ........        ........                ........                                                ........",
"XXXXXXXX........        ........        ........                ........                                                ........",
"XXXXXXXX........        ........        ........                ........                                                ........",
"XXXXXXXX........        ........        ........                ........                                                ........",
"XXXXXXXX........        ........        ........                ........                                                ........",
"XXXXXXXX........        ........        ........                ........                                                ........",
"XXXXXXXX........        ........        ........                ........                                                ........",
"XXXXXXXX........        ........        ........                ........                                                ........",
"XXXXXXXXXXXXXXXX        ................                                        ........                                XXXXXXXX",
"XXXXXXXXXXXXXXXX        ................                                        ........                                XXXXXXXX",
"XXXXXXXXXXXXXXXX        ................                                        ........                                XXXXXXXX",
"XXXXXXXXXXXXXXXX        ................                                        ........                                XXXXXXXX",
"XXXXXXXXXXXXXXXX        ................                                        ........                                XXXXXXXX",
"XXXXXXXXXXXXXXXX        ................                                        ........                                XXXXXXXX",
"XXXXXXXXXXXXXXXX        ................                                        ........                                XXXXXXXX",
"XXXXXXXXXXXXXXXX        ................                                        ........                                XXXXXXXX",
"........                                XXXXXXXX........                ................        ........XXXXXXXX........XXXXXXXX",
"........                                XXXXXXXX........                ................        ........XXXXXXXX........XXXXXXXX",
"........                                XXXXXXXX........                ................        ........XXXXXXXX........XXXXXXXX",
"........                                XXXXXXXX........                ................        ........XXXXXXXX........XXXXXXXX",
"........                                XXXXXXXX........                ................        ........XXXXXXXX........XXXXXXXX",
"........                                XXXXXXXX........                ................        ........XXXXXXXX........XXXXXXXX",
"........                                XXXXXXXX........                ................        ........XXXXXXXX........XXXXXXXX",
"........                                XXXXXXXX........                ................        ........XXXXXXXX........XXXXXXXX",
"                                                ........XXXXXXXX........XXXXXXXX................XXXXXXXX................        ",
"                                                ........XXXXXXXX........XXXXXXXX................XXXXXXXX................        ",
"                                                ........XXXXXXXX........XXXXXXXX................XXXXXXXX................        ",
"                                                ........XXXXXXXX........XXXXXXXX................XXXXXXXX................        ",
"                                                ........XXXXXXXX........XXXXXXXX................XXXXXXXX................        ",
"                                                ........XXXXXXXX........XXXXXXXX................XXXXXXXX................        ",
"                                                ........XXXXXXXX........XXXXXXXX................XXXXXXXX................        ",
"                                                ........XXXXXXXX........XXXXXXXX................XXXXXXXX................        ",
"                                ........                ........XXXXXXXX................XXXXXXXXXXXXXXXX........                ",
"                                ........                ........XXXXXXXX................XXXXXXXXXXXXXXXX........                ",
"                                ........                ........XXXXXXXX................XXXXXXXXXXXXXXXX........                ",
"                                ........                ........XXXXXXXX................XXXXXXXXXXXXXXXX........                ",
"                                ........                ........XXXXXXXX................XXXXXXXXXXXXXXXX........                ",
"                                ........                ........XXXXXXXX................XXXXXXXXXXXXXXXX........                ",
"                                ........                ........XXXXXXXX................XXXXXXXXXXXXXXXX........                ",
"                                ........                ........XXXXXXXX................XXXXXXXXXXXXXXXX........                ",
"                                                                ................XXXXXXXX........oooooooo........                ",
"                                                                ................XXXXXXXX........oooooooo........                ",
"                                                                ................XXXXXXXX........oooooooo........                ",
"                                                                ................XXXXXXXX........oooooooo........                ",
"                                                                ................XXXXXXXX........oooooooo........                ",
"                                                                ................XXXXXXXX........oooooooo........                ",
"                                                                ................XXXXXXXX........oooooooo........                ",
"                                                                ................XXXXXXXX........oooooooo........                ",
"                                        ................        ........        ........XXXXXXXX........                        ",
"                                        ................        ........        ........XXXXXXXX........                        ",
"                                        ................        ........        ........XXXXXXXX........                        ",
"                                        ................        ........        ........XXXXXXXX........                        ",
"                                        ................        ........        ........XXXXXXXX........                        ",
"                                        ................        ........        ........XXXXXXXX........                        ",
"                                        ................        ........        ........XXXXXXXX........                        ",
"                                        ................        ........        ........XXXXXXXX........                        ",
"........                        XXXXXXXX........                XXXXXXXX........XXXXXXXXXXXXXXXX........        ........        ",
"........                        XXXXXXXX........                XXXXXXXX........XXXXXXXXXXXXXXXX........        ........        ",
"........                        XXXXXXXX........                XXXXXXXX........XXXXXXXXXXXXXXXX........        ........        ",
"........                        XXXXXXXX........                XXXXXXXX........XXXXXXXXXXXXXXXX........        ........        ",
"........                        XXXXXXXX........                XXXXXXXX........XXXXXXXXXXXXXXXX........        ........        ",
"........                        XXXXXXXX........                XXXXXXXX........XXXXXXXXXXXXXXXX........        ........        ",
"........                        XXXXXXXX........                XXXXXXXX........XXXXXXXXXXXXXXXX........        ........        ",
"........                        XXXXXXXX........                XXXXXXXX........XXXXXXXXXXXXXXXX........        ........        ",
"                        ................                ................XXXXXXXXooooooooXXXXXXXX................        ........",
"                        ................                ................XXXXXXXXooooooooXXXXXXXX................        ........",
"                        ................                ................XXXXXXXXooooooooXXXXXXXX................        ........",
"                        ................                ................XXXXXXXXooooooooXXXXXXXX................        ........",
"                        ................                ................XXXXXXXXooooooooXXXXXXXX................        ........",
"                        ................                ................XXXXXXXXooooooooXXXXXXXX................        ........",
"                        ................                ................XXXXXXXXooooooooXXXXXXXX................        ........",
"                        ................                ................XXXXXXXXooooooooXXXXXXXX................        ........"
};
