/* XPM */
static char *out[] = {
/* columns rows colors chars-per-pixel */
"128 128 4 1 ",
"  c #D6634A",
". c #ED8453",
"X c #F7B65F",
"o c #FFE169",
/* pixels */
"                                XXXXXXXXXXXXXXXXoooooooo        ........                                                XXXXXXXX",
"                                XXXXXXXXXXXXXXXXoooooooo        ........                                                XXXXXXXX",
"                                XXXXXXXXXXXXXXXXoooooooo        ........                                                XXXXXXXX",
"                                XXXXXXXXXXXXXXXXoooooooo        ........                                                XXXXXXXX",
"                                XXXXXXXXXXXXXXXXoooooooo        ........                                                XXXXXXXX",
"                                XXXXXXXXXXXXXXXXoooooooo        ........                                                XXXXXXXX",
"                                XXXXXXXXXXXXXXXXoooooooo        ........                                                XXXXXXXX",
"                                XXXXXXXXXXXXXXXXoooooooo        ........                                                XXXXXXXX",
"........                ................XXXXXXXX................                                                        XXXXXXXX",
"........                ................XXXXXXXX................                                                        XXXXXXXX",
"........                ................XXXXXXXX................                                                        XXXXXXXX",
"........                ................XXXXXXXX................                                                        XXXXXXXX",
"........                ................XXXXXXXX................                                                        XXXXXXXX",
"........                ................XXXXXXXX................                                                        XXXXXXXX",
"........                ................XXXXXXXX................                                                        XXXXXXXX",
"........                ................XXXXXXXX................                                                        XXXXXXXX",
"        ........XXXXXXXX                        ........XXXXXXXX........                                        XXXXXXXX........",
"        ........XXXXXXXX                        ........XXXXXXXX........                                        XXXXXXXX........",
"        ........XXXXXXXX                        ........XXXXXXXX........                                        XXXXXXXX........",
"        ........XXXXXXXX                        ........XXXXXXXX........                                        XXXXXXXX........",
"        ........XXXXXXXX                        ........XXXXXXXX........                                        XXXXXXXX........",
"        ........XXXXXXXX                        ........XXXXXXXX........                                        XXXXXXXX........",
"        ........XXXXXXXX                        ........XXXXXXXX........                                        XXXXXXXX........",
"        ........XXXXXXXX                        ........XXXXXXXX........                                        XXXXXXXX........",
"................                                                XXXXXXXXXXXXXXXX                        ................        ",
"................                                                XXXXXXXXXXXXXXXX                        ................        ",
"................                                                XXXXXXXXXXXXXXXX                        ................        ",
"................                                                XXXXXXXXXXXXXXXX                        ................        ",
"................                                                XXXXXXXXXXXXXXXX                        ................        ",
"................                                                XXXXXXXXXXXXXXXX                        ................        ",
"................                                                XXXXXXXXXXXXXXXX                        ................        ",
"................                                                XXXXXXXXXXXXXXXX                        ................        ",
"                                                                ........XXXXXXXX........                ........                ",
"                                                                ........XXXXXXXX........                ........                ",
"                                                                ........XXXXXXXX........                ........                ",
"                                                                ........XXXXXXXX........                ........                ",
"                                                                ........XXXXXXXX........                ........                ",
"                                                                ........XXXXXXXX........                ........                ",
"                                                                ........XXXXXXXX........                ........                ",
"                                                                ........XXXXXXXX........                ........                ",
"                                                                        ................XXXXXXXX........                ........",
"                                                                        ................XXXXXXXX........                ........",
"                                                                        ................XXXXXXXX........                ........",
"                                                                        ................XXXXXXXX........                ........",
"                                                                        ................XXXXXXXX........                ........",
"                                                                        ................XXXXXXXX........                ........",
"                                                                        ................XXXXXXXX........                ........",
"                                                                        ................XXXXXXXX........                ........",
"        ........                        XXXXXXXX................ooooooooXXXXXXXXXXXXXXXXooooooooXXXXXXXX................        ",
"        ........                        XXXXXXXX................ooooooooXXXXXXXXXXXXXXXXooooooooXXXXXXXX................        ",
"        ........                        XXXXXXXX................ooooooooXXXXXXXXXXXXXXXXooooooooXXXXXXXX................        ",
"        ........                        XXXXXXXX................ooooooooXXXXXXXXXXXXXXXXooooooooXXXXXXXX................        ",
"        ........                        XXXXXXXX................ooooooooXXXXXXXXXXXXXXXXooooooooXXXXXXXX................        ",
"        ........                        XXXXXXXX................ooooooooXXXXXXXXXXXXXXXXooooooooXXXXXXXX................        ",
"        ........                        XXXXXXXX................ooooooooXXXXXXXXXXXXXXXXooooooooXXXXXXXX................        ",
"        ........                        XXXXXXXX................ooooooooXXXXXXXXXXXXXXXXooooooooXXXXXXXX................        ",
"                                XXXXXXXX................                ........XXXXXXXXXXXXXXXX........                        ",
"                                XXXXXXXX................                ........XXXXXXXXXXXXXXXX........                        ",
"                                XXXXXXXX................                ........XXXXXXXXXXXXXXXX........                        ",
"                                XXXXXXXX................                ........XXXXXXXXXXXXXXXX........                        ",
"                                XXXXXXXX................                ........XXXXXXXXXXXXXXXX........                        ",
"                                XXXXXXXX................                ........XXXXXXXXXXXXXXXX........                        ",
"                                XXXXXXXX................                ........XXXXXXXXXXXXXXXX........                        ",
"                                XXXXXXXX................                ........XXXXXXXXXXXXXXXX........                        ",
"........                ................                ................        ........XXXXXXXX................        ........",
"........                ................                ................        ........XXXXXXXX................        ........",
"........                ................                ................        ........XXXXXXXX................        ........",
"........                ................                ................        ........XXXXXXXX................        ........",
"........                ................                ................        ........XXXXXXXX................        ........",
"........                ................                ................        ........XXXXXXXX................        ........",
"........                ................                ................        ........XXXXXXXX................        ........",
"........                ................                ................        ........XXXXXXXX................        ........",
"                XXXXXXXX........                ................                        ........XXXXXXXXXXXXXXXXXXXXXXXX........",
"                XXXXXXXX........                ................                        ........XXXXXXXXXXXXXXXXXXXXXXXX........",
"                XXXXXXXX........                ................                        ........XXXXXXXXXXXXXXXXXXXXXXXX........",
"                XXXXXXXX........                ................                        ........XXXXXXXXXXXXXXXXXXXXXXXX........",
"                XXXXXXXX........                ................                        ........XXXXXXXXXXXXXXXXXXXXXXXX........",
"                XXXXXXXX........                ................                        ........XXXXXXXXXXXXXXXXXXXXXXXX........",
"                XXXXXXXX........                ................                        ........XXXXXXXXXXXXXXXXXXXXXXXX........",
"                XXXXXXXX........                ................                        ........XXXXXXXXXXXXXXXXXXXXXXXX........",
"                ................                XXXXXXXX                                XXXXXXXX        XXXXXXXXXXXXXXXX........",
"                ................                XXXXXXXX                                XXXXXXXX        XXXXXXXXXXXXXXXX........",
"                ................                XXXXXXXX                                XXXXXXXX        XXXXXXXXXXXXXXXX........",
"                ................                XXXXXXXX                                XXXXXXXX        XXXXXXXXXXXXXXXX........",
"                ................                XXXXXXXX                                XXXXXXXX        XXXXXXXXXXXXXXXX........",
"                ................                XXXXXXXX                                XXXXXXXX        XXXXXXXXXXXXXXXX........",
"                ................                XXXXXXXX                                XXXXXXXX        XXXXXXXXXXXXXXXX........",
"                ................                XXXXXXXX                                XXXXXXXX        XXXXXXXXXXXXXXXX........",
"                        ........                        ........                                XXXXXXXXoooooooo........        ",
"                        ........                        ........                                XXXXXXXXoooooooo........        ",
"                        ........                        ........                                XXXXXXXXoooooooo........        ",
"                        ........                        ........                                XXXXXXXXoooooooo........        ",
"                        ........                        ........                                XXXXXXXXoooooooo........        ",
"                        ........                        ........                                XXXXXXXXoooooooo........        ",
"                        ........                        ........                                XXXXXXXXoooooooo........        ",
"                        ........                        ........                                XXXXXXXXoooooooo........        ",
"                                                                                        ................XXXXXXXX                ",
"                                                                                        ................XXXXXXXX                ",
"                                                                                        ................XXXXXXXX                ",
"                                                                                        ................XXXXXXXX                ",
"                                                                                        ................XXXXXXXX                ",
"                                                                                        ................XXXXXXXX                ",
"                                                                                        ................XXXXXXXX                ",
"                                                                                        ................XXXXXXXX                ",
"                                                                        XXXXXXXXXXXXXXXX........XXXXXXXX........                ",
"                                                                        XXXXXXXXXXXXXXXX........XXXXXXXX........                ",
"                                                                        XXXXXXXXXXXXXXXX........XXXXXXXX........                ",
"                                                                        XXXXXXXXXXXXXXXX........XXXXXXXX........                ",
"                                                                        XXXXXXXXXXXXXXXX........XXXXXXXX........                ",
"                                                                        XXXXXXXXXXXXXXXX........XXXXXXXX........                ",
"                                                                        XXXXXXXXXXXXXXXX........XXXXXXXX........                ",
"                                                                        XXXXXXXXXXXXXXXX........XXXXXXXX........                ",
"        ........                XXXXXXXXXXXXXXXX                XXXXXXXX........                        ................        ",
"        ........                XXXXXXXXXXXXXXXX                XXXXXXXX........                        ................        ",
"        ........                XXXXXXXXXXXXXXXX                XXXXXXXX........                        ................        ",
"        ........                XXXXXXXXXXXXXXXX                XXXXXXXX........                        ................        ",
"        ........                XXXXXXXXXXXXXXXX                XXXXXXXX........                        ................        ",
"        ........                XXXXXXXXXXXXXXXX                XXXXXXXX........                        ................        ",
"        ........                XXXXXXXXXXXXXXXX                XXXXXXXX........                        ................        ",
"        ........                XXXXXXXXXXXXXXXX                XXXXXXXX........                        ................        ",
"........                XXXXXXXXoooooooo        XXXXXXXX................                                        XXXXXXXX........",
"........                XXXXXXXXoooooooo        XXXXXXXX................                                        XXXXXXXX........",
"........                XXXXXXXXoooooooo        XXXXXXXX................                                        XXXXXXXX........",
"........                XXXXXXXXoooooooo        XXXXXXXX................                                        XXXXXXXX........",
"........                XXXXXXXXoooooooo        XXXXXXXX................                                        XXXXXXXX........",
"........                XXXXXXXXoooooooo        XXXXXXXX................                                        XXXXXXXX........",
"........                XXXXXXXXoooooooo        XXXXXXXX................                                        XXXXXXXX........",
"........                XXXXXXXXoooooooo        XXXXXXXX................                                        XXXXXXXX........"
};
