/* XPM */
static char *out[] = {
/* columns rows colors chars-per-pixel */
"128 128 4 1 ",
"  c #D6634A",
". c #ED8453",
"X c #F7B65F",
"o c #FFE169",
/* pixels */
"                ................ooooooooXXXXXXXX........XXXXXXXX........................        ................                ",
"                ................ooooooooXXXXXXXX........XXXXXXXX........................        ................                ",
"                ................ooooooooXXXXXXXX........XXXXXXXX........................        ................                ",
"                ................ooooooooXXXXXXXX........XXXXXXXX........................        ................                ",
"                ................ooooooooXXXXXXXX........XXXXXXXX........................        ................                ",
"                ................ooooooooXXXXXXXX........XXXXXXXX........................        ................                ",
"                ................ooooooooXXXXXXXX........XXXXXXXX........................        ................                ",
"                ................ooooooooXXXXXXXX........XXXXXXXX........................        ................                ",
"                        ........XXXXXXXXXXXXXXXX........................        ........................        ........        ",
"                        ........XXXXXXXXXXXXXXXX........................        ........................        ........        ",
"                        ........XXXXXXXXXXXXXXXX........................        ........................        ........        ",
"                        ........XXXXXXXXXXXXXXXX........................        ........................        ........        ",
"                        ........XXXXXXXXXXXXXXXX........................        ........................        ........        ",
"                        ........XXXXXXXXXXXXXXXX........................        ........................        ........        ",
"                        ........XXXXXXXXXXXXXXXX........................        ........................        ........        ",
"                        ........XXXXXXXXXXXXXXXX........................        ........................        ........        ",
"                        XXXXXXXX........................                ........................                                ",
"                        XXXXXXXX........................                ........................                                ",
"                        XXXXXXXX........................                ........................                                ",
"                        XXXXXXXX........................                ........................                                ",
"                        XXXXXXXX........................                ........................                                ",
"                        XXXXXXXX........................                ........................                                ",
"                        XXXXXXXX........................                ........................                                ",
"                        XXXXXXXX........................                ........................                                ",
"        ........        ................XXXXXXXX                        ........XXXXXXXX........                                ",
"        ........        ................XXXXXXXX                        ........XXXXXXXX........                                ",
"        ........        ................XXXXXXXX                        ........XXXXXXXX........                                ",
"        ........        ................XXXXXXXX                        ........XXXXXXXX........                                ",
"        ........        ................XXXXXXXX                        ........XXXXXXXX........                                ",
"        ........        ................XXXXXXXX                        ........XXXXXXXX........                                ",
"        ........        ................XXXXXXXX                        ........XXXXXXXX........                                ",
"        ........        ................XXXXXXXX                        ........XXXXXXXX........                                ",
"                ................                                oooooooo................XXXXXXXXXXXXXXXX                        ",
"                ................                                oooooooo................XXXXXXXXXXXXXXXX                        ",
"                ................                                oooooooo................XXXXXXXXXXXXXXXX                        ",
"                ................                                oooooooo................XXXXXXXXXXXXXXXX                        ",
"                ................                                oooooooo................XXXXXXXXXXXXXXXX                        ",
"                ................                                oooooooo................XXXXXXXXXXXXXXXX                        ",
"                ................                                oooooooo................XXXXXXXXXXXXXXXX                        ",
"                ................                                oooooooo................XXXXXXXXXXXXXXXX                        ",
"        ........XXXXXXXX                ........                ........        ........XXXXXXXXoooooooo................        ",
"        ........XXXXXXXX                ........                ........        ........XXXXXXXXoooooooo................        ",
"        ........XXXXXXXX                ........                ........        ........XXXXXXXXoooooooo................        ",
"        ........XXXXXXXX                ........                ........        ........XXXXXXXXoooooooo................        ",
"        ........XXXXXXXX                ........                ........        ........XXXXXXXXoooooooo................        ",
"        ........XXXXXXXX                ........                ........        ........XXXXXXXXoooooooo................        ",
"        ........XXXXXXXX                ........                ........        ........XXXXXXXXoooooooo................        ",
"        ........XXXXXXXX                ........                ........        ........XXXXXXXXoooooooo................        ",
"................XXXXXXXX                                ........XXXXXXXX        XXXXXXXX........                ........oooooooo",
"................XXXXXXXX                                ........XXXXXXXX        XXXXXXXX........                ........oooooooo",
"................XXXXXXXX                                ........XXXXXXXX        XXXXXXXX........                ........oooooooo",
"................XXXXXXXX                                ........XXXXXXXX        XXXXXXXX........                ........oooooooo",
"................XXXXXXXX                                ........XXXXXXXX        XXXXXXXX........                ........oooooooo",
"................XXXXXXXX                                ........XXXXXXXX        XXXXXXXX........                ........oooooooo",
"................XXXXXXXX                                ........XXXXXXXX        XXXXXXXX........                ........oooooooo",
"................XXXXXXXX                                ........XXXXXXXX        XXXXXXXX........                ........oooooooo",
"XXXXXXXX........XXXXXXXX........                                        ................                                ........",
"XXXXXXXX........XXXXXXXX........                                        ................                                ........",
"XXXXXXXX........XXXXXXXX........                                        ................                                ........",
"XXXXXXXX........XXXXXXXX........                                        ................                                ........",
"XXXXXXXX........XXXXXXXX........                                        ................                                ........",
"XXXXXXXX........XXXXXXXX........                                        ................                                ........",
"XXXXXXXX........XXXXXXXX........                                        ................                                ........",
"XXXXXXXX........XXXXXXXX........                                        ................                                ........",
"........XXXXXXXXXXXXXXXX................                        ................                                                ",
"........XXXXXXXXXXXXXXXX................                        ................                                                ",
"........XXXXXXXXXXXXXXXX................                        ................                                                ",
"........XXXXXXXXXXXXXXXX................                        ................                                                ",
"........XXXXXXXXXXXXXXXX................                        ................                                                ",
"........XXXXXXXXXXXXXXXX................                        ................                                                ",
"........XXXXXXXXXXXXXXXX................                        ................                                                ",
"........XXXXXXXXXXXXXXXX................                        ................                                                ",
"XXXXXXXXXXXXXXXX                                                                XXXXXXXX........                        ........",
"XXXXXXXXXXXXXXXX                                                                XXXXXXXX........                        ........",
"XXXXXXXXXXXXXXXX                                                                XXXXXXXX........                        ........",
"XXXXXXXXXXXXXXXX                                                                XXXXXXXX........                        ........",
"XXXXXXXXXXXXXXXX                                                                XXXXXXXX........                        ........",
"XXXXXXXXXXXXXXXX                                                                XXXXXXXX........                        ........",
"XXXXXXXXXXXXXXXX                                                                XXXXXXXX........                        ........",
"XXXXXXXXXXXXXXXX                                                                XXXXXXXX........                        ........",
"........XXXXXXXX........                                                        ........XXXXXXXXXXXXXXXX                XXXXXXXX",
"........XXXXXXXX........                                                        ........XXXXXXXXXXXXXXXX                XXXXXXXX",
"........XXXXXXXX........                                                        ........XXXXXXXXXXXXXXXX                XXXXXXXX",
"........XXXXXXXX........                                                        ........XXXXXXXXXXXXXXXX                XXXXXXXX",
"........XXXXXXXX........                                                        ........XXXXXXXXXXXXXXXX                XXXXXXXX",
"........XXXXXXXX........                                                        ........XXXXXXXXXXXXXXXX                XXXXXXXX",
"........XXXXXXXX........                                                        ........XXXXXXXXXXXXXXXX                XXXXXXXX",
"........XXXXXXXX........                                                        ........XXXXXXXXXXXXXXXX                XXXXXXXX",
"................XXXXXXXX                                                                ................XXXXXXXX                ",
"................XXXXXXXX                                                                ................XXXXXXXX                ",
"................XXXXXXXX                                                                ................XXXXXXXX                ",
"................XXXXXXXX                                                                ................XXXXXXXX                ",
"................XXXXXXXX                                                                ................XXXXXXXX                ",
"................XXXXXXXX                                                                ................XXXXXXXX                ",
"................XXXXXXXX                                                                ................XXXXXXXX                ",
"................XXXXXXXX                                                                ................XXXXXXXX                ",
"XXXXXXXX        ........                                                        ........XXXXXXXX........        ........XXXXXXXX",
"XXXXXXXX        ........                                                        ........XXXXXXXX........        ........XXXXXXXX",
"XXXXXXXX        ........                                                        ........XXXXXXXX........        ........XXXXXXXX",
"XXXXXXXX        ........                                                        ........XXXXXXXX........        ........XXXXXXXX",
"XXXXXXXX        ........                                                        ........XXXXXXXX........        ........XXXXXXXX",
"XXXXXXXX        ........                                                        ........XXXXXXXX........        ........XXXXXXXX",
"XXXXXXXX        ........                                                        ........XXXXXXXX........        ........XXXXXXXX",
"XXXXXXXX        ........                                                        ........XXXXXXXX........        ........XXXXXXXX",
"XXXXXXXX                ........                                        ................XXXXXXXXXXXXXXXXXXXXXXXX................",
"XXXXXXXX                ........                                        ................XXXXXXXXXXXXXXXXXXXXXXXX................",
"XXXXXXXX                ........                                        ................XXXXXXXXXXXXXXXXXXXXXXXX................",
"XXXXXXXX                ........                                        ................XXXXXXXXXXXXXXXXXXXXXXXX................",
"XXXXXXXX                ........                                        ................XXXXXXXXXXXXXXXXXXXXXXXX................",
"XXXXXXXX                ........                                        ................XXXXXXXXXXXXXXXXXXXXXXXX................",
"XXXXXXXX                ........                                        ................XXXXXXXXXXXXXXXXXXXXXXXX................",
"XXXXXXXX                ........                                        ................XXXXXXXXXXXXXXXXXXXXXXXX................",
"........                XXXXXXXX........        ................                        ........XXXXXXXXooooooooXXXXXXXX........",
"........                XXXXXXXX........        ................                        ........XXXXXXXXooooooooXXXXXXXX........",
"........                XXXXXXXX........        ................                        ........XXXXXXXXooooooooXXXXXXXX........",
"........                XXXXXXXX........        ................                        ........XXXXXXXXooooooooXXXXXXXX........",
"........                XXXXXXXX........        ................                        ........XXXXXXXXooooooooXXXXXXXX........",
"........                XXXXXXXX........        ................                        ........XXXXXXXXooooooooXXXXXXXX........",
"........                XXXXXXXX........        ................                        ........XXXXXXXXooooooooXXXXXXXX........",
"........                XXXXXXXX........        ................                        ........XXXXXXXXooooooooXXXXXXXX........",
"                ................................XXXXXXXX................                ........XXXXXXXXXXXXXXXX........        ",
"                ................................XXXXXXXX................                ........XXXXXXXXXXXXXXXX........        ",
"                ................................XXXXXXXX................                ........XXXXXXXXXXXXXXXX........        ",
"                ................................XXXXXXXX................                ........XXXXXXXXXXXXXXXX........        ",
"                ................................XXXXXXXX................                ........XXXXXXXXXXXXXXXX........        ",
"                ................................XXXXXXXX................                ........XXXXXXXXXXXXXXXX........        ",
"                ................................XXXXXXXX................                ........XXXXXXXXXXXXXXXX........        ",
"                ................................XXXXXXXX................                ........XXXXXXXXXXXXXXXX........        "
};
