/* XPM */
static char *out[] = {
/* columns rows colors chars-per-pixel */
"128 128 4 1 ",
"  c #D6634A",
". c #ED8453",
"X c #F7B65F",
"o c #FFE169",
/* pixels */
"ooooooooXXXXXXXX........        ........                                        ........                XXXXXXXXXXXXXXXX........",
"ooooooooXXXXXXXX........        ........                                        ........                XXXXXXXXXXXXXXXX........",
"ooooooooXXXXXXXX........        ........                                        ........                XXXXXXXXXXXXXXXX........",
"ooooooooXXXXXXXX........        ........                                        ........                XXXXXXXXXXXXXXXX........",
"ooooooooXXXXXXXX........        ........                                        ........                XXXXXXXXXXXXXXXX........",
"ooooooooXXXXXXXX........        ........                                        ........                XXXXXXXXXXXXXXXX........",
"ooooooooXXXXXXXX........        ........                                        ........                XXXXXXXXXXXXXXXX........",
"ooooooooXXXXXXXX........        ........                                        ........                XXXXXXXXXXXXXXXX........",
"XXXXXXXXXXXXXXXX                                                                                                ................",
"XXXXXXXXXXXXXXXX                                                                                                ................",
"XXXXXXXXXXXXXXXX                                                                                                ................",
"XXXXXXXXXXXXXXXX                                                                                                ................",
"XXXXXXXXXXXXXXXX                                                                                                ................",
"XXXXXXXXXXXXXXXX                                                                                                ................",
"XXXXXXXXXXXXXXXX                                                                                                ................",
"XXXXXXXXXXXXXXXX                                                                                                ................",
"........                                                                                ........                        XXXXXXXX",
"........                                                                                ........                        XXXXXXXX",
"........                                                                                ........                        XXXXXXXX",
"........                                                                                ........                        XXXXXXXX",
"........                                                                                ........                        XXXXXXXX",
"........                                                                                ........                        XXXXXXXX",
"........                                                                                ........                        XXXXXXXX",
"........                                                                                ........                        XXXXXXXX",
"........                                                                        ................XXXXXXXX                ........",
"........                                                                        ................XXXXXXXX                ........",
"........                                                                        ................XXXXXXXX                ........",
"........                                                                        ................XXXXXXXX                ........",
"........                                                                        ................XXXXXXXX                ........",
"........                                                                        ................XXXXXXXX                ........",
"........                                                                        ................XXXXXXXX                ........",
"........                                                                        ................XXXXXXXX                ........",
"XXXXXXXX                                                        ........XXXXXXXX........XXXXXXXXXXXXXXXX........        ........",
"XXXXXXXX                                                        ........XXXXXXXX........XXXXXXXXXXXXXXXX........        ........",
"XXXXXXXX                                                        ........XXXXXXXX........XXXXXXXXXXXXXXXX........        ........",
"XXXXXXXX                                                        ........XXXXXXXX........XXXXXXXXXXXXXXXX........        ........",
"XXXXXXXX                                                        ........XXXXXXXX........XXXXXXXXXXXXXXXX........        ........",
"XXXXXXXX                                                        ........XXXXXXXX........XXXXXXXXXXXXXXXX........        ........",
"XXXXXXXX                                                        ........XXXXXXXX........XXXXXXXXXXXXXXXX........        ........",
"XXXXXXXX                                                        ........XXXXXXXX........XXXXXXXXXXXXXXXX........        ........",
"........XXXXXXXX                                ................                                ........XXXXXXXX........        ",
"........XXXXXXXX                                ................                                ........XXXXXXXX........        ",
"........XXXXXXXX                                ................                                ........XXXXXXXX........        ",
"........XXXXXXXX                                ................                                ........XXXXXXXX........        ",
"........XXXXXXXX                                ................                                ........XXXXXXXX........        ",
"........XXXXXXXX                                ................                                ........XXXXXXXX........        ",
"........XXXXXXXX                                ................                                ........XXXXXXXX........        ",
"........XXXXXXXX                                ................                                ........XXXXXXXX........        ",
"................................                XXXXXXXX                                                XXXXXXXX........XXXXXXXX",
"................................                XXXXXXXX                                                XXXXXXXX........XXXXXXXX",
"................................                XXXXXXXX                                                XXXXXXXX........XXXXXXXX",
"................................                XXXXXXXX                                                XXXXXXXX........XXXXXXXX",
"................................                XXXXXXXX                                                XXXXXXXX........XXXXXXXX",
"................................                XXXXXXXX                                                XXXXXXXX........XXXXXXXX",
"................................                XXXXXXXX                                                XXXXXXXX........XXXXXXXX",
"................................                XXXXXXXX                                                XXXXXXXX........XXXXXXXX",
"........XXXXXXXX........        ........XXXXXXXX                                ........        ........XXXXXXXXoooooooo........",
"........XXXXXXXX........        ........XXXXXXXX                                ........        ........XXXXXXXXoooooooo........",
"........XXXXXXXX........        ........XXXXXXXX                                ........        ........XXXXXXXXoooooooo........",
"........XXXXXXXX........        ........XXXXXXXX                                ........        ........XXXXXXXXoooooooo........",
"........XXXXXXXX........        ........XXXXXXXX                                ........        ........XXXXXXXXoooooooo........",
"........XXXXXXXX........        ........XXXXXXXX                                ........        ........XXXXXXXXoooooooo........",
"........XXXXXXXX........        ........XXXXXXXX                                ........        ........XXXXXXXXoooooooo........",
"........XXXXXXXX........        ........XXXXXXXX                                ........        ........XXXXXXXXoooooooo........",
"................XXXXXXXX........XXXXXXXXXXXXXXXXoooooooo        ................                                XXXXXXXXXXXXXXXX",
"................XXXXXXXX........XXXXXXXXXXXXXXXXoooooooo        ................                                XXXXXXXXXXXXXXXX",
"................XXXXXXXX........XXXXXXXXXXXXXXXXoooooooo        ................                                XXXXXXXXXXXXXXXX",
"................XXXXXXXX........XXXXXXXXXXXXXXXXoooooooo        ................                                XXXXXXXXXXXXXXXX",
"................XXXXXXXX........XXXXXXXXXXXXXXXXoooooooo        ................                                XXXXXXXXXXXXXXXX",
"................XXXXXXXX........XXXXXXXXXXXXXXXXoooooooo        ................                                XXXXXXXXXXXXXXXX",
"................XXXXXXXX........XXXXXXXXXXXXXXXXoooooooo        ................                                XXXXXXXXXXXXXXXX",
"................XXXXXXXX........XXXXXXXXXXXXXXXXoooooooo        ................                                XXXXXXXXXXXXXXXX",
"................        XXXXXXXXooooooooooooooooXXXXXXXX........XXXXXXXX                                                XXXXXXXX",
"................        XXXXXXXXooooooooooooooooXXXXXXXX........XXXXXXXX                                                XXXXXXXX",
"................        XXXXXXXXooooooooooooooooXXXXXXXX........XXXXXXXX                                                XXXXXXXX",
"................        XXXXXXXXooooooooooooooooXXXXXXXX........XXXXXXXX                                                XXXXXXXX",
"................        XXXXXXXXooooooooooooooooXXXXXXXX........XXXXXXXX                                                XXXXXXXX",
"................        XXXXXXXXooooooooooooooooXXXXXXXX........XXXXXXXX                                                XXXXXXXX",
"................        XXXXXXXXooooooooooooooooXXXXXXXX........XXXXXXXX                                                XXXXXXXX",
"................        XXXXXXXXooooooooooooooooXXXXXXXX........XXXXXXXX                                                XXXXXXXX",
"XXXXXXXX        ........ooooooooXXXXXXXXXXXXXXXX........................                                        ................",
"XXXXXXXX        ........ooooooooXXXXXXXXXXXXXXXX........................                                        ................",
"XXXXXXXX        ........ooooooooXXXXXXXXXXXXXXXX........................                                        ................",
"XXXXXXXX        ........ooooooooXXXXXXXXXXXXXXXX........................                                        ................",
"XXXXXXXX        ........ooooooooXXXXXXXXXXXXXXXX........................                                        ................",
"XXXXXXXX        ........ooooooooXXXXXXXXXXXXXXXX........................                                        ................",
"XXXXXXXX        ........ooooooooXXXXXXXXXXXXXXXX........................                                        ................",
"XXXXXXXX        ........ooooooooXXXXXXXXXXXXXXXX........................                                        ................",
"........XXXXXXXX................XXXXXXXXXXXXXXXXooooooooXXXXXXXX................                        ........................",
"........XXXXXXXX................XXXXXXXXXXXXXXXXooooooooXXXXXXXX................                        ........................",
"........XXXXXXXX................XXXXXXXXXXXXXXXXooooooooXXXXXXXX................                        ........................",
"........XXXXXXXX................XXXXXXXXXXXXXXXXooooooooXXXXXXXX................                        ........................",
"........XXXXXXXX................XXXXXXXXXXXXXXXXooooooooXXXXXXXX................                        ........................",
"........XXXXXXXX................XXXXXXXXXXXXXXXXooooooooXXXXXXXX................                        ........................",
"........XXXXXXXX................XXXXXXXXXXXXXXXXooooooooXXXXXXXX................                        ........................",
"........XXXXXXXX................XXXXXXXXXXXXXXXXooooooooXXXXXXXX................                        ........................",
"        ................................XXXXXXXX........        ........................XXXXXXXX........XXXXXXXX........        ",
"        ................................XXXXXXXX........        ........................XXXXXXXX........XXXXXXXX........        ",
"        ................................XXXXXXXX........        ........................XXXXXXXX........XXXXXXXX........        ",
"        ................................XXXXXXXX........        ........................XXXXXXXX........XXXXXXXX........        ",
"        ................................XXXXXXXX........        ........................XXXXXXXX........XXXXXXXX........        ",
"        ................................XXXXXXXX........        ........................XXXXXXXX........XXXXXXXX........        ",
"        ................................XXXXXXXX........        ........................XXXXXXXX........XXXXXXXX........        ",
"        ................................XXXXXXXX........        ........................XXXXXXXX........XXXXXXXX........        ",
"                                ........                                ........XXXXXXXXXXXXXXXXXXXXXXXX................XXXXXXXX",
"                                ........                                ........XXXXXXXXXXXXXXXXXXXXXXXX................XXXXXXXX",
"                                ........                                ........XXXXXXXXXXXXXXXXXXXXXXXX................XXXXXXXX",
"                                ........                                ........XXXXXXXXXXXXXXXXXXXXXXXX................XXXXXXXX",
"                                ........                                ........XXXXXXXXXXXXXXXXXXXXXXXX................XXXXXXXX",
"                                ........                                ........XXXXXXXXXXXXXXXXXXXXXXXX................XXXXXXXX",
"                                ........                                ........XXXXXXXXXXXXXXXXXXXXXXXX................XXXXXXXX",
"                                ........                                ........XXXXXXXXXXXXXXXXXXXXXXXX................XXXXXXXX",
"................................                        ........                ................XXXXXXXXXXXXXXXX........        ",
"................................                        ........                ................XXXXXXXXXXXXXXXX........        ",
"................................                        ........                ................XXXXXXXXXXXXXXXX........        ",
"................................                        ........                ................XXXXXXXXXXXXXXXX........        ",
"................................                        ........                ................XXXXXXXXXXXXXXXX........        ",
"................................                        ........                ................XXXXXXXXXXXXXXXX........        ",
"................................                        ........                ................XXXXXXXXXXXXXXXX........        ",
"................................                        ........                ................XXXXXXXXXXXXXXXX........        ",
"........XXXXXXXXXXXXXXXX........                                                        ................ooooooooXXXXXXXX        ",
"........XXXXXXXXXXXXXXXX........                                                        ................ooooooooXXXXXXXX        ",
"........XXXXXXXXXXXXXXXX........                                                        ................ooooooooXXXXXXXX        ",
"........XXXXXXXXXXXXXXXX........                                                        ................ooooooooXXXXXXXX        ",
"........XXXXXXXXXXXXXXXX........                                                        ................ooooooooXXXXXXXX        ",
"........XXXXXXXXXXXXXXXX........                                                        ................ooooooooXXXXXXXX        ",
"........XXXXXXXXXXXXXXXX........                                                        ................ooooooooXXXXXXXX        ",
"........XXXXXXXXXXXXXXXX........                                                        ................ooooooooXXXXXXXX        "
};
