/* XPM */
static char *out[] = {
/* columns rows colors chars-per-pixel */
"128 128 4 1 ",
"  c #D6634A",
". c #ED8453",
"X c #F7B65F",
"o c #FFE169",
/* pixels */
"                                                ........................                XXXXXXXXooooooooXXXXXXXXXXXXXXXX        ",
"                                                ........................                XXXXXXXXooooooooXXXXXXXXXXXXXXXX        ",
"                                                ........................                XXXXXXXXooooooooXXXXXXXXXXXXXXXX        ",
"                                                ........................                XXXXXXXXooooooooXXXXXXXXXXXXXXXX        ",
"                                                ........................                XXXXXXXXooooooooXXXXXXXXXXXXXXXX        ",
"                                                ........................                XXXXXXXXooooooooXXXXXXXXXXXXXXXX        ",
"                                                ........................                XXXXXXXXooooooooXXXXXXXXXXXXXXXX        ",
"                                                ........................                XXXXXXXXooooooooXXXXXXXXXXXXXXXX        ",
"                                        ........XXXXXXXX........                        ........XXXXXXXX........ooooooooXXXXXXXX",
"                                        ........XXXXXXXX........                        ........XXXXXXXX........ooooooooXXXXXXXX",
"                                        ........XXXXXXXX........                        ........XXXXXXXX........ooooooooXXXXXXXX",
"                                        ........XXXXXXXX........                        ........XXXXXXXX........ooooooooXXXXXXXX",
"                                        ........XXXXXXXX........                        ........XXXXXXXX........ooooooooXXXXXXXX",
"                                        ........XXXXXXXX........                        ........XXXXXXXX........ooooooooXXXXXXXX",
"                                        ........XXXXXXXX........                        ........XXXXXXXX........ooooooooXXXXXXXX",
"                                        ........XXXXXXXX........                        ........XXXXXXXX........ooooooooXXXXXXXX",
"XXXXXXXX........        XXXXXXXX................XXXXXXXX                        ........        ........        ................",
"XXXXXXXX........        XXXXXXXX................XXXXXXXX                        ........        ........        ................",
"XXXXXXXX........        XXXXXXXX................XXXXXXXX                        ........        ........        ................",
"XXXXXXXX........        XXXXXXXX................XXXXXXXX                        ........        ........        ................",
"XXXXXXXX........        XXXXXXXX................XXXXXXXX                        ........        ........        ................",
"XXXXXXXX........        XXXXXXXX................XXXXXXXX                        ........        ........        ................",
"XXXXXXXX........        XXXXXXXX................XXXXXXXX                        ........        ........        ................",
"XXXXXXXX........        XXXXXXXX................XXXXXXXX                        ........        ........        ................",
"XXXXXXXXXXXXXXXX................XXXXXXXX................                                                                        ",
"XXXXXXXXXXXXXXXX................XXXXXXXX................                                                                        ",
"XXXXXXXXXXXXXXXX................XXXXXXXX................                                                                        ",
"XXXXXXXXXXXXXXXX................XXXXXXXX................                                                                        ",
"XXXXXXXXXXXXXXXX................XXXXXXXX................                                                                        ",
"XXXXXXXXXXXXXXXX................XXXXXXXX................                                                                        ",
"XXXXXXXXXXXXXXXX................XXXXXXXX................                                                                        ",
"XXXXXXXXXXXXXXXX................XXXXXXXX................                                                                        ",
"        ................XXXXXXXXXXXXXXXXXXXXXXXXXXXXXXXX........                        ........        ................        ",
"        ................XXXXXXXXXXXXXXXXXXXXXXXXXXXXXXXX........                        ........        ................        ",
"        ................XXXXXXXXXXXXXXXXXXXXXXXXXXXXXXXX........                        ........        ................        ",
"        ................XXXXXXXXXXXXXXXXXXXXXXXXXXXXXXXX........                        ........        ................        ",
"        ................XXXXXXXXXXXXXXXXXXXXXXXXXXXXXXXX........                        ........        ................        ",
"        ................XXXXXXXXXXXXXXXXXXXXXXXXXXXXXXXX........                        ........        ................        ",
"        ................XXXXXXXXXXXXXXXXXXXXXXXXXXXXXXXX........                        ........        ................        ",
"        ................XXXXXXXXXXXXXXXXXXXXXXXXXXXXXXXX........                        ........        ................        ",
"                        ........XXXXXXXX        ........XXXXXXXX........                        ................XXXXXXXX........",
"                        ........XXXXXXXX        ........XXXXXXXX........                        ................XXXXXXXX........",
"                        ........XXXXXXXX        ........XXXXXXXX........                        ................XXXXXXXX........",
"                        ........XXXXXXXX        ........XXXXXXXX........                        ................XXXXXXXX........",
"                        ........XXXXXXXX        ........XXXXXXXX........                        ................XXXXXXXX........",
"                        ........XXXXXXXX        ........XXXXXXXX........                        ................XXXXXXXX........",
"                        ........XXXXXXXX        ........XXXXXXXX........                        ................XXXXXXXX........",
"                        ........XXXXXXXX        ........XXXXXXXX........                        ................XXXXXXXX........",
"XXXXXXXX                                                ................                                        ........XXXXXXXX",
"XXXXXXXX                                                ................                                        ........XXXXXXXX",
"XXXXXXXX                                                ................                                        ........XXXXXXXX",
"XXXXXXXX                                                ................                                        ........XXXXXXXX",
"XXXXXXXX                                                ................                                        ........XXXXXXXX",
"XXXXXXXX                                                ................                                        ........XXXXXXXX",
"XXXXXXXX                                                ................                                        ........XXXXXXXX",
"XXXXXXXX                                                ................                                        ........XXXXXXXX",
"ooooooooXXXXXXXX                XXXXXXXX                ........XXXXXXXXXXXXXXXX                        ................XXXXXXXX",
"ooooooooXXXXXXXX                XXXXXXXX                ........XXXXXXXXXXXXXXXX                        ................XXXXXXXX",
"ooooooooXXXXXXXX                XXXXXXXX                ........XXXXXXXXXXXXXXXX                        ................XXXXXXXX",
"ooooooooXXXXXXXX                XXXXXXXX                ........XXXXXXXXXXXXXXXX                        ................XXXXXXXX",
"ooooooooXXXXXXXX                XXXXXXXX                ........XXXXXXXXXXXXXXXX                        ................XXXXXXXX",
"ooooooooXXXXXXXX                XXXXXXXX                ........XXXXXXXXXXXXXXXX                        ................XXXXXXXX",
"ooooooooXXXXXXXX                XXXXXXXX                ........XXXXXXXXXXXXXXXX                        ................XXXXXXXX",
"ooooooooXXXXXXXX                XXXXXXXX                ........XXXXXXXXXXXXXXXX                        ................XXXXXXXX",
"XXXXXXXX........        XXXXXXXXXXXXXXXX                        ........XXXXXXXX        ................                ........",
"XXXXXXXX........        XXXXXXXXXXXXXXXX                        ........XXXXXXXX        ................                ........",
"XXXXXXXX........        XXXXXXXXXXXXXXXX                        ........XXXXXXXX        ................                ........",
"XXXXXXXX........        XXXXXXXXXXXXXXXX                        ........XXXXXXXX        ................                ........",
"XXXXXXXX........        XXXXXXXXXXXXXXXX                        ........XXXXXXXX        ................                ........",
"XXXXXXXX........        XXXXXXXXXXXXXXXX                        ........XXXXXXXX        ................                ........",
"XXXXXXXX........        XXXXXXXXXXXXXXXX                        ........XXXXXXXX        ................                ........",
"XXXXXXXX........        XXXXXXXXXXXXXXXX                        ........XXXXXXXX        ................                ........",
"........XXXXXXXXXXXXXXXXoooooooo........................        ................XXXXXXXX........                                ",
"........XXXXXXXXXXXXXXXXoooooooo........................        ................XXXXXXXX........                                ",
"........XXXXXXXXXXXXXXXXoooooooo........................        ................XXXXXXXX........                                ",
"........XXXXXXXXXXXXXXXXoooooooo........................        ................XXXXXXXX........                                ",
"........XXXXXXXXXXXXXXXXoooooooo........................        ................XXXXXXXX........                                ",
"........XXXXXXXXXXXXXXXXoooooooo........................        ................XXXXXXXX........                                ",
"........XXXXXXXXXXXXXXXXoooooooo........................        ................XXXXXXXX........                                ",
"........XXXXXXXXXXXXXXXXoooooooo........................        ................XXXXXXXX........                                ",
"XXXXXXXX        XXXXXXXXXXXXXXXX        XXXXXXXX................XXXXXXXXXXXXXXXX........                                        ",
"XXXXXXXX        XXXXXXXXXXXXXXXX        XXXXXXXX................XXXXXXXXXXXXXXXX........                                        ",
"XXXXXXXX        XXXXXXXXXXXXXXXX        XXXXXXXX................XXXXXXXXXXXXXXXX........                                        ",
"XXXXXXXX        XXXXXXXXXXXXXXXX        XXXXXXXX................XXXXXXXXXXXXXXXX........                                        ",
"XXXXXXXX        XXXXXXXXXXXXXXXX        XXXXXXXX................XXXXXXXXXXXXXXXX........                                        ",
"XXXXXXXX        XXXXXXXXXXXXXXXX        XXXXXXXX................XXXXXXXXXXXXXXXX........                                        ",
"XXXXXXXX        XXXXXXXXXXXXXXXX        XXXXXXXX................XXXXXXXXXXXXXXXX........                                        ",
"XXXXXXXX        XXXXXXXXXXXXXXXX        XXXXXXXX................XXXXXXXXXXXXXXXX........                                        ",
"........        XXXXXXXX                ................XXXXXXXX........XXXXXXXXXXXXXXXX                                ........",
"........        XXXXXXXX                ................XXXXXXXX........XXXXXXXXXXXXXXXX                                ........",
"........        XXXXXXXX                ................XXXXXXXX........XXXXXXXXXXXXXXXX                                ........",
"........        XXXXXXXX                ................XXXXXXXX........XXXXXXXXXXXXXXXX                                ........",
"........        XXXXXXXX                ................XXXXXXXX........XXXXXXXXXXXXXXXX                                ........",
"........        XXXXXXXX                ................XXXXXXXX........XXXXXXXXXXXXXXXX                                ........",
"........        XXXXXXXX                ................XXXXXXXX........XXXXXXXXXXXXXXXX                                ........",
"........        XXXXXXXX                ................XXXXXXXX........XXXXXXXXXXXXXXXX                                ........",
"                        ................        ........XXXXXXXX........        ................        XXXXXXXX........        ",
"                        ................        ........XXXXXXXX........        ................        XXXXXXXX........        ",
"                        ................        ........XXXXXXXX........        ................        XXXXXXXX........        ",
"                        ................        ........XXXXXXXX........        ................        XXXXXXXX........        ",
"                        ................        ........XXXXXXXX........        ................        XXXXXXXX........        ",
"                        ................        ........XXXXXXXX........        ................        XXXXXXXX........        ",
"                        ................        ........XXXXXXXX........        ................        XXXXXXXX........        ",
"                        ................        ........XXXXXXXX........        ................        XXXXXXXX........        ",
"                                ........XXXXXXXXXXXXXXXXooooooooXXXXXXXX........................XXXXXXXX........                ",
"                                ........XXXXXXXXXXXXXXXXooooooooXXXXXXXX........................XXXXXXXX........                ",
"                                ........XXXXXXXXXXXXXXXXooooooooXXXXXXXX........................XXXXXXXX........                ",
"                                ........XXXXXXXXXXXXXXXXooooooooXXXXXXXX........................XXXXXXXX........                ",
"                                ........XXXXXXXXXXXXXXXXooooooooXXXXXXXX........................XXXXXXXX........                ",
"                                ........XXXXXXXXXXXXXXXXooooooooXXXXXXXX........................XXXXXXXX........                ",
"                                ........XXXXXXXXXXXXXXXXooooooooXXXXXXXX........................XXXXXXXX........                ",
"                                ........XXXXXXXXXXXXXXXXooooooooXXXXXXXX........................XXXXXXXX........                ",
"                        ........XXXXXXXXXXXXXXXX........XXXXXXXXXXXXXXXX        ........XXXXXXXX........                        ",
"                        ........XXXXXXXXXXXXXXXX........XXXXXXXXXXXXXXXX        ........XXXXXXXX........                        ",
"                        ........XXXXXXXXXXXXXXXX........XXXXXXXXXXXXXXXX        ........XXXXXXXX........                        ",
"                        ........XXXXXXXXXXXXXXXX........XXXXXXXXXXXXXXXX        ........XXXXXXXX........                        ",
"                        ........XXXXXXXXXXXXXXXX........XXXXXXXXXXXXXXXX        ........XXXXXXXX........                        ",
"                        ........XXXXXXXXXXXXXXXX........XXXXXXXXXXXXXXXX        ........XXXXXXXX........                        ",
"                        ........XXXXXXXXXXXXXXXX........XXXXXXXXXXXXXXXX        ........XXXXXXXX........                        ",
"                        ........XXXXXXXXXXXXXXXX........XXXXXXXXXXXXXXXX        ........XXXXXXXX........                        ",
"                        XXXXXXXX................        XXXXXXXX........                ........XXXXXXXX                        ",
"                        XXXXXXXX................        XXXXXXXX........                ........XXXXXXXX                        ",
"                        XXXXXXXX................        XXXXXXXX........                ........XXXXXXXX                        ",
"                        XXXXXXXX................        XXXXXXXX........                ........XXXXXXXX                        ",
"                        XXXXXXXX................        XXXXXXXX........                ........XXXXXXXX                        ",
"                        XXXXXXXX................        XXXXXXXX........                ........XXXXXXXX                        ",
"                        XXXXXXXX................        XXXXXXXX........                ........XXXXXXXX                        ",
"                        XXXXXXXX................        XXXXXXXX........                ........XXXXXXXX                        "
};
