/* XPM */
static char *out[] = {
/* columns rows colors chars-per-pixel */
"128 128 4 1 ",
"  c #D6634A",
". c #ED8453",
"X c #F7B65F",
"o c #FFE169",
/* pixels */
"                        ........XXXXXXXX                                        ........XXXXXXXX        ........                ",
"                        ........XXXXXXXX                                        ........XXXXXXXX        ........                ",
"                        ........XXXXXXXX                                        ........XXXXXXXX        ........                ",
"                        ........XXXXXXXX                                        ........XXXXXXXX        ........                ",
"                        ........XXXXXXXX                                        ........XXXXXXXX        ........                ",
"                        ........XXXXXXXX                                        ........XXXXXXXX        ........                ",
"                        ........XXXXXXXX                                        ........XXXXXXXX        ........                ",
"                        ........XXXXXXXX                                        ........XXXXXXXX        ........                ",
"                        XXXXXXXX................                        ................................XXXXXXXX........        ",
"                        XXXXXXXX................                        ................................XXXXXXXX........        ",
"                        XXXXXXXX................                        ................................XXXXXXXX........        ",
"                        XXXXXXXX................                        ................................XXXXXXXX........        ",
"                        XXXXXXXX................                        ................................XXXXXXXX........        ",
"                        XXXXXXXX................                        ................................XXXXXXXX........        ",
"                        XXXXXXXX................                        ................................XXXXXXXX........        ",
"                        XXXXXXXX................                        ................................XXXXXXXX........        ",
"        ........XXXXXXXXXXXXXXXX........................                        ................        ........XXXXXXXXXXXXXXXX",
"        ........XXXXXXXXXXXXXXXX........................                        ................        ........XXXXXXXXXXXXXXXX",
"        ........XXXXXXXXXXXXXXXX........................                        ................        ........XXXXXXXXXXXXXXXX",
"        ........XXXXXXXXXXXXXXXX........................                        ................        ........XXXXXXXXXXXXXXXX",
"        ........XXXXXXXXXXXXXXXX........................                        ................        ........XXXXXXXXXXXXXXXX",
"        ........XXXXXXXXXXXXXXXX........................                        ................        ........XXXXXXXXXXXXXXXX",
"        ........XXXXXXXXXXXXXXXX........................                        ................        ........XXXXXXXXXXXXXXXX",
"        ........XXXXXXXXXXXXXXXX........................                        ................        ........XXXXXXXXXXXXXXXX",
"........XXXXXXXXoooooooo........                                                ........                ................        ",
"........XXXXXXXXoooooooo........                                                ........                ................        ",
"........XXXXXXXXoooooooo........                                                ........                ................        ",
"........XXXXXXXXoooooooo........                                                ........                ................        ",
"........XXXXXXXXoooooooo........                                                ........                ................        ",
"........XXXXXXXXoooooooo........                                                ........                ................        ",
"........XXXXXXXXoooooooo........                                                ........                ................        ",
"........XXXXXXXXoooooooo........                                                ........                ................        ",
"........        XXXXXXXX                                ........                                        ........XXXXXXXX        ",
"........        XXXXXXXX                                ........                                        ........XXXXXXXX        ",
"........        XXXXXXXX                                ........                                        ........XXXXXXXX        ",
"........        XXXXXXXX                                ........                                        ........XXXXXXXX        ",
"........        XXXXXXXX                                ........                                        ........XXXXXXXX        ",
"........        XXXXXXXX                                ........                                        ........XXXXXXXX        ",
"........        XXXXXXXX                                ........                                        ........XXXXXXXX        ",
"........        XXXXXXXX                                ........                                        ........XXXXXXXX        ",
"        ........XXXXXXXXXXXXXXXX        ........XXXXXXXX                                                        ........        ",
"        ........XXXXXXXXXXXXXXXX        ........XXXXXXXX                                                        ........        ",
"        ........XXXXXXXXXXXXXXXX        ........XXXXXXXX                                                        ........        ",
"        ........XXXXXXXXXXXXXXXX        ........XXXXXXXX                                                        ........        ",
"        ........XXXXXXXXXXXXXXXX        ........XXXXXXXX                                                        ........        ",
"        ........XXXXXXXXXXXXXXXX        ........XXXXXXXX                                                        ........        ",
"        ........XXXXXXXXXXXXXXXX        ........XXXXXXXX                                                        ........        ",
"        ........XXXXXXXXXXXXXXXX        ........XXXXXXXX                                                        ........        ",
"        ........XXXXXXXX........                                        ........XXXXXXXX........                        ........",
"        ........XXXXXXXX........                                        ........XXXXXXXX........                        ........",
"        ........XXXXXXXX........                                        ........XXXXXXXX........                        ........",
"        ........XXXXXXXX........                                        ........XXXXXXXX........                        ........",
"        ........XXXXXXXX........                                        ........XXXXXXXX........                        ........",
"        ........XXXXXXXX........                                        ........XXXXXXXX........                        ........",
"        ........XXXXXXXX........                                        ........XXXXXXXX........                        ........",
"        ........XXXXXXXX........                                        ........XXXXXXXX........                        ........",
"........................XXXXXXXX                                ........                                        ................",
"........................XXXXXXXX                                ........                                        ................",
"........................XXXXXXXX                                ........                                        ................",
"........................XXXXXXXX                                ........                                        ................",
"........................XXXXXXXX                                ........                                        ................",
"........................XXXXXXXX                                ........                                        ................",
"........................XXXXXXXX                                ........                                        ................",
"........................XXXXXXXX                                ........                                        ................",
"................        XXXXXXXX........                                                                        ........XXXXXXXX",
"................        XXXXXXXX........                                                                        ........XXXXXXXX",
"................        XXXXXXXX........                                                                        ........XXXXXXXX",
"................        XXXXXXXX........                                                                        ........XXXXXXXX",
"................        XXXXXXXX........                                                                        ........XXXXXXXX",
"................        XXXXXXXX........                                                                        ........XXXXXXXX",
"................        XXXXXXXX........                                                                        ........XXXXXXXX",
"................        XXXXXXXX........                                                                        ........XXXXXXXX",
"........                ........oooooooo........                                                        ........XXXXXXXX........",
"........                ........oooooooo........                                                        ........XXXXXXXX........",
"........                ........oooooooo........                                                        ........XXXXXXXX........",
"........                ........oooooooo........                                                        ........XXXXXXXX........",
"........                ........oooooooo........                                                        ........XXXXXXXX........",
"........                ........oooooooo........                                                        ........XXXXXXXX........",
"........                ........oooooooo........                                                        ........XXXXXXXX........",
"........                ........oooooooo........                                                        ........XXXXXXXX........",
"                                ........XXXXXXXX........XXXXXXXX                                        XXXXXXXXXXXXXXXX        ",
"                                ........XXXXXXXX........XXXXXXXX                                        XXXXXXXXXXXXXXXX        ",
"                                ........XXXXXXXX........XXXXXXXX                                        XXXXXXXXXXXXXXXX        ",
"                                ........XXXXXXXX........XXXXXXXX                                        XXXXXXXXXXXXXXXX        ",
"                                ........XXXXXXXX........XXXXXXXX                                        XXXXXXXXXXXXXXXX        ",
"                                ........XXXXXXXX........XXXXXXXX                                        XXXXXXXXXXXXXXXX        ",
"                                ........XXXXXXXX........XXXXXXXX                                        XXXXXXXXXXXXXXXX        ",
"                                ........XXXXXXXX........XXXXXXXX                                        XXXXXXXXXXXXXXXX        ",
"                                ........        ................XXXXXXXX                        ................                ",
"                                ........        ................XXXXXXXX                        ................                ",
"                                ........        ................XXXXXXXX                        ................                ",
"                                ........        ................XXXXXXXX                        ................                ",
"                                ........        ................XXXXXXXX                        ................                ",
"                                ........        ................XXXXXXXX                        ................                ",
"                                ........        ................XXXXXXXX                        ................                ",
"                                ........        ................XXXXXXXX                        ................                ",
"                                                        ........XXXXXXXX........XXXXXXXX................XXXXXXXX                ",
"                                                        ........XXXXXXXX........XXXXXXXX................XXXXXXXX                ",
"                                                        ........XXXXXXXX........XXXXXXXX................XXXXXXXX                ",
"                                                        ........XXXXXXXX........XXXXXXXX................XXXXXXXX                ",
"                                                        ........XXXXXXXX........XXXXXXXX................XXXXXXXX                ",
"                                                        ........XXXXXXXX........XXXXXXXX................XXXXXXXX                ",
"                                                        ........XXXXXXXX........XXXXXXXX................XXXXXXXX                ",
"                                                        ........XXXXXXXX........XXXXXXXX................XXXXXXXX                ",
"                                        ........XXXXXXXX        ........XXXXXXXXXXXXXXXX........XXXXXXXX                        ",
"                                        ........XXXXXXXX        ........XXXXXXXXXXXXXXXX........XXXXXXXX                        ",
"                                        ........XXXXXXXX        ........XXXXXXXXXXXXXXXX........XXXXXXXX                        ",
"                                        ........XXXXXXXX        ........XXXXXXXXXXXXXXXX........XXXXXXXX                        ",
"                                        ........XXXXXXXX        ........XXXXXXXXXXXXXXXX........XXXXXXXX                        ",
"                                        ........XXXXXXXX        ........XXXXXXXXXXXXXXXX........XXXXXXXX                        ",
"                                        ........XXXXXXXX        ........XXXXXXXXXXXXXXXX........XXXXXXXX                        ",
"                                        ........XXXXXXXX        ........XXXXXXXXXXXXXXXX........XXXXXXXX                        ",
"                                        ........                        ........ooooooooXXXXXXXX........                        ",
"                                        ........                        ........ooooooooXXXXXXXX........                        ",
"                                        ........                        ........ooooooooXXXXXXXX........                        ",
"                                        ........                        ........ooooooooXXXXXXXX........                        ",
"                                        ........                        ........ooooooooXXXXXXXX........                        ",
"                                        ........                        ........ooooooooXXXXXXXX........                        ",
"                                        ........                        ........ooooooooXXXXXXXX........                        ",
"                                        ........                        ........ooooooooXXXXXXXX........                        ",
"                                ........                                ........XXXXXXXXXXXXXXXX........                        ",
"                                ........                                ........XXXXXXXXXXXXXXXX........                        ",
"                                ........                                ........XXXXXXXXXXXXXXXX........                        ",
"                                ........                                ........XXXXXXXXXXXXXXXX........                        ",
"                                ........                                ........XXXXXXXXXXXXXXXX........                        ",
"                                ........                                ........XXXXXXXXXXXXXXXX........                        ",
"                                ........                                ........XXXXXXXXXXXXXXXX........                        ",
"                                ........                                ........XXXXXXXXXXXXXXXX........                        "
};
