/* XPM */
static char *out[] = {
/* columns rows colors chars-per-pixel */
"128 128 4 1 ",
"  c #D6634A",
". c #ED8453",
"X c #F7B65F",
"o c #FFE169",
/* pixels */
"        ........                XXXXXXXXXXXXXXXXXXXXXXXX        XXXXXXXX........                                        ........",
"        ........                XXXXXXXXXXXXXXXXXXXXXXXX        XXXXXXXX........                                        ........",
"        ........                XXXXXXXXXXXXXXXXXXXXXXXX        XXXXXXXX........                                        ........",
"        ........                XXXXXXXXXXXXXXXXXXXXXXXX        XXXXXXXX........                                        ........",
"        ........                XXXXXXXXXXXXXXXXXXXXXXXX        XXXXXXXX........                                        ........",
"        ........                XXXXXXXXXXXXXXXXXXXXXXXX        XXXXXXXX........                                        ........",
"        ........                XXXXXXXXXXXXXXXXXXXXXXXX        XXXXXXXX........                                        ........",
"        ........                XXXXXXXXXXXXXXXXXXXXXXXX        XXXXXXXX........                                        ........",
"XXXXXXXX                        ........XXXXXXXX........XXXXXXXX........                                        ........        ",
"XXXXXXXX                        ........XXXXXXXX........XXXXXXXX........                                        ........        ",
"XXXXXXXX                        ........XXXXXXXX........XXXXXXXX........                                        ........        ",
"XXXXXXXX                        ........XXXXXXXX........XXXXXXXX........                                        ........        ",
"XXXXXXXX                        ........XXXXXXXX........XXXXXXXX........                                        ........        ",
"XXXXXXXX                        ........XXXXXXXX........XXXXXXXX........                                        ........        ",
"XXXXXXXX                        ........XXXXXXXX........XXXXXXXX........                                        ........        ",
"XXXXXXXX                        ........XXXXXXXX........XXXXXXXX........                                        ........        ",
"........                                ................XXXXXXXX........                                                        ",
"........                                ................XXXXXXXX........                                                        ",
"........                                ................XXXXXXXX........                                                        ",
"........                                ................XXXXXXXX........                                                        ",
"........                                ................XXXXXXXX........                                                        ",
"........                                ................XXXXXXXX........                                                        ",
"........                                ................XXXXXXXX........                                                        ",
"........                                ................XXXXXXXX........                                                        ",
"................                XXXXXXXX........        ........XXXXXXXX                                                ........",
"................                XXXXXXXX........        ........XXXXXXXX                                                ........",
"................                XXXXXXXX........        ........XXXXXXXX                                                ........",
"................                XXXXXXXX........        ........XXXXXXXX                                                ........",
"................                XXXXXXXX........        ........XXXXXXXX                                                ........",
"................                XXXXXXXX........        ........XXXXXXXX                                                ........",
"................                XXXXXXXX........        ........XXXXXXXX                                                ........",
"................                XXXXXXXX........        ........XXXXXXXX                                                ........",
"XXXXXXXX........        ................                        ................                                        ........",
"XXXXXXXX........        ................                        ................                                        ........",
"XXXXXXXX........        ................                        ................                                        ........",
"XXXXXXXX........        ................                        ................                                        ........",
"XXXXXXXX........        ................                        ................                                        ........",
"XXXXXXXX........        ................                        ................                                        ........",
"XXXXXXXX........        ................                        ................                                        ........",
"XXXXXXXX........        ................                        ................                                        ........",
"................................                                        XXXXXXXX........XXXXXXXX                ........XXXXXXXX",
"................................                                        XXXXXXXX........XXXXXXXX                ........XXXXXXXX",
"................................                                        XXXXXXXX........XXXXXXXX                ........XXXXXXXX",
"................................                                        XXXXXXXX........XXXXXXXX                ........XXXXXXXX",
"................................                                        XXXXXXXX........XXXXXXXX                ........XXXXXXXX",
"................................                                        XXXXXXXX........XXXXXXXX                ........XXXXXXXX",
"................................                                        XXXXXXXX........XXXXXXXX                ........XXXXXXXX",
"................................                                        XXXXXXXX........XXXXXXXX                ........XXXXXXXX",
"        ........                ........XXXXXXXX                        ........oooooooo........................                ",
"        ........                ........XXXXXXXX                        ........oooooooo........................                ",
"        ........                ........XXXXXXXX                        ........oooooooo........................                ",
"        ........                ........XXXXXXXX                        ........oooooooo........................                ",
"        ........                ........XXXXXXXX                        ........oooooooo........................                ",
"        ........                ........XXXXXXXX                        ........oooooooo........................                ",
"        ........                ........XXXXXXXX                        ........oooooooo........................                ",
"        ........                ........XXXXXXXX                        ........oooooooo........................                ",
"                                ........XXXXXXXXXXXXXXXX........                ........        XXXXXXXX................        ",
"                                ........XXXXXXXXXXXXXXXX........                ........        XXXXXXXX................        ",
"                                ........XXXXXXXXXXXXXXXX........                ........        XXXXXXXX................        ",
"                                ........XXXXXXXXXXXXXXXX........                ........        XXXXXXXX................        ",
"                                ........XXXXXXXXXXXXXXXX........                ........        XXXXXXXX................        ",
"                                ........XXXXXXXXXXXXXXXX........                ........        XXXXXXXX................        ",
"                                ........XXXXXXXXXXXXXXXX........                ........        XXXXXXXX................        ",
"                                ........XXXXXXXXXXXXXXXX........                ........        XXXXXXXX................        ",
"                        XXXXXXXX................ooooooooXXXXXXXXXXXXXXXX........                        ........XXXXXXXX........",
"                        XXXXXXXX................ooooooooXXXXXXXXXXXXXXXX........                        ........XXXXXXXX........",
"                        XXXXXXXX................ooooooooXXXXXXXXXXXXXXXX........                        ........XXXXXXXX........",
"                        XXXXXXXX................ooooooooXXXXXXXXXXXXXXXX........                        ........XXXXXXXX........",
"                        XXXXXXXX................ooooooooXXXXXXXXXXXXXXXX........                        ........XXXXXXXX........",
"                        XXXXXXXX................ooooooooXXXXXXXXXXXXXXXX........                        ........XXXXXXXX........",
"                        XXXXXXXX................ooooooooXXXXXXXXXXXXXXXX........                        ........XXXXXXXX........",
"                        XXXXXXXX................ooooooooXXXXXXXXXXXXXXXX........                        ........XXXXXXXX........",
"........XXXXXXXXoooooooo........XXXXXXXX........        XXXXXXXX........................                ................XXXXXXXX",
"........XXXXXXXXoooooooo........XXXXXXXX........        XXXXXXXX........................                ................XXXXXXXX",
"........XXXXXXXXoooooooo........XXXXXXXX........        XXXXXXXX........................                ................XXXXXXXX",
"........XXXXXXXXoooooooo........XXXXXXXX........        XXXXXXXX........................                ................XXXXXXXX",
"........XXXXXXXXoooooooo........XXXXXXXX........        XXXXXXXX........................                ................XXXXXXXX",
"........XXXXXXXXoooooooo........XXXXXXXX........        XXXXXXXX........................                ................XXXXXXXX",
"........XXXXXXXXoooooooo........XXXXXXXX........        XXXXXXXX........................                ................XXXXXXXX",
"........XXXXXXXXoooooooo........XXXXXXXX........        XXXXXXXX........................                ................XXXXXXXX",
"XXXXXXXXoooooooo        ................        ................                ................                ........XXXXXXXX",
"XXXXXXXXoooooooo        ................        ................                ................                ........XXXXXXXX",
"XXXXXXXXoooooooo        ................        ................                ................                ........XXXXXXXX",
"XXXXXXXXoooooooo        ................        ................                ................                ........XXXXXXXX",
"XXXXXXXXoooooooo        ................        ................                ................                ........XXXXXXXX",
"XXXXXXXXoooooooo        ................        ................                ................                ........XXXXXXXX",
"XXXXXXXXoooooooo        ................        ................                ................                ........XXXXXXXX",
"XXXXXXXXoooooooo        ................        ................                ................                ........XXXXXXXX",
"................................XXXXXXXX        ........                                                ........XXXXXXXXXXXXXXXX",
"................................XXXXXXXX        ........                                                ........XXXXXXXXXXXXXXXX",
"................................XXXXXXXX        ........                                                ........XXXXXXXXXXXXXXXX",
"................................XXXXXXXX        ........                                                ........XXXXXXXXXXXXXXXX",
"................................XXXXXXXX        ........                                                ........XXXXXXXXXXXXXXXX",
"................................XXXXXXXX        ........                                                ........XXXXXXXXXXXXXXXX",
"................................XXXXXXXX        ........                                                ........XXXXXXXXXXXXXXXX",
"................................XXXXXXXX        ........                                                ........XXXXXXXXXXXXXXXX",
"                ................                        ........                                        XXXXXXXXXXXXXXXX........",
"                ................                        ........                                        XXXXXXXXXXXXXXXX........",
"                ................                        ........                                        XXXXXXXXXXXXXXXX........",
"                ................                        ........                                        XXXXXXXXXXXXXXXX........",
"                ................                        ........                                        XXXXXXXXXXXXXXXX........",
"                ................                        ........                                        XXXXXXXXXXXXXXXX........",
"                ................                        ........                                        XXXXXXXXXXXXXXXX........",
"                ................                        ........                                        XXXXXXXXXXXXXXXX........",
"                        ................                                                        ........XXXXXXXXoooooooo        ",
"                        ................                                                        ........XXXXXXXXoooooooo        ",
"                        ................                                                        ........XXXXXXXXoooooooo        ",
"                        ................                                                        ........XXXXXXXXoooooooo        ",
"                        ................                                                        ........XXXXXXXXoooooooo        ",
"                        ................                                                        ........XXXXXXXXoooooooo        ",
"                        ................                                                        ........XXXXXXXXoooooooo        ",
"                        ................                                                        ........XXXXXXXXoooooooo        ",
"                        XXXXXXXXXXXXXXXX........                                XXXXXXXX........................XXXXXXXX        ",
"                        XXXXXXXXXXXXXXXX........                                XXXXXXXX........................XXXXXXXX        ",
"                        XXXXXXXXXXXXXXXX........                                XXXXXXXX........................XXXXXXXX        ",
"                        XXXXXXXXXXXXXXXX........                                XXXXXXXX........................XXXXXXXX        ",
"                        XXXXXXXXXXXXXXXX........                                XXXXXXXX........................XXXXXXXX        ",
"                        XXXXXXXXXXXXXXXX........                                XXXXXXXX........................XXXXXXXX        ",
"                        XXXXXXXXXXXXXXXX........                                XXXXXXXX........................XXXXXXXX        ",
"                        XXXXXXXXXXXXXXXX........                                XXXXXXXX........................XXXXXXXX        ",
"                ................XXXXXXXXoooooooo                ooooooooXXXXXXXX................                ........        ",
"                ................XXXXXXXXoooooooo                ooooooooXXXXXXXX................                ........        ",
"                ................XXXXXXXXoooooooo                ooooooooXXXXXXXX................                ........        ",
"                ................XXXXXXXXoooooooo                ooooooooXXXXXXXX................                ........        ",
"                ................XXXXXXXXoooooooo                ooooooooXXXXXXXX................                ........        ",
"                ................XXXXXXXXoooooooo                ooooooooXXXXXXXX................                ........        ",
"                ................XXXXXXXXoooooooo                ooooooooXXXXXXXX................                ........        ",
"                ................XXXXXXXXoooooooo                ooooooooXXXXXXXX................                ........        "
};
