/* XPM */
static char *out[] = {
/* columns rows colors chars-per-pixel */
"128 128 4 1 ",
"  c #D6634A",
". c #ED8453",
"X c #F7B65F",
"o c #FFE169",
/* pixels */
"................        ........                                        ................        XXXXXXXX                XXXXXXXX",
"................        ........                                        ................        XXXXXXXX                XXXXXXXX",
"................        ........                                        ................        XXXXXXXX                XXXXXXXX",
"................        ........                                        ................        XXXXXXXX                XXXXXXXX",
"................        ........                                        ................        XXXXXXXX                XXXXXXXX",
"................        ........                                        ................        XXXXXXXX                XXXXXXXX",
"................        ........                                        ................        XXXXXXXX                XXXXXXXX",
"................        ........                                        ................        XXXXXXXX                XXXXXXXX",
"................                                                ........XXXXXXXX........XXXXXXXX        XXXXXXXX        ........",
"................                                                ........XXXXXXXX........XXXXXXXX        XXXXXXXX        ........",
"................                                                ........XXXXXXXX........XXXXXXXX        XXXXXXXX        ........",
"................                                                ........XXXXXXXX........XXXXXXXX        XXXXXXXX        ........",
"................                                                ........XXXXXXXX........XXXXXXXX        XXXXXXXX        ........",
"................                                                ........XXXXXXXX........XXXXXXXX        XXXXXXXX        ........",
"................                                                ........XXXXXXXX........XXXXXXXX        XXXXXXXX        ........",
"................                                                ........XXXXXXXX........XXXXXXXX        XXXXXXXX        ........",
"........XXXXXXXX                ........        ................................XXXXXXXXXXXXXXXX        XXXXXXXX........        ",
"........XXXXXXXX                ........        ................................XXXXXXXXXXXXXXXX        XXXXXXXX........        ",
"........XXXXXXXX                ........        ................................XXXXXXXXXXXXXXXX        XXXXXXXX........        ",
"........XXXXXXXX                ........        ................................XXXXXXXXXXXXXXXX        XXXXXXXX........        ",
"........XXXXXXXX                ........        ................................XXXXXXXXXXXXXXXX        XXXXXXXX........        ",
"........XXXXXXXX                ........        ................................XXXXXXXXXXXXXXXX        XXXXXXXX........        ",
"........XXXXXXXX                ........        ................................XXXXXXXXXXXXXXXX        XXXXXXXX........        ",
"........XXXXXXXX                ........        ................................XXXXXXXXXXXXXXXX        XXXXXXXX........        ",
"        ................                ........XXXXXXXX        ................XXXXXXXXooooooooXXXXXXXX........XXXXXXXXXXXXXXXX",
"        ................                ........XXXXXXXX        ................XXXXXXXXooooooooXXXXXXXX........XXXXXXXXXXXXXXXX",
"        ................                ........XXXXXXXX        ................XXXXXXXXooooooooXXXXXXXX........XXXXXXXXXXXXXXXX",
"        ................                ........XXXXXXXX        ................XXXXXXXXooooooooXXXXXXXX........XXXXXXXXXXXXXXXX",
"        ................                ........XXXXXXXX        ................XXXXXXXXooooooooXXXXXXXX........XXXXXXXXXXXXXXXX",
"        ................                ........XXXXXXXX        ................XXXXXXXXooooooooXXXXXXXX........XXXXXXXXXXXXXXXX",
"        ................                ........XXXXXXXX        ................XXXXXXXXooooooooXXXXXXXX........XXXXXXXXXXXXXXXX",
"        ................                ........XXXXXXXX        ................XXXXXXXXooooooooXXXXXXXX........XXXXXXXXXXXXXXXX",
"        ........                        ........                        ........XXXXXXXXXXXXXXXX........................XXXXXXXX",
"        ........                        ........                        ........XXXXXXXXXXXXXXXX........................XXXXXXXX",
"        ........                        ........                        ........XXXXXXXXXXXXXXXX........................XXXXXXXX",
"        ........                        ........                        ........XXXXXXXXXXXXXXXX........................XXXXXXXX",
"        ........                        ........                        ........XXXXXXXXXXXXXXXX........................XXXXXXXX",
"        ........                        ........                        ........XXXXXXXXXXXXXXXX........................XXXXXXXX",
"        ........                        ........                        ........XXXXXXXXXXXXXXXX........................XXXXXXXX",
"        ........                        ........                        ........XXXXXXXXXXXXXXXX........................XXXXXXXX",
"XXXXXXXX........XXXXXXXX        ................                XXXXXXXXXXXXXXXX........                ........XXXXXXXXXXXXXXXX",
"XXXXXXXX........XXXXXXXX        ................                XXXXXXXXXXXXXXXX........                ........XXXXXXXXXXXXXXXX",
"XXXXXXXX........XXXXXXXX        ................                XXXXXXXXXXXXXXXX........                ........XXXXXXXXXXXXXXXX",
"XXXXXXXX........XXXXXXXX        ................                XXXXXXXXXXXXXXXX........                ........XXXXXXXXXXXXXXXX",
"XXXXXXXX........XXXXXXXX        ................                XXXXXXXXXXXXXXXX........                ........XXXXXXXXXXXXXXXX",
"XXXXXXXX........XXXXXXXX        ................                XXXXXXXXXXXXXXXX........                ........XXXXXXXXXXXXXXXX",
"XXXXXXXX........XXXXXXXX        ................                XXXXXXXXXXXXXXXX........                ........XXXXXXXXXXXXXXXX",
"XXXXXXXX........XXXXXXXX        ................                XXXXXXXXXXXXXXXX........                ........XXXXXXXXXXXXXXXX",
"ooooooooXXXXXXXX                                        ................XXXXXXXX                                ........XXXXXXXX",
"ooooooooXXXXXXXX                                        ................XXXXXXXX                                ........XXXXXXXX",
"ooooooooXXXXXXXX                                        ................XXXXXXXX                                ........XXXXXXXX",
"ooooooooXXXXXXXX                                        ................XXXXXXXX                                ........XXXXXXXX",
"ooooooooXXXXXXXX                                        ................XXXXXXXX                                ........XXXXXXXX",
"ooooooooXXXXXXXX                                        ................XXXXXXXX                                ........XXXXXXXX",
"ooooooooXXXXXXXX                                        ................XXXXXXXX                                ........XXXXXXXX",
"ooooooooXXXXXXXX                                        ................XXXXXXXX                                ........XXXXXXXX",
"XXXXXXXX........                XXXXXXXX                        XXXXXXXX                                                XXXXXXXX",
"XXXXXXXX........                XXXXXXXX                        XXXXXXXX                                                XXXXXXXX",
"XXXXXXXX........                XXXXXXXX                        XXXXXXXX                                                XXXXXXXX",
"XXXXXXXX........                XXXXXXXX                        XXXXXXXX                                                XXXXXXXX",
"XXXXXXXX........                XXXXXXXX                        XXXXXXXX                                                XXXXXXXX",
"XXXXXXXX........                XXXXXXXX                        XXXXXXXX                                                XXXXXXXX",
"XXXXXXXX........                XXXXXXXX                        XXXXXXXX                                                XXXXXXXX",
"XXXXXXXX........                XXXXXXXX                        XXXXXXXX                                                XXXXXXXX",
"XXXXXXXX                ................XXXXXXXX        XXXXXXXXXXXXXXXXXXXXXXXX                                ................",
"XXXXXXXX                ................XXXXXXXX        XXXXXXXXXXXXXXXXXXXXXXXX                                ................",
"XXXXXXXX                ................XXXXXXXX        XXXXXXXXXXXXXXXXXXXXXXXX                                ................",
"XXXXXXXX                ................XXXXXXXX        XXXXXXXXXXXXXXXXXXXXXXXX                                ................",
"XXXXXXXX                ................XXXXXXXX        XXXXXXXXXXXXXXXXXXXXXXXX                                ................",
"XXXXXXXX                ................XXXXXXXX        XXXXXXXXXXXXXXXXXXXXXXXX                                ................",
"XXXXXXXX                ................XXXXXXXX        XXXXXXXXXXXXXXXXXXXXXXXX                                ................",
"XXXXXXXX                ................XXXXXXXX        XXXXXXXXXXXXXXXXXXXXXXXX                                ................",
"                                ........                ........                XXXXXXXXXXXXXXXX................XXXXXXXX        ",
"                                ........                ........                XXXXXXXXXXXXXXXX................XXXXXXXX        ",
"                                ........                ........                XXXXXXXXXXXXXXXX................XXXXXXXX        ",
"                                ........                ........                XXXXXXXXXXXXXXXX................XXXXXXXX        ",
"                                ........                ........                XXXXXXXXXXXXXXXX................XXXXXXXX        ",
"                                ........                ........                XXXXXXXXXXXXXXXX................XXXXXXXX        ",
"                                ........                ........                XXXXXXXXXXXXXXXX................XXXXXXXX        ",
"                                ........                ........                XXXXXXXXXXXXXXXX................XXXXXXXX        ",
"                                XXXXXXXX........                                ................        XXXXXXXX                ",
"                                XXXXXXXX........                                ................        XXXXXXXX                ",
"                                XXXXXXXX........                                ................        XXXXXXXX                ",
"                                XXXXXXXX........                                ................        XXXXXXXX                ",
"                                XXXXXXXX........                                ................        XXXXXXXX                ",
"                                XXXXXXXX........                                ................        XXXXXXXX                ",
"                                XXXXXXXX........                                ................        XXXXXXXX                ",
"                                XXXXXXXX........                                ................        XXXXXXXX                ",
"                        ................                                                ................ooooooooXXXXXXXX        ",
"                        ................                                                ................ooooooooXXXXXXXX        ",
"                        ................                                                ................ooooooooXXXXXXXX        ",
"                        ................                                                ................ooooooooXXXXXXXX        ",
"                        ................                                                ................ooooooooXXXXXXXX        ",
"                        ................                                                ................ooooooooXXXXXXXX        ",
"                        ................                                                ................ooooooooXXXXXXXX        ",
"                        ................                                                ................ooooooooXXXXXXXX        ",
"................                                                                        ........ooooooooXXXXXXXX        ........",
"................                                                                        ........ooooooooXXXXXXXX        ........",
"................                                                                        ........ooooooooXXXXXXXX        ........",
"................                                                                        ........ooooooooXXXXXXXX        ........",
"................                                                                        ........ooooooooXXXXXXXX        ........",
"................                                                                        ........ooooooooXXXXXXXX        ........",
"................                                                                        ........ooooooooXXXXXXXX        ........",
"................                                                                        ........ooooooooXXXXXXXX        ........",
"........XXXXXXXX........                                                                        ........XXXXXXXX................",
"........XXXXXXXX........                                                                        ........XXXXXXXX................",
"........XXXXXXXX........                                                                        ........XXXXXXXX................",
"........XXXXXXXX........                                                                        ........XXXXXXXX................",
"........XXXXXXXX........                                                                        ........XXXXXXXX................",
"........XXXXXXXX........                                                                        ........XXXXXXXX................",
"........XXXXXXXX........                                                                        ........XXXXXXXX................",
"........XXXXXXXX........                                                                        ........XXXXXXXX................",
"oooooooo................                                                                                        XXXXXXXX        ",
"oooooooo................                                                                                        XXXXXXXX        ",
"oooooooo................                                                                                        XXXXXXXX        ",
"oooooooo................                                                                                        XXXXXXXX        ",
"oooooooo................                                                                                        XXXXXXXX        ",
"oooooooo................                                                                                        XXXXXXXX        ",
"oooooooo................                                                                                        XXXXXXXX        ",
"oooooooo................                                                                                        XXXXXXXX        ",
"XXXXXXXX................                                                ........                                                ",
"XXXXXXXX................                                                ........                                                ",
"XXXXXXXX................                                                ........                                                ",
"XXXXXXXX................                                                ........                                                ",
"XXXXXXXX................                                                ........                                                ",
"XXXXXXXX................                                                ........                                                ",
"XXXXXXXX................                                                ........                                                ",
"XXXXXXXX................                                                ........                                                "
};
