/* XPM */
static char *out[] = {
/* columns rows colors chars-per-pixel */
"128 128 4 1 ",
"  c #D6634A",
". c #ED8453",
"X c #F7B65F",
"o c #FFE169",
/* pixels */
"        XXXXXXXX........        ........XXXXXXXX................        ................XXXXXXXXXXXXXXXX........XXXXXXXX........",
"        XXXXXXXX........        ........XXXXXXXX................        ................XXXXXXXXXXXXXXXX........XXXXXXXX........",
"        XXXXXXXX........        ........XXXXXXXX................        ................XXXXXXXXXXXXXXXX........XXXXXXXX........",
"        XXXXXXXX........        ........XXXXXXXX................        ................XXXXXXXXXXXXXXXX........XXXXXXXX........",
"        XXXXXXXX........        ........XXXXXXXX................        ................XXXXXXXXXXXXXXXX........XXXXXXXX........",
"        XXXXXXXX........        ........XXXXXXXX................        ................XXXXXXXXXXXXXXXX........XXXXXXXX........",
"        XXXXXXXX........        ........XXXXXXXX................        ................XXXXXXXXXXXXXXXX........XXXXXXXX........",
"        XXXXXXXX........        ........XXXXXXXX................        ................XXXXXXXXXXXXXXXX........XXXXXXXX........",
"........................XXXXXXXX................XXXXXXXXoooooooo........        ........XXXXXXXXoooooooo........                ",
"........................XXXXXXXX................XXXXXXXXoooooooo........        ........XXXXXXXXoooooooo........                ",
"........................XXXXXXXX................XXXXXXXXoooooooo........        ........XXXXXXXXoooooooo........                ",
"........................XXXXXXXX................XXXXXXXXoooooooo........        ........XXXXXXXXoooooooo........                ",
"........................XXXXXXXX................XXXXXXXXoooooooo........        ........XXXXXXXXoooooooo........                ",
"........................XXXXXXXX................XXXXXXXXoooooooo........        ........XXXXXXXXoooooooo........                ",
"........................XXXXXXXX................XXXXXXXXoooooooo........        ........XXXXXXXXoooooooo........                ",
"........................XXXXXXXX................XXXXXXXXoooooooo........        ........XXXXXXXXoooooooo........                ",
"        XXXXXXXX................XXXXXXXX........        XXXXXXXX................XXXXXXXX........                                ",
"        XXXXXXXX................XXXXXXXX........        XXXXXXXX................XXXXXXXX........                                ",
"        XXXXXXXX................XXXXXXXX........        XXXXXXXX................XXXXXXXX........                                ",
"        XXXXXXXX................XXXXXXXX........        XXXXXXXX................XXXXXXXX........                                ",
"        XXXXXXXX................XXXXXXXX........        XXXXXXXX................XXXXXXXX........                                ",
"        XXXXXXXX................XXXXXXXX........        XXXXXXXX................XXXXXXXX........                                ",
"        XXXXXXXX................XXXXXXXX........        XXXXXXXX................XXXXXXXX........                                ",
"        XXXXXXXX................XXXXXXXX........        XXXXXXXX................XXXXXXXX........                                ",
"XXXXXXXX........                XXXXXXXXooooooooXXXXXXXX........        ................                                        ",
"XXXXXXXX........                XXXXXXXXooooooooXXXXXXXX........        ................                                        ",
"XXXXXXXX........                XXXXXXXXooooooooXXXXXXXX........        ................                                        ",
"XXXXXXXX........                XXXXXXXXooooooooXXXXXXXX........        ................                                        ",
"XXXXXXXX........                XXXXXXXXooooooooXXXXXXXX........        ................                                        ",
"XXXXXXXX........                XXXXXXXXooooooooXXXXXXXX........        ................                                        ",
"XXXXXXXX........                XXXXXXXXooooooooXXXXXXXX........        ................                                        ",
"XXXXXXXX........                XXXXXXXXooooooooXXXXXXXX........        ................                                        ",
"........                        ........XXXXXXXXXXXXXXXX........                                                                ",
"........                        ........XXXXXXXXXXXXXXXX........                                                                ",
"........                        ........XXXXXXXXXXXXXXXX........                                                                ",
"........                        ........XXXXXXXXXXXXXXXX........                                                                ",
"........                        ........XXXXXXXXXXXXXXXX........                                                                ",
"........                        ........XXXXXXXXXXXXXXXX........                                                                ",
"........                        ........XXXXXXXXXXXXXXXX........                                                                ",
"........                        ........XXXXXXXXXXXXXXXX........                                                                ",
"                                        ................XXXXXXXX........                                ........        ........",
"                                        ................XXXXXXXX........                                ........        ........",
"                                        ................XXXXXXXX........                                ........        ........",
"                                        ................XXXXXXXX........                                ........        ........",
"                                        ................XXXXXXXX........                                ........        ........",
"                                        ................XXXXXXXX........                                ........        ........",
"                                        ................XXXXXXXX........                                ........        ........",
"                                        ................XXXXXXXX........                                ........        ........",
"                                        ........                ........................                        ........        ",
"                                        ........                ........................                        ........        ",
"                                        ........                ........................                        ........        ",
"                                        ........                ........................                        ........        ",
"                                        ........                ........................                        ........        ",
"                                        ........                ........................                        ........        ",
"                                        ........                ........................                        ........        ",
"                                        ........                ........................                        ........        ",
"                                                                        ........XXXXXXXX                        ........        ",
"                                                                        ........XXXXXXXX                        ........        ",
"                                                                        ........XXXXXXXX                        ........        ",
"                                                                        ........XXXXXXXX                        ........        ",
"                                                                        ........XXXXXXXX                        ........        ",
"                                                                        ........XXXXXXXX                        ........        ",
"                                                                        ........XXXXXXXX                        ........        ",
"                                                                        ........XXXXXXXX                        ........        ",
"        ........                ........                                ........                ........XXXXXXXX................",
"        ........                ........                                ........                ........XXXXXXXX................",
"        ........                ........                                ........                ........XXXXXXXX................",
"        ........                ........                                ........                ........XXXXXXXX................",
"        ........                ........                                ........                ........XXXXXXXX................",
"        ........                ........                                ........                ........XXXXXXXX................",
"        ........                ........                                ........                ........XXXXXXXX................",
"        ........                ........                                ........                ........XXXXXXXX................",
"oooooooo........................                                                                                ................",
"oooooooo........................                                                                                ................",
"oooooooo........................                                                                                ................",
"oooooooo........................                                                                                ................",
"oooooooo........................                                                                                ................",
"oooooooo........................                                                                                ................",
"oooooooo........................                                                                                ................",
"oooooooo........................                                                                                ................",
"........XXXXXXXX........                                                                                        ........        ",
"........XXXXXXXX........                                                                                        ........        ",
"........XXXXXXXX........                                                                                        ........        ",
"........XXXXXXXX........                                                                                        ........        ",
"........XXXXXXXX........                                                                                        ........        ",
"........XXXXXXXX........                                                                                        ........        ",
"........XXXXXXXX........                                                                                        ........        ",
"........XXXXXXXX........                                                                                        ........        ",
"........XXXXXXXX........                                                ................                ........................",
"........XXXXXXXX........                                                ................                ........................",
"........XXXXXXXX........                                                ................                ........................",
"........XXXXXXXX........                                                ................                ........................",
"........XXXXXXXX........                                                ................                ........................",
"........XXXXXXXX........                                                ................                ........................",
"........XXXXXXXX........                                                ................                ........................",
"........XXXXXXXX........                                                ................                ........................",
"........................                                                        ........XXXXXXXX                ........XXXXXXXX",
"........................                                                        ........XXXXXXXX                ........XXXXXXXX",
"........................                                                        ........XXXXXXXX                ........XXXXXXXX",
"........................                                                        ........XXXXXXXX                ........XXXXXXXX",
"........................                                                        ........XXXXXXXX                ........XXXXXXXX",
"........................                                                        ........XXXXXXXX                ........XXXXXXXX",
"........................                                                        ........XXXXXXXX                ........XXXXXXXX",
"........................                                                        ........XXXXXXXX                ........XXXXXXXX",
"XXXXXXXX........                                                                        ................                ........",
"XXXXXXXX........                                                                        ................                ........",
"XXXXXXXX........                                                                        ................                ........",
"XXXXXXXX........                                                                        ................                ........",
"XXXXXXXX........                                                                        ................                ........",
"XXXXXXXX........                                                                        ................                ........",
"XXXXXXXX........                                                                        ................                ........",
"XXXXXXXX........                                                                        ................                ........",
"XXXXXXXX........                                ........                                ........XXXXXXXX........        XXXXXXXX",
"XXXXXXXX........                                ........                                ........XXXXXXXX........        XXXXXXXX",
"XXXXXXXX........                                ........                                ........XXXXXXXX........        XXXXXXXX",
"XXXXXXXX........                                ........                                ........XXXXXXXX........        XXXXXXXX",
"XXXXXXXX........                                ........                                ........XXXXXXXX........        XXXXXXXX",
"XXXXXXXX........                                ........                                ........XXXXXXXX........        XXXXXXXX",
"XXXXXXXX........                                ........                                ........XXXXXXXX........        XXXXXXXX",
"XXXXXXXX........                                ........                                ........XXXXXXXX........        XXXXXXXX",
"........        ................                        ........                XXXXXXXX................        ........XXXXXXXX",
"........        ................                        ........                XXXXXXXX................        ........XXXXXXXX",
"........        ................                        ........                XXXXXXXX................        ........XXXXXXXX",
"........        ................                        ........                XXXXXXXX................        ........XXXXXXXX",
"........        ................                        ........                XXXXXXXX................        ........XXXXXXXX",
"........        ................                        ........                XXXXXXXX................        ........XXXXXXXX",
"........        ................                        ........                XXXXXXXX................        ........XXXXXXXX",
"........        ................                        ........                XXXXXXXX................        ........XXXXXXXX"
};
