/* XPM */
static char *out[] = {
/* columns rows colors chars-per-pixel */
"128 128 4 1 ",
"  c #D6634A",
". c #ED8453",
"X c #F7B65F",
"o c #FFE169",
/* pixels */
"                                ........                                ........XXXXXXXX........                                ",
"                                ........                                ........XXXXXXXX........                                ",
"                                ........                                ........XXXXXXXX........                                ",
"                                ........                                ........XXXXXXXX........                                ",
"                                ........                                ........XXXXXXXX........                                ",
"                                ........                                ........XXXXXXXX........                                ",
"                                ........                                ........XXXXXXXX........                                ",
"                                ........                                ........XXXXXXXX........                                ",
"                        ................                                        XXXXXXXX        ........                        ",
"                        ................                                        XXXXXXXX        ........                        ",
"                        ................                                        XXXXXXXX        ........                        ",
"                        ................                                        XXXXXXXX        ........                        ",
"                        ................                                        XXXXXXXX        ........                        ",
"                        ................                                        XXXXXXXX        ........                        ",
"                        ................                                        XXXXXXXX        ........                        ",
"                        ................                                        XXXXXXXX        ........                        ",
"                XXXXXXXX........        ................                        XXXXXXXXXXXXXXXX................                ",
"                XXXXXXXX........        ................                        XXXXXXXXXXXXXXXX................                ",
"                XXXXXXXX........        ................                        XXXXXXXXXXXXXXXX................                ",
"                XXXXXXXX........        ................                        XXXXXXXXXXXXXXXX................                ",
"                XXXXXXXX........        ................                        XXXXXXXXXXXXXXXX................                ",
"                XXXXXXXX........        ................                        XXXXXXXXXXXXXXXX................                ",
"                XXXXXXXX........        ................                        XXXXXXXXXXXXXXXX................                ",
"                XXXXXXXX........        ................                        XXXXXXXXXXXXXXXX................                ",
"........        ................................        ........        ........ooooooooXXXXXXXXXXXXXXXX........................",
"........        ................................        ........        ........ooooooooXXXXXXXXXXXXXXXX........................",
"........        ................................        ........        ........ooooooooXXXXXXXXXXXXXXXX........................",
"........        ................................        ........        ........ooooooooXXXXXXXXXXXXXXXX........................",
"........        ................................        ........        ........ooooooooXXXXXXXXXXXXXXXX........................",
"........        ................................        ........        ........ooooooooXXXXXXXXXXXXXXXX........................",
"........        ................................        ........        ........ooooooooXXXXXXXXXXXXXXXX........................",
"........        ................................        ........        ........ooooooooXXXXXXXXXXXXXXXX........................",
"........        ................XXXXXXXX                ........                        ........XXXXXXXX        XXXXXXXXXXXXXXXX",
"........        ................XXXXXXXX                ........                        ........XXXXXXXX        XXXXXXXXXXXXXXXX",
"........        ................XXXXXXXX                ........                        ........XXXXXXXX        XXXXXXXXXXXXXXXX",
"........        ................XXXXXXXX                ........                        ........XXXXXXXX        XXXXXXXXXXXXXXXX",
"........        ................XXXXXXXX                ........                        ........XXXXXXXX        XXXXXXXXXXXXXXXX",
"........        ................XXXXXXXX                ........                        ........XXXXXXXX        XXXXXXXXXXXXXXXX",
"........        ................XXXXXXXX                ........                        ........XXXXXXXX        XXXXXXXXXXXXXXXX",
"........        ................XXXXXXXX                ........                        ........XXXXXXXX        XXXXXXXXXXXXXXXX",
"oooooooo........XXXXXXXX                                                                XXXXXXXX........                ........",
"oooooooo........XXXXXXXX                                                                XXXXXXXX........                ........",
"oooooooo........XXXXXXXX                                                                XXXXXXXX........                ........",
"oooooooo........XXXXXXXX                                                                XXXXXXXX........                ........",
"oooooooo........XXXXXXXX                                                                XXXXXXXX........                ........",
"oooooooo........XXXXXXXX                                                                XXXXXXXX........                ........",
"oooooooo........XXXXXXXX                                                                XXXXXXXX........                ........",
"oooooooo........XXXXXXXX                                                                XXXXXXXX........                ........",
"........................                                                        ........XXXXXXXX                                ",
"........................                                                        ........XXXXXXXX                                ",
"........................                                                        ........XXXXXXXX                                ",
"........................                                                        ........XXXXXXXX                                ",
"........................                                                        ........XXXXXXXX                                ",
"........................                                                        ........XXXXXXXX                                ",
"........................                                                        ........XXXXXXXX                                ",
"........................                                                        ........XXXXXXXX                                ",
"........ooooooooXXXXXXXX........                                        XXXXXXXX                                                ",
"........ooooooooXXXXXXXX........                                        XXXXXXXX                                                ",
"........ooooooooXXXXXXXX........                                        XXXXXXXX                                                ",
"........ooooooooXXXXXXXX........                                        XXXXXXXX                                                ",
"........ooooooooXXXXXXXX........                                        XXXXXXXX                                                ",
"........ooooooooXXXXXXXX........                                        XXXXXXXX                                                ",
"........ooooooooXXXXXXXX........                                        XXXXXXXX                                                ",
"........ooooooooXXXXXXXX........                                        XXXXXXXX                                                ",
"................XXXXXXXXXXXXXXXX                                                        ........                                ",
"................XXXXXXXXXXXXXXXX                                                        ........                                ",
"................XXXXXXXXXXXXXXXX                                                        ........                                ",
"................XXXXXXXXXXXXXXXX                                                        ........                                ",
"................XXXXXXXXXXXXXXXX                                                        ........                                ",
"................XXXXXXXXXXXXXXXX                                                        ........                                ",
"................XXXXXXXXXXXXXXXX                                                        ........                                ",
"................XXXXXXXXXXXXXXXX                                                        ........                                ",
"................XXXXXXXX........                                                                                        XXXXXXXX",
"................XXXXXXXX........                                                                                        XXXXXXXX",
"................XXXXXXXX........                                                                                        XXXXXXXX",
"................XXXXXXXX........                                                                                        XXXXXXXX",
"................XXXXXXXX........                                                                                        XXXXXXXX",
"................XXXXXXXX........                                                                                        XXXXXXXX",
"................XXXXXXXX........                                                                                        XXXXXXXX",
"................XXXXXXXX........                                                                                        XXXXXXXX",
"                ................XXXXXXXX        ........                                ........        ooooooooXXXXXXXX........",
"                ................XXXXXXXX        ........                                ........        ooooooooXXXXXXXX........",
"                ................XXXXXXXX        ........                                ........        ooooooooXXXXXXXX........",
"                ................XXXXXXXX        ........                                ........        ooooooooXXXXXXXX........",
"                ................XXXXXXXX        ........                                ........        ooooooooXXXXXXXX........",
"                ................XXXXXXXX        ........                                ........        ooooooooXXXXXXXX........",
"                ................XXXXXXXX        ........                                ........        ooooooooXXXXXXXX........",
"                ................XXXXXXXX        ........                                ........        ooooooooXXXXXXXX........",
"                        ................XXXXXXXXXXXXXXXX........                XXXXXXXX................XXXXXXXX........        ",
"                        ................XXXXXXXXXXXXXXXX........                XXXXXXXX................XXXXXXXX........        ",
"                        ................XXXXXXXXXXXXXXXX........                XXXXXXXX................XXXXXXXX........        ",
"                        ................XXXXXXXXXXXXXXXX........                XXXXXXXX................XXXXXXXX........        ",
"                        ................XXXXXXXXXXXXXXXX........                XXXXXXXX................XXXXXXXX........        ",
"                        ................XXXXXXXXXXXXXXXX........                XXXXXXXX................XXXXXXXX........        ",
"                        ................XXXXXXXXXXXXXXXX........                XXXXXXXX................XXXXXXXX........        ",
"                        ................XXXXXXXXXXXXXXXX........                XXXXXXXX................XXXXXXXX........        ",
"                                ........        ........oooooooo........        ........        XXXXXXXX........                ",
"                                ........        ........oooooooo........        ........        XXXXXXXX........                ",
"                                ........        ........oooooooo........        ........        XXXXXXXX........                ",
"                                ........        ........oooooooo........        ........        XXXXXXXX........                ",
"                                ........        ........oooooooo........        ........        XXXXXXXX........                ",
"                                ........        ........oooooooo........        ........        XXXXXXXX........                ",
"                                ........        ........oooooooo........        ........        XXXXXXXX........                ",
"                                ........        ........oooooooo........        ........        XXXXXXXX........                ",
"                                        ........        XXXXXXXX................        ................                        ",
"                                        ........        XXXXXXXX................        ................                        ",
"                                        ........        XXXXXXXX................        ................                        ",
"                                        ........        XXXXXXXX................        ................                        ",
"                                        ........        XXXXXXXX................        ................                        ",
"                                        ........        XXXXXXXX................        ................                        ",
"                                        ........        XXXXXXXX................        ................                        ",
"                                        ........        XXXXXXXX................        ................                        ",
"                                        ........                ........XXXXXXXX................                                ",
"                                        ........                ........XXXXXXXX................                                ",
"                                        ........                ........XXXXXXXX................                                ",
"                                        ........                ........XXXXXXXX................                                ",
"                                        ........                ........XXXXXXXX................                                ",
"                                        ........                ........XXXXXXXX................                                ",
"                                        ........                ........XXXXXXXX................                                ",
"                                        ........                ........XXXXXXXX................                                ",
"                                ........                        ........XXXXXXXX........XXXXXXXX                                ",
"                                ........                        ........XXXXXXXX........XXXXXXXX                                ",
"                                ........                        ........XXXXXXXX........XXXXXXXX                                ",
"                                ........                        ........XXXXXXXX........XXXXXXXX                                ",
"                                ........                        ........XXXXXXXX........XXXXXXXX                                ",
"                                ........                        ........XXXXXXXX........XXXXXXXX                                ",
"                                ........                        ........XXXXXXXX........XXXXXXXX                                ",
"                                ........                        ........XXXXXXXX........XXXXXXXX                                "
};
