/* XPM */
static char *out[] = {
/* columns rows colors chars-per-pixel */
"128 128 4 1 ",
"  c #D6634A",
". c #ED8453",
"X c #F7B65F",
"o c #FFE169",
/* pixels */
"                        ................                        ........                                oooooooo........        ",
"                        ................                        ........                                oooooooo........        ",
"                        ................                        ........                                oooooooo........        ",
"                        ................                        ........                                oooooooo........        ",
"                        ................                        ........                                oooooooo........        ",
"                        ................                        ........                                oooooooo........        ",
"                        ................                        ........                                oooooooo........        ",
"                        ................                        ........                                oooooooo........        ",
"........                XXXXXXXX........XXXXXXXX                                                ........        ................",
"........                XXXXXXXX........XXXXXXXX                                                ........        ................",
"........                XXXXXXXX........XXXXXXXX                                                ........        ................",
"........                XXXXXXXX........XXXXXXXX                                                ........        ................",
"........                XXXXXXXX........XXXXXXXX                                                ........        ................",
"........                XXXXXXXX........XXXXXXXX                                                ........        ................",
"........                XXXXXXXX........XXXXXXXX                                                ........        ................",
"........                XXXXXXXX........XXXXXXXX                                                ........        ................",
"XXXXXXXX........XXXXXXXX                        ........                                ........                ................",
"XXXXXXXX........XXXXXXXX                        ........                                ........                ................",
"XXXXXXXX........XXXXXXXX                        ........                                ........                ................",
"XXXXXXXX........XXXXXXXX                        ........                                ........                ................",
"XXXXXXXX........XXXXXXXX                        ........                                ........                ................",
"XXXXXXXX........XXXXXXXX                        ........                                ........                ................",
"XXXXXXXX........XXXXXXXX                        ........                                ........                ................",
"XXXXXXXX........XXXXXXXX                        ........                                ........                ................",
"........XXXXXXXX                                        XXXXXXXX                                        ........        ........",
"........XXXXXXXX                                        XXXXXXXX                                        ........        ........",
"........XXXXXXXX                                        XXXXXXXX                                        ........        ........",
"........XXXXXXXX                                        XXXXXXXX                                        ........        ........",
"........XXXXXXXX                                        XXXXXXXX                                        ........        ........",
"........XXXXXXXX                                        XXXXXXXX                                        ........        ........",
"........XXXXXXXX                                        XXXXXXXX                                        ........        ........",
"........XXXXXXXX                                        XXXXXXXX                                        ........        ........",
"................                                        ........XXXXXXXX........                        ................XXXXXXXX",
"................                                        ........XXXXXXXX........                        ................XXXXXXXX",
"................                                        ........XXXXXXXX........                        ................XXXXXXXX",
"................                                        ........XXXXXXXX........                        ................XXXXXXXX",
"................                                        ........XXXXXXXX........                        ................XXXXXXXX",
"................                                        ........XXXXXXXX........                        ................XXXXXXXX",
"................                                        ........XXXXXXXX........                        ................XXXXXXXX",
"................                                        ........XXXXXXXX........                        ................XXXXXXXX",
"........                                        ........XXXXXXXXXXXXXXXX                                ........XXXXXXXX        ",
"........                                        ........XXXXXXXXXXXXXXXX                                ........XXXXXXXX        ",
"........                                        ........XXXXXXXXXXXXXXXX                                ........XXXXXXXX        ",
"........                                        ........XXXXXXXXXXXXXXXX                                ........XXXXXXXX        ",
"........                                        ........XXXXXXXXXXXXXXXX                                ........XXXXXXXX        ",
"........                                        ........XXXXXXXXXXXXXXXX                                ........XXXXXXXX        ",
"........                                        ........XXXXXXXXXXXXXXXX                                ........XXXXXXXX        ",
"........                                        ........XXXXXXXXXXXXXXXX                                ........XXXXXXXX        ",
"                                        ........XXXXXXXXooooooooXXXXXXXX                                XXXXXXXXoooooooo........",
"                                        ........XXXXXXXXooooooooXXXXXXXX                                XXXXXXXXoooooooo........",
"                                        ........XXXXXXXXooooooooXXXXXXXX                                XXXXXXXXoooooooo........",
"                                        ........XXXXXXXXooooooooXXXXXXXX                                XXXXXXXXoooooooo........",
"                                        ........XXXXXXXXooooooooXXXXXXXX                                XXXXXXXXoooooooo........",
"                                        ........XXXXXXXXooooooooXXXXXXXX                                XXXXXXXXoooooooo........",
"                                        ........XXXXXXXXooooooooXXXXXXXX                                XXXXXXXXoooooooo........",
"                                        ........XXXXXXXXooooooooXXXXXXXX                                XXXXXXXXoooooooo........",
"                                                        XXXXXXXX                                ................XXXXXXXX........",
"                                                        XXXXXXXX                                ................XXXXXXXX........",
"                                                        XXXXXXXX                                ................XXXXXXXX........",
"                                                        XXXXXXXX                                ................XXXXXXXX........",
"                                                        XXXXXXXX                                ................XXXXXXXX........",
"                                                        XXXXXXXX                                ................XXXXXXXX........",
"                                                        XXXXXXXX                                ................XXXXXXXX........",
"                                                        XXXXXXXX                                ................XXXXXXXX........",
"........        ........                        ................                        XXXXXXXX........        ................",
"........        ........                        ................                        XXXXXXXX........        ................",
"........        ........                        ................                        XXXXXXXX........        ................",
"........        ........                        ................                        XXXXXXXX........        ................",
"........        ........                        ................                        XXXXXXXX........        ................",
"........        ........                        ................                        XXXXXXXX........        ................",
"........        ........                        ................                        XXXXXXXX........        ................",
"........        ........                        ................                        XXXXXXXX........        ................",
"........XXXXXXXX                        XXXXXXXX........                        XXXXXXXX........                                ",
"........XXXXXXXX                        XXXXXXXX........                        XXXXXXXX........                                ",
"........XXXXXXXX                        XXXXXXXX........                        XXXXXXXX........                                ",
"........XXXXXXXX                        XXXXXXXX........                        XXXXXXXX........                                ",
"........XXXXXXXX                        XXXXXXXX........                        XXXXXXXX........                                ",
"........XXXXXXXX                        XXXXXXXX........                        XXXXXXXX........                                ",
"........XXXXXXXX                        XXXXXXXX........                        XXXXXXXX........                                ",
"........XXXXXXXX                        XXXXXXXX........                        XXXXXXXX........                                ",
"................XXXXXXXX........XXXXXXXXooooooooXXXXXXXX        ........................                                ........",
"................XXXXXXXX........XXXXXXXXooooooooXXXXXXXX        ........................                                ........",
"................XXXXXXXX........XXXXXXXXooooooooXXXXXXXX        ........................                                ........",
"................XXXXXXXX........XXXXXXXXooooooooXXXXXXXX        ........................                                ........",
"................XXXXXXXX........XXXXXXXXooooooooXXXXXXXX        ........................                                ........",
"................XXXXXXXX........XXXXXXXXooooooooXXXXXXXX        ........................                                ........",
"................XXXXXXXX........XXXXXXXXooooooooXXXXXXXX        ........................                                ........",
"................XXXXXXXX........XXXXXXXXooooooooXXXXXXXX        ........................                                ........",
"XXXXXXXX........oooooooo........        XXXXXXXX........XXXXXXXX        XXXXXXXX........                        ........XXXXXXXX",
"XXXXXXXX........oooooooo........        XXXXXXXX........XXXXXXXX        XXXXXXXX........                        ........XXXXXXXX",
"XXXXXXXX........oooooooo........        XXXXXXXX........XXXXXXXX        XXXXXXXX........                        ........XXXXXXXX",
"XXXXXXXX........oooooooo........        XXXXXXXX........XXXXXXXX        XXXXXXXX........                        ........XXXXXXXX",
"XXXXXXXX........oooooooo........        XXXXXXXX........XXXXXXXX        XXXXXXXX........                        ........XXXXXXXX",
"XXXXXXXX........oooooooo........        XXXXXXXX........XXXXXXXX        XXXXXXXX........                        ........XXXXXXXX",
"XXXXXXXX........oooooooo........        XXXXXXXX........XXXXXXXX        XXXXXXXX........                        ........XXXXXXXX",
"XXXXXXXX........oooooooo........        XXXXXXXX........XXXXXXXX        XXXXXXXX........                        ........XXXXXXXX",
"                        ........................................XXXXXXXXXXXXXXXX................                XXXXXXXX........",
"                        ........................................XXXXXXXXXXXXXXXX................                XXXXXXXX........",
"                        ........................................XXXXXXXXXXXXXXXX................                XXXXXXXX........",
"                        ........................................XXXXXXXXXXXXXXXX................                XXXXXXXX........",
"                        ........................................XXXXXXXXXXXXXXXX................                XXXXXXXX........",
"                        ........................................XXXXXXXXXXXXXXXX................                XXXXXXXX........",
"                        ........................................XXXXXXXXXXXXXXXX................                XXXXXXXX........",
"                        ........................................XXXXXXXXXXXXXXXX................                XXXXXXXX........",
"XXXXXXXXXXXXXXXX        XXXXXXXX................XXXXXXXXXXXXXXXX........................                                ........",
"XXXXXXXXXXXXXXXX        XXXXXXXX................XXXXXXXXXXXXXXXX........................                                ........",
"XXXXXXXXXXXXXXXX        XXXXXXXX................XXXXXXXXXXXXXXXX........................                                ........",
"XXXXXXXXXXXXXXXX        XXXXXXXX................XXXXXXXXXXXXXXXX........................                                ........",
"XXXXXXXXXXXXXXXX        XXXXXXXX................XXXXXXXXXXXXXXXX........................                                ........",
"XXXXXXXXXXXXXXXX        XXXXXXXX................XXXXXXXXXXXXXXXX........................                                ........",
"XXXXXXXXXXXXXXXX        XXXXXXXX................XXXXXXXXXXXXXXXX........................                                ........",
"XXXXXXXXXXXXXXXX        XXXXXXXX................XXXXXXXXXXXXXXXX........................                                ........",
"XXXXXXXX................        ........................        XXXXXXXX        ........................        ........        ",
"XXXXXXXX................        ........................        XXXXXXXX        ........................        ........        ",
"XXXXXXXX................        ........................        XXXXXXXX        ........................        ........        ",
"XXXXXXXX................        ........................        XXXXXXXX        ........................        ........        ",
"XXXXXXXX................        ........................        XXXXXXXX        ........................        ........        ",
"XXXXXXXX................        ........................        XXXXXXXX        ........................        ........        ",
"XXXXXXXX................        ........................        XXXXXXXX        ........................        ........        ",
"XXXXXXXX................        ........................        XXXXXXXX        ........................        ........        ",
"........XXXXXXXX................                                        ........XXXXXXXX........XXXXXXXX........        ........",
"........XXXXXXXX................                                        ........XXXXXXXX........XXXXXXXX........        ........",
"........XXXXXXXX................                                        ........XXXXXXXX........XXXXXXXX........        ........",
"........XXXXXXXX................                                        ........XXXXXXXX........XXXXXXXX........        ........",
"........XXXXXXXX................                                        ........XXXXXXXX........XXXXXXXX........        ........",
"........XXXXXXXX................                                        ........XXXXXXXX........XXXXXXXX........        ........",
"........XXXXXXXX................                                        ........XXXXXXXX........XXXXXXXX........        ........",
"........XXXXXXXX................                                        ........XXXXXXXX........XXXXXXXX........        ........"
};
