/* XPM */
static char *out[] = {
/* columns rows colors chars-per-pixel */
"128 128 4 1 ",
"  c #D6634A",
". c #ED8453",
"X c #F7B65F",
"o c #FFE169",
/* pixels */
"                                                ........................                XXXXXXXXooooooooXXXXXXXXXXXXXXXX        ",
"                                                ........................                XXXXXXXXooooooooXXXXXXXXXXXXXXXX        ",
"                                                ........................                XXXXXXXXooooooooXXXXXXXXXXXXXXXX        ",
"                                                ........................                XXXXXXXXooooooooXXXXXXXXXXXXXXXX        ",
"                                                ........................                XXXXXXXXooooooooXXXXXXXXXXXXXXXX        ",
"                                                ........................                XXXXXXXXooooooooXXXXXXXXXXXXXXXX        ",
"                                                ........................                XXXXXXXXooooooooXXXXXXXXXXXXXXXX        ",
"                                                ........................                XXXXXXXXooooooooXXXXXXXXXXXXXXXX        ",
"                                        ........XXXXXXXX........                        ........XXXXXXXX........ooooooooXXXXXXXX",
"                                        ........XXXXXXXX........                        ........XXXXXXXX........ooooooooXXXXXXXX",
"                                        ........XXXXXXXX........                        ........XXXXXXXX........ooooooooXXXXXXXX",
"                                        ........XXXXXXXX........                        ........XXXXXXXX........ooooooooXXXXXXXX",
"                                        ........XXXXXXXX........                        ........XXXXXXXX........ooooooooXXXXXXXX",
"                                        ........XXXXXXXX........                        ........XXXXXXXX........ooooooooXXXXXXXX",
"                                        ........XXXXXXXX........                        ........XXXXXXXX........ooooooooXXXXXXXX",
"                                        ........XXXXXXXX........                        ........XXXXXXXX........ooooooooXXXXXXXX",
"................        ........................                                ................        ........XXXXXXXXXXXXXXXX",
"................        ........................                                ................        ........XXXXXXXXXXXXXXXX",
"................        ........................                                ................        ........XXXXXXXXXXXXXXXX",
"................        ........................                                ................        ........XXXXXXXXXXXXXXXX",
"................        ........................                                ................        ........XXXXXXXXXXXXXXXX",
"................        ........................                                ................        ........XXXXXXXXXXXXXXXX",
"................        ........................                                ................        ........XXXXXXXXXXXXXXXX",
"................        ........................                                ................        ........XXXXXXXXXXXXXXXX",
"ooooooooXXXXXXXX........        XXXXXXXX................                        ........                ........        XXXXXXXX",
"ooooooooXXXXXXXX........        XXXXXXXX................                        ........                ........        XXXXXXXX",
"ooooooooXXXXXXXX........        XXXXXXXX................                        ........                ........        XXXXXXXX",
"ooooooooXXXXXXXX........        XXXXXXXX................                        ........                ........        XXXXXXXX",
"ooooooooXXXXXXXX........        XXXXXXXX................                        ........                ........        XXXXXXXX",
"ooooooooXXXXXXXX........        XXXXXXXX................                        ........                ........        XXXXXXXX",
"ooooooooXXXXXXXX........        XXXXXXXX................                        ........                ........        XXXXXXXX",
"ooooooooXXXXXXXX........        XXXXXXXX................                        ........                ........        XXXXXXXX",
"XXXXXXXX................XXXXXXXX........XXXXXXXX........                                                                XXXXXXXX",
"XXXXXXXX................XXXXXXXX........XXXXXXXX........                                                                XXXXXXXX",
"XXXXXXXX................XXXXXXXX........XXXXXXXX........                                                                XXXXXXXX",
"XXXXXXXX................XXXXXXXX........XXXXXXXX........                                                                XXXXXXXX",
"XXXXXXXX................XXXXXXXX........XXXXXXXX........                                                                XXXXXXXX",
"XXXXXXXX................XXXXXXXX........XXXXXXXX........                                                                XXXXXXXX",
"XXXXXXXX................XXXXXXXX........XXXXXXXX........                                                                XXXXXXXX",
"XXXXXXXX................XXXXXXXX........XXXXXXXX........                                                                XXXXXXXX",
"........        ................        XXXXXXXXoooooooo........                ........                        ........oooooooo",
"........        ................        XXXXXXXXoooooooo........                ........                        ........oooooooo",
"........        ................        XXXXXXXXoooooooo........                ........                        ........oooooooo",
"........        ................        XXXXXXXXoooooooo........                ........                        ........oooooooo",
"........        ................        XXXXXXXXoooooooo........                ........                        ........oooooooo",
"........        ................        XXXXXXXXoooooooo........                ........                        ........oooooooo",
"........        ................        XXXXXXXXoooooooo........                ........                        ........oooooooo",
"........        ................        XXXXXXXXoooooooo........                ........                        ........oooooooo",
"                        ........XXXXXXXXooooooooXXXXXXXX........                                ........XXXXXXXXXXXXXXXX........",
"                        ........XXXXXXXXooooooooXXXXXXXX........                                ........XXXXXXXXXXXXXXXX........",
"                        ........XXXXXXXXooooooooXXXXXXXX........                                ........XXXXXXXXXXXXXXXX........",
"                        ........XXXXXXXXooooooooXXXXXXXX........                                ........XXXXXXXXXXXXXXXX........",
"                        ........XXXXXXXXooooooooXXXXXXXX........                                ........XXXXXXXXXXXXXXXX........",
"                        ........XXXXXXXXooooooooXXXXXXXX........                                ........XXXXXXXXXXXXXXXX........",
"                        ........XXXXXXXXooooooooXXXXXXXX........                                ........XXXXXXXXXXXXXXXX........",
"                        ........XXXXXXXXooooooooXXXXXXXX........                                ........XXXXXXXXXXXXXXXX........",
"                                        ........XXXXXXXX        ........                ........XXXXXXXX        ................",
"                                        ........XXXXXXXX        ........                ........XXXXXXXX        ................",
"                                        ........XXXXXXXX        ........                ........XXXXXXXX        ................",
"                                        ........XXXXXXXX        ........                ........XXXXXXXX        ................",
"                                        ........XXXXXXXX        ........                ........XXXXXXXX        ................",
"                                        ........XXXXXXXX        ........                ........XXXXXXXX        ................",
"                                        ........XXXXXXXX        ........                ........XXXXXXXX        ................",
"                                        ........XXXXXXXX        ........                ........XXXXXXXX        ................",
"XXXXXXXX                                                XXXXXXXX                ........................                ........",
"XXXXXXXX                                                XXXXXXXX                ........................                ........",
"XXXXXXXX                                                XXXXXXXX                ........................                ........",
"XXXXXXXX                                                XXXXXXXX                ........................                ........",
"XXXXXXXX                                                XXXXXXXX                ........................                ........",
"XXXXXXXX                                                XXXXXXXX                ........................                ........",
"XXXXXXXX                                                XXXXXXXX                ........................                ........",
"XXXXXXXX                                                XXXXXXXX                ........................                ........",
"........                        XXXXXXXX                                        XXXXXXXXoooooooo                                ",
"........                        XXXXXXXX                                        XXXXXXXXoooooooo                                ",
"........                        XXXXXXXX                                        XXXXXXXXoooooooo                                ",
"........                        XXXXXXXX                                        XXXXXXXXoooooooo                                ",
"........                        XXXXXXXX                                        XXXXXXXXoooooooo                                ",
"........                        XXXXXXXX                                        XXXXXXXXoooooooo                                ",
"........                        XXXXXXXX                                        XXXXXXXXoooooooo                                ",
"........                        XXXXXXXX                                        XXXXXXXXoooooooo                                ",
"........                        ........                                XXXXXXXX........                                        ",
"........                        ........                                XXXXXXXX........                                        ",
"........                        ........                                XXXXXXXX........                                        ",
"........                        ........                                XXXXXXXX........                                        ",
"........                        ........                                XXXXXXXX........                                        ",
"........                        ........                                XXXXXXXX........                                        ",
"........                        ........                                XXXXXXXX........                                        ",
"........                        ........                                XXXXXXXX........                                        ",
"................                        ........                        XXXXXXXXXXXXXXXX                                ........",
"................                        ........                        XXXXXXXXXXXXXXXX                                ........",
"................                        ........                        XXXXXXXXXXXXXXXX                                ........",
"................                        ........                        XXXXXXXXXXXXXXXX                                ........",
"................                        ........                        XXXXXXXXXXXXXXXX                                ........",
"................                        ........                        XXXXXXXXXXXXXXXX                                ........",
"................                        ........                        XXXXXXXXXXXXXXXX                                ........",
"................                        ........                        XXXXXXXXXXXXXXXX                                ........",
"........                        ........................        ........XXXXXXXXoooooooo........        ................XXXXXXXX",
"........                        ........................        ........XXXXXXXXoooooooo........        ................XXXXXXXX",
"........                        ........................        ........XXXXXXXXoooooooo........        ................XXXXXXXX",
"........                        ........................        ........XXXXXXXXoooooooo........        ................XXXXXXXX",
"........                        ........................        ........XXXXXXXXoooooooo........        ................XXXXXXXX",
"........                        ........................        ........XXXXXXXXoooooooo........        ................XXXXXXXX",
"........                        ........................        ........XXXXXXXXoooooooo........        ................XXXXXXXX",
"........                        ........................        ........XXXXXXXXoooooooo........        ................XXXXXXXX",
"                                ................        ........XXXXXXXX................oooooooo................XXXXXXXX........",
"                                ................        ........XXXXXXXX................oooooooo................XXXXXXXX........",
"                                ................        ........XXXXXXXX................oooooooo................XXXXXXXX........",
"                                ................        ........XXXXXXXX................oooooooo................XXXXXXXX........",
"                                ................        ........XXXXXXXX................oooooooo................XXXXXXXX........",
"                                ................        ........XXXXXXXX................oooooooo................XXXXXXXX........",
"                                ................        ........XXXXXXXX................oooooooo................XXXXXXXX........",
"                                ................        ........XXXXXXXX................oooooooo................XXXXXXXX........",
"                                        XXXXXXXX........................                ........        XXXXXXXXXXXXXXXX        ",
"                                        XXXXXXXX........................                ........        XXXXXXXXXXXXXXXX        ",
"                                        XXXXXXXX........................                ........        XXXXXXXXXXXXXXXX        ",
"                                        XXXXXXXX........................                ........        XXXXXXXXXXXXXXXX        ",
"                                        XXXXXXXX........................                ........        XXXXXXXXXXXXXXXX        ",
"                                        XXXXXXXX........................                ........        XXXXXXXXXXXXXXXX        ",
"                                        XXXXXXXX........................                ........        XXXXXXXXXXXXXXXX        ",
"                                        XXXXXXXX........................                ........        XXXXXXXXXXXXXXXX        ",
"                        XXXXXXXX................        XXXXXXXX........                ........XXXXXXXX                        ",
"                        XXXXXXXX................        XXXXXXXX........                ........XXXXXXXX                        ",
"                        XXXXXXXX................        XXXXXXXX........                ........XXXXXXXX                        ",
"                        XXXXXXXX................        XXXXXXXX........                ........XXXXXXXX                        ",
"                        XXXXXXXX................        XXXXXXXX........                ........XXXXXXXX                        ",
"                        XXXXXXXX................        XXXXXXXX........                ........XXXXXXXX                        ",
"                        XXXXXXXX................        XXXXXXXX........                ........XXXXXXXX                        ",
"                        XXXXXXXX................        XXXXXXXX........                ........XXXXXXXX                        "
};
