/* XPM */
static char *out[] = {
/* columns rows colors chars-per-pixel */
"128 128 4 1 ",
"  c #D6634A",
". c #ED8453",
"X c #F7B65F",
"o c #FFE169",
/* pixels */
"                                        ........XXXXXXXX........                                ........................        ",
"                                        ........XXXXXXXX........                                ........................        ",
"                                        ........XXXXXXXX........                                ........................        ",
"                                        ........XXXXXXXX........                                ........................        ",
"                                        ........XXXXXXXX........                                ........................        ",
"                                        ........XXXXXXXX........                                ........................        ",
"                                        ........XXXXXXXX........                                ........................        ",
"                                        ........XXXXXXXX........                                ........................        ",
"                                        ........XXXXXXXX                                ................XXXXXXXX................",
"                                        ........XXXXXXXX                                ................XXXXXXXX................",
"                                        ........XXXXXXXX                                ................XXXXXXXX................",
"                                        ........XXXXXXXX                                ................XXXXXXXX................",
"                                        ........XXXXXXXX                                ................XXXXXXXX................",
"                                        ........XXXXXXXX                                ................XXXXXXXX................",
"                                        ........XXXXXXXX                                ................XXXXXXXX................",
"                                        ........XXXXXXXX                                ................XXXXXXXX................",
"........                        ........XXXXXXXX                                        ................        XXXXXXXX........",
"........                        ........XXXXXXXX                                        ................        XXXXXXXX........",
"........                        ........XXXXXXXX                                        ................        XXXXXXXX........",
"........                        ........XXXXXXXX                                        ................        XXXXXXXX........",
"........                        ........XXXXXXXX                                        ................        XXXXXXXX........",
"........                        ........XXXXXXXX                                        ................        XXXXXXXX........",
"........                        ........XXXXXXXX                                        ................        XXXXXXXX........",
"........                        ........XXXXXXXX                                        ................        XXXXXXXX........",
"................XXXXXXXX........................................                                                ........        ",
"................XXXXXXXX........................................                                                ........        ",
"................XXXXXXXX........................................                                                ........        ",
"................XXXXXXXX........................................                                                ........        ",
"................XXXXXXXX........................................                                                ........        ",
"................XXXXXXXX........................................                                                ........        ",
"................XXXXXXXX........................................                                                ........        ",
"................XXXXXXXX........................................                                                ........        ",
"........XXXXXXXXooooooooXXXXXXXXXXXXXXXX........XXXXXXXX        ........                                                ........",
"........XXXXXXXXooooooooXXXXXXXXXXXXXXXX........XXXXXXXX        ........                                                ........",
"........XXXXXXXXooooooooXXXXXXXXXXXXXXXX........XXXXXXXX        ........                                                ........",
"........XXXXXXXXooooooooXXXXXXXXXXXXXXXX........XXXXXXXX        ........                                                ........",
"........XXXXXXXXooooooooXXXXXXXXXXXXXXXX........XXXXXXXX        ........                                                ........",
"........XXXXXXXXooooooooXXXXXXXXXXXXXXXX........XXXXXXXX        ........                                                ........",
"........XXXXXXXXooooooooXXXXXXXXXXXXXXXX........XXXXXXXX        ........                                                ........",
"........XXXXXXXXooooooooXXXXXXXXXXXXXXXX........XXXXXXXX        ........                                                ........",
"XXXXXXXX        ........ooooooooooooooooXXXXXXXX                                                ........        ................",
"XXXXXXXX        ........ooooooooooooooooXXXXXXXX                                                ........        ................",
"XXXXXXXX        ........ooooooooooooooooXXXXXXXX                                                ........        ................",
"XXXXXXXX        ........ooooooooooooooooXXXXXXXX                                                ........        ................",
"XXXXXXXX        ........ooooooooooooooooXXXXXXXX                                                ........        ................",
"XXXXXXXX        ........ooooooooooooooooXXXXXXXX                                                ........        ................",
"XXXXXXXX        ........ooooooooooooooooXXXXXXXX                                                ........        ................",
"XXXXXXXX        ........ooooooooooooooooXXXXXXXX                                                ........        ................",
"                        ................XXXXXXXX........                ........                        ........................",
"                        ................XXXXXXXX........                ........                        ........................",
"                        ................XXXXXXXX........                ........                        ........................",
"                        ................XXXXXXXX........                ........                        ........................",
"                        ................XXXXXXXX........                ........                        ........................",
"                        ................XXXXXXXX........                ........                        ........................",
"                        ................XXXXXXXX........                ........                        ........................",
"                        ................XXXXXXXX........                ........                        ........................",
"                                ........................XXXXXXXXXXXXXXXX........................................XXXXXXXX........",
"                                ........................XXXXXXXXXXXXXXXX........................................XXXXXXXX........",
"                                ........................XXXXXXXXXXXXXXXX........................................XXXXXXXX........",
"                                ........................XXXXXXXXXXXXXXXX........................................XXXXXXXX........",
"                                ........................XXXXXXXXXXXXXXXX........................................XXXXXXXX........",
"                                ........................XXXXXXXXXXXXXXXX........................................XXXXXXXX........",
"                                ........................XXXXXXXXXXXXXXXX........................................XXXXXXXX........",
"                                ........................XXXXXXXXXXXXXXXX........................................XXXXXXXX........",
"                                        ........ooooooooXXXXXXXX........XXXXXXXX........XXXXXXXX........................XXXXXXXX",
"                                        ........ooooooooXXXXXXXX........XXXXXXXX........XXXXXXXX........................XXXXXXXX",
"                                        ........ooooooooXXXXXXXX........XXXXXXXX........XXXXXXXX........................XXXXXXXX",
"                                        ........ooooooooXXXXXXXX........XXXXXXXX........XXXXXXXX........................XXXXXXXX",
"                                        ........ooooooooXXXXXXXX........XXXXXXXX........XXXXXXXX........................XXXXXXXX",
"                                        ........ooooooooXXXXXXXX........XXXXXXXX........XXXXXXXX........................XXXXXXXX",
"                                        ........ooooooooXXXXXXXX........XXXXXXXX........XXXXXXXX........................XXXXXXXX",
"                                        ........ooooooooXXXXXXXX........XXXXXXXX........XXXXXXXX........................XXXXXXXX",
"                                ................XXXXXXXX........                ................XXXXXXXXoooooooo........        ",
"                                ................XXXXXXXX........                ................XXXXXXXXoooooooo........        ",
"                                ................XXXXXXXX........                ................XXXXXXXXoooooooo........        ",
"                                ................XXXXXXXX........                ................XXXXXXXXoooooooo........        ",
"                                ................XXXXXXXX........                ................XXXXXXXXoooooooo........        ",
"                                ................XXXXXXXX........                ................XXXXXXXXoooooooo........        ",
"                                ................XXXXXXXX........                ................XXXXXXXXoooooooo........        ",
"                                ................XXXXXXXX........                ................XXXXXXXXoooooooo........        ",
"                                XXXXXXXX................                                XXXXXXXXoooooooo........                ",
"                                XXXXXXXX................                                XXXXXXXXoooooooo........                ",
"                                XXXXXXXX................                                XXXXXXXXoooooooo........                ",
"                                XXXXXXXX................                                XXXXXXXXoooooooo........                ",
"                                XXXXXXXX................                                XXXXXXXXoooooooo........                ",
"                                XXXXXXXX................                                XXXXXXXXoooooooo........                ",
"                                XXXXXXXX................                                XXXXXXXXoooooooo........                ",
"                                XXXXXXXX................                                XXXXXXXXoooooooo........                ",
"                                XXXXXXXX........                                ........XXXXXXXXXXXXXXXX........                ",
"                                XXXXXXXX........                                ........XXXXXXXXXXXXXXXX........                ",
"                                XXXXXXXX........                                ........XXXXXXXXXXXXXXXX........                ",
"                                XXXXXXXX........                                ........XXXXXXXXXXXXXXXX........                ",
"                                XXXXXXXX........                                ........XXXXXXXXXXXXXXXX........                ",
"                                XXXXXXXX........                                ........XXXXXXXXXXXXXXXX........                ",
"                                XXXXXXXX........                                ........XXXXXXXXXXXXXXXX........                ",
"                                XXXXXXXX........                                ........XXXXXXXXXXXXXXXX........                ",
"                                        XXXXXXXX                        ........................XXXXXXXXXXXXXXXX                ",
"                                        XXXXXXXX                        ........................XXXXXXXXXXXXXXXX                ",
"                                        XXXXXXXX                        ........................XXXXXXXXXXXXXXXX                ",
"                                        XXXXXXXX                        ........................XXXXXXXXXXXXXXXX                ",
"                                        XXXXXXXX                        ........................XXXXXXXXXXXXXXXX                ",
"                                        XXXXXXXX                        ........................XXXXXXXXXXXXXXXX                ",
"                                        XXXXXXXX                        ........................XXXXXXXXXXXXXXXX                ",
"                                        XXXXXXXX                        ........................XXXXXXXXXXXXXXXX                ",
"........                                                        ........XXXXXXXX        ........................XXXXXXXX        ",
"........                                                        ........XXXXXXXX        ........................XXXXXXXX        ",
"........                                                        ........XXXXXXXX        ........................XXXXXXXX        ",
"........                                                        ........XXXXXXXX        ........................XXXXXXXX        ",
"........                                                        ........XXXXXXXX        ........................XXXXXXXX        ",
"........                                                        ........XXXXXXXX        ........................XXXXXXXX        ",
"........                                                        ........XXXXXXXX        ........................XXXXXXXX        ",
"........                                                        ........XXXXXXXX        ........................XXXXXXXX        ",
"                                                                XXXXXXXX                                ........................",
"                                                                XXXXXXXX                                ........................",
"                                                                XXXXXXXX                                ........................",
"                                                                XXXXXXXX                                ........................",
"                                                                XXXXXXXX                                ........................",
"                                                                XXXXXXXX                                ........................",
"                                                                XXXXXXXX                                ........................",
"                                                                XXXXXXXX                                ........................",
"........                                                                                ........XXXXXXXX................XXXXXXXX",
"........                                                                                ........XXXXXXXX................XXXXXXXX",
"........                                                                                ........XXXXXXXX................XXXXXXXX",
"........                                                                                ........XXXXXXXX................XXXXXXXX",
"........                                                                                ........XXXXXXXX................XXXXXXXX",
"........                                                                                ........XXXXXXXX................XXXXXXXX",
"........                                                                                ........XXXXXXXX................XXXXXXXX",
"........                                                                                ........XXXXXXXX................XXXXXXXX"
};
