/* XPM */
static char *out[] = {
/* columns rows colors chars-per-pixel */
"128 128 4 1 ",
"  c #D6634A",
". c #ED8453",
"X c #F7B65F",
"o c #FFE169",
/* pixels */
"                        ........                                ........................XXXXXXXX................                ",
"                        ........                                ........................XXXXXXXX................                ",
"                        ........                                ........................XXXXXXXX................                ",
"                        ........                                ........................XXXXXXXX................                ",
"                        ........                                ........................XXXXXXXX................                ",
"                        ........                                ........................XXXXXXXX................                ",
"                        ........                                ........................XXXXXXXX................                ",
"                        ........                                ........................XXXXXXXX................                ",
"                                ........                ................        ................ooooooooXXXXXXXX........        ",
"                                ........                ................        ................ooooooooXXXXXXXX........        ",
"                                ........                ................        ................ooooooooXXXXXXXX........        ",
"                                ........                ................        ................ooooooooXXXXXXXX........        ",
"                                ........                ................        ................ooooooooXXXXXXXX........        ",
"                                ........                ................        ................ooooooooXXXXXXXX........        ",
"                                ........                ................        ................ooooooooXXXXXXXX........        ",
"                                ........                ................        ................ooooooooXXXXXXXX........        ",
"                                ........                XXXXXXXXoooooooo........                ........XXXXXXXXXXXXXXXX        ",
"                                ........                XXXXXXXXoooooooo........                ........XXXXXXXXXXXXXXXX        ",
"                                ........                XXXXXXXXoooooooo........                ........XXXXXXXXXXXXXXXX        ",
"                                ........                XXXXXXXXoooooooo........                ........XXXXXXXXXXXXXXXX        ",
"                                ........                XXXXXXXXoooooooo........                ........XXXXXXXXXXXXXXXX        ",
"                                ........                XXXXXXXXoooooooo........                ........XXXXXXXXXXXXXXXX        ",
"                                ........                XXXXXXXXoooooooo........                ........XXXXXXXXXXXXXXXX        ",
"                                ........                XXXXXXXXoooooooo........                ........XXXXXXXXXXXXXXXX        ",
"                                                        ........XXXXXXXXXXXXXXXX........                                ........",
"                                                        ........XXXXXXXXXXXXXXXX........                                ........",
"                                                        ........XXXXXXXXXXXXXXXX........                                ........",
"                                                        ........XXXXXXXXXXXXXXXX........                                ........",
"                                                        ........XXXXXXXXXXXXXXXX........                                ........",
"                                                        ........XXXXXXXXXXXXXXXX........                                ........",
"                                                        ........XXXXXXXXXXXXXXXX........                                ........",
"                                                        ........XXXXXXXXXXXXXXXX........                                ........",
"........                                        ................XXXXXXXX........................        ................        ",
"........                                        ................XXXXXXXX........................        ................        ",
"........                                        ................XXXXXXXX........................        ................        ",
"........                                        ................XXXXXXXX........................        ................        ",
"........                                        ................XXXXXXXX........................        ................        ",
"........                                        ................XXXXXXXX........................        ................        ",
"........                                        ................XXXXXXXX........................        ................        ",
"........                                        ................XXXXXXXX........................        ................        ",
"................XXXXXXXXooooooooXXXXXXXXXXXXXXXX................................                ................        XXXXXXXX",
"................XXXXXXXXooooooooXXXXXXXXXXXXXXXX................................                ................        XXXXXXXX",
"................XXXXXXXXooooooooXXXXXXXXXXXXXXXX................................                ................        XXXXXXXX",
"................XXXXXXXXooooooooXXXXXXXXXXXXXXXX................................                ................        XXXXXXXX",
"................XXXXXXXXooooooooXXXXXXXXXXXXXXXX................................                ................        XXXXXXXX",
"................XXXXXXXXooooooooXXXXXXXXXXXXXXXX................................                ................        XXXXXXXX",
"................XXXXXXXXooooooooXXXXXXXXXXXXXXXX................................                ................        XXXXXXXX",
"................XXXXXXXXooooooooXXXXXXXXXXXXXXXX................................                ................        XXXXXXXX",
"XXXXXXXX        ........ooooooooXXXXXXXXXXXXXXXX        ........                                        ........        ........",
"XXXXXXXX        ........ooooooooXXXXXXXXXXXXXXXX        ........                                        ........        ........",
"XXXXXXXX        ........ooooooooXXXXXXXXXXXXXXXX        ........                                        ........        ........",
"XXXXXXXX        ........ooooooooXXXXXXXXXXXXXXXX        ........                                        ........        ........",
"XXXXXXXX        ........ooooooooXXXXXXXXXXXXXXXX        ........                                        ........        ........",
"XXXXXXXX        ........ooooooooXXXXXXXXXXXXXXXX        ........                                        ........        ........",
"XXXXXXXX        ........ooooooooXXXXXXXXXXXXXXXX        ........                                        ........        ........",
"XXXXXXXX        ........ooooooooXXXXXXXXXXXXXXXX        ........                                        ........        ........",
"                                XXXXXXXX........XXXXXXXX                                        ........        ........XXXXXXXX",
"                                XXXXXXXX........XXXXXXXX                                        ........        ........XXXXXXXX",
"                                XXXXXXXX........XXXXXXXX                                        ........        ........XXXXXXXX",
"                                XXXXXXXX........XXXXXXXX                                        ........        ........XXXXXXXX",
"                                XXXXXXXX........XXXXXXXX                                        ........        ........XXXXXXXX",
"                                XXXXXXXX........XXXXXXXX                                        ........        ........XXXXXXXX",
"                                XXXXXXXX........XXXXXXXX                                        ........        ........XXXXXXXX",
"                                XXXXXXXX........XXXXXXXX                                        ........        ........XXXXXXXX",
"........                ........        ................                                                        XXXXXXXXXXXXXXXX",
"........                ........        ................                                                        XXXXXXXXXXXXXXXX",
"........                ........        ................                                                        XXXXXXXXXXXXXXXX",
"........                ........        ................                                                        XXXXXXXXXXXXXXXX",
"........                ........        ................                                                        XXXXXXXXXXXXXXXX",
"........                ........        ................                                                        XXXXXXXXXXXXXXXX",
"........                ........        ................                                                        XXXXXXXXXXXXXXXX",
"........                ........        ................                                                        XXXXXXXXXXXXXXXX",
"XXXXXXXX                                        XXXXXXXX........                        XXXXXXXXXXXXXXXX........        ........",
"XXXXXXXX                                        XXXXXXXX........                        XXXXXXXXXXXXXXXX........        ........",
"XXXXXXXX                                        XXXXXXXX........                        XXXXXXXXXXXXXXXX........        ........",
"XXXXXXXX                                        XXXXXXXX........                        XXXXXXXXXXXXXXXX........        ........",
"XXXXXXXX                                        XXXXXXXX........                        XXXXXXXXXXXXXXXX........        ........",
"XXXXXXXX                                        XXXXXXXX........                        XXXXXXXXXXXXXXXX........        ........",
"XXXXXXXX                                        XXXXXXXX........                        XXXXXXXXXXXXXXXX........        ........",
"XXXXXXXX                                        XXXXXXXX........                        XXXXXXXXXXXXXXXX........        ........",
"................                        XXXXXXXXooooooooXXXXXXXX................XXXXXXXXoooooooo........                        ",
"................                        XXXXXXXXooooooooXXXXXXXX................XXXXXXXXoooooooo........                        ",
"................                        XXXXXXXXooooooooXXXXXXXX................XXXXXXXXoooooooo........                        ",
"................                        XXXXXXXXooooooooXXXXXXXX................XXXXXXXXoooooooo........                        ",
"................                        XXXXXXXXooooooooXXXXXXXX................XXXXXXXXoooooooo........                        ",
"................                        XXXXXXXXooooooooXXXXXXXX................XXXXXXXXoooooooo........                        ",
"................                        XXXXXXXXooooooooXXXXXXXX................XXXXXXXXoooooooo........                        ",
"................                        XXXXXXXXooooooooXXXXXXXX................XXXXXXXXoooooooo........                        ",
"........XXXXXXXX                                ooooooooooooooooXXXXXXXXXXXXXXXX........XXXXXXXX                                ",
"........XXXXXXXX                                ooooooooooooooooXXXXXXXXXXXXXXXX........XXXXXXXX                                ",
"........XXXXXXXX                                ooooooooooooooooXXXXXXXXXXXXXXXX........XXXXXXXX                                ",
"........XXXXXXXX                                ooooooooooooooooXXXXXXXXXXXXXXXX........XXXXXXXX                                ",
"........XXXXXXXX                                ooooooooooooooooXXXXXXXXXXXXXXXX........XXXXXXXX                                ",
"........XXXXXXXX                                ooooooooooooooooXXXXXXXXXXXXXXXX........XXXXXXXX                                ",
"........XXXXXXXX                                ooooooooooooooooXXXXXXXXXXXXXXXX........XXXXXXXX                                ",
"........XXXXXXXX                                ooooooooooooooooXXXXXXXXXXXXXXXX........XXXXXXXX                                ",
"        ........XXXXXXXX                        ........XXXXXXXXoooooooo........XXXXXXXX                                ........",
"        ........XXXXXXXX                        ........XXXXXXXXoooooooo........XXXXXXXX                                ........",
"        ........XXXXXXXX                        ........XXXXXXXXoooooooo........XXXXXXXX                                ........",
"        ........XXXXXXXX                        ........XXXXXXXXoooooooo........XXXXXXXX                                ........",
"        ........XXXXXXXX                        ........XXXXXXXXoooooooo........XXXXXXXX                                ........",
"        ........XXXXXXXX                        ........XXXXXXXXoooooooo........XXXXXXXX                                ........",
"        ........XXXXXXXX                        ........XXXXXXXXoooooooo........XXXXXXXX                                ........",
"        ........XXXXXXXX                        ........XXXXXXXXoooooooo........XXXXXXXX                                ........",
"                ................                ........XXXXXXXXXXXXXXXX................                                        ",
"                ................                ........XXXXXXXXXXXXXXXX................                                        ",
"                ................                ........XXXXXXXXXXXXXXXX................                                        ",
"                ................                ........XXXXXXXXXXXXXXXX................                                        ",
"                ................                ........XXXXXXXXXXXXXXXX................                                        ",
"                ................                ........XXXXXXXXXXXXXXXX................                                        ",
"                ................                ........XXXXXXXXXXXXXXXX................                                        ",
"                ................                ........XXXXXXXXXXXXXXXX................                                        ",
"        ................                ........XXXXXXXX........XXXXXXXXXXXXXXXX........                                        ",
"        ................                ........XXXXXXXX........XXXXXXXXXXXXXXXX........                                        ",
"        ................                ........XXXXXXXX........XXXXXXXXXXXXXXXX........                                        ",
"        ................                ........XXXXXXXX........XXXXXXXXXXXXXXXX........                                        ",
"        ................                ........XXXXXXXX........XXXXXXXXXXXXXXXX........                                        ",
"        ................                ........XXXXXXXX........XXXXXXXXXXXXXXXX........                                        ",
"        ................                ........XXXXXXXX........XXXXXXXXXXXXXXXX........                                        ",
"        ................                ........XXXXXXXX........XXXXXXXXXXXXXXXX........                                        ",
"........        ........XXXXXXXX........                ........        XXXXXXXX................        ........                ",
"........        ........XXXXXXXX........                ........        XXXXXXXX................        ........                ",
"........        ........XXXXXXXX........                ........        XXXXXXXX................        ........                ",
"........        ........XXXXXXXX........                ........        XXXXXXXX................        ........                ",
"........        ........XXXXXXXX........                ........        XXXXXXXX................        ........                ",
"........        ........XXXXXXXX........                ........        XXXXXXXX................        ........                ",
"........        ........XXXXXXXX........                ........        XXXXXXXX................        ........                ",
"........        ........XXXXXXXX........                ........        XXXXXXXX................        ........                "
};
