/* XPM */
static char *out[] = {
/* columns rows colors chars-per-pixel */
"128 128 4 1 ",
"  c #D6634A",
". c #ED8453",
"X c #F7B65F",
"o c #FFE169",
/* pixels */
"                                                                        ........XXXXXXXX........        ........                ",
"                                                                        ........XXXXXXXX........        ........                ",
"                                                                        ........XXXXXXXX........        ........                ",
"                                                                        ........XXXXXXXX........        ........                ",
"                                                                        ........XXXXXXXX........        ........                ",
"                                                                        ........XXXXXXXX........        ........                ",
"                                                                        ........XXXXXXXX........        ........                ",
"                                                                        ........XXXXXXXX........        ........                ",
"                                ........                                ........XXXXXXXX........                                ",
"                                ........                                ........XXXXXXXX........                                ",
"                                ........                                ........XXXXXXXX........                                ",
"                                ........                                ........XXXXXXXX........                                ",
"                                ........                                ........XXXXXXXX........                                ",
"                                ........                                ........XXXXXXXX........                                ",
"                                ........                                ........XXXXXXXX........                                ",
"                                ........                                ........XXXXXXXX........                                ",
"                        ................                                XXXXXXXXXXXXXXXXXXXXXXXX                                ",
"                        ................                                XXXXXXXXXXXXXXXXXXXXXXXX                                ",
"                        ................                                XXXXXXXXXXXXXXXXXXXXXXXX                                ",
"                        ................                                XXXXXXXXXXXXXXXXXXXXXXXX                                ",
"                        ................                                XXXXXXXXXXXXXXXXXXXXXXXX                                ",
"                        ................                                XXXXXXXXXXXXXXXXXXXXXXXX                                ",
"                        ................                                XXXXXXXXXXXXXXXXXXXXXXXX                                ",
"                        ................                                XXXXXXXXXXXXXXXXXXXXXXXX                                ",
"                ................        ........                ................ooooooooXXXXXXXX................                ",
"                ................        ........                ................ooooooooXXXXXXXX................                ",
"                ................        ........                ................ooooooooXXXXXXXX................                ",
"                ................        ........                ................ooooooooXXXXXXXX................                ",
"                ................        ........                ................ooooooooXXXXXXXX................                ",
"                ................        ........                ................ooooooooXXXXXXXX................                ",
"                ................        ........                ................ooooooooXXXXXXXX................                ",
"                ................        ........                ................ooooooooXXXXXXXX................                ",
"........        ........XXXXXXXX                        ................XXXXXXXXXXXXXXXXXXXXXXXX................................",
"........        ........XXXXXXXX                        ................XXXXXXXXXXXXXXXXXXXXXXXX................................",
"........        ........XXXXXXXX                        ................XXXXXXXXXXXXXXXXXXXXXXXX................................",
"........        ........XXXXXXXX                        ................XXXXXXXXXXXXXXXXXXXXXXXX................................",
"........        ........XXXXXXXX                        ................XXXXXXXXXXXXXXXXXXXXXXXX................................",
"........        ........XXXXXXXX                        ................XXXXXXXXXXXXXXXXXXXXXXXX................................",
"........        ........XXXXXXXX                        ................XXXXXXXXXXXXXXXXXXXXXXXX................................",
"........        ........XXXXXXXX                        ................XXXXXXXXXXXXXXXXXXXXXXXX................................",
"........................XXXXXXXX........                        ........XXXXXXXXXXXXXXXX........                XXXXXXXXXXXXXXXX",
"........................XXXXXXXX........                        ........XXXXXXXXXXXXXXXX........                XXXXXXXXXXXXXXXX",
"........................XXXXXXXX........                        ........XXXXXXXXXXXXXXXX........                XXXXXXXXXXXXXXXX",
"........................XXXXXXXX........                        ........XXXXXXXXXXXXXXXX........                XXXXXXXXXXXXXXXX",
"........................XXXXXXXX........                        ........XXXXXXXXXXXXXXXX........                XXXXXXXXXXXXXXXX",
"........................XXXXXXXX........                        ........XXXXXXXXXXXXXXXX........                XXXXXXXXXXXXXXXX",
"........................XXXXXXXX........                        ........XXXXXXXXXXXXXXXX........                XXXXXXXXXXXXXXXX",
"........................XXXXXXXX........                        ........XXXXXXXXXXXXXXXX........                XXXXXXXXXXXXXXXX",
"XXXXXXXX........XXXXXXXX........                                ........XXXXXXXX........                                        ",
"XXXXXXXX........XXXXXXXX........                                ........XXXXXXXX........                                        ",
"XXXXXXXX........XXXXXXXX........                                ........XXXXXXXX........                                        ",
"XXXXXXXX........XXXXXXXX........                                ........XXXXXXXX........                                        ",
"XXXXXXXX........XXXXXXXX........                                ........XXXXXXXX........                                        ",
"XXXXXXXX........XXXXXXXX........                                ........XXXXXXXX........                                        ",
"XXXXXXXX........XXXXXXXX........                                ........XXXXXXXX........                                        ",
"XXXXXXXX........XXXXXXXX........                                ........XXXXXXXX........                                        ",
"........XXXXXXXXXXXXXXXX                                        XXXXXXXX........                                        ........",
"........XXXXXXXXXXXXXXXX                                        XXXXXXXX........                                        ........",
"........XXXXXXXXXXXXXXXX                                        XXXXXXXX........                                        ........",
"........XXXXXXXXXXXXXXXX                                        XXXXXXXX........                                        ........",
"........XXXXXXXXXXXXXXXX                                        XXXXXXXX........                                        ........",
"........XXXXXXXXXXXXXXXX                                        XXXXXXXX........                                        ........",
"........XXXXXXXXXXXXXXXX                                        XXXXXXXX........                                        ........",
"........XXXXXXXXXXXXXXXX                                        XXXXXXXX........                                        ........",
"........XXXXXXXXoooooooo........                                XXXXXXXX                                                        ",
"........XXXXXXXXoooooooo........                                XXXXXXXX                                                        ",
"........XXXXXXXXoooooooo........                                XXXXXXXX                                                        ",
"........XXXXXXXXoooooooo........                                XXXXXXXX                                                        ",
"........XXXXXXXXoooooooo........                                XXXXXXXX                                                        ",
"........XXXXXXXXoooooooo........                                XXXXXXXX                                                        ",
"........XXXXXXXXoooooooo........                                XXXXXXXX                                                        ",
"........XXXXXXXXoooooooo........                                XXXXXXXX                                                        ",
"................XXXXXXXX........                                XXXXXXXX........                                                ",
"................XXXXXXXX........                                XXXXXXXX........                                                ",
"................XXXXXXXX........                                XXXXXXXX........                                                ",
"................XXXXXXXX........                                XXXXXXXX........                                                ",
"................XXXXXXXX........                                XXXXXXXX........                                                ",
"................XXXXXXXX........                                XXXXXXXX........                                                ",
"................XXXXXXXX........                                XXXXXXXX........                                                ",
"................XXXXXXXX........                                XXXXXXXX........                                                ",
"XXXXXXXX................XXXXXXXX                                ........XXXXXXXX........                        XXXXXXXX........",
"XXXXXXXX................XXXXXXXX                                ........XXXXXXXX........                        XXXXXXXX........",
"XXXXXXXX................XXXXXXXX                                ........XXXXXXXX........                        XXXXXXXX........",
"XXXXXXXX................XXXXXXXX                                ........XXXXXXXX........                        XXXXXXXX........",
"XXXXXXXX................XXXXXXXX                                ........XXXXXXXX........                        XXXXXXXX........",
"XXXXXXXX................XXXXXXXX                                ........XXXXXXXX........                        XXXXXXXX........",
"XXXXXXXX................XXXXXXXX                                ........XXXXXXXX........                        XXXXXXXX........",
"XXXXXXXX................XXXXXXXX                                ........XXXXXXXX........                        XXXXXXXX........",
"................        ........XXXXXXXX        ........                XXXXXXXX........                XXXXXXXXooooooooXXXXXXXX",
"................        ........XXXXXXXX        ........                XXXXXXXX........                XXXXXXXXooooooooXXXXXXXX",
"................        ........XXXXXXXX        ........                XXXXXXXX........                XXXXXXXXooooooooXXXXXXXX",
"................        ........XXXXXXXX        ........                XXXXXXXX........                XXXXXXXXooooooooXXXXXXXX",
"................        ........XXXXXXXX        ........                XXXXXXXX........                XXXXXXXXooooooooXXXXXXXX",
"................        ........XXXXXXXX        ........                XXXXXXXX........                XXXXXXXXooooooooXXXXXXXX",
"................        ........XXXXXXXX        ........                XXXXXXXX........                XXXXXXXXooooooooXXXXXXXX",
"................        ........XXXXXXXX        ........                XXXXXXXX........                XXXXXXXXooooooooXXXXXXXX",
"                ........XXXXXXXXooooooooXXXXXXXXXXXXXXXX................        XXXXXXXXXXXXXXXX................XXXXXXXXXXXXXXXX",
"                ........XXXXXXXXooooooooXXXXXXXXXXXXXXXX................        XXXXXXXXXXXXXXXX................XXXXXXXXXXXXXXXX",
"                ........XXXXXXXXooooooooXXXXXXXXXXXXXXXX................        XXXXXXXXXXXXXXXX................XXXXXXXXXXXXXXXX",
"                ........XXXXXXXXooooooooXXXXXXXXXXXXXXXX................        XXXXXXXXXXXXXXXX................XXXXXXXXXXXXXXXX",
"                ........XXXXXXXXooooooooXXXXXXXXXXXXXXXX................        XXXXXXXXXXXXXXXX................XXXXXXXXXXXXXXXX",
"                ........XXXXXXXXooooooooXXXXXXXXXXXXXXXX................        XXXXXXXXXXXXXXXX................XXXXXXXXXXXXXXXX",
"                ........XXXXXXXXooooooooXXXXXXXXXXXXXXXX................        XXXXXXXXXXXXXXXX................XXXXXXXXXXXXXXXX",
"                ........XXXXXXXXooooooooXXXXXXXXXXXXXXXX................        XXXXXXXXXXXXXXXX................XXXXXXXXXXXXXXXX",
"                        XXXXXXXXXXXXXXXX................        ........................XXXXXXXX........XXXXXXXX                ",
"                        XXXXXXXXXXXXXXXX................        ........................XXXXXXXX........XXXXXXXX                ",
"                        XXXXXXXXXXXXXXXX................        ........................XXXXXXXX........XXXXXXXX                ",
"                        XXXXXXXXXXXXXXXX................        ........................XXXXXXXX........XXXXXXXX                ",
"                        XXXXXXXXXXXXXXXX................        ........................XXXXXXXX........XXXXXXXX                ",
"                        XXXXXXXXXXXXXXXX................        ........................XXXXXXXX........XXXXXXXX                ",
"                        XXXXXXXXXXXXXXXX................        ........................XXXXXXXX........XXXXXXXX                ",
"                        XXXXXXXXXXXXXXXX................        ........................XXXXXXXX........XXXXXXXX                ",
"                        ........                        ........XXXXXXXX........        ................                        ",
"                        ........                        ........XXXXXXXX........        ................                        ",
"                        ........                        ........XXXXXXXX........        ................                        ",
"                        ........                        ........XXXXXXXX........        ................                        ",
"                        ........                        ........XXXXXXXX........        ................                        ",
"                        ........                        ........XXXXXXXX........        ................                        ",
"                        ........                        ........XXXXXXXX........        ................                        ",
"                        ........                        ........XXXXXXXX........        ................                        ",
"                ........                        ........oooooooo                ........................                        ",
"                ........                        ........oooooooo                ........................                        ",
"                ........                        ........oooooooo                ........................                        ",
"                ........                        ........oooooooo                ........................                        ",
"                ........                        ........oooooooo                ........................                        ",
"                ........                        ........oooooooo                ........................                        ",
"                ........                        ........oooooooo                ........................                        ",
"                ........                        ........oooooooo                ........................                        "
};
