/* XPM */
static char *out[] = {
/* columns rows colors chars-per-pixel */
"128 128 4 1 ",
"  c #D6634A",
". c #ED8453",
"X c #F7B65F",
"o c #FFE169",
/* pixels */
"                                        ........XXXXXXXXooooooooXXXXXXXXXXXXXXXX........        ................................",
"                                        ........XXXXXXXXooooooooXXXXXXXXXXXXXXXX........        ................................",
"                                        ........XXXXXXXXooooooooXXXXXXXXXXXXXXXX........        ................................",
"                                        ........XXXXXXXXooooooooXXXXXXXXXXXXXXXX........        ................................",
"                                        ........XXXXXXXXooooooooXXXXXXXXXXXXXXXX........        ................................",
"                                        ........XXXXXXXXooooooooXXXXXXXXXXXXXXXX........        ................................",
"                                        ........XXXXXXXXooooooooXXXXXXXXXXXXXXXX........        ................................",
"                                        ........XXXXXXXXooooooooXXXXXXXXXXXXXXXX........        ................................",
"                                        ........                ........XXXXXXXXooooooooXXXXXXXX        ........        ........",
"                                        ........                ........XXXXXXXXooooooooXXXXXXXX        ........        ........",
"                                        ........                ........XXXXXXXXooooooooXXXXXXXX        ........        ........",
"                                        ........                ........XXXXXXXXooooooooXXXXXXXX        ........        ........",
"                                        ........                ........XXXXXXXXooooooooXXXXXXXX        ........        ........",
"                                        ........                ........XXXXXXXXooooooooXXXXXXXX        ........        ........",
"                                        ........                ........XXXXXXXXooooooooXXXXXXXX        ........        ........",
"                                        ........                ........XXXXXXXXooooooooXXXXXXXX        ........        ........",
"........                                        ........                        ........XXXXXXXX........................        ",
"........                                        ........                        ........XXXXXXXX........................        ",
"........                                        ........                        ........XXXXXXXX........................        ",
"........                                        ........                        ........XXXXXXXX........................        ",
"........                                        ........                        ........XXXXXXXX........................        ",
"........                                        ........                        ........XXXXXXXX........................        ",
"........                                        ........                        ........XXXXXXXX........................        ",
"........                                        ........                        ........XXXXXXXX........................        ",
"                                        ........                ................        ................XXXXXXXX........        ",
"                                        ........                ................        ................XXXXXXXX........        ",
"                                        ........                ................        ................XXXXXXXX........        ",
"                                        ........                ................        ................XXXXXXXX........        ",
"                                        ........                ................        ................XXXXXXXX........        ",
"                                        ........                ................        ................XXXXXXXX........        ",
"                                        ........                ................        ................XXXXXXXX........        ",
"                                        ........                ................        ................XXXXXXXX........        ",
"                        ........                                XXXXXXXX........                XXXXXXXX        ................",
"                        ........                                XXXXXXXX........                XXXXXXXX        ................",
"                        ........                                XXXXXXXX........                XXXXXXXX        ................",
"                        ........                                XXXXXXXX........                XXXXXXXX        ................",
"                        ........                                XXXXXXXX........                XXXXXXXX        ................",
"                        ........                                XXXXXXXX........                XXXXXXXX        ................",
"                        ........                                XXXXXXXX........                XXXXXXXX        ................",
"                        ........                                XXXXXXXX........                XXXXXXXX        ................",
"                        ........                                        ........                XXXXXXXXoooooooo........XXXXXXXX",
"                        ........                                        ........                XXXXXXXXoooooooo........XXXXXXXX",
"                        ........                                        ........                XXXXXXXXoooooooo........XXXXXXXX",
"                        ........                                        ........                XXXXXXXXoooooooo........XXXXXXXX",
"                        ........                                        ........                XXXXXXXXoooooooo........XXXXXXXX",
"                        ........                                        ........                XXXXXXXXoooooooo........XXXXXXXX",
"                        ........                                        ........                XXXXXXXXoooooooo........XXXXXXXX",
"                        ........                                        ........                XXXXXXXXoooooooo........XXXXXXXX",
"                                                                                                ........XXXXXXXX........        ",
"                                                                                                ........XXXXXXXX........        ",
"                                                                                                ........XXXXXXXX........        ",
"                                                                                                ........XXXXXXXX........        ",
"                                                                                                ........XXXXXXXX........        ",
"                                                                                                ........XXXXXXXX........        ",
"                                                                                                ........XXXXXXXX........        ",
"                                                                                                ........XXXXXXXX........        ",
"                XXXXXXXX        XXXXXXXX        ........                        XXXXXXXX                ........................",
"                XXXXXXXX        XXXXXXXX        ........                        XXXXXXXX                ........................",
"                XXXXXXXX        XXXXXXXX        ........                        XXXXXXXX                ........................",
"                XXXXXXXX        XXXXXXXX        ........                        XXXXXXXX                ........................",
"                XXXXXXXX        XXXXXXXX        ........                        XXXXXXXX                ........................",
"                XXXXXXXX        XXXXXXXX        ........                        XXXXXXXX                ........................",
"                XXXXXXXX        XXXXXXXX        ........                        XXXXXXXX                ........................",
"                XXXXXXXX        XXXXXXXX        ........                        XXXXXXXX                ........................",
"........XXXXXXXX                ........                ........        XXXXXXXX........                                        ",
"........XXXXXXXX                ........                ........        XXXXXXXX........                                        ",
"........XXXXXXXX                ........                ........        XXXXXXXX........                                        ",
"........XXXXXXXX                ........                ........        XXXXXXXX........                                        ",
"........XXXXXXXX                ........                ........        XXXXXXXX........                                        ",
"........XXXXXXXX                ........                ........        XXXXXXXX........                                        ",
"........XXXXXXXX                ........                ........        XXXXXXXX........                                        ",
"........XXXXXXXX                ........                ........        XXXXXXXX........                                        ",
"                                        ................        XXXXXXXXoooooooo........                                        ",
"                                        ................        XXXXXXXXoooooooo........                                        ",
"                                        ................        XXXXXXXXoooooooo........                                        ",
"                                        ................        XXXXXXXXoooooooo........                                        ",
"                                        ................        XXXXXXXXoooooooo........                                        ",
"                                        ................        XXXXXXXXoooooooo........                                        ",
"                                        ................        XXXXXXXXoooooooo........                                        ",
"                                        ................        XXXXXXXXoooooooo........                                        ",
"                                                ........................                                        XXXXXXXX........",
"                                                ........................                                        XXXXXXXX........",
"                                                ........................                                        XXXXXXXX........",
"                                                ........................                                        XXXXXXXX........",
"                                                ........................                                        XXXXXXXX........",
"                                                ........................                                        XXXXXXXX........",
"                                                ........................                                        XXXXXXXX........",
"                                                ........................                                        XXXXXXXX........",
"XXXXXXXX........                                        ........                                                ................",
"XXXXXXXX........                                        ........                                                ................",
"XXXXXXXX........                                        ........                                                ................",
"XXXXXXXX........                                        ........                                                ................",
"XXXXXXXX........                                        ........                                                ................",
"XXXXXXXX........                                        ........                                                ................",
"XXXXXXXX........                                        ........                                                ................",
"XXXXXXXX........                                        ........                                                ................",
"........XXXXXXXX................                ........XXXXXXXX                ........                ........                ",
"........XXXXXXXX................                ........XXXXXXXX                ........                ........                ",
"........XXXXXXXX................                ........XXXXXXXX                ........                ........                ",
"........XXXXXXXX................                ........XXXXXXXX                ........                ........                ",
"........XXXXXXXX................                ........XXXXXXXX                ........                ........                ",
"........XXXXXXXX................                ........XXXXXXXX                ........                ........                ",
"........XXXXXXXX................                ........XXXXXXXX                ........                ........                ",
"........XXXXXXXX................                ........XXXXXXXX                ........                ........                ",
"        ........XXXXXXXX        ........ooooooooXXXXXXXX........                        ........XXXXXXXX                        ",
"        ........XXXXXXXX        ........ooooooooXXXXXXXX........                        ........XXXXXXXX                        ",
"        ........XXXXXXXX        ........ooooooooXXXXXXXX........                        ........XXXXXXXX                        ",
"        ........XXXXXXXX        ........ooooooooXXXXXXXX........                        ........XXXXXXXX                        ",
"        ........XXXXXXXX        ........ooooooooXXXXXXXX........                        ........XXXXXXXX                        ",
"        ........XXXXXXXX        ........ooooooooXXXXXXXX........                        ........XXXXXXXX                        ",
"        ........XXXXXXXX        ........ooooooooXXXXXXXX........                        ........XXXXXXXX                        ",
"        ........XXXXXXXX        ........ooooooooXXXXXXXX........                        ........XXXXXXXX                        ",
"                ................XXXXXXXXXXXXXXXX        XXXXXXXX........                XXXXXXXX                                ",
"                ................XXXXXXXXXXXXXXXX        XXXXXXXX........                XXXXXXXX                                ",
"                ................XXXXXXXXXXXXXXXX        XXXXXXXX........                XXXXXXXX                                ",
"                ................XXXXXXXXXXXXXXXX        XXXXXXXX........                XXXXXXXX                                ",
"                ................XXXXXXXXXXXXXXXX        XXXXXXXX........                XXXXXXXX                                ",
"                ................XXXXXXXXXXXXXXXX        XXXXXXXX........                XXXXXXXX                                ",
"                ................XXXXXXXXXXXXXXXX        XXXXXXXX........                XXXXXXXX                                ",
"                ................XXXXXXXXXXXXXXXX        XXXXXXXX........                XXXXXXXX                                ",
"........                                        ........XXXXXXXXXXXXXXXX........................XXXXXXXX                        ",
"........                                        ........XXXXXXXXXXXXXXXX........................XXXXXXXX                        ",
"........                                        ........XXXXXXXXXXXXXXXX........................XXXXXXXX                        ",
"........                                        ........XXXXXXXXXXXXXXXX........................XXXXXXXX                        ",
"........                                        ........XXXXXXXXXXXXXXXX........................XXXXXXXX                        ",
"........                                        ........XXXXXXXXXXXXXXXX........................XXXXXXXX                        ",
"........                                        ........XXXXXXXXXXXXXXXX........................XXXXXXXX                        ",
"........                                        ........XXXXXXXXXXXXXXXX........................XXXXXXXX                        "
};
