/* XPM */
static char *out[] = {
/* columns rows colors chars-per-pixel */
"128 128 4 1 ",
"  c #D6634A",
". c #ED8453",
"X c #F7B65F",
"o c #FFE169",
/* pixels */
"                                                        ooooooooXXXXXXXX........        XXXXXXXXoooooooo........                ",
"                                                        ooooooooXXXXXXXX........        XXXXXXXXoooooooo........                ",
"                                                        ooooooooXXXXXXXX........        XXXXXXXXoooooooo........                ",
"                                                        ooooooooXXXXXXXX........        XXXXXXXXoooooooo........                ",
"                                                        ooooooooXXXXXXXX........        XXXXXXXXoooooooo........                ",
"                                                        ooooooooXXXXXXXX........        XXXXXXXXoooooooo........                ",
"                                                        ooooooooXXXXXXXX........        XXXXXXXXoooooooo........                ",
"                                                        ooooooooXXXXXXXX........        XXXXXXXXoooooooo........                ",
"        ........                        ........XXXXXXXX        XXXXXXXX................        ........oooooooo........        ",
"        ........                        ........XXXXXXXX        XXXXXXXX................        ........oooooooo........        ",
"        ........                        ........XXXXXXXX        XXXXXXXX................        ........oooooooo........        ",
"        ........                        ........XXXXXXXX        XXXXXXXX................        ........oooooooo........        ",
"        ........                        ........XXXXXXXX        XXXXXXXX................        ........oooooooo........        ",
"        ........                        ........XXXXXXXX        XXXXXXXX................        ........oooooooo........        ",
"        ........                        ........XXXXXXXX        XXXXXXXX................        ........oooooooo........        ",
"        ........                        ........XXXXXXXX        XXXXXXXX................        ........oooooooo........        ",
"XXXXXXXX                ........XXXXXXXX........                        XXXXXXXX........                ........XXXXXXXX........",
"XXXXXXXX                ........XXXXXXXX........                        XXXXXXXX........                ........XXXXXXXX........",
"XXXXXXXX                ........XXXXXXXX........                        XXXXXXXX........                ........XXXXXXXX........",
"XXXXXXXX                ........XXXXXXXX........                        XXXXXXXX........                ........XXXXXXXX........",
"XXXXXXXX                ........XXXXXXXX........                        XXXXXXXX........                ........XXXXXXXX........",
"XXXXXXXX                ........XXXXXXXX........                        XXXXXXXX........                ........XXXXXXXX........",
"XXXXXXXX                ........XXXXXXXX........                        XXXXXXXX........                ........XXXXXXXX........",
"XXXXXXXX                ........XXXXXXXX........                        XXXXXXXX........                ........XXXXXXXX........",
"........XXXXXXXXXXXXXXXXXXXXXXXXooooooooXXXXXXXX                        ........                                ................",
"........XXXXXXXXXXXXXXXXXXXXXXXXooooooooXXXXXXXX                        ........                                ................",
"........XXXXXXXXXXXXXXXXXXXXXXXXooooooooXXXXXXXX                        ........                                ................",
"........XXXXXXXXXXXXXXXXXXXXXXXXooooooooXXXXXXXX                        ........                                ................",
"........XXXXXXXXXXXXXXXXXXXXXXXXooooooooXXXXXXXX                        ........                                ................",
"........XXXXXXXXXXXXXXXXXXXXXXXXooooooooXXXXXXXX                        ........                                ................",
"........XXXXXXXXXXXXXXXXXXXXXXXXooooooooXXXXXXXX                        ........                                ................",
"........XXXXXXXXXXXXXXXXXXXXXXXXooooooooXXXXXXXX                        ........                                ................",
"........        XXXXXXXXXXXXXXXXooooooooXXXXXXXX........................                ........                                ",
"........        XXXXXXXXXXXXXXXXooooooooXXXXXXXX........................                ........                                ",
"........        XXXXXXXXXXXXXXXXooooooooXXXXXXXX........................                ........                                ",
"........        XXXXXXXXXXXXXXXXooooooooXXXXXXXX........................                ........                                ",
"........        XXXXXXXXXXXXXXXXooooooooXXXXXXXX........................                ........                                ",
"........        XXXXXXXXXXXXXXXXooooooooXXXXXXXX........................                ........                                ",
"........        XXXXXXXXXXXXXXXXooooooooXXXXXXXX........................                ........                                ",
"........        XXXXXXXXXXXXXXXXooooooooXXXXXXXX........................                ........                                ",
"........                XXXXXXXX        XXXXXXXX................                                ........                        ",
"........                XXXXXXXX        XXXXXXXX................                                ........                        ",
"........                XXXXXXXX        XXXXXXXX................                                ........                        ",
"........                XXXXXXXX        XXXXXXXX................                                ........                        ",
"........                XXXXXXXX        XXXXXXXX................                                ........                        ",
"........                XXXXXXXX        XXXXXXXX................                                ........                        ",
"........                XXXXXXXX        XXXXXXXX................                                ........                        ",
"........                XXXXXXXX        XXXXXXXX................                                ........                        ",
"                        XXXXXXXX........        ........        ........                        XXXXXXXX................XXXXXXXX",
"                        XXXXXXXX........        ........        ........                        XXXXXXXX................XXXXXXXX",
"                        XXXXXXXX........        ........        ........                        XXXXXXXX................XXXXXXXX",
"                        XXXXXXXX........        ........        ........                        XXXXXXXX................XXXXXXXX",
"                        XXXXXXXX........        ........        ........                        XXXXXXXX................XXXXXXXX",
"                        XXXXXXXX........        ........        ........                        XXXXXXXX................XXXXXXXX",
"                        XXXXXXXX........        ........        ........                        XXXXXXXX................XXXXXXXX",
"                        XXXXXXXX........        ........        ........                        XXXXXXXX................XXXXXXXX",
"                        ........XXXXXXXX................XXXXXXXX................                ................XXXXXXXX........",
"                        ........XXXXXXXX................XXXXXXXX................                ................XXXXXXXX........",
"                        ........XXXXXXXX................XXXXXXXX................                ................XXXXXXXX........",
"                        ........XXXXXXXX................XXXXXXXX................                ................XXXXXXXX........",
"                        ........XXXXXXXX................XXXXXXXX................                ................XXXXXXXX........",
"                        ........XXXXXXXX................XXXXXXXX................                ................XXXXXXXX........",
"                        ........XXXXXXXX................XXXXXXXX................                ................XXXXXXXX........",
"                        ........XXXXXXXX................XXXXXXXX................                ................XXXXXXXX........",
"        ........XXXXXXXX        XXXXXXXXXXXXXXXXXXXXXXXX        ........................XXXXXXXX        ........................",
"        ........XXXXXXXX        XXXXXXXXXXXXXXXXXXXXXXXX        ........................XXXXXXXX        ........................",
"        ........XXXXXXXX        XXXXXXXXXXXXXXXXXXXXXXXX        ........................XXXXXXXX        ........................",
"        ........XXXXXXXX        XXXXXXXXXXXXXXXXXXXXXXXX        ........................XXXXXXXX        ........................",
"        ........XXXXXXXX        XXXXXXXXXXXXXXXXXXXXXXXX        ........................XXXXXXXX        ........................",
"        ........XXXXXXXX        XXXXXXXXXXXXXXXXXXXXXXXX        ........................XXXXXXXX        ........................",
"        ........XXXXXXXX        XXXXXXXXXXXXXXXXXXXXXXXX        ........................XXXXXXXX        ........................",
"        ........XXXXXXXX        XXXXXXXXXXXXXXXXXXXXXXXX        ........................XXXXXXXX        ........................",
"........XXXXXXXX                        ooooooooXXXXXXXX                ooooooooXXXXXXXX........                ........XXXXXXXX",
"........XXXXXXXX                        ooooooooXXXXXXXX                ooooooooXXXXXXXX........                ........XXXXXXXX",
"........XXXXXXXX                        ooooooooXXXXXXXX                ooooooooXXXXXXXX........                ........XXXXXXXX",
"........XXXXXXXX                        ooooooooXXXXXXXX                ooooooooXXXXXXXX........                ........XXXXXXXX",
"........XXXXXXXX                        ooooooooXXXXXXXX                ooooooooXXXXXXXX........                ........XXXXXXXX",
"........XXXXXXXX                        ooooooooXXXXXXXX                ooooooooXXXXXXXX........                ........XXXXXXXX",
"........XXXXXXXX                        ooooooooXXXXXXXX                ooooooooXXXXXXXX........                ........XXXXXXXX",
"........XXXXXXXX                        ooooooooXXXXXXXX                ooooooooXXXXXXXX........                ........XXXXXXXX",
"XXXXXXXXXXXXXXXX                XXXXXXXXXXXXXXXXooooooooXXXXXXXX        XXXXXXXX........                                ........",
"XXXXXXXXXXXXXXXX                XXXXXXXXXXXXXXXXooooooooXXXXXXXX        XXXXXXXX........                                ........",
"XXXXXXXXXXXXXXXX                XXXXXXXXXXXXXXXXooooooooXXXXXXXX        XXXXXXXX........                                ........",
"XXXXXXXXXXXXXXXX                XXXXXXXXXXXXXXXXooooooooXXXXXXXX        XXXXXXXX........                                ........",
"XXXXXXXXXXXXXXXX                XXXXXXXXXXXXXXXXooooooooXXXXXXXX        XXXXXXXX........                                ........",
"XXXXXXXXXXXXXXXX                XXXXXXXXXXXXXXXXooooooooXXXXXXXX        XXXXXXXX........                                ........",
"XXXXXXXXXXXXXXXX                XXXXXXXXXXXXXXXXooooooooXXXXXXXX        XXXXXXXX........                                ........",
"XXXXXXXXXXXXXXXX                XXXXXXXXXXXXXXXXooooooooXXXXXXXX        XXXXXXXX........                                ........",
"ooooooooXXXXXXXXXXXXXXXX                ........XXXXXXXXXXXXXXXX        ........                        ........                ",
"ooooooooXXXXXXXXXXXXXXXX                ........XXXXXXXXXXXXXXXX        ........                        ........                ",
"ooooooooXXXXXXXXXXXXXXXX                ........XXXXXXXXXXXXXXXX        ........                        ........                ",
"ooooooooXXXXXXXXXXXXXXXX                ........XXXXXXXXXXXXXXXX        ........                        ........                ",
"ooooooooXXXXXXXXXXXXXXXX                ........XXXXXXXXXXXXXXXX        ........                        ........                ",
"ooooooooXXXXXXXXXXXXXXXX                ........XXXXXXXXXXXXXXXX        ........                        ........                ",
"ooooooooXXXXXXXXXXXXXXXX                ........XXXXXXXXXXXXXXXX        ........                        ........                ",
"ooooooooXXXXXXXXXXXXXXXX                ........XXXXXXXXXXXXXXXX        ........                        ........                ",
"........XXXXXXXX        ........        ........................XXXXXXXX                                                        ",
"........XXXXXXXX        ........        ........................XXXXXXXX                                                        ",
"........XXXXXXXX        ........        ........................XXXXXXXX                                                        ",
"........XXXXXXXX        ........        ........................XXXXXXXX                                                        ",
"........XXXXXXXX        ........        ........................XXXXXXXX                                                        ",
"........XXXXXXXX        ........        ........................XXXXXXXX                                                        ",
"........XXXXXXXX        ........        ........................XXXXXXXX                                                        ",
"........XXXXXXXX        ........        ........................XXXXXXXX                                                        ",
"        XXXXXXXX........                        ................................                                                ",
"        XXXXXXXX........                        ................................                                                ",
"        XXXXXXXX........                        ................................                                                ",
"        XXXXXXXX........                        ................................                                                ",
"        XXXXXXXX........                        ................................                                                ",
"        XXXXXXXX........                        ................................                                                ",
"        XXXXXXXX........                        ................................                                                ",
"        XXXXXXXX........                        ................................                                                ",
"        ........XXXXXXXX                                ........        XXXXXXXX        ........                                ",
"        ........XXXXXXXX                                ........        XXXXXXXX        ........                                ",
"        ........XXXXXXXX                                ........        XXXXXXXX        ........                                ",
"        ........XXXXXXXX                                ........        XXXXXXXX        ........                                ",
"        ........XXXXXXXX                                ........        XXXXXXXX        ........                                ",
"        ........XXXXXXXX                                ........        XXXXXXXX        ........                                ",
"        ........XXXXXXXX                                ........        XXXXXXXX        ........                                ",
"        ........XXXXXXXX                                ........        XXXXXXXX        ........                                ",
"................................                                XXXXXXXX................XXXXXXXX        ........                ",
"................................                                XXXXXXXX................XXXXXXXX        ........                ",
"................................                                XXXXXXXX................XXXXXXXX        ........                ",
"................................                                XXXXXXXX................XXXXXXXX        ........                ",
"................................                                XXXXXXXX................XXXXXXXX        ........                ",
"................................                                XXXXXXXX................XXXXXXXX        ........                ",
"................................                                XXXXXXXX................XXXXXXXX        ........                ",
"................................                                XXXXXXXX................XXXXXXXX        ........                "
};
