/* XPM */
static char *rcp02045711142682[] = {
/* columns rows colors chars-per-pixel */
"64 64 5 1 ",
"  c #222222",
". c #483B3A",
"X c #775C55",
"o c #AA8D7A",
"O c #D3BFA9",
/* pixels */
"        ....XXXX    ........XXXX    ........XXXX    ........XXXX",
"        ....XXXX    ........XXXX    ........XXXX    ........XXXX",
"        ....XXXX    ........XXXX    ........XXXX    ........XXXX",
"        ....XXXX    ........XXXX    ........XXXX    ........XXXX",
"    ........XXXX                    ........XXXX    ........XXXX",
"    ........XXXX                    ........XXXX    ........XXXX",
"    ........XXXX                    ........XXXX    ........XXXX",
"    ........XXXX                    ........XXXX    ........XXXX",
"    ........XXXX    ........        ........XXXX    ........XXXX",
"    ........XXXX    ........        ........XXXX    ........XXXX",
"    ........XXXX    ........        ........XXXX    ........XXXX",
"    ........XXXX    ........        ........XXXX    ........XXXX",
"                    ........XXXX                    ........XXXX",
"                    ........XXXX                    ........XXXX",
"                    ........XXXX                    ........XXXX",
"                    ........XXXX                    ........XXXX",
"    ........XXXX    ........XXXX        ....XXXX        ....XXXX",
"    ........XXXX    ........XXXX        ....XXXX        ....XXXX",
"    ........XXXX    ........XXXX        ....XXXX        ....XXXX",
"    ........XXXX    ........XXXX        ....XXXX        ....XXXX",
"    ........XXXX    ........XXXX    ........XXXX                ",
"    ........XXXX    ........XXXX    ........XXXX                ",
"    ........XXXX    ........XXXX    ........XXXX                ",
"    ........XXXX    ........XXXX    ........XXXX                ",
"    ........XXXX    ........XXXX    ........XXXX    ........XXXX",
"    ........XXXX    ........XXXX    ........XXXX    ........XXXX",
"    ........XXXX    ........XXXX    ........XXXX    ........XXXX",
"    ........XXXX    ........XXXX    ........XXXX    ........XXXX",
"    ........XXXX                    ........XXXX    ........XXXX",
"    ........XXXX                    ........XXXX    ........XXXX",
"    ........XXXX                    ........XXXX    ........XXXX",
"    ........XXXX                    ........XXXX    ........XXXX",
"        ....XXXX    ........XXXX    ........XXXX    ........XXXX",
"        ....XXXX    ........XXXX    ........XXXX    ........XXXX",
"        ....XXXX    ........XXXX    ........XXXX    ........XXXX",
"        ....XXXX    ........XXXX    ........XXXX    ........XXXX",
"    ........XXXX    ........XXXX    ........XXXX    ........XXXX",
"    ........XXXX    ........XXXX    ........XXXX    ........XXXX",
"    ........XXXX    ........XXXX    ........XXXX    ........XXXX",
"    ........XXXX    ........XXXX    ........XXXX    ........XXXX",
"    ........XXXX    ........XXXX    ........XXXX    ........XXXX",
"    ........XXXX    ........XXXX    ........XXXX    ........XXXX",
"    ........XXXX    ........XXXX    ........XXXX    ........XXXX",
"    ........XXXX    ........XXXX    ........XXXX    ........XXXX",
"                                                                ",
"                                                                ",
"                                                                ",
"                                                                ",
"oooooooooooooooooooo    OOOOoooooooooooooooooooo    OOOOoooooooo",
"oooooooooooooooooooo    OOOOoooooooooooooooooooo    OOOOoooooooo",
"oooooooooooooooooooo    OOOOoooooooooooooooooooo    OOOOoooooooo",
"oooooooooooooooooooo    OOOOoooooooooooooooooooo    OOOOoooooooo",
"oooooooooooooooooooo    OOOOoooooooooooooooooooo    OOOOoooooooo",
"oooooooooooooooooooo    OOOOoooooooooooooooooooo    OOOOoooooooo",
"oooooooooooooooooooo    OOOOoooooooooooooooooooo    OOOOoooooooo",
"oooooooooooooooooooo    OOOOoooooooooooooooooooo    OOOOoooooooo",
"oooooooooooooooooooo    OOOOoooooooooooooooooooo    OOOOoooooooo",
"oooooooooooooooooooo    OOOOoooooooooooooooooooo    OOOOoooooooo",
"oooooooooooooooooooo    OOOOoooooooooooooooooooo    OOOOoooooooo",
"oooooooooooooooooooo    OOOOoooooooooooooooooooo    OOOOoooooooo",
"                                                                ",
"                                                                ",
"                                                                ",
"                                                                "
};
