/* XPM */
static char *rcp0205038923229[] = {
/* columns rows colors chars-per-pixel */
"64 64 5 1 ",
"  c #222222",
". c #483B3A",
"X c #775C55",
"o c #AA8D7A",
"O c #D3BFA9",
/* pixels */
"XXXXXXXXXXXXXXXXXXXX    XXXXXXXXXXXXXXXXXXXX    oooooooooooo    ",
"XXXXXXXXXXXXXXXXXXXX    XXXXXXXXXXXXXXXXXXXX    oooooooooooo    ",
"XXXXXXXXXXXXXXXXXXXX    XXXXXXXXXXXXXXXXXXXX    oooooooooooo    ",
"XXXXXXXXXXXXXXXXXXXX    XXXXXXXXXXXXXXXXXXXX    oooooooooooo    ",
"....................    ....................    oooooooooooo    ",
"....................    ....................    oooooooooooo    ",
"....................    ....................    oooooooooooo    ",
"....................    ....................    oooooooooooo    ",
"................        ....................    OOOOOOOOOOOO    ",
"................        ....................    OOOOOOOOOOOO    ",
"................        ....................    OOOOOOOOOOOO    ",
"................        ....................    OOOOOOOOOOOO    ",
"                                                                ",
"                                                                ",
"                                                                ",
"                                                                ",
"XXXXXXXXXXXX    XXXXXXXXXXXXXXXXXXXXXXXXXXXX    oooooooooooo    ",
"XXXXXXXXXXXX    XXXXXXXXXXXXXXXXXXXXXXXXXXXX    oooooooooooo    ",
"XXXXXXXXXXXX    XXXXXXXXXXXXXXXXXXXXXXXXXXXX    oooooooooooo    ",
"XXXXXXXXXXXX    XXXXXXXXXXXXXXXXXXXXXXXXXXXX    oooooooooooo    ",
"............    ............................    oooooooooooo    ",
"............    ............................    oooooooooooo    ",
"............    ............................    oooooooooooo    ",
"............    ............................    oooooooooooo    ",
"............        ........................    oooooooooooo    ",
"............        ........................    oooooooooooo    ",
"............        ........................    oooooooooooo    ",
"............        ........................    oooooooooooo    ",
"                                                oooooooooooo    ",
"                                                oooooooooooo    ",
"                                                oooooooooooo    ",
"                                                oooooooooooo    ",
"XXXX        XXXXXXXXXXXXXXXX    XXXXXXXXXXXX    oooooooooooo    ",
"XXXX        XXXXXXXXXXXXXXXX    XXXXXXXXXXXX    oooooooooooo    ",
"XXXX        XXXXXXXXXXXXXXXX    XXXXXXXXXXXX    oooooooooooo    ",
"XXXX        XXXXXXXXXXXXXXXX    XXXXXXXXXXXX    oooooooooooo    ",
"....    ....................    ............    OOOOOOOOOOOO    ",
"....    ....................    ............    OOOOOOOOOOOO    ",
"....    ....................    ............    OOOOOOOOOOOO    ",
"....    ....................    ............    OOOOOOOOOOOO    ",
"....    ....................    ............                    ",
"....    ....................    ............                    ",
"....    ....................    ............                    ",
"....    ....................    ............                    ",
"                                                oooooooooooo    ",
"                                                oooooooooooo    ",
"                                                oooooooooooo    ",
"                                                oooooooooooo    ",
"XXXXXXXXXXXX    XXXXXXXXXXXXXXXXXXXXXXXXXXXX    oooooooooooo    ",
"XXXXXXXXXXXX    XXXXXXXXXXXXXXXXXXXXXXXXXXXX    oooooooooooo    ",
"XXXXXXXXXXXX    XXXXXXXXXXXXXXXXXXXXXXXXXXXX    oooooooooooo    ",
"XXXXXXXXXXXX    XXXXXXXXXXXXXXXXXXXXXXXXXXXX    oooooooooooo    ",
"............    ............................    oooooooooooo    ",
"............    ............................    oooooooooooo    ",
"............    ............................    oooooooooooo    ",
"............    ............................    oooooooooooo    ",
"    ........    ................    ........    oooooooooooo    ",
"    ........    ................    ........    oooooooooooo    ",
"    ........    ................    ........    oooooooooooo    ",
"    ........    ................    ........    oooooooooooo    ",
"                                                oooooooooooo    ",
"                                                oooooooooooo    ",
"                                                oooooooooooo    ",
"                                                oooooooooooo    "
};
