/* XPM */
static char *rcp02050718984143[] = {
/* columns rows colors chars-per-pixel */
"64 64 5 1 ",
"  c #222222",
". c #483B3A",
"X c #775C55",
"o c #AA8D7A",
"O c #D3BFA9",
/* pixels */
"                                                                ",
"                                                                ",
"                                                                ",
"                                                                ",
"oooooooooooooooooooo    OOOOoooooooooooooooooooo    OOOOoooooooo",
"oooooooooooooooooooo    OOOOoooooooooooooooooooo    OOOOoooooooo",
"oooooooooooooooooooo    OOOOoooooooooooooooooooo    OOOOoooooooo",
"oooooooooooooooooooo    OOOOoooooooooooooooooooo    OOOOoooooooo",
"oooooooooooooooooooo    OOOOoooooooooooooooooooo    OOOOoooooooo",
"oooooooooooooooooooo    OOOOoooooooooooooooooooo    OOOOoooooooo",
"oooooooooooooooooooo    OOOOoooooooooooooooooooo    OOOOoooooooo",
"oooooooooooooooooooo    OOOOoooooooooooooooooooo    OOOOoooooooo",
"oooooooooooooooooooo    OOOOoooooooooooooooooooo    OOOOoooooooo",
"oooooooooooooooooooo    OOOOoooooooooooooooooooo    OOOOoooooooo",
"oooooooooooooooooooo    OOOOoooooooooooooooooooo    OOOOoooooooo",
"oooooooooooooooooooo    OOOOoooooooooooooooooooo    OOOOoooooooo",
"                                                                ",
"                                                                ",
"                                                                ",
"                                                                ",
"    ........XXXX    ....    XXXX    ........XXXX    ........XXXX",
"    ........XXXX    ....    XXXX    ........XXXX    ........XXXX",
"    ........XXXX    ....    XXXX    ........XXXX    ........XXXX",
"    ........XXXX    ....    XXXX    ........XXXX    ........XXXX",
"    ........XXXX    ........XXXX    ........XXXX    ........XXXX",
"    ........XXXX    ........XXXX    ........XXXX    ........XXXX",
"    ........XXXX    ........XXXX    ........XXXX    ........XXXX",
"    ........XXXX    ........XXXX    ........XXXX    ........XXXX",
"        ....XXXX    ........XXXX    ........XXXX        ....XXXX",
"        ....XXXX    ........XXXX    ........XXXX        ....XXXX",
"        ....XXXX    ........XXXX    ........XXXX        ....XXXX",
"        ....XXXX    ........XXXX    ........XXXX        ....XXXX",
"        ....XXXX    ........XXXX    ........XXXX    ........XXXX",
"        ....XXXX    ........XXXX    ........XXXX    ........XXXX",
"        ....XXXX    ........XXXX    ........XXXX    ........XXXX",
"        ....XXXX    ........XXXX    ........XXXX    ........XXXX",
"    ........XXXX                    ........XXXX    ........XXXX",
"    ........XXXX                    ........XXXX    ........XXXX",
"    ........XXXX                    ........XXXX    ........XXXX",
"    ........XXXX                    ........XXXX    ........XXXX",
"                    ........        ........XXXX                ",
"                    ........        ........XXXX                ",
"                    ........        ........XXXX                ",
"                    ........        ........XXXX                ",
"    ........XXXX    ........XXXX    ........XXXX    ........XXXX",
"    ........XXXX    ........XXXX    ........XXXX    ........XXXX",
"    ........XXXX    ........XXXX    ........XXXX    ........XXXX",
"    ........XXXX    ........XXXX    ........XXXX    ........XXXX",
"        ....XXXX    ........XXXX                        ....XXXX",
"        ....XXXX    ........XXXX                        ....XXXX",
"        ....XXXX    ........XXXX                        ....XXXX",
"        ....XXXX    ........XXXX                        ....XXXX",
"    ........XXXX    ........XXXX        ....XXXX    ........XXXX",
"    ........XXXX    ........XXXX        ....XXXX    ........XXXX",
"    ........XXXX    ........XXXX        ....XXXX    ........XXXX",
"    ........XXXX    ........XXXX        ....XXXX    ........XXXX",
"    ........XXXX    ........XXXX    ........XXXX    ........XXXX",
"    ........XXXX    ........XXXX    ........XXXX    ........XXXX",
"    ........XXXX    ........XXXX    ........XXXX    ........XXXX",
"    ........XXXX    ........XXXX    ........XXXX    ........XXXX",
"    ........XXXX    ........XXXX    ........XXXX    ........XXXX",
"    ........XXXX    ........XXXX    ........XXXX    ........XXXX",
"    ........XXXX    ........XXXX    ........XXXX    ........XXXX",
"    ........XXXX    ........XXXX    ........XXXX    ........XXXX"
};
