/* XPM */
static char *rcp0742504166299[] = {
/* columns rows colors chars-per-pixel */
"64 64 238 2 ",
"   c #060505",
".  c #0A0B0C",
"X  c #050808",
"o  c #150F0F",
"O  c #0C0F11",
"+  c #0C1818",
"@  c #141414",
"#  c #1C1C1B",
"$  c #151818",
"%  c #181210",
"&  c #211D1D",
"*  c #271B17",
"=  c #341C19",
"-  c #0C211A",
";  c #15211D",
":  c #1A231F",
">  c #2A221F",
",  c #26221E",
"<  c #141E21",
"1  c #1C1C27",
"2  c #0C1F20",
"3  c #271C26",
"4  c #331B2A",
"5  c #152222",
"6  c #1C2423",
"7  c #1C2924",
"8  c #232322",
"9  c #2A2526",
"0  c #232926",
"q  c #2B2927",
"w  c #2B2728",
"e  c #242A29",
"r  c #2C2929",
"t  c #232728",
"y  c #332525",
"u  c #3D2926",
"i  c #352329",
"p  c #3B242B",
"a  c #332D2C",
"s  c #362B26",
"d  c #35312F",
"f  c #3A302F",
"g  c #392531",
"h  c #283335",
"j  c #363231",
"k  c #3C3332",
"l  c #3F3835",
"z  c #26302E",
"x  c #55261F",
"c  c #692A1F",
"v  c #742A1E",
"b  c #59122C",
"n  c #6D1A32",
"m  c #4B2C27",
"M  c #43252D",
"N  c #482A29",
"B  c #552925",
"V  c #52312C",
"C  c #432331",
"Z  c #4C2332",
"A  c #442935",
"S  c #572536",
"D  c #423635",
"F  c #443837",
"G  c #463B3A",
"H  c #493B3A",
"J  c #4A3A37",
"K  c #5E3D37",
"L  c #4E302B",
"P  c #642923",
"I  c #683327",
"U  c #77352C",
"Y  c #64243B",
"T  c #6B253C",
"R  c #652B36",
"E  c #77273F",
"W  c #32403D",
"Q  c #59443E",
"!  c #4E403E",
"~  c #72453D",
"^  c #4E3946",
"/  c #6E2243",
"(  c #742443",
")  c #7B2643",
"_  c #7C2841",
"`  c #772844",
"'  c #7B304D",
"]  c #3C4342",
"[  c #454746",
"{  c #554746",
"}  c #5C5D5B",
"|  c #565755",
" . c #505654",
".. c #654A47",
"X. c #784C44",
"o. c #68524C",
"O. c #625956",
"+. c #765C55",
"@. c #715D58",
"#. c #785B55",
"$. c #754F4F",
"%. c #58615E",
"&. c #76635D",
"*. c #63625F",
"=. c #5F6563",
"-. c #666864",
";. c #7A7773",
":. c #756F6B",
">. c #84352D",
",. c #953122",
"<. c #9B3122",
"1. c #993839",
"2. c #8E2B38",
"3. c #AB3A29",
"4. c #A7362A",
"5. c #A73C3A",
"6. c #BF3B3F",
"7. c #932E1F",
"8. c #CD341D",
"9. c #D2361F",
"0. c #D63A22",
"q. c #C43F39",
"w. c #95422C",
"e. c #964637",
"r. c #A14232",
"t. c #AC4434",
"y. c #A74939",
"u. c #B24633",
"i. c #BA4533",
"p. c #B14938",
"a. c #B74837",
"s. c #AC472E",
"d. c #DE412A",
"f. c #C5433E",
"g. c #CC463D",
"h. c #C74833",
"j. c #D54B35",
"k. c #DA4E37",
"l. c #D44B3A",
"z. c #DA4E39",
"x. c #D3463F",
"c. c #DC5135",
"v. c #DE503A",
"b. c #D15131",
"n. c #E4452C",
"m. c #EB492D",
"M. c #E44B38",
"N. c #E35335",
"B. c #E5523B",
"V. c #E9543B",
"C. c #EA5437",
"Z. c #F35238",
"A. c #F84E35",
"S. c #832646",
"D. c #832942",
"F. c #8B2946",
"G. c #842749",
"H. c #922E44",
"J. c #9B274F",
"K. c #95294B",
"L. c #9E294E",
"P. c #94284B",
"I. c #9B2650",
"U. c #972653",
"Y. c #923146",
"T. c #A32B4D",
"R. c #AA2E4D",
"E. c #A42E44",
"W. c #B32F4E",
"Q. c #AC324B",
"!. c #A73346",
"~. c #B13547",
"^. c #BB3B43",
"/. c #B3324C",
"(. c #B9354A",
"). c #A22652",
"_. c #A52950",
"`. c #AA2A51",
"'. c #BA2B57",
"]. c #B73350",
"[. c #C43C46",
"{. c #D23753",
"}. c #CE3651",
"|. c #9A4F43",
" X c #945C51",
".X c #C54140",
"XX c #CD4242",
"oX c #D14343",
"OX c #D94545",
"+X c #D95E4D",
"@X c #E64943",
"#X c #F54F42",
"$X c #DD6C5A",
"%X c #DC715E",
"&X c #D6624F",
"*X c #EA6457",
"=X c #DC7461",
"-X c #E37865",
";X c #76817E",
":X c #AC847A",
">X c #EF8874",
",X c #EF8370",
"<X c #AF7C8D",
"1X c #D97D85",
"2X c #8B8986",
"3X c #938E87",
"4X c #9A938D",
"5X c #9A9792",
"6X c #8D9495",
"7X c #A7A39D",
"8X c #ABA6A0",
"9X c #AEA8A1",
"0X c #B9B5AE",
"qX c #B7B5AE",
"wX c #B18F85",
"eX c #D28BA5",
"rX c #C3BEB6",
"tX c #F0BDB5",
"yX c #E58791",
"uX c #C9C5BD",
"iX c #F2CABE",
"pX c #E9C5B8",
"aX c #CDD4CD",
"sX c #D9DBD4",
"dX c #D0CDC7",
"fX c #F8D6C8",
"gX c #E2DDD4",
"hX c #F6D5CB",
"jX c #E6E2DA",
"kX c #FBE4D8",
"lX c #F4DEE4",
"zX c #DFE6E0",
"xX c #E8E7E4",
"cX c #F9ECE3",
"vX c #FEFDFD",
"bX c #FBF7F4",
"nX c #FBF6EC",
"mX c #D3E3DA",
/* pixels */
"8 8 8 8 8 8 8 8 8 8 8 8 G H H G 8 8 8 8 8 8 8 8 8 8 8 8 8 8 8 , G H H H H H H H H H H G 8 8 8 , G H H G 8 8 8 8 8 8 8 8 8 8 8 8 ",
"8 8 8 8 8 8 8 8 8 8 8 8 G H H G 8 8 8 8 8 8 8 8 8 8 8 8 8 8 8 8 j D H H H H H H H H H G 8 8 8 8 G H H G 8 8 8 8 8 8 8 8 8 8 8 8 ",
"8 8 8 8 8 8 8 8 8 8 8 8 G H H G 8 8 8 8 8 8 8 8 8 8 8 8 8 8 8 8 w k H H H H H H H H H G 8 8 8 8 G H H G 8 8 8 8 8 8 8 8 8 8 8 8 ",
"8 8 8 8 8 8 8 8 8 8 8 8 G H H G 8 8 8 8 8 8 8 8 8 8 8 8 8 8 8 8 9 j H H H H D k k F H G 3 8 8 8 G H H G 8 8 8 8 8 8 8 8 , , , , ",
"8 8 8 8 G G G G G G G G H H H H G G G G G G G G G G l r r F l 9 9 j H H H H k r r D H H G G G G H H H H G G G G G G G H @.@.@.@.",
"8 8 8 8 G H H H H H H H H H H H H H H H H H H H G D a w r F F w w D H D F H k w 9 k H H H H H H H H H H H H H H H H H J @.#.#.#.",
"8 8 8 8 G H H H H H H H H H H H H H H H H H H H D a r w a G F w w D D a a F D w 8 k H H H H H H H H H H H H H H H H H J @.#.#.#.",
"8 8 8 8 G H H H H H H H H H H H H H H H H H H H D r 9 t e j j t t k j t t d j 9 9 l H H H H H H H H H H H H H H H H H J #.#.#.#.",
"G G G G H H H H H H H H H H H H H H H H H H H H l r 9 6 5 t 7 6 6 e 0 5 5 7 e 7 e D H H H H H H H H H H H H H H H H H J #.#.#.#.",
"H H H H H H H H H H H H H H G G H H H H H H H H l w 9 w y y y 9 3 3 9 w y y y y y D G G H H H H H H H H H H H H H H H J #.#.#.#.",
"H H H H H H H H H H H H H H H H H H H H H H H H k 9 u U e.e.>.n b b n >.w.w.>.n b p d l H H H H H H H H H H H H H H H J #.#.#.#.",
"H H H H H H H H H H H H H H H H H H H H H H H H j t L t.N.N.f.Q.U.U.Q.g.c.c.oX].G.A 8 k H H H H H H H H H H H H H H H J @.#.#.#.",
"H H H H H H H H H H H H H H H H H H H H H H H H j t V a.Z.A.+X1XeXeX1X*Xm.m.*XyX<X[ $ d H H H H H H H H H H H H H H H J #.#.#.#.",
"H H H H H H H H H H H H H H H H H H H H H H H H j t V a.m.n.$XtXlXlXtX-X0.0.,XhXdX| @ a H H H H H H H H H H H H H H H J #.#.#.#.",
"H H H H H H H H H H H H H H H H H H H H H H H H j t V p.n.0.=XfXvXvXfX-X8.8.>XcXmX%.o a H H H H H H H H H H H H H H H J #.#.#.#.",
"G G G G H H H H H H G H H H H H H G H H H H H H j t V p.n.d.%XfXvXbXfX-X9.9.>XkXsX%.o a H H H H H H H H H H H H H H H J #.#.#.#.",
"8 8 8 8 G H H H G D D G H H H H G D D H H H H H j t V p.n.n.%XiXvXbXiX-X0.9.,XkXaX| @ a H H H H H H H H H H H H H H H J @.#.#.#.",
"8 8 8 8 G H H H D a a D H H J H D a a D H H H H j t V p.n.n.%XiXvXbXiX-X0.9.,XkXaX} o a H H H H H H H H H H H H H H H J #.#.#.#.",
"8 8 8 8 G H H H k 8 9 j F H H H j w 9 j G H H H k t V p.n.n.%XiXvXbXfX-X0.9.>XkXaX} o a H H G F D G H H H H H H H H H J @.#.#.#.",
"8 8 8 8 G H H H k 8 w r a D H H k 9 9 r a G H H k t V p.n.n.%XiXbXbXiX-X0.9.,XkXaX| o s H H D a a D H H H H H H H H H H @.#.#.#.",
"G G G G H H H H D r r e w j G G D w w w w k F D j t V p.n.d.%XfXvXbXfX-X9.9.>XkXsX} o a H G j w w k H H H H H H H H H J #.#.#.#.",
"J J H H H H H H G k d w 9 a j G D r r w 8 r a a w 6 V t.d.0.=XfXvXvXfX-X8.8.>XcXzX=.% k G k r w r k H H G H H H H H H J #.#.#.#.",
"H H H H H H H H H G D r 9 w a l l w 9 8 8 9 w w 5 5 L u.m.n.$XpXxXxXpX-X0.0.,XhXdX .@ j l a w w r D H H H H H H H H H J #.#.#.#.",
"G G G G H H H H H H D r 9 w w a a 8 6 : : 9 9 6 2 + m a.Z.A.+X:X6X6X:X&Xm.m.$XwX;XW $ q a w w w r D H H H H H H H H H H @.#.#.#.",
"8 8 8 8 G H H H H H D r 9 9 8 9 9 8 8 8 8 8 9 w 6 5 L t.N.C.p.K h h K p.B.N.p.K h 7 8 w w 8 9 9 r D H G G H H H H H H H H J J J ",
"8 8 8 8 G H H H H H D q 8 6 : 8 i C S S p 1 8 m R Z S U w.r.U * X X * I r.r.I % O 4 S S C 8 : : w D H k j F H H H H H H H H H H ",
"8 8 8 8 G H H H H H l w t 6 ; 6 p ( J.I.Y 3 s w.f.!./ M s s y # + + # > u u , $ 3 T J.U./ i ; 6 r D D r w k H H H H H H H H H H ",
"8 8 8 8 G H G k D H F q i M y < p H.{.{.H.V I h.#X{.H.Z 1 3 4 C A A g 4 3 3 3 g R E.}.}.L.S g g A D d 9 8 k H H H H H H H J J J ",
"8 8 8 8 G H l r a H G e M ` Y 3 y 1.@X@Xf.u.i.j.C.M.^.F./ / ) ) S.S.) ( ( ( ( ( H.[.M.z.^.H.) S.T M 0 t w l H H H H H H @.#.#.#.",
"8 8 8 8 G H j w w k k 0 Z K.K.R I i.C.C.c.N.M.z.k.c.l.^.W./././././././././.W.R.^.x.N.N.l.^.W.].H.N 6 6 w D H H G H H J #.#.#.#.",
"8 8 8 8 G H k 9 9 a q 6 C P./.5.s.b.C.N.N.B.N.z.k.c.z.x.oXoXoXoXXXXXXXoXoXoXoXXXoXz.c.c.z.g.OXOX5.N 5 6 a D H H G H H H #.#.#.#.",
"8 8 8 8 G H D r r w t 6 i T E..Xl.l.g.g.l.z.k.z.z.z.z.z.z.z.z.z.z.z.z.z.z.z.z.z.z.z.z.z.z.j.N.B.t.m 5 7 w D H H G H H H @.#.#.#.",
"8 8 8 8 G H F k a w 9 8 8 p R ~.[.^.!.!.^.g.k.k.z.z.z.k.c.c.c.c.c.c.c.c.c.c.c.c.k.z.z.z.j.j.N.N.t.m 5 7 w D H H H H H H H J J J ",
"8 8 8 8 G H H G l w 9 9 8 8 Z D.R.R.T.T.~.g.c.c.z.z.z.z.z.k.z.z.v.z.z.v.v.z.z.v.z.z.z.z.z.z.B.C.t.m 5 t a D H H H H H H H H H H ",
"8 8 8 8 G H H H D r 9 8 w Z Y G.T.(.[.[.[.l.c.C.B.z.z.V.B.z.z.V.V.z.z.B.B.z.z.V.V.z.z.B.V.C.Z.Z.i.L 6 w k F H H H H H H H H H H ",
"8 8 8 8 G H H H D w 8 6 p _ J.I.Q.g.z.z.z.z.z.z.z.z.z.v.v.z.z.N.N.z.z.v.v.z.z.N.v.z.z.v.N.z.C.C.u.L 7 j H H H H H H H H H H H H ",
"G G G G H H H G k w 0 6 i T P.`.Q.5.w.w.u.N.z.r.y.z.j.7.,.j.k.,.,.j.j.<.,.j.j.,.,.k.k.<.v >.r.r.U u t D H H H H H H H H @.#.#.@.",
"H H H H H H H H l w 9 9 8 9 S P.K.S > 8 U j.h.I I i.i.x x h.h.B B i.i.B B i.i.x B h.j.P * > N N s w w D H H H H H H H J #.#.#.#.",
"H H H H H H H H F a a w 6 ; i T T y + + u 1.>.s > U |.&.&.e.e.O.| e.e.&.&.|.e.O.O.e.y. X%.h $ $ 7 9 w D H H H H H H H J #.#.#.#.",
"H H H H H H H H H D k w t 6 9 p p 8 < < 8 N N 9 $ = &.qX9X....8X7X..o.9X9Xo...7X7XQ ..9XqX .O + t t r D H H H H H H H J #.#.#.#.",
"H H H H H H G D D D k a a r w 6 6 8 8 8 8 5 6 9 $ @ } 0X7Xr [ jXsX} ] 8X8X[ } sXgX] r 7XrXO.$ $ w r a D H H H H H H H H #.#.#.#.",
"H H H H H H D a a a a j D D a 8 6 8 9 9 8 < < 8 # $ ] :.| O [ cXxX-.e } } e -.jXxX[ . | ;.[ & & r d k G H H H H G H H H #.#.#.#.",
"H H H H H H D r w 9 w k F F k w 9 9 8 8 8 8 8 8 8 # # # $ 8 :.dXuX| . @ @ O | rXdX:.1 $ # # & 8 r D H H G H H H H H H J #.#.#.#.",
"G G G G H H D j a 9 9 a a a a w 9 8 8 8 8 8 9 9 & @     a ;.7X4XO.8   X X   8 O.4X9X;.r     @ 8 a F H H G G H H H H H H @.#.#.#.",
"8 8 8 8 G H H H D w 9 9 8 8 8 8 8 8 8 8 8 8 8 8 9 w $ @ -.gXgX} X $ w 9 9 w $ . } jXjX-.O $ r w r l H H H H H H H H H H H J J J ",
"8 8 8 8 G H H H F w 9 w w w w 8 6 : ; ; 6 9 $ + [ 3X;.z =.xXnX] O ;.2X] ] 2X:.$ [ bXbX-.z ;.3X{ & w D H H H G j j D H H H H H H ",
"8 8 8 8 G G G G D w 9 9 8 8 8 8 8 8 8 8 8 9 $ @ } uXqX[ | aXsX[ G 0XrX . .rXqX! [ sXsX .[ qXuXO.$ $ a D H G k w r k H H H H H H ",
"8 8 8 8 F j j j a 9 8 5 ; ; : 6 9 C S S g 6 $ 4 $.5X4XX.X.2X2X~ X.5X4XX.X.4X4XX.X.3X2X^ ..4X5X[ + $ t a j j a w w k H H H H H H ",
"8 8 8 8 l r w w q 8 8 8 6 8 : : p T J.J.T 9 y T ' { ..y.e.Q { y.y.....y.y.....y.y.Q ^ ` G...] z 1 6 8 9 q w w 9 r k H H H H H H ",
"8 8 8 8 l a w w t 8 9 p Z Z y 5 u 1.{.{.1.I U !.1.B v h.h.P P h.h.c P h.h.c c h.h.c B E.E.b 3 4 Z C p 9 t 9 9 r a D H H H H H H ",
"8 8 8 8 F l a r 0 5 i Y F.F.S 8 N 5.@X@Xf.u.i.g.q.4.3.j.j.3.3.k.j.3.3.j.j.3.3.j.k.3.3.g.6.2.n T G.G.Y p 6 e r j F H H H H H H H ",
"8 8 8 8 G H F a 0 5 M F.'.'.S.Z V t.z.z.g.x.l.z.N.V.B.z.z.C.V.z.z.B.B.v.z.B.B.z.z.B.V.N.l.^.W.Q.].].H.M 5 e a k F G H H H J J J ",
"8 8 8 8 G H H D r 5 M K.}.'.K.) D.!.^.^.~./.[.l.N.V.B.z.v.V.V.z.z.B.B.z.z.B.B.z.z.B.V.N.z.OXoXXXOXOX5.L 6 j D a a D H H @.#.#.#.",
"8 8 8 8 G F G H k t p ` J.L.L._._.I.U.J.U.J.Q.g.c.c.z.k.z.l.l.z.c.k.k.z.z.z.k.k.k.k.j.z.z.k.c.c.B.C.u.L 6 D F w w j H J @.#.#.#.",
"8 8 8 8 l a j G G r w p S F._.`._.I.U.U.T.~.g.k.c.c.N.N.l.^.^.l.C.N.k.z.z.z.z.c.N.c.c.z.z.k.c.c.N.C.u.L 5 r a w w k H H @.#.#.#.",
"8 8 8 8 k r r l D r t t M S._._.L.L.J.U.Q.f.z.z.l.l.z.k.f.R.R.f.z.z.l.z.k.k.z.z.l.l.z.z.k.k.k.k.B.C.u.m < 7 r w r l H H @.#.#.#.",
"8 8 8 8 j w w a a 9 w M Y F.T.T.L.L.L.J.R.^..X[.^.^.^.^.~.L.L.~.^.^.f.l.N.N.z..X~.~..Xz.N.N.c.c.N.C.u.N 5 6 w a j F H J @.#.#.#.",
"8 8 8 8 l r w w t : p ` L.T.L.L.L.L.L.L.T.T.R.T.T.T.R.T.T.L.T.T.T.T.~.g.N.c.g.~.J.I.~.g.c.k.z.z.B.B.t.N 5 7 a k G H H J @.#.#.#.",
"8 8 8 8 D a r w 7 ; M K.'.'._.L.L.L.T.T.L.U.U.U.I.).).)._.`.`.`.).).`.[.oXXX^.T.U.U.T.^.f.f..XXXOXOX5.N 5 e f F H H H J @.#.#.#.",
", , , * J D k r 0 5 M F.'.`.T.L.L.L.L.T.L.L.J.J.J.).).)._._._._.).)._.R.Q.Q.R.L.U.U.T.R.Q.R.R.R.].].H.M 6 d F J J J J J #.#.#.#.",
"@.@.@.@.#.#.o.! j t i Y _ _ D.K.T.T.L.L.L.L.T.T.K.D.E E _ _ ` _ _ _ E ( ) P.I.T.T.T.L.J.I.I.P.) ( ) Y p r o.@.@.@.@.#.#.#.#.#.#.",
"#.#.#.#.#.#.#.o.{ r w i i i Z D._._.L.L.L.L._._.F.S i i u p p p u u i y Z G._._.L.L.L.J.).).S.Z y i i w a o.#.#.+.#.#.#.#.#.#.#.",
"#.#.#.#.#.+.#.#.o.a 9 6 - - i _ `._.L.L.L.J._.`._ i - - ; ; ; ; ; ; - - p D.`._.J.L.L.L.R.`.D.p - ; 6 9 a ..+.#.#.#.#.#.#.#.#.#.",
"#.#.#.#.#.+.#.#.o.a 9 6 - - i _ `._.L.L.L.J._.`.) i - - ; ; ; ; ; ; - - y D.`._.J.L.L.L.R.`.D.i - - 6 9 a ..+.#.#.#.#.#.#.#.#.#."
};
