/* XPM */
static char *rcp06584246454178[] = {
/* columns rows colors chars-per-pixel */
"64 64 44 1 ",
"  c #222222",
". c #222224",
"X c #252120",
"o c #463C3B",
"O c #493B3A",
"+ c #493B38",
"@ c #463C3A",
"# c gray13",
"$ c #212322",
"% c #473B3B",
"& c #4A3A3A",
"* c #232122",
"= c #232220",
"- c #262020",
"; c #473C3A",
": c #281F20",
"> c #252122",
", c #26211E",
"< c #28201E",
"1 c #453D3B",
"2 c #705E5A",
"3 c #715E58",
"4 c #725D58",
"5 c #14182E",
"6 c #4C3A38",
"7 c #745D57",
"8 c #775C55",
"9 c #4A3C3B",
"0 c #FFEE83",
"q c #F0B541",
"w c #493B3B",
"e c #775B57",
"r c #202221",
"t c #775C53",
"y c #4A3B38",
"u c #222220",
"i c #785B55",
"p c #755C57",
"a c #CF752B",
"s c #291F1D",
"d c #4C3A36",
"f c #4D3A36",
"g c #725E57",
"h c #745C58",
/* pixels */
"  ..       XoOOoX              XoOOOOOOOOO+@X  XoOOoX           ",
"  ..     # XoOOoX              XoOOOOOOOOO+@X #XoOOoX #         ",
"      $$   XoOOoX              X%&OOOOOOOOOoX* XoO&%X ..    $$  ",
"    =X==XXX-%OO%-XXXXXXXXXXXXXX-%&OOOOOOOOO;:XX-%O&%-X>>XXXX,,,<",
"   =1oooooo%OOOO%oooooooooooooo%OOOOOOOOOO+O;oo%OOOO;@oooooO2334",
"   XoOOOOOOOOOOOOOOOOOOO5555555555555555OO++OOOOOOOO++OOOOO67888",
"   XoO9OOO++OO&&OOOOOOOO5555555555555555OOOOOOOOOOOOOOOOOOO67888",
"XXX-%OOOOO++OOOOOOOOOOOO5555555555555555OOOOOOOOOOOOOOOOOOO67888",
"ooo%OOOOOOOOOOOOOOOOOOOO5555555555555555OOOOOOOOOOOO&&OOOOO67888",
"OOOOOOOOOOOOOO;;O5555555000000000000000055555555OOOO&&OOOOO67888",
"OOOOOOOOOOOOOOOOO5555555000000000000000055555555OOOOOOOOOOO67888",
"OOOOOOOOOOOOOOOOO5555555000000000000000055555555OOOOOOOOOOO67888",
"OOOOOOOOOOOOOOOOO5555555000000000000000055555555OOOOOOOOOOO67888",
"OOOOOOOOOOOOO5555000qqqqqqqqqqqqqqqqqqqqqqqq0000555OOOOOOOO67888",
"OOOOOOOOOOOOO5555000qqqqqqqqqqqqqqqqqqqqqqqq0000555wOOOOOOO678ee",
"ooo%OOOOOOOOO5555000qqqqqqqqqqqqqqqqqqqqqqqq0000555wOOOOOOO678ee",
"==X-;+OOOOOOO5555000qqqqqqqqqqqqqqqqqqqqqqqq0000555O&&OOOOO67888",
"$r X@+OOO55550000qqqqqqqqqqqqqqqqqqqqqqqqqqqqqqq0005555OOOO67888",
"   XoOOOO55550000qqqqqqqqqqqqqqqqqqqqqqqqqqqqqqq0005555OOOO67888",
"XXX-%OOOO55550000qqqqqqqqqqqqqqqqqqqqqqqqqqqqqqq0005555OOOO67888",
"@@o%OOOOO5555qqqqqqqqqqqqqqqqqqqqqqqqqqqqqqqqqqqqqq5555OOOO67ttt",
"++OOOOOOO5555qqqqqqqqqqqqqqqqqqqqqqqqqqqqqqqqqqqqqq5555OOOO67ttt",
"OOOOOOOOO5555qqqqqqqqqqqqqqqqqqqqqqqqqqqqqqqqqqqqqq5555OOOO67888",
"ooo%OOOOO5555qqqqqqqqqqqqqqqqqqqqqqqqqqqqqqqqqqqqqq5555OOOOy4777",
"XXX-%55550000qqqqqqqqqqqqqqqqqqqqqqqqqqqqqqqqqqqqqq00005555+y666",
"   Xo55550000qqqqqqqqqqqqqqqqqqqqqqqqqqqqqqqqqqqqqq00005555+OOOO",
"   Xo55550000qqqqqqqqqqqqqqqqqqqqqqqqqqqqqqqqqqqqqq00005555OOOOO",
"   Xo55550000qqqqqqqqqqqqqqqqqqqqqqqqqqqqqqqqqqqqqq00005555Oy666",
"   Xo5555qqqqqqqqqqqqqqqqqqqqqqqqqqqqqqqqqqqqqqqqqqqqqq5555y4777",
"   Xo5555qqqqqqqqqqqqqqqqqqqqqqqqqqqqqqqqqqqqqqqqqqqqqq555567888",
"  uX%5555qqqqqqqqqqqqqqqqqqqqqqqqqqqqqqqqqqqqqqqqqqqqqq5555678ii",
"  uX%5555qqqqqqqqqqqqqqqqqqqqqqqqqqqqqqqqqqqqqqqqqqqqqq5555y47pp",
"   Xo5555qqqqqqqqqqqqqqqqqqqqqqqqqqqqqqqqqqqqqqqqqqqqqq5555Oy666",
" # Xo5555qqqqqqqqqqqqqqqqqqqqqqqqqqqqqqqqqqqqqqqqqqqqqq5555OOOOO",
"   Xo5555qqqqqqqqqqqqqqqqqqqqqqqqqqqqqqqqqqqqqqqqqqqqqq5555OOOOO",
"XXX-%5555qqqqqqqqqqqqqqqqqqqqqqqqqqqqqqqqqqqqqqqqqqqqqq5555Oy666",
"ooo%O5555aaaaqqqqqqqqqqqqqqqqqqqqqqqqqqqqqqqqqqqqqqaaaa5555y4777",
"OOOOO5555aaaaqqqqqqqqqqqqqqqqqqqqqqqqqqqqqqqqqqqqqqaaaa555567888",
"OOOOO5555aaaaqqqqqqqqqqqqqqqqqqqqqqqqqqqqqqqqqqqqqqaaaa555567888",
"OOOOO5555aaaaqqqqqqqqqqqqqqqqqqqqqqqqqqqqqqqqqqqqqqaaaa555567888",
"OOOOOOOOO5555qqqqqqqqqqqqqqqqqqqqqqqqqqqqqqqqqqqqqq5555OOOO67888",
"OOOOOOOOO5555qqqqqqqqqqqqqqqqqqqqqqqqqqqqqqqqqqqqqq5555OOOO67888",
"OOOOOOOOO5555qqqqqqqqqqqqqqqqqqqqqqqqqqqqqqqqqqqqqq5555OOOO67888",
"ooo%OOOOO5555qqqqqqqqqqqqqqqqqqqqqqqqqqqqqqqqqqqqqq5555OOOOy4777",
"XXX-%OOOO5555aaaaqqqqqqqqqqqqqqqqqqqqqqqqqqqqqqqaaa5555OOOOOy666",
"   XoOOOO5555aaaaqqqqqqqqqqqqqqqqqqqqqqqqqqqqqqqaaa5555OOOOOOOOO",
" # XoOOOO5555aaaaqqqqqqqqqqqqqqqqqqqqqqqqqqqqqqqaaa5555OOOOOOOOO",
"   XoOOOO5555aaaaqqqqqqqqqqqqqqqqqqqqqqqqqqqqqqqaaa5555OOOOOOOOO",
"  .>oOOOOOOOO5555aaaaaaaqqqqqqqqqqqqqqqqaaaaaaaa555OOOOOOOOOOOOO",
"  .>oOOOOOOOO5555aaaaaaaqqqqqqqqqqqqqqqqaaaaaaaa555OOOOOOOOOOOOO",
"   XoOOOOOOOO5555aaaaaaaqqqqqqqqqqqqqqqqaaaaaaaa555OOOOOOOOOOOOO",
"   XoOOOOOOOOOOOO5555555aaaaaaaaaaaaaaaa55555555OOOOOOOOOOOOy666",
"  .>oOOOOOOOOOOOO5555555aaaaaaaaaaaaaaaa55555555OOOOOOOOOOOy4777",
"  .>oOOOOOOOOOOOO5555555aaaaaaaaaaaaaaaa55555555OOOOOOOOOOO67888",
"   XoOOOOO;;OOOOO5555555aaaaaaaaaaaaaaaa55555555OOOOOOOOOOO67888",
"   XoOOOOO;;OOOOOOOOOOOO5555555555555555OOOOOOOOOOOOOOOOOOO67888",
"   XoOOOOOOOOOOOOOOOOOOO5555555555555555OOOOOOOOOOOOOOOOOOO67888",
" # XoO9OOOOOOOOOOOOOOOOO5555555555555555OOOOOOOOOOOOOOOOOOO67888",
"   X@+OOOOOOOOOO++OOOOOO5555555555555555OO++OOOOOOOOOOOOOOO67888",
"<<<syd66666yOOOO++OOy66yOOOOy6666666666666dy&OOOy6666666666fp888",
"gg4h77777774y;OOOOOy4774yOOy4777pp77777777746&Oy47777777777p8888",
"ttii8888tt87y;OOOOO678876OO67888ii88888888876&O67888888888888888",
"8888888888876OOO&&O678876OO678888888ee8888t76OO67888888888888888",
"8888888888876OOO&&O678876OO678888888ee8888t76OO67888888888888888"
};
