/* XPM */
static char *rcp0658396055891[] = {
/* columns rows colors chars-per-pixel */
"64 64 44 1 ",
"  c #222222",
". c #222224",
"X c #252120",
"o c #463C3B",
"O c #493B3A",
"+ c #493B38",
"@ c #463C3A",
"# c gray13",
"$ c #212322",
"% c #473B3B",
"& c #4A3A3A",
"* c #232122",
"= c #232220",
"- c #262020",
"; c #473C3A",
": c #281F20",
"> c #252122",
", c #26211E",
"< c #28201E",
"1 c #453D3B",
"2 c #705E5A",
"3 c #715E58",
"4 c #725D58",
"5 c #14182E",
"6 c #4C3A38",
"7 c #745D57",
"8 c #775C55",
"9 c #4A3C3B",
"0 c #FFEE83",
"q c #F0B541",
"w c #493B3B",
"e c #775B57",
"r c #202221",
"t c #775C53",
"y c #4A3B38",
"u c #222220",
"i c #785B55",
"p c #755C57",
"a c #CF752B",
"s c #291F1D",
"d c #4C3A36",
"f c #4D3A36",
"g c #725E57",
"h c #745C58",
/* pixels */
"  ..       XoOOoX              XoOOOOOOOOO+@X  XoOOoX           ",
"  ..     # XoOOoX              XoOOOOOOOOO+@X #XoOOoX #         ",
"      $$   XoOOoX              X%&OOOOOOOOOoX* XoO&%X ..    $$  ",
"    =X==XXX-%OO%-XXXXXXXXXXXXXX-%&OOOOOOOOO;:XX-%O&%-X>>XXXX,,,<",
"   =1oooooo%OOOO%oooooooooooooo%OOOOOOOOOO+O;oo%OOOO;@oooooO2334",
"   XoOOOOOOOOOOOOOOOOOOO5555555555555555OO++OOOOOOOO++OOOOO67888",
"   XoO9OOO++OO&&OOOOOOOO5555555555555555OOOOOOOOOOOOOOOOOOO67888",
"XXX-%OOOOO++OOOOOOOOOOOO5555555555555555OOOOOOOOOOOOOOOOOOO67888",
"ooo%OOOOOOOOOOOOOOOOOOOO5555555555555555OOOOOOOOOOOO&&OOOOO67888",
"OOOOOOOOOOOOOO;;OOOO555500000000000000005555OOOOOOOO&&OOOOO67888",
"OOOOOOOOOOOOOOOOOOOO555500000000000000005555OOOOOOOOOOOOOOO67888",
"OOOOOOOOOOOOOOOOOOOO555500000000000000005555OOOOOOOOOOOOOOO67888",
"OOOOOOOOOOOOOOOOOOOO555500000000000000005555OOOOOOOOOOOOOOO67888",
"OOOOOOOOOOOOOOOOOOOO5555qqqqqqqq000000005555OOOOOOOOOOOOOOO67888",
"OOOOOOOOOOOOOOOOOOOO5555qqqqqqqq000000005555&&OOOOwwOOOOOOO678ee",
"ooo%OOOOOOOOOOOOOOOO5555qqqqqqqq000000005555&&OOOOwwOOOOOOO678ee",
"==X-;+OOOOOOOO++OOOO5555qqqqqqqq000000005555OOOOOOOO&&OOOOO67888",
"$r X@+OOOOOOOO++O5550000qqqqqqqqqqqq000000005555OOOO&&OOOOO67888",
"   XoOOOOOOOOOOOO5550000qqqqqqqqqqqq000000005555;;OOOOOOOOO67888",
"XXX-%OOOOOOOOOOOO5550000qqqqqqqqqqqq000000005555OOOOOOOOOOO67888",
"@@o%OOOOOOOOOOOOO555qqqqqqqqqqqqqqqq000000005555OOOO&&OOOOO67ttt",
"++OOOOOOOOOOOOOOO555qqqqqqqqqqqqqqqq000000005555&&OO&&OOOOO67ttt",
"OOOOOOOOOOOOOOOOO555qqqqqqqqqqqqqqqq000000005555OOOOOOOOOOO67888",
"ooo%OOOOOOOOOOOOO555qqqqqqqqqqqqqqqq000000005555OOOOOOOOOOOy4777",
"XXX-%OOOOOOOO5555000qqqqqqqqqqqqqqqqqqqq00000000555OOOOOOO++y666",
"   XoOOOOOOOO5555000qqqqqqqqqqqqqqqqqqqq00000000555OOOOOOO++OOOO",
"   XoOOOOOOOO5555000qqqqqqqqqqqqqqqqqqqq00000000555OOOOOOOOOOOOO",
"   XoOOOOOOOO5555000qqqqqqqqqqqqqqqqqqqq00000000555OOOOOOOOOy666",
"   XoOOOOOOOO5555qqqqqqqqqqqqqqqqqqqqqqq0000qqqq555OOOOOOOOy4777",
"   XoOOOOOOOO5555qqqqqqqqqqqqqqqqqqqqqqq0000qqqq555OOOOOOOO67888",
"  uX%&OOOOOOO5555qqqqqqqqqqqqqqqqqqqqqqq0000qqqq555OOOOOOOO678ii",
"  uX%&OOOOOOO5555qqqqqqqqqqqqqqqqqqqqqqq0000qqqq555OOOOOOOOy47pp",
"   XoOOOOOOOO5555qqqqqqqqqqqqqqqqqqqqqqqaaaaaaaa555OOOOOOOOOy666",
" # XoOOOOOOOO5555qqqqqqqqqqqqqqqqqqqqqqqaaaaaaaa555OOOOOOOOOOOOO",
"   XoOOOOOOOO5555qqqqqqqqqqqqqqqqqqqqqqqaaaaaaaa555OOOOOOOOOOOOO",
"XXX-%OOOOOOOO5555qqqqqqqqqqqqqqqqqqqqqqqaaaaaaaa555OOOOOOOOOy666",
"ooo%OOOOOOOOO5555aaaqqqqqqqqqqqqqqqqqqqqaaaaqqqq555OOOOOOOOy4777",
"OOOOOOOOOOOOO5555aaaqqqqqqqqqqqqqqqqqqqqaaaaqqqq555OOOOOOOO67888",
"OOOOOOOOOOOOO5555aaaqqqqqqqqqqqqqqqqqqqqaaaaqqqq555OOOOOOOO67888",
"OOOOOOOOOOOOO5555aaaqqqqqqqqqqqqqqqqqqqqaaaaqqqq555OOOOOOOO67888",
"OOOOOOOOOOOOOOOOO555qqqqqqqqqqqqqqqqaaaaaaaa5555OOOOOOOOOOO67888",
"OOOOOOOOOOOOOOOOO555qqqqqqqqqqqqqqqqaaaaaaaa5555OOOOOOOOOOO67888",
"OOOOOOOOOOOOOOOOO555qqqqqqqqqqqqqqqqaaaaaaaa5555OOOOOOOOOOO67888",
"ooo%OOOOOOOOOOOOO555qqqqqqqqqqqqqqqqaaaaaaaa5555OOOOOOOOOOOy4777",
"XXX-%OOOOOOOOOOOO555aaaaqqqqqqqqqqqqaaaaaaaa5555OOOOOOOOOOOOy666",
"   XoOOOOOOOOOOOO555aaaaqqqqqqqqqqqqaaaaaaaa5555OOOOOOOOOOOOOOOO",
" # XoOOOOOOOOOOOO555aaaaqqqqqqqqqqqqaaaaaaaa5555OOOOOOOOOOOOOOOO",
"   XoOOOOOOOOOOOO555aaaaqqqqqqqqqqqqaaaaaaaa5555OOOOOOOOOOOOOOOO",
"  .>oOOOOOOOOOwwOOOO5555qqqqqqqqaaaaaaaa5555wwOOOOOOOOOOOOOOOOOO",
"  .>oOOOOOOOOOwwOOOO5555qqqqqqqqaaaaaaaa5555wwOOOOOOOOOOOOOOOOOO",
"   XoOOOOOOOOOOOOOOO5555qqqqqqqqaaaaaaaa5555OOOOOOOOOOOOOOOOOOOO",
"   XoOOOOOOOOOOOOOOO5555aaaaaaaaaaaaaaaa5555OOOOOOOOOOOOOOOOy666",
"  .>oOOOOOOOOOOOOOOO5555aaaaaaaaaaaaaaaa5555OOOOOOOOOOOOOOOy4777",
"  .>oOOOOOOOOOOOOOOO5555aaaaaaaaaaaaaaaa5555OOOOOOOOOOOOOOO67888",
"   XoOOOOO;;OOOOOOOO5555aaaaaaaaaaaaaaaa5555OOOOOOOOOOOOOOO67888",
"   XoOOOOO;;OOOOOOOOOOOO5555555555555555OOOOOOOOOOOOOOOOOOO67888",
"   XoOOOOOOOOOOOOOOOOOOO5555555555555555OOOOOOOOOOOOOOOOOOO67888",
" # XoO9OOOOOOOOOOOOOOOOO5555555555555555OOOOOOOOOOOOOOOOOOO67888",
"   X@+OOOOOOOOOO++OOOOOO5555555555555555OO++OOOOOOOOOOOOOOO67888",
"<<<syd66666yOOOO++OOy66yOOOOy6666666666666dy&OOOy6666666666fp888",
"gg4h77777774y;OOOOOy4774yOOy4777pp77777777746&Oy47777777777p8888",
"ttii8888tt87y;OOOOO678876OO67888ii88888888876&O67888888888888888",
"8888888888876OOO&&O678876OO678888888ee8888t76OO67888888888888888",
"8888888888876OOO&&O678876OO678888888ee8888t76OO67888888888888888"
};
