/* XPM */
static char *rcp06583419956847[] = {
/* columns rows colors chars-per-pixel */
"64 64 44 1 ",
"  c #222222",
". c #222224",
"X c #252120",
"o c #463C3B",
"O c #493B3A",
"+ c #493B38",
"@ c #463C3A",
"# c gray13",
"$ c #212322",
"% c #473B3B",
"& c #4A3A3A",
"* c #232122",
"= c #232220",
"- c #262020",
"; c #473C3A",
": c #281F20",
"> c #252122",
", c #26211E",
"< c #28201E",
"1 c #453D3B",
"2 c #705E5A",
"3 c #715E58",
"4 c #725D58",
"5 c #14182E",
"6 c #4C3A38",
"7 c #745D57",
"8 c #775C55",
"9 c #4A3C3B",
"0 c #FFEE83",
"q c #F0B541",
"w c #493B3B",
"e c #775B57",
"r c #202221",
"t c #775C53",
"y c #4A3B38",
"u c #222220",
"i c #785B55",
"p c #755C57",
"a c #CF752B",
"s c #291F1D",
"d c #4C3A36",
"f c #4D3A36",
"g c #725E57",
"h c #745C58",
/* pixels */
"  ..       XoOOoX              XoOOOOOOOOO+@X  XoOOoX           ",
"  ..     # XoOOoX              XoOOOOOOOOO+@X #XoOOoX #         ",
"      $$   XoOOoX              X%&OOOOOOOOOoX* XoO&%X ..    $$  ",
"    =X==XXX-%OO%-XXXXXXXXXXXXXX-%&OOOOOOOOO;:XX-%O&%-X>>XXXX,,,<",
"   =1oooooo%OOOO%oooooooooooooo%OOOOOOOOOO+O;oo%OOOO;@oooooO2334",
"   XoOOOOOOOOOOOOOOOOOOOOOOO55555555OOOOOO++OOOOOOOO++OOOOO67888",
"   XoO9OOO++OO&&OOOOOOOOOOOO55555555OOOOOOOOOOOOOOOOOOOOOOO67888",
"XXX-%OOOOO++OOOOOOOOOOOOOOOO55555555OOOOOOOOOOOOOOOOOOOOOOO67888",
"ooo%OOOOOOOOOOOOOOOOOOOOOOOO55555555OOOOOOOOOOOOOOOO&&OOOOO67888",
"OOOOOOOOOOOOOO;;OOOOOOOO5555000000005555OOOOOOOOOOOO&&OOOOO67888",
"OOOOOOOOOOOOOOOOOOOOOOOO5555000000005555OOOOOOOOOOOOOOOOOOO67888",
"OOOOOOOOOOOOOOOOOOOOOOOO5555000000005555OOOOOOOOOOOOOOOOOOO67888",
"OOOOOOOOOOOOOOOOOOOOOOOO5555000000005555OOOOOOOOOOOOOOOOOOO67888",
"OOOOOOOOOOOOOOOOOOOOOOOO5555qqqqqqqq5555OOOOOOOOOOOOOOOOOOO67888",
"OOOOOOOOOOOOOOOOOOOOOOOO5555qqqqqqqq5555OOOO&&OOOOwwOOOOOOO678ee",
"ooo%OOOOOOOOOOOOOOOOOOOO5555qqqqqqqq5555OOOO&&OOOOwwOOOOOOO678ee",
"==X-;+OOOOOOOO++OOOOOOOO5555qqqqqqqq5555OOOOOOOOOOOO&&OOOOO67888",
"$r X@+OOOOOOOO++OOOOOOOO5555000000005555OOOOOOOOOOOO&&OOOOO67888",
"   XoOOOOOOOOOOOOOOOOOOO5555000000005555OOOOOOOO;;OOOOOOOOO67888",
"XXX-%OOOOOOOOOOOOOOOOOOO5555000000005555OOOOOOOOOOOOOOOOOOO67888",
"@@o%OOOOOOOOOOOOOOOOOOOO5555qqqqqqqq5555OOOOOOOOOOOO&&OOOOO67ttt",
"++OOOOOOOOOOOOOOOOOOOOOO5555qqqqqqqq5555OOOOOOOO&&OO&&OOOOO67ttt",
"OOOOOOOOOOOOOOOOOOOOOOOO5555qqqqqqqq5555OOOOOOOOOOOOOOOOOOO67888",
"ooo%OOOOOOOOOOOOOOOOOOOO5555qqqqqqqq5555OOOOOOOOOOOOOOOOOOOy4777",
"XXX-%OOOOOOOOOOOOOOOOOOO5555000000005555OOOOOOOOOOOOOOOOOO++y666",
"   XoOOOOOOOOOOOOOOOOOOO5555000000005555OOOOOOOOOOOOOOOOOO++OOOO",
"   XoOOOOOOOOO;;OOOOOOOO5555000000005555OOOOOOOOOOOOOOOOOOOOOOOO",
"   XoOOOOOOOOOOOOOOOOOOO5555000000005555OOOOOOOOOOOOOOOOOOOOy666",
"   XoOOOOOOOOOOOOOOOOOOO5555qqqqqqqq5555OOOOOOOO++OOOOOOOOOy4777",
"   XoOOOOOOOOO&&OOOOOOOO5555qqqqqqqq5555OOOOOOOO++OOOOOOOOO67888",
"  uX%&OOOOOOOO++OOOOOOOO5555qqqqqqqq5555OOOOOOOOOOOOOOOOOOO678ii",
"  uX%&OOOOOOOO++OOOOOOOO5555qqqqqqqq5555OOOOOOOOOOOOOOOOOOOy47pp",
"   XoOOOOOOOOOOOOOOOOOOO5555aaaaaaaa5555OOOOOOOOOOOOOOOOOOOOy666",
" # XoOOOOOOOOOOOOOOOOOOO5555aaaaaaaa5555OOOOOOOOOOOOOOOOOOOOOOOO",
"   XoOOOOOOOOOOOOOOOOOOO5555aaaaaaaa5555OOOOOOOOOOOOOOOOOOOOOOOO",
"XXX-%OOOOOOOOOOOOOOOOOOO5555aaaaaaaa5555OOOOOOOOOOOOOOOOOOOOy666",
"ooo%OOOOOOOOOOOOOOOOOOOO5555qqqqqqqq5555OOOOOOOOOOOOOOOOOOOy4777",
"OOOOOOOOOOOOOOOOOOOOOOOO5555qqqqqqqq5555OOOOOOOOOOOOOOOOOOO67888",
"OOOOOOOOOOOOOOOOOOOOOOOO5555qqqqqqqq5555OOOOOOOOOOOOOOOOOOO67888",
"OOOOOOOOOOOOOOOOOOOOOOOO5555qqqqqqqq5555OOOOOOOOOOOOOOOOOOO67888",
"OOOOOOOOOOOOOOOOOOOOOOOO5555aaaaaaaa5555OOOOOOOOOOOOOOOOOOO67888",
"OOOOOOOOOOOOOOOOOOOOOOOO5555aaaaaaaa5555OOOOOOOOOOOOOOOOOOO67888",
"OOOOOOOOOOOOOOOOOOOOOOOO5555aaaaaaaa5555OOOOOOOOOOOOOOOOOOO67888",
"ooo%OOOOOOOOOOOOOOOOOOOO5555aaaaaaaa5555OOOOOOOOOOOOOOOOOOOy4777",
"XXX-%OOOOOOOOOOOOOOOOOOO5555qqqqqqqq5555OOOOOOOOOOOOOOOOOOOOy666",
"   XoOOOOOOOOOOOOOOOOOOO5555qqqqqqqq5555OOOOOOOOOOOOOOOOOOOOOOOO",
" # XoOOOOOOOOOOOOOOOOOOO5555qqqqqqqq5555OOOOOOOOOOOOOOOOOOOOOOOO",
"   XoOOOOOOOOOOOOOOOOOOO5555qqqqqqqq5555OOOOOOOOOOOOOOOOOOOOOOOO",
"  .>oOOOOOOOOOwwOOOOOO++5555aaaaaaaa5555OOOOwwOOOOOOOOOOOOOOOOOO",
"  .>oOOOOOOOOOwwOOOOOO++5555aaaaaaaa5555OOOOwwOOOOOOOOOOOOOOOOOO",
"   XoOOOOOOOOOOOOOOOOOOO5555aaaaaaaa5555OOOOOOOOOOOOOOOOOOOOOOOO",
"   XoOOOOOOOOOOOOOOOOOOO5555qqqqqqqq5555OOOOOOOOOOOOOOOOOOOOy666",
"  .>oOOOOOOOOOOOOOOOOOOO5555qqqqqqqq5555&&OOOOOOOOOOOOOOOOOy4777",
"  .>oOOOOOOOOOOOOOOOOOOO5555qqqqqqqq5555&&OOOOOOOOOOOOOOOOO67888",
"   XoOOOOO;;OOOOOOOOOOOO5555qqqqqqqq5555OOOOOOOOOOOOOOOOOOO67888",
"   XoOOOOO;;OOOOOOOOOOOOOOOO55555555OOOOOOOOOOOOOOOOOOOOOOO67888",
"   XoOOOOOOOOOOOOOOOOOOOOOOO55555555OOOOOOOOOOOOOOOOOOOOOOO67888",
" # XoO9OOOOOOOOOOOOOOOOOOOOO55555555OOOOOOOOOOOOOOOOOOOOOOO67888",
"   X@+OOOOOOOOOO++OOOOOOOOOO55555555OOOOOO++OOOOOOOOOOOOOOO67888",
"<<<syd66666yOOOO++OOy66yOOOOy6666666666666dy&OOOy6666666666fp888",
"gg4h77777774y;OOOOOy4774yOOy4777pp77777777746&Oy47777777777p8888",
"ttii8888tt87y;OOOOO678876OO67888ii88888888876&O67888888888888888",
"8888888888876OOO&&O678876OO678888888ee8888t76OO67888888888888888",
"8888888888876OOO&&O678876OO678888888ee8888t76OO67888888888888888"
};
