/* XPM */
static char *rcp06583041763419[] = {
/* columns rows colors chars-per-pixel */
"64 64 44 1 ",
"  c #222222",
". c #222224",
"X c #252120",
"o c #463C3B",
"O c #493B3A",
"+ c #493B38",
"@ c #463C3A",
"# c gray13",
"$ c #212322",
"% c #473B3B",
"& c #4A3A3A",
"* c #232122",
"= c #232220",
"- c #262020",
"; c #473C3A",
": c #281F20",
"> c #252122",
", c #26211E",
"< c #28201E",
"1 c #453D3B",
"2 c #705E5A",
"3 c #715E58",
"4 c #725D58",
"5 c #14182E",
"6 c #4C3A38",
"7 c #745D57",
"8 c #775C55",
"9 c #4A3C3B",
"0 c #FFEE83",
"q c #F0B541",
"w c #493B3B",
"e c #775B57",
"r c #202221",
"t c #775C53",
"y c #4A3B38",
"u c #CF752B",
"i c #222220",
"p c #785B55",
"a c #755C57",
"s c #291F1D",
"d c #4C3A36",
"f c #4D3A36",
"g c #725E57",
"h c #745C58",
/* pixels */
"  ..       XoOOoX              XoOOOOOOOOO+@X  XoOOoX           ",
"  ..     # XoOOoX              XoOOOOOOOOO+@X #XoOOoX #         ",
"      $$   XoOOoX              X%&OOOOOOOOOoX* XoO&%X ..    $$  ",
"    =X==XXX-%OO%-XXXXXXXXXXXXXX-%&OOOOOOOOO;:XX-%O&%-X>>XXXX,,,<",
"   =1oooooo%OOOO%oooooooooooooo%OOOOOOOOOO+O;oo%OOOO;@oooooO2334",
"   XoOOOOOOOOOOOOOOOOOOOOOOO55555555OOOOOO++OOOOOOOO++OOOOO67888",
"   XoO9OOO++OO&&OOOOOOOOOOOO55555555OOOOOOOOOOOOOOOOOOOOOOO67888",
"XXX-%OOOOO++OOOOOOOOOOOOOOOO55555555OOOOOOOOOOOOOOOOOOOOOOO67888",
"ooo%OOOOOOOOOOOOOOOOOOOOOOOO55555555OOOOOOOOOOOOOOOO&&OOOOO67888",
"OOOOOOOOOOOOOO;;OOOOOOOO5555000000005555OOOOOOOOOOOO&&OOOOO67888",
"OOOOOOOOOOOOOOOOOOOOOOOO5555000000005555OOOOOOOOOOOOOOOOOOO67888",
"OOOOOOOOOOOOOOOOOOOOOOOO5555000000005555OOOOOOOOOOOOOOOOOOO67888",
"OOOOOOOOOOOOOOOOOOOOOOOO5555000000005555OOOOOOOOOOOOOOOOOOO67888",
"OOOOOOOOOOOOOOOOOOOO5555qqqq00000000qqqq5555OOOOOOOOOOOOOOO67888",
"OOOOOOOOOOOOOOOOOOOO5555qqqq00000000qqqq5555&&OOOOwwOOOOOOO678ee",
"ooo%OOOOOOOOOOOOOOOO5555qqqq00000000qqqq5555&&OOOOwwOOOOOOO678ee",
"==X-;+OOOOOOOO++OOOO5555qqqq00000000qqqq5555OOOOOOOO&&OOOOO67888",
"$r X@+OOOOOOOO++OOOO555500000000qqqqqqqq5555OOOOOOOO&&OOOOO67888",
"   XoOOOOOOOOOOOOOOO555500000000qqqqqqqq5555OOOO;;OOOOOOOOO67888",
"XXX-%OOOOOOOOOOOOOOO555500000000qqqqqqqq5555OOOOOOOOOOOOOOO67888",
"@@o%OOOOOOOOOOOOOOOO5555qqqq0000qqqqqqqq5555OOOOOOOO&&OOOOO67ttt",
"++OOOOOOOOOOOOOOOOOO5555qqqq0000qqqqqqqq5555OOOO&&OO&&OOOOO67ttt",
"OOOOOOOOOOOOOOOOOOOO5555qqqq0000qqqqqqqq5555OOOOOOOOOOOOOOO67888",
"ooo%OOOOOOOOOOOOOOOO5555qqqq0000qqqqqqqq5555OOOOOOOOOOOOOOOy4777",
"XXX-%OOOOOOOOOOOO555000000000000qqqqqqqqqqqq5555OOOOOOOOOO++y666",
"   XoOOOOOOOOOOOO555000000000000qqqqqqqqqqqq5555OOOOOOOOOO++OOOO",
"   XoOOOOOOOOO;;O555000000000000qqqqqqqqqqqq5555OOOOOOOOOOOOOOOO",
"   XoOOOOOOOOOOOO555000000000000qqqqqqqqqqqq5555OOOOOOOOOOOOy666",
"   XoOOOOOOOOOOOO555qqqqqqqquuuuqqqqqqqqqqqq5555++OOOOOOOOOy4777",
"   XoOOOOOOOOO&&O555qqqqqqqquuuuqqqqqqqqqqqq5555++OOOOOOOOO67888",
"  iX%&OOOOOOOO++O555qqqqqqqquuuuqqqqqqqqqqqq5555OOOOOOOOOOO678pp",
"  iX%&OOOOOOOO++O555qqqqqqqquuuuqqqqqqqqqqqq5555OOOOOOOOOOOy47aa",
"   XoOOOOOOOOOOOO555uuuuuuuuuuuuqqqqqqqqqqqq5555OOOOOOOOOOOOy666",
" # XoOOOOOOOOOOOO555uuuuuuuuuuuuqqqqqqqqqqqq5555OOOOOOOOOOOOOOOO",
"   XoOOOOOOOOOOOO555uuuuuuuuuuuuqqqqqqqqqqqq5555OOOOOOOOOOOOOOOO",
"XXX-%OOOOOOOOOOOO555uuuuuuuuuuuuqqqqqqqqqqqq5555OOOOOOOOOOOOy666",
"ooo%OOOOOOOOOOOOO555qqqqqqqquuuuqqqqqqqqqqqq5555OOOOOOOOOOOy4777",
"OOOOOOOOOOOOOOOOO555qqqqqqqquuuuqqqqqqqqqqqq5555OOOOOOOOOOO67888",
"OOOOOOOOOOOOOOOOO555qqqqqqqquuuuqqqqqqqqqqqq5555OOOOOOOOOOO67888",
"OOOOOOOOOOOOOOOOO555qqqqqqqquuuuqqqqqqqqqqqq5555OOOOOOOOOOO67888",
"OOOOOOOOOOOOOOOOOOOO5555uuuuuuuuqqqqqqqq5555OOOOOOOOOOOOOOO67888",
"OOOOOOOOOOOOOOOOOOOO5555uuuuuuuuqqqqqqqq5555OOOOOOOOOOOOOOO67888",
"OOOOOOOOOOOOOOOOOOOO5555uuuuuuuuqqqqqqqq5555OOOOOOOOOOOOOOO67888",
"ooo%OOOOOOOOOOOOOOOO5555uuuuuuuuqqqqqqqq5555OOOOOOOOOOOOOOOy4777",
"XXX-%OOOOOOOOOOOOOOO5555qqqquuuuqqqqqqqq5555OOOOOOOOOOOOOOOOy666",
"   XoOOOOOOOOOOOOOOO5555qqqquuuuqqqqqqqq5555OOOOOOOOOOOOOOOOOOOO",
" # XoOOOOOOOOOOOOOOO5555qqqquuuuqqqqqqqq5555OOOOOOOOOOOOOOOOOOOO",
"   XoOOOOOOOOOOOOOOO5555qqqquuuuqqqqqqqq5555OOOOOOOOOOOOOOOOOOOO",
"  .>oOOOOOOOOOwwOOOO5555uuuuuuuuuuuuqqqq5555wwOOOOOOOOOOOOOOOOOO",
"  .>oOOOOOOOOOwwOOOO5555uuuuuuuuuuuuqqqq5555wwOOOOOOOOOOOOOOOOOO",
"   XoOOOOOOOOOOOOOOO5555uuuuuuuuuuuuqqqq5555OOOOOOOOOOOOOOOOOOOO",
"   XoOOOOOOOOOOOOOOOOOOO5555uuuuuuuu5555OOOOOOOOOOOOOOOOOOOOy666",
"  .>oOOOOOOOOOOOOOOOOOOO5555uuuuuuuu5555&&OOOOOOOOOOOOOOOOOy4777",
"  .>oOOOOOOOOOOOOOOOOOOO5555uuuuuuuu5555&&OOOOOOOOOOOOOOOOO67888",
"   XoOOOOO;;OOOOOOOOOOOO5555uuuuuuuu5555OOOOOOOOOOOOOOOOOOO67888",
"   XoOOOOO;;OOOOOOOOOOOOOOOO55555555OOOOOOOOOOOOOOOOOOOOOOO67888",
"   XoOOOOOOOOOOOOOOOOOOOOOOO55555555OOOOOOOOOOOOOOOOOOOOOOO67888",
" # XoO9OOOOOOOOOOOOOOOOOOOOO55555555OOOOOOOOOOOOOOOOOOOOOOO67888",
"   X@+OOOOOOOOOO++OOOOOOOOOO55555555OOOOOO++OOOOOOOOOOOOOOO67888",
"<<<syd66666yOOOO++OOy66yOOOOy6666666666666dy&OOOy6666666666fa888",
"gg4h77777774y;OOOOOy4774yOOy4777aa77777777746&Oy47777777777a8888",
"ttpp8888tt87y;OOOOO678876OO67888pp88888888876&O67888888888888888",
"8888888888876OOO&&O678876OO678888888ee8888t76OO67888888888888888",
"8888888888876OOO&&O678876OO678888888ee8888t76OO67888888888888888"
};
