/* XPM */
static char *rcp0404221731356[] = {
/* columns rows colors chars-per-pixel */
"64 64 161 2 ",
"   c #14151C",
".  c #16181F",
"X  c #141525",
"o  c #141925",
"O  c #191C22",
"+  c #14142B",
"@  c #19152D",
"#  c #151A2D",
"$  c #191C2C",
"%  c #161731",
"&  c #161A32",
"*  c #1A1D32",
"=  c #1A1F3A",
"-  c #2C1735",
";  c #0D242F",
":  c #15212D",
">  c #1E252F",
",  c #1F292F",
"<  c #152133",
"1  c #1D2335",
"2  c #1E2834",
"3  c #17263C",
"4  c #1D243A",
"5  c #1E293A",
"6  c #25252F",
"7  c #222533",
"8  c #242833",
"9  c #2C2F37",
"0  c #23253E",
"q  c #242A3E",
"w  c #282A3E",
"e  c #263337",
"r  c #27303B",
"t  c #28323E",
"y  c #51252D",
"u  c #1E2742",
"i  c #1E2841",
"p  c #222640",
"a  c #252E42",
"s  c #2A2E44",
"d  c #262E49",
"f  c #2D2E4A",
"g  c #263243",
"h  c #2B3343",
"j  c #2E3945",
"k  c #26334A",
"l  c #2B344B",
"z  c #273849",
"x  c #2E394C",
"c  c #333341",
"v  c #323944",
"b  c #32374C",
"n  c #31394B",
"m  c #263655",
"M  c #2D3655",
"N  c #253B55",
"B  c #2D3A55",
"V  c #2D3D59",
"C  c #323655",
"Z  c #313955",
"A  c #3A3C57",
"S  c #323D5A",
"D  c #49214B",
"F  c #2D4256",
"G  c #2C405A",
"H  c #324153",
"J  c #394654",
"K  c #3D4A56",
"L  c #34445B",
"P  c #3A435C",
"I  c #35495D",
"U  c #3C4B5C",
"Y  c #3A5354",
"T  c #334661",
"R  c #3B4661",
"E  c #344B64",
"W  c #3C4B64",
"Q  c #36466B",
"!  c #384769",
"~  c #375064",
"^  c #3C5366",
"/  c #3F5867",
"(  c #3C556C",
")  c #3E596D",
"_  c #3D5671",
"`  c #3F5C74",
"'  c #404C59",
"]  c #495757",
"[  c #445E5C",
"{  c #48585D",
"}  c #46655E",
"|  c #414965",
" . c #455566",
".. c #495665",
"X. c #43556B",
"o. c #445B6E",
"O. c #4A5D6E",
"+. c #445D74",
"@. c #4C5E73",
"#. c #466463",
"$. c #516169",
"%. c #446174",
"&. c #4C6275",
"*. c #43617B",
"=. c #4B667A",
"-. c #4B6A7D",
";. c #516276",
":. c #556C73",
">. c #51647A",
",. c #536B7F",
"<. c #596C78",
"1. c #4D6781",
"2. c #4D6D81",
"3. c #4E6D8A",
"4. c #526E81",
"5. c #596C80",
"6. c #516E8B",
"7. c #4E7181",
"8. c #527082",
"9. c #597283",
"0. c #547089",
"q. c #5E7A8B",
"w. c #597890",
"e. c #637C8D",
"r. c #627E91",
"t. c #627F99",
"y. c #63818D",
"u. c #668092",
"i. c #6B8791",
"p. c #668994",
"a. c #6D8A94",
"s. c #67849D",
"d. c #6E859D",
"f. c #6E8A9D",
"g. c #718C95",
"h. c #769096",
"j. c #72959B",
"k. c #79959C",
"l. c #7C9E9F",
"z. c #6B83A1",
"x. c #6C8AA4",
"c. c #6B8CA8",
"v. c #738EA5",
"b. c #7592A2",
"n. c #7B96A2",
"m. c #7D9BA4",
"M. c #7592A8",
"N. c #7E9AAB",
"B. c #7EA1AB",
"V. c #7FA1B4",
"C. c #809BA4",
"Z. c #819CAD",
"A. c #87A2A7",
"S. c #80A1AB",
"D. c #90B2AD",
"F. c #8EA9B7",
"G. c #90AFBA",
"H. c #91B1B0",
"J. c #91B1BD",
"K. c #8FB3C2",
"L. c #90B3C1",
/* pixels */
"0.8.,.8.8.7.8.8.8.-.-.2.S =.8.2.2.2.2.2.2.2.2.2.4.4.4.4.4.4.4.,.M 4.4.4.4.4.4.4.2.2.2.2.2.2.2.3.3.6.3.! %.3.3.6.6.4.4.0.0.0.0.0.",
"0.8.8.8.8.,.8.,.8.-.,.,.V =.2.7.2.2.2.2.2.4.4.4.4.4.4.4.4.4.4.,.M 4.4.4.4.4.4.,.4.4.4.2.2.-.2.2.6.2.6.T *.-.3.,.6.4.6.8.0.,.0.,.",
"8.8.8.0.8.8.8.8.8.7.7.7.S =.8.7.2.2.2.2.4.4.4.4.4.4.4.4.4.4.4.,.M 4.4.4.4.4.4.4.4.4.4.4.2.2.2.2.3.6.3.! %.3.3.6.6.6.6.6.0.0.0.0.",
"0.8.0.8.0.8.8.,.8.7.7.8.G -.7.7.2.2.4.4.4.4.4.4.4.4.4.4.4.4.4.,.N 4.4.4.4.4.4.4.4.4.4.4.4.,.2.-.3.4.3.T *.-.3.,.6.4.6.4.6.,.0.,.",
"0.0.0.0.0.8.8.7.8.7.7.2.S =.2.2.2.4.4.4.4.4.4.4.4.4.4.4.4.4.5.,.m 5.5.4.4.5.4.4.4.4.4.4.6.6.6.3.3.3.3.Q %.3.3.6.6.6.6.6.6.6.0.0.",
"0.8.0.8.0.8.8.7.8.7.7.8.V -.7.2.2.4.4.4.4.4.4.4.4.5.5.5.4.4.4.,.C 5.5.5.5.5.5.4.4.4.4.4.6.4.6.-.3.2.3.T *.-.3.4.6.4.6.4.6.4.0.8.",
"0.0.0.0.0.8.8.7.8.7.7.2.V =.7.8.2.4.4.4.4.4.4.4.4.5.O.+ + + + + + + + + + ,.5.4.4.4.4.4.6.6.6.3.6.3.3.Q %.3.3.6.6.6.6.6.6.6.0.0.",
"0.,.0.,.0.,.8.8.8.7.7.7.V -.7.8.4.4.4.4.4.4.4.4.5.X.+ $ V 5.5.5.2.2.5.Z + + ,.5.4.4.4.4.6.4.6.4.3.7.3.T %.2.3.4.6.4.6.5.6.5.6.8.",
"0.0.0.0.0.0.8.8.8.7.,.,.V =.7.8.4.4.4.4.4.4.4.4.5. .: G =.C # # # # Z ,.C + ,.5.4.4.4.4.6.6.6.6.3.2.-.T %.3.3.6.6.6.6.6.6.6.6.0.",
"0.,.0.,.0.8.8.,.8.,.,.,.V -.7.k * * * * I 2.U * * & : & 4 M + + + + # A % + $ * * * -.,.p * * * = +.3.T %.2.3.4.6.4.6.4.6.5.0.8.",
"0.0.0.0.0.8.8.8.7.7.,.4 * 1 4 # W %.I 4 O 4 O k @.X.s + + & # @.@.l + & + + @.M c # 1 4 # ] j m * 1 7 * 7 / 3.6.6.6.6.6.6.6.6.0.",
"0.8.0.8.0.8.8.8.7.7.7.; / [ o.o.=.4.=.+.o.o.o.&.4.,.@.O.X.O.O.4.5.;.O.O.o.) 2.%.n l { h t L B B h k e k 1 ^ 3.4.6.4.6.4.6.4.6.8.",
"0.0.0.8.8.8.8.8.7.7.7.# =.2.2.2.2.2.4.4.4.4.4.4.4.4.4.4.4.4.4.4.5.5.R T 2.R T T B B R B B j B B B B B B 1 ^ 3.6.6.6.6.6.6.0.0.0.",
"0.,.0.,.8.8.8.8.7.7.7.# I Y W W W W E W E ! E W E ! E | T E T | T E M M ! M B B B B B B B B B B B B B B 1 ^ 3.4.6.4.6.4.0.8.0.8.",
"^ ( ^ ( ^ ^ ^ ^ ^ ^ ^ # M B B B B B B B B B B B B B M M M M M C M M M M M M B B B B B B B B B B B B B B 1 Z ^ ( ^ ( ^ ( ^ ( ^ ( ",
"e.o.e.e.e.e.e.) X.) X.# 0 p p i q i 0 p 0 0 0 0 0 0 0 0 0 0 0 0 0 0 0 0 0 0 0 0 5 0 p 0 i q i q i q 2 q * F _ <.1.:.e.4.+.o.=.e.",
"b.0.b.b.b.b.j.4.2.2.-.H $ 1 8 8 * + + + + + + + + + + + + + + + + + + + + + + + + + + + + + + + > 8 2 * k &.3.u.t.r.v.s.0.0.q.M.",
"0.8.8.8.8.4.4.4.2.-.-.-.* M Z n 1 X + X + X + X + X + + + + + + + + + + + + X + X + X + X + X + h B n 1 ( 7.3.7.7.,.7.,.0.8.0.,.",
"8.8.8.8.4.4.4.4.2.2.2.5.= P E W 5 + X + + + + + + + + + + + + + + + + + + + + + + + + + + + + + L E E 0 ( 7.7.7.7.7.0.8.0.0.8.8.",
"8.8.8.4.4.4.4.2.2.2.2.2.* &.2.2.a o + X + X + X + + + + + + + + + + + + + + + + X + X + X + X + O.5.2.a / 8.7.7.7.,.0.8.8.8.8.,.",
"8.8.4.4.4.4.2.2.2.2.2.2.* &.3.2.d # X + + + + + + + + + + + + + + + + + + + + + + + + + + + + + O.2.7.g  .7.7.7.7.7.8.8.8.8.8.8.",
"8.8.4.,.4.2.2.2.2.2.2.2.* &.2.2.a + + + + + + + + + + + + + + + + + + + + + + + + + + + + + X + @.8.7.g ^ 7.7.7.7.7.7.8.8.8.8.8.",
"8.8.4.,.4.2.2.2.4.2.2.2.* &.3.5.a + + + + + + + + + + + + + + + + + + + + @ + + + + + + + + + + O.7.9.g  .7.7.7.7.7.7.8.8.8.8.8.",
"8.4.,.4.4.2.2.4.4.2.2.2.* ;.2.2.a + + + + + + + + + - D + + + + + + + + + y # + + + + + + + + + O.7.7.g ^ 7.7.7.7.7.7.8.8.8.8.8.",
"8.4.,.,.,.2.2.2.2.2.2.2.* ;.2.2.a # + + + + + + + + + + + + + + + + + + + + + + + + + + + + + + O.7.7.g ..7.7.7.7.7.7.8.8.8.,.,.",
"8.8.4.,.4.2.2.2.2.2.2.5.* %.2.3.a + + + + + + + + + + + + + + + + + + + + + + + + + + + + + + + O.7.7.g ^ 7.7.7.7.7.7.8.8.8.8.8.",
"8.8.8.4.8.2.2.2.2.2.2.5.* %.3.2.d + + + + + + + + + + + + + + + + + + + + + + + + + + + + + X + O.7.7.g ..7.7.7.7.7.7.7.8.8.8.8.",
"8.8.8.4.8.2.2.2.2.2.2.2.< %.2.2.g + + + + + + + + + + + + + + + + + + + + + + + + + + + + + + + O.2.2.a / 7.7.7.7.7.7.8.8.8.8.8.",
"8.8.8.4.4.4.4.2.2.2.2.5.* %.2.5.a # + X + X + X + + + + + + + + + + + + + + + + X + X + X + X + O.3.5.a ( 7.7.7.7.,.7.,.8.8.8.8.",
"8.8.8.8.4.4.4.4.7.2.2.2.* %.2.2.g + + + + + + + + + + + + + + + + + + + # + + + + + + + + + + + O.2.2.a / 0.7.7.7.7.7.8.0.0.0.0.",
"0.8.8.8.8.4.4.4.2.2.2.5.* %.2.5.a # + X + X + X + X + + + + + + + + + m + B Z C # + c # X + X + o.3.4.a ( 7.3.7.7.,.0.,.0.,.0.8.",
"0.0.8.8.8.4.4.4.2.2.2.5.* %.5.5.g + + + + + + + + + + + + + + + + + + + + + @ + + + + + + + + + O.3.3.a / 4.3.0.0.0.0.0.0.0.0.0.",
"B Z V Z B B B B B Z B B # %.3.4.a # + # + + + X + + + & N M M M M M M M M C X X + + + l v &   + +.2.4.a k B S Z Z B Z B S B S B ",
"8.J.J.8.J.7.J.J.J.G.,.2.* %.2.2.g + + + + + + + + * x C l + + + + + C C + X + X + z # # # + + + O.3.3.a ( 3.n.x.8.g.J.J.J.J.J.V.",
"0.,.0.,.8.8.8.8.8.7.7.8.* #.3.4.a # +   + + + + 1 n B x M Z M C C M C M M B B M x B x z n v * + [ 2.6.a ( 7.3.4.0.8.6.4.0.8.0.8.",
"0.0.0.8.0.8.8.8.8.7.7.4.* %.7.2.g + + + + + 1 w 7 Z Z f + % C C C C C + + x x x Z # M B & + + + o.3.3.a ( 6.3.6.6.6.0.6.6.0.0.0.",
"0.8.0.,.8.,.8.8.8.7.7.4.* #.2.2.a # +   + + + + + + + + + + + + + + + + + + + +   +   +   +   + +.3.6.a _ 2.3.4.6.4.6.4.6.4.0.8.",
"0.0.0.0.0.8.8.8.8.7.7.4.* %.7.2.a + + + + + + + X + X + + + + + + + + + + + + + +   +   + + + + +.3.3.a ^ 6.3.6.6.6.6.6.6.6.0.0.",
"0.,.0.,.0.,.8.,.8.7.7.4.* } 7.8.a # +   + 8 Z b W O.n P 5.;.S 2.5.5.2.2.2.4.5.Z M ,.:.S j B v * +.3.6.a _ 2.3.4.6.4.6.4.6.4.0.8.",
"0.0.0.0.0.8.8.8.8.7.7.2.* %.7.8.a + + + , j j C Z Z Z C C C C C 5.C C C C Z Z B Z N B B B B B * +.3.3.a ^ 3.3.6.6.6.6.6.6.6.6.0.",
"0.,.0.,.0.,.8.8.8.7.7.7.* } 7.8.a + + # u j B Z Z Z Z C C C C C C C C C C Z Z Z Z Z B B B B V * +.3.3.a _ 7.3.4.6.4.6.4.6.5.6.,.",
"0.0.0.0.0.0.8.8.8.7.7.4.* %.7.4.g + + + # i B B B Z Z C C C C C C C C C C Z Z B B B B B B B & # +.3.6.a _ 3.3.6.6.6.6.6.6.6.0.0.",
"0.,.0.,.0.8.8.8.8.7.7.7.* } 7.2.a # +   + . * & & & & & * * * & & & & & & & & & & & & * & *   + +.2.3.a _ 8.3.4.6.4.6.8.6.4.0.,.",
"0.0.0.0.0.8.8.8.8.7.7.4.* %.2.4.g + + 6 t t 0 $ p + # h f f f f + + f h s h h h h t t t % 9 & + o.3.6.a _ 3.3.6.6.6.6.6.0.6.0.0.",
"0.,.0.,.0.8.8.,.8.7.7.7.* %.2.4.s + > h B n h h h s h x C C M C f f C C b Z x B x B x Z w B r * @.2.3.a ( 6.3.,.6.4.6.4.6.8.0.,.",
"0.0.0.8.8.8.8.8.8.7.7.4.* %.3.4.a i W +.9.f.d.f.z.x.z.x.x.c.x.c.c.x.x.x.x.x.x.x.f.f.f.f.d.*.+.3 +.3.6.a ( 3.3.6.6.6.6.6.0.0.0.0.",
"0.,.0.8.8.8.8.8.8.2.7.7.* %.2.2.a L =.2.q.C.H.C.a.a.k.A.h.L.D.K.g.a.a.L.D.J.D.J.a.a.a.F.f.0.4.4 +.2.3.a ( 3.3.,.6.4.6.8.0.8.0.8.",
"0.8.8.8.8.8.8.8.8.2.2.5.* %.3.2.a ^ 2.2.2.q.g.y.4.4.9.i.7.g.a.g.4.4.4.g.a.g.a.g.5.2.4.a.0.2.4.4 +.3.6.a ( 7.3.6.6.6.6.0.0.0.0.0.",
"4.,.4.8.4.4.4.4.2.2.2.2.* $.5.5.a ^ 4.2.2.2.2.2.2.2.2.2.4.4.4.4.4.4.4.4.2.2.2.2.2.4.2.4.2.4.4.4 @.5.4.a X.2.3.7.0.8.0.,.0.,.0.8.",
"o.o.o.+.o.+.o.o.o.o.) X.* A P K 1 n U U I U I U I I I I I I I I I I I I I I I I I I U U U K U 1 Z U U 0 I ` o.+.o.o.o.o.o.o.o.o.",
"-.=.=.=.=.=.=.=.E &.E E q k z z z J ' ' U U H k k k x W J k k k 5 k K k k W K W K z z K ' ' ' U U x z 5 F O.=.=.=.+.~ o.+.W X.&.",
"S.Z.Z.Z.S.Z.B.N.2.N.2.2.G >.2.2.2.f.m.m.m.m.p.2.2.2.0.m.j.2.2.-.m 2.l.2.2.m.m.N.m.7.2.k.C.C.m.m.m.w.2.T &.j.Z.N.Z.z.0.u.v.8.e.M.",
"8.8.5.4.5.4.5.2.5.2.5.2.G =.5.2.2.2.2.2.2.2.2.2.2.2.2.2.2.2.2.-.m 2.2.2.2.2.2.2.2.2.2.2.2.2.2.2.2.2.7.W &.7.7.7.7.7.7.8.8.,.8.8.",
"8.8.4.4.4.2.2.2.2.2.2.2.G =.2.2.2.2.2.2.2.2.2.2.2.2.2.2.2.2.2.-.m 2.2.2.2.2.2.2.2.2.2.2.2.2.2.2.2.7.7.E %.7.7.7.7.7.7.7.8.8.8.8.",
"8.8.4.4.4.2.2.2.2.2.2.2.L =.2.2.2.2.2.2.2.2.2.2.2.2.2.2.2.2.2.-.m 2.2.2.-.-.2.-.2.2.2.2.2.2.2.2.7.7.7.W %.7.7.7.7.7.7.,.8.,.8.8.",
"8.4.4.4.4.2.2.2.2.2.2.2.G =.2.2.2.2.2.2.2.2.2.2.2.2.2.2.2.2.2.-.m 2.2.2.2.2.-.2.2.2.2.2.2.2.2.2.7.7.7.E %.7.7.7.7.7.7.,.,.,.8.8.",
"8.4.4.4.4.2.2.2.2.2.2.2.P =.2.2.2.2.2.2.2.2.2.2.2.2.2.2.2.2.2.-.m 2.2.2.2.2.2.2.2.2.2.2.2.2.2.2.7.7.7.W %.7.7.7.7.7.7.8.7.8.8.8.",
"8.8.4.4.4.2.2.2.2.2.2.2.G =.2.2.2.2.2.2.2.2.2.2.2.2.2.2.2.2.2.-.m 2.2.2.2.2.2.2.2.2.2.2.2.2.2.2.7.7.7.E %.7.7.7.7.7.7.8.7.,.8.8.",
"8.8.4.4.4.2.2.2.2.2.2.2.L =.2.2.2.2.2.2.2.2.2.2.2.2.2.2.2.2.2.-.m 2.2.2.2.2.2.2.2.2.2.2.2.2.2.2.2.7.7.W %.7.7.7.7.7.7.8.7.8.8.8.",
"8.,.4.,.4.4.2.2.2.2.2.2.G =.2.2.2.2.2.2.2.2.2.2.2.2.2.2.2.2.2.-.m 2.2.2.2.2.2.2.2.2.2.2.2.2.2.2.2.2.7.E %.7.7.7.7.7.8.8.8.,.8.,.",
"8.8.8.4.4.4.4.2.2.2.2.2.L =.2.2.2.2.2.2.2.2.2.2.2.2.2.2.2.2.2.-.m 2.2.2.2.2.2.2.2.2.2.2.2.2.2.2.2.2.2.W %.7.7.7.7.0.7.8.8.8.8.8.",
"8.,.8.8.4.4.4.4.2.2.2.2.G =.2.2.2.2.2.2.2.2.2.2.2.2.2.2.2.2.2.-.m 2.2.2.2.2.2.2.2.2.2.2.2.2.2.2.2.2.2.E %.,.7.7.0.8.0.8.8.,.0.,.",
"0.8.8.8.8.4.4.4.2.2.2.2.L =.2.2.2.2.2.2.2.2.2.2.2.2.2.2.2.2.2.-.m 2.2.2.2.2.2.2.2.2.2.2.2.2.2.2.2.3.3.! %.7.3.7.0.0.0.0.0.0.0.8.",
"0.8.8.8.8.4.4.4.2.2.2.2.V =.2.2.2.2.2.2.2.2.2.2.2.2.2.2.4.4.4.,.m 2.4.4.2.2.2.2.2.2.2.2.2.2.2.2.3.2.3.T *.-.3.7.0.8.0.8.0.,.0.0."
};
