/* XPM */
static char *rcp0404180641551[] = {
/* columns rows colors chars-per-pixel */
"64 64 220 2 ",
"   c #171F2B",
".  c #1D1E2B",
"X  c #1E1F27",
"o  c #16222D",
"O  c #1D222B",
"+  c #1D2B39",
"@  c #1D2835",
"#  c #20212E",
"$  c #232A2E",
"%  c #222532",
"&  c #212A33",
"*  c #242D3A",
"=  c #2A2E3C",
"-  c #282C35",
";  c #3B273B",
":  c #25333D",
">  c #2B343D",
",  c #283237",
"<  c #30383E",
"1  c #4E2D39",
"2  c #532F3B",
"3  c #56313A",
"4  c #653F3E",
"5  c #68423B",
"6  c #664239",
"7  c #1F1F43",
"8  c #201C42",
"9  c #1E2B42",
"0  c #242C43",
"q  c #282D49",
"w  c #2A3543",
"e  c #293843",
"r  c #29324C",
"t  c #283746",
"y  c #2C3857",
"u  c #323F53",
"i  c #333E5A",
"p  c #303E4E",
"a  c #4F334B",
"s  c #6E2C55",
"d  c #793757",
"f  c #742E55",
"g  c #2F424E",
"h  c #33444C",
"j  c #3C464A",
"k  c #2F4254",
"l  c #334355",
"z  c #374956",
"x  c #33445C",
"c  c #3A4E5C",
"v  c #38475C",
"b  c #3B505F",
"n  c #334363",
"m  c #35436B",
"M  c #3C4E68",
"N  c #3C4F63",
"B  c #3E5264",
"V  c #3D526C",
"C  c #3F5866",
"Z  c #374471",
"A  c #3D5474",
"S  c #3C5378",
"D  c #2F4065",
"F  c #494B55",
"G  c #494B58",
"H  c #43505D",
"J  c #644040",
"K  c #4A4B63",
"L  c #415565",
"P  c #44566C",
"I  c #49556D",
"U  c #465C6C",
"Y  c #495D6C",
"T  c #425866",
"R  c #425575",
"E  c #455B74",
"W  c #4B5D72",
"Q  c #45557B",
"!  c #465A7A",
"~  c #485B7D",
"^  c #46616D",
"/  c #4A646D",
"(  c #4E6A6E",
")  c #4B6373",
"_  c #4D6A75",
"`  c #4D657A",
"'  c #466078",
"]  c #546B7C",
"[  c #536777",
"{  c #54727C",
"}  c #57797E",
"|  c #5D767F",
" . c #65737A",
".. c #843856",
"X. c #B43955",
"o. c #884555",
"O. c #9B4754",
"+. c #A64E5D",
"@. c #A64755",
"#. c #B34655",
"$. c #B64955",
"%. c #B6495B",
"&. c #BB4C58",
"*. c #BB4A56",
"=. c #AA5758",
"-. c #BD5056",
";. c #BE5058",
":. c #A66955",
">. c #A7675C",
",. c #A86656",
"<. c #BC6E55",
"1. c #B64962",
"2. c #A76863",
"3. c #A6696A",
"4. c #CC5D55",
"5. c #CE5E5C",
"6. c #C25556",
"7. c #D15E55",
"8. c #CF6255",
"9. c #CB6D55",
"0. c #D56B55",
"q. c #DF7255",
"w. c #DF7259",
"e. c #E67855",
"r. c #EB7D55",
"t. c #E57A5A",
"y. c #EC7D5C",
"u. c #E07255",
"i. c #F17D55",
"p. c #F97D55",
"a. c #D15E62",
"s. c #C77A61",
"d. c #EE7C61",
"f. c #F17D65",
"g. c #F27C68",
"h. c #D38B75",
"j. c #495A86",
"k. c #4D6285",
"l. c #4C6089",
"z. c #546E81",
"x. c #596E81",
"c. c #556D8D",
"v. c #596F89",
"b. c #50638C",
"n. c #547382",
"m. c #597382",
"M. c #557880",
"N. c #5A7A83",
"B. c #55718B",
"V. c #58748B",
"C. c #5B798A",
"Z. c #56788E",
"A. c #546E94",
"S. c #586F94",
"D. c #546D99",
"F. c #596D99",
"G. c #567192",
"H. c #587292",
"J. c #5B7A95",
"K. c #627D8E",
"L. c #647D94",
"P. c #647A9A",
"I. c #6A7C91",
"U. c #5E828A",
"Y. c #5A8191",
"T. c #63808C",
"R. c #618587",
"E. c #718B8A",
"W. c #668495",
"Q. c #6D8A9C",
"!. c #698697",
"~. c #728B92",
"^. c #71869A",
"/. c #75939D",
"(. c #6D909C",
"). c #6D8CA3",
"_. c #6A87A6",
"`. c #718BA3",
"'. c #728CAA",
"]. c #6E92A0",
"[. c #6596A2",
"{. c #7294A4",
"}. c #7596AA",
"|. c #7996A9",
" X c #7393B4",
".X c #7BBDCE",
"XX c #8B8E93",
"oX c #A9A49C",
"OX c #828DAF",
"+X c #8598AF",
"@X c #859DB2",
"#X c #9396AC",
"$X c #A49FA8",
"%X c #82A4AB",
"&X c #82A3BD",
"*X c #8AA3BC",
"=X c #86A0B4",
"-X c #94AABE",
";X c #A9A4AD",
":X c #A4A2AE",
">X c #A9A5B0",
",X c #B6A5B0",
"<X c #8CA6C1",
"1X c #85A9C3",
"2X c #86A5C4",
"3X c #93B2C3",
"4X c #95B6CA",
"5X c #8BBBD5",
"6X c #91B4D3",
"7X c #9CB4D3",
"8X c #8FB1CC",
"9X c #A8AFCA",
"0X c #8CC5D6",
"qX c #96C0DB",
"wX c #90CAE6",
"eX c #8EDCEC",
"rX c #8AD7EA",
"tX c #83DAF1",
"yX c #90D7F0",
"uX c #88E8F8",
/* pixels */
"n.B.{ { B.B.B.Z.B.B.n.n.) b n.n.n.B.B.B.V.V.V.V.V.V.V.m.m.m.m.} z { x.m.V.V.V.V.V.V.V.V.B.B.B.V.B.V.B.v.l B.B.B.B.n.n.B.B.B.B.B.",
"n.B.{ B.{ B.n.B.n.B.n.G.) V n.B.n.B.n.V.m.V.m.V.m.V.} V.} m.} } z { m.x.V.m.V.} V.} V.{ V.n.V.m.V.n.V.] m m.B.n.B.n.B.n.B.n.B.{ ",
"n.n.n.n.B.B.c.c.B.G.G.G.k.b G.G.V.V.B.V.V.V.V.V.V.V.V.V.V.m.m.N.z { x.V.V.V.V.V.V.V.V.V.V.V.V.V.S.H.H.c.l H.H.B.B.B.B.B.v.B.B.v.",
"n.B.n.B.n.B.z.A.n.G.z.G.) A n.G.m.H.n.V.m.V.m.V.m.V.} V.m.m.| N.z { m.m.V.m.V.m.V.} V.{ V.m.H.m.H.m.H.] m x.H.m.G.n.B.n.B.z.B.n.",
"B.B.B.B.B.B.G.A.A.A.A.A.l.B G.G.H.H.G.H.V.V.V.V.V.V.V.V.N.N.N.N.z { N.N.N.V.V.V.V.V.V.V.H.H.H.H.H.H.H.A.l S.S.S.S.H.V.B.B.B.B.B.",
"n.B.n.B.n.B.z.A.z.A.z.A.) S n.G.n.G.n.H.m.V.m.V.m.V.| N.N.N.N.N.z } N.N.N.N.V.m.V.m.V.m.H.m.H.m.H.m.S.] m x.S.x.S.x.B.m.B.n.B.n.",
"B.B.B.B.c.A.A.A.A.A.D.D.j.B A.G.G.G.G.H.H.H.V.V.V.V.V.N.N.N.N.N.z M.N.N.N.C.V.V.V.V.H.H.H.H.H.H.H.S.F.A.l F.S.S.S.S.S.c.B.B.B.B.",
"n.B.n.c.z.A.z.A.z.D.z.D.W S z.A.n.G.n.H.m.H.m.V.} V.N.C.N.N.N.N.z } N.N.C.N.V.m.V.m.H.m.H.m.H.m.S.x.F.] Z x.F.x.S.x.S.z.c.n.B.z.",
"B.B.B.c.A.A.A.A.A.D.D.D.j.b D.A.G.G.G.H.H.H.V.V.V.V.C.C.N.N.N.N.z M.N.N.C.C.V.V.V.V.H.H.H.H.H.H.S.F.F.A.l F.F.S.S.S.S.A.c.B.B.v.",
"z.B.z.c.z.A.z.A.z.A.z.D.W S z.G.n.G.n.H.m.H.m.V.m.V.N.N.N.N.N.N.z } N.N.N.m.V.m.V.m.H.m.H.m.H.x.H.x.F.] Z x.S.x.S.x.S.z.B.n.v.] ",
"B.B.B.B.B.B.A.A.A.A.A.A.j.b G.G.G.G.G.H.H.V.V.V.V.V.C.N.N.N.N.N.z } N.N.N.V.V.V.V.V.V.H.H.H.H.H.H.H.S.A.l S.S.S.S.S.B.B.B.B.B.B.",
"n.B.n.B.n.B.n.A.z.A.z.j.= $ > , > , > , > = > * : : : : : : : : @ : : : : : : : : : : : , > , > > > > > % > S.x.S.n.B.n.B.n.B.n.",
"B.B.B.B.B.B.B.G.G.G.A.Q r [ L.( Q.Q.Q.Q.^./ `.~.).`.`.`.`.E.`.E.`.E.`.E.`.E.`.~.`.~.).~.Q.K.^ U ^ Q Q R y   H.m.n.B.B.B.B.B.B.B.",
"n.B.n.B.n.B.n.B.n.G.n.R e H.W.H.{.wX8X_.Q.V.Q.).rX6XQ._.6X6X6XtX7X].).(.V.W.<X|.J.c.] ] ] I.{.] R T T B l   S.n.B.n.B.n.B.n.B.z.",
"V B V B A B A B A C A l e G.B.B.T.5XW.N v.V.v.C.0X`.l m.{.6X{.wX}.l { H._ P W.z.g y l l l / P.c w n l l l   T T T R T R T P B V ",
"m.` | K.L.K.L.z.P ! P v e B.n.B.N._.h & m.v.m.V.{.k o n.m.6Xm.}.l @ [ m.W Y E g & w l l n c c * @ l l l l   ! P P.P P.L.E P E K.",
"Q.C.Q.{.{.{.{.W.n.n.n.T > Y Y Y ! T r w ! Y Y Y U r w Y x.|.x.Y w w T Y v T c t : p l x l l p > w l l l l   n.B.|.B.|.|.B.B.B.'.",
"{ B.{ B.{ B.{ B.n.B.n.P % w w w w w w w w w w w w w e w H b c e e e e w e w w w w w w w w w w w w w w w w   B.n.B.{ B.{ B.n.B.z.",
"n.n.B.B.B.B.B.B.B.V.V.P . o 9 + * * * = J J 4 2 5 6 5 6 ; 5 5 3 6 3 2 ; 1 2 2 2 2 ; ; a 1 a * * * * + +     M.B.B.B.B.B.B.B.B.B.",
"n.n.{ n.{ B.n.B.n.n.M.) * 0 B M B B b F r.y.e.%.r.r.r.r.f r.r.6.r.6.6.s @.-.&.#.#.....#.#.o.v B M N M c   w B.n.B.n.B.{ n.{ n.n.",
"n.n.n.n.B.B.B.B.n.n.n.V.Y e U.M.M.M.] F y.r.e.$.r.r.r.r.#.r.r.r.r.r.r.d @.q.4.6.6...o.&.#.o.B n.n.n.n.] o n.n.B.n.n.B.B.n.n.n.n.",
"{ n.n.n.n.n.n.n.M.n.M.n.Y j *Xn.M.M.] F r.r.e.$.r.r.r.r.$.p.r.r.r.r.r.d 9.r.r.r.r.@.=.0.&.o.B M.n.M.n.] O M.n.n.M.{ n.n.n.n.n.{ ",
"n.n.n.n.n.n.M.M.M.M.M.M.U h <XY.N.M.] F r.r.e.$.r.r.r.r.#.r.r.r.r.r.r.-.q.r.r.r.r.4.8.r.r.:.B Z.U.N.M.{ o M.M.M.M.M.M.n.n.n.n.n.",
"n.n.n.n.n.M.M.M.M.M.M.M.U h qXeX<X{ ] F r.r.e.$.r.r.r.r.$.p.r.r.r.r.r.-.q.r.r.r.r.4.8.r.r.,.B [.tX*X{ { O } M.M.M.{ { n.n.n.n.n.",
"n.n.n.n.n.n.M.M.M.M.M.m.U h 4X<X) * ] F r.r.e.$.r.r.r.r.$.r.r.r.r.r.r.-.q.r.r.r.r.4.8.r.r.:.B !.*X_ @ { o M.M.M.M.{ { n.n.n.n.n.",
"n.n.n.n.n.n.n.M.M.M.M.M.Y j *X/ o + ] F r.r.e.$.r.r.r.r.$.r.r.r.r.r.r.-.q.r.r.r.r.4.8.r.r.,.B M./   @ { # M.M.M.M.M.M.n.n.n.n.n.",
"n.n.{ n.n.n.M.n.M.n.M.V.U h  XV.n.V.] G r.y.e.$.r.r.r.r.#.r.r.r.r.r.r.-.q.r.r.r.r.4.8.r.r.:.B M.n.M.n.{ o M.n.M.M.{ n.{ n.n.n.n.",
"n.n.n.n.B.n.B.n.n.n.n.n.Y j *Xn.V.n.] F y.r.e.$.r.r.r.r.#.r.r.r.r.r.r.-.q.r.r.r.r.4.8.y.r.>.B n.n.n.n.] # n.n.n.n.n.n.n.n.n.n.n.",
"{ n.{ n.n.B.n.B.{ n.M.V.E l &Xn.M.n.] F r.y.e.%.r.r.r.r.#.r.r.r.r.r.r.-.q.r.r.r.y.4.8.r.y.:.V M.n.V.n.] o M.V.n.B.{ B.{ B.n.n.n.",
"n.n.B.B.B.B.B.B.B.V.V.V.E j *XV.V.n.] F y.r.t.$.y.r.r.r.#.r.r.r.r.r.r.-.q.r.r.y.r.4.8.y.r.>.B V.V.V.V.z.# V.V.B.B.B.B.B.B.B.B.B.",
"{ B.{ B.{ B.{ B.n.B.n.B.E h 0XeX1XV.] F r.y.e.%.r.y.r.r.$.r.r.r.r.r.r.-.q.r.y.r.y.4.8.r.y.:.B [.tX&XB.] o n.B.n.B.{ B.{ B.{ B.n.",
"B.B.B.B.B.B.B.B.B.B.B.B.E j 4X1X) 0 ] F y.r.y.$.y.r.y.r.$.r.r.r.r.r.r.;.q.y.r.y.r.5.8.y.r.>.B W.%X) 0 z.# B.B.B.B.B.B.B.B.B.B.B.",
"u u k x k l l l k l l l t j &X` o 0 ] K r.y.e.%.r.y.r.r.$.r.i.m.m.t.r.*.w.r.y.r.y.7.8.r.d.:.B M.! . 0 ] . l n l l l l l i u i u ",
"{ |.3XQ.{.)./.3X3X3X Xn.! j *XB.B.B.z.F d.r.y.$.y.r.y.r.#.m.z uX6Xb ] +.u.y.r.y.r.5.8.d.r.2.B n.Z.B.c.n # n.Z.4XM.n.3X3X3X3X3X-X",
"{ B.n.B.n.B.n.B.n.G.n.A.U j &XA.M.G.{ K r.d.e.%.r.y.i.r.m.x.z 6XN.c { m.s.r.y.r.y.7.8.i.f.:.B M.G.x.H.] O m.H.z.c.z.B.z.v.n.B.n.",
"B.B.B.B.B.B.B.G.G.G.A.A.Q w M.Z.G.G.c.F f.r.d.$.y.r.y.x.V.m.$.z z @. .m.x.s.r.y.i.a.8.f.i.2.B n.G.H.c.D # S.H.H.A.c.B.B.B.B.B.B.",
"n.B.n.B.n.B.n.A.z.A.z.A.P j &Xn.M.G.] F i.f.r.1.r.y.r.6XN.#.r.r.r.r.&. .2Xh.y.r.d.7.8.r.f.:.L M.H.m.c.u # x.S.x.S.z.B.{ B.n.B.z.",
"v.B.B.B.B.B.A.A.A.A.A.A.Q w _.eX1Xn.] F f.i.d.$.d.r.y.6X7Xr.r.r.r.r.r.9X6Xh.y.y.r.a.8.f.i.2.L  XuX1X{ m # S.S.S.S.S.B.B.B.B.B.B.",
"z.B.{ B.z.A.z.A.] A.z.D.P w T.1X) q ] F i.f.r.1.r.d.r.v.6XX.r.r.r.r.&.-XW.s.y.r.f.7.8.i.f.:.L !.1XW % u # x.S.x.S.x.S.z.B.n.B.n.",
"v.c.B.c.A.A.A.A.A.D.D.D.j.w z.( 8 r ] F f.i.d.$.d.r.d.z x.N.X.r.r.&. .N.M <.r.d.i.a.8.f.i.3.L n./ 7 % m # F.F.S.S.S.S.A.c.B.B.B.",
"n.B.n.c.z.A.z.A.z.D.z.D.P w z.A.] A.] K i.f.r.1.i.f.r.#.z x.| 7X6XR.N.c O.q.d.r.f.7.8.i.g.:.L x.S.] ` l # x.F.x.S.x.S.x.c.{ B.{ ",
"B.B.B.B.c.A.A.A.A.A.D.D.j.w z.G.G.G.c.F f.i.d.$.f.r.y.t.a i N.U.U.N.b a 9.y.y.d.i.a.8.f.i.2.L m.H.` c b.O x.S.S.S.S.S.c.B.B.B.B.",
"z.B.n.B.n.B.z.A.z.A.z.A.Q w M.G.n.G.] F i.f.r.$.r.y.r.y.@.O.+.+.+.+.@.@.q.r.y.r.d.7.8.i.f.:.L x.b.B b.l # S.S.x.S.x.c.z.B.n.B.{ ",
"B.B.B.B.B.B.G.A.A.A.A.j.0 * c c c c c F f.i.y.d y.y.y.r.s u.q.q.q.w.w.d 0.y.r.y.r.=.=.f.i.2.z c c m c n . r S.S.S.G.c.c.B.B.B.B.",
"n.B.n.B.n.B.n.G.n.G.z.Q : ~ ) k.k.k._ x.$XXX;XOXoX>X;X;XOX>X>X,X>X>X>XOX:X;XoX;XoX#X#X;X;XXX! c k.k.k.W y   H.m.G.n.B.n.B.n.B.] ",
"B.B.B.v.B.B.B.B.B.G.G.R e G.G.G.J..X}.N.!.N._.`.rX6XQ.6X6X6X7XyX6X].].).V.!.<X|.J.c.] c.] P.).~ R T T A n . H.B.B.B.B.B.B.B.B.B.",
"] B.n.B.n.B.n.B.n.B.n.R e B.n.B.R.5XW.z m.V.m.C.0X).h 6X6X6X{.wX}.l { m._ U T.] k p l l l W P.c w l l l l . V.m.V.n.B.n.B.n.B.n.",
"z.B.B.B.B.B.B.B.B.B.B.R e G.B.B.N.Q.h & V.V.V.V.`.l O }.'.}.m.}.z O [ m.Y ^ U g & w l l l M c 0 @ n l n l . V.B.B.B.B.B.B.B.B.B.",
"] B.z.B.n.B.n.B.n.B.n.P : ! Y ! Y P : w Y E Y E Y = w I Y I Y I w = T I c L B w > p x l x l i * w l n l n . B.n.B.n.B.n.B.n.z.n.",
"U U Y U E Y ' ^ ^ ^ ^ c O w w w w w w w w w w w w w e e e e e e e e e e e e w w w w w w w w w w w w w w w . ' ' ^ ^ Y Y Y Y Y Y ",
") ` ` [ ` [ ] [ ! U ) h   X     o O o O o O o O o O o O O O O O O O O O O o O o O o O o # o O o .   .   . . ] ] z.[ B B z.B V ` ",
"/.@X@X@X%X@X=X@X'.W. X) =       O o O o O o O o O o O O # O O O O O O O O O o O o O o O o O o O   .   .   w *X=X@X@XB.B.@XB.n.@X",
"n.n.n.B.n.B.n.n.m.n.m.V.U + : 0 : w : w : w > w > w > > > > > < - > > > > > w > w > w : w : w : w * w * * M.n.M.B.{ n.n.n.{ n.n.",
"n.n.n.n.n.n.M.M.n.n.n.n.` b n.n.n.M.M.M.M.n.m.m.m.m.m.m.m.m.m.x.z ] x.m.m.m.m.m.m.m.n.M.n.n.M.n.n.n.n.n.l n.n.n.M.M.n.n.n.n.n.n.",
"n.n.n.n.n.M.M.M.M.M.M.M._ N M.M.M.M.M.M.m.m.m.m.m.m.m.m.m.x.x.x.z ] x.m.m.m.m.m.m.m.m.m.n.n.M.M.M.M.M.{ x M.M.M.M.n.n.n.n.n.n.n.",
"{ { n.n.n.M.M.M.M.M.M.M._ c M.M.M.M.M.m.m.m.m.m.m.m.m.m.x.x.x.x.z ] x.x.m.m.m.m.m.m.m.m.m.M.M.M.M.M.M.{ x M.M.M.M.M.n.n.n.n.n.n.",
"{ n.n.{ { { M.M.M.M.M.M._ b M.M.M.M.M.M.{ { { m.m.m.m.m.x.x.x.x.z ] x.x.{ { { { m.m.m.m.M.M.M.M.M.M.M.{ l M.M.M.M.M.M.n.n.n.n.n.",
"{ n.n.n.n.M.M.M.M.M.M.M.) B M.M.M.M.n.n.{ n.n.m.m.m.m.m.m.x.x.x.z ] x.m.m.{ m.m.m.m.m.m.M.{ M.M.M.M.M.{ x M.M.M.M.M.M.n.n.{ n.n.",
"n.n.n.n.n.n.M.M.B.n.n.n.` b n.n.n.M.n.n.M.n.n.m.m.m.m.m.m.m.m.x.z ] m.m.m.{ m.m.m.n.m.m.M.M.M.n.n.n.n.n.l n.n.n.n.n.n.n.n.n.n.n.",
"n.n.n.n.{ n.{ n.n.n.M.n.) B M.n.M.B.n.B.{ n.{ m.m.m.m.m.m.m.m.m.z ] m.m.m.{ m.m.m.n.B.m.M.M.V.m.B.M.n.{ x M.n.M.B.n.B.n.n.{ n.{ ",
"n.n.n.n.B.B.B.B.B.B.n.n.` b V.n.B.B.n.n.n.B.V.m.V.m.m.m.m.m.m.m.z ] m.m.m.m.m.V.V.B.B.n.n.n.V.V.B.n.n.B.l V.n.B.B.B.B.B.n.n.n.n.",
"n.B.n.B.{ B.{ B.n.B.{ B.) V M.V.n.B.M.n.{ B.m.V.m.V.{ m.{ m.m.m.z ] m.m.m.m.V.m.V.n.B.} n.{ V.m.V.M.V.{ n M.V.n.B.n.B.{ B.{ n.{ ",
"z.B.B.B.B.B.B.B.B.B.B.B.` b V.V.V.B.V.V.V.V.V.V.V.V.V.m.m.m.m.m.z { m.m.m.V.V.V.V.V.V.V.n.B.V.V.B.B.B.v.l B.B.B.B.B.B.B.B.B.B.n.",
"B.B.n.B.{ B.{ B.n.B.n.B.) V n.V.n.V.{ V.m.V.m.V.m.V.m.m.} m.m.m.z { m.m.V.m.V.m.V.m.V.{ B.{ V.m.B.n.B.] n n.B.n.B.n.B.{ B.{ B.B."
};
