/* XPM */
static char *rcp01133601261303[] = {
/* columns rows colors chars-per-pixel */
"64 64 176 2 ",
"   c black",
".  c #0D0606",
"X  c #110808",
"o  c #1C0D0D",
"O  c #291615",
"+  c #311717",
"@  c #3A1C1C",
"#  c #26211E",
"$  c #28201E",
"%  c #312D1E",
"&  c #281F20",
"*  c #232221",
"=  c #282627",
"-  c #2A2729",
";  c #2D2A2B",
":  c #342626",
">  c #312C2E",
",  c #372C23",
"<  c #3F372A",
"1  c #3B2E30",
"2  c #332F32",
"3  c #353234",
"4  c #3B3333",
"5  c #393638",
"6  c #3D393C",
"7  c #453B0D",
"8  c #453D19",
"9  c #452525",
"0  c #4A2323",
"q  c #452A2A",
"w  c #4A2B2C",
"e  c #502626",
"r  c #542C2C",
"t  c #5C2C2C",
"y  c #493C25",
"u  c #413535",
"i  c #4A3433",
"p  c #463837",
"a  c #4A3937",
"s  c #463C3B",
"d  c #493B3A",
"f  c #533433",
"g  c #5B3332",
"h  c #503837",
"j  c #5E3B3A",
"k  c #632F2F",
"l  c #653131",
"z  c #6B3232",
"x  c #663B3B",
"c  c #713636",
"v  c #763A3A",
"b  c #7C3B3B",
"n  c #4C4104",
"m  c #4C400D",
"M  c #524604",
"N  c #524717",
"B  c #5A4E1D",
"V  c #554A17",
"C  c #675906",
"Z  c #6A5C0F",
"A  c #6C5E13",
"S  c #60551B",
"D  c #7F6D07",
"F  c #79680B",
"G  c #7E6D13",
"H  c #4A422A",
"J  c #474029",
"K  c #564C27",
"L  c #5E5321",
"P  c #5B512E",
"I  c #4D4433",
"U  c #4C413C",
"Y  c #584B3C",
"T  c #5F523E",
"R  c #6B5A36",
"E  c #77642B",
"W  c #77663E",
"Q  c #433E42",
"!  c #493E40",
"~  c #4D4345",
"^  c #4B4649",
"/  c #464144",
"(  c #524441",
")  c #544844",
"_  c #514C4F",
"`  c #5C4E4A",
"'  c #594A44",
"]  c #5E514C",
"[  c #554F53",
"{  c #585256",
"}  c #5B5559",
"|  c #5F595D",
" . c #555054",
".. c #614E49",
"X. c #61534D",
"o. c #6C554F",
"O. c #695B45",
"+. c #6D5651",
"@. c #655851",
"#. c #6B5C55",
"$. c #6D5F58",
"%. c #665956",
"&. c #765C56",
"*. c #785B55",
"=. c #725D58",
"-. c #70625A",
";. c #655F63",
":. c #6C656A",
">. c #786C69",
",. c #756D72",
"<. c #797177",
"1. c #823D3D",
"2. c #8F7B2D",
"3. c #927D2E",
"4. c #827133",
"5. c #874040",
"6. c #8A4141",
"7. c #944646",
"8. c #9B4949",
"9. c #A44E4E",
"0. c #AD5252",
"q. c #B55656",
"w. c #BA5858",
"e. c #8B7840",
"r. c #82724A",
"t. c #8E7B5F",
"y. c #84736A",
"u. c #8B786F",
"i. c #82797F",
"p. c #8C7971",
"a. c #917E75",
"s. c #C65E5E",
"d. c #C95F5F",
"f. c #CC6161",
"g. c #D26464",
"h. c #D86666",
"j. c #DD6969",
"k. c #EB6F6F",
"l. c #E26B6B",
"z. c #EC7070",
"x. c #F67575",
"c. c #978108",
"v. c #A58E14",
"b. c #9E8838",
"n. c #9A853B",
"m. c #A18920",
"M. c #AB932E",
"N. c #CDB00C",
"B. c #C8AB18",
"V. c #D8B91F",
"C. c #C2A629",
"Z. c #FFDA0F",
"A. c #9A867C",
"S. c #B59D7B",
"D. c #AB9463",
"F. c #877E84",
"G. c #9F8B80",
"H. c #A28E84",
"J. c #AA9388",
"K. c #A89283",
"L. c #B29A8F",
"P. c #B09A90",
"I. c #BFA79A",
"U. c #C4AA9E",
"Y. c #DCBF9A",
"T. c #CDB289",
"R. c #CAAFA2",
"E. c #CCB2A5",
"W. c #D6BAAC",
"Q. c #D5B9A9",
"!. c #DCBFB1",
"~. c #E1C3B5",
"^. c #EBCCBD",
"/. c #EFD0C1",
"(. c #FCDBCB",
"). c #F1D2C2",
/* pixels */
"* * * * * * * * * * * * s d d s * * * * * * * * * * * * * * * * s d d d d d d d d d d s * * * * s d d s * * * * * * * * * * * * ",
"* * * * * * * * * * * * s d d s * * * * * * * = - : : : : : : : a h h h h a i i i i a s * * * * s d d s * * * * * * * * * * * * ",
"* * * * * * * * * * * * s d d s * * * * * * * : w r r r r r r r g g g g g r w w w w i s * * * * s d d s * * * * * * * * * * * * ",
"* * * * * * * * * * * * s d d s * * * * * * * , r k k k k k k k k k k k k t e 0 0 0 w p & * * * s d d s * * * * * * * * # # # $ ",
"* * * * s s s s s s s s d d d d s s s s s s s h g k k k k k k k k k k k k t e 0 0 0 w a s s s s d d d d s s s s s s s d =.=.=.=.",
"* * * * s d d d d d d d d d d d d d d a h h h x b 5.5.5.1.b b b b b b b b v z z z z g i i i i d d d d d d d d d d d d a &.&.&.&.",
"* * * * s d d d d d d d d d d d d d a f g g g 6.w.g.g.f.w.0.0.0.0.0.0.0.0.0.0.9.9.9.b r w w w i d d d d d d d d d d d a &.&.&.&.",
"* * * * s d d d d d d d d d d d d d h g k k k 8.j.x.x.x.j.d.s.s.s.s.s.s.s.s.s.s.s.s.6.t 0 0 0 i d d d d d d d d d d d a &.&.&.&.",
"s s s s d d d d d d d d d d d d d d h g k k k 8.j.x.x.x.j.d.s.s.s.s.s.s.s.s.s.s.s.s.6.t 0 0 0 i d d d d d d d d d d d a &.&.&.&.",
"d d d d d d d d d d d d d d d a h h j v 5.5.5.q.l.x.x.x.l.g.g.g.g.f.s.s.s.s.s.s.s.s.7.z t t t f i i i i d d d d d d d a &.&.&.&.",
"d d d d d d d d d d d d d a f g g g b 0.g.g.g.l.x.x.x.x.x.z.k.k.l.g.s.s.s.s.s.s.s.s.9.5.1.1.b l w w w w d d d d d d d a &.&.&.&.",
"d d d d d d d d d d d d d a g k k k 5.d.x.x.x.x.x.x.x.x.x.x.x.x.z.h.s.s.s.s.s.s.s.s.0.8.7.7.5.z 0 0 0 0 d d d d d d d a &.&.&.&.",
"d d d d d d d d d d d d d a g k k k 5.d.x.x.x.x.x.x.x.x.x.x.x.x.z.h.s.s.s.s.s.s.s.s.0.8.7.7.5.z 0 0 0 0 d d d d d d d a &.&.&.&.",
"d d d d d d d d d d d d d a g k l l 5.s.k.k.k.k.k.k.k.k.k.k.k.k.l.g.s.s.s.s.s.s.s.s.0.8.7.7.5.z 0 0 0 0 d d d d d d d a &.&.&.&.",
"d d d d d d d d d d d d d a g k k k 1.0.g.g.g.g.g.g.g.g.g.g.g.g.g.f.s.s.s.s.s.s.s.s.0.8.7.7.5.z 0 0 0 0 d d d d d d d a &.&.*.*.",
"s s s s d d d d d d d d d a g k k k b 9.s.s.s.s.s.s.s.s.s.s.s.s.s.s.s.s.s.s.s.s.s.s.0.8.7.7.5.z 0 0 0 0 d d d d d d d a &.&.*.*.",
"* * * * s d d d d d d d d a g k k k b 9.s.s.s.s.s.s.s.s.s.s.s.s.s.s.s.s.s.s.s.s.s.s.0.8.7.7.5.z 0 0 0 0 d d d d d d d a &.&.&.&.",
"* * * * s d d d d d d d d a g k k k b 8.w.w.w.0.8.7.7.8.0.s.s.s.s.s.s.s.s.w.q.0.0.0.8.6.5.5.b l e e e e d d d d d d d a &.&.&.&.",
"* * * * s d d d d d d d d a g k k k c 6.9.9.9.v 0 + + @ b w.s.s.s.s.s.s.s.0.6.b b b v c z z z l t t t t d d d d d d d a &.&.&.&.",
"* * * * s d d d d d d d d a g k k k c 1.7.7.7.t o     X l w.s.s.s.s.s.s.s.9.b k k k k k k k k k k k k k d d d d d d d a &.&.&.&.",
"s s s s d d d d d d d d d a g k k k c 1.7.7.7.t o     X l w.s.s.s.s.s.s.s.9.b k k k k k k k k k k k k k d d d d d d d a &.*.*.*.",
"d d d d d d d d d d d d d a f t t t z 1.7.7.7.t o     X t 0.w.w.w.w.w.w.w.9.5.b b b b b b b b z k k k k d d d d d d d a &.*.*.*.",
"d d d d d d d d d d d d d a w e e e k b 7.7.7.t o     . e 7.9.9.9.9.9.9.9.9.0.0.0.0.0.0.0.0.9.1.k k k k d d d d d d d a &.&.&.&.",
"s s s s d d d d d d d d d a w 0 0 0 t b 7.7.7.t o     . 0 5.7.7.7.7.7.7.7.9.w.s.s.s.s.s.s.s.q.6.k k k k d d d d d d d d =.&.&.&.",
"* * * * s d d d d d d d d a w 0 0 0 t b 7.7.7.t o     . 0 5.7.7.7.7.7.7.7.9.w.s.s.s.s.s.s.s.q.6.k k k k d d d d d d d d d a a a ",
"* * * * s d d d d d d d d d i w w w t c 1.1.1.t @ O O + t 6.7.7.7.7.7.7.7.8.9.9.9.9.9.9.9.9.8.b g g g g d d d d d d d d d d d d ",
"* * * * s d d d d d d d d d p p i i i r t t t k z z z c 1.7.7.7.7.7.7.7.7.1.c z z z z z z z l g h h h h d d d d d d d d d d d d ",
"* * * * s d d d d d d d d d d d d d i w 0 0 0 l 1.7.7.7.7.7.7.7.7.7.7.7.7.b t 0 0 0 0 0 0 0 0 i d d d d d d d d d d d d d a a a ",
"* * * * s d d d d d d d d d d d d d i w 0 0 0 l 1.7.7.7.7.7.7.7.7.7.7.7.7.b t 0 0 0 0 0 0 0 0 i d d d d d d d d d d d d =.&.&.&.",
"* * * * s d d d d d d d d d d d d d i w w w w g b 1.1.1.1.1.1.1.1.1.1.1.1.z r 0 0 0 0 w w w w i d d d d d d d d d d d a &.&.&.&.",
"* * * * s d d d d d d d d d d d d d d i i i i f t t t t t t t t t t t t t r 0 0 0 0 w i i i i d d d d d d d d d d d d a &.&.*.*.",
"* * * * s d d d d d d d d d d d d d d d d d d i 0 0 0 0 0 0 0 0 0 0 0 0 0 0 0 0 0 0 w a d d d d d d d d d d d d d d d d =.&.&.&.",
"* * * * s d d d d d d d d d d d d d d d d d d i 0 0 0 0 0 0 0 0 0 0 0 0 0 0 0 0 0 0 w a d d d d d d d d d d d d d d d d d a a a ",
"* * * * s d d d d d d d d d d d d d s p u u u i w w w w w w w w w w w w w w q 9 9 q q u u u u s d d d d d d d d d d d d d d d d ",
"* * * * s d d d d d d d d d d d d d u 4 > > > 4 ! ~ ~ ~ ~ ~ ~ ~ ~ ~ ~ ~ ~ s u 1 1 1 > > > > > 4 d d d d d d d d d d d d d d d d ",
"* * * * s d d d d d d d d d d d d d u > = = = 5 ^ _ _ _ _ _ _ _ _ _ _ _ _ / 6 3 3 3 > - = = ; 4 d d d d d d d d d d d d d a a a ",
"s s s s d d d d d d d d d d d d d d u > = = = 5 ^ _ _ _ _ _ _ _ _ _ _ _ _ / 6 3 3 3 > - = = ; 4 d d d d d d d d d d d d =.&.&.&.",
"d d d d d d d d d d d d d d d d d d u > = = = 3 / ^ ^ ^ [ } | | } } { { { ^ 6 3 3 3 > - = = ; 4 d d d d d d d d d d d a &.&.&.&.",
"d d d d d d d d d d d d d d d d d d u > = = = > 5 6 6 Q } ,.<.<.,.:.;.;.;. .Q 3 3 3 > - = = ; 4 d d d d d d d d d d d a &.&.&.&.",
"d d d d d d d d d d d d d d d d d d u > = = = ; 3 3 3 6 | i.F.F.i.,.:.:.:.} Q 3 3 3 > - = = ; 4 d d d d d d d d d d d a &.&.&.&.",
"d d d d d d d d d d d d d d d d d d u > = = = ; 3 3 3 6 | i.F.F.i.,.:.:.:.} Q 3 3 3 > - = = ; 4 d d d d d d d d d d d a &.&.&.&.",
"d d d d d d d d d d d d d d d d d d u > = = = ; 3 3 3 6 | i.F.F.i.,.:.:.:.} Q 3 3 3 > - = = ; 4 d d d d d d d d d d d a &.&.&.&.",
"d d d d d d d d d d d d d d d d d d u > = = = ; 3 3 3 6 | i.F.F.i.,.:.:.:.} Q 3 3 3 > - = = ; 4 d d d d d d d d d d d a &.&.&.&.",
"s s s s d d d d d d d d d d d d d d u > = = = ; 3 3 3 6 | i.F.F.i.,.:.:.:.} Q 3 3 3 > - = = ; 4 d d d d d d d d d d d d =.&.&.&.",
"* * * * s d d d d d d d d d d d d d u > = = = ; 3 3 3 6 | i.F.F.i.,.:.:.:.} Q 3 3 3 > - = = ; 4 d d d d d d d d d d d d d a a a ",
"* * * * s d d d d d d d d d d d d d I K L L L K H J J I ] :.,.,.:.;.} } } ` I J J J < , % % , < d d d d d d d d d d d d d d d d ",
"* * * * s d d d d d d d d d d d d d R m.B.B.B.v.G A A A P ^ ^ ^ / 6 5 5 5 J S A A A V 7 7 7 8 y d d d d d d d d d d d d d d d d ",
"* * * * s d d d d d d d d d d d d d E B.Z.Z.Z.N.c.D D F B 4 3 3 2 ; = = = 8 Z D D D C M n n m y d d d d d d d d d d d d d d d d ",
"* * * * s d d d d d d d d d d d d d E B.Z.Z.Z.N.c.D D F B 4 3 3 2 ; = = = 8 Z D D D C M n n m y d d d d d d d d d d d d d d d d ",
"* * * * s d d d d d d d d d d d d d R M.V.V.V.C.M.b.b.n.r.$.%.%.%.] ) ) ) R 4.3.3.2.E B N N N H d d d d d d d d d d d d d d d d ",
"* * * * s d d d d d d d d d d d d d Y W e.e.e.D.T.Y.Y.Y.Q.E.E.E.U.P.H.H.H.K.S.S.S.S.t.O.T T Y U d d d d d d d d d d d d d d d d ",
"* * * * s d d d d d d d d d d d d d ( ` @.@.@.G.~.(.(.(.(.(.(.(.).!.R.R.R.R.R.R.R.U.A.-.@.@.X.) d d d d d d d d d d d d d a a a ",
"* * * * s d d d d d d d d d d d d d ( ` @.@.@.G.~.(.(.(.(.(.(.(.).!.R.R.R.R.R.R.R.U.A.-.@.@.X.) d d d d d d d d d d d d =.&.&.&.",
"* * * * s d d d d d d d d d d d d d U ' ] ] ] p.I.W.W.W.~.^././.^.W.R.R.R.I.L.J.J.K.y.@.] ] ` ( d d d d d d d d d d d a &.&.&.&.",
"* * * * s d d d d d s s d d d d d d d U ( ( ( @.>.u.u.a.L.Q.W.W.Q.E.R.R.R.J.y.#.#.#.] ( ( ( U d d d d d d d d d d d d a &.&.&.&.",
"* * * * s d d d d d s s d d d d d d d d d d d ( X.@.@.$.A.U.R.R.R.R.R.R.R.G.#.U U U d d d d d d d d d d d d d d d d d a &.&.&.&.",
"* * * * s d d d d d d d d d d d d d d d d d d ( X.@.@.$.A.U.R.R.R.R.R.R.R.G.#.U U U d d d d d d d d d d d d d d d d d a &.&.&.&.",
"* * * * s d d d d d d d d d d d d d d d d d d ( ` ] ] @.y.H.J.J.J.J.J.J.J.u.X.d d d d d d d d d d d d d d d d d d d d a &.&.&.&.",
"* * * * s d d d d d d d d d d d d d d d d d d d U ( ( ( ` #.#.#.#.#.#.#.#.] ( d d d d d d d d d d d d d d d d d d d d a &.&.&.&.",
"$ $ $ O d a a a a a a d d d d d d d d d d a a d d d d d d U U U U U U U U d a a a a a d d d d d d a a a a a a a a a a a &.&.&.&.",
"=.=.=.=.&.&.&.&.&.&.&.=.d s d d d d d d =.&.&.=.d d d d ` U U U U U U U U ' +.&.&.&.&.=.a d d d =.&.&.&.&.&.&.&.&.&.&.&.&.&.&.&.",
"*.*.*.*.&.&.&.&.*.*.&.&.d s d d d d d a &.&.&.&.a d d a X.' ) ) ) ) ) ) ) ..+.&.&.&.&.&.a d d a &.&.&.&.&.&.&.&.&.&.&.&.&.&.&.&.",
"&.&.&.&.&.&.&.&.&.&.&.&.a d d d d d d a &.&.&.&.a d d a #.o.o.o.o.o.o.o.+.+.*.&.&.&.*.&.a d d a &.&.&.&.&.&.&.&.&.&.&.&.&.&.&.&.",
"&.&.&.&.&.&.&.&.&.&.&.&.a d d d d d d a &.&.&.&.a d d a &.&.&.*.&.&.&.&.*.*.&.&.&.&.*.&.a d d a &.&.&.&.&.&.&.&.&.&.&.&.&.&.&.&."
};
