/* XPM */
static char *rcp06450358518276[] = {
/* columns rows colors chars-per-pixel */
"64 64 56 1 ",
"  c #222222",
". c #222224",
"X c #252120",
"o c #463C3B",
"O c #493B3A",
"+ c #493B38",
"@ c #463C3A",
"# c gray13",
"$ c #212322",
"% c #473B3B",
"& c #4A3A3A",
"* c #232122",
"= c #232220",
"- c #262020",
"; c #632F2F",
": c #4A2323",
"> c #252122",
", c #26211E",
"< c #28201E",
"1 c #453D3B",
"2 c #473C3A",
"3 c #705E5A",
"4 c #715E58",
"5 c #725D58",
"6 c #4C3A38",
"7 c #745D57",
"8 c #775C55",
"9 c #4A3C3B",
"0 c #F77575",
"q c #C65E5E",
"w c #944646",
"e c #775B57",
"r c #202221",
"t c black",
"y c #775C53",
"u c #4A3B38",
"i c #222220",
"p c #785B55",
"a c #755C57",
"s c #282627",
"d c #877E84",
"f c #6C656A",
"g c #514C4F",
"h c #363235",
"j c #FFDA0F",
"k c #7F6D07",
"l c #4B413C",
"z c #FCDBCB",
"x c #CAAFA2",
"c c #655851",
"v c #493B3B",
"b c #291F1D",
"n c #4C3A36",
"m c #4D3A36",
"M c #725E57",
"N c #745C58",
/* pixels */
"  ..       XoOOoX              XoOOOOOOOOO+@X  XoOOoX           ",
"  ..     # XoOOoX              XoOOOOOOOOO+@X #XoOOoX #         ",
"      $$   XoOOoX              X%&OOOOOOOOOoX* XoO&%X ..    $$  ",
"    =X==XXX-%OO%-X;;;;;;;;;;;;;;;;;;;;;:::::::X-%O&%-X>>XXXX,,,<",
"   =1oooooo%OOOO%o;;;;;;;;;;;;;;;;;;;;;:::::::o%OOOO2@oooooO3445",
"   XoOOOOOOOOOOOOO;;;;;;;;;;;;;;;;;;;;;:::::::OOOOOO++OOOOO67888",
"   XoO9OOO++OO&&OO;;;;;;;;;;;;;;;;;;;;;:::::::OOOOOOOOOOOOO67888",
"XXX-%OOOOO+;;;;;;;0000000qqqqqqqqqqqqqqqqqqqqq:::::::OOOOOO67888",
"ooo%OOOOOOO;;;;;;;0000000qqqqqqqqqqqqqqqqqqqqq:::::::&OOOOO67888",
"OOOOOOOOOOO;;;;;;;0000000qqqqqqqqqqqqqqqqqqqqq:::::::&OOOOO67888",
"OOOOOOOOOOO;;;;;;;0000000qqqqqqqqqqqqqqqqqqqqq:::::::OOOOOO67888",
"OOOO;;;;;;;000000000000000000000qqqqqqqqqqqqqqwwwwwww:::::::7888",
"OOOO;;;;;;;000000000000000000000qqqqqqqqqqqqqqwwwwwww:::::::7888",
"OOOO;;;;;;;000000000000000000000qqqqqqqqqqqqqqwwwwwww:::::::7888",
"OOOO;;;;;;;000000000000000000000qqqqqqqqqqqqqqwwwwwww:::::::78ee",
"ooo%;;;;;;;qqqqqqqqqqqqqqqqqqqqqqqqqqqqqqqqqqqwwwwwww:::::::78ee",
"==X-;;;;;;;qqqqqqqqqqqqqqqqqqqqqqqqqqqqqqqqqqqwwwwwww:::::::7888",
"$r X;;;;;;;qqqqqqqqqqqqqqqqqqqqqqqqqqqqqqqqqqqwwwwwww:::::::7888",
"   X;;;;;;;wwwwwwwtttttttqqqqqqqqqqqqqq;;;;;;;;;;;;;;;;;;;;;7888",
"XXX-;;;;;;;wwwwwwwtttttttqqqqqqqqqqqqqq;;;;;;;;;;;;;;;;;;;;;7888",
"@@o%;;;;;;;wwwwwwwtttttttqqqqqqqqqqqqqq;;;;;;;;;;;;;;;;;;;;;7yyy",
"++OO;;;;;;;wwwwwwwtttttttqqqqqqqqqqqqqq;;;;;;;;;;;;;;;;;;;;;7yyy",
"OOOO:::::::wwwwwwwtttttttwwwwwwwwwwwwwwqqqqqqqqqqqqqq;;;;;;;7888",
"ooo%:::::::wwwwwwwtttttttwwwwwwwwwwwwwwqqqqqqqqqqqqqq;;;;;;;5777",
"XXX-:::::::wwwwwwwtttttttwwwwwwwwwwwwwwqqqqqqqqqqqqqq;;;;;;;u666",
"   X:::::::wwwwwwwtttttttwwwwwwwwwwwwwwqqqqqqqqqqqqqq;;;;;;;OOOO",
"   XoOOOOOO:::::::wwwwwwwwwwwwwwwwwwwww::::::::::::::OOOOOOOOOOO",
"   XoOOOOOO:::::::wwwwwwwwwwwwwwwwwwwww::::::::::::::OOOOOOOu666",
"   XoOOOOOO:::::::wwwwwwwwwwwwwwwwwwwww::::::::::::::OOOOOOu5777",
"   XoOOOOOO:::::::wwwwwwwwwwwwwwwwwwwww::::::::::::::OOOOOO67888",
"  iX%&OOOOOOOO++OO::::::::::::::::::::::::::::OOOOOOOOOOOOO678pp",
"  iX%&OOOOOOOO++OO::::::::::::::::::::::::::::OOOOOOOOOOOOOu57aa",
"   XoOOOOOOOOOOOOO::::::::::::::::::::::::::::OOOOOOOOOOOOOOu666",
" # XoOOOOOOOOOOOOO::::::::::::::::::::::::::::OOOOOOOOOOOOOOOOOO",
"   XoOOOOOOsssssssdddddddffffffffffffffgggggggsssssssOOOOOOOOOOO",
"XXX-%OOOOOOsssssssdddddddffffffffffffffgggggggsssssssOOOOOOOu666",
"ooo%OOOOOOOsssssssdddddddffffffffffffffgggggggsssssssOOOOOOu5777",
"OOOOOOOOOOOsssssssdddddddffffffffffffffgggggggsssssssOOOOOO67888",
"OOOOssssssshhhhhhhffffffffffffffdddddddffffffffffffffhhhhhhh7888",
"OOOOssssssshhhhhhhffffffffffffffdddddddffffffffffffffhhhhhhh7888",
"OOOOssssssshhhhhhhffffffffffffffdddddddffffffffffffffhhhhhhh7888",
"OOOOssssssshhhhhhhffffffffffffffdddddddffffffffffffffhhhhhhh7888",
"OOOOssssssshhhhhhhffffffffffffffhhhhhhhdddddddfffffffhhhhhhh7888",
"ooo%ssssssshhhhhhhffffffffffffffhhhhhhhdddddddfffffffhhhhhhh5777",
"XXX-ssssssshhhhhhhffffffffffffffhhhhhhhdddddddfffffffhhhhhhhu666",
"   XssssssshhhhhhhffffffffffffffhhhhhhhdddddddfffffffhhhhhhhOOOO",
" # XoOOOOOOjjjjjjjkkkkkkkkkkkkkkkkkkkkkhhhhhhhhhhhhhhOOOOOOOOOOO",
"   XoOOOOOOjjjjjjjkkkkkkkkkkkkkkkkkkkkkhhhhhhhhhhhhhhOOOOOOOOOOO",
"  .>oOOOOOOjjjjjjjkkkkkkkkkkkkkkkkkkkkkhhhhhhhhhhhhhhOOOOOOOOOOO",
"  .>lllllllzzzzzzzzzzzzzzxxxxxxxcccccccxxxxxxxxxxxxxxlllllllOOOO",
"   XlllllllzzzzzzzzzzzzzzxxxxxxxcccccccxxxxxxxxxxxxxxlllllllOOOO",
"   Xlllllllzzzzzzzzzzzzzzxxxxxxxcccccccxxxxxxxxxxxxxxlllllllu666",
"  .>lllllllzzzzzzzzzzzzzzxxxxxxxcccccccxxxxxxxxxxxxxxlllllll5777",
"  .>lllllllzzzzzzzxxxxxxxccccccccccccccxxxxxxxxxxxxxxlllllll7888",
"   Xlllllllzzzzzzzxxxxxxxccccccccccccccxxxxxxxxxxxxxxlllllll7888",
"   Xlllllllzzzzzzzxxxxxxxccccccccccccccxxxxxxxxxxxxxxlllllll7888",
"   Xlllllllzzzzzzzxxxxxxxccccccccccccccxxxxxxxxxxxxxxlllllll7888",
" # XoO9OOOOllllllllllllllOOOOOOOOOOOOOOllllllllllllllOOOOOO67888",
"   X@+OOOOOllllllllllllllOOOOOvvOOOOOOOllllllllllllllOOOOOO67888",
"<<<bun66666llllllllllllllOOOu6666666666llllllllllllll666666ma888",
"MM5N7777777llllllllllllllOOu5777aa77777llllllllllllll777777a8888",
"yypp8888yy87u2OOOOO678876OO67888pp88888888876&O67888888888888888",
"8888888888876OOO&&O678876OO678888888ee8888y76OO67888888888888888",
"8888888888876OOO&&O678876OO678888888ee8888y76OO67888888888888888"
};
