/* XPM */
static char *rcp06445893622440[] = {
/* columns rows colors chars-per-pixel */
"64 64 114 2 ",
"   c #222222",
".  c #222224",
"X  c #252120",
"o  c #463C3B",
"O  c #493B3A",
"+  c #493B38",
"@  c #463C3A",
"#  c gray13",
"$  c #212322",
"%  c #473B3B",
"&  c #4A3A3A",
"*  c #232122",
"=  c #232220",
"-  c #262020",
";  c #482929",
":  c #632F2F",
">  c #552828",
",  c #4A2323",
"<  c #483130",
"1  c #372121",
"2  c #352221",
"3  c #252122",
"4  c #26211E",
"5  c #28201E",
"6  c #453D3B",
"7  c #563534",
"8  c #493130",
"9  c #483131",
"0  c #473C3A",
"q  c #705E5A",
"w  c #715E58",
"e  c #725D58",
"r  c #573434",
"t  c #49312F",
"y  c #4C3A38",
"u  c #745D57",
"i  c #775C55",
"p  c #4A3C3B",
"a  c #573433",
"s  c #B75757",
"d  c #F77575",
"f  c #DB6868",
"g  c #C65E5E",
"h  c #7F3C3C",
"j  c #4A3030",
"k  c #A95050",
"l  c #944646",
"z  c #6A3232",
"x  c #4B302F",
"c  c #775B57",
"v  c #9B4A4A",
"b  c #202221",
"n  c #401E1E",
"m  c black",
"M  c #713636",
"N  c #8D4343",
"B  c #553535",
"V  c #563434",
"C  c #775C53",
"Z  c #4A2D2D",
"A  c #743737",
"S  c #542828",
"D  c #B05454",
"F  c #553534",
"G  c #492D2D",
"H  c #4A3B38",
"J  c #482E2D",
"K  c #222220",
"L  c #785B55",
"P  c #755C57",
"I  c #36302F",
"U  c #282627",
"Y  c #3F3C3E",
"T  c #514C4F",
"R  c #423D40",
"E  c #363235",
"W  c #2E2B2D",
"Q  c #3A3132",
"!  c #302D2F",
"~  c #645D62",
"^  c #877E84",
"/  c #787075",
"(  c #6C656A",
")  c #4D484C",
"_  c #B09522",
"`  c #FFDA0F",
"'  c #B69C0A",
"]  c #7F6D07",
"[  c #554B21",
"{  c #5A4E15",
"}  c #625405",
"|  c #4C4104",
" . c #4A3E23",
".. c #594B47",
"X. c #655851",
"o. c #BBA397",
"O. c #FCDBCB",
"+. c #DFC2B4",
"@. c #CAAFA2",
"#. c #907D74",
"$. c #554744",
"%. c #9F8A7F",
"&. c #817068",
"*. c #4B413C",
"=. c #493E3B",
"-. c #4B3E3B",
";. c #291F1D",
":. c #4C3A36",
">. c #4B3D3A",
",. c #4D3A36",
"<. c #725E57",
"1. c #745C58",
"2. c #4B3E3A",
"3. c #62514B",
/* pixels */
"    . .               X o O O o X                             X o O O O O O O O O O + @ X     X o O O o X                       ",
"    . .           #   X o O O o X                             X o O O O O O O O O O + @ X   # X o O O o X   #                   ",
"            $ $       X o O O o X                             X % & O O O O O O O O O o X *   X o O & % X   . .         $ $     ",
"        = X = = X X X - % O O % - ; ; ; ; : : : : : : : : : : : : : : : : > > > , , , < 1 2 2 - % O & % - X 3 3 X X X X 4 4 4 5 ",
"      = 6 o o o o o o % O O O O % 7 7 7 7 : : : : : : : : : : : : : : : : > > > , , , 8 < 9 9 % O O O O 0 @ o o o o o O q w w e ",
"      X o O O O O O O O O O O O O r r r r : : : : : : : : : : : : : : : : > > > , , , t 8 8 8 O O O O O + + O O O O O y u i i i ",
"      X o O p O O O + + O O & & O r r r r : : : : : : : : : : : : : : : : > > > , , , 8 8 8 8 O O O O O O O O O O O O y u i i i ",
"X X X - % O O O O O + a r r : : : s s s s d d d f f f g g g g g g g g g g g g g g g g h h h h , , , 8 8 8 O O O O O O y u i i i ",
"o o o % O O O O O O O r r r : : : s s s s d d d f f f g g g g g g g g g g g g g g g g h h h h , , , 8 8 j & O O O O O y u i i i ",
"O O O O O O O O O O O r r r : : : s s s s d d d f f f g g g g g g g g g g g g g g g g h h h h , , , 8 8 j & O O O O O y u i i i ",
"O O O O O O O O O O O r r r : : : s s s s d d d f f f g g g g g g g g g g g g g g g g h h h h , , , 8 8 8 O O O O O O y u i i i ",
"O O O O r r r r : : : s s s d d d d d d d d d d d d d d d d f f f f g g g g g g g g g k k k k l l l z z z , , , 8 8 8 x u i i i ",
"O O O O r r r r : : : s s s d d d d d d d d d d d d d d d d f f f f g g g g g g g g g k k k k l l l z z z , , , 8 8 8 x u i i i ",
"O O O O r r r r : : : s s s d d d d d d d d d d d d d d d d f f f f g g g g g g g g g k k k k l l l z z z , , , 8 8 8 x u i i i ",
"O O O O r r r r : : : s s s d d d d d d d d d d d d d d d d f f f f g g g g g g g g g k k k k l l l z z z , , , 8 8 8 x u i c c ",
"o o o % r r r r : : : v v v g g g g g g g g g g g g g g g g g g g g g g g g g g g g g k k k k l l l z z z , , , 8 8 8 x u i c c ",
"= = X - 7 a r r : : : v v v g g g g g g g g g g g g g g g g g g g g g g g g g g g g g k k k k l l l z z z , , , 8 8 8 x u i i i ",
"$ b   X 7 a r r : : : v v v g g g g g g g g g g g g g g g g g g g g g g g g g g g g g k k k k l l l z z z , , , 8 8 8 x u i i i ",
"      X 7 r r r : : : h h h l l l n n n n m m m M M M g g g g g g g g g g N N N : : : : : : : : : : : : : : : : B B B 7 u i i i ",
"X X X - V r r r : : : h h h l l l n n n n m m m M M M g g g g g g g g g g N N N : : : : : : : : : : : : : : : : B B B 7 u i i i ",
"@ @ o % r r r r : : : h h h l l l n n n n m m m M M M g g g g g g g g g g N N N : : : : : : : : : : : : : : : : B B B 7 u C C C ",
"+ + O O r r r r : : : h h h l l l n n n n m m m M M M g g g g g g g g g g N N N : : : : : : : : : : : : : : : : B B B 7 u C C C ",
"O O O O Z Z Z Z , , , A A A l l l n n n n m m m S S S l l l l l l l l l l D D D g g g g g g g g g g N N N : : : B B B 7 u i i i ",
"o o o % Z Z Z Z , , , A A A l l l n n n n m m m S S S l l l l l l l l l l D D D g g g g g g g g g g N N N : : : B B B F e u u u ",
"X X X - G Z Z Z , , , A A A l l l n n n n m m m S S S l l l l l l l l l l D D D g g g g g g g g g g N N N : : : B B F F H y y y ",
"      X J Z Z Z , , , A A A l l l n n n n m m m S S S l l l l l l l l l l D D D g g g g g g g g g g N N N : : : B B F F O O O O ",
"      X o O O O O O O Z Z Z , , , A A A A l l l l l l l l l l l l l l l l z z z , , , , , , , , , , 8 8 8 O O O O O O O O O O O ",
"      X o O O O O O O Z Z Z , , , A A A A l l l l l l l l l l l l l l l l z z z , , , , , , , , , , 8 8 8 O O O O O O O H y y y ",
"      X o O O O O O O Z Z Z , , , A A A A l l l l l l l l l l l l l l l l z z z , , , , , , , , , , 8 8 8 O O O O O O H e u u u ",
"      X o O O O O O O Z Z Z , , , A A A A l l l l l l l l l l l l l l l l z z z , , , , , , , , , , 8 8 8 O O O O O O y u i i i ",
"    K X % & O O O O O O O O + + O Z Z Z Z , , , , , , , , , , , , , , , , , , , , , , 8 8 8 8 O O O O O O O O O O O O y u i L L ",
"    K X % & O O O O O O O O + + O Z Z Z Z , , , , , , , , , , , , , , , , , , , , , , 8 8 8 8 O O O O O O O O O O O O H e u P P ",
"      X o O O O O O O O O O O O O Z Z Z Z , , , , , , , , , , , , , , , , , , , , , , 8 8 8 8 O O O O O O O O O O O O O H y y y ",
"  #   X o O O O O O O O O O O O O Z Z Z Z , , , , , , , , , , , , , , , , , , , , , , 8 8 8 8 O O O O O O O O O O O O O O O O O ",
"      X o O O O O O O I I I U U U Y Y Y Y T T T T T T T T T T T T T T T T R R R E E E W W W W U U U Q Q Q O O O O O O O O O O O ",
"X X X - % O O O O O O I I I U U U Y Y Y Y T T T T T T T T T T T T T T T T R R R E E E W W W W U U U Q Q Q O O O O O O O H y y y ",
"o o o % O O O O O O O I I I U U U Y Y Y Y T T T T T T T T T T T T T T T T R R R E E E W W W W U U U Q Q Q O O O O O O H e u u u ",
"O O O O O O O O O O O I I I U U U Y Y Y Y T T T T T T T T T T T T T T T T R R R E E E W W W W U U U Q Q Q O O O O O O y u i i i ",
"O O O O O O O O O O O I I I U U U ! ! ! ! E E E ~ ~ ~ ^ ^ ^ / / / / ( ( ( ) ) ) E E E W W W W U U U Q Q Q O O O O O O y u i i i ",
"O O O O O O O O O O O I I I U U U ! ! ! ! E E E ~ ~ ~ ^ ^ ^ / / / / ( ( ( ) ) ) E E E W W W W U U U Q Q Q O O O O O O y u i i i ",
"O O O O O O O O O O O I I I U U U ! ! ! ! E E E ~ ~ ~ ^ ^ ^ / / / / ( ( ( ) ) ) E E E W W W W U U U Q Q Q O O O O O O y u i i i ",
"O O O O O O O O O O O I I I U U U ! ! ! ! E E E ~ ~ ~ ^ ^ ^ / / / / ( ( ( ) ) ) E E E W W W W U U U Q Q Q O O O O O O y u i i i ",
"O O O O O O O O O O O I I I U U U ! ! ! ! E E E ~ ~ ~ ^ ^ ^ / / / / ( ( ( ) ) ) E E E W W W W U U U Q Q Q O O O O O O y u i i i ",
"o o o % O O O O O O O I I I U U U ! ! ! ! E E E ~ ~ ~ ^ ^ ^ / / / / ( ( ( ) ) ) E E E W W W W U U U Q Q Q O O O O O O H e u u u ",
"X X X - % O O O O O O I I I U U U ! ! ! ! E E E ~ ~ ~ ^ ^ ^ / / / / ( ( ( ) ) ) E E E W W W W U U U Q Q Q O O O O O O O H y y y ",
"      X o O O O O O O I I I U U U ! ! ! ! E E E ~ ~ ~ ^ ^ ^ / / / / ( ( ( ) ) ) E E E W W W W U U U Q Q Q O O O O O O O O O O O ",
"  #   X o O O O O O O _ _ _ ` ` ` ' ' ' ' ] ] ] [ [ [ E E E W W W W U U U { { { ] ] ] } } } } | | |  . . .O O O O O O O O O O O ",
"      X o O O O O O O _ _ _ ` ` ` ' ' ' ' ] ] ] [ [ [ E E E W W W W U U U { { { ] ] ] } } } } | | |  . . .O O O O O O O O O O O ",
"    . 3 o O O O O O O _ _ _ ` ` ` ' ' ' ' ] ] ] [ [ [ E E E W W W W U U U { { { ] ] ] } } } } | | |  . . .O O O O O O O O O O O ",
"    . 3 o O O O O O O ......X.X.X.o.o.o.o.O.O.O.O.O.O.O.O.O.+.+.+.+.@.@.@.@.@.@.@.@.@.#.#.#.#.X.X.X.$.$.$.O O O O O O O O O O O ",
"      X o O O O O O O ......X.X.X.o.o.o.o.O.O.O.O.O.O.O.O.O.+.+.+.+.@.@.@.@.@.@.@.@.@.#.#.#.#.X.X.X.$.$.$.O O O O O O O O O O O ",
"      X o O O O O O O ......X.X.X.o.o.o.o.O.O.O.O.O.O.O.O.O.+.+.+.+.@.@.@.@.@.@.@.@.@.#.#.#.#.X.X.X.$.$.$.O O O O O O O H y y y ",
"    . 3 o O O O O O O ......X.X.X.o.o.o.o.O.O.O.O.O.O.O.O.O.+.+.+.+.@.@.@.@.@.@.@.@.@.#.#.#.#.X.X.X.$.$.$.O O O O O O H e u u u ",
"    . 3 o O O O O O O O O O O O O ........X.X.X.%.%.%.@.@.@.@.@.@.@.@.@.@.&.&.&.*.*.*.=.=.=.=.O O O O O O O O O O O O y u i i i ",
"      X o O O O O O 0 0 O O O O O ........X.X.X.%.%.%.@.@.@.@.@.@.@.@.@.@.&.&.&.*.*.*.=.=.=.=.O O O O O O O O O O O O y u i i i ",
"      X o O O O O O 0 0 O O O O O ........X.X.X.%.%.%.@.@.@.@.@.@.@.@.@.@.&.&.&.*.*.*.=.=.=.=.O O O O O O O O O O O O y u i i i ",
"      X o O O O O O O O O O O O O ........X.X.X.%.%.%.@.@.@.@.@.@.@.@.@.@.&.&.&.*.*.*.=.=.=.=.O O O O O O O O O O O O y u i i i ",
"  #   X o O p O O O O O O O O O O O O O O O O O -.-.-.*.*.*.*.*.*.*.*.*.*.=.=.=.O O O O O O O O O O O O O O O O O O O y u i i i ",
"      X @ + O O O O O O O O O O + + O O O O O O -.-.-.*.*.*.*.*.*.*.*.*.*.=.=.=.O O + + O O O O O O O O O O O O O O O y u i i i ",
"5 5 5 ;.H :.y y y y y H O O O O + + O O H y y H -.-.-.*.*.*.*.*.*.*.*.*.*.>.>.>.y y :.H & O O O H y y y y y y y y y y ,.P i i i ",
"<.<.e 1.u u u u u u u e H 0 O O O O O H e u u e 2.-.-.*.*.*.*.*.*.*.*.*.*.3.3.3.u u u e y & O H e u u u u u u u u u u P i i i i ",
"C C L L i i i i C C i u H 0 O O O O O y u i i u y O O y u i i i L L i i i i i i i i i u y & O y u i i i i i i i i i i i i i i i ",
"i i i i i i i i i i i u y O O O & & O y u i i u y O O y u i i i i i i i c c i i i i C u y O O y u i i i i i i i i i i i i i i i ",
"i i i i i i i i i i i u y O O O & & O y u i i u y O O y u i i i i i i i c c i i i i C u y O O y u i i i i i i i i i i i i i i i "
};
