/* XPM */
static char *rcp06445455056634[] = {
/* columns rows colors chars-per-pixel */
"64 64 124 2 ",
"   c #222222",
".  c #222224",
"X  c #252120",
"o  c #463C3B",
"O  c #493B3A",
"+  c #493B38",
"@  c #463C3A",
"#  c gray13",
"$  c #212322",
"%  c #473B3B",
"&  c #4A3A3A",
"*  c #232122",
"=  c #232220",
"-  c #262020",
";  c #4C3939",
":  c #4B3939",
">  c #2E2222",
",  c #632F2F",
"<  c #5F2D2D",
"1  c #4A2323",
"2  c #4A2626",
"3  c #473C3A",
"4  c #281F20",
"5  c #252122",
"6  c #26211E",
"7  c #28201E",
"8  c #453D3B",
"9  c #705E5A",
"0  c #715E58",
"q  c #725D58",
"w  c #4C3A38",
"e  c #745D57",
"r  c #775C55",
"t  c #4A3C3B",
"y  c #4D3939",
"u  c #4C3937",
"i  c #783939",
"p  c #F77575",
"a  c #F07272",
"s  c #C65E5E",
"d  c #B45555",
"f  c #BF5B5B",
"g  c #944646",
"h  c #894141",
"j  c #775B57",
"k  c #4A3A39",
"l  c #713636",
"z  c #2C2422",
"x  c #2E2322",
"c  c #292423",
"v  c #2B2424",
"b  c #6A3232",
"n  c #7F3C3C",
"m  c black",
"M  c #1D0E0E",
"N  c #B85757",
"B  c #5F3131",
"V  c #775C53",
"C  c #493737",
"Z  c #552828",
"A  c #150A0A",
"S  c #9B4949",
"D  c #473837",
"F  c #483737",
"G  c #4A3B38",
"H  c #2B2120",
"J  c #2B2020",
"K  c #282222",
"L  c #222220",
"P  c #493735",
"I  c #785B55",
"U  c #755C57",
"Y  c #443738",
"T  c #282627",
"R  c #2E2B2D",
"E  c #514C4F",
"W  c #555053",
"Q  c #6C656A",
"!  c #686166",
"~  c #4B4649",
"^  c #2D282A",
"/  c #46393A",
"(  c #363235",
")  c #423D40",
"_  c #877E84",
"`  c #837A80",
"'  c #4D484B",
"]  c #343033",
"[  c #625C60",
"{  c #322F31",
"}  c #443A3A",
"|  c #45393A",
" . c #282323",
".. c #282223",
"X. c #252425",
"o. c #353022",
"O. c #7F6D07",
"+. c #786707",
"@. c #4C4104",
"#. c #4C410C",
"$. c #282626",
"%. c #282628",
"&. c #2B2526",
"*. c #4B413C",
"=. c #5D514B",
"-. c #CAAFA2",
";. c #BBA296",
":. c #655851",
">. c #74655D",
",. c #D1B5A8",
"<. c #FCDBCB",
"1. c #E2C5B6",
"2. c #2B2524",
"3. c #B89F93",
"4. c #493B3B",
"5. c #291F1D",
"6. c #4C3A36",
"7. c #4C3B39",
"8. c #4B413B",
"9. c #4D3A36",
"0. c #725E57",
"q. c #745C58",
"w. c #6E5853",
"e. c #514640",
/* pixels */
"    . .               X o O O o X                             X o O O O O O O O O O + @ X     X o O O o X                       ",
"    . .           #   X o O O o X                             X o O O O O O O O O O + @ X   # X o O O o X   #                   ",
"            $ $       X o O O o X                             X % & O O O O O O O O O o X *   X o O & % X   . .         $ $     ",
"        = X = = X X X - % O ; : > , , , , , , , , , , , , , , , , , < < < 1 1 1 2 2 2 3 4 X X - % O & % - X 5 5 X X X X 6 6 6 7 ",
"      = 8 o o o o o o % O O ; ; : , , , , , , , , , , , , , , , , , < < < 1 1 1 2 2 2 O 3 o o % O O O O 3 @ o o o o o O 9 0 0 q ",
"      X o O O O O O O O O O ; ; ; , , , , , , , , , , , , , , , , , < < < 1 1 1 2 2 2 + O O O O O O O O + + O O O O O w e r r r ",
"      X o O t O O O + + O O y y ; , , , , , , , , , , , , , , , , , < < < 1 1 1 2 2 2 O O O O O O O O O O O O O O O O w e r r r ",
"X X X - % O O O ; ; u , , , i i i p p p p a a a s s s s s s s s s s s s s s s s d d d 1 1 1 1 2 2 2 O O O O O O O O O w e r r r ",
"o o o % O O O O ; ; ; , , , i i i p p p p a a a s s s s s s s s s s s s s s s s d d d 1 1 1 1 2 2 2 O O & & O O O O O w e r r r ",
"O O O O O O O O ; ; ; , , , i i i p p p p a a a s s s s s s s s s s s s s s s s d d d 1 1 1 1 2 2 2 O O & & O O O O O w e r r r ",
"O O O O O O O O ; ; ; , , , i i i p p p p a a a s s s s s s s s s s s s s s s s d d d 1 1 1 1 2 2 2 O O O O O O O O O w e r r r ",
"O ; ; ; , , , , i i i p p p p p p p p p p p p p p p p a a a s s s s s s s s s s f f f g g g g h h h 1 1 1 2 2 2 O O O w e r r r ",
"O ; ; ; , , , , i i i p p p p p p p p p p p p p p p p a a a s s s s s s s s s s f f f g g g g h h h 1 1 1 2 2 2 O O O w e r r r ",
"O ; ; ; , , , , i i i p p p p p p p p p p p p p p p p a a a s s s s s s s s s s f f f g g g g h h h 1 1 1 2 2 2 O O O w e r r r ",
"O ; ; ; , , , , i i i p p p p p p p p p p p p p p p p a a a s s s s s s s s s s f f f g g g g h h h 1 1 1 2 2 2 O O O w e r j j ",
"o k k : , , , , l l l s s s s s s s s s s s s s s s s s s s s s s s s s s s s s f f f g g g g h h h 1 1 1 2 2 2 O O O w e r j j ",
"= z x > , , , , l l l s s s s s s s s s s s s s s s s s s s s s s s s s s s s s f f f g g g g h h h 1 1 1 2 2 2 O O O w e r r r ",
"$ c v x , , , , l l l s s s s s s s s s s s s s s s s s s s s s s s s s s s s s f f f g g g g h h h 1 1 1 2 2 2 O O O w e r r r ",
"  v v x , , , , b b b g g g n n n m m m m M M M s s s s s s s s s s N N N , , , , , , , , , , , , , , , , B B B O O O w e r r r ",
"X x x > , , , , b b b g g g n n n m m m m M M M s s s s s s s s s s N N N , , , , , , , , , , , , , , , , B B B O O O w e r r r ",
"@ k k : , , , , b b b g g g n n n m m m m M M M s s s s s s s s s s N N N , , , , , , , , , , , , , , , , B B B O O O w e V V V ",
"+ u ; ; , , , , b b b g g g n n n m m m m M M M s s s s s s s s s s N N N , , , , , , , , , , , , , , , , B B B O O O w e V V V ",
"O C C C 1 1 1 1 Z Z Z g g g n n n m m m m A A A g g g g g g g g g g S S S s s s s s s s s s s N N N , , , B B B O O O w e r r r ",
"o D D F 1 1 1 1 Z Z Z g g g n n n m m m m A A A g g g g g g g g g g S S S s s s s s s s s s s N N N , , , B B B O O O G q e e e ",
"X H H J 1 1 1 1 Z Z Z g g g n n n m m m m A A A g g g g g g g g g g S S S s s s s s s s s s s N N N , , , B B B O O + + G w w w ",
"  K K H 1 1 1 1 Z Z Z g g g n n n m m m m A A A g g g g g g g g g g S S S s s s s s s s s s s N N N , , , B B B O O + + O O O O ",
"      X o O O O C C C 1 1 1 Z Z Z g g g g g g g g g g g g g g g g g h h h 1 1 1 1 1 1 1 1 1 1 2 2 2 O O O O O O O O O O O O O O ",
"      X o O O O C C C 1 1 1 Z Z Z g g g g g g g g g g g g g g g g g h h h 1 1 1 1 1 1 1 1 1 1 2 2 2 O O O O O O O O O O G w w w ",
"      X o O O O C C C 1 1 1 Z Z Z g g g g g g g g g g g g g g g g g h h h 1 1 1 1 1 1 1 1 1 1 2 2 2 O O O O O O O O O G q e e e ",
"      X o O O O C C C 1 1 1 Z Z Z g g g g g g g g g g g g g g g g g h h h 1 1 1 1 1 1 1 1 1 1 2 2 2 O O O O O O O O O w e r r r ",
"    L X % & O O O O O O O O P P C 1 1 1 1 1 1 1 1 1 1 1 1 1 1 1 1 1 1 1 1 1 1 1 2 2 2 O O O O O O O O O O O O O O O O w e r I I ",
"    L X % & O O O O O O O O P P C 1 1 1 1 1 1 1 1 1 1 1 1 1 1 1 1 1 1 1 1 1 1 1 2 2 2 O O O O O O O O O O O O O O O O G q e U U ",
"      X o O O O O O O O O O C C C 1 1 1 1 1 1 1 1 1 1 1 1 1 1 1 1 1 1 1 1 1 1 1 2 2 2 O O O O O O O O O O O O O O O O O G w w w ",
"  #   X o O O O O O O O O O C C C 1 1 1 1 1 1 1 1 1 1 1 1 1 1 1 1 1 1 1 1 1 1 1 2 2 2 O O O O O O O O O O O O O O O O O O O O O ",
"      X o O O O Y Y Y T T T R R R E E E E W W W Q Q Q Q Q Q Q Q Q Q ! ! ! E E E ~ ~ ~ T T T T ^ ^ ^ O O O O O O O O O O O O O O ",
"X X X - % O O O Y Y Y T T T R R R E E E E W W W Q Q Q Q Q Q Q Q Q Q ! ! ! E E E ~ ~ ~ T T T T ^ ^ ^ O O O O O O O O O O G w w w ",
"o o o % O O O O Y Y Y T T T R R R E E E E W W W Q Q Q Q Q Q Q Q Q Q ! ! ! E E E ~ ~ ~ T T T T ^ ^ ^ O O O O O O O O O G q e e e ",
"O O O O O O O O Y Y Y T T T R R R E E E E W W W Q Q Q Q Q Q Q Q Q Q ! ! ! E E E ~ ~ ~ T T T T ^ ^ ^ O O O O O O O O O w e r r r ",
"O / / / ( ( ( ( ) ) ) _ _ _ ` ` ` Q Q Q Q Q Q Q Q Q Q Q Q Q Q Q Q Q ! ! ! E E E ' ' ' ( ( ( ( ] ] ] T T T ^ ^ ^ O O O w e r r r ",
"O / / / ( ( ( ( ) ) ) _ _ _ ` ` ` Q Q Q Q Q Q Q Q Q Q Q Q Q Q Q Q Q ! ! ! E E E ' ' ' ( ( ( ( ] ] ] T T T ^ ^ ^ O O O w e r r r ",
"O / / / ( ( ( ( ) ) ) _ _ _ ` ` ` Q Q Q Q Q Q Q Q Q Q Q Q Q Q Q Q Q ! ! ! E E E ' ' ' ( ( ( ( ] ] ] T T T ^ ^ ^ O O O w e r r r ",
"O / / / ( ( ( ( ) ) ) _ _ _ ` ` ` Q Q Q Q Q Q Q Q Q Q Q Q Q Q Q Q Q ! ! ! E E E ' ' ' ( ( ( ( ] ] ] T T T ^ ^ ^ O O O w e r r r ",
"O / / / ( ( ( ( ) ) ) _ _ _ ` ` ` Q Q Q Q [ [ [ T T T { { { Q Q Q Q ! ! ! E E E ' ' ' ( ( ( ( ] ] ] T T T ^ ^ ^ O O O w e r r r ",
"o } } | ( ( ( ( ) ) ) _ _ _ ` ` ` Q Q Q Q [ [ [ T T T { { { Q Q Q Q ! ! ! E E E ' ' ' ( ( ( ( ] ] ] T T T ^ ^ ^ O O O G q e e e ",
"X  . ...( ( ( ( ) ) ) _ _ _ ` ` ` Q Q Q Q [ [ [ T T T { { { Q Q Q Q ! ! ! E E E ' ' ' ( ( ( ( ] ] ] T T T ^ ^ ^ O O O O G w w w ",
"  X.X. .( ( ( ( ) ) ) _ _ _ ` ` ` Q Q Q Q [ [ [ T T T { { { Q Q Q Q ! ! ! E E E ' ' ' ( ( ( ( ] ] ] T T T ^ ^ ^ O O O O O O O O ",
"  #   X o O O O / / / ( ( ( ] ] ] T T T T o.o.o.O.O.O.O.O.O.O.O.O.O.O.O.O.O.O.O.+.+.+.@.@.@.@.#.#.#.O O O O O O O O O O O O O O ",
"      X o O O O / / / ( ( ( ] ] ] T T T T o.o.o.O.O.O.O.O.O.O.O.O.O.O.O.O.O.O.O.+.+.+.@.@.@.@.#.#.#.O O O O O O O O O O O O O O ",
"    . 5 o O O O / / / ( ( ( ] ] ] T T T T o.o.o.O.O.O.O.O.O.O.O.O.O.O.O.O.O.O.O.+.+.+.@.@.@.@.#.#.#.O O O O O O O O O O O O O O ",
"  $.%.&.*.*.*.*.=.=.=.-.-.-.-.-.-.-.-.-.-.;.;.;.:.:.:.>.>.>.-.-.-.-.,.,.,.<.<.<.<.<.<.<.<.<.<.1.1.1.*.*.*.*.*.*.O O O O O O O O ",
"  $.$.2.*.*.*.*.=.=.=.-.-.-.-.-.-.-.-.-.-.;.;.;.:.:.:.>.>.>.-.-.-.-.,.,.,.<.<.<.<.<.<.<.<.<.<.1.1.1.*.*.*.*.*.*.O O O O O O O O ",
"  $.$.2.*.*.*.*.=.=.=.-.-.-.-.-.-.-.-.-.-.;.;.;.:.:.:.>.>.>.-.-.-.-.,.,.,.<.<.<.<.<.<.<.<.<.<.1.1.1.*.*.*.*.*.*.O O O O G w w w ",
"  $.%.&.*.*.*.*.=.=.=.-.-.-.-.-.-.-.-.-.-.;.;.;.:.:.:.>.>.>.-.-.-.-.,.,.,.<.<.<.<.<.<.<.<.<.<.1.1.1.*.*.*.*.*.*.O O O G q e e e ",
"  $.%.&.*.*.*.*.=.=.=.-.-.-.-.-.-.-.-.-.-.;.;.;.:.:.:.:.:.:.:.:.:.:.>.>.>.-.-.-.-.-.-.-.-.-.-.3.3.3.*.*.*.*.*.*.O O O w e r r r ",
"  $.$.2.*.*.*.*.=.=.=.-.-.-.-.-.-.-.-.-.-.;.;.;.:.:.:.:.:.:.:.:.:.:.>.>.>.-.-.-.-.-.-.-.-.-.-.3.3.3.*.*.*.*.*.*.O O O w e r r r ",
"  $.$.2.*.*.*.*.=.=.=.-.-.-.-.-.-.-.-.-.-.;.;.;.:.:.:.:.:.:.:.:.:.:.>.>.>.-.-.-.-.-.-.-.-.-.-.3.3.3.*.*.*.*.*.*.O O O w e r r r ",
"  $.$.2.*.*.*.*.=.=.=.-.-.-.-.-.-.-.-.-.-.;.;.;.:.:.:.:.:.:.:.:.:.:.>.>.>.-.-.-.-.-.-.-.-.-.-.3.3.3.*.*.*.*.*.*.O O O w e r r r ",
"  #   X o O t O 4.4.4.*.*.*.*.*.*.*.*.*.*.*.*.*.O O O O O O O O O O 4.4.4.*.*.*.*.*.*.*.*.*.*.*.*.*.O O O O O O O O O w e r r r ",
"      X @ + O O 4.4.4.*.*.*.*.*.*.*.*.*.*.*.*.*.O O O O O O 4.4.O O 4.4.4.*.*.*.*.*.*.*.*.*.*.*.*.*.O O O O O O O O O w e r r r ",
"7 7 7 5.G 6.w w 7.7.7.*.*.*.*.*.*.*.*.*.*.8.8.8.O O O O G w w w w w 7.7.7.*.*.*.*.*.*.*.*.*.*.*.8.8.w w w w w w w w w 9.U r r r ",
"0.0.q q.e e e e w.w.w.*.*.*.*.*.*.*.*.*.*.e.e.e.G O O G q e e e U U w.w.w.*.*.*.*.*.*.*.*.*.*.8.e.e.e e e e e e e e e U r r r r ",
"V V I I r r r r V V r e G 3 O O O O O w e r r e w O O w e r r r I I r r r r r r r r r e w & O w e r r r r r r r r r r r r r r r ",
"r r r r r r r r r r r e w O O O & & O w e r r e w O O w e r r r r r r r j j r r r r V e w O O w e r r r r r r r r r r r r r r r ",
"r r r r r r r r r r r e w O O O & & O w e r r e w O O w e r r r r r r r j j r r r r V e w O O w e r r r r r r r r r r r r r r r "
};
