/* XPM */
static char *rcp06445069482553[] = {
/* columns rows colors chars-per-pixel */
"64 64 113 2 ",
"   c #222222",
".  c #222224",
"X  c #252120",
"o  c #463C3B",
"O  c #493B3A",
"+  c #493B38",
"@  c #463C3A",
"#  c gray13",
"$  c #212322",
"%  c #473B3B",
"&  c #4A3A3A",
"*  c #232122",
"=  c #232220",
"-  c #262020",
";  c #512C2B",
":  c #632F2F",
">  c #512626",
",  c #4A2323",
"<  c #483533",
"1  c #312021",
"2  c #2F2221",
"3  c #252122",
"4  c #26211E",
"5  c #28201E",
"6  c #453D3B",
"7  c #5B3333",
"8  c #493433",
"9  c #473534",
"0  c #473C3A",
"q  c #705E5A",
"w  c #715E58",
"e  c #725D58",
"r  c #5C3333",
"t  c #493432",
"y  c #4C3A38",
"u  c #745D57",
"i  c #775C55",
"p  c #4A3C3B",
"a  c #5C3332",
"s  c #CD6161",
"d  c #F77575",
"f  c #D46565",
"g  c #C65E5E",
"h  c #6D3434",
"j  c #4A3333",
"k  c #A24D4D",
"l  c #944646",
"z  c #5F2D2D",
"x  c #4B3332",
"c  c #775B57",
"v  c #AA5151",
"b  c #202221",
"n  c #863F3F",
"m  c #2A1414",
"M  c black",
"N  c #8D4343",
"B  c #7F3C3C",
"V  c #503736",
"C  c #523635",
"Z  c #775C53",
"A  c #4A2A2A",
"S  c #6A3232",
"D  c #B85757",
"F  c #513735",
"G  c #492A2A",
"H  c #503735",
"J  c #4A3B38",
"K  c #222220",
"L  c #785B55",
"P  c #755C57",
"I  c #322C2C",
"U  c #282627",
"Y  c #454144",
"T  c #514C4F",
"R  c #3E393C",
"E  c #363235",
"W  c #2C292B",
"Q  c #3F3534",
"!  c #322F31",
"~  c #70686D",
"^  c #877E84",
"/  c #746C71",
"(  c #6C656A",
")  c #454044",
"_  c #CBAD1B",
"`  c #FFDA0F",
"'  c #A38C09",
"]  c #7F6D07",
"[  c #4B4328",
"{  c #665910",
"}  c #5B4E05",
"|  c #4C4104",
" . c #4A3D2A",
".. c #5D504A",
"X. c #655851",
"o. c #D1B6A8",
"O. c #FCDBCB",
"+. c #D8BCAE",
"@. c #CAAFA2",
"#. c #827168",
"$. c #514340",
"%. c #AD968B",
"&. c #6F6059",
"*. c #4B413C",
"=. c #493D3A",
"-. c #4B3F3B",
";. c #291F1D",
":. c #4C3A36",
">. c #4B3C39",
",. c #4D3A36",
"<. c #725E57",
"1. c #745C58",
"2. c #68554F",
/* pixels */
"    . .               X o O O o X                             X o O O O O O O O O O + @ X     X o O O o X                       ",
"    . .           #   X o O O o X                             X o O O O O O O O O O + @ X   # X o O O o X   #                   ",
"            $ $       X o O O o X                             X % & O O O O O O O O O o X *   X o O & % X   . .         $ $     ",
"        = X = = X X X - % O O % - ; ; ; ; : : : : : : : : : : : : : : : : > > > , , , < 1 2 2 - % O & % - X 3 3 X X X X 4 4 4 5 ",
"      = 6 o o o o o o % O O O O % 7 7 7 7 : : : : : : : : : : : : : : : : > > > , , , 8 < 9 9 % O O O O 0 @ o o o o o O q w w e ",
"      X o O O O O O O O O O O O O r r r r : : : : : : : : : : : : : : : : > > > , , , t 8 8 8 O O O O O + + O O O O O y u i i i ",
"      X o O p O O O + + O O & & O r r r r : : : : : : : : : : : : : : : : > > > , , , 8 8 8 8 O O O O O O O O O O O O y u i i i ",
"X X X - % O O O O O + a r r : : : s s s s d d d f f f g g g g g g g g g g g g g g g g h h h h , , , 8 8 8 O O O O O O y u i i i ",
"o o o % O O O O O O O r r r : : : s s s s d d d f f f g g g g g g g g g g g g g g g g h h h h , , , 8 8 j & O O O O O y u i i i ",
"O O O O O O O O O O O r r r : : : s s s s d d d f f f g g g g g g g g g g g g g g g g h h h h , , , 8 8 j & O O O O O y u i i i ",
"O O O O O O O O O O O r r r : : : s s s s d d d f f f g g g g g g g g g g g g g g g g h h h h , , , 8 8 8 O O O O O O y u i i i ",
"O O O O r r r r : : : s s s d d d d d d d d d d d d d d d d f f f f g g g g g g g g g k k k k l l l z z z , , , 8 8 8 x u i i i ",
"O O O O r r r r : : : s s s d d d d d d d d d d d d d d d d f f f f g g g g g g g g g k k k k l l l z z z , , , 8 8 8 x u i i i ",
"O O O O r r r r : : : s s s d d d d d d d d d d d d d d d d f f f f g g g g g g g g g k k k k l l l z z z , , , 8 8 8 x u i i i ",
"O O O O r r r r : : : s s s d d d d d d d d d d d d d d d d f f f f g g g g g g g g g k k k k l l l z z z , , , 8 8 8 x u i c c ",
"o o o % r r r r : : : v v v g g g g g g g g g g g g g g g g g g g g g g g g g g g g g k k k k l l l z z z , , , 8 8 8 x u i c c ",
"= = X - 7 a r r : : : v v v g g g g g g g g g g g g g g g g g g g g g g g g g g g g g k k k k l l l z z z , , , 8 8 8 x u i i i ",
"$ b   X 7 a r r : : : v v v g g g g g g g g g g g g g g g g g g g g g g g g g g g g g k k k k l l l z z z , , , 8 8 8 x u i i i ",
"      X 7 r r r : : : n n n l l l m m m m M M M N N N g g g g g g g g g g B B B : : : : : : : : : : : : : : : : V V V C u i i i ",
"X X X - 7 r r r : : : n n n l l l m m m m M M M N N N g g g g g g g g g g B B B : : : : : : : : : : : : : : : : V V V C u i i i ",
"@ @ o % r r r r : : : n n n l l l m m m m M M M N N N g g g g g g g g g g B B B : : : : : : : : : : : : : : : : V V V C u Z Z Z ",
"+ + O O r r r r : : : n n n l l l m m m m M M M N N N g g g g g g g g g g B B B : : : : : : : : : : : : : : : : V V V C u Z Z Z ",
"O O O O A A A A , , , B B B l l l m m m m M M M S S S l l l l l l l l l l D D D g g g g g g g g g g B B B : : : V V V C u i i i ",
"o o o % A A A A , , , B B B l l l m m m m M M M S S S l l l l l l l l l l D D D g g g g g g g g g g B B B : : : V V V F e u u u ",
"X X X - G A A A , , , B B B l l l m m m m M M M S S S l l l l l l l l l l D D D g g g g g g g g g g B B B : : : V V H H J y y y ",
"      X G A A A , , , B B B l l l m m m m M M M S S S l l l l l l l l l l D D D g g g g g g g g g g B B B : : : V V H H O O O O ",
"      X o O O O O O O A A A , , , B B B B l l l l l l l l l l l l l l l l z z z , , , , , , , , , , 8 8 8 O O O O O O O O O O O ",
"      X o O O O O O O A A A , , , B B B B l l l l l l l l l l l l l l l l z z z , , , , , , , , , , 8 8 8 O O O O O O O J y y y ",
"      X o O O O O O O A A A , , , B B B B l l l l l l l l l l l l l l l l z z z , , , , , , , , , , 8 8 8 O O O O O O J e u u u ",
"      X o O O O O O O A A A , , , B B B B l l l l l l l l l l l l l l l l z z z , , , , , , , , , , 8 8 8 O O O O O O y u i i i ",
"    K X % & O O O O O O O O + + O A A A A , , , , , , , , , , , , , , , , , , , , , , 8 8 8 8 O O O O O O O O O O O O y u i L L ",
"    K X % & O O O O O O O O + + O A A A A , , , , , , , , , , , , , , , , , , , , , , 8 8 8 8 O O O O O O O O O O O O J e u P P ",
"      X o O O O O O O O O O O O O A A A A , , , , , , , , , , , , , , , , , , , , , , 8 8 8 8 O O O O O O O O O O O O O J y y y ",
"  #   X o O O O O O O O O O O O O A A A A , , , , , , , , , , , , , , , , , , , , , , 8 8 8 8 O O O O O O O O O O O O O O O O O ",
"      X o O O O O O O I I I U U U Y Y Y Y T T T T T T T T T T T T T T T T R R R E E E W W W W U U U Q Q Q O O O O O O O O O O O ",
"X X X - % O O O O O O I I I U U U Y Y Y Y T T T T T T T T T T T T T T T T R R R E E E W W W W U U U Q Q Q O O O O O O O J y y y ",
"o o o % O O O O O O O I I I U U U Y Y Y Y T T T T T T T T T T T T T T T T R R R E E E W W W W U U U Q Q Q O O O O O O J e u u u ",
"O O O O O O O O O O O I I I U U U Y Y Y Y T T T T T T T T T T T T T T T T R R R E E E W W W W U U U Q Q Q O O O O O O y u i i i ",
"O O O O O O O O O O O I I I U U U ! ! ! ! E E E ~ ~ ~ ^ ^ ^ / / / / ( ( ( ) ) ) E E E W W W W U U U Q Q Q O O O O O O y u i i i ",
"O O O O O O O O O O O I I I U U U ! ! ! ! E E E ~ ~ ~ ^ ^ ^ / / / / ( ( ( ) ) ) E E E W W W W U U U Q Q Q O O O O O O y u i i i ",
"O O O O O O O O O O O I I I U U U ! ! ! ! E E E ~ ~ ~ ^ ^ ^ / / / / ( ( ( ) ) ) E E E W W W W U U U Q Q Q O O O O O O y u i i i ",
"O O O O O O O O O O O I I I U U U ! ! ! ! E E E ~ ~ ~ ^ ^ ^ / / / / ( ( ( ) ) ) E E E W W W W U U U Q Q Q O O O O O O y u i i i ",
"O O O O O O O O O O O I I I U U U ! ! ! ! E E E ~ ~ ~ ^ ^ ^ / / / / ( ( ( ) ) ) E E E W W W W U U U Q Q Q O O O O O O y u i i i ",
"o o o % O O O O O O O I I I U U U ! ! ! ! E E E ~ ~ ~ ^ ^ ^ / / / / ( ( ( ) ) ) E E E W W W W U U U Q Q Q O O O O O O J e u u u ",
"X X X - % O O O O O O I I I U U U ! ! ! ! E E E ~ ~ ~ ^ ^ ^ / / / / ( ( ( ) ) ) E E E W W W W U U U Q Q Q O O O O O O O J y y y ",
"      X o O O O O O O I I I U U U ! ! ! ! E E E ~ ~ ~ ^ ^ ^ / / / / ( ( ( ) ) ) E E E W W W W U U U Q Q Q O O O O O O O O O O O ",
"  #   X o O O O O O O _ _ _ ` ` ` ' ' ' ' ] ] ] [ [ [ E E E W W W W U U U { { { ] ] ] } } } } | | |  . . .O O O O O O O O O O O ",
"      X o O O O O O O _ _ _ ` ` ` ' ' ' ' ] ] ] [ [ [ E E E W W W W U U U { { { ] ] ] } } } } | | |  . . .O O O O O O O O O O O ",
"    . 3 o O O O O O O _ _ _ ` ` ` ' ' ' ' ] ] ] [ [ [ E E E W W W W U U U { { { ] ] ] } } } } | | |  . . .O O O O O O O O O O O ",
"    . 3 o O O O O O O ......X.X.X.o.o.o.o.O.O.O.O.O.O.O.O.O.+.+.+.+.@.@.@.@.@.@.@.@.@.#.#.#.#.X.X.X.$.$.$.O O O O O O O O O O O ",
"      X o O O O O O O ......X.X.X.o.o.o.o.O.O.O.O.O.O.O.O.O.+.+.+.+.@.@.@.@.@.@.@.@.@.#.#.#.#.X.X.X.$.$.$.O O O O O O O O O O O ",
"      X o O O O O O O ......X.X.X.o.o.o.o.O.O.O.O.O.O.O.O.O.+.+.+.+.@.@.@.@.@.@.@.@.@.#.#.#.#.X.X.X.$.$.$.O O O O O O O J y y y ",
"    . 3 o O O O O O O ......X.X.X.o.o.o.o.O.O.O.O.O.O.O.O.O.+.+.+.+.@.@.@.@.@.@.@.@.@.#.#.#.#.X.X.X.$.$.$.O O O O O O J e u u u ",
"    . 3 o O O O O O O O O O O O O ........X.X.X.%.%.%.@.@.@.@.@.@.@.@.@.@.&.&.&.*.*.*.=.=.=.=.O O O O O O O O O O O O y u i i i ",
"      X o O O O O O 0 0 O O O O O ........X.X.X.%.%.%.@.@.@.@.@.@.@.@.@.@.&.&.&.*.*.*.=.=.=.=.O O O O O O O O O O O O y u i i i ",
"      X o O O O O O 0 0 O O O O O ........X.X.X.%.%.%.@.@.@.@.@.@.@.@.@.@.&.&.&.*.*.*.=.=.=.=.O O O O O O O O O O O O y u i i i ",
"      X o O O O O O O O O O O O O ........X.X.X.%.%.%.@.@.@.@.@.@.@.@.@.@.&.&.&.*.*.*.=.=.=.=.O O O O O O O O O O O O y u i i i ",
"  #   X o O p O O O O O O O O O O O O O O O O O -.-.-.*.*.*.*.*.*.*.*.*.*.=.=.=.O O O O O O O O O O O O O O O O O O O y u i i i ",
"      X @ + O O O O O O O O O O + + O O O O O O -.-.-.*.*.*.*.*.*.*.*.*.*.=.=.=.O O + + O O O O O O O O O O O O O O O y u i i i ",
"5 5 5 ;.J :.y y y y y J O O O O + + O O J y y J -.-.-.*.*.*.*.*.*.*.*.*.*.>.>.>.y y :.J & O O O J y y y y y y y y y y ,.P i i i ",
"<.<.e 1.u u u u u u u e J 0 O O O O O J e u u e -.-.-.*.*.*.*.*.*.*.*.*.*.2.2.2.u u u e y & O J e u u u u u u u u u u P i i i i ",
"Z Z L L i i i i Z Z i u J 0 O O O O O y u i i u y O O y u i i i L L i i i i i i i i i u y & O y u i i i i i i i i i i i i i i i ",
"i i i i i i i i i i i u y O O O & & O y u i i u y O O y u i i i i i i i c c i i i i Z u y O O y u i i i i i i i i i i i i i i i ",
"i i i i i i i i i i i u y O O O & & O y u i i u y O O y u i i i i i i i c c i i i i Z u y O O y u i i i i i i i i i i i i i i i "
};
