/* XPM */
static char *rcp03223385635358[] = {
/* columns rows colors chars-per-pixel */
"64 64 207 2 ",
"   c #180E0E",
".  c #1E1515",
"X  c #2E1C0C",
"o  c #301D0D",
"O  c #211717",
"+  c #211A1A",
"@  c #2F1F12",
"#  c #311F11",
"$  c #372E0D",
"%  c #342616",
"&  c #3A3214",
"*  c #39321D",
"=  c #241D21",
"-  c #272124",
";  c #2B2526",
":  c #2C262A",
">  c #2D292C",
",  c #352821",
"<  c #342C2C",
"1  c #3B3528",
"2  c #2E2A30",
"3  c #312D32",
"4  c #353134",
"5  c #3A3536",
"6  c #34323B",
"7  c #39373C",
"8  c #3D393B",
"9  c #3F3834",
"0  c #5C3809",
"q  c #56370E",
"w  c #5D3E15",
"e  c #51391C",
"r  c #4B3413",
"t  c #44392A",
"y  c #433D3D",
"u  c #473D37",
"i  c #595319",
"p  c #575118",
"a  c #4E4610",
"s  c #6D4608",
"d  c #7C4F09",
"f  c #624E17",
"g  c #67610E",
"h  c #6A640C",
"j  c #6E6809",
"k  c #696311",
"l  c #797511",
"z  c #7D6D08",
"x  c #4A4523",
"c  c #4F4934",
"v  c #634A2C",
"b  c #373640",
"n  c #383740",
"m  c #3B3A42",
"M  c #403E44",
"N  c #434246",
"B  c #4A4545",
"V  c #464549",
"C  c #48474A",
"Z  c #4C4A4C",
"A  c #514F4F",
"S  c #514846",
"D  c #555152",
"F  c #5A5555",
"G  c #5E5857",
"H  c #5E5959",
"J  c #555050",
"K  c #615C5C",
"L  c #675644",
"P  c #6C625C",
"I  c #676160",
"U  c #696362",
"Y  c #6E6868",
"T  c #6E6867",
"R  c #797475",
"E  c #885405",
"W  c #875406",
"Q  c #915D0F",
"!  c #817708",
"~  c #817707",
"^  c #8D601B",
"/  c #906F0D",
"(  c #A86804",
")  c #B36F02",
"_  c #B47102",
"`  c #BB7802",
"'  c #BA7F1F",
"]  c #C67B02",
"[  c #947341",
"{  c #827859",
"}  c #81776F",
"|  c #989409",
" . c #97930B",
".. c #A59305",
"X. c #A8A405",
"o. c #A7A306",
"O. c #B2A705",
"+. c #B3A910",
"@. c #BC8122",
"#. c #CE8200",
"$. c #D28400",
"%. c #D38D00",
"&. c #DF8B00",
"*. c #D88908",
"=. c #D89702",
"-. c #D38D1A",
";. c #CD9811",
":. c #E38E00",
">. c #EC9300",
",. c #E99702",
"<. c #FE9E00",
"1. c #F39800",
"2. c #E99915",
"3. c #DFAE00",
"4. c #C9B003",
"5. c #DEB702",
"6. c #E7AB00",
"7. c #FFA200",
"8. c #FFAB00",
"9. c #FAA308",
"0. c #E5B600",
"q. c #FEB500",
"w. c #F3BE01",
"e. c #FFBE00",
"r. c #FEA715",
"t. c #FFAA1F",
"y. c #F9A61E",
"u. c #F8BA1A",
"i. c #D79D3D",
"p. c #DF9824",
"a. c #D9AA37",
"s. c #FBAA24",
"d. c #FEB43C",
"f. c #FFB437",
"g. c #ECA93C",
"h. c #C7C404",
"j. c #DED902",
"k. c #ECCD00",
"l. c #E9C704",
"z. c #FFC300",
"x. c #FECB00",
"c. c #E1DE02",
"v. c #E6D401",
"b. c #FFD300",
"n. c #FFDB00",
"m. c #F2DF00",
"M. c #E2E002",
"N. c #FDE400",
"B. c #FAED00",
"V. c #F3E100",
"C. c #FFF300",
"Z. c #FEFA00",
"A. c #9C8669",
"S. c #A5937D",
"D. c #A49341",
"F. c #C59A55",
"G. c #DFAA54",
"H. c #FEB742",
"J. c #FDBD54",
"K. c #E3AD54",
"L. c #D7B573",
"P. c #E6B567",
"I. c #F3BF68",
"U. c #E5BA75",
"Y. c #FFC566",
"T. c #FDC66A",
"R. c #FFCB75",
"E. c #F8C878",
"W. c #F3C055",
"Q. c #989493",
"!. c #95908F",
"~. c #A49A90",
"^. c #A4998E",
"/. c #B3A89A",
"(. c #B3A78C",
"). c #A8A4A4",
"_. c #C9B08B",
"`. c #D0B68C",
"'. c #ECC98B",
"]. c #F5CC89",
"[. c #FED38A",
"{. c #EDCD9A",
"}. c #ECCB96",
"|. c #FFD99A",
" X c #FCD697",
".X c #DCD0BE",
"XX c #EED5AB",
"oX c #FFDFAB",
"OX c #E0D3BC",
"+X c #FFE4B5",
"@X c #C6C4C2",
"#X c #DCD2C3",
"$X c #DACFC0",
"%X c #E0DFDE",
"&X c #E6DBC9",
"*X c #F4E1C3",
"=X c #FFE8C3",
"-X c #FAE5C3",
";X c #F9EEDD",
":X c #FFF2DC",
">X c #E2E0E0",
",X c #FDF3E3",
"<X c #FDF6EB",
"1X c #FFF8ED",
"2X c #FEFAF3",
"3X c #FFFDFA",
"4X c #F6EDE0",
/* pixels */
"A A A A A A A A A A Z V V N m N D K U U K K D y - .                         + < y D K K K K K K K K K F Z Z A A A A A A A A C V ",
"D D D D D D A A A Z Z V V N m M D K I U K H D y - .                         + < y F K K K K K K K K K F Z Z A A A A A A A A C C ",
"K K K K K H Z V m m N V V N m n m N D H F A 8 < * & $ $ $ $ $ $ $ $ $ $ $ $ & t c J K K H K K K K K K K H F Z Z A A A A C Z H H ",
"K K K K K H Z V m m N V V N m b b M A A B y 1 x p g j j j j j j j j j j j j k i v c S A F F K K K K K K K F Z Z Z A A A Z Z K K ",
"U U K K K K H F Z V V N m m n b b n 7 6 > ; * p l  .X.X.X.X.X.X.X.X.X.X.X.o. .l i t 9 B A F K K K K I I K F Z V C Z A D H H U U ",
"U U K K K K K H Z V V N m b b b b b 6 2 - + $ g | h.M.M.M.M.M.M.M.M.M.M.M.c.h.| k & ; 5 B F K K K K I I H D Z V V C Z A H K U U ",
"U U K K K K K F N m m m n b 6 6 6 6 4 < * & a ~ O.v.B.B.B.B.B.B.B.B.B.B.B.B.j.O.z r % t c S F F H K K F V M V V V V m M H K U U ",
"K K F F F F F D m b b b b b 6 6 3 2 < x p g ~ ..4.k.n.n.n.n.n.n.n.n.n.n.n.n.l.;./ s w e t u y B A D F A M m V V V V m m D F K K ",
"N N M M M M M m m b b b b b 6 3 > - * p l | O.4.5.w.z.z.z.z.z.z.z.z.z.z.z.z.0.=.` Q d f e , ; < 6 m M M N V V V V V N N M M N N ",
"b b b b b b b b b b b b b b 6 2 - + $ g | h.c.k.w.q.8.8.8.8.8.8.8.8.8.8.8.8.9.,.$.` ( d q @ O = 2 6 m m N V V V V V C V m m b b ",
"b b b b b b b b b b b b b b 6 > = . $ j o.j.C.n.z.8.7.7.7.7.7.7.7.7.7.7.7.7.<.>.&.$.) E 0 X . = > 6 M N m m V V V C Z Z N N n b ",
"m m m m m m m m m m m m m m 6 > = . $ j X.j.C.n.z.8.<.<.<.<.<.<.<.<.<.<.<.<.<.>.&.$.) E 0 X . = > 7 N N m m V V V C Z Z V N m m ",
"N N N N N N N N N N N N N M 6 > = . $ j X.j.C.n.z.8.<.<.<.<.<.<.<.<.<.<.<.<.<.>.&.$.) E 0 X . - 3 m V V N N V V V V Z C m m N N ",
"Z Z Z Z V V V V V V V V N N 7 > = . $ j X.j.C.n.z.8.<.<.<.<.<.<.<.<.<.<.<.<.<.>.&.$.) E 0 X . - 4 N C V C V V V V V N N m m Z Z ",
"Z Z Z Z C V V V V V V N m 7 5 1 * & a ~ O.v.N.b.e.8.7.8.8.8.8.8.8.8.8.8.7.7.<.>.:.&.` Q s r % , 1 y N N N V V V V V m m N N Z Z ",
"A A A A Z Z V V V V N m 6 3 1 x p g ~ ..4.k.b.z.q.8.7.8.q.e.z.z.z.z.e.q.8.7.<.1.>.:.#.) E s q e t 1 4 5 M N V V V V m m V C Z Z ",
"A A A A Z Z C V V V N 8 3 : 1 i l | O.4.5.w.e.q.8.8.8.q.z.b.n.n.n.n.b.z.q.8.<.<.1.>.&.] ) Q d f e , ; 3 5 N V V V V N N V V Z Z ",
"A A A A A A Z Z Z Z N 5 : + & g | h.c.k.w.q.8.8.8.7.8.e.b.N.C.C.C.C.N.b.e.8.7.<.<.<.>.&.#.` ( d q % + ; 4 m N N N N N N V V V V ",
"A A A A A A Z Z Z Z N 4 - . $ j X.c.C.n.z.8.<.<.<.7.8.z.n.C.Z.Z.C.C.N.b.e.8.7.<.<.<.<.>.&.$._ E 0 o . - 2 6 m m m m m m V V V V ",
"Z Z A A A A A A A A N 4 ; . $ j X.c.C.n.z.8.<.<.<.7.8.z.n.C.Z.B.V.k.k.w.q.8.7.<.<.<.<.>.&.$._ E 0 o . - > 6 b b b b b m N N V V ",
"Z Z A A A A A A A A B 5 ; . $ j X.c.C.n.z.8.<.<.<.7.8.z.n.C.C.V.k.0.6.6.9.7.<.<.<.<.<.>.&.$._ E 0 o . = > 6 b b b b b n m m V V ",
"V C A A A A A D D D B 5 ; . $ j X.c.C.n.z.8.<.<.7.7.8.z.n.C.C.k.0.=.=.,.1.<.<.<.<.<.<.>.&.$._ E 0 o . = > 6 b b b b b b b n V V ",
"V C A A A A A D F F C 5 ; . $ j X.c.C.n.z.8.7.7.8.8.q.x.n.C.B.k.3.%.$.&.>.<.<.<.<.<.<.>.&.$._ E 0 o . = > 6 b b b b b b b n V V ",
"V C Z Z A A A D G G C 5 ; . $ j X.c.C.n.z.8.7.8.q.e.x.n.N.C.B.k.3.%.$.&.>.<.<.<.<.<.<.>.&.$._ E 0 o . = > 6 b b b b b b m m N N ",
"V V Z Z A A A D D D B 5 ; O $ j X.c.C.n.z.8.8.q.z.b.N.N.C.Z.B.k.3.%.$.&.>.<.<.<.<.<.<.>.&.$._ E 0 o . = > 6 b b b b b m N N m m ",
"V V V C D D D D D D B 5 ; O $ j X.c.C.n.z.8.8.e.b.N.C.C.Z.Z.B.k.3.%.$.&.>.<.<.<.<.<.<.>.&.$._ E 0 o . = > 6 b b b n m m V V m m ",
"V V V Z H K K H H H C 5 ; . $ j X.c.C.n.z.8.8.e.b.N.C.C.Z.Z.B.k.3.%.$.&.>.<.<.<.<.<.<.>.&.$._ E 0 o . - > 6 b b b m N V V V V V ",
"V V Z Z K K K K K H C 8 ; . $ j X.c.C.n.z.8.8.q.z.b.n.N.C.Z.B.k.3.%.$.&.>.<.<.<.<.<.<.>.&.$._ E 0 o . ; 3 6 n b b m N B V V V V ",
"V C H H U U U U K K J y ; . $ j X.c.C.n.z.8.8.8.q.e.x.n.N.C.B.k.3.%.$.&.>.<.<.<.<.<.<.>.&.$._ E 0 o . ; 5 M m b b b m m V V V V ",
"V C H K U U U U K K D y ; . $ j X.c.C.n.z.8.7.8.8.8.q.x.N.C.B.k.3.%.$.&.>.<.<.<.<.<.<.>.&.$._ E 0 o . ; 5 N m m b b b m N V V V ",
"V C H K U U U U K K D y ; . $ j X.c.C.n.z.8.<.<.<.7.8.z.n.C.B.k.3.%.$.&.>.<.<.<.<.<.<.>.&.$._ E 0 o O < 8 N C N m b b b m m V V ",
"V C H K U U U U K K D y ; . $ j X.c.C.n.z.8.<.<.<.7.8.z.n.C.B.k.3.%.$.&.>.<.<.<.<.<.<.>.&.$._ E 0 o O < 8 N Z N m m b b b n V V ",
"V C H K K K K K K K D y - . $ j X.c.C.n.z.8.<.<.<.7.8.z.n.C.B.k.3.%.$.&.>.<.<.<.<.<.<.>.&.$._ E 0 o O : 5 M V V B N m b b b m m ",
"V V F H H H H H H H A 8 - . $ j X.c.C.n.z.8.<.<.<.7.8.z.n.C.B.k.3.%.$.&.>.<.<.<.<.<.<.>.&.$._ E 0 o O : 4 M V V C V m m b b b b ",
"m m m m m m m m m m 7 3 - . $ j X.c.C.n.z.8.<.<.<.7.8.z.n.C.B.k.3.%.$.&.>.<.<.<.<.<.<.2.2.-.' ^ w % . - 4 M V Z Z Z V N m b b b ",
"b b b b b b b n m m 6 2 - . $ j X.c.C.n.z.8.<.<.<.7.8.z.n.C.B.k.3.%.$.&.>.<.<.<.<.<.9.s.g.K.F.[ v % . - 3 m V Z Z Z Z V m m b b ",
"b b b b b b b m N N 8 4 ; . $ j X.c.C.n.z.8.<.<.<.7.8.z.n.C.B.k.3.%.$.&.>.<.<.<.<.<.r.d.I.'.`.A.L , . - > 7 Z Z Z Z Z Z V N n b ",
"m m m m m m m m N V M 5 ; . $ j X.c.C.n.z.8.<.<.<.7.8.z.n.C.B.k.3.%.$.&.>.<.<.<.<.<.t.J.[.-X$X~.P < . - > 7 Z Z Z Z A A Z C m m ",
"N N N N N N N V V Z N 5 : O $ j X.c.C.n.z.8.<.<.<.7.8.z.n.C.B.k.3.%.$.&.>.<.7.9.r.t.H.R.oX,X%X).T < . ; 3 M Z A A A A A A Z N N ",
"Z Z N N N N V V Z Z B y < O $ j X.c.C.n.z.8.<.<.<.7.8.z.n.C.B.k.3.%.$.&.>.<.9.s.d.J.R.|.=X<X%X).Y < . - 4 N Z A A A A A A A Z Z ",
"Z Z m m m m V C Z D A y < O $ j X.c.C.n.z.8.<.<.<.7.8.z.n.C.B.k.3.%.$.&.>.<.r.d.Y.[.oX=X:X2X%X).Y < . - 4 N A A A A A A A D H H ",
"Z Z m b b m N V Z D A y < O $ j X.c.C.n.z.8.<.<.<.7.8.z.n.C.B.k.3.%.$.&.>.<.t.J.[.=X,X1X2X3X%X).Y < . ; 5 B D D D D D D A D H H ",
"m m b b b n m m Z D A y < O $ j X.c.C.n.z.8.<.<.<.<.8.e.x.V.m.l.3.%.$.*.2.y.H.R.oX,X2X1X,X;X$X^.P < . ; y A H H H H H G D A D D ",
"b b b b b b b m Z D A y < O $ j X.c.C.n.z.8.<.<.<.<.8.q.w.k.l.0.=.%.*.p.g.J.R.|.=X1X1X;X*XXX`.A.L , . : y F K K K K K K D D Z Z ",
"b b b b b b b m Z D A y < O $ j X.c.C.n.z.8.<.<.<.<.7.9.6.6.3.=.%.#.-.i.P.].oX=X:X2X,X*X{.U.F.[ v % O < B F U I K K K K H H Z Z ",
"m m b b b n m N Z A C 8 < O $ j X.c.C.n.z.8.<.<.<.<.<.1.,.%.%.%.#.#.-.G.'.-X,X<X2X3X;XXXU.i.' ^ w % O < B G U U K K K K K H C V ",
"N N n b b m V Z Z C 8 4 : O $ j X.c.C.n.z.8.<.<.<.<.<.>.:.&.$.*.-.-.i.U.XX,X2X2X<X,X-X{.P.i.@.^ w % O < B G U U K K K K K H C V ",
"V V m m m M Z Z C V 7 3 ; O $ j X.c.C.n.z.8.<.<.<.<.<.1.>.:.*.p.i.G.U.{.*X<X1X:X=XoX X].U.P.F.[ v % O < B G U U K K K K K H C V ",
"V V N N Z Z Z Z C V 8 3 - . $ j X.c.C.n.z.8.<.<.<.<.<.<.1.>.2.g.P.'.XX*X;X2X<X=X|.R.T.E.].{.`.A.L , O < B F U U K K I I K H C V ",
"V V Z Z A A Z Z C V M 4 - . $ j o.j.C.n.z.8.<.<.<.<.<.<.<.<.y.J.].-X;X<X2X3X:XoXR.d.H.T. X-X.X^.P < O < B F U I K K I I F D V V ",
"V V Z Z A A Z Z C V M 4 : + & g | h.c.k.w.q.8.8.7.7.7.9.r.t.d.R.oX,X3X2X1X,X=X|.Y.f.d.I.{.&X@XQ.U 4 + < N F K K K K K K N N V V ",
"Z Z A A A A A A Z Z N 8 4 : 1 i l | O.4.5.w.e.q.8.8.9.s.d.J.R.|.=X<X2X:X=XoX|.[.R.Y.I.U._./.Q.R F 5 - 3 M A D D D D D A m m V V ",
"Z Z A A A A A A Z Z B M 8 5 t x i g ~ ..4.k.b.z.q.8.r.d.Y.[.oX=X:X2X<X=X|.R.T.R.[.|.}._.S.} U F N 4 2 3 7 m M M M M M M N N V V ",
"A A A A A A A A A A Z B N N c t 1 & a ~ O.v.N.b.e.8.t.J.[.+X:X<X1X3X:XoXR.H.H.T. X-XOX/.} S 5 5 4 6 6 6 6 7 b b b n m m V V V V ",
"A A A A A A A A A Z Z Z Z V N 5 : + $ g | h.c.l.u.u.d.R.oX,X3X2X<X,X-X XY.f.d.I.{.&X@XQ.I < + - 2 6 b b b b b b b m N V V V V V ",
"A A D D A A A A A A A Z Z C N 8 4 : 1 i l | +.a.a.W.R.|.=X<X2X;X*XXX{.].E.T.I.U._./.Q.R F 4 - > 3 6 b b b b b b b m V V V V Z Z ",
"A D H H D A A A A A A A A Z B M 8 5 1 x p k ! D.L.'.oX=X:X2X<X*X{.U.P.U.]. X}._.S.} I D N 4 2 3 6 6 b b b b b b b m V V V C Z Z ",
"A D H H D A A A A A A A A Z Z B N N y 1 1 & x { (.OX:X,X<X2X4XXXU.i.i.P.}.*XOX/.} S 5 5 5 6 6 6 6 6 m m m m m m m m N V V C A A ",
"A A D D A A A A A A A A Z Z Z Z Z Z C 8 < - < I Q.@X>X>X>X%X#X`.F.' @.F.`.#X@XQ.I < - < 8 N V N m m N V V V V V V N m m V C A A ",
"A A A A A A A A A A A Z Z Z Z A A A Z N 5 < 5 F R Q.).).).).~.A.[ ^ ^ [ A.~.!.R D 4 < 5 N Z Z N m m N V V V V V V V m m V Z A A ",
"A A A A A A A A A A Z Z Z A A A A D F D C B y S F U Y Y Y T P L v w w v L P K D C y y N B Z A Z Z N m m N V V V V V V V Z A A A ",
"A A A A A A A A A A Z Z Z A A A D D H H F D B y 5 4 < < < < < , % # # % , < < 5 y N B C Z A A Z Z N m m N V V V V V C Z A A A A ",
"C C A A A A A A A A A A A A A D H K U U K K D y ; .                         + ; 5 B A A A A A A A Z Z N m m N V V C Z A A A A A ",
"V C A A A A A A A A A A A A A D H K U U K K D y ; .                         + ; 5 B A A A A A A A Z Z N m m N V V Z Z A A A A A "
};
