/* XPM */
static char *rcp03222526354117[] = {
/* columns rows colors chars-per-pixel */
"64 64 221 2 ",
"   c #180E0E",
".  c #1E1515",
"X  c #2E1C0C",
"o  c #301D0D",
"O  c #211717",
"+  c #221A1B",
"@  c #2F1F12",
"#  c #372E0D",
"$  c #322113",
"%  c #372E11",
"&  c #362C1B",
"*  c #36271E",
"=  c #3B3314",
"-  c #28201E",
";  c #241D21",
":  c #272124",
">  c #2B2526",
",  c #2C262A",
"<  c #2D292C",
"1  c #362C21",
"2  c #332C2B",
"3  c #3B2D22",
"4  c #3D3628",
"5  c #2E2A30",
"6  c #312D32",
"7  c #363134",
"8  c #3A3535",
"9  c #34323B",
"0  c #3A363C",
"q  c #3D393B",
"w  c #3F3837",
"e  c #56370E",
"r  c #5C3809",
"t  c #57380E",
"y  c #4D3518",
"u  c #4B3317",
"i  c #533918",
"p  c #472F0B",
"a  c #453828",
"s  c #433D3D",
"d  c #443B34",
"f  c #402F21",
"g  c #585216",
"h  c #6D4308",
"j  c #7C4E09",
"k  c #724F08",
"l  c #654211",
"z  c #6F4C1B",
"x  c #6E6809",
"c  c #69620D",
"v  c #6E6816",
"b  c #7A710E",
"n  c #45413E",
"m  c #4C4725",
"M  c #6E682C",
"N  c #373640",
"B  c #383740",
"V  c #3B3A42",
"C  c #403E44",
"Z  c #434246",
"A  c #4A4545",
"S  c #464549",
"D  c #48474A",
"F  c #4C4A4C",
"G  c #4F4847",
"H  c #514F4F",
"J  c #504644",
"K  c #545152",
"L  c #5A5555",
"P  c #5E5857",
"I  c #5E5959",
"U  c #534F51",
"Y  c #615C5B",
"T  c #6E6844",
"R  c #6E685C",
"E  c #7D6D59",
"W  c #676160",
"Q  c #696362",
"!  c #6E6868",
"~  c #6E6867",
"^  c #797575",
"/  c #885405",
"(  c #875406",
")  c #955D05",
"_  c #8F6F08",
"`  c #A86804",
"'  c #B36F02",
"]  c #B47102",
"[  c #BC7502",
"{  c #BA7B04",
"}  c #B57E27",
"|  c #C97D02",
" . c #817976",
".. c #997541",
"X. c #989409",
"o. c #A8A405",
"O. c #A7A305",
"+. c #A8A41B",
"@. c #B2A605",
"#. c #A59305",
"$. c #CE8201",
"%. c #D28300",
"&. c #D38D00",
"*. c #DF8B00",
"=. c #D78703",
"-. c #D79800",
";. c #C19E03",
":. c #E28D00",
">. c #EC9300",
",. c #E79700",
"<. c #F39700",
"1. c #F49800",
"2. c #FD9E00",
"3. c #E39514",
"4. c #DFAE00",
"5. c #D0B203",
"6. c #E7AB00",
"7. c #FFA200",
"8. c #FFAB00",
"9. c #FAA606",
"0. c #E2B700",
"q. c #FDB400",
"w. c #FEBE00",
"e. c #F3BC01",
"r. c #FEA91A",
"t. c #FFB71F",
"y. c #FFB53B",
"u. c #FFB73B",
"i. c #FFAC24",
"p. c #D39A3E",
"a. c #CFCC03",
"s. c #ECCD00",
"d. c #E9C500",
"f. c #FFC300",
"g. c #FECB00",
"h. c #FFC30D",
"j. c #E1DE02",
"k. c #E9D401",
"l. c #FED200",
"z. c #FFDB00",
"x. c #FCDB0A",
"c. c #FFC916",
"v. c #E0DF1F",
"b. c #FFDB15",
"n. c #FDE401",
"m. c #F9ED00",
"M. c #F7E105",
"N. c #FFF300",
"B. c #FEFA00",
"V. c #FFF60D",
"C. c #FFFA1A",
"Z. c #E2E01E",
"A. c #FFC93C",
"S. c #FFDA3C",
"D. c #F5D124",
"F. c #FEF93B",
"G. c #F5E523",
"H. c #A8A441",
"J. c #A8A469",
"K. c #A5937D",
"L. c #FEB741",
"P. c #FFBF53",
"I. c #EEB454",
"U. c #C29E67",
"Y. c #F3BF6A",
"T. c #DFB87A",
"R. c #FFC754",
"E. c #E0DF55",
"W. c #FFF854",
"Q. c #E2E055",
"!. c #FFC666",
"~. c #FFC669",
"^. c #FFCB68",
"/. c #FFCB67",
"(. c #FFCB76",
"). c #FFCC78",
"_. c #FFD978",
"`. c #FFD977",
"'. c #FFD764",
"]. c #FFFA68",
"[. c #FEF967",
"{. c #FFF177",
"}. c #FFE864",
"|. c #989493",
" X c #A8A490",
".X c #B0A594",
"XX c #A8A4A4",
"oX c #A5A1A1",
"OX c #B3B0B0",
"+X c #C9B08B",
"@X c #E0DF8C",
"#X c #FFD287",
"$X c #FFD288",
"%X c #FFDB8B",
"&X c #FFD996",
"*X c #FFDB99",
"=X c #FFD795",
"-X c #EAC993",
";X c #FFE887",
":X c #FFE988",
">X c #FFF68B",
",X c #FFE096",
"<X c #FFE098",
"1X c #FEF595",
"2X c #FFF898",
"3X c #E2E08D",
"4X c #FFDFAB",
"5X c #E0DFBB",
"6X c #FFE8B8",
"7X c #DFD0B8",
"8X c #C7C5C4",
"9X c #DDDCDA",
"0X c #E2DBC3",
"qX c #E0DEDE",
"wX c #FEEAC3",
"eX c #FFF4C3",
"rX c #FEF1DC",
"tX c #E2E0CD",
"yX c #E6E4E4",
"uX c #FEF6E8",
"iX c #FAF8F4",
/* pixels */
"H H H H H H H H H H F S S Z V Z K Y Q Q Y Y K s : .                         O 2 s K Y Y Y Y Y Y Y Y Y L F F H H H H H H H H D S ",
"K K K K K K H H H F F S S Z V C K Y W Q Y I K s : .                         O 2 s L Y Y Y Y Y Y Y Y Y L F F H H H H H H H H D D ",
"Y Y Y Y Y I F S V V Z S S Z V B V Z K I L H q 7 8 7 2 2 2 2 2 1 & % % & 1 2 7 s G L Y Y I Y Y Y Y Y Y Y I L F F H H H H D F I I ",
"Y Y Y Y Y I F S V V Z S S Z V N N C H H G s 8 Z L W ! ! ! ~ R T M v v M T R Q Y L H H H L P Y Y Y Y Y Y Y L F F F H H H F F Y Y ",
"Q Q Y Y Y Y I L F S S Z V V B N N B 0 9 < , 6 K ^ |.XXXXXXXX XJ.H.+.+.H.J. X|.^ Y s w n H P Y Y Y Y W W Y L F S D F H K I I Q Q ",
"Q Q Y Y Y Y Y I F S S Z V N N N N N 9 5 : + 2 W |.8XyXyXyXqX0X3XQ.Z.Z.Q.3X0X8X|.Q 7 > 8 A L Y Y Y Y W W I K F S S D F U I Y Q Q ",
"Q Q Y Y Y Y Y L Z V V V B N 9 9 9 9 9 7 8 8 H  .OXqXiXuXuXrXwX1X[.F.F.[.1XwX7X.XE a & f d H L P P Y Y L S C S S S S V C I Y Q Q ",
"Y Y L L L L L K V N N N N N 9 9 6 5 7 Z L Q  .oX8XyXiXrXwX4X*X:X{.].].{.;X<X-XU...z t i a d s A H K L U C V S S S S V V K L Y Y ",
"Z Z C C C C C V V N N N N N 9 6 < : 7 L ^ |.OX8X9XiXuXwX*X(.^._.;X1X1X;X_.^.I.p.} ) j l y 1 > 6 9 V C C Z S S S S S Z Z C C Z Z ",
"N N N N N N N N N N N N N N 9 5 : + 2 Q |.8XyXyXiXiXuX4X(.u.y.^.*XeXeX*X/.u.r.3.=.[ ` j e @ O : 5 9 V V Z S S S S S D S V V N N ",
"N N N N N N N N N N N N N N 9 < ; . 2 ~ oX9XiXiXuXrXwX&X~.L.u.~.&XwX6X$XP.r.2.>.*.%.' ( r X . ; < 9 C Z V V S S S D F F Z Z B N ",
"V V V V V V V V V V V V V V 9 < ; . 2 ! XX9XiXrXwX4X&X#X).~.!.).#X&X$X!.u.r.2.>.*.%.' / r X . ; < 0 Z Z V V S S S D F F S Z V V ",
"Z Z Z Z Z Z Z Z Z Z Z Z Z C 9 < ; . 2 ! XX9XuXwX*X(.!.).$X=X&X#X(.~.P.u.i.9.2.>.*.%.' / r X . : 6 V S S Z Z S S S S F D V V Z Z ",
"F F F F S S S S S S S S Z Z 0 < ; . 2 ! XX9XuX4X(.L.u.~.*XwXwX&X~.y.r.r.9.7.2.>.*.%.' / r X . : 7 Z D S S S S S S S Z Z V V F F ",
"F F F F D S S S S S S Z V 0 0 8 7 7 J  ..X0XwX*X~.L.u.^.<XeXeX%XR.t.8.8.8.7.2.>.:.=.[ ) h p $ 1 8 s Z Z Z S S S S S V V Z Z F F ",
"H H H H F F S S S S Z V 9 6 0 A K W  .K.+X-X*X$X).~.^._.:X1X>X}.S.c.w.q.8.7.2.<.>.:.$.' / h t y a 8 7 8 C Z S S S S V V S D F F ",
"H H H H F F D S S S Z w 6 > 8 L ^ |..X+XT.Y.~.).$X&X<X:X{.].W.F.G.x.l.f.q.8.2.2.1.>.*.| ' ) j l y 1 > 6 8 Z S S S S Z Z S S F F ",
"H H H H H H F F F F Z 8 , + 7 W |.8X0X-XY.L.u.~.&X6XeX1X].F.C.C.V.N.n.l.w.8.7.2.2.2.>.*.$.[ ` j e $ O > 7 V Z Z Z Z Z Z S S S S ",
"H H H H H H F F F F Z 7 : . 2 R  X0XeX*X^.u.y.!.*XwXeX>XW.C.B.B.N.N.n.l.w.8.7.2.2.2.2.>.*.%.] / r o . : 5 9 V V V V V V S S S S ",
"F F H H H H H H H H Z 7 > . 1 T J.@X2X:X_.^.!.).#X&X%X}.F.C.B.m.M.k.d.e.q.8.7.2.2.2.2.>.*.%.] / r o . : < 9 N N N N N V Z Z S S ",
"F F H H H H H H H H A 8 > . & M H.E.].{.:X*X&X#X).!.R.S.G.V.N.M.s.0.6.6.9.7.2.2.2.2.2.>.*.%.] / r o . ; < 9 N N N N N B V V S S ",
"S D H H H H H K K K A 8 , . % v +.v.F.].1X6XwX&X!.u.t.c.M.N.N.k.0.-.-.,.<.2.2.2.2.2.2.>.*.%.] / r o . ; < 9 N N N N N N N B S S ",
"S D H H H H H K L L G 8 , O % v +.v.F.].2XeXwX%XR.t.q.g.z.N.m.s.4.&.%.*.>.2.2.2.2.2.2.>.*.%.] / r o . ; < 9 N N N N N N N B S S ",
"S D F F H H H K P P G 8 , O & M H.E.].{.;X<X%X'.A.c.g.z.n.N.m.s.4.&.%.*.>.2.2.2.2.2.2.>.*.%.] / r o . ; < 9 N N N N N N V V Z Z ",
"S S F F H H H K K K A 8 > . 1 T J.@X2X;X_.^.R.A.D.x.n.n.N.B.m.s.4.&.%.*.>.2.2.2.2.2.2.>.*.%.] / r o . ; < 9 N N N N N V Z Z V V ",
"S S S D K K K K K K A 8 > . 2 R  X5XeX<X^.u.t.c.x.n.N.N.B.B.m.s.4.&.%.*.>.2.2.2.2.2.2.>.*.%.] / r o . ; < 9 N N N B V V S S V V ",
"S S S F I Y Y I I I G 8 > . 2 R  X0XeX%XR.r.8.w.l.n.N.N.B.B.m.s.4.&.%.*.>.2.2.2.2.2.2.>.*.%.] / r o . : < 9 N N N V Z S S S S S ",
"S S F F Y Y Y Y Y I G w > . 1 T J.@X>X'.A.r.8.q.f.l.z.n.N.B.m.s.4.&.%.*.>.2.2.2.2.2.2.>.*.%.] / r o . > 6 9 B N N V Z A S S S S ",
"S D I I Q Q Q Q Y Y U s > . & M H.E.W.S.c.9.8.8.q.w.g.z.n.N.m.s.4.&.%.*.>.2.2.2.2.2.2.>.*.%.] / r o . > 8 C V N N N V V S S S S ",
"S D I Y Q Q Q Q Y Y K s > . % v +.v.C.b.h.8.7.8.8.8.q.g.n.N.m.s.4.&.%.*.>.2.2.2.2.2.2.>.*.%.] / r o . > 8 Z V V N N N V Z S S S ",
"S D I Y Q Q Q Q Y Y K s > . # x o.j.N.z.f.8.2.2.2.7.8.f.z.N.m.s.4.&.%.*.>.2.2.2.2.2.2.>.*.%.] / r o O 2 w Z D Z V N N N V V S S ",
"S D I Y Q Q Q Q Y Y K s > . # x o.j.N.z.f.8.2.2.2.7.8.f.z.N.m.s.4.&.%.*.>.2.2.2.2.2.2.>.*.%.] / r o O 2 w Z F Z V V N N N B S S ",
"S D I Y Y Y Y Y Y Y K s : . # x o.j.N.z.f.8.2.2.2.7.8.f.z.N.m.s.4.&.%.*.>.2.2.2.2.2.2.>.*.%.] / r o O , 8 C S S S Z V N N N V V ",
"S S L I I I I I I I H w : . # x o.j.N.z.f.8.2.2.2.7.8.f.z.N.m.s.4.&.%.*.>.2.2.2.2.2.2.>.*.%.] / r o O > 7 C S S D S V V N N N N ",
"V V V V V V V V V V 0 6 : . # x o.j.N.z.f.8.2.2.2.7.8.f.z.N.m.s.4.&.%.*.>.2.2.2.2.2.2.>.*.%.] ( r o . : 7 C S F F F S Z V N N N ",
"N N N N N N N B V V 9 5 : . # x o.j.N.z.f.8.2.2.2.7.8.f.z.N.m.s.4.&.%.*.>.2.2.2.2.2.2.>.*.%.] / r o . : 6 V S F F F F S V V N N ",
"N N N N N N N V Z Z q 7 > . # x o.j.N.z.f.8.2.2.2.7.8.f.z.N.m.s.4.&.%.*.>.2.2.2.2.2.2.>.*.%.] / r o . : < 0 F F F F F F S Z B N ",
"V V V V V V V V Z S C 8 > . # x o.j.N.z.f.8.2.2.2.7.8.f.z.N.m.s.4.&.%.*.>.2.2.2.2.2.2.>.*.%.] / r o . : < 0 F F F F H H F D V V ",
"Z Z Z Z Z Z Z S S F Z 8 , O # x o.j.N.z.f.8.2.2.2.7.8.f.z.N.m.s.4.&.%.*.>.2.2.2.2.2.2.>.*.%.] / r o . > 6 C F H H H H H H F Z Z ",
"F F Z Z Z Z S S F F A s 2 O # x o.j.N.z.f.8.2.2.2.7.8.f.z.N.m.s.4.&.%.*.>.2.2.2.2.2.2.>.*.%.] / r o . : 7 Z F H H H H H H H F F ",
"F F V V V V S D F K H s 2 O # x o.j.N.z.f.8.2.2.2.7.8.f.z.N.m.s.4.&.%.*.>.2.2.2.2.2.2.>.*.%.] / r o . : 7 Z H H H H H H H K I I ",
"F F V N N V Z S F K H s 2 O # x o.j.N.z.f.8.2.2.2.7.8.f.z.N.m.s.4.&.%.*.>.2.2.2.2.2.2.>.*.%.] / r o . > 8 A K K K K K K H K I I ",
"V V N N N B V V F K H s 2 O # x o.j.N.z.f.8.2.2.2.7.8.w.g.M.z.d.4.&.%.*.>.2.2.2.2.2.2.>.*.%.] / r o . > s H I I I I I P K H K K ",
"N N N N N N N V F K H s 2 O # x o.j.N.z.f.8.2.2.2.7.8.q.e.d.d.0.-.&.%.*.>.2.2.2.2.2.2.>.*.%.] / r o . , s L Y Y Y Y Y Y L K F F ",
"N N N N N N N V F K H s 2 O # x o.j.N.z.f.8.2.2.2.2.7.9.6.6.4.-.&.$.%.*.>.2.2.2.2.2.2.>.*.%.] / r o O 2 A P Q W Y Y Y Y I I F F ",
"V V N N N B V Z F H D w 2 O # x o.j.N.z.f.8.2.2.2.2.2.<.,.&.&.&.$.$.%.*.>.2.2.2.2.2.2.>.*.%.] / r o O 2 A P Q Q Y Y Y Y Y I D S ",
"Z Z B N N V S F F D q 7 > O # x o.j.N.z.f.8.2.2.2.2.2.>.:.=.%.%.%.%.=.:.>.2.2.2.2.2.2.>.*.%.] / r o O 2 A P Q Q Y Y Y Y Y I D S ",
"S S V V V C F F D S 0 6 > O # x o.j.N.z.f.8.2.2.2.2.2.1.>.:.*.*.*.*.:.>.1.2.2.2.2.2.2.>.*.%.] / r o O 2 A P Q Q Y Y Y Y Y I D S ",
"S S Z Z F F F F D S q 6 : . # x o.j.N.z.f.8.2.2.2.2.2.2.<.>.>.>.>.>.>.<.2.2.2.2.2.2.2.>.*.%.] / r o O 2 A P Q Q Y Y W W Y I D S ",
"S S F F H H F F D S C 7 : . # x O.j.N.z.f.8.2.2.2.2.2.2.2.2.2.2.2.2.2.2.2.2.2.2.2.2.1.>.*.%.] / r o O 2 A P Q W Y Y W W L K S S ",
"S S F F H H F F D S C 7 > + % c X.a.j.s.e.q.8.8.7.7.2.2.2.2.2.2.2.2.2.2.2.2.2.2.2.2.>.*.$.[ ` j e $ O 2 Z L Y Y Y Y Y Y Z Z S S ",
"F F H H H H H H F F Z w 7 > 4 g b X.@.5.0.e.w.q.8.8.2.2.2.2.2.2.2.2.2.2.2.2.2.2.<.>.*.| ' ) j l y * : 6 C H K K K K K U V V S S ",
"F F H H H H H H F F A C w 8 d m g c _ #.5.s.l.f.q.8.2.2.2.2.2.2.2.2.2.2.2.2.2.1.>.:.| ' / h t y f 2 5 6 0 V C C C C C C Z Z S S ",
"H H H H H H H H H H F A Z Z n d 4 = g _ @.k.n.l.w.8.2.2.2.2.2.2.2.2.2.2.2.2.2.>.:.=.[ ) h p $ * 2 6 9 9 9 9 N N N B V V S S S S ",
"H H H H H H H H H H H F F S Z 8 , + % c X.a.j.d.e.9.2.2.2.2.2.2.2.2.2.2.2.2.>.:.$.[ ` j t $ O : 5 9 N N B N N N N V Z S S S S S ",
"H H K K H H H H H H H F F D Z w 7 , 3 g b X.@.;.-.,.>.>.>.>.>.>.>.>.>.>.>.>.*.| ' ) j l y * : < 6 9 N N N N N N N V S S S S F F ",
"H K I I K H H H H H H H H F A C q 8 4 m g c b _ { $.*.*.*.*.*.*.*.*.*.*.*.*.| ' / h e u 3 2 5 6 9 9 N N N N N N N V S S S D F F ",
"H K I I K H H H H H H H H F F A A Z s 4 4 = e k ) [ %.%.%.%.%.%.%.%.%.%.%.%.[ ) h p $ * 2 7 9 9 9 9 V V V V V V V V Z S S D H H ",
"H H K K H H H H H H H H F F F F F F A w 2 - $ t j ` ] ] ] ] ] ] ] ] ] ] ] ] ` j e $ + 2 w Z S Z V V Z S S S S S S Z V V S D H H ",
"H H H H H H H H H H H F F F F H H H G Z 8 2 3 i l j / / / / / / / ( ( / / / j l u 1 2 8 Z F F Z V V Z S S S S S S S V V S F H H ",
"H H H H H H H H H H F F F H H H H K L K G n d a i t r r r r r r r r r r r r e y a 8 w Z A F H F F Z V V Z S S S S S S S F H H H ",
"H H H H H H H H H H F F F H H H K K I I L K A d 3 $ o o o o o o o o o o o o $ * 8 n A G F H H F F Z V V Z S S S S S D F H H H H ",
"D D H H H H H H H H H H H H H K I Y Q Q Y Y K s > .                         O > 8 A H H H H H H H F F Z V V Z S S D F H H H H H ",
"S D H H H H H H H H H H H H H K I Y Q Q Y Y K s > .                         O > 8 A H H H H H H H F F Z V V Z S S F F H H H H H "
};
