/* XPM */
static char *rcp0322395134927[] = {
/* columns rows colors chars-per-pixel */
"64 64 230 2 ",
"   c #180E0E",
".  c #1D1415",
"X  c #1F181A",
"o  c #311E0D",
"O  c #201717",
"+  c #221A1A",
"@  c #221816",
"#  c #362E0C",
"$  c #3A300D",
"%  c #332213",
"&  c #35291B",
"*  c #393213",
"=  c #39311D",
"-  c #241D21",
";  c #272024",
":  c #2C2525",
">  c #2C272C",
",  c #2E292C",
"<  c #3C2D22",
"1  c #332B2B",
"2  c #362B26",
"3  c #3B3421",
"4  c #3A352C",
"5  c #2D2A30",
"6  c #322D33",
"7  c #353134",
"8  c #3B3535",
"9  c #34323B",
"0  c #3A363A",
"q  c #3D3A3C",
"w  c #3F3834",
"e  c #57370E",
"r  c #5B3909",
"t  c #553A0E",
"y  c #4C3318",
"u  c #573B18",
"i  c #462C0D",
"p  c #463927",
"a  c #443E3D",
"s  c #453B35",
"d  c #4C3A28",
"f  c #5B4519",
"g  c #595318",
"h  c #565117",
"j  c #4F4710",
"k  c #6C4309",
"l  c #7D4E09",
"z  c #704507",
"x  c #664311",
"c  c #6A5618",
"v  c #67610E",
"b  c #6E6709",
"n  c #6E6808",
"m  c #7A7411",
"M  c #6E6810",
"N  c #4A4422",
"B  c #4C433B",
"V  c #544C31",
"C  c #674D2C",
"Z  c #6E672C",
"A  c #373640",
"S  c #383741",
"D  c #3B3A42",
"F  c #413F44",
"G  c #434246",
"H  c #494545",
"J  c #464549",
"K  c #48474A",
"L  c #4C4A4C",
"P  c #4F4847",
"I  c #514F4F",
"U  c #504947",
"Y  c #555151",
"T  c #5A5555",
"R  c #5E5959",
"E  c #5D5857",
"W  c #555050",
"Q  c #615C5B",
"!  c #685745",
"~  c #706657",
"^  c #676161",
"/  c #696362",
"(  c #7A7370",
")  c #895505",
"_  c #805608",
"`  c #965D05",
"'  c #8D5E19",
"]  c #817708",
"[  c #8D6715",
"{  c #A86904",
"}  c #B57102",
"|  c #BC7503",
" . c #B07E12",
".. c #8D742A",
"X. c #B57E27",
"o. c #C77C02",
"O. c #967341",
"+. c #81775A",
"@. c #817C67",
"#. c #989409",
"$. c #97930A",
"%. c #AA8E0C",
"&. c #A9A505",
"*. c #B3A705",
"=. c #AEA616",
"-. c #BD8324",
";. c #B2AF29",
":. c #CE8304",
">. c #D18300",
",. c #DF8B00",
"<. c #D7890A",
"1. c #D68E18",
"2. c #E28D01",
"3. c #EC9300",
"4. c #EA9704",
"5. c #FE9F00",
"6. c #F39800",
"7. c #E69715",
"8. c #C9B003",
"9. c #DFB702",
"0. c #D4A203",
"q. c #FFA201",
"w. c #FFAA00",
"e. c #FFA30D",
"r. c #F6AA03",
"t. c #FFB500",
"y. c #F4BF01",
"u. c #FEBE00",
"i. c #F3B601",
"p. c #FFA615",
"a. c #FFAA1D",
"s. c #FBA719",
"d. c #FAB81B",
"f. c #EBA000",
"g. c #DB9623",
"h. c #D79C3C",
"j. c #DAAB37",
"k. c #FFAC23",
"l. c #F4A523",
"z. c #FFB53C",
"x. c #FDB439",
"c. c #ECA93C",
"v. c #C8C605",
"b. c #ECCC03",
"n. c #FFC400",
"m. c #FFCC00",
"M. c #FFC30D",
"N. c #E3D602",
"B. c #FFD300",
"V. c #FFDB00",
"C. c #FFDF0C",
"Z. c #FFD315",
"A. c #E2E102",
"S. c #FEE500",
"D. c #FBED00",
"F. c #FFF204",
"G. c #F5F31A",
"H. c #FFCF36",
"J. c #FEF93C",
"K. c #F5E924",
"L. c #9C8668",
"P. c #A7A367",
"I. c #AC994C",
"U. c #C69B55",
"Y. c #DCA54C",
"T. c #FFB842",
"R. c #FFB741",
"E. c #FEBE54",
"W. c #F2BA55",
"Q. c #E3AD54",
"!. c #CDAB64",
"~. c #E3B569",
"^. c #E6B566",
"/. c #E7BC76",
"(. c #F3BD64",
"). c #C19E67",
"_. c #FFC754",
"`. c #F5EF55",
"'. c #FFC566",
"]. c #FEC669",
"[. c #FFCB69",
"{. c #FFCB75",
"}. c #FECC78",
"|. c #F8C778",
" X c #FFDA6E",
".X c #FFFA75",
"XX c #F9F165",
"oX c #C9C763",
"OX c #989494",
"+X c #A49A8F",
"@X c #AFA58E",
"#X c #B2ADA3",
"$X c #CABAA2",
"%X c #D2B78E",
"&X c #EDC98C",
"*X c #F4CB88",
"=X c #FFD287",
"-X c #FFD289",
";X c #FFDD8B",
":X c #EECD96",
">X c #EBCD9A",
",X c #FDD696",
"<X c #FFD897",
"1X c #FFD99A",
"2X c #FBD698",
"3X c #FBF79A",
"4X c #F9EC8A",
"5X c #D6D1AB",
"6X c #EED5AB",
"7X c #FFDFAB",
"8X c #FFE0AB",
"9X c #FDE6BB",
"0X c #F6F4B1",
"qX c #D3CDC5",
"wX c #E4DBCB",
"eX c #FBE6C2",
"rX c #FFE9C4",
"tX c #F3E1C3",
"yX c #FFF8C3",
"uX c #EAE5DE",
"iX c #F8EDDD",
"pX c #FFF2DC",
"aX c #FEFDDD",
"sX c #FEF5E4",
"dX c #FDF6EA",
"fX c #FFF9ED",
"gX c #FAFAE2",
"hX c #FEFBF4",
"jX c #FFFDF9",
"kX c #F3EEE1",
/* pixels */
"I I I I I I I I I I L J J G D G Y Q / / Q Q Y a ; .                         @ 1 a Y Q Q Q Q Q Q Q Q Q T L L I I I I I I I I K J ",
"Y Y Y Y Y Y I I I L L J J G D F Y Q ^ / Q R Y s ; .                         @ 1 a Y Q Q Q Q Q Q Q Q Q T L L I I I I I I I I K K ",
"Q Q Q Q Q R L J D D G J J G D 9 9 D L Y Y U q 2 = * # # # # # # # # # # # # * p B W Q Q R Q Q Q Q Q Q Q R T L L I I I I K L R R ",
"Q Q Q Q Q R L J D D G J J G D 9 6 6 0 a a s 4 N g v n n n n n n n n n n n n v g V B P I Y E Q Q Q Q Q Q Q T L L L I I I L L Q Q ",
"/ / Q Q Q Q R T L J J G D D 9 6 > ; ; ; ; ; = h m $.&.&.&.&.&.&.&.&.&.&.&.&.$.m g p s H I T Q Q Q Q ^ ^ Q T L J K L I Y R R / / ",
"/ / Q Q Q Q Q R L J J G D A 9 5 ; X . . . . * v #.v.A.A.A.A.A.A.A.A.A.A.A.A.v.#.v * : w H T Q Q Q Q ^ ^ R Y L J J K L I R Q / / ",
"/ / Q Q Q Q Q T G D D 9 9 9 7 2 = * $ $ $ $ j ] *.N.D.D.D.D.D.D.D.D.D.D.D.D.N.*.] t i p B I Y T R Q Q T J F J J J J D F R Q / / ",
"Q Q T T T T T Y D A 9 9 5 5 2 N h v b b b n ] %.8.b.V.V.V.V.V.V.V.V.V.V.V.V.b.0. ._ x f d s a H I Y T I F D J J J J D D Y T Q Q ",
"G G F F F F F D D A 9 6 > ; = h m $.&.&.&.&.*.8.9.y.n.n.n.n.n.n.n.n.n.n.n.n.i.0.:.} ` l u < > 6 9 D F F G J J J J J G G F F G G ",
"A A A A A A A A A A 9 , ; X * v #.v.A.A.A.A.N.b.y.t.w.w.w.w.w.w.w.w.w.w.w.w.r.f.4.2.o.` x % @ ; 5 9 D D G J J J J J K J D D A A ",
"A A A A A A 9 9 9 9 7 2 = * j ] *.N.D.D.D.D.S.B.u.w.q.q.q.q.q.q.q.q.q.q.q.q.q.5.5.5.,.{ l i % & 1 7 q D D D J J J K L L G G A A ",
"D D D D D D D 9 6 5 2 N h v ] %.8.b.V.V.V.V.B.n.t.w.5.5.5.5.5.5.5.5.5.5.5.5.5.5.5.5.3.o.` z e y < 1 7 0 0 D J J J K L L J G D D ",
"G G G G G G D 0 6 : = g m #.*.8.9.y.n.n.n.n.u.t.w.w.5.5.5.5.5.5.5.5.5.5.5.5.5.5.5.q.3.>.} ` l x y 2 : 6 0 F J J J J L K D D G G ",
"L L L L J J F 7 > + * v #.v.N.b.y.t.w.w.w.w.w.w.q.q.5.5.5.5.5.5.5.5.5.5.5.5.5.5.5.5.6.2.>.| { l e % + > 7 F J J J J G G D D L L ",
"L L L L G F q 4 3 * j ] *.N.S.B.u.w.5.5.5.5.5.5.5.5.q.w.w.w.w.w.w.q.5.5.5.5.5.5.5.5.5.4.7.1.-...C d 8 8 q q F G G G D D G G L L ",
"I I L H q 8 4 N g v ] %.8.b.B.n.t.w.5.5.5.5.5.5.5.5.q.w.t.u.u.t.w.q.5.5.5.5.5.5.5.5.e.l.c.Q.!.).L.( ^ T H q 8 q F G D D J K L L ",
"I I L G 8 1 3 g m #.*.8.9.y.u.t.w.w.5.5.5.5.5.5.5.q.w.t.n.B.B.n.t.w.5.5.5.5.5.5.5.5.p.x.(.&X>X$X$X#XOX( T 8 : 7 q G G G J J L L ",
"I I L q 1 + * v #.v.N.b.y.t.w.w.w.q.5.5.5.5.5.5.5.q.w.u.B.S.S.B.u.w.q.5.5.5.5.5.5.5.k.E.-XeXiXuXuXuXqXOX^ 8 + > 7 D G G J J J J ",
"I I H 8 : . $ b &.A.D.V.n.w.5.5.5.5.5.5.5.5.q.q.w.w.t.n.V.S.S.B.u.r.5.5.5.5.q.e.p.a.z.{.7XsXjXhXdXiXqX+X/ 1 . - , 9 D D J J J J ",
"L L H 8 : . $ b &.A.D.V.n.w.5.5.5.5.5.5.5.5.q.w.t.u.n.m.B.B.B.n.r.4.3.6.6.5.e.k.z.E.{.1XrXfXhXiXtX6X%XL.! 2 . - > 9 A D G G J J ",
"L L H 8 : . $ b &.A.D.V.n.w.5.5.5.5.5.5.5.q.w.t.n.B.V.B.m.n.u.r.f.2.2.3.3.5.p.z.'.-X7XrXpXhXdXtX>X/.U.O.C & . - > 9 A A D D J J ",
"J K H 8 : . $ b &.A.D.V.n.w.5.5.5.5.5.5.q.q.w.u.B.S.S.B.n.t.r.4.2.,.,.2.3.5.k.E.-XeXpXsXfXjXiX6X/.Y.-.' f % . - > 9 A A A A J J ",
"J K H 8 : . $ b &.A.D.V.n.w.5.5.5.5.q.q.w.w.t.n.V.S.S.B.u.w.6.3.,.>.>.<.7.s.z.{.7XsXjXhXfXsXeX:X~.h.X.' u % . - > 9 A A A A J J ",
"J K H 8 : . $ b &.A.D.V.n.w.5.5.5.5.q.w.t.u.n.m.B.B.B.n.t.w.6.3.,.>.<.g.c.E.{.1XrXfXfXpXrX7X2X*X/.~.U.O.C & . - > 9 A A D D G G ",
"J J G 7 : . $ b &.A.D.V.n.w.5.5.5.5.w.t.n.B.V.B.m.n.u.t.w.q.6.3.,.>.1.h.^.*X7XrXpXhXsXrX1X{.].|.*X:X%XL.! 2 . - > 9 A D G G D D ",
"J J F 7 : O $ b &.A.D.V.n.w.5.5.5.5.w.u.B.S.S.B.n.t.w.w.w.q.6.3.,.>.g.Q.&XeXpXsXfXjXpX7X{.T.R.].2X9X5X+X~ 1 . - > 9 D D J J D D ",
"J J F 7 1 O $ b &.A.D.V.n.w.5.5.5.5.w.u.B.S.S.V.n.t.w.w.q.q.5.4.7.1.h./.6XsXjXhXfXsXrX<X'.z.z.].2XeXqX+X/ 1 . - > 9 G J J J J J ",
"J J G 8 1 @ $ b &.A.D.V.n.w.5.5.5.5.w.t.n.B.V.B.m.n.u.t.w.w.e.l.c.Q./.>XtXdXfXpXrX7X<X=X}.].].|.*X:X%XL.! 2 . - > 9 G H J J J J ",
"J K I a 1 @ $ b &.A.D.V.n.w.5.5.5.5.q.w.t.u.n.m.B.B.B.n.t.w.p.x.(.&X6XtXiXhXsXrX1X{.].}.-X1X2X*X/.~.U.O.C & . - > 9 D D J J J J ",
"K K Y a 1 @ $ b &.A.D.V.n.w.5.5.5.5.q.w.w.w.t.n.B.S.S.B.u.w.a.E.-XeXiXdXhXjXpX7X{.z.T.].,XrXeX:X~.h.-.' u % . - > 9 A D G J J J ",
"K K Y a 1 @ $ b &.A.D.V.n.w.5.5.5.5.5.5.5.q.w.n.V.F.F.C.Z.d.z.{.7XsXjXhXfXsXrX1X].x.z.'.<XrXeX&XQ.1.} ) r o . ; , 9 A A D D J J ",
"K K Y G 1 @ $ b &.A.D.V.n.w.5.5.5.5.5.5.5.q.w.n.V.F.F.K.H._.{.1XrXdXhXpXrX7X1X-X}.].].}.=X<X*X^.h.1.} ) r o . ; , 9 A A A A J J ",
"K K Y a 1 @ $ b &.A.D.V.n.w.5.5.5.5.5.5.5.q.w.n.V.F.G.J.XX;X7XrXpXhXdXrX1X{.].}.=X<X,X=X}.].W.c.g.<.} ) r o . ; 7 q D A A A D D ",
"J J I a 1 O $ b &.A.D.V.n.w.5.5.5.5.5.5.5.q.w.n.V.F.G.`.4XyXsXdXhXjXsX8X{.z.z.'.<XrXeX<X].z.s.7.<.>.} ) r o . ; 7 D D D A A A A ",
"D D 0 1 - . $ b &.A.D.V.n.w.5.5.5.5.5.5.5.q.w.M.Z.G.J..X0XaXjXhXdXsXeX2X].z.R.].,XrX9X-XE.a.5.3.,.>.} ) r o . : 8 G J G D A A A ",
"A A 9 > - . $ b &.A.D.V.n.w.5.5.5.5.5.5.5.q.e.Z.H.`..X3XyXfXhXiXtX6X:X*X|.'.].}.=X1X-X'.z.p.6.3.,.>.} ) r o . : 8 G L J D D A A ",
"A A 9 > - . $ b &.A.D.V.n.w.5.5.5.5.5.5.5.q.p.H. X4X0XyXaXhXdXtX>X/.~./.*X2X,X=X}.'.E.z.k.e.6.3.,.>.} ) r o . : 7 G L L J G A A ",
"D D 9 , - . $ b &.A.D.V.n.w.5.5.5.5.5.5.5.q.a._.;XyXgXfXhXjXsX6X/.h.h.~.:XeXeX1X].z.a.p.e.q.6.3.,.>.} ) r o . : 7 G I I L K D D ",
"G G q 6 ; . $ b &.A.D.V.n.w.5.5.5.5.q.e.p.k.z.{.8XpXjXfXdXpXeX:X~.h.Y.~.:XeX9X-XE.a.q.q.5.5.6.3.,.>.} ) r o . : 8 H I I I L G G ",
"L L q 6 ; . $ b &.A.D.V.n.w.5.5.5.5.e.k.z.E.{.1XrXdXhXpXrX8X2X*X/.~.~./.*X2X-X'.z.p.q.5.5.5.6.3.,.>.} ) r % . : 8 H I I I I L L ",
"L L 9 , - . $ b &.A.D.V.n.w.5.5.5.5.p.z.'.-X7XrXpXfXfXrX1X{.].|.*X:X:X*X|.].E.z.k.e.5.5.5.5.6.3.,.>.} ) r o . : 8 H I I I Y R R ",
"L L 9 > - . $ b &.A.D.V.n.w.5.5.5.5.a.E.-XeXsXfXhXjXsX7X{.z.x.].2XeXeX2X'.x.a.p.e.q.5.5.5.5.6.3.,.>.} ) r o O , q L Y Y I Y R R ",
"D D 9 > - . $ b &.A.D.V.n.w.q.e.p.k.z.{.7XpXjXfXsXpXrX<X].T.z.].,XeX9X-XE.a.q.q.5.5.5.5.5.5.6.3.,.>.} ) r o O 1 a I R E Y I Y Y ",
"A A 9 > - . $ b &.A.D.V.n.w.e.k.z.E.{.1XrXsXhXpXrX7X<X=X}.].'.}.=X<X-X'.z.p.q.5.5.5.5.5.5.5.6.3.,.>.} ) r o @ 1 a Y Q Q T Y L L ",
"A A 9 > - . $ b &.A.D.V.n.w.p.z.'.-X7XrXpXfXfXrX1X{.'.}.-X,X<X=X}.].E.z.k.e.5.5.5.5.5.5.5.q.5.3.,.>.} ) r o @ 1 a Y Q Q R R L L ",
"D D 9 > - . $ b &.A.D.V.n.w.a.E.-XrXsXfXhXjXsX7X{.T.z.].1XrXrX<X].z.a.p.e.q.5.5.5.5.5.5.5.5.5.3.,.>.} ) r o @ 1 a Y Q Q Q R K J ",
"G G 9 , ; @ * v #.v.N.b.d.d.z.{.7XsXjXhXdXpXrX1X].R.z.].<XeXeX-XE.a.q.5.5.5.5.5.5.5.5.5.5.6.3.,.>.| { l t & : 8 H Y Q Q Q R K J ",
"J J q 7 , : 3 g m #.=.j.j.W.{.1XrXdXhXpXrX8X1X-X}.].].}.-X,X-X'.z.p.5.5.5.5.5.5.5.5.5.6.3.3.,.o.{ ` l x u p 8 H U T Q Q Q R K J ",
"J J F q q 8 4 N g v ..I.!.&X7XrXpXhXdXrX1X}.].}.-X,X<X-X}.].E.z.k.e.5.5.5.5.5.5.5.5.5.3.3.2.>.{ ) k e u d B P I Y R ^ ^ Q R K J ",
"J J K K L H a 4 3 * V +.@XwXpXsXhXjXsX8X{.T.z.].<X9XrX,X'.z.a.p.e.q.5.5.5.5.5.5.5.5.6.3.2.>.| ` k i % < s I E Q R Q ^ ^ T Y J J ",
"J J L L I I H 0 , + 8 ^ OXqXuXuXkXaXyX1X[.z.x.'.1XeXrX-XE.a.5.5.5.5.5.5.5.5.5.5.5.5.3.,.>.| { l e % @ 1 G T Q Q Q Q Q Q G G J J ",
"L L I I I I L F 7 , 8 T ( OX#X5X5X3X3X4X X[.'.}.=X,X-X'.z.p.5.5.5.5.5.5.5.5.5.6.6.3.,.o.{ ` l x y & ; 6 F I Y Y Y Y Y I D D J J ",
"L L I I I I L H a q q H T ^ @.P.oXXXXX.X4X<X<X=X}.'.E.z.k.e.5.5.5.5.5.5.5.5.5.6.3.2.o.{ ) k e y p 1 5 6 0 D F F F F F F G G J J ",
"I I I I I I I L L H G q 8 8 V ..;.K.J.XX3X9XeX,X'.z.a.p.e.q.5.5.5.5.5.5.5.5.6.3.2.>.| ` k i % & 1 6 9 9 9 0 A A A A D D J J J J ",
"I I I I I I I I I I H q , + * v #.v.K.`.:X6XwX&XW.l.6.6.6.6.6.6.6.5.6.6.6.6.3.2.>.| { l e % @ ; 5 9 A A A A A A A D G J J J J J ",
"I I Y Y I I I I I I L a 7 , = g m #.=.I.P.@X@X).h.7.3.3.3.3.3.3.3.3.3.3.3.3.,.o.{ ` l x y & ; > 6 9 A A A A A A A D J J J J L L ",
"I Y R R Y I I I I I L H F 0 4 N h v M Z ! ~ ~ O.X.<.2.2.,.,.,.,.,.,.,.,.,.,.o.{ ) k e y < 1 5 6 9 9 A A A A A A A D J J J K L L ",
"I Y R R Y I I I I I I L L H a 4 3 * * = 3 4 d c [ | >.>.>.>.>.>.>.>.>.>.>.>.| ` k i % & 1 7 9 9 9 9 A D D D D D D D G J J K I I ",
"I I Y Y I I I I I I I I L L H q 1 + . . . @ % e l { } } } } } } } } } } } } { l e % + 1 q G J G D D F G J J J J J G D D J K I I ",
"I I I I I I I I I I I L L L L G 8 1 : : : : < y x l ) ) ) ) ) ) ) ) ) ) ) ) l x y 2 1 8 G L L G D D G G J J J J J J D D J L I I ",
"I I I I I I I I I I L L L I L H G a a a a a s p y e r r r r r r r r r r r r e y p w q G H L I L L G D D G J J J J J J J L I I I ",
"I I I I I I I I I I L L L I I L L L W Y Y I H s < % o o o o o o o o o o o o % & w B H L L I I L L G D D G J J J J J K L I I I I ",
"K K I I I I I I I I I I I I I Y R Q / / Q Q Y a : .                         @ : 8 H I I I I I I I L L G D D G J J K L I I I I I ",
"J K I I I I I I I I I I I I I Y R Q / / Q Q Y a : .                         @ : 8 H I I I I I I I L L G D D G J J L L I I I I I "
};
