/* XPM */
static char *rcp03222962237748[] = {
/* columns rows colors chars-per-pixel */
"64 64 175 2 ",
"   c #180E0E",
".  c #1F1516",
"X  c #2E1C0C",
"o  c #311E0C",
"O  c #201715",
"+  c #221A17",
"@  c #2F1F12",
"#  c #251C19",
"$  c #34210C",
"%  c #352C0C",
"&  c #27201D",
"*  c #29201F",
"=  c #332214",
"-  c #362E13",
";  c #31241D",
":  c #352E1D",
">  c #3A3214",
",  c #37301E",
"<  c #251E21",
"1  c #272023",
"2  c #2A2324",
"3  c #2C272C",
"4  c #2E292E",
"5  c #362920",
"6  c #3A2D22",
"7  c #332C2B",
"8  c #3C3521",
"9  c #3A342D",
"0  c #3D382E",
"q  c #36322A",
"w  c #2E2B32",
"e  c #322D32",
"r  c #353133",
"t  c #3B3535",
"y  c #35333B",
"u  c #3A373C",
"i  c #3C393E",
"p  c #452A0B",
"a  c #4F3C0B",
"s  c #57370E",
"d  c #57380F",
"f  c #5B3809",
"g  c #4A3317",
"h  c #4D3619",
"j  c #4F381A",
"k  c #50381A",
"l  c #633D09",
"z  c #463625",
"x  c #483826",
"c  c #423C2F",
"v  c #403731",
"b  c #453E3D",
"n  c #433D32",
"m  c #50470B",
"M  c #575217",
"N  c #575118",
"B  c #5A5519",
"V  c #6C4207",
"C  c #6C4309",
"Z  c #634B09",
"A  c #7D4F0A",
"S  c #7F5707",
"D  c #654211",
"F  c #684413",
"G  c #685709",
"H  c #66610E",
"J  c #69610D",
"K  c #6E6809",
"L  c #7E6E08",
"P  c #6A6410",
"I  c #7A7512",
"U  c #4A4523",
"Y  c #4A4523",
"T  c #46403F",
"R  c #373640",
"E  c #383740",
"W  c #3C3A43",
"Q  c #403F45",
"!  c #434246",
"~  c #4A4545",
"^  c #464549",
"/  c #48474A",
"(  c #4C4A4C",
")  c #514F4F",
"_  c #55504F",
"`  c #4F4C50",
"'  c #524E51",
"]  c #545152",
"[  c #5A5656",
"{  c #5C5857",
"}  c #5C5758",
"|  c #5E5959",
" . c #625D5C",
".. c #66605F",
"X. c #676160",
"o. c #696362",
"O. c #875406",
"+. c #895505",
"@. c #8D5F06",
"#. c #935B05",
"$. c #9E6306",
"%. c #817807",
"&. c #817708",
"*. c #9E7806",
"=. c #957306",
"-. c #A26504",
";. c #AA6A05",
":. c #B26F02",
">. c #B47102",
",. c #BC7502",
"<. c #BA7F02",
"1. c #C47A01",
"2. c #CC7F00",
"3. c #9D8706",
"4. c #979309",
"5. c #99940A",
"6. c #BD8303",
"7. c #A49606",
"8. c #BD9B03",
"9. c #A9A505",
"0. c #A6A206",
"q. c #B4A905",
"w. c #CE8000",
"e. c #D28300",
"r. c #D88600",
"t. c #D48E00",
"y. c #DE8B00",
"u. c #C89802",
"i. c #D49000",
"p. c #D99200",
"a. c #D89D00",
"s. c #E18C01",
"d. c #E69100",
"f. c #EC9300",
"g. c #EE9900",
"h. c #E39A00",
"j. c #F39700",
"k. c #F39800",
"l. c #F99B00",
"z. c #D8A600",
"x. c #DFAE00",
"c. c #C9B003",
"v. c #DFB000",
"b. c #DDBB02",
"n. c #D0B602",
"m. c #EEA100",
"M. c #E7AB00",
"N. c #FAA400",
"B. c #FFAC00",
"V. c #F3A500",
"C. c #EBB700",
"Z. c #E3B900",
"A. c #E3B200",
"S. c #FAB200",
"D. c #F3BD00",
"F. c #FDBD00",
"G. c #C6C305",
"H. c #D7CC02",
"J. c #DEDC02",
"K. c #DFD302",
"L. c #ECCD00",
"P. c #FFC300",
"I. c #EED300",
"U. c #E1DD02",
"Y. c #E4D702",
"T. c #FAD400",
"R. c #FFDB00",
"E. c #F3D300",
"W. c #E2E002",
"Q. c #F3E100",
"!. c #F8EE00",
"~. c #F8E800",
"^. c #F6F000",
"/. c #FEF300",
"(. c #FBF900",
/* pixels */
") ) ) ) ) ) ) ) ) ) ( ^ ^ ! W ! ]  .o.o. . . .[ ! W W r 1 .         . 2 t ~ ) ] |  . . . . . . . . . .[ ( ( ) ) ) ) ) ) ) ) / ^ ",
"] ] ] ] ] ] ) ) ) ( ( ^ ^ ! W Q ]  .X.o. . . .[ ! W W r 1 .         . 2 t ~ ) ] |  . . . . . . . . . .[ ( ( ) ) ) ) ) ) ) ) / / ",
" . . . . .| ( ^ W W ! ^ ^ ! W E W ! ]  . .[ ! W Q Q b 0 8 > % % % % > 8 c ~ _ [  .o.o.X. . . . . . . . .| [ ( ( ) ) ) ) / ( | | ",
" . . . . .| ( ^ W W ! ^ ^ ! W R R Q ] | | ] Q y u t 0 Y B H K K K K H B Y n ~ ) [ ..o.X. . . . . . . . . .[ ( ( ( ) ) ) ( (  . .",
"o.o. . . . .| [ ( ^ ^ ! W W E R R E W W W W y e e 7 8 B I 4.9.9.9.9.4.I B 8 t b )  .o.o. . . . . . .X.X. .[ ( ^ / ( ) ] | | o.o.",
"o.o. . . . . .| ( ^ ^ ! W R R R R R R E W W y e 3 & - J 5.G.W.W.W.W.G.5.J - 2 t ~  .o.X. . . . . . .X.X.| ] ( ^ ^ / ( ' |  .o.o.",
"o.o. . . . . .[ ! W W W E R R R R R R W ! ! W r 2 # % K 0.J.(.(.^.!.H.7.J % + 2 b [  . . . . . . . . .[ ^ Q ^ ^ ^ ^ W Q |  .o.o.",
" . .[ [ [ [ [ ] W R R R R R R R R E W W ! ^ ! r 2 # % K 9.U.(.!.Q.I.n.3.G $ + 2 i ) [ [ [ [ [ [ [ [ [ ' Q W ^ ^ ^ ^ W W ] [  . .",
"! ! Q Q Q Q Q W W R R R R R R R R W ! ! ^ ^ ! r 2 + % K 9.U.(.Q.L.Z.u.=.Z $ + 1 e i W Q Q Q Q Q Q Q Q Q ! ^ ^ ^ ^ ^ ! ! Q Q ! ! ",
"R R R R R R R R R R R R R R R R R W ! ^ ^ ^ ! r 2 + % K 9.U.^.I.Z.a.<.@.f o + 1 4 y R R R R R R R E W W ! ^ ^ ^ ^ ^ / ^ W W R R ",
"R R R R R R R R R R R R R R R R R E W W ! ^ ! r 2 + % K 9.U.!.L.v.i.>.+.f X + 2 e i W R R R R R R W Q ! W W ^ ^ ^ / ( ( ! ! E R ",
"W W W W W W W W W W W W W W W R R R y W Q ! Q r 2 + % K 9.U.!.L.x.t.>.+.f X + 2 r W W W W W W W W W ! ! W W ^ ^ ^ / ( ( ^ ! W W ",
"! ! ! ! ! ! ! ! ! ! ! ! ! Q W R R R R E W W W r 2 + % K 9.U.!.L.x.t.>.+.f X + 2 r Q ! ! ! ! ! ! ! ! ^ ^ ! ! ^ ^ ^ ^ ( / W W ! ! ",
"( ( ( ( ^ ^ ^ ^ ^ ^ ^ ^ ! ! W W E R R R R W i e 2 # % K 9.U.!.L.x.t.>.+.f X + 2 r ! ^ ^ ^ ^ ^ / ( ( / ^ ^ ^ ^ ^ ^ ^ ! ! W W ( ( ",
"( ( ( ( / ^ ^ ^ ^ ^ ^ ^ W W ! Q W R y y y y r 9 8 > m %.q.Y.~.L.M.p.,.#.V p = 6 t b ! ! ! ~ ^ ( ( ( ( ^ ^ ^ ^ ^ ^ ^ W W ! ! ( ( ",
") ) ) ) ( ( ^ ^ ^ ^ ^ ! W W ! ! W W y y w w 7 U B P &.7.c.L.T.D.M.h.w.;.+.C d k x t t i Q ! ^ ( ( ( ^ ! ^ ^ ^ ^ ^ ^ W W ^ / ( ( ",
") ) ) ) ( ( / ^ ^ ^ ^ ^ ! ! ^ ^ ! Q u e 3 2 : N I 5.q.c.b.D.F.S.V.g.y.1.;.#.A D k 6 7 r i ! ^ / ( ^ W W ! ^ ^ ^ ^ ^ ! ! ^ ^ ( ( ",
") ) ) ) ) ) ( ( ( ( / ^ ^ ^ ^ ^ ^ ! i e 1 # - H 5.G.Y.L.D.S.B.N.N.l.f.y.w.,.-.A d = * 7 u ! ^ ^ ^ ! W W ! ! ! ! ! ! ! ! ^ ^ ^ ^ ",
") ) ) ) ) ) ( ( ( ( ( ^ ^ ^ ^ ^ ^ ^ W e < O % K 9.J./.R.P.B.l.l.l.l.j.f.y.e.:.+.f X + 2 t ! / ^ ^ ^ ! ! W W W W W W W W ^ ^ ^ ^ ",
"( ( ) ) ) ) ) ) ) ) ( ( ( / ^ ^ ^ ^ Q r < O % K 9.J./.R.P.B.l.l.j.f.f.s.r.e.:.+.f X + 2 t ! / ^ ^ ^ ! Q W R R R R R R W ! ! ^ ^ ",
"( ( ) ) ) ) ) ) ) ) ( ( ( ( ( ^ ^ ^ Q r < O % K 9.J./.R.P.B.l.k.f.s.y.r.e.w.:.+.f X + 2 r ! ^ ^ ^ ! W W E R R R R R R E W W ^ ^ ",
"^ / ) ) ) ) ) ] ] ] ] ) ) ( ( ( ( ^ Q e 1 + % K 9.J./.R.P.B.l.f.s.r.e.e.w.w.:.+.f X + 2 r Q ^ ^ ^ ! W R R R R R R R R R R E ^ ^ ",
"^ / ) ) ) ) ) ] [ [ ] ) ) ) ( ( ( ( i 4 1 + % K 9.J./.R.P.B.l.f.y.e.2.2.2.2.:.+.f X + 2 r Q ^ ! W W E R R R R R R R R R R E ^ ^ ",
"^ / ( ( ) ) ) ] { { ] ) ) ) ) ) ( / i 7 1 + % K 9.J./.R.P.B.l.f.y.e.2.2.2.2.:.+.f X + 2 r Q ^ ! W W E R R R R R R R R R W W ! ! ",
"^ ^ ( ( ) ) ) ] ] ] ] ) ) ) ) ( ! W i e 2 + % K 9.J./.R.P.B.l.f.y.e.2.2.2.2.:.+.f X + 2 r W W Q ^ ^ W R R R R R R R R W ! ! W W ",
"^ ^ ^ / ] ] ] ] ] ] ] ) ) ) ) ( Q W W r 2 + % K 9.J./.R.P.B.l.f.y.e.2.2.2.2.:.+.f X + 1 e i W ! ( ( ! W E R R R R E W W ^ ^ W W ",
"^ ^ ^ ( |  . .| | | ] ) ) ( ( / ^ ^ Q r 2 # % K 9.J./.R.P.B.l.f.y.e.2.2.2.2.:.+.f X + 1 4 i ( ( ) ) ( / W R R R R W ! ^ ^ ^ ^ ^ ",
"^ ^ ( (  . . . . .| [ ] ) ( ( ^ ^ ^ ! r 2 # % K 9.J./.R.P.B.l.f.y.e.2.2.2.2.:.+.f X + 2 e W ( ] ] ] ) ( Q W E R R W ! ~ ^ ^ ^ ^ ",
"^ / | | o.o.o.o. . . .[ ( / ^ ^ ^ / ~ t 2 # % K 9.J./.R.P.B.l.f.y.e.2.2.2.2.:.+.f X # 7 b _ | | | [ ] ) ( / W R R R W W ^ ^ ^ ^ ",
"^ / |  .o.o.o.o. . . .} ( / ^ ^ / ( ~ t 2 # % K 9.J./.R.P.B.l.f.y.e.2.2.2.2.:.+.f X # 7 T ]  . . .| [ ] ) ( W W R R R W ! ^ ^ ^ ",
"^ / |  .o.o.o.o. . . .} ( ^ ^ ( ( ( ! r 2 # % K 9.J./.R.P.B.l.f.y.e.2.2.2.2.:.+.f X # 7 ~ [  . . . . .{ ] ( / ! W R R R W W ^ ^ ",
"^ / |  .o.o.o.o. . . .[ ( ^ / ( ( ( ! r 2 # % K 9.J./.R.P.B.l.f.y.e.2.2.2.2.:.+.f X # 7 ~ [  . . . . .| ] ( ( ! W W R R R E ^ ^ ",
"^ / |  . . . . . . . .[ ! W ( ) ) ) ~ t 2 # % K 9.J./.R.P.B.l.f.y.e.2.2.2.2.:.+.f X # 7 ~ [  . . . . .[ ( / ^ ^ ^ ! W R R R W W ",
"^ ^ [ | | | | | | | | ] ! W ( ) ) ) ~ t 2 # % K 9.J./.R.P.B.l.f.y.e.2.2.2.2.:.+.f X # 7 ~ [  . . . .| ] ( ^ ^ ^ / ^ W W R R R R ",
"W W W W W W W W W W W W ! / ( ) ) ) ~ t 2 # % K 9.J./.R.P.B.l.f.y.e.2.2.2.2.:.+.f X # 7 T ]  . . .[ ^ Q ^ ^ ^ ( ( ( ^ ! W R R R ",
"R R R R R R R E W W W W ! ( ( ) ) ) ~ t 2 # % K 9.J./.R.P.B.l.f.y.e.2.2.2.2.:.+.f X # 7 b ) [ { { ] ! W ! ^ ^ ( ( ( ( ^ W W R R ",
"R R R R R R R W ! ! ! ^ ( ) ) ) ) ) ~ t 2 + % K 9.J./.R.P.B.l.f.y.e.2.2.2.2.:.+.f X O 1 e u W W W Q ! ! W W ( ( ( ( ( ( ^ ! E R ",
"W W W W W W W W ! ^ / ( ) ] ] ] ] ] ( t 2 + % K 9.J./.R.P.B.l.f.y.e.2.2.2.2.:.+.f X . < 3 y R E W W ! ! W W ( ( ( ( ) ) ( / W W ",
"! ! ! ! ! ! ! ^ ^ ( ( ] [ | | | | | ] b 7 # % K 9.J./.R.P.B.l.f.y.e.2.2.2.2.:.+.f X . < 3 y R W Q ^ ^ ^ ^ ^ ( ) ) ) ) ) ) ( ! ! ",
"( ( ! ! ! ! ^ ^ ( ( ] [ |  . . . . .] b 7 # % K 9.J./.R.P.B.l.f.y.e.2.2.2.2.:.+.f X . < 3 y W W ! / ^ / ^ ( ( ) ) ) ) ) ) ) ( ( ",
"( ( W W W W ^ / ( ] [ |  . .X.o.o.X.[ b 7 # % K 9.J./.R.P.B.l.f.y.e.2.2.2.2.:.+.f X . < 3 y ! ^ ^ ^ ^ ^ ^ ( ) ) ) ) ) ) ) ] | | ",
"( ( W R R W ! ^ ( ] |  . . .o.o.o.X.[ b 7 # % K 9.J./.R.P.B.l.f.y.e.2.2.2.2.:.+.f X . < 4 u Q ! ^ ^ ^ ( ( ) ] ] ] ] ] ] ) ] | | ",
"W W R R R E W W ( ] |  . . .o.o.o.X.[ b 7 # % K 9.J./.R.P.N.j.d.y.e.2.2.2.2.:.+.f X . < e i W W ! ^ ^ ( [ | | | | | | { ] ) ] ] ",
"R R R R R R R W ( ] |  . . .o.o.o.X.[ b 7 # % K 9.J./.T.D.m.f.s.r.e.2.2.2.2.:.+.f X O < e i W W ! / ( ] |  . . . . . . .] ] ( ( ",
"R R R R R R R W ( ] |  . . .o.o.o.X.[ b 7 # % K 9.J.^.E.C.h.y.r.e.w.2.2.2.2.:.+.f X O 1 4 u ! ! ^ ( ] | ..o.o.X. . . . .| | ( ( ",
"W W R R R E W ! ( ) ] [ |  ...o.o...[ b 7 # % K 9.J.!.I.A.p.e.e.w.2.2.2.2.2.:.+.f X O 1 7 i ! ^ ^ ( [  .o.o.o.o. . . . . .| / ^ ",
"! ! E R R W ^ ( ( / ! / [  . . . . .[ ~ t 2 > P 5.G.K.b.z.i.e.w.w.w.2.1.,.>.$.A s @ # 2 r Q ^ ^ ^ ( [  .o.o.o.o. . . . . .| / ^ ",
"^ ^ W W W Q ( ( / ^ W Q ` ] ] ] ] ] ) ! t 7 8 B I 4.9.8.u.t.r.r.e.w.1.:.-.#.A D g ; 2 4 u ! ^ ^ ^ ( [  .o.o.o.o. . . . . .| / ^ ",
"^ ^ ! ! ( ( ( ( / ^ ! ! ! ! ! ! ! ! Q i y r 9 U M J L *.6.y.d.s.r.e.,.-.O.V s g 6 7 w r i ! ^ ^ ^ ( [  .o.o.o.o. . .X.X. .| / ^ ",
"^ ^ ( ( ) ) ( ( / ^ ^ ^ W W W W W W W u y y r q , > a S >.y.j.d.y.e.>.#.V p = ; 7 e y W ! / / ^ ^ ( ] }  .o.o.X. . .X.X.[ ] ^ ^ ",
"^ ^ ( ( ) ) ( ( / ^ ^ ^ ! ! ! ! ! ! ! Q W W i e 2 + $ C ;.s.l.f.y.e.>.+.f X . < 3 y Q ^ ( ( ( ^ ^ ^ ! ( |  . . . . . . .! ! ^ ^ ",
"( ( ) ) ) ) ) ) ( ( / ^ ^ / ( ( / ^ ! ! W W W r 2 + $ C ;.s.l.f.y.e.>.+.f X . < 4 i ! ( ( ( ( ^ ! Q W W ' ] ] ] ] ] ] ' W W ^ ^ ",
"( ( ) ) ) ) ) ) ( ( ( ^ ^ ( ( ( ( ! W W ! ! Q r 2 + $ C ;.s.l.f.y.e.>.+.f X . < e W ^ ^ ( ( / ! W W E W W Q Q Q Q Q Q Q ! ! ^ ^ ",
") ) ) ) ) ) ) ) ) ) ( ( / ( ( ( ( ! W W ! ^ ! r 2 + $ C ;.y.l.f.y.e.>.+.f X O 1 r ! ^ ^ ^ ^ ! Q W R R R R R R R R E W W ^ ^ ^ ^ ",
") ) ) ) ) ) ) ) ) ) ) ( ( ^ / / ^ ^ ^ ^ ^ ^ ! r 2 + $ C -.r.k.d.y.e.>.+.f X + 2 r ! ^ ^ ^ ! W W E R R R R R E E R W ! ^ ^ ^ ^ ^ ",
") ) ] ] ) ) ) ) ) ) ) ( ( / / ^ ^ ^ ^ ^ ^ ^ ! r 2 + o V $.w.d.s.r.e.>.+.f X + 2 r Q ! ! ! ! W R R R R R R R R E R W ^ ^ ^ ^ ( ( ",
") ] | | ] ) ) ) ) ) ) ) ) ( ( ^ ^ ^ ^ ^ ^ ^ ! r 2 + o l #.1.y.r.e.w.>.+.f X + 2 r W W W W W E R R R R R R R R R R W ^ ^ ^ / ( ( ",
") ] | | ] ) ) ) ) ) ) ) ) ( ( ( ( ( ( ( ( / ! r 2 # o f +.>.w.w.2.2.:.O.f X + 2 r W W W W W W W E E W W W W W W W W ! ^ ^ / ) ) ",
") ) ] ] ) ) ) ) ) ) ) ) ( ( ( ( ( ( ( ( ( ( ( i 7 * = d A -.>.>.>.>.-.A s = # 2 e i / ( ( ( ^ ! W W ! ^ ^ ^ ^ ^ ^ ! W W ^ / ) ) ",
") ) ) ) ) ) ) ) ) ) ) ( ( ( ( ) ) ) ] ] ] ] ( ! t 7 6 k F A +.+.+.+.A D h 5 3 e r W ( ) ) ( ( ! W W ! ^ ^ ^ ^ ^ ^ ^ W W ^ ( ) ) ",
") ) ) ) ) ) ) ) ) ) ( ( ( ) ) ) ) ] {  . .{ ) ~ ! i v x j d f f f f d h z 9 e y ! ( ) ) ) ) ) ( ( ! W W ! ^ ^ ^ ^ ^ ^ ^ ( ) ) ) ",
") ) ) ) ) ) ) ) ) ) ( ( ( ) ) ) ] ] |  . .| ] ( ( ~ T 0 6 = o o o o = 5 9 i y W ( ) ) ) ) ) ) ( ( ! W W ! ^ ^ ^ ^ ^ / ( ) ) ) ) ",
"/ / ) ) ) ) ) ) ) ) ) ) ) ) ) ] |  .o.o. . . .| ( ^ ! r 2 .         . 1 4 y ( ) ) ) ) ) ) ) ) ) ) ( ( ! W W ! ^ ^ / ( ) ) ) ) ) ",
"^ / ) ) ) ) ) ) ) ) ) ) ) ) ) ] |  .o.o. . . .| ( ^ Q r 1 .         . 1 4 y ( ) ) ) ) ) ) ) ) ) ) ( ( ! W W ! ^ ^ ( ( ) ) ) ) ) "
};
