/* XPM */
static char *rcp03222013866887[] = {
/* columns rows colors chars-per-pixel */
"64 64 218 2 ",
"   c #180E0E",
".  c #1D1515",
"X  c #1F171A",
"o  c #321E0D",
"O  c #221A1A",
"+  c #211717",
"@  c #311F12",
"#  c #362E0C",
"$  c #35200D",
"%  c #3A300D",
"&  c #342617",
"*  c #393214",
"=  c #38311D",
"-  c #241E21",
";  c #262024",
":  c #2C2525",
">  c #2C272C",
",  c #2E292D",
"<  c #332B2B",
"1  c #382B22",
"2  c #3A3429",
"3  c #2E2A30",
"4  c #322E33",
"5  c #353134",
"6  c #3B3434",
"7  c #34323B",
"8  c #3A363B",
"9  c #3D3A3C",
"0  c #5B3809",
"q  c #56370E",
"w  c #4C3418",
"e  c #553A18",
"r  c #48300B",
"t  c #453826",
"y  c #443E3D",
"u  c #463C35",
"i  c #585217",
"p  c #504911",
"a  c #6B4309",
"s  c #7C4E09",
"d  c #724F08",
"f  c #664311",
"g  c #6E5615",
"h  c #67610E",
"j  c #6E6709",
"k  c #6E6808",
"l  c #797411",
"z  c #70690E",
"x  c #4D4730",
"c  c #6E672C",
"v  c #373640",
"b  c #3B3A42",
"n  c #383741",
"m  c #413F43",
"M  c #434246",
"N  c #494545",
"B  c #464549",
"V  c #48474A",
"C  c #4C4A4C",
"Z  c #514F4F",
"A  c #544A47",
"S  c #555151",
"D  c #5A5555",
"F  c #5E5959",
"G  c #5E5857",
"H  c #555050",
"J  c #615C5B",
"K  c #736953",
"L  c #676161",
"P  c #6A6463",
"I  c #777271",
"U  c #885505",
"Y  c #955D05",
"T  c #817708",
"R  c #8F6F12",
"E  c #A86804",
"W  c #B57102",
"Q  c #BC7702",
"!  c #B57E27",
"~  c #C87C02",
"^  c #897652",
"/  c #827870",
"(  c #989409",
")  c #97930A",
"_  c #A59306",
"`  c #A9A505",
"'  c #B2A705",
"]  c #AFA615",
"[  c #CF8101",
"{  c #D18300",
"}  c #DF8B00",
"|  c #D68705",
" . c #D1930D",
".. c #E28D00",
"X. c #EC9300",
"o. c #E89602",
"O. c #F29700",
"+. c #FE9E00",
"@. c #F39800",
"#. c #E69715",
"$. c #C9B003",
"%. c #DFB702",
"&. c #FFA301",
"*. c #FFAA00",
"=. c #FFA30D",
"-. c #FAAB07",
";. c #FEB500",
":. c #FEBE01",
">. c #F3BE01",
",. c #FFA615",
"<. c #FFAA1D",
"1. c #FDA917",
"2. c #F8BA1A",
"3. c #EBA000",
"4. c #D99A33",
"5. c #D6B034",
"6. c #FFAC23",
"7. c #F3A523",
"8. c #FFB53B",
"9. c #FFB539",
"0. c #F0AC33",
"q. c #C8C604",
"w. c #ECCC04",
"e. c #FFC300",
"r. c #FFC70C",
"t. c #E3D603",
"y. c #FED201",
"u. c #FFDB00",
"i. c #FFDF0D",
"p. c #FFDD14",
"a. c #FFCA15",
"s. c #E2E102",
"d. c #FEE503",
"f. c #FBEE00",
"g. c #FFF31D",
"h. c #FBF20A",
"j. c #FFC324",
"k. c #FFC33C",
"l. c #FFDB3C",
"z. c #FFDA24",
"x. c #FFE83C",
"c. c #FFFC3B",
"v. c #F7ED22",
"b. c #A59341",
"n. c #A5937D",
"m. c #A9A555",
"M. c #DCA449",
"N. c #FFB842",
"B. c #FEB741",
"V. c #FEBE54",
"C. c #F3BC55",
"Z. c #E4AD53",
"A. c #D4B470",
"S. c #E4B568",
"D. c #F4BF68",
"F. c #E9BD77",
"G. c #C29E67",
"H. c #FFC554",
"J. c #FFF454",
"K. c #FFFA54",
"L. c #F7F647",
"P. c #FEC566",
"I. c #FFC669",
"U. c #FFCB68",
"Y. c #FFDB64",
"T. c #FFCB75",
"R. c #FFCC78",
"E. c #F8C777",
"W. c #FFD977",
"Q. c #FFF867",
"!. c #FFFE74",
"~. c #FFF277",
"^. c #FFE863",
"/. c #989494",
"(. c #B1A795",
"). c #A9A5A4",
"_. c #C9B08A",
"`. c #EDCA8C",
"'. c #F4CB87",
"]. c #FFD287",
"[. c #FFD389",
"{. c #FFDC8A",
"}. c #EDCD98",
"|. c #EFCD96",
" X c #FDD696",
".X c #FFDA97",
"XX c #FFD999",
"oX c #FBD598",
"OX c #FFE887",
"+X c #FFF68A",
"@X c #FFFE9B",
"#X c #FFF796",
"$X c #F5E194",
"%X c #FFDFAB",
"&X c #EFD5AC",
"*X c #FFE0AB",
"=X c #FFFEAB",
"-X c #FCE4BD",
";X c #FFF6BD",
":X c #C9C7C7",
">X c #E4D7C3",
",X c #FBE5C2",
"<X c #FFE8C4",
"1X c #F5E3C5",
"2X c #FFF3C4",
"3X c #FFFFC3",
"4X c #FFF5C8",
"5X c #FAEFDD",
"6X c #FFF2DD",
"7X c #FFFFDD",
"8X c #E2E1D6",
"9X c #E2E1E1",
"0X c #FEF4E3",
"qX c #FFFEE3",
"wX c #FEF7EA",
"eX c #FFFCED",
"rX c #FFFCF3",
"tX c #FFFEFA",
/* pixels */
"Z Z Z Z Z Z Z Z Z Z C B B M b M S J P P J F S y ; .                         + < y S J J J J J J J J J D C C Z Z Z Z Z Z Z Z V B ",
"S S S S S S Z Z Z C C B B M b m S J L P J F S y ; .                         + < y S J J J J J J J J J D C C Z Z Z Z Z Z Z Z V V ",
"J J J J J F C B b b M B B M b 7 7 b C S S Z 9 < = * # # # # # # # # # # # # * t x H G G S S S D F J J J F D C C Z Z Z Z V C F F ",
"J J J J J F C B b b M B B M b 7 4 4 8 y y u 2 p i h k k k k k k k k k k k k h i x x N N x y N A S G J J J D C C C Z Z Z C C J J ",
"P P J J J J F D C B B M b b 7 4 > ; ; ; ; ; = i l ) ` ` ` ` ` ` ` ` ` ` ` ` ) l i t 2 < < < 6 y A G L L J D C B V C Z S F F P P ",
"P P J J J J J F C B B M b v 7 3 ; X . . . . * h ( q.s.s.s.s.s.s.s.s.s.s.s.s.q.( h * O + + + ; 6 N D L L F S C B B V C Z F J P P ",
"P P J J J J J D M b b 7 7 7 5 < = * % % % % p T ' t.f.f.f.f.f.f.f.f.f.f.f.f.t.] R x 6 6 6 6 6 y N Z S Z M m B B B B b m F J P P ",
"J J D D D D D S b v 7 7 4 3 < w i h j j j k T _ $.w.u.u.u.u.u.u.u.u.u.u.u.u.w.5.b.^ P P P P P G Z N y m 8 b B B B B b b S D J J ",
"M M m m m m m b b v 7 4 > ; = i l ) ` ` ` ` ' $.%.>.e.e.e.e.e.e.e.e.e.e.e.e.2.5.A.(.).).).)./.I D 6 : 4 8 m B B B B M M m m M M ",
"v v v v v v v v v v 7 , ; X * h ( q.s.s.s.s.t.w.>.;.*.*.*.*.*.*.*.*.*.*.*.*.6.C.`.>X9X9X9X9X:X/.L 4 + ; 5 m B B B B V B b b v v ",
"v v v v v v 7 7 7 7 5 < = * p T ' t.f.f.f.f.d.y.:.*.&.&.&.&.&.&.&.&.&.=.1.<.N.T.%X0XrXwX0X5X>X(./ A 6 6 8 8 m M M B C C M M v v ",
"b b b b b b b 7 4 3 < x i h T _ $.w.u.u.u.u.y.e.;.*.+.+.+.+.+.+.+.+.=.6.8.V.T.XX<XeXeX6X,X%X}._.n./ L D N 8 6 9 m N C C B M b b ",
"M M M M M M b 8 4 : = i l ( ' $.%.>.e.e.e.e.:.;.*.*.+.+.+.+.+.+.+.+.,.8.P.].%X<X6XrXwX<XXXT.D.F._.(./.I D 6 > 5 9 M C V b b M M ",
"C C C C B B m 6 > O * h ( q.t.w.>.;.*.*.*.*.*.*.&.&.+.+.+.+.+.+.+.+.<.V.].<X0XwXrXtX6X%XT.8.8.D.}.>X:X/.L 6 O > 6 m M M b b C C ",
"C C C C M m 9 2 2 * p T ' t.d.y.:.*.+.+.+.+.+.+.+.+.&.*.*.*.*.-.1.<.8.T.%X0XrXrXwX0X<X.XI.8.8.I. X,X>X(.K t & 1 2 9 8 8 m M C C ",
"Z Z C N 9 6 2 x i h T _ $.w.y.e.;.*.+.+.+.+.+.+.+.+.&.*.;.:.r.j.k.H.T.XX<XwXeX6X<X%XXX].R.I.I.R.]. X`.G.^ g q w t 2 4 5 m M C C ",
"Z Z C M 6 < 2 i l ( ' $.%.>.:.;.*.*.+.+.+.+.+.+.+.&.*.;.e.y.p.l.Y.{.*X<X6XrXwX<XXXT.I.R.].XX.X].R.I.C.4.! R s f w 1 : 4 9 M C C ",
"Z Z C 9 < O * h ( q.t.w.>.;.*.*.*.&.+.+.+.+.+.+.+.&.*.:.y.d.g.J.+X2X6XwXrXtX6X%XT.8.N.I. X<X<X XI.8.<.#.| Q E s q & O > 6 M B B ",
"Z Z N 6 : . % j ` s.f.u.e.*.+.+.+.+.+.+.+.+.&.&.*.*.;.r.p.g.c.!.=XqXtXrXwX0X1XoXI.9.8.I.XX<X,X[.V.<.+.X.} { W U 0 o . ; 5 m B B ",
"C C N 6 : . % j ` s.f.u.e.*.+.+.+.+.+.+.+.+.&.*.;.:.r.z.x.J.!.@X3XeXrX5X1X&X}.'.E.I.I.R.].XX].I.8.,.+.X.} { W U 0 o . - 4 9 B B ",
"C C N 6 : . % j ` s.f.u.e.*.+.+.+.+.+.+.+.&.*.;.e.y.p.x.Q.+X=X3X7XrXwX1X}.F.S.F.'.oX X].R.I.V.8.6.=.@.X.} { W U 0 o . - , 7 B B ",
"B V N 6 : . % j ` s.f.u.e.*.+.+.+.+.+.+.&.&.*.:.y.d.g.J.+X;X7XqXeXrX5X&XF.M.M.S.|.,X-X XI.8.6.,.=.+.@.X.} { W U 0 o . - > 7 B B ",
"B V N 6 : . % j ` s.f.u.e.*.+.+.+.+.&.&.*.*.;.r.p.g.c.!.=XqXtXrXwX0X1X}.S.4.4.S.}.,X-X[.V.<.+.+.+.+.+.X.} { W U 0 o . - > 7 B B ",
"B V N 6 : . % j ` s.f.u.e.*.+.+.+.+.&.*.;.:.r.z.x.J.!.@X3XeXrX6X<X%XoX'.F.S.S.F.'.oX].P.8.,.+.+.+.+.+.X.} { W U 0 o . - , 7 M M ",
"B B M 6 : . % j ` s.f.u.e.*.+.+.+.+.*.;.e.y.p.x.Q.+X=X3X7XrXwX<XXXT.I.E.'.}.|.'.E.I.V.8.6.=.+.+.+.+.+.X.} { W U 0 o . - 4 9 b b ",
"B B m 5 : + % j ` s.f.u.e.*.+.+.+.+.*.:.y.d.g.J.+X;X7XqXeXrX0X*XR.N.B.I.oX,X-XoXI.8.6.,.=.&.+.+.+.+.+.X.} { W U 0 o . - 5 m b b ",
"B B m 5 < + % j ` s.f.u.e.*.+.+.+.+.*.r.p.g.c.!.=XqXtXrXwX0X<X.XI.8.8.I.oX1X-X[.V.<.&.+.+.+.+.+.+.+.+.X.} [ W U 0 o . ; 5 m B B ",
"B B M 6 < + % j ` s.f.u.e.*.+.+.+.+.-.j.l.J.!.@X3XqXrX6X<X%X.X].R.I.I.E.'.|.`.D.8.,.+.+.+.+.+.+.+.+.+.X.} [ W U 0 o . ; 5 m B B ",
"V V Z y < + % j ` s.f.u.e.*.+.+.+.+.1.k.Y.+X=X3X7XeXwX<XXXT.I.R.].XXoX'.F.S.Z.0.7.=.+.+.+.+.+.+.+.+.+.X.} { W U 0 o . - 5 m B B ",
"V V S y < + % j ` s.f.u.e.*.+.+.+.&.<.H.{.;XqXeXrXrX0X*XT.N.8.I..X<X,X|.S.4.#.#.#.+.+.+.+.+.+.+.+.+.+.X.} { W U 0 o . - 5 b B B ",
"V V S y < + % j ` s.f.u.e.*.&.=.,.<.8.T.%X6XtXrXeXqX4X.XU.8.8.I.XX<X,X`.Z. .| } X.+.+.+.+.+.+.+.+.+.+.X.} { W U 0 o . - , 7 B B ",
"V V S M < + % j ` s.f.u.e.*.=.6.8.V.T.XX<XwXrX7X3X=X#XOXW.U.I.R.].XX'.S.4. .{ } X.+.+.+.+.+.+.+.+.+.+.X.} { W U 0 o . - > 7 B B ",
"V V S y < + % j ` s.f.u.e.*.1.8.I.].%X<X6XeXeX3X@X!.Q.~.OX.X.X].R.I.V.0.4.| { } X.+.+.+.+.+.+.+.+.+.@.X.} { W U 0 o . - > 7 b b ",
"B B Z y < + % j ` s.f.u.e.*.<.V.].,X0XwXrXrXqX=X!.L.c.Q.#X4X<X.XI.8.<.#...{ { } X.+.+.+.+.+.+.+.+.+.+.X.} { W U 0 o . - > 7 v v ",
"b b 8 < - . % j ` s.h.i.a.2.8.T.%X6XtXrXwX6X4X#XQ.L.c.Q.#X2X-X].V.<.+.X.} { { } X.+.+.+.+.+.+.+.+.+.@.X.} { W U 0 o . ; , 7 v v ",
"v v 7 > - . % j ` s.h.v.l.H.T.XX<XwXrX6X<X*X.XOX~.Q.Q.~.OX.X[.I.8.,.+.X.} { { } X.+.+.+.+.+.+.+.+.+.+.X.} { W U 0 o . ; , 7 v v ",
"v v 7 > - . % j ` s.g.x.^.{.*X<X6XrXwX<XXXR.U.W.OX#X#XOXW.U.V.8.6.=.+.X.} { { } X.+.+.+.+.+.+.+.+.+.+.X.} { W U 0 o . : 5 9 v v ",
"b b 7 , - . % j ` s.g.K.+X2X0XwXrXtX0X%XT.N.8.U..X2X4X.XU.8.<.,.=.&.+.X.} { { } X.+.+.+.+.+.+.+.+.+.+.X.} { W U 0 o . : 5 m b b ",
"M M 9 4 ; . * z ] v.L.!.=XqXrXeXwX6X<XXXI.N.8.U..X;X;X{.H.6.&.&.+.+.+.X.} { { } X.+.+.+.+.+.+.+.+.+.+.X.} { W U 0 o . : 6 N B M ",
"C C 9 4 ; . = c b.L.!.@X3XeXrX6X<X%XXX].R.I.U.W.OX#X+XY.k.1.+.+.+.+.+.X.} { { } X.+.+.+.+.+.+.+.+.+.+.X.} { W U 0 o . : 6 N C C ",
"C C 7 , - . 1 K m.$X=X3X7XrXwX<XXXT.I.R.]..X.XOX~.Q.J.l.j.-.+.+.+.+.+.X.} { { } X.+.+.+.+.+.+.+.+.+.@.X.} { W U 0 o . : 6 N F F ",
"C C 7 > - . 2 P (.>XqXeXrXtX0X%XT.8.9.I..X<X4X#XQ.c.g.p.r.*.+.+.+.+.+.X.} { { } X.+.+.+.+.+.+.+.+.+.+.X.} { W U 0 $ + , 6 N F F ",
"b b 7 > - . 6 P ).9XrXrXwX6X<XXXI.N.8.I. X-X;X+XJ.g.d.y.:.&.+.+.+.+.@.X...| | ..X.+.+.+.+.+.+.+.+.+.+.X.} { W U 0 o + < 6 N S S ",
"v v 7 > - . 6 P ).9XwX6X<X%X.X].R.I.I.R.]..X{.Y.l.p.y.e.-.@.X.X.X.X.X.........X.O.+.+.+.+.+.+.+.+.+.+.X.} { W U 0 o + < 9 C C C ",
"v v 7 > - . 6 P ).9X0X<XXXT.I.R.]. XXX].R.I.H.k.j.r.:.-.3...} } } } ......X.X.O.+.+.+.+.+.+.+.+.+.+.+.X.} { W U 0 o + < y Z C C ",
"b b 7 > - . 6 P ).9X5X%XT.8.8.I.XX<X<XXXI.8.<.1.-.*.&.@...| { { { { { ..X.@.+.+.+.+.+.+.+.+.+.+.+.+.+.X.} { W U 0 o + < y S V B ",
"M M 7 , ; + 6 L /.:X>X}.D.8.8.I..X<X,X].V.6.+.+.+.+.+.X...| { { { { | ..X.+.+.+.+.+.+.+.+.+.+.+.+.+.O.} [ Q E s q & ; 6 N S V B ",
"B B 8 5 , : 6 D I /.(._.F.D.I.R.]. X[.I.8.,.+.+.+.+.+.@.X...} } } } ..X.@.+.+.+.+.+.+.+.+.+.+.+.O.X.} ~ E Y s f e t 6 y A D V B ",
"B B m 9 9 6 9 N D L / n._.}. X].R.I.V.8.6.=.&.+.+.+.+.+.O.X.X.X.X.X.X.O.+.+.+.+.+.+.+.+.+.+.+.O.X...[ E U a q e t u N Z S G V V ",
"B B V V C N m 9 6 6 A / (.>X,X XI.8.<.,.=.&.+.+.+.+.+.+.+.+.+.+.+.+.+.+.+.+.+.+.+.+.+.+.+.+.+.X...{ Q Y a r & t u A G F S S B V ",
"B B C C Z Z N 8 , O 6 L /.:X>X`.C.2.*.*.*.*.*.*.&.&.+.+.+.+.+.+.+.+.+.+.+.+.+.+.+.+.+.+.+.+.O.} [ Q E s q & ; 6 N S J J M M V V ",
"C C Z Z Z Z C m 6 , 6 D I /.(.A.5.2.e.e.e.e.:.;.*.*.+.+.+.+.+.+.+.+.+.+.+.+.+.+.@.X.X.X.X.X.} ~ E Y s f e 1 < 8 N Z S Z b b B V ",
"C C Z Z Z Z C N y 9 9 N D L ^ b.5.w.u.u.u.u.y.e.;.*.+.+.+.+.+.+.+.+.+.+.+.+.+.@.X.....} } } [ E U a q w t < 4 7 8 b m m M M B B ",
"Z Z Z Z Z Z Z C C N M 9 6 6 x R ] t.f.f.f.f.d.y.:.*.+.+.+.+.+.+.+.+.+.+.+.+.+.X...{ { { { { Q Y a r & & < 4 7 7 7 v b b B B B B ",
"Z Z Z Z Z Z Z Z Z Z V 8 , O * h ( q.s.s.s.s.t.w.>.&.+.+.+.+.+.+.+.+.+.+.+.+.X...[ Q W W W W E s q @ X ; , 7 v v v b M B B B B B ",
"Z Z S S Z Z Z Z Z S C x 6 , = i l ( ` ` ` ` ' $. .o.X.X.X.X.X.X.X.X.X.X.X.X.} ~ E Y U U U U s f w & ; > 4 7 v v v b B B B B C C ",
"Z S F F S Z Z Z Z Z C N m 8 2 x i h j j j k l R Q { ..} } } } } } } } } } } ~ E U a 0 0 0 0 q w 1 < 3 4 7 7 v v v b B B B V C C ",
"Z S F F S Z Z Z Z Z Z C C N y 2 2 * % % % % q d Y Q { { { { { { [ [ { { { { Q Y a r $ o o o & & < 4 7 7 8 b b b b b M B B V Z Z ",
"Z Z S S Z Z Z Z Z Z Z Z C C N 9 < O . . . + & q s E W W W W W W W W W W W W E s q & + . . . O : 3 7 M B B B B B B M b b B V Z Z ",
"Z Z Z Z Z Z Z Z Z Z Z C C C C M 6 < : : : : 1 e f s U U U U U U U U U U U U s f w 1 : : : : , 4 5 8 M B B B B B B B b b B C Z Z ",
"Z Z Z Z Z Z Z Z Z Z C C C Z C N M y y y y y u t e q 0 0 0 0 0 0 0 0 0 0 0 0 q w t 6 6 6 6 8 9 y m m b b M B B B B B B B C Z Z Z ",
"Z Z Z Z Z Z Z Z Z Z C C C Z Z C C C H S S Z N u 1 & o o o o o o o o o o o o & & 6 x N N N V C C V M b b M B B B B B V C Z Z Z Z ",
"V V Z Z Z Z Z Z Z Z Z Z Z Z Z S F J P P J J S y : .                         + : 6 N Z Z Z Z Z Z Z C C M b b M B B V C Z Z Z Z Z ",
"B V Z Z Z Z Z Z Z Z Z Z Z Z Z S F J P P J J S y : .                         + : 6 N Z Z Z Z Z Z Z C C M b b M B B C C Z Z Z Z Z "
};
