/* XPM */
static char *rcp03434197032738[] = {
/* columns rows colors chars-per-pixel */
"35 35 6 1 ",
"  c #161C2E",
". c #AC7A58",
"X c #CEA554",
"o c #E9F044",
"O c #B6B8BD",
"+ c white",
/* pixels */
"+++++++++++++++++++++++++++++++++++",
"+++++++++++++++++++++++++++++++++++",
"+++++++++++++++++++++++++++++++++++",
"+++++++++++++++++++++++++++++++++++",
"+++++++++++++++++++++++++++++++++++",
"+++++++++++++++++++++++++++++++++++",
"+++++++++++++++++++++++++++++++++++",
"+++++++++++++++++++++++++++++++++++",
"+++++++++++++++++++++++++++++++++++",
"+++++++++++++++++++++++++++++++++++",
"+++++++++++++++++++++++++++++++++++",
"+++++++++++++++++++++++++++++++++++",
"+++++++++++++++++++++++++++++++++++",
"+++++++++++++++++++++++++++++++++++",
"+++++++++++++++++++++   +++++++++++",
"+++++++++++++++++++++ Xo+++++++++++",
"++++++++++++++++++   + X ++++++++++",
"+++++++++++++++++ o++Xo +++++++++++",
"++++++++++++++++ oo++o ++++++++++++",
"++++++++++++++  X X.ooX +++++++++++",
"+++++++++++++ o+o  oooX +++++++++++",
"+++++++++++++ oo. o ... +++++++++++",
"+++++++++++++ oo...oo. ++++++++++++",
"+++++++++++++ Xoooooo.. +++++++++++",
"+++++++++++++OXXXXXXX. O+++++++++++",
"+++++++++++++OO  X.   OO+++++++++++",
"++++++++++++++OOOOOOOOO++++++++++++",
"+++++++++++++++++++++++++++++++++++",
"+++++++++++++++++++++++++++++++++++",
"+++++++++++++++++++++++++++++++++++",
"+++++++++++++++++++++++++++++++++++",
"+++++++++++++++++++++++++++++++++++",
"+++++++++++++++++++++++++++++++++++",
"+++++++++++++++++++++++++++++++++++",
"+++++++++++++++++++++++++++++++++++"
};
