/* XPM */
static char *rcp02485142318129[] = {
/* columns rows colors chars-per-pixel */
"64 64 6 1 ",
"  c #222222",
". c #2B2929",
"X c #302C2B",
"o c #3B3332",
"O c #483B3A",
"+ c #775C55",
/* pixels */
"                                                                ",
"                                                                ",
"                                                                ",
"                                                                ",
"    ........................................................    ",
"    ........................................................    ",
"    ........................................................    ",
"    ........................................................    ",
"    ........................................................++++",
"    ........................................................++++",
"    ........................................................++++",
"    ........................................................++++",
"    ooooOOOOOOOO            ....    ....    ....    ....    ++++",
"    ooooOOOOOOOO            ....    ....    ....    ....    ++++",
"    ooooOOOOOOOO            ....    ....    ....    ....    ++++",
"    ooooOOOOOOOO            ....    ....    ....    ....    ++++",
"    ooooOOOOOOOOOOOO                ....            ....    ++++",
"    ooooOOOOOOOOOOOO                ....            ....    ++++",
"    ooooOOOOOOOOOOOO                ....            ....    ++++",
"    ooooOOOOOOOOOOOO                ....            ....    ++++",
"    ooooOOOOOOOOOOOO                        ....            ++++",
"    ooooOOOOOOOOOOOO                        ....            ++++",
"    ooooOOOOOOOOOOOO                        ....            ++++",
"    ooooOOOOOOOOOOOO                        ....            ++++",
"    ooooOOOOOOOOOOOOXXXXoooooooo                                ",
"    ooooOOOOOOOOOOOOXXXXoooooooo                                ",
"    ooooOOOOOOOOOOOOXXXXoooooooo                                ",
"    ooooOOOOOOOOOOOOXXXXoooooooo                                ",
"    ooooOOOOOOOOOOOOXXXXoooooooooooo                        ++++",
"    ooooOOOOOOOOOOOOXXXXoooooooooooo                        ++++",
"    ooooOOOOOOOOOOOOXXXXoooooooooooo                        ++++",
"    ooooOOOOOOOOOOOOXXXXoooooooooooo                        ++++",
"    ooooooooooooooooXXXXoooooooooooo                            ",
"    ooooooooooooooooXXXXoooooooooooo                            ",
"    ooooooooooooooooXXXXoooooooooooo                            ",
"    ooooooooooooooooXXXXoooooooooooo                            ",
"    ooooOOOOOOOOOOOOXXXXoooooooooooo....XXXXXXXX            ++++",
"    ooooOOOOOOOOOOOOXXXXoooooooooooo....XXXXXXXX            ++++",
"    ooooOOOOOOOOOOOOXXXXoooooooooooo....XXXXXXXX            ++++",
"    ooooOOOOOOOOOOOOXXXXoooooooooooo....XXXXXXXX            ++++",
"    ooooOOOOOOOOOOOOXXXXoooooooooooo....XXXXXXXXXXXX        ++++",
"    ooooOOOOOOOOOOOOXXXXoooooooooooo....XXXXXXXXXXXX        ++++",
"    ooooOOOOOOOOOOOOXXXXoooooooooooo....XXXXXXXXXXXX        ++++",
"    ooooOOOOOOOOOOOOXXXXoooooooooooo....XXXXXXXXXXXX        ++++",
"    ooooOOOOOOOOOOOOXXXXoooooooooooo....XXXXXXXXXXXX            ",
"    ooooOOOOOOOOOOOOXXXXoooooooooooo....XXXXXXXXXXXX            ",
"    ooooOOOOOOOOOOOOXXXXoooooooooooo....XXXXXXXXXXXX            ",
"    ooooOOOOOOOOOOOOXXXXoooooooooooo....XXXXXXXXXXXX            ",
"    ooooOOOOOOOOOOOOXXXXXXXXXXXXXXXX....XXXXXXXXXXXX........    ",
"    ooooOOOOOOOOOOOOXXXXXXXXXXXXXXXX....XXXXXXXXXXXX........    ",
"    ooooOOOOOOOOOOOOXXXXXXXXXXXXXXXX....XXXXXXXXXXXX........    ",
"    ooooOOOOOOOOOOOOXXXXXXXXXXXXXXXX....XXXXXXXXXXXX........    ",
"    ooooOOOOOOOOOOOOXXXXoooooooooooo....XXXXXXXXXXXX........++++",
"    ooooOOOOOOOOOOOOXXXXoooooooooooo....XXXXXXXXXXXX........++++",
"    ooooOOOOOOOOOOOOXXXXoooooooooooo....XXXXXXXXXXXX........++++",
"    ooooOOOOOOOOOOOOXXXXoooooooooooo....XXXXXXXXXXXX........++++",
"    ooooOOOOOOOOOOOOXXXXoooooooooooo........................++++",
"    ooooOOOOOOOOOOOOXXXXoooooooooooo........................++++",
"    ooooOOOOOOOOOOOOXXXXoooooooooooo........................++++",
"    ooooOOOOOOOOOOOOXXXXoooooooooooo........................++++",
"++++++++++++++++    ++++    ++++++++++++++++    ++++++++++++++++",
"++++++++++++++++    ++++    ++++++++++++++++    ++++++++++++++++",
"++++++++++++++++    ++++    ++++++++++++++++    ++++++++++++++++",
"++++++++++++++++    ++++    ++++++++++++++++    ++++++++++++++++"
};
