/* XPM */
static char *_d27ccb5913a4999ef6ea62511613535E9lA2PH2SPy2q7e8[] = {
/* columns rows colors chars-per-pixel */
"64 64 7 1 ",
"  c None",
". c #754C60",
"X c #90625D",
"o c #AA7959",
"O c #C49A6C",
"+ c #DCB98A",
"@ c #E8CFA6",
/* pixels */
"........                                                ........",
"........                                                ........",
"........                                                ........",
"........                                                ........",
"OOOOOOOO....                                        ....OOOOOOOO",
"OOOOOOOO....                                        ....OOOOOOOO",
"OOOOOOOO....                                        ....OOOOOOOO",
"OOOOOOOO....                                        ....OOOOOOOO",
"OOOOOOOO....    ................................    ....OOOOOOOO",
"OOOOOOOO....    ................................    ....OOOOOOOO",
"OOOOOOOO....    ................................    ....OOOOOOOO",
"OOOOOOOO....    ................................    ....OOOOOOOO",
"OOOOOOOO........OOOOOOOOOOOOOOOOOOOOOOOOOOOOOOOO........OOOOOOOO",
"OOOOOOOO........OOOOOOOOOOOOOOOOOOOOOOOOOOOOOOOO........OOOOOOOO",
"OOOOOOOO........OOOOOOOOOOOOOOOOOOOOOOOOOOOOOOOO........OOOOOOOO",
"OOOOOOOO........OOOOOOOOOOOOOOOOOOOOOOOOOOOOOOOO........OOOOOOOO",
"++++++++....OOOOXXXXXXXXXXXXXXXXXXXXXXXXXXXXXXXXOOOO....++++++++",
"++++++++....OOOOXXXXXXXXXXXXXXXXXXXXXXXXXXXXXXXXOOOO....++++++++",
"++++++++....OOOOXXXXXXXXXXXXXXXXXXXXXXXXXXXXXXXXOOOO....++++++++",
"++++++++....OOOOXXXXXXXXXXXXXXXXXXXXXXXXXXXXXXXXOOOO....++++++++",
"oooooooo....XXXXXXXXXXXXXXXXXXXXXXXXXXXXXXXXXXXXXXXX....oooooooo",
"oooooooo....XXXXXXXXXXXXXXXXXXXXXXXXXXXXXXXXXXXXXXXX....oooooooo",
"oooooooo....XXXXXXXXXXXXXXXXXXXXXXXXXXXXXXXXXXXXXXXX....oooooooo",
"oooooooo....XXXXXXXXXXXXXXXXXXXXXXXXXXXXXXXXXXXXXXXX....oooooooo",
"oooooooo....XXXXXXXXooooXXXXXXXXXXXXXXXXooooXXXXXXXX....oooooooo",
"oooooooo....XXXXXXXXooooXXXXXXXXXXXXXXXXooooXXXXXXXX....oooooooo",
"oooooooo....XXXXXXXXooooXXXXXXXXXXXXXXXXooooXXXXXXXX....oooooooo",
"oooooooo....XXXXXXXXooooXXXXXXXXXXXXXXXXooooXXXXXXXX....oooooooo",
"XXXXXXXX....XXXXXXXXooooXXXXXXXXXXXXXXXXooooXXXXXXXX....XXXXXXXX",
"XXXXXXXX....XXXXXXXXooooXXXXXXXXXXXXXXXXooooXXXXXXXX....XXXXXXXX",
"XXXXXXXX....XXXXXXXXooooXXXXXXXXXXXXXXXXooooXXXXXXXX....XXXXXXXX",
"XXXXXXXX....XXXXXXXXooooXXXXXXXXXXXXXXXXooooXXXXXXXX....XXXXXXXX",
"oooooooo....XXXXXXXXooooXXXXXXXXXXXXXXXXooooXXXXXXXX....oooooooo",
"oooooooo....XXXXXXXXooooXXXXXXXXXXXXXXXXooooXXXXXXXX....oooooooo",
"oooooooo....XXXXXXXXooooXXXXXXXXXXXXXXXXooooXXXXXXXX....oooooooo",
"oooooooo....XXXXXXXXooooXXXXXXXXXXXXXXXXooooXXXXXXXX....oooooooo",
"oooooooo....XXXXXXXXooooXXXXXXXXXXXXXXXXooooXXXXXXXX....oooooooo",
"oooooooo....XXXXXXXXooooXXXXXXXXXXXXXXXXooooXXXXXXXX....oooooooo",
"oooooooo....XXXXXXXXooooXXXXXXXXXXXXXXXXooooXXXXXXXX....oooooooo",
"oooooooo....XXXXXXXXooooXXXXXXXXXXXXXXXXooooXXXXXXXX....oooooooo",
"oooooooo....XXXXXXXXooooXXXXXXXXXXXXXXXX@@@@@@@@XXXX....oooooooo",
"oooooooo....XXXXXXXXooooXXXXXXXXXXXXXXXX@@@@@@@@XXXX....oooooooo",
"oooooooo....XXXXXXXXooooXXXXXXXXXXXXXXXX@@@@@@@@XXXX....oooooooo",
"oooooooo....XXXXXXXXooooXXXXXXXXXXXXXXXX@@@@@@@@XXXX....oooooooo",
"XXXXXXXX....XXXXXXXXooooXXXXXXXXXXXXXXXXooooXXXXXXXX....XXXXXXXX",
"XXXXXXXX....XXXXXXXXooooXXXXXXXXXXXXXXXXooooXXXXXXXX....XXXXXXXX",
"XXXXXXXX....XXXXXXXXooooXXXXXXXXXXXXXXXXooooXXXXXXXX....XXXXXXXX",
"XXXXXXXX....XXXXXXXXooooXXXXXXXXXXXXXXXXooooXXXXXXXX....XXXXXXXX",
"oooooooo....XXXXXXXXooooXXXXXXXXXXXXXXXXooooXXXXXXXX....oooooooo",
"oooooooo....XXXXXXXXooooXXXXXXXXXXXXXXXXooooXXXXXXXX....oooooooo",
"oooooooo....XXXXXXXXooooXXXXXXXXXXXXXXXXooooXXXXXXXX....oooooooo",
"oooooooo....XXXXXXXXooooXXXXXXXXXXXXXXXXooooXXXXXXXX....oooooooo",
"oooooooo....XXXXXXXXooooXXXXXXXXXXXXXXXXooooXXXXXXXX....oooooooo",
"oooooooo....XXXXXXXXooooXXXXXXXXXXXXXXXXooooXXXXXXXX....oooooooo",
"oooooooo....XXXXXXXXooooXXXXXXXXXXXXXXXXooooXXXXXXXX....oooooooo",
"oooooooo....XXXXXXXXooooXXXXXXXXXXXXXXXXooooXXXXXXXX....oooooooo",
"oooooooo....XXXXXXXXXXXXXXXXXXXXXXXXXXXXXXXXXXXXXXXX....oooooooo",
"oooooooo....XXXXXXXXXXXXXXXXXXXXXXXXXXXXXXXXXXXXXXXX....oooooooo",
"oooooooo....XXXXXXXXXXXXXXXXXXXXXXXXXXXXXXXXXXXXXXXX....oooooooo",
"oooooooo....XXXXXXXXXXXXXXXXXXXXXXXXXXXXXXXXXXXXXXXX....oooooooo",
"................................................................",
"................................................................",
"................................................................",
"................................................................"
};
