/* XPM */
static char *rcp03115570191992[] = {
/* columns rows colors chars-per-pixel */
"64 64 30 1 ",
"  c #363640",
". c #373640",
"X c #383640",
"o c #383740",
"O c #383741",
"+ c #393841",
"@ c #464549",
"# c #474649",
"$ c #484649",
"% c #484749",
"& c #48474A",
"* c #504E4F",
"= c #504F4F",
"- c #514F4F",
"; c #524F4F",
": c #525050",
"> c #5F5A59",
", c #5F5A5A",
"< c #605B5A",
"1 c #605B5B",
"2 c #605C5A",
"3 c #605C5B",
"4 c #615C5B",
"5 c #625D5B",
"6 c #625D5C",
"7 c #686362",
"8 c #696362",
"9 c #6A6463",
"0 c #6B6463",
"q c #6B6564",
/* pixels */
"----------####o.44994444o.##########----444444444441##--------##",
"----------####o.66q94466..##########----444444444441##--------##",
"444444##oo####o.oo4444o.############--4499994444444444%#----#%44",
"444444##..####...o6446o.############--4499994444444444%#----##44",
"99444441####......oooo..##########..##4499994444449944%###--4499",
"99444441####............##########o.##4499994444449944%###--4499",
"99444441............####--####....####.o444444444441..####..4499",
"8811111,..........oo####--####oooo####oo41111111111,oo####oo4188",
"..................##########.o----######............########....",
"..................##########oo----%#####...........o########....",
"....................########--------######.......o##..####--##..",
"....................########--------######.......o##..####--##..",
"##############o.....oo####1144444444--######################.o##",
"##############o.......####4444444444--######################..##",
"----########oo##......o.11999944444444----######--########oo##--",
"----########..##........44999944444444----######--########..##--",
"------############......44999944444444------######..############",
"------############......44999944444444------######..############",
"----------##########....44444444449944-------:######........####",
"----------##########....44444444449944--------######........####",
"##------------######......4444444444##----########............##",
"##------------######......4444444444##----########............##",
"##------44--------..##############oo############..............##",
"##------44--------..##############..############..............%#",
"####------------oo############################oo--..........##.o",
"####------------..###########################%..--..........##..",
"####444444----######--##--####..############..------......######",
"##%#444444----######--##--####.o##########%%o.------oo....######",
"##4499994444%#####------########..####--##44444444----o.....####",
"##4499994444%#####------########o.####--%%64444444----o.....####",
"##4499994444%###--##--------######.....o449999444444--##......##",
"##4499994444%###--##--------######.....o449999444444--##o.....##",
"##4444444444o.------------##--##.......o449999444441######......",
"##4444444444o.------------##--##.......o449999444441######......",
"..oooooooooo##------------------##......o+64444441o+####--##....",
"............##------------------##.......o44444441..####--##....",
"........####--------##------------##......oooooooo##..--##--##..",
"........####--------##------------##.............o##..--##--##..",
"##########--4444444444444444--------##..........######--------##",
"##########--4444444444444444--------##.o......oo######--------#%",
"-:o...##-:44449999444444444444--------##......########--------64",
"--o...##--44449999444444444444--------##......########--------44",
".......o--44449999444444449944--------####..#%..###%44444444----",
".......o--44449999444444449944--------####..#%..###%44444444----",
".......o--44449999444444994441oo----########o.###%449999444444##",
"........-:44449999444444994444..----#######%..###%449999444444##",
"##....--##oo1444444444444441oo##########....#####%449999444444##",
"##....--##..1444444444444441..##########....#####%449999444444##",
"####--######................##########......#####%449999449944##",
"####--######oooooooo..oooooo##########....o.#####%119999449911##",
"##------############..##############......##--####.o44444444..##",
"##------############oo##############....oo##--####.o11111111.o##",
"----------####--##..##########..----....########............####",
"----------####--##..##########..----....########............####",
"------------################.o----oo..########............######",
"------------################.o----o...########............######",
"--44----------##########----------o.######oooo............####--",
"--44----------##########----------o.######................####--",
"------------%#--------------44--o.######..----##..########..##--",
"------------##--------------44--..######..----##.o########..##--",
"----------##------6444--------..######.o:-------##..########:---",
"----------##------4444--------oo######.o--------##oo########----",
"##--------------44q94446############..:-----------##..####------",
"##--------------44994444%###########..------------##..####------"
};
