/* XPM */
static char *xpm_[] = {
/* columns rows colors chars-per-pixel */
"66 66 158 2 ",
"   c #000000",
".  c #0A0503",
"X  c #070806",
"o  c #0D0905",
"O  c #03040B",
"+  c #0A0709",
"@  c #0B0A0A",
"#  c #140D03",
"$  c #190D02",
"%  c #110D0B",
"&  c #1E1104",
"*  c #14120A",
"=  c #18110D",
"-  c #060813",
";  c #0D0D14",
":  c #050A19",
">  c #141413",
",  c #1D1610",
"<  c #1C1915",
"1  c #1B1718",
"2  c #1A1A1A",
"3  c #21150D",
"4  c #231A0B",
"5  c #241B14",
"6  c #261E1B",
"7  c #33200B",
"8  c #3D260C",
"9  c #2E2014",
"0  c #272119",
"q  c #2C241D",
"w  c #2D281E",
"e  c #362512",
"r  c #392412",
"t  c #362A15",
"y  c #3A2B14",
"u  c #35251D",
"i  c #382519",
"p  c #342B1C",
"a  c #3D2C1C",
"s  c #000525",
"d  c #0D1229",
"f  c #121A2F",
"g  c #041336",
"h  c #081436",
"j  c #061538",
"k  c #08193E",
"l  c #101E3E",
"z  c #1C2032",
"x  c #1E2639",
"c  c #2E2622",
"v  c #302220",
"b  c #342C21",
"n  c #3E2E21",
"m  c #3F3225",
"M  c #282931",
"N  c #313131",
"B  c #393535",
"V  c #38323A",
"C  c #462F17",
"Z  c #462F19",
"A  c #43301C",
"S  c #4A341D",
"D  c #553D1E",
"F  c #423222",
"G  c #4D3826",
"H  c #433329",
"J  c #483828",
"K  c #4C3B2A",
"L  c #553C21",
"P  c #583E23",
"I  c #513F2C",
"U  c #4C3C31",
"Y  c #574027",
"T  c #5C4326",
"R  c #55412B",
"E  c #5D452B",
"W  c #4C4539",
"Q  c #574332",
"!  c #5A4432",
"~  c #544438",
"^  c #5E4D3B",
"/  c #5B5037",
"(  c #5C513C",
")  c #624526",
"_  c #644425",
"`  c #654328",
"'  c #614528",
"]  c #624428",
"[  c #61452B",
"{  c #62462A",
"}  c #644429",
"|  c #684628",
" . c #65552F",
".. c #624333",
"X. c #655532",
"o. c #0D1E4B",
"O. c #172956",
"+. c #2B3143",
"@. c #25304D",
"#. c #2A314A",
"$. c #253357",
"%. c #28375C",
"&. c #283C65",
"*. c #273C72",
"=. c #233E7C",
"-. c #3C4453",
";. c #3B476B",
":. c #374A6F",
">. c #274077",
",. c #344973",
"<. c #364A7A",
"1. c #4C4B4C",
"2. c #534F4A",
"3. c #525047",
"4. c #6A5E52",
"5. c #69604F",
"6. c #505C77",
"7. c #6F6D6D",
"8. c #73706F",
"9. c #767676",
"0. c #787676",
"q. c #837D78",
"w. c #938574",
"e. c #978976",
"r. c #96897A",
"t. c #1E4286",
"y. c #234586",
"u. c #2D4B85",
"i. c #264888",
"p. c #264B8F",
"a. c #2B4B8B",
"s. c #274C93",
"d. c #284B93",
"f. c #5C6C8F",
"g. c #5E6C90",
"h. c #888888",
"j. c #939294",
"k. c #949494",
"l. c #ADA397",
"z. c #BAAE9A",
"x. c #AAABA9",
"c. c #BAB0AB",
"v. c #B5B3B3",
"b. c #B4B4B4",
"n. c #C3B7AA",
"m. c #C3C0BF",
"M. c #DCD6D3",
"N. c #DAD9D7",
"B. c #DCDAD9",
"V. c #E7E7E7",
"C. c #E7E8E6",
"Z. c #F1F2F2",
"A. c #F8F3F3",
"S. c #FFFBF3",
"D. c #FFFEF6",
"F. c #FEFEFD",
"G. c #FDFFFF",
"H. c white",
/* pixels */
"                                                                                                                                    ",
"                                                                                                                                    ",
"                                                                                                                                    ",
"                                                                                                                                    ",
"                                                                                    X                                               ",
"                                                      X       O     O         X     X                                               ",
"                                                      2 2 2 2 2 2 2 2 2 2 2 2 2 2 2 @   X                                           ",
"                                                      2 2 2 2 2 2 2 2 2 2 2 2 2 2 2 X   O                                           ",
"                                                > % > 2 2 2 2 2 2 2 2 2 2 2 2 2 2 2 > @ @     X                                     ",
"                                                2 2 2 2 2 2 2 2 2 2 2 2 2 2 2 2 2 2 2 2 2   X X                                     ",
"                                              X 2 2 2 2 2 2 2 2 , < < < < < < < < < 2 5 =     X                                     ",
"                                          @ 2 2 2 2 2 2 2 2 2 4 ] ] ] ] ) ) ) { ] ) ] ] ] ] E q   @ X                               ",
"                                          @ 2 2 2 2 2 2 2 2 2 , ] ] ) ) { ) ) ) ) ) ] ) ) ] ] c   X X                               ",
"                                          X 2 2 2 2 2 2 2 5 9 7 E ) ) ] ) ) ] ) ) ) ) ) ) ] ] q   @ X                               ",
"                                          @ 2 2 2 2 2 2 2 S ] ) ) ) ] ] ) ) ) ) ] ) ] ) ) ] E q   X X                               ",
"                                          @ 2 2 2 < > 2 2 S E ) E ] ] E E _ ) ) ) ) ) ) ] ] ] c   X X                               ",
"                                          @ 2 2 R L J 2 < S ) E c 0 c q q T ) ) ) ] ] ) R q c >                                     ",
"                                          @ 2 < E _ R 2 2 S ) ! 2 2 2 2 = Y } ) ) ) ) ) K 2 2 @   O                                 ",
"                                          @ 2 < E { E 4 5 S ) ^ j.j.7.2 5 K R R ) ) H 9 5 k.k.1.                                    ",
"                                          X 2 2 E ] ) ] ] ) ] ..G.H.v.    X   $ ) T @     H.H.h.                                    ",
"                                          @ 2 2 [ ] ] ] ] ) ) ^ G.G.b.        $ ) T *     H.H.h.  @ O                               ",
"                                          @ 2 < E _ ] ) ] ] _ ^ G.H.b.        $ ) ) @     H.H.h.  X X                               ",
"                                          @ 2 < E ] ) ) ) ] ) ( H.H.b.    O   $ ) ) *     H.H.h.  X X                               ",
"                                          @ > > E ) ) ] ) ) ) ( H.H.m.N N N N J ) ] B N N M.M.8.  X X                               ",
"                                                ! ] _ ] ] ) ) _ ` _ q.H.H.H.H.S.] ` N.H.S.} T v   X X                               ",
"                                                ! _ } ) ) ) ] ) ) ) q.H.H.H.H.D.) ) B.H.D.} ] v   X X                               ",
"                                @ > @ X 2 X     q q u ) ) ) ) E q 9 1.x.x.x.x.z.) ` l.n.n.q q >   O X                               ",
"                                X             O     . ] ) ) ) E O             $ ) ` _ _ J         @ X                               ",
"                                @ . . . . . X . 6 2 6 Y Y T ) E . . . . . . . & ] ` R T H . . . . @ . O                             ",
"                          X X + p L D L L P L L H.H.Z.@ @ A ) ) P P L L L L L D ) E 6 @ 3 L L L P F @ . X                           ",
"                            . O F _ ` ] ] ] ] [ H.H.Z.    Z ) ) _ ] ) T ) ) ) ) } ] 5   = ) ) _ } G X                               ",
"                          @ n F I ` ) ) ) ] ] ] G.H.Z.m H q = 3 3 3 3 3 3 3 3 3 3 = n F F ) ] ) _ Y F F %                           ",
"                          @ E ) _ ) ) ) ) ) ) ] H.H.A.T ..6                         Z ) T ) ) ) ) ) ) ) $ O                         ",
"                          % T ) ) ) ) ) ) T E E H.H.A.P ..5                         Z ] ) ) ) ) ) ) ) ) $         .                 ",
"                O . X U ] ] ) ) ) ) ) ) ) Z . . H.H.H.H.H.w.) E ....E E I V.H.H.H.H.0.X & ) ) ) ) ) ) ) R E R .                     ",
"                X     Q ] ] ) ) ) ) _ ) ) i O   F.H.H.H.H.w._ T ) ) ) ] Y C.H.H.H.H.0.  = ) ) ) ) ) ) ) ) ) T . O                   ",
"                X     Q ) ] ) ) ) ) ] A a 5     F.F.H.H.H.c.r.e.e.e.e.e.w.Z.H.H.H.H.0.  # a Z L ) ) ) _ ] ) E .                     ",
"                X     Q ) ] ) ] ) T E           F.F.H.H.H.H.H.H.H.H.H.H.H.H.H.H.H.H.9.  O O   r ) ) ) ) ] ) E   O                   ",
"                @     Q ) ) ] ) ) ) ]           F.H.H.H.H.H.H.H.H.H.H.H.H.H.H.H.H.H.0.        r ) ] ) ) ] ) E .                     ",
"                .     ! ] ) ) ) ] _ ]           F.H.H.H.H.H.H.H.H.H.H.H.H.H.H.H.H.H.0.        7 ) ] ) E ) ) ] .                     ",
"                X     ! ] ] ) ) ] ) )           F.H.H.H.H.H.H.H.H.H.H.H.H.H.H.H.H.H.9.  O     e ) ) ) ) ] ) ]   O                   ",
"                .     ! ) ] ) ) ] ) {           F.H.H.H.H.H.H.H.H.H.H.H.H.H.H.H.H.H.9.        r ) { ] { } ) ] .                     ",
"                O     Q T ] ) ) E ) )           F.H.H.H.H.H.H.H.H.H.H.H.H.H.H.H.H.H.0.        r ) ] ) ) ] ) E                       ",
"                .     Q ] ) ) ) ] ) )           F.H.H.H.H.H.H.H.H.H.H.H.H.H.H.H.H.H.0.        e ] ] ) ) ] ) ] . O                   ",
"                X     ~ ) ) _ ] ] ) _           F.H.H.H.F.H.H.H.H.H.H.H.H.H.H.H.H.H.0.        r ) T ] _ ] ) E                       ",
"                X     ! ] ] ] ] ) ) ]           F.H.H.H.H.H.H.H.H.H.F.H.H.H.H.F.H.H.0.        e ) ) ) { ] } E .                     ",
"                X     ~ E E E E E E ! .         H.F.F.H.H.H.H.H.H.H.H.H.F.F.H.H.H.F.9.        e ! E E E { E !     .                 ",
"                          O     X         O     t e w u.u.V e i 0.0.5.r u i.u.-.e y @   X     @     X     X                         ",
"                                                r 8 b p.d.B C e 0.0.4.8 u i.d.-.8 8 %   X     @                                     ",
"                                          - j g #.#.$.d.d.%.+.#.f.g.6.#.@.s.d.>.+.+.l h d     +               X                     ",
"                                      O O l d.d.s.d.d.d.s.d.s.d.p.p.s.d.s.s.d.d.d.d.s.d.&.  O .                                     ",
"                                      O O l s.d.s.d.s.d.s.s.s.d.a.a.d.s.s.s.s.s.d.s.s.s.*.O O O                                     ",
"                                .   O *.t.y.d.d.p.s.s.s.s.s.s.i.; - o.d.s.s.s.s.s.s.d.d.s.>.=.z   X                                 ",
"                                O   O u.s.s.d.d.s.s.s.s.s.d.s.<.  X k s.s.s.s.s.s.s.s.s.s.s.s.x   O X                               ",
"                                : s s d.s.s.s.d.s.s.s.s.d.u.,.;.  X f :.<.s.d.s.s.d.d.s.s.s.s.O.s s X                               ",
"                            X   $.p.d.d.s.s.s.s.s.s.s.s.d.z X O         - t.d.s.d.d.d.d.d.d.s.d.d.*.X                               ",
"                            X   %.d.d.d.s.p.s.s.s.s.s.s.d.f             O y.s.s.p.s.p.s.s.s.s.s.d.*.O   O                           ",
"                          @ t t W 2.2.2.2.2.2.2.2.2.1.M M ;             O z x M 3.3.3.3.2.2.2.3.3.W y t o                           ",
"                .       X o X.X.X.X.X.X.X.X.X.X.X.X./     O                   # X. .X.X.X.X.X.X.X.X.X.X.#                           ",
"            X X @ o . . . % X.X.X.X.X.X.X.X.X.X.X.X./                         $ X.X.X.X.X.X.X.X.X.X.X.X.4 o . . . . @ @             ",
"            @   0 X.X.X.X.X. .X.X.X.X.X.X. .X.X.X.X.( O                       $ X.X.X.X.X. . . .X. .X. .X.X. . .X.p                 ",
"            X O 0 X.X.X.X.X.X.X.X.X.X. . . .X.X.X.X.(                         # X. .X. .X.X. .X.X.X.X.X.X.X.X.X.X.b                 ",
"            @   @ c q b q c c c c c c c b c c c c c c                         @ v c c c b c c c c c c c c w c c c 2                 ",
"            X                                                                                                                       ",
"            X                                                                                                                       ",
"                                                                                                                                    "
};
