/* XPM */
static char *rcp02551197033992[] = {
/* columns rows colors chars-per-pixel */
"62 62 220 2 ",
"   c #000000",
".  c #0A0404",
"X  c #0D0D0D",
"o  c #080709",
"O  c #130D0B",
"+  c #1C0C0C",
"@  c #150807",
"#  c #1B120E",
"$  c #0A0A14",
"%  c #14161B",
"&  c #1C1C1C",
"*  c #151415",
"=  c #121013",
"-  c #23180E",
";  c #271A15",
":  c #391B1A",
">  c #2E0D0D",
",  c #2B221A",
"<  c #38251F",
"1  c #111124",
"2  c #1B1B25",
"3  c #181835",
"4  c #1C1B3B",
"5  c #192228",
"6  c #1C2633",
"7  c #2C2A2B",
"8  c #262324",
"9  c #312E2E",
"0  c #3D2020",
"q  c #2A2A36",
"w  c #343234",
"e  c #34333B",
"r  c #3C3A3D",
"t  c #39363B",
"y  c #333130",
"u  c #531919",
"i  c #601C1C",
"p  c #432726",
"a  c #4B2F37",
"s  c #46373B",
"d  c #553638",
"f  c #53352B",
"g  c #692828",
"h  c #652A29",
"j  c #722C2A",
"k  c #7B2828",
"l  c #653637",
"z  c #743A3B",
"x  c #682C3A",
"c  c #61251F",
"v  c #684537",
"b  c #774F3E",
"n  c #734A37",
"m  c #7D5734",
"M  c #6E4729",
"N  c #1F1F42",
"B  c #23244A",
"V  c #322B47",
"C  c #373640",
"Z  c #383740",
"A  c #3C3A42",
"S  c #38344C",
"D  c #2D2D5F",
"F  c #2A3C48",
"G  c #32326C",
"H  c #333D64",
"J  c #383877",
"K  c #383878",
"L  c #363673",
"P  c #413E43",
"I  c #483641",
"U  c #573C41",
"Y  c #4E3F57",
"T  c #6B3E40",
"R  c #713F46",
"E  c #793858",
"W  c #6D3453",
"Q  c #443C75",
"!  c #453F78",
"~  c #314655",
"^  c #394B69",
"/  c #444245",
"(  c #474649",
")  c #494649",
"_  c #4D4B4C",
"`  c #4B4345",
"'  c #514F4F",
"]  c #574848",
"[  c #514C51",
"{  c #535151",
"}  c #5A5555",
"|  c #5D5959",
" . c #5C5857",
".. c #41405E",
"X. c #634243",
"o. c #6C4A4A",
"O. c #734242",
"+. c #794040",
"@. c #764C4A",
"#. c #615C5B",
"$. c #645756",
"%. c #7B5346",
"&. c #66605F",
"*. c #4C4377",
"=. c #494C6D",
"-. c #48667B",
";. c #6A6463",
":. c #716574",
">. c #6E5770",
",. c #862B2B",
"<. c #8B3B2B",
"1. c #873B3B",
"2. c #953231",
"3. c #AC3636",
"4. c #B6393C",
"5. c #B33536",
"6. c #C13938",
"7. c #C93F3B",
"8. c #8A4F36",
"9. c #B14738",
"0. c #A4733F",
"q. c #D94D3F",
"w. c #D3483E",
"e. c #CC463C",
"r. c #86384F",
"t. c #BF3E40",
"y. c #834946",
"u. c #854C47",
"i. c #8B564C",
"p. c #995D52",
"a. c #92594E",
"s. c #BF4143",
"d. c #BB4447",
"f. c #BD4E54",
"g. c #996D58",
"h. c #A87840",
"j. c #AC6B5A",
"k. c #A26355",
"l. c #A57A5D",
"z. c #B3755D",
"x. c #B16F5C",
"c. c #975C67",
"v. c #BC5962",
"b. c #8A6675",
"n. c #986D73",
"m. c #8F757B",
"M. c #B96D6D",
"N. c #DC5040",
"B. c #CD5654",
"V. c #E25542",
"C. c #E55F44",
"Z. c #EB5D45",
"A. c #D6635C",
"S. c #F46547",
"D. c #F86848",
"F. c #F66748",
"G. c #E9614B",
"H. c #C86469",
"J. c #C37E65",
"K. c #C76970",
"L. c #F47D67",
"P. c #BC8272",
"I. c #B38168",
"U. c #BF805D",
"Y. c #C28165",
"T. c #CC866A",
"R. c #C98969",
"E. c #D58E6E",
"W. c #D89070",
"Q. c #DF9E7B",
"!. c #CA8D75",
"~. c #D8A77E",
"^. c #CEA07D",
"/. c #E4A37C",
"(. c #D1916D",
"). c #434C85",
"_. c #57578F",
"`. c #5E5A8D",
"'. c #4C5E91",
"]. c #595990",
"[. c #4A5D8C",
"{. c #506A8E",
"}. c #6E6E82",
"|. c #5C6796",
" X c #8D7982",
".X c #B37987",
"XX c #5C839D",
"oX c #5F83A6",
"OX c #6189A8",
"+X c #658CB2",
"@X c #6793B3",
"#X c #70A0C0",
"$X c #82828B",
"%X c #A58585",
"&X c #B7889D",
"*X c #8F89B0",
"=X c #B492AA",
"-X c #B39BB5",
";X c #B2A1BC",
":X c #F29687",
">X c #EAB389",
",X c #F3B98C",
"<X c #F4BD90",
"1X c #E7AA81",
"2X c #D8AEA0",
"3X c #F8C090",
"4X c #B2A6C3",
"5X c #B0B0D0",
"6X c #DDB8C3",
"7X c #DAB9C6",
"8X c #CBBBCF",
"9X c #D6C3D4",
"0X c #E1C7D4",
"qX c #E6C6CF",
"wX c #D9D8EB",
"eX c #C9C9E2",
"rX c #E8D9E4",
"tX c #E8E8F8",
"yX c #E6E6F6",
"uX c #E9E0ED",
/* pixels */
"' ' ' ' ' ' ' ' ' _ ( ( ( P a g g g g g g g g g g g g g g g g g g g g g g g g g g g g g g g g X.#.#.[ ( _ { { { ' ' ' ' ( ( ",
"{ { { { { { ' ' ' _ ( ( ( P a g g g g g g g g g g g g g g g g g g g g g g g g g g g g g g g g X.#.#.[ ( _ { ' { ' ' ' ' ( ( ",
"#.#.#.#.#.| ( / C A ( ` ` P a g g g j j j j j j j j j j j j j j j j j j j j j j j j j j g g g X.$.$.$.#._ ( _ ' ' ' ( ( #.#.",
"#.#.#.#.#.| ) ( Z A d h h h ,.5.5.5.e.C.C.C.C.C.C.C.C.C.C.C.C.C.C.C.C.C.C.C.C.C.C.C.C.e.5.5.5.2.h h h X.' ( _ ' ' ' _ ) #.#.",
";.;.#.#.#.#.#. .( ` d g g g 2.6.6.6.q.S.D.D.D.D.D.D.D.D.D.D.D.D.D.D.D.D.D.D.D.D.D.D.F.N.6.6.6.2.g g g X.' ( ( ( _ ' #.#.;.;.",
";.;.#.#.#.#.#. .( / d g g g 2.6.6.6.N.F.D.D.D.D.D.D.D.D.D.D.D.D.D.D.D.D.D.D.D.D.D.D.F.N.6.6.6.2.g g g l _ ( ( ( _ _ | #.;.;.",
";.;.#.#.#.#.#.} C t a g g g 2.V.V.V.Z.F.D.D.D.D.D.D.D.D.D.D.D.D.D.D.D.D.D.D.D.D.D.D.F.Z.V.V.V.3.g g g a / ( ( ( Z C | #.;.;.",
"| |  . . . . .[ C t a g g g 9.D.D.D.D.D.D.D.D.D.D.D.D.D.D.D.D.D.D.D.D.D.D.D.D.D.D.D.D.D.D.D.D.9.g g g a / ( ( ( A Z {  .| | ",
"C C C C C C C C C t a g g g 9.D.D.D.D.D.D.D.D.D.D.D.D.D.D.D.D.D.D.D.D.D.D.D.D.D.D.D.D.D.D.D.D.9.g g g d ` ( ( ( ( ( Z Z C C ",
"C C C C C t s a a a l ,.,.,.9.D.D.D.D.D.D.D.D.D.D.D.D.D.D.D.D.D.D.D.D.D.D.D.D.D.D.D.D.D.D.D.D.9.,.,.,.l d d d ` ` ) A A C C ",
"C C C C C t f g g g 2.6.6.6.q.D.D.D.D.D.D.D.D.D.D.D.D.D.D.D.D.D.D.D.D.D.D.D.D.D.D.D.D.D.D.D.D.N.6.6.6.2.g g g d ' ' ) ( Z C ",
"A A A A A P d g g g 2.6.6.6.q.D.D.D.D.D.D.D.D.D.D.D.D.D.D.D.D.D.D.D.D.D.D.D.D.D.D.D.D.D.D.D.D.N.6.6.6.2.g g g d _ _ / / A A ",
"( ( ( ( ( / p : : u k 6.6.4.e.V.V.V.Z.F.D.D.D.D.D.D.D.D.D.D.D.D.D.D.D.D.D.D.D.D.D.D.F.Z.V.V.V.w.6.6.6.k u : : p / ( Z C ( ( ",
"_ _ _ _ ( / &     . u 6.6.6.6.6.6.6.q.S.D.D.D.D.D.D.D.D.D.D.D.D.D.D.D.D.D.D.D.D.D.D.F.N.6.6.6.6.6.6.6.i .     % r P A A _ _ ",
"' ' ' ' ( / &     . u 6.6.6.6.6.6.6.q.S.D.D.D.D.D.D.D.D.D.D.D.D.D.D.D.D.D.D.D.D.D.D.F.N.6.6.6.6.6.6.6.i .     % e C ( ( ' ' ",
"' ' ' ' _ / &     . u 6.6.6.6.6.6.6.w.V.V.V.V.V.V.V.G.:X:X:X:X:X:X:X:XG.V.V.V.V.V.V.V.w.6.6.6.6.6.6.6.i .     % r A ( ( _ _ ",
"' ' ' ' ' ) &     . u 6.6.6.6.6.6.6.6.6.6.6.6.6.6.6.B.qXrXrXrXrXrXrX0XB.6.6.6.7.7.6.6.6.6.6.6.6.6.6.6.i .     % A ( ( ( ( ( ",
"' ' ' ' ' ) &     . u 6.6.6.6.6.6.6.6.6.6.6.6.6.6.6.B.rXtXtXtXtXtXtXrXB.6.6.6.6.6.6.6.6.6.6.6.6.6.6.6.i .     % t A ( ( ( ( ",
"' ' / / P r 8 - - - c 3.3.3.d.f.f.f.d.6.6.6.s.f.f.f.H.6X0X0X0X0X0X0X7XH.f.f.f.s.6.6.6.d.f.f.f.d.5.3.3.g - - - ; 7 q t r ( ( ",
"_ ) , * * & f m m m n k k k c.=X=X=XM.s.6.6.v.&X=X=X&XK.H.H.H.H.H.H.H.&X=X=X&Xv.6.6.t.M.=X=X=Xc.k k k n m m m f * $ $ % / ( ",
"( ( O     . M 0.h.0.8.g g g b.5X5X5X.Xs.6.6.M.;X5X5X-Xd.6.6.6.6.6.6.s.-X5X5X4XM.6.6.s..X5X5X5Xm.g g g 8.0.h.h.M O     X / ( ",
"( ( O     . M 0.0.0.8.g g g b.5X5X5X.Xs.6.6.M.;X5X5X-Xd.6.6.6.6.6.6.s.-X5X5X4XM.6.6.s..X5X5X5Xb.g g g 8.0.h.h.M O     X / ( ",
"( ( O     @ b R.R.U.b + + + V ].].].*X7X6X6X9XwXwXwXwX7X6X6X6X6X6X6X6XwXwXwXwX9X6X6X6X*X].].].S + + + n U.R.R.m O     X / ( ",
"( ( X     O %.W.W.T.b       3 K K K *XwXtXtXtXtXtXtXtXtXtXtXtXtXtXtXtXtXtXtXtXtXtXtXwX*XK K K 4       v T.W.W.i.O     X Z A ",
"( ( X     O %.W.W.T.b       3 K K K *XwXtXtXtXtXtXtXtXtXtXtXtXtXtXtXtXtXtXtXtXtXtXtXwX*XK K K 4       v T.W.W.i.O     X t Z ",
"( ( r r _ ` 9 ; ; ; p l l l i.P.P.P.m.`._._._._._._._._._._._._._._._._._._._._._._.`. XP.P.P.a.l l l p ; ; ; 8 w t r r / ( ",
"( ( ) _ #. .8     . : +.+.+.k.W.W.W.b.! K K K K K K K K K K K K K K K K K K K K K K ! b.W.W.W.j.+.+.+.0 .     % r ( ( ( ( ( ",
"( ( | | ;.#.7     . : +.+.+.k.W.W.W.b.! K K K K K K K K K K K K K K K K K K K K K K ! b.W.W.W.j.+.+.+.0 .     % e Z ( ( ( ( ",
"( ( #.#.;.#.7     . f j.j.j.J.W.W.W.!.%X%X%X;.q 3 3 V m.%X%X%X%X%X%X XV 3 3 q ;.%X%X%XP.W.W.W.J.j.j.j.f .     * e C ( ( ( ( ",
"( ( #.#.;.#.7     . v E.E.E.W.W.W.W./.,X<X<Xl.;     , ~.<X<X<X<X<X<X>X,     * g.<X<X,X1XW.W.W.W.E.E.E.v X     * e C Z Z ( ( ",
"( ( #.#.;.#.7     . v W.W.W.W.W.W.W./.<X3X3Xl.;     , ~.3X3X3X3X3X3X>X,     # g.3X3X<X1XW.W.W.W.W.W.W.v X     % e C C C ( ( ",
"( ( #.#.#. .w * * & v J.J.J.T.W.W.W./.>X,X,Xl.< + + p 1X3X3X3X3X<X3X>Xp + + : l.,X,X>X/.W.W.W.T.J.J.J.v * = $ 8 t C C C Z Z ",
"( ( | | | | | | |  .o.+.+.+.k.W.W.W.W.W.W.W.z.u.+.+.i.>X3X3X3X3X3X3X,Xi.+.+.y.z.W.W.W.W.W.W.W.j.+.+.+.X.( ( ( ( A Z C C C C ",
"Z Z Z Z Z Z A Z Z A U +.+.+.k.W.W.W.W.W.W.W.z.u.+.+.i.>X3X3X3X3X3X3X,Xi.+.n y.z.W.W.W.W.W.W.W.j.+.+.+.X.( ( _ ' ( ( Z C Z Z ",
"C C C C C t e e e e d R R R p.Y.Y.Y.Y.T.T.T.z.i.y.u.p.1X,X,X,X,X,X,X>Xp.y.y.u.z.T.T.T.R.Y.Y.Y.p.R R R U P P / ) ) ) Z Z C Z ",
"C C C C C e %     o 3 J J J B       : z +.+.p.T.E.E.E.W.W.W.W.W.W.W.W.E.E.E.T.p.+.+.z 0       4 J J J 4 o     & / ' ( ( Z C ",
"Z Z Z Z Z t %     o 3 K K K B       : z z z p.T.W.W.W.W.W.W.W.W.W.W.W.W.W.W.T.p.+.+.z 0       4 K K K 4 o     & / ' ) ) A Z ",
"( ( ` ` ` ` y , , , V K K K B $ $ $ p z 1.1.a.j.z.z.z.z.z.z.z.z.z.z.z.z.z.z.x.a.1.1.z p $ $ $ B K K K V 8 , , y ] { { ' ( ( ",
") ) X.O.O.@.z.~.~.^.m.K K K L G G G W 3.4.4.,.: # # # # # # # # # # # # # # ; k 4.4.3.W G G G L K K K m.^.~.~.I.%.O.O.o.' [ ",
"' ' T +.+.y.!.3X3X,X%XK K K K K K K E 4.6.6.k +                             @ k 6.6.4.E K K K K K K K  X>X3X3X!.u.+.+.O.#.#.",
"( ( T +.+.y.R.,X,X>X%X*.*.*.! K K K E 4.4.4.,.> @ @ + % % % % % % % % + @ @ > ,.6.6.4.E K K K ! *.*.*. X>X,X,X!.u.+.+.O. . .",
"C Z T +.+.y.z././.Q.!.n.n.n.>.K K K E 4.6.4.3.,.k k j :.}.}.}.}.}.}.:.j k k ,.3.6.6.4.E K K K >.n.n.n.!.Q././.z.y.+.+.O.' ' ",
"C Z T +.+.+.x.W.W.W.W.W.W.W.b.K K K E 4.6.6.6.6.6.6.f.;X5X5X5X5X5X5X4Xf.6.4.6.6.6.6.4.E K K K b.W.W.W.W.W.W.W.z.y.+.+.O.' _ ",
"C Z T +.+.+.j.E.E.E.E.E.E.E.b.L L L E 4.6.6.6.6.6.6.f.4X5X5X5X5X5X5X4Xf.6.6.6.6.6.6.4.E L L L b.E.E.E.E.E.E.E.z.y.+.+.O.( ( ",
"A A U U U X.a.j.j.j.a.b b b U N N N x 5.4.6.7.w.q.q.A.8XeXeXeXeXeXeX9XA.q.q.w.e.6.6.5.x N N N I b b b a.j.j.j.p.@.o.o.o.( ( ",
"( ( Z Z Z P o.+.+.z p . . . . o o o u 5.6.6.w.Z.F.F.L.rXyXyXyXyXyXyXrXL.F.F.S.w.6.6.5.i o o o . . . . p z +.+.@.$.#.#.#.( ( ",
"( ( A P / ( X.R +.z p               u 5.6.6.w.S.D.D.L.rXtXtXtXtXtXtXuXL.D.D.S.w.6.6.5.i               0 z +.+.o.#.&.#.#.( ( ",
"( ( ( ( ' ' ] X.X.] s 3 3 3 B ~ ~ ~ [ E r.r.r.<.<.<.8. X$X$X$X$X$X$X X8.<.<.<.r.r.r.E Y ~ ~ ~ B 3 3 3 I o.@.o.$.;.;.#.#.( ( ",
"( ( _ _ ' ' _ _ ( ( Y G G G [.@X@X@X|.*.Q Q V * @ @ O = = = = = = = = O @ @ # V Q Q *.{.@X@X@X'.G G G =.#.#.#.#.#.&._ _ ( ( ",
"( ( ' ' ' ' ' _ ( ( ..K K K '.#X#X#X|.^ K K B $                             o B K K ^ |.#X#X#X|.K K K =.| #.#.#.#.#.A C ( ( ",
"_ _ ' ' ' ' ' ' _ _ S B B B ~ -.-.-.[.'.'.'.=.F F F q o               q F F F ^ '.'.'.[.-.-.-.^ B B B S / ( ( ( ( / / / ( ( ",
"' ' ' ' ' ' ' ' ' ) 7 $ $ $ $ % % % ^ OX@X@X+XOXOXOX{.=             o {.OXOXOX+X@X@XOX^ % % % $ $ $ $ 2 e Z C C C C ( ( ( ( ",
"' ' ' ' ' ' ' ' ' ) 7               ~ @X#X#X#X#X#X#XXX=             o XX#X#X#X#X#X#X@X^               2 e C C C / / ( ( ( ( ",
"' ' ' ' ' ' ' ' ' _ 7       o $ $ $ ~ oX+X+XOXXXXXXX{.% X X X X X X = {.XXXXXXOX+X+XoX^ $ $ $ o       2 e C C C ( ( ( ( ( ( ",
"' { | | ' ' ' ' ' _ 7       1 D D D L ).).).H 6 5 5 5 t r s P P r q q 5 5 5 6 H ).).).J D D D 3       2 e C C C ( ( ( ( _ _ ",
"' { #.#.' ' ' ' ' _ 7       3 J J J K K K K B $     X / ' ' ' ' _ Z t X     o B K K K K J J J 4       2 e C C C ( ( ( ( ' ' ",
"' ' { { ' ' ' ' ' _ 7       3 K K K K K K K B $     X ' | { _ A A / / X     o B K K K K K K K 4       8 P ( ( ( A Z ( ( ' ' ",
"' ' ' ' ' ' ' ' ' ' / w w w 7 1 1 1 1 1 1 1 2 w t t r  .#.{ _ Z Z ( ( w w w 7 2 1 1 1 1 1 1 1 2 7 w w r / ( ( ( Z C ( ( ' ' ",
"' ' ' ' ' ' ' ' ' _ ( ) _ _ 7               & / _ _ ' { ' A Z ( ( ( ( ( / Z t &               8 A Z / ( ( ( ( ( ( ( _ ' ' ' ",
"' ' ' ' ' ' ' ' ' _ ( ) ' ' 7               & / ' ' ' ' _ Z Z ( ( ( ( ( ( Z r &               8 A C / ( ( ( ( ( ( ( ' ' ' ' ",
"( ( ' ' ' ' ' ' ' ' ' ' ' ' / w t t t t t t / _ ( ( ( ( ( ( ( ( ( ( ( Z A _ _ t 9 9 9 9 9 9 9 s _ ( A Z / ( ( ( _ ' ' ' ' ' ",
"( ( ' ' ' ' ' ' ' ' ' ' ' ' '  .#.#.;.#.#.#.#.[ ( ( ( ( ( ( ( ( ( ( ( Z Z ' ' ' ' ' ' ' ' ' ' ' _ ( A C / ( ( ( _ ' ' ' ' ' "
};
