/* XPM */
static char *rcp0255193914420[] = {
/* columns rows colors chars-per-pixel */
"68 68 165 2 ",
"   c #000000",
".  c #0D0505",
"X  c #0D0D0E",
"o  c #140A0A",
"O  c #1B0C0C",
"+  c #1D110F",
"@  c #0B0B14",
"#  c #0E0E1C",
"$  c #111111",
"%  c #19181B",
"&  c #100F11",
"*  c #280C0C",
"=  c #220A0A",
"-  c #241812",
";  c #2D1E17",
":  c #231A1C",
">  c #371717",
",  c #33281E",
"<  c #1B1B20",
"1  c #16162D",
"2  c #181834",
"3  c #1C1C3C",
"4  c #251F22",
"5  c #1D2932",
"6  c #1A242E",
"7  c #232325",
"8  c #282727",
"9  c #29282B",
"0  c #362727",
"q  c #333030",
"w  c #3D3B3C",
"e  c #36353E",
"r  c #302E31",
"t  c #531818",
"y  c #611D1D",
"u  c #692D1F",
"i  c #4A2727",
"p  c #4A2A27",
"a  c #543C20",
"s  c #53362B",
"d  c #46353A",
"f  c #583738",
"g  c #5F3333",
"h  c #642C2D",
"j  c #682828",
"k  c #7B2B2B",
"l  c #68342F",
"z  c #693030",
"x  c #6D323E",
"c  c #733E3E",
"v  c #743537",
"b  c #4E241D",
"n  c #6C4838",
"m  c #74423C",
"M  c #7A513F",
"N  c #1F1F43",
"B  c #373640",
"V  c #383740",
"C  c #3C3B43",
"Z  c #2C2C5F",
"A  c #323E5E",
"S  c #373969",
"D  c #363674",
"F  c #383878",
"G  c #3D3974",
"H  c #302F61",
"J  c #413D44",
"K  c #4B3B41",
"L  c #5A3E41",
"P  c #6A3E40",
"I  c #71385C",
"U  c #453A6C",
"Y  c #673F60",
"T  c #434146",
"R  c #474649",
"E  c #48474A",
"W  c #4C4B4C",
"Q  c #4B4045",
"!  c #514F4F",
"~  c #584446",
"^  c #4F4C50",
"/  c #514E50",
"(  c #545152",
")  c #5A5656",
"_  c #5C5857",
"`  c #5E5A59",
"'  c #5C5758",
"]  c #56504F",
"[  c #644646",
"{  c #6B4445",
"}  c #754143",
"|  c #784040",
" . c #764F41",
".. c #615C5B",
"X. c #6B5B5A",
"o. c #7C6048",
"O. c #65605F",
"+. c #46406E",
"@. c #405C6E",
"#. c #46427A",
"$. c #594A76",
"%. c #60547D",
"&. c #6A6463",
"*. c #636369",
"=. c #676261",
"-. c #79607A",
";. c #8F2F2F",
":. c #9A2D2D",
">. c #993C3C",
",. c #B73636",
"<. c #C03838",
"1. c #A74436",
"2. c #9B673B",
"3. c #89473E",
"4. c #CF453C",
"5. c #D74C3E",
"6. c #A33945",
"7. c #884E48",
"8. c #8C514A",
"9. c #90594F",
"0. c #925A51",
"q. c #B65343",
"w. c #B04B51",
"e. c #BD5157",
"r. c #A87840",
"t. c #A06254",
"y. c #A86858",
"u. c #A76858",
"i. c #AB7259",
"p. c #886474",
"a. c #9B6E73",
"s. c #DD5141",
"d. c #E65843",
"f. c #ED5E45",
"g. c #EF6146",
"h. c #F86848",
"j. c #E86450",
"k. c #C85C60",
"l. c #C47F66",
"z. c #EA7968",
"x. c #C98369",
"c. c #D68E6F",
"v. c #D89070",
"b. c #DE9976",
"n. c #F5826C",
"m. c #424C85",
"M. c #48558B",
"N. c #53778E",
"B. c #597E98",
"V. c #7B7BA9",
"C. c #82799E",
"Z. c #B87484",
"A. c #6E9CBC",
"S. c #6389AF",
"D. c #70A0C0",
"F. c #B397B0",
"G. c #F39181",
"H. c #EBB78E",
"J. c #F1B689",
"K. c #F8C090",
"L. c #A4A4C2",
"P. c #B0B0D0",
"I. c #C3C3DD",
"U. c #DEDEF1",
"Y. c #E8E8F8",
/* pixels */
"! ! ! ! ! ! ! ! ! ! W R R R R V C ` ..&.&.........W B C R R R R R R R R R R ! ! ! ! ) ........................W R W ! ! ! ! ! ! ! W R R ",
"! ! ! ! ! ! ! ! ! ! W R R R R V C ' ..&.&.........E V C R R R R R R R R R R ! ! ! ! ) ........................W E W ! ! ! ! ! ! ! W E E ",
"` ` ` ` ` ` / E T C T R R R R V V C J ......../ J T T R R R R R R R R R R R ! ! ) ` ..&.&.&.=.................` _ ! E W ! ! ! ! E W ) _ ",
"............/ E T V C R R R T V B h h h z z h h h h h h h h h h h h h h h h h h h z z z z z z z z z z ............/ R W ! ! ! ! E W ....",
"&.&.........` ` / T T E T V V B B j j j j j j j j j j j j j j j j j j j j j j j j j j j j j j j j j j ....=.&...../ R E E W ! ( ` ` &.&.",
"&.&.............( E E E T B B B B j j j j j j j j j j j j j j j j j j j j j j j j j j j j j j j j j j ....&.&...../ R R R W ! ( ....&.&.",
"&.&............./ C C C J d d d d ;.;.;.;.1.1.1.1.1.1.1.1.1.1.1.1.1.1.1.1.1.1.1.1.1.1.1.1.1.1.;.;.;.;.[ [ [ [ ! R R R R R R T R ....&.&.",
"&.&.............^ B B B d j j j j <.<.<.<.f.h.h.h.h.h.h.h.h.h.h.h.h.h.h.h.h.h.h.h.h.h.h.h.h.f.<.<.<.<.j j j j K B T R R R T B J ` ..&.&.",
"( ( / ^ ^ ^ ^ ^ T B B B d j j j j <.<.<.<.f.h.h.h.h.h.h.h.h.h.h.h.h.h.h.h.h.h.h.h.h.h.h.h.h.f.<.<.<.<.j j j j K C T R R R T C T W / ( ( ",
"B B B B B B B B B B B B d j j j j <.<.<.<.f.h.h.h.h.h.h.h.h.h.h.h.h.h.h.h.h.h.h.h.h.h.h.h.h.f.<.<.<.<.j j j j K R R R R R R R R V B B B ",
"B B B B B B B B B B B B d j j j j h.h.h.h.h.h.h.h.h.h.h.h.h.h.h.h.h.h.h.h.h.h.h.h.h.h.h.h.h.h.h.h.h.h.j j j j d T R R R R E E E C C B B ",
"B B B B B B B B B B B B d j j j j h.h.h.h.h.h.h.h.h.h.h.h.h.h.h.h.h.h.h.h.h.h.h.h.h.h.h.h.h.h.h.h.h.h.j j j j d B T R R R W ! ! E T V B ",
"C C C C C C C C C C C C d j j j j h.h.h.h.h.h.h.h.h.h.h.h.h.h.h.h.h.h.h.h.h.h.h.h.h.h.h.h.h.h.h.h.h.h.j j j j d C T R R R E W W T T C C ",
"R R R R R R R R f j j j k <.<.<.<.h.h.h.h.h.h.h.h.h.h.h.h.h.h.h.h.h.h.h.h.h.h.h.h.h.h.h.h.h.h.h.h.h.h.<.<.<.<.k j j j f R R R R V V R R ",
"E E E E R R R R f j j j k ,.<.<.<.h.h.h.h.h.h.h.h.h.h.h.h.h.h.h.h.h.h.h.h.h.h.h.h.h.h.h.h.h.h.h.h.h.h.<.<.<.<.k j j j f R R R T V C E E ",
"! ! ! ! E R R R f j j j k <.<.<.<.h.h.h.h.h.h.h.h.h.h.h.h.h.h.h.h.h.h.h.h.h.h.h.h.h.h.h.h.h.h.h.h.h.h.<.<.<.<.k j j j f R T V V R E ! ! ",
"! ! ! ! E E E R 0 O O O > <.<.<.<.4.4.4.4.g.h.h.h.h.h.h.h.h.h.h.h.h.h.h.h.h.h.h.h.h.h.h.h.h.g.4.4.4.4.<.<.<.<.> O O O 0 R T V C R E W W ",
"! ! ! ! ! ! E R 7       * <.<.<.<.<.<.<.<.f.h.h.h.h.h.h.h.h.h.h.h.h.h.h.h.h.h.h.h.h.h.h.h.h.f.<.<.<.<.<.<.<.<.*       7 R R R R R R E E ",
"! ! ! ! ! ! E R 7       * <.<.<.<.<.<.<.<.f.h.h.h.h.h.h.h.h.h.h.h.h.h.h.h.h.h.h.h.h.h.h.h.h.f.<.<.<.<.<.<.<.<.*       7 E E E R R R R R ",
"! ! ! ! ! ! ! ! 8       * <.<.<.<.<.<.<.<.s.d.d.d.d.d.d.d.j.G.G.G.G.G.G.G.G.j.d.d.d.d.d.d.d.s.<.<.<.<.<.<.<.<.*       < V V V V R R R R ",
"! ! ! ! ! ! ! ! 8       * <.<.<.<.<.<.<.<.<.<.<.<.<.<.<.<.k.Y.Y.Y.Y.Y.Y.Y.Y.k.<.<.<.<.<.<.<.<.<.<.<.<.<.<.<.<.*       < B B B V E E R R ",
"E E ! ! ! ! ! ! 8       * <.<.<.<.<.<.<.<.<.<.<.<.<.<.<.<.k.Y.Y.Y.Y.Y.Y.Y.Y.k.<.<.<.<.<.<.<.<.<.<.<.<.<.<.<.<.*       < B B B V C C E R ",
"R R W ! ! ! ! ! 8       * <.<.<.<.<.<.<.<.<.<.<.<.<.<.<.<.k.Y.Y.Y.Y.Y.Y.Y.Y.k.<.<.<.<.<.<.<.<.<.<.<.<.<.<.<.<.*       < B B B B B V R R ",
"R R W ! $       a r.r.r.2.j j j j P.P.P.P.e.<.<.<.Z.P.P.P.F.<.<.<.<.<.<.<.<.F.P.P.P.Z.<.<.<.e.P.P.P.P.j j j j 2.r.r.r.a       X B V R R ",
"R R W ! $       a r.r.r.2.j j j j P.P.P.P.e.<.<.<.Z.P.P.P.F.<.<.<.<.<.<.<.<.F.P.P.P.Z.<.<.<.e.P.P.P.P.j j j j 2.r.r.r.a       X B V R R ",
"R R E W $       a r.r.r.2.j j j j P.P.P.P.e.<.<.<.Z.P.P.P.F.<.<.<.<.<.<.<.<.F.P.P.P.Z.<.<.<.e.P.P.P.P.j j j j 2.r.r.r.a       X T J C C ",
"R R R E $       n v.v.v.i.        F F F F I.Y.Y.Y.Y.Y.Y.Y.Y.Y.Y.Y.Y.Y.Y.Y.Y.Y.Y.Y.Y.Y.Y.Y.Y.I.F F F F         i.v.v.v.n       X R T V B ",
"R R R E $       n v.v.v.i.        F F F F I.Y.Y.Y.Y.Y.Y.Y.Y.Y.Y.Y.Y.Y.Y.Y.Y.Y.Y.Y.Y.Y.Y.Y.Y.I.F F F F         i.v.v.v.n       X R R C C ",
"R R R E $       n v.v.v.i.        F F F F I.Y.Y.Y.Y.Y.Y.Y.Y.Y.Y.Y.Y.Y.Y.Y.Y.Y.Y.Y.Y.Y.Y.Y.Y.I.F F F F         i.v.v.v.n       X R R R R ",
"R R E W d w w w d s s s s i i i i a.a.a.a.C.V.V.V.V.V.V.V.V.V.V.V.V.V.V.V.V.V.V.V.V.V.V.V.V.C.a.a.a.a.i i i i s s s s 0 7 7 9 r R R R R ",
"R E _ ..&.&.&.&.q       O | | | | v.v.v.v.$.F F F F F F F F F F F F F F F F F F F F F F F F $.v.v.v.v.| | | | O       < B B V V R R R R ",
"R E _ ..&.&.&.&.q       O | | | | v.v.v.v.$.F F F F F F F F F F F F F F F F F F F F F F F F $.v.v.v.v.| | | | O       < B B B V T R R R ",
"R E _ ..&.&.&.&.q       + 8.8.8.8.v.v.v.v.-.%.%.%.+.Z Z Z S %.%.%.%.%.%.%.%.S Z Z Z +.%.%.%.-.v.v.v.v.8.8.8.8.+       4 J J J d B V R R ",
"R E _ ..&.&.&.&.q       ; v.v.v.v.v.v.v.v.J.K.K.K.o.      , K.K.K.K.K.K.K.K.,       o.K.K.K.J.v.v.v.v.v.v.v.v.;       0 | | c c B V R R ",
"R E _ ..........r       ; v.v.v.v.v.v.v.v.J.K.K.K.o.      , K.K.K.K.K.K.K.K.,       o.K.K.K.J.v.v.v.v.v.v.v.v.;       0 | | c c B V V V ",
"R E _ ..........r       ; v.v.v.v.v.v.v.v.J.K.K.K.o.      , K.K.K.K.K.K.K.K.,       o.K.K.K.J.v.v.v.v.v.v.v.v.;       0 P c c c B B B B ",
"V V C J J J J J C C C C Q | | | | v.v.v.v.v.v.v.v.u.c c c 9.K.K.K.K.K.K.K.K.9.c c c u.v.v.v.v.v.v.v.v.| | | | U D D D p.c.c.c.l.| | | | ",
"B B B B B B B B B V V V K | | | | v.v.v.v.v.v.v.v.y.| | | 0.K.K.K.K.K.K.K.K.0.| | | y.v.v.v.v.v.v.v.v.| | | | U F F F p.v.v.v.l.| | | | ",
"B B B B B B B B C R R R ~ | | | | v.v.v.v.v.v.v.v.y.| | | 0.K.K.K.K.K.K.K.K.0.| | | y.v.v.v.v.v.v.v.v.| | | | U F F F p.v.v.v.l.| | | | ",
"B B B B B B B B C R R R w o o o o - - - - m 7.7.7.y.x.x.x.x.b.b.b.b.b.b.b.b.x.x.x.x.y.7.7.7.m - - - - o o o o H F F F p.v.v.v.l.| | | | ",
"T T T T T T T T T R E W d                 g | | | y.v.v.v.v.v.v.v.v.v.v.v.v.v.v.v.v.y.| | | g                 Z F F F p.v.v.v.l.| | | | ",
"R R R R R R R R R R E ! T                 g | | | y.v.v.v.v.v.v.v.v.v.v.v.v.v.v.v.v.y.| | | g                 Z F F F p.v.v.v.l.| | | | ",
"W W T T T T R R e 9 9 q r 2 2 2 2 2 2 2 2 v >.>.>.3.M M M M M M M M M M M M M M M M m v v v h t t t t 2 2 2 2 N N N N K M M M  .[ [ [ [ ",
"! ! C B B B T R 8       # F F F F F F F F 6.<.<.<.y                                 > j j j k <.<.<.<.F F F F #               $ ! ( ....",
"R T V B B B C J 7       # F F F F F F F F 6.<.<.<.y                                 > j j j k <.<.<.<.F F F F #               $ ! ( ) ) ",
"B B B B B B B B 7 . . . % #.#.#.#.#.#.#.#.6.,.,.,.y . . . . X X X X X X X X . . . . > j j j ;.<.<.<.<.G G G G # . . . . . . . % ( ! ! ! ",
"B B B B B B B B L c c c 8.H.H.H.H.H.H.H.H.0.| | | >.,.,.,.w.L.L.L.L.L.L.L.L.w.,.,.,.,.,.,.,.,.<.<.<.<.} } } } ) ` ` ` ) ) ) ) ) ( ( W W ",
"B B B B B B B B ~ | | | 0.K.K.K.K.K.K.K.K.0.| | | >.<.<.<.e.P.P.P.P.P.P.P.P.e.<.<.<.<.<.<.<.<.<.<.<.<.| | | | X.&.&.&.O..........._ E R ",
"V V B B B B V V ~ | | | 0.K.K.K.K.K.K.K.K.0.| | | >.<.<.<.e.P.P.P.P.P.P.P.P.e.<.<.<.<.<.<.<.<.<.<.<.<.| m m | X.&.&.&.O..........._ E R ",
"E R V B B B E ( [ | | | 8.b.b.b.b.b.b.b.b.8.| | | q.f.f.f.z.U.U.U.U.U.U.U.U.z.f.f.f.5.<.<.<.:.= = = = o o o o ] &.&.&.O..........._ E R ",
"R R C V V V E ! [ | | | 8.v.v.v.v.v.v.v.v.8.| | | q.h.h.h.n.Y.Y.Y.Y.Y.Y.Y.Y.n.h.h.h.s.<.<.<.:.                ! &.&.&.O..........._ E R ",
"R R R T E W E E [ | | | 8.v.v.v.v.v.v.v.v.8.| | | q.h.h.h.n.Y.Y.Y.Y.Y.Y.Y.Y.n.h.h.h.s.<.<.<.:.                ! &.&.&.O.....&.&..._ E R ",
"R R E E ! ! W E Q ~ ~ ~ { t.t.t.t.t.t.t.t.p > > > b u u u l *.*.*.*.*.*.*.*.l u u u x I I I Y @.@.@.@.        ! &.&.&.O.....&.&.` ) R R ",
"R R W ! ! ! ! ! W R R R Q | | | | | | | | O                                         3 F F F m.D.D.D.D.        T ..............' J J R R ",
"R R W ! ! ! ! ! W E R R Q | | | | | | | | O                                         3 F F F m.D.D.D.D.        T ..............) V V R R ",
"W W ! ! ! ! ! ! ! ! W R E { { { { { { { P : $ $ $ .                 # # # # 6 5 5 5 A M.M.M.M.N.N.N.N.$ & @ @ e T T T T T T T T T T R R ",
"! ! ! ! ! ! ! ! ! ! W R R E E ! ! E E V V T R R R 7                 D D D D S.A.A.A.A.A.A.A.B.        V e e e e B B B B B B B V R R R R ",
"! ! ! ! ! ! ! ! ! ! ! W W R E E E R R T T R R R R 7                 F F F F S.D.D.D.D.D.D.D.B.        V B B B B B B B B B V T T R R R R ",
"! ! ! ! ! ! ! ! ! ! ! ! W R R R R R R R R R R R R 7                 F F F F S.D.D.D.D.D.D.D.B.        B B B B B B B B B B C R R R R R R ",
"! ! ) ) ( ! ! ! ! ! ! ! ! W W E R R R R R R R R R T w w w w w w T T @ @ @ @ S m.m.m.m.m.m.m.S         B B B B B B B B B B C R R R E W W ",
"! ! ` ..( ! ! ! ! ! ! ! ! ! ! E R R R R R R R R R W ! ! ! ! ! ! ! !         Z F F F F F F F Z         B B B B B B V B B B C R R R E ! ! ",
"! ! ) ) ( ! ! ! ! ! ! ! ! W W W W W W W W W W W W W ! ! ! ( ) ( ! !         Z F F F F F F F Z         V V C C C C C C C C C T T R E ! ! ",
"! ! ! ! ! ! ! ! ! ! ! ! W R E ! ! ! ! ! ! ! ! ! ! ! ! ! ! ( ..` ! W 7 7 9 9 1 1 1 1 1 1 1 1 2 q q 9 9 V V R R R R R R R R T B V R E ! ! ",
"! ! ! ! ! ! ! ! ! ! ! W W E E ! ! ! ! ( ( ( ( ( ! ! ! ! ! ( ` ) W E C V R R X               $ ! ! E R C V T R R R R R R R T V C E E ! ! ",
"! ! ! ! ! ! ! ! ! ! W E E ! ! ! ! ! ! ........) ! ! ! ! ! ! ( W V V R R R R X               $ ! ! ! ! E R V V T R R R R R R R E ! ! ! ! ",
"W W ! ! ! ! ! ! ! ! W E W ! ! ! ( ( ( ........) ( / W W W W W W V C R R R R 7 % % % % % % % 8 ! ! ! ! E E C V T T R R R R E E E ! ! ! ! ",
"R E W ! ! ! ! ! ! ! ! ! ! ! ! ! ( ` ..&.&.........( R R R R R R R R R R R R V B E ! ! ! ! ! ! ! ! ! ! ! ! E R C V T R R R W ! ! ! ! ! ! ",
"R R W ! ! ! ! ! ! ! ! ! ! ! ! ! ( ` ..&.&.........( R R R E R R R R R R R R V B E ! ! ! ! ! ! ! ! ! ! ! ! E R C B T R R R W ! ! ! ! ! ! "
};
