/* XPM */
static char *rcp0255267973815[] = {
/* columns rows colors chars-per-pixel */
"68 68 179 2 ",
"   c #000000",
".  c #0D0B0B",
"X  c #0C0806",
"o  c #140A09",
"O  c #190D0D",
"+  c #080811",
"@  c #0C0C19",
"#  c #131313",
"$  c #1B1919",
"%  c #18140A",
"&  c #290C0C",
"*  c #2B1515",
"=  c #391111",
"-  c #1C1C20",
";  c #161529",
":  c #201F23",
">  c #222123",
",  c #282727",
"<  c #2B2A2B",
"1  c #292727",
"2  c #3C2020",
"3  c #312E2E",
"4  c #212C36",
"5  c #2C2B33",
"6  c #343234",
"7  c #35343C",
"8  c #3A3939",
"9  c #39363C",
"0  c #34302F",
"q  c #491515",
"w  c #4D1E1E",
"e  c #412323",
"r  c #4E2A2A",
"t  c #492B29",
"y  c #453426",
"u  c #543C20",
"i  c #552E32",
"p  c #45333A",
"a  c #49383C",
"s  c #5C3334",
"d  c #5D3D30",
"f  c #583738",
"g  c #573739",
"h  c #462931",
"j  c #682828",
"k  c #652323",
"l  c #762A2A",
"z  c #7A2B2B",
"x  c #6E362B",
"c  c #73362C",
"v  c #6F3232",
"b  c #653C3C",
"n  c #623535",
"m  c #753D3D",
"M  c #7F3F3F",
"N  c #5C4C1C",
"B  c #5F412B",
"V  c #754F2F",
"C  c #76542D",
"Z  c #69403F",
"A  c #6C4838",
"S  c #634336",
"D  c #7F493F",
"F  c #6F5D31",
"G  c #24244D",
"H  c #373640",
"J  c #383741",
"K  c #3C3B43",
"L  c #282854",
"P  c #2D2D60",
"I  c #373775",
"U  c #3C3975",
"Y  c #383878",
"T  c #403F44",
"R  c #4D3E42",
"E  c #483649",
"W  c #583C5C",
"Q  c #6B3E4C",
"!  c #713F46",
"~  c #72385D",
"^  c #503B63",
"/  c #424146",
"(  c #474649",
")  c #48474A",
"_  c #4C4B4C",
"`  c #4B4646",
"'  c #574042",
"]  c #514F4F",
"[  c #574A4A",
"{  c #4F4C50",
"}  c #514E50",
"|  c #545152",
" . c #5A5655",
".. c #5C5857",
"X. c #5E5A59",
"o. c #5C5758",
"O. c #6C4848",
"+. c #6C4444",
"@. c #704343",
"#. c #784040",
"$. c #615C5B",
"%. c #685858",
"&. c #744B5B",
"*. c #65605F",
"=. c #786859",
"-. c #7F6E54",
";. c #6F5776",
":. c #645076",
">. c #6A6463",
",. c #676261",
"<. c #832D2D",
"1. c #982C2C",
"2. c #873E3E",
"3. c #983131",
"4. c #983D33",
"5. c #933937",
"6. c #AB3434",
"7. c #A43030",
"8. c #B93939",
"9. c #B33636",
"0. c #C03838",
"q. c #8C463E",
"w. c #8D583E",
"e. c #915A3D",
"r. c #816B28",
"t. c #90613D",
"y. c #9A683E",
"u. c #BC6939",
"i. c #A6753D",
"p. c #B57D39",
"a. c #C6483B",
"s. c #DA4F3F",
"d. c #824B40",
"f. c #8A5D48",
"g. c #905C40",
"h. c #92594D",
"j. c #9E6C40",
"k. c #927C4B",
"l. c #92645B",
"z. c #A46F4C",
"x. c #A87840",
"c. c #AC7259",
"v. c #B1765C",
"b. c #A86858",
"n. c #B57D72",
"m. c #A57268",
"M. c #EA5D44",
"N. c #E15441",
"B. c #F16246",
"V. c #F86848",
"C. c #F76748",
"Z. c #9D8130",
"A. c #A9853A",
"S. c #A78338",
"D. c #BA8438",
"F. c #B28F39",
"G. c #B89838",
"H. c #B59739",
"J. c #C5A53F",
"K. c #9D8445",
"L. c #A88640",
"P. c #B88B4B",
"I. c #BE8356",
"U. c #D0AE49",
"Y. c #D9B949",
"T. c #D3B346",
"R. c #D2AB51",
"E. c #C18164",
"W. c #D89070",
"Q. c #D08C70",
"!. c #F2C755",
"~. c #F8D858",
"^. c #597F98",
"/. c #547594",
"(. c #65808B",
"). c #7B9FAD",
"_. c #6891B6",
"`. c #7198B1",
"'. c #70A0C0",
/* pixels */
"] ] ] ] ] ] ] ] ] ] _ ( ( ( ( J K X.$.>.>.$.$.$.$._ H K ( ( ( ( ( ( ( ( ( ( ] ] ] ]  .$.$.$.$.$.$.$.$.$.$.$.$._ ( _ ] ] ] ] ] ] ] _ ( ( ",
"] ] ] ] ] ] ] ] ] ] _ ( ( ( ( J K o.$.>.>.$.$.$.$.) J K ( ( ( ( ( ( ( ( ( ( ] ] ] ]  .$.$.$.$.$.$.$.$.$.$.$.$._ ) _ ] ] ] ] ] ] ] _ ) ) ",
"X.X.X.X.X.X.} ) / K / ( ( ( ( J J K T $.$.$.$.} T / / ( ( ( ( ( ( ( ( ( ( ( ] ]  .X.$.>.>.>.,.$.$.$.$.$.$.$.$.X...] ) _ ] ] ] ] ) _  ...",
"$.$.$.$.$.$.} ) / J K ( ( ( / J H H H X.X.X.X._ H / ( ( ( ( ( ( ( ( ( ( ( ( ] ] ..$.*.>.>.>.>.$.$.$.$.$.$.$.$.$.$.} ( _ ] ] ] ] ) _ $.$.",
">.>.$.$.$.$.X.X.} ( ( ( / J J H H H H K T T T K H / ( ( ( ( ( ( ( ( ( ( K J ( )  .$.*.>.>.>.>.$.$.$.$.$.$.,.>.$.$.} ( ) ) _ ] | X.X.>.>.",
">.>.$.$.$.$.$.$.| ( ( ( / H H H H i i i i i i i i s s s s s s s s s s s i i s s b b b Z Z Z b b b b b $.$.>.>.$.$.} ( ( ( _ ] | $.$.>.>.",
">.>.$.$.$.$.$.$.} K K K J H H H H j j j j j j j j j j j j j j j j j j j j j j j j j j j j j j j j j j $.$.$.$.{ ( ( ( ( ( ( / ( $.$.>.>.",
">.>.$.$.$.$.$.$.{ H H H H H H H H j j j j j j j j j j j j j j j j j j j j j j j j j j j j j j j j j j $.$.$.$./ H / ( ( ( / H T X.$.>.>.",
"| | } { { { { { / H H H 9 p p p p <.<.<.<.4.4.4.4.4.4.4.4.4.4.4.4.4.4.4.4.4.4.4.4.4.4.4.4.4.4.<.<.<.<.' ' ' ' T K / ( ( ( / K / _ } | | ",
"H H H H H H H H H H H H p j j j j 0.0.0.0.M.V.V.V.V.V.V.V.V.V.V.V.V.V.V.V.V.V.V.V.V.V.V.V.V.M.0.0.0.0.j j j j R ( ( ( ( ( ( ( ( J H H H ",
"H H H H H H H H H H H H p j j j j 0.0.0.0.M.V.V.V.V.V.V.V.V.V.V.V.V.V.V.V.V.V.V.V.V.V.V.V.V.M.0.0.0.0.j j j j a / ( ( ( ( ) ) ) K K H H ",
"H H H H H H H H H H H H p j j j j 0.0.0.0.M.V.V.V.V.V.V.V.V.V.V.V.V.V.V.V.V.V.V.V.V.V.V.V.V.M.0.0.0.0.j j j j a H / ( ( ( _ ] ] ) / J H ",
"K K K K K K K K K K K K a j j j j B.B.B.B.C.V.V.V.V.V.V.V.V.V.V.V.V.V.V.V.V.V.V.V.V.V.V.V.V.C.B.B.B.B.j j j j a K / ( ( ( ) _ _ / / K K ",
"( ( ( ( ( ( ( ( ( ( ( ( R j j j j V.V.V.V.V.V.V.V.V.V.V.V.V.V.V.V.V.V.V.V.V.V.V.V.V.V.V.V.V.V.V.V.V.V.j j j j R ( ( ( ( ( ( ( ( J J ( ( ",
") ) ) ) ( ( ( ( ( ( ( ( R j j j j V.V.V.V.V.V.V.V.V.V.V.V.V.V.V.V.V.V.V.V.V.V.V.V.V.V.V.V.V.V.V.V.V.V.j j j j R ( ( ( ( ( ( ( / J K ) ) ",
"] ] ] ] ) ( ( ( g s s s v 6.6.6.6.V.V.V.V.V.V.V.V.V.V.V.V.V.V.V.V.V.V.V.V.V.V.V.V.V.V.V.V.V.V.V.V.V.V.6.6.6.6.v s s s g ( / J J ( ) ] ] ",
"] ] ] ] ) ) ) ( f j j j z 0.0.0.0.V.V.V.V.V.V.V.V.V.V.V.V.V.V.V.V.V.V.V.V.V.V.V.V.V.V.V.V.V.V.V.V.V.V.0.0.0.0.z j j j f ( / J K ( ) _ _ ",
"] ] ] ] ] ] ) ( f j j j z 0.0.0.0.V.V.V.V.V.V.V.V.V.V.V.V.V.V.V.V.V.V.V.V.V.V.V.V.V.V.V.V.V.V.V.V.V.V.0.0.0.0.z j j j f ( ( ( ( ( ( ) ) ",
"] ] ] ] ] ] ) ( f j j j z 0.0.0.0.s.s.s.s.B.V.V.V.V.V.V.V.V.V.V.V.V.V.V.V.V.V.V.V.V.V.V.V.V.B.s.s.s.s.0.0.0.0.z j j j f ) ) ) ( ( ( ( ( ",
"] ] ] ] ] ] ] ] f j j j z 0.0.0.0.0.0.0.0.M.V.V.V.V.V.V.V.V.V.V.V.V.V.V.V.V.V.V.V.V.V.V.V.V.M.0.0.0.0.0.0.0.0.z j j j i J J J J ( ( ( ( ",
"] ] ] ] ] ] ] ] f j j j z 0.0.0.0.0.0.0.0.M.V.V.V.V.V.V.V.V.V.V.V.V.V.V.V.V.V.V.V.V.V.V.V.V.M.0.0.0.0.0.0.0.0.z j j j i H H H J ) ) ) ( ",
") ) ] ] ] ] ] ] g w w w k 0.0.0.0.0.0.0.0.N.M.M.M.M.M.M.M.M.M.M.M.M.M.M.M.M.M.M.M.M.M.M.M.M.N.0.0.0.0.0.0.0.0.k w w w h H H H J K K ) ( ",
"( ( _ ] ] ] ] ] <       & 0.0.0.0.0.0.0.0.0.0.0.0.0.0.0.0.0.0.0.0.0.0.0.0.0.0.0.0.0.0.0.0.0.0.0.0.0.0.0.0.0.0.&       - H H H H H J ( ( ",
"( ( _ ] ] ] ] ] <       & 0.0.0.0.0.0.0.0.0.0.0.0.0.0.0.0.0.0.0.0.0.0.0.0.0.0.0.0.0.0.0.0.0.0.0.0.0.0.0.0.0.0.&       - H H H H H J ( ( ",
"( ( _ ] ] ] ] ] <       & 0.0.0.0.0.0.0.0.0.0.0.0.0.0.0.0.0.0.0.0.0.0.0.0.0.0.0.0.0.0.0.0.0.0.0.0.0.0.0.0.0.0.&       - H H H H H J ( ( ",
"( ( ) _ ] ] ] ] <       o l l l l 0.0.0.0.0.0.0.0.0.0.0.0.0.0.0.0.0.0.0.0.0.0.0.0.0.0.0.0.0.0.0.0.0.0.l l l l o       - H H H J / T K K ",
"( ( ( ) ] ] ] ] 1       o j j j j 0.0.0.0.0.0.0.0.0.0.0.0.0.0.0.0.0.0.0.0.0.0.0.0.0.0.0.0.0.0.0.0.0.0.j j j j o       - H H H J ( / J H ",
"( ( ( ) |  . . .<       o j j j j 0.0.0.0.0.0.0.0.0.0.0.0.0.0.0.0.0.0.0.0.0.0.0.0.0.0.0.0.0.0.0.0.0.0.j j j j o       - H J K K ( ( K K ",
"( ( ( ) 1 $ $ $ y C C C V m m m m <.<.<.<.9.0.0.0.0.0.0.0.7.= = = = = = = = 7.0.0.0.0.0.0.0.9.<.<.<.<.m m m m V C C C y # # # - ( ( ( ( ",
"( ( ) _ #       u x.x.x.j.#.#.#.#.j j j j 6.0.0.0.0.0.0.0.1.                1.0.0.0.0.0.0.0.6.j j j j #.#.#.#.j.x.x.x.u       . ( ( ( ( ",
"( ) ..$.#       u x.x.x.j.#.#.#.#.j j j j 6.0.0.0.0.0.0.0.1.                1.0.0.0.0.0.0.0.6.j j j j #.#.#.#.j.x.x.x.u       . ( ( ( ( ",
"( ) ..$.#       B I.I.I.z.e e e e v v v v 3.3.3.3.3.3.3.3.<.* * * * * * * * <.3.3.3.3.3.3.3.3.v v v v e e e e z.I.I.I.B       . / ( ( ( ",
"( ) ..$.#       A W.W.W.c.        #.#.#.#.j j j j j j j j j j j j j j j j j j j j j j j j j j #.#.#.#.        c.W.W.W.A       . H J ( ( ",
"( ) ..$.#       A W.W.W.c.        #.#.#.#.j j j j j j j j j j j j j j j j j j j j j j j j j j #.#.#.#.        c.W.W.W.A       . H J ( ( ",
"( ) ..$.> # # # S v.v.v.f.        #.#.#.#.v j j j x c c c c j j j j j j j j c c c c x j j j v #.#.#.#.        f.v.v.v.S o o o $ H J J J ",
"( ) ..$... . . .0 X X X X         #.#.#.#.m m m m w.i.i.i.y.m m m m m m m m y.i.i.i.w.m m m m #.#.#.#.        X X X X 2 m m m b H H H H ",
"J J K T T T T T :                 #.#.#.#.#.#.#.#.g.x.x.x.j.#.#.#.#.#.#.#.#.j.x.x.x.g.#.#.#.#.#.#.#.#.                2 #.#.#.+.J H H H ",
"H H H H H H H H -                 #.#.#.#.#.#.#.#.g.x.x.x.j.#.#.#.#.#.#.#.#.j.x.x.x.g.#.#.#.#.#.#.#.#.                2 #.#.#.+.J H H H ",
"H H H H H H H H 7 9 9 9 p n n n n O O O O O O O O r d.d.d.d.#.#.#.#.#.#.#.#.d.d.d.d.r O O O O O O O O P P P P l.c.c.c.h.#.#.#.+.( / H H ",
"H H H H H H H H K ( ( ( [ #.#.#.#.                2 #.#.#.#.#.#.#.#.#.#.#.#.#.#.#.#.2                 Y Y Y Y n.W.W.W.b.#.#.#.@.) / J H ",
"/ / / / / / / / / ( ) _ [ #.#.#.#.                2 #.#.#.#.#.#.#.#.#.#.#.#.#.#.#.#.2                 Y Y Y Y n.W.W.W.b.#.#.#.@._ _ / / ",
"( ( ( ( ( ( ( ( ( ( ) ] ` * * * * G G G G h r r r 2 * * * * * * * * * * * * * * * * 2 r r r r r r r r Y Y Y Y :.;.;.;.&.#.#.#.@.] _ ( ( ",
"_ _ / / / / ( ( ) _ ]  .`         Y Y Y Y Q #.#.#.2                                 2 #.#.#.#.#.#.#.#.Y Y Y Y Y Y Y Y W #.#.#.@.] | | | ",
"] ] K H H H / ( _ ]  .$._         Y Y Y Y Q #.#.#.2                                 2 #.#.#.#.#.#.#.#.Y Y Y Y Y Y Y Y W #.#.#.@.] | $.$.",
"( / J H H H K T 8 6 6 8 6 ; ; ; ; ^ ^ ^ ^ f.t.t.t.x q q q q q q q q q q q q q q q q x t.t.t.e.5.5.5.5.Y Y Y Y L G G G E O.O.O.O.] |  . .",
"H H H H H H H H >       @ Y Y Y Y #.#.#.#.A.G.G.G.u.0.0.0.0.0.0.0.0.0.0.0.0.0.0.0.0.u.G.G.G.D.0.0.0.0.Y Y Y Y @       3 $.$.$.X.| ] ] ] ",
"H H H H H H H H >       @ Y Y Y Y #.#.#.#.A.G.G.G.u.0.0.0.0.0.0.0.0.0.0.0.0.0.0.0.0.u.G.G.G.D.0.0.0.0.Y Y Y Y @       3 $.$.$.X.| | _ _ ",
"H H H H 6 6 6 6 1 O O O - Y Y Y Y M M M M i.F.F.F.u.a.a.a.a.a.a.a.a.a.a.a.a.a.a.a.a.u.F.F.F.p.0.0.0.0.U U U U ; . . . 6 $.$.$.$.$...) ( ",
"J J H H # X X X S E.E.E.m.Y Y Y Y 8.8.8.8.q.D D D P.!.!.!.!.!.!.!.!.!.!.!.!.!.!.!.!.P.D D D q.0.0.0.0.! ! ! ! %.$.$.X.$.$.$.$.$.$...) ( ",
") ( J H .       A W.W.W.n.Y Y Y Y 0.0.0.0.2.#.#.#.P.~.~.~.~.~.~.~.~.~.~.~.~.~.~.~.~.P.#.#.#.2.0.0.0.0.#.#.#.#.%.>.>.>.*.$.$.$.$.$...) ( ",
"( ( K J .       A W.W.W.n.Y Y Y Y 0.0.0.0.2.#.#.#.P.~.~.~.~.~.~.~.~.~.~.~.~.~.~.~.~.P.#.#.#.2.0.0.0.0.#.#.#.#.%.>.>.>.*.$.$.$.$.$...) ( ",
"( ( ( / #       A W.W.W.Q.n.n.n.n.0.0.0.0.i.A.A.A.U.~.~.~.~.~.~.~.~.~.~.~.~.~.~.~.~.U.A.A.A.i.0.0.0.0.O O O O | >.>.>.*.$.$.>.>.$...) ( ",
"( ( ) ) #       A W.W.W.W.W.W.W.W.0.0.0.0.D.G.G.G.Y.~.~.~.~.~.~.~.~.~.~.~.~.~.~.~.~.Y.G.G.G.D.0.0.0.0.        ] >.>.>.*.$.$.>.>.X. .( ( ",
"( ( _ ] #       A W.W.W.W.W.W.W.W.0.0.0.0.D.G.G.G.Y.~.~.~.~.~.~.~.~.~.~.~.~.~.~.~.~.Y.G.G.G.D.0.0.0.0.        / $.$.$.$.$.$.$.o.T T ( ( ",
"( ( _ ] 6 < < < y d d d d d d d d ~ ~ ~ ~ L.G.G.G.J.T.T.T.Y.~.~.~.~.~.~.~.~.Y.T.T.T.J.G.G.G.L.~ ~ ~ ~         / $.$.$.$.$.$.$. .J J ( ( ",
"_ _ ] ] ] ] ] ] 1                 Y Y Y Y K.G.G.G.G.G.G.G.J.~.~.~.~.~.~.~.~.J.G.G.G.G.G.G.G.K.Y Y Y Y         6 / / / / / / / / / / ( ( ",
"] ] ] ] ] ] ] ] 1                 Y Y Y Y K.G.G.G.G.G.G.G.J.~.~.~.~.~.~.~.~.J.G.G.G.G.G.G.G.K.Y Y Y Y         5 H H H H H H H J ( ( ( ( ",
"] ] ] ] ] ] ] ] 6 $ $ # # # # # # L L L L F r.r.r.Z.G.G.G.G.R.R.R.R.R.R.R.R.G.G.G.G.L.k.k.k.-.Y Y Y Y # # # # 5 H H H H H J / / ( ( ( ( ",
"] ] ] ] ] ] ] ] ] ] ] ] _ ( ( ( (                 N G.G.G.A.#.#.#.#.#.#.#.#.A.G.G.G.=.Y Y Y Y Y Y Y Y 7 7 7 7 H H H H H H K ( ( ( ( ( ( ",
"] ]  . .| ] ] ] ] ] ] ] ] _ _ ) (                 N G.G.G.A.#.#.#.#.#.#.#.#.A.G.G.G.=.Y Y Y Y Y Y Y Y H H H H H H H H H H K ( ( ( ) _ _ ",
"] ] X.$.| ] ] ] ] ] ] ] ] ] ] ) (                 N H.H.H.S.m m m m m m m m A.H.H.H.=.Y Y Y Y I I I I H H H H H H J H H H K ( ( ( ) ] ] ",
"] ]  . .| ] ] ] ] ] ] ] ] _ _ _ _ T T T T T T T T < % % % % o o o o o o o o (.).).).`._._._./.+ + + + J J K K K K K K K K K / / ( ) ] ] ",
"] ] ] ] ] ] ] ] ] ] ] ] _ ( ) ] ] ] ] ] ] ] ] ] ] 1                         ^.'.'.'.'.'.'.'.^.        J J ( ( ( ( ( ) ( ( / H J ( ) ] ] ",
"] ] ] ] ] ] ] ] ] ] ] _ _ ) ) ] ] ] ] | | | | ] ] 1                         ^.'.'.'.'.'.'.'.^.        K J / ( ( ( ( ) ( ( / J K ) ) ] ] ",
"] ] ] ] ] ] ] ] ] ] _ ) ) ] ] ] ] ] ] $.$.$.$. .] ( 8 8 8 8 8 9 < 5 6 6 6 6 4 4 4 4 4 4 4 4 4 8 8 8 8 ) ( J J / ( ( ( ( ( ( ( ) ] ] ] ] ",
"_ _ ] ] ] ] ] ] ] ] _ ) _ ] ] ] | | | $.$.$.$. .| } _ _ _ _ _ _ J K ( ( ( ( .               # ] ] ] ] ) ) K J / / ( ( ( ( ) ) ) ] ] ] ] ",
"( ) _ ] ] ] ] ] ] ] ] ] ] ] ] ] | X.$.>.>.$.$.$.$.| ( ( ( ( ( ( ( ( ( ( ( ( .               # ] ] ] ] ] ] ) ( K J / ( ( ( _ ] ] ] ] ] ] ",
"( ( _ ] ] ] ] ] ] ] ] ] ] ] ] ] | X.$.>.>.$.$.$.$.| ( ( ( ( ( ( ( ( ( ( ( ( > - > 1 1 1 1 1 3 ] ] ] ] ] ] ) ( K H / ( ( ( _ ] ] ] ] ] ] "
};
