/* XPM */
static char *result[] = {
/* columns rows colors chars-per-pixel */
"64 64 3 1 ",
"  c #262B44",
". c #3A4466",
"X c #5A6988",
/* pixels */
"    XXXXXXXX............XXXX            XXXXXXXXXXXX........XXXX",
"    XXXXXXXX............XXXX            XXXXXXXXXXXX........XXXX",
"    XXXXXXXX............XXXX            XXXXXXXXXXXX........XXXX",
"    XXXXXXXX............XXXX            XXXXXXXXXXXX........XXXX",
"XXXX    XXXXXXXXXXXXXXXX    XXXXXXXX    XXXXXXXX................",
"XXXX    XXXXXXXXXXXXXXXX    XXXXXXXX    XXXXXXXX................",
"XXXX    XXXXXXXXXXXXXXXX    XXXXXXXX    XXXXXXXX................",
"XXXX    XXXXXXXXXXXXXXXX    XXXXXXXX    XXXXXXXX................",
"....XXXX    XXXXXXXX    XXXXXXXXXXXXXXXX    XXXXXXXX............",
"....XXXX    XXXXXXXX    XXXXXXXXXXXXXXXX    XXXXXXXX............",
"....XXXX    XXXXXXXX    XXXXXXXXXXXXXXXX    XXXXXXXX............",
"....XXXX    XXXXXXXX    XXXXXXXXXXXXXXXX    XXXXXXXX............",
"........XXXX        XXXXXXXX........XXXXXXXX    XXXXXXXX........",
"........XXXX        XXXXXXXX........XXXXXXXX    XXXXXXXX........",
"........XXXX        XXXXXXXX........XXXXXXXX    XXXXXXXX........",
"........XXXX        XXXXXXXX........XXXXXXXX    XXXXXXXX........",
"....XXXXXXXX    XXXXXXXX................XXXXXXXX    XXXXXXXX....",
"....XXXXXXXX    XXXXXXXX................XXXXXXXX    XXXXXXXX....",
"....XXXXXXXX    XXXXXXXX................XXXXXXXX    XXXXXXXX....",
"....XXXXXXXX    XXXXXXXX................XXXXXXXX    XXXXXXXX....",
"XXXXXXXX        XXXXXXXX....................XXXXXXXX    XXXXXXXX",
"XXXXXXXX        XXXXXXXX....................XXXXXXXX    XXXXXXXX",
"XXXXXXXX        XXXXXXXX....................XXXXXXXX    XXXXXXXX",
"XXXXXXXX        XXXXXXXX....................XXXXXXXX    XXXXXXXX",
"                XXXXXXXX........................XXXX            ",
"                XXXXXXXX........................XXXX            ",
"                XXXXXXXX........................XXXX            ",
"                XXXXXXXX........................XXXX            ",
"XXXX                XXXXXXXX....................XXXX        XXXX",
"XXXX                XXXXXXXX....................XXXX        XXXX",
"XXXX                XXXXXXXX....................XXXX        XXXX",
"XXXX                XXXXXXXX....................XXXX        XXXX",
"....XXXX                XXXXXXXX............XXXXXXXX    XXXX....",
"....XXXX                XXXXXXXX............XXXXXXXX    XXXX....",
"....XXXX                XXXXXXXX............XXXXXXXX    XXXX....",
"....XXXX                XXXXXXXX............XXXXXXXX    XXXX....",
"....XXXX    XXXXXXXXXXXX    XXXXXXXXXXXXXXXXXXXX    XXXX........",
"....XXXX    XXXXXXXXXXXX    XXXXXXXXXXXXXXXXXXXX    XXXX........",
"....XXXX    XXXXXXXXXXXX    XXXXXXXXXXXXXXXXXXXX    XXXX........",
"....XXXX    XXXXXXXXXXXX    XXXXXXXXXXXXXXXXXXXX    XXXX........",
"XXXX    XXXXXXXXXXXXXXXXXXXX        XXXXXXXX    XXXX............",
"XXXX    XXXXXXXXXXXXXXXXXXXX        XXXXXXXX    XXXX............",
"XXXX    XXXXXXXXXXXXXXXXXXXX        XXXXXXXX    XXXX............",
"XXXX    XXXXXXXXXXXXXXXXXXXX        XXXXXXXX    XXXX............",
"    XXXXXXXX............XXXXXXXX            XXXX............XXXX",
"    XXXXXXXX............XXXXXXXX            XXXX............XXXX",
"    XXXXXXXX............XXXXXXXX            XXXX............XXXX",
"    XXXXXXXX............XXXXXXXX            XXXX............XXXX",
"XXXXXXXX....................XXXXXXXX        XXXXXXXX....XXXX    ",
"XXXXXXXX....................XXXXXXXX        XXXXXXXX....XXXX    ",
"XXXXXXXX....................XXXXXXXX        XXXXXXXX....XXXX    ",
"XXXXXXXX....................XXXXXXXX        XXXXXXXX....XXXX    ",
"XXXX........................XXXXXXXX            XXXXXXXX        ",
"XXXX........................XXXXXXXX            XXXXXXXX        ",
"XXXX........................XXXXXXXX            XXXXXXXX        ",
"XXXX........................XXXXXXXX            XXXXXXXX        ",
"XXXX........................XXXXXXXX                            ",
"XXXX........................XXXXXXXX                            ",
"XXXX........................XXXXXXXX                            ",
"XXXX........................XXXXXXXX                            ",
"XXXXXXXX................XXXXXXXX            XXXXXXXXXXXXXXXX    ",
"XXXXXXXX................XXXXXXXX            XXXXXXXXXXXXXXXX    ",
"XXXXXXXX................XXXXXXXX            XXXXXXXXXXXXXXXX    ",
"XXXXXXXX................XXXXXXXX            XXXXXXXXXXXXXXXX    "
};
