/* XPM */
static char *rcp0205104854455[] = {
/* columns rows colors chars-per-pixel */
"64 64 3 1 ",
"  c #222222",
". c #483B3A",
"X c #775C55",
/* pixels */
"XXXXXXXX    XXXXXXXXXXXXXXXXXXXXXXXX    XXXXXXXXXXXX    XXXXXXXX",
"XXXXXXXX    XXXXXXXXXXXXXXXXXXXXXXXX    XXXXXXXXXXXX    XXXXXXXX",
"XXXXXXXX    XXXXXXXXXXXXXXXXXXXXXXXX    XXXXXXXXXXXX    XXXXXXXX",
"XXXXXXXX    XXXXXXXXXXXXXXXXXXXXXXXX    XXXXXXXXXXXX    XXXXXXXX",
"........    ........................    ............    ........",
"........    ........................    ............    ........",
"........    ........................    ............    ........",
"........    ........................    ............    ........",
"........    ........    ............    ........        ........",
"........    ........    ............    ........        ........",
"........    ........    ............    ........        ........",
"........    ........    ............    ........        ........",
"                                                                ",
"                                                                ",
"                                                                ",
"                                                                ",
"XXXX    XXXXXXXX    XXXXXXXXXXXXXXXXXXXXXXXX    XXXXXXXXXXXXXXXX",
"XXXX    XXXXXXXX    XXXXXXXXXXXXXXXXXXXXXXXX    XXXXXXXXXXXXXXXX",
"XXXX    XXXXXXXX    XXXXXXXXXXXXXXXXXXXXXXXX    XXXXXXXXXXXXXXXX",
"XXXX    XXXXXXXX    XXXXXXXXXXXXXXXXXXXXXXXX    XXXXXXXXXXXXXXXX",
"................    ........................    ................",
"................    ........................    ................",
"................    ........................    ................",
"................    ........................    ................",
"................    ........................    ....    ........",
"................    ........................    ....    ........",
"................    ........................    ....    ........",
"................    ........................    ....    ........",
"                                                                ",
"                                                                ",
"                                                                ",
"                                                                ",
"XXXXXXXXXXXXXXXXXXXXXXXXXXXX    XXXXXXXXXXXXXXXXXXXXXXXX        ",
"XXXXXXXXXXXXXXXXXXXXXXXXXXXX    XXXXXXXXXXXXXXXXXXXXXXXX        ",
"XXXXXXXXXXXXXXXXXXXXXXXXXXXX    XXXXXXXXXXXXXXXXXXXXXXXX        ",
"XXXXXXXXXXXXXXXXXXXXXXXXXXXX    XXXXXXXXXXXXXXXXXXXXXXXX        ",
"............................    ........................    ....",
"............................    ........................    ....",
"............................    ........................    ....",
"............................    ........................    ....",
"............    ............    ........................    ....",
"............    ............    ........................    ....",
"............    ............    ........................    ....",
"............    ............    ........................    ....",
"                                                                ",
"                                                                ",
"                                                                ",
"                                                                ",
"XXXXXXXX    XXXXXXXXXXXXXXXXXXXXXXXXXXXX    XXXXXXXXXXXXXXXXXXXX",
"XXXXXXXX    XXXXXXXXXXXXXXXXXXXXXXXXXXXX    XXXXXXXXXXXXXXXXXXXX",
"XXXXXXXX    XXXXXXXXXXXXXXXXXXXXXXXXXXXX    XXXXXXXXXXXXXXXXXXXX",
"XXXXXXXX    XXXXXXXXXXXXXXXXXXXXXXXXXXXX    XXXXXXXXXXXXXXXXXXXX",
"........    ............................    ....................",
"........    ............................    ....................",
"........    ............................    ....................",
"........    ............................    ....................",
"........    ....................    ....    ....    ............",
"........    ....................    ....    ....    ............",
"........    ....................    ....    ....    ............",
"........    ....................    ....    ....    ............",
"                                                                ",
"                                                                ",
"                                                                ",
"                                                                "
};
