/* XPM */
static char *rcp02551556339580[] = {
/* columns rows colors chars-per-pixel */
"62 62 204 2 ",
"   c #010101",
".  c #0B0606",
"X  c #060609",
"o  c #0A0A0A",
"O  c #0D0807",
"+  c #120606",
"@  c #130C0A",
"#  c #1A0C09",
"$  c #1C130F",
"%  c #0C0C13",
"&  c #0A0A16",
"*  c #141415",
"=  c #1B1817",
"-  c #130E16",
";  c #210E0A",
":  c #2A1616",
">  c #261716",
",  c #3A1111",
"<  c #331A18",
"1  c #20100C",
"2  c #3D2C17",
"3  c #111125",
"4  c #1E1D20",
"5  c #181829",
"6  c #191936",
"7  c #2E1E28",
"8  c #19232B",
"9  c #262529",
"0  c #3B2C26",
"q  c #2E2D32",
"w  c #322E33",
"e  c #333234",
"r  c #34333A",
"t  c #3C3A3C",
"y  c #3C353E",
"u  c #491B1B",
"i  c #511E1C",
"p  c #422E1C",
"a  c #4D2929",
"s  c #442823",
"d  c #5A2B2B",
"f  c #4D352A",
"g  c #43333A",
"h  c #48393B",
"j  c #563637",
"k  c #502F34",
"l  c #652B2B",
"z  c #682929",
"x  c #6A2525",
"c  c #782B2B",
"v  c #683838",
"b  c #683234",
"n  c #733D3D",
"m  c #7E3F3F",
"M  c #602F33",
"N  c #5A4636",
"B  c #6A4639",
"V  c #373640",
"C  c #383740",
"Z  c #3C3B43",
"A  c #282855",
"S  c #272753",
"D  c #272E4A",
"F  c #2E2E63",
"G  c #32326C",
"H  c #363467",
"J  c #383878",
"K  c #393874",
"L  c #413E44",
"P  c #4D3B44",
"I  c #6B3A46",
"U  c #793853",
"Y  c #49396C",
"T  c #3C4D6E",
"R  c #334653",
"E  c #434245",
"W  c #4D4143",
"Q  c #474649",
"!  c #48474A",
"~  c #4D4B4C",
"^  c #514F4F",
"/  c #554547",
"(  c #504E50",
")  c #545152",
"_  c #595555",
"`  c #5E595A",
"'  c #5C5857",
"]  c #6A4344",
"[  c #764243",
"{  c #794140",
"}  c #734D4C",
"|  c #645252",
" . c #6A5454",
".. c #615C5B",
"X. c #695C5C",
"o. c #63504F",
"O. c #66605F",
"+. c #494378",
"@. c #5A507C",
"#. c #564D7A",
"$. c #705675",
"%. c #6A5470",
"&. c #6A6463",
"*. c #852B2B",
"=. c #8A372F",
"-. c #85362E",
";. c #893939",
":. c #973434",
">. c #902A2A",
",. c #AD3434",
"<. c #A33A3A",
"1. c #BB3939",
"2. c #B73535",
"3. c #C03838",
"4. c #C83F3A",
"5. c #96403D",
"6. c #A74736",
"7. c #B34939",
"8. c #97653B",
"9. c #CD473C",
"0. c #D4493E",
"q. c #93394B",
"w. c #854B46",
"e. c #894F49",
"r. c #834945",
"t. c #8A5B48",
"y. c #93574D",
"u. c #9A5D52",
"i. c #875851",
"p. c #BC4446",
"a. c #95634D",
"s. c #9C6357",
"d. c #A87840",
"f. c #A57346",
"g. c #B57F4D",
"h. c #A86958",
"j. c #A46657",
"k. c #B5735F",
"l. c #B16F5C",
"z. c #BC5A63",
"x. c #88697B",
"c. c #9E7073",
"v. c #9C6F72",
"b. c #C54C4F",
"n. c #CB534B",
"m. c #DD5140",
"M. c #DA5B41",
"N. c #E75A43",
"B. c #EB5D45",
"V. c #E25542",
"C. c #F36447",
"Z. c #F86848",
"A. c #F76748",
"S. c #F16E55",
"D. c #CB686D",
"F. c #CA7076",
"G. c #F27A64",
"H. c #B58C6A",
"J. c #CB8569",
"K. c #C88568",
"L. c #D38C6D",
"P. c #C38471",
"I. c #D89170",
"U. c #D69776",
"Y. c #F58470",
"T. c #3F4681",
"R. c #4F4F89",
"E. c #414C81",
"W. c #47548A",
"Q. c #515180",
"!. c #715F81",
"~. c #51748D",
"^. c #B97483",
"/. c #618AA8",
"(. c #6A96B8",
"). c #6B96B8",
"_. c #70A0C0",
"`. c #9B8284",
"'. c #B2859A",
"]. c #8F8FB8",
"[. c #9997A7",
"{. c #B2A2BE",
"}. c #B490A7",
"|. c #C8808A",
" X c #DDAA82",
".X c #ECAE85",
"XX c #E2AF83",
"oX c #ECB88E",
"OX c #EEB286",
"+X c #F0B488",
"@X c #F2BA8E",
"#X c #C29DAF",
"$X c #C4A0B3",
"%X c #E1ADB3",
"&X c #F8C090",
"*X c #AAAACB",
"=X c #A5A5C4",
"-X c #B0B0D0",
";X c #BEBEDA",
":X c #D4B8C8",
">X c #EAD6DF",
",X c #E9C3C7",
"<X c #E8E8F8",
"1X c #E4E4F6",
/* pixels */
"^ ^ ^ ^ ^ ^ ^ ^ ^ ~ Q Q Q L V ~ ..O.&.O.......Q C Q Q Q Q Q Q Q Q Q ! ^ ^ ^ _ ......................( Q ~ ^ ^ ^ ^ ^ ^ ^ ! Q ",
") ) ) ) ) ) ^ ^ ^ ~ Q Q Q L V ~ ..X.&.O.....` Q C Q Q Q Q Q Q Q Q Q ! ^ ^ ) _ ......................( ! ~ ^ ^ ^ ^ ^ ^ ^ ! ! ",
"..........` Q E V Z Q Q Q L V y g / | | | P g P W W W W W W W W W W W / / | |  . . . .| | | | ..........~ Q ~ ^ ^ ^ ! Q ....",
"..........` ! Q C Z Q Q Q Z V k l l l l l l l l l l l l l l l l l l l l l l l l l l l l l l ] ..........~ Q ~ ^ ^ ^ ~ ! ....",
"&.&...........' ! Q Q E V V V k z z z z z z z z z z z z z z z z z z z z z z z z z z z z z z ] ..O.&.X...~ Q Q Q ~ ^ ....&.&.",
"&.&...........' Q Q Q L g g g M c c c -.=.=.=.=.=.=.=.=.=.=.=.=.=.=.=.=.=.=.=.=.=.=.-.c c c n o.|  ...' ~ Q Q Q ~ ~ ` ..&.&.",
"&.&..........._ V V V g d d d *.,.,.,.9.M.M.M.M.M.M.M.M.M.M.M.M.M.M.M.M.M.M.M.M.M.M.9.,.,.,.=.b b b P V E Q Q Q C V ` ..&.&.",
"` ` ' ' ' ' ' ( V V V g z z l :.3.3.3.N.Z.Z.Z.Z.Z.Z.Z.Z.Z.Z.Z.Z.Z.Z.Z.Z.Z.Z.Z.Z.Z.Z.N.3.3.3.:.z z z j C E Q Q Q Z C ) ' ` ` ",
"V V V V V V V V V V V g z z z :.3.3.3.N.Z.Z.Z.Z.Z.Z.Z.Z.Z.Z.Z.Z.Z.Z.Z.Z.Z.Z.Z.Z.Z.Z.N.3.3.3.:.z z z h Q Q Q Q Q Q Q C V V V ",
"V V V V V V V V V V V g z z z 7.C.C.C.A.Z.Z.Z.Z.Z.Z.Z.Z.Z.Z.Z.Z.Z.Z.Z.Z.Z.Z.Z.Z.Z.Z.A.C.C.C.7.z z z h E Q Q Q Q ! ! Z Z V V ",
"V V V V V V V V V V V g z z z 7.Z.Z.Z.Z.Z.Z.Z.Z.Z.Z.Z.Z.Z.Z.Z.Z.Z.Z.Z.Z.Z.Z.Z.Z.Z.Z.Z.Z.Z.Z.7.z z z h V E Q Q Q ~ ^ ! Q C V ",
"Z Z Z Z Z Z Z Z L L L j c c c 7.Z.Z.Z.Z.Z.Z.Z.Z.Z.Z.Z.Z.Z.Z.Z.Z.Z.Z.Z.Z.Z.Z.Z.Z.Z.Z.Z.Z.Z.Z.7.c c c j L P W ! Q ~ ~ E E Z Z ",
"Q Q Q Q Q Q Q j l z z *.3.3.3.m.Z.Z.Z.Z.Z.Z.Z.Z.Z.Z.Z.Z.Z.Z.Z.Z.Z.Z.Z.Z.Z.Z.Z.Z.Z.Z.Z.Z.Z.Z.m.3.3.3.*.z z l j Q Q Q C V Q Q ",
"~ ~ ~ ~ Q Q Q j l z z *.3.3.3.m.Z.Z.Z.Z.Z.Z.Z.Z.Z.Z.Z.Z.Z.Z.Z.Z.Z.Z.Z.Z.Z.Z.Z.Z.Z.Z.Z.Z.Z.Z.m.3.3.3.*.l z l j Q E L Z Z ~ ~ ",
"^ ^ ^ ^ Q Q Q h s u u x 3.3.3.0.N.N.N.C.Z.Z.Z.Z.Z.Z.Z.Z.Z.Z.Z.Z.Z.Z.Z.Z.Z.Z.Z.Z.Z.Z.C.N.N.N.0.3.3.3.x u u s h Q C V Q Q ^ ^ ",
"^ ^ ^ ^ ~ ~ Q w @ . . u 3.3.3.3.4.4.4.B.Z.Z.Z.Z.Z.Z.Z.Z.Z.Z.Z.Z.Z.Z.Z.Z.Z.Z.Z.Z.Z.Z.B.4.4.4.3.3.3.3.u . . @ w Q L Z Q Q ~ ~ ",
"^ ^ ^ ^ ^ ~ Q q X     , 3.3.3.3.3.3.3.N.Z.Z.Z.Z.Z.Z.Z.Z.Z.Z.Z.Z.Z.Z.Z.Z.Z.Z.Z.Z.Z.Z.N.3.3.3.3.3.3.3.,     X q Q Q Q Q Q Q Q ",
"^ ^ ^ ^ ^ ^ ~ e X     , 3.3.3.3.3.3.3.m.B.B.B.B.B.B.B.G.Y.Y.Y.Y.Y.Y.G.B.B.B.B.B.B.B.m.3.3.3.3.3.3.3.,     X 9 Z Z Z Q Q Q Q ",
"^ ^ ^ ^ ^ ^ ^ e X     , 3.3.3.3.3.3.3.4.4.4.4.4.4.4.n.%X>X>X>X>X>X>X%Xn.4.4.4.4.4.4.4.3.3.3.3.3.3.3.,     X 9 V V V Q Q Q Q ",
"~ ~ ^ ^ ^ ^ ^ e X     , 3.3.3.3.3.3.3.3.3.3.3.3.3.3.b.:X<X<X<X<X<X<X:Xb.3.3.3.3.3.3.3.3.3.3.3.3.3.3.,     X 9 V V V Z Z Q Q ",
"Q ! ^ ^ ^ ^ ^ e X     , 3.3.3.3.3.3.3.3.3.3.3.3.3.3.b.:X<X<X<X<X<X<X:Xb.3.3.3.3.3.3.3.3.3.3.3.3.3.3.,     X 9 V V V V V Q Q ",
"Q ! ^ t o     2 8.d.d.8.z z z x.-X-X-Xz.3.3.p.'.-X-X{.z.3.3.3.3.3.3.z.{.-X-X'.p.3.3.z.-X-X-Xx.z z z 8.d.d.8.2     X 9 V Q Q ",
"Q ! ^ t o     2 8.d.d.8.z z z x.-X-X-Xz.3.3.p.'.-X-X{.z.3.3.3.3.3.3.z.{.-X-X'.p.3.3.z.-X-X-Xx.z z z 8.d.d.8.2     X 9 C Q Q ",
"Q Q ! r o     p f.g.g.8.u u u %.].].].^.D.D.F.$X;X;X:X|.D.D.D.D.D.D.|.:X;X;X$XF.D.D.^.].].].%.u u u 8.g.g.f.p     X w E Z Z ",
"Q Q Q r o     f K.I.I.a.      6 J J J -X<X<X<X<X<X<X<X<X<X<X<X<X<X<X<X<X<X<X<X<X<X<X-XJ J J 6       a.I.I.K.f     X e Q C C ",
"Q Q Q r o     f K.I.I.a.      6 J J J -X<X<X<X<X<X<X<X<X<X<X<X<X<X<X<X<X<X<X<X<X<X<X-XJ J J 6       a.I.I.K.f     o e Q Q Q ",
"Q Q ! t 9 9 9 f t.t.t.B : : : P $.$.$.].*X*X*X*X*X*X*X*X*X*X*X*X*X*X*X*X*X*X*X*X*X*X].$.$.$.P : : : B t.t.t.0 * = = t Q Q Q ",
"Q ! ` ' ' ' ' h > $ $ < v v v u.P.P.P.!.R.R.R.R.R.R.R.R.R.R.R.R.R.R.R.R.R.R.R.R.R.R.!.P.P.P.u.v v v < $ $ $ 9 r r r E Q Q Q ",
"! ! ....&.&.&.h o     > { { I h.I.I.I.%.J J J J J J J J J J J J J J J J J J J J J J %.I.I.I.h.{ B B >     X 9 V V V Q Q Q Q ",
"! ! ....X.X.X.h o     : e.e.e.l.I.I.I.x.@.@.#.K F F H +.@.@.@.@.@.@.+.H F F K #.@.@.x.I.I.I.l.e.e.e.:     X 9 V V V C C Q Q ",
"! ! .. .[ { { a .     0 L.L.L.L.I.I.I..X@X@X XN     = H.@X@X@X@X@X@XH.=     N  X@X@X.XI.I.I.L.L.L.L.0     X 9 C V V V V Q Q ",
"Q ! .. .{ B B a .     s I.I.I.I.I.I.I.OX&X&XXXN     $ H.&X&X&X&X&X&XH.$     N XX&X&XOXI.I.I.I.I.I.I.s     X q Q C V V V C C ",
"W W |  .w.w.w.j - % % s K.K.K.L.I.I.I..X@X@XU.B @ @ < H.&X&X&X&X&X&XH.< @ @ B  X@X@X.XI.I.I.L.K.K.K.s o o % e ! Z C V V V V ",
"{ { { y.J.L.L.v.Y J J Y { { { h.I.I.I.I.I.I.L.u.n n w.U.&X&X&X&X&X&XU.w.n n u.L.I.I.I.I.I.I.h.{ { { W Q Q Q ~ ^ ! Q C V V V ",
"{ { { y.J.I.I.c.+.J J Y { { B h.I.I.I.I.I.I.L.u.{ { w.U.&X&X&X&X&X&XU.w.{ { u.L.I.I.I.I.I.I.h.{ { { W Q Q ! ~ ^ ! ! C C V V ",
"{ { { y.J.I.I.c.+.J J H a a a B t.t.t.h.k.k.k.j.u.u.h.U..X.X.XOX.X.XU.h.u.u.j.k.k.k.h.t.t.t.B a a a g C ! ^ ! ! ~ ^ Q Q C V ",
"{ { { y.J.I.I.c.Y J J A . . . O @ @ @ j { { w.k.L.L.L.I.I.I.I.I.I.I.I.L.L.L.k.w.{ { j @ @ @ O . . . q C ~ ^ ! ! ^ ^ ! ! C C ",
"{ { { y.J.I.I.c.+.J J S               d { { r.k.I.I.I.I.I.I.I.I.I.I.I.I.I.I.k.r.{ { d               e Q ~ ^ ^ ^ ^ ^ ^ ^ Q Q ",
"] ] ] } t.a.a.} A S S D 3 3 3 > , , , l n n n e.a.a.a.a.a.a.a.a.a.a.a.a.a.a.y.5.;.;.b 3 3 3 3 3 3 3 9 e r t Q ^ ^ ^ ^ ^ ( ( ",
"^ ^ Z w $ @ @ @ X X X 3 G G G U ,.,.,.c z z l < @ @ @ @ @ @ @ @ @ @ @ @ @ @ i ,.1.1.q.G G G G G G G 3 X o o r ^ ^ ^ ^ ^ ....",
"Q Q V 9 X             3 J J J U 3.3.3.*.z z d ;                             u ,.3.3.q.J J J J J J J 3     o r _ _ ' ^ ^ ' ' ",
"V V V q o X X X X . o 5 K K K U 3.3.3.*.z z x , + + + @ % % % % % % @ + + + u ,.1.1.q.+.+.+.+.+.+.+.5 . . @ h ......) ^ ^ ^ ",
"V V V r r r r C ~ ^ ' | [ [ [ :.3.3.3.1.1.1.1.2.2.2.p.'.=X=X=X=X=X=X'.p.2.,.<.;.{ { s.oXoXoXoXoXoXoXs.n n n | ......' ' ~ ~ ",
"V V V V V V V Z ^ ) .. .{ { { :.3.3.3.3.3.3.3.3.1.1.p.}.-X-X-X-X-X-X}.p.1.1.<.m { { s.&X&X&X&X&X&X&Xs.{ { {  ...........! Q ",
"Z Z V V V C E Q ~ ~ ~ / j j j c >.>.>.,.3.3.3.9.9.9.n.#X;X;X;X;X;X;X#Xn.9.9.7.5.{ { s.+X+X+X+X+X+X+Xs.{ { {  ...........! Q ",
"Q Q V V V Z ^ ~ Q E V e . . O + + + + >.1.3.4.V.C.C.S.,X1X1X1X1X1X1X,XS.C.C.n.r.{ { y.U.U.U.U.U.U.U.y.{ { {  ...........! Q ",
"Q Q Z L E Q ~ ! Q Q Z q               *.1.3.4.V.Z.Z.G.,X<X<X<X<X<X<X,XG.Z.Z.n.r.{ { y.I.I.I.I.I.I.I.y.{ { {  ...O.O.....! Q ",
"Q Q Q ! ^ ~ Q Q Q Q ! q       5 D D D I q.q.q.5.6.6.6.`.[.[.[.[.[.[.`.6.6.6.-.d a a B k.k.k.k.k.k.k.i.} } }  ...&.&.....! Q ",
"Q Q ~ ~ ^ ^ ~ ~ Q Q Q e       R /././.Q.Y Y Y 7 ; ; 1 = 4 4 4 4 4 4 = 1 ; ; # @ @ @ < w.w.w.w.w.w.w. .X.X.X.....X.O.~ ~ Q Q ",
"Q ! ^ ^ ^ ^ ^ ~ Q Q Q e       T _._._.W.J J G 5                                     > { { B I { { I / ..............Z V Q Q ",
"~ ~ ^ ^ ^ ^ ^ ^ ~ ~ Q r * * * R ~.~.~.W.W.W.E.D 8 8 8 3 & & &               X o * * 7 ] ] ] ] ] I I P Q Q Q Q Q Q E E E Q Q ",
"^ ^ ^ ^ ^ ^ ^ ^ ^ ~ Q Q E ! ~ 9 X X X ~.(.(.(.).).)./.E.K K K               * Z E E E ! ! ! L C C C C y V C C V V V Q Q Q Q ",
"^ ^ ^ ^ ^ ^ ^ ^ ^ ^ ~ ~ Q ! ! 9       ~._._._._._._.(.W.J J J               = E Q Q Q Q E Z C V V V V V V V V V E E Q Q Q Q ",
"^ ^ ^ ^ ^ ^ ^ ^ ^ ^ ^ ~ Q Q Q 9       W.(.(.(.(.(.(./.T H H H o o o o X o o 9 E Q Q Q Q L V V V V V V V V V V V Q Q Q Q Q Q ",
"^ ) ` ` ^ ^ ^ ^ ^ ^ ^ ^ ~ ~ Q 9       F T.T.T.T.T.T.K 5 % % % E E r r t t t E Q E C C C C V V V V V V V V V V V Q Q Q Q ~ ~ ",
"^ ) ....^ ^ ^ ^ ^ ^ ^ ^ ^ ~ Q 9       S J J J J J J G 3       ^ ~ C C Q Q Q Q Q E V V V V V V V V V V V V V V V Q Q Q Q ^ ^ ",
"^ ^ ) ) ^ ^ ^ ^ ^ ^ ^ ~ ! ~ ~ e = = = D A A A A A A S 4 = = = Z Z E Q Q Q Q E C E ~ ~ ~ ! Q Z V Z Q Q Q Q Q Q Q Z C Q Q ^ ^ ",
"^ ^ ^ ^ ^ ^ ^ ^ ^ ^ ^ ~ Q ~ ^ ! E E E 4 & & & & & & - t ^ E E C C Q Q Q Q Q E V E ^ ^ ^ ~ Q Z V L Q Q Q Q Q Q Q C V Q Q ^ ^ ",
"^ ^ ^ ^ ^ ^ ^ ^ ^ ~ ! ~ ^ ^ ^ ^ ^ ' ..=             o t ^ Z C Q Q Q Q Q Q C L ~ ^ ^ ^ ^ ^ ^ ~ Q Z C E Q Q Q Q Q Q Q ~ ^ ^ ^ ",
"^ ^ ^ ^ ^ ^ ^ ^ ^ ~ Q ! ^ ^ ^ ^ ^ ' ..q = = = = = = = E ~ C C Q Q Q Q Q Q C L ^ ^ ^ ^ ^ ^ ^ ~ Q Z V E Q Q Q Q Q Q Q ^ ^ ^ ^ ",
"! ! ^ ^ ^ ^ ^ ^ ^ ^ ^ ^ ^ ^ ^ ' ` O.&.` ) ) ) ! E E E Q Q Q Q Q Q Q Q C Z ~ ^ ^ ^ ^ ^ ^ ^ ^ ^ ^ ~ Q Z C E Q Q Q ~ ^ ^ ^ ^ ^ ",
"Q ! ^ ^ ^ ^ ^ ^ ^ ^ ^ ^ ^ ^ ^ ' ..O.&.X.......( Q Q Q Q Q Q Q Q Q Q Q C C ^ ^ ^ ^ ^ ^ ^ ^ ^ ^ ^ ~ Q Z V E Q Q Q ~ ^ ^ ^ ^ ^ "
};
