/* XPM */
static char *rcp0255316103499[] = {
/* columns rows colors chars-per-pixel */
"68 68 255 2 ",
"   c #030102",
".  c #0B0101",
"X  c #03030A",
"o  c #0B030B",
"O  c #0A0905",
"+  c #140001",
"@  c #1A0101",
"#  c #180808",
"$  c #050314",
"%  c #1B130E",
"&  c #250100",
"*  c #280707",
"=  c #251209",
"-  c #340E17",
";  c #281516",
":  c #391717",
">  c #2E0B0E",
",  c #362310",
"<  c #040825",
"1  c #11132F",
"2  c #23192D",
"3  c #272837",
"4  c #373639",
"5  c #322D32",
"6  c #1F2A33",
"7  c #480904",
"8  c #56130C",
"9  c #581415",
"0  c #4A130E",
"q  c #771D19",
"w  c #6B1E1B",
"e  c #47221A",
"r  c #522919",
"t  c #67281E",
"y  c #74241D",
"u  c #7A211B",
"i  c #6C331F",
"p  c #481E24",
"a  c #781D23",
"s  c #6C1E23",
"d  c #472927",
"f  c #5A2A29",
"g  c #59352A",
"h  c #572E35",
"j  c #483634",
"k  c #593535",
"l  c #4C3331",
"z  c #642524",
"x  c #612B26",
"c  c #632B2A",
"v  c #6B2827",
"b  c #732423",
"n  c #772829",
"m  c #693528",
"M  c #743A2A",
"N  c #683837",
"B  c #733D3C",
"V  c #783937",
"C  c #6C2D34",
"Z  c #774817",
"A  c #6C4713",
"S  c #5E4738",
"D  c #78482A",
"F  c #6B4839",
"G  c #74423C",
"H  c #784337",
"J  c #704C31",
"K  c #776735",
"L  c #211D49",
"P  c #373640",
"I  c #383741",
"U  c #3C3B43",
"Y  c #3B394C",
"T  c #3A385A",
"R  c #2F2B4F",
"E  c #3A3767",
"W  c #343A6D",
"Q  c #403E46",
"!  c #48354B",
"~  c #473757",
"^  c #593B57",
"/  c #55314A",
"(  c #693A44",
")  c #773C47",
"_  c #683955",
"`  c #763D51",
"'  c #453765",
"]  c #45346A",
"[  c #3F424A",
"{  c #354269",
"}  c #2E4070",
"|  c #434246",
" . c #474649",
".. c #48474A",
"X. c #4C4B4C",
"o. c #4B4541",
"O. c #514F4F",
"+. c #5C4844",
"@. c #4E4B51",
"#. c #494957",
"$. c #514E52",
"%. c #53405C",
"&. c #545153",
"*. c #5A5656",
"=. c #5C5857",
"-. c #5D5A5B",
";. c #5A565B",
":. c #53514B",
">. c #694746",
",. c #744443",
"<. c #7B4242",
"1. c #774649",
"2. c #695447",
"3. c #694955",
"4. c #744455",
"5. c #615C5B",
"6. c #685B5D",
"7. c #78585B",
"8. c #76544A",
"9. c #68615B",
"0. c #776751",
"q. c #565265",
"w. c #655C62",
"e. c #6B4F69",
"r. c #696463",
"t. c #676666",
"y. c #796567",
"u. c #766E72",
"i. c #747374",
"p. c #787476",
"a. c #6E6F71",
"s. c #881C14",
"d. c #8A231D",
"f. c #862827",
"g. c #89362A",
"h. c #97382C",
"j. c #853938",
"k. c #983838",
"l. c #952A2F",
"z. c #A23A2B",
"x. c #A7372A",
"c. c #BC3A2B",
"v. c #A93B37",
"b. c #BD3535",
"n. c #BC3B34",
"m. c #BC363A",
"M. c #B43C3B",
"N. c #BC3B3B",
"B. c #B53936",
"V. c #AA2D36",
"C. c #811E23",
"Z. c #C4382D",
"A. c #C33535",
"S. c #C33A34",
"D. c #C4353A",
"F. c #C23A3B",
"G. c #CA393A",
"H. c #82481E",
"J. c #844A2A",
"K. c #99463A",
"L. c #8E4D34",
"P. c #B55429",
"I. c #AB423D",
"U. c #A74438",
"Y. c #B5423A",
"T. c #AF4F2D",
"R. c #B76D38",
"E. c #A5481D",
"W. c #D04936",
"Q. c #E65C3E",
"!. c #F5633D",
"~. c #893A43",
"^. c #B93D42",
"/. c #AA3E42",
"(. c #C43B42",
"). c #994847",
"_. c #875948",
"`. c #904A56",
"'. c #AC4443",
"]. c #A74647",
"[. c #B84343",
"{. c #A84D52",
"}. c #986847",
"|. c #986B55",
" X c #9B7659",
".X c #956F4C",
"XX c #A77858",
"oX c #AE744F",
"OX c #836B6B",
"+X c #977666",
"@X c #8B7573",
"#X c #877575",
"$X c #8E736F",
"%X c #A57A69",
"&X c #D54F47",
"*X c #EC5B4B",
"=X c #E65C47",
"-X c #F95F45",
";X c #CC7155",
":X c #EB6748",
">X c #F56545",
",X c #FB6645",
"<X c #F56A45",
"1X c #F96946",
"2X c #F5664B",
"3X c #FB654A",
"4X c #F5694B",
"5X c #FA694B",
"6X c #E66C5B",
"7X c #EA6A57",
"8X c #F26A53",
"9X c #F76853",
"0X c #F97152",
"qX c #DB736B",
"wX c #B89739",
"eX c #B29035",
"rX c #9B8137",
"tX c #C39A35",
"yX c #C9A93B",
"uX c #998356",
"iX c #B98849",
"pX c #B89648",
"aX c #BA8957",
"sX c #B69659",
"dX c #AA9251",
"fX c #AF8D70",
"gX c #9F9273",
"hX c #C7904F",
"jX c #D1B951",
"kX c #D1AF4E",
"lX c #C9927C",
"zX c #D59479",
"xX c #C88F6F",
"cX c #FBBC6A",
"vX c #FCB976",
"bX c #D3A569",
"nX c #F4DA5C",
"mX c #F9D659",
"MX c #F6D456",
"NX c #FDC967",
"BX c #F8D666",
"VX c #FDC575",
"CX c #FDD478",
"ZX c #F8E064",
"AX c #6F7789",
"SX c #596B93",
"DX c #A07B84",
"FX c #7D95A8",
"GX c #768DB3",
"HX c #909A8D",
"JX c #B38D8E",
"KX c #849BAC",
"LX c #9597A1",
"PX c #C59587",
"IX c #CB9390",
/* pixels */
"O.O.O.O.O.O.O.O.O.O.X. . . . .I U =.5.r.r.5.5.5.5.X.P U  . . . . . . . . . .O.O.O.O.*.5.5.5.5.5.5.5.5.5.5.5.5.X. .X.O.O.O.O.O.O.O.X. . .",
"O.O.O.O.O.O.O.O.O.O.X. . . . .I U =.5.r.r.5.5.5.5...I U  ... . . . . . . . .O.O.O.O.*.5.5.5.5.5.5.5.5.5.5.5.5.X...X.O.O.O.O.O.O.O.X.....",
"-.-.-.-.-.-.$...| U |  . . . .I I U Q 5.5.5.5.$.Q | |  ..... . . . . . . . .O.O.*.-.5.r.r.r.r.5.5.5.5.5.5.5.5.-.=.O...X.O.O.O.O...X.*.=.",
"5.5.5.5.5.5.$...| I U  . . .| I P P P =.-.-.-.X.P |  . . . . . . . . . . . .O.O.=.5.9.r.r.r.r.5.5.5.5.5.5.5.5.5.5.$. .X.O.O.O.O...X.5.5.",
"r.r.5.5.5.5.-.-.$. . . .| I I P P P P U Q Q Q I P |  . . . . . . . . . .U I  ...*.5.9.r.t.t.r.5.5.5.5.5.5.r.r.5.5.$. .....X.O.&.-.-.r.r.",
"r.r.5.5.5.5.5.5.&. . . .| P P P P r.y.y.y.y.y.OXOX$X@X@X@X@X@X@X@X@X@X@X@XOX@X@X@X@X@X@X@X@X@X@X#X#Xu.5.5.r.r.5.5.$. . . .X.O.&.5.5.r.r.",
"r.r.5.5.5.5.5.5.$.U U U I P P P I l f c c c f f c c c c c f f f x x x x x x x x x x c c c c c f g l l 5.5.5.5.@. . . . . . .|  .5.5.r.r.",
"r.r.5.5.5.5.5.5.@.P P P P P P P I k v n n w b y y u u y y y y y y y y y y y y y y y b y b b b b z f N r.5.5.5.| P |  . . .| P Q -.5.r.r.",
"&.&.$.@.@.@.@.@.| P P P P $.$.;.w.V f.f.l.h.z.h.z.x.x.x.z.z.z.z.z.z.z.z.z.z.z.z.v.z.z.v.z.z.z.f.f.n V @XOXu.u...U |  . . .| U | X.$.&.&.",
"P P P P P P P P P P P P I j l h z ).'.v.Y.6X6X6X6X7X6X7X6X6X7X7X6X6X6X6X6X6X6X6X6X6X6X6X6X6X=XY.I.'.{.s c h l -. . . . . . . . .I P P P ",
"P P P P P P P P P P P P U k f c n {.x.n.n.:X7X7X7X8X8X8X4X4X4X4X4X8X8X8X8X8X8X8X8X8X8X8X8X8X=Xc.Y.v.v.b n f k -.|  . . . .......U U P P ",
"P P P P P P P P P P P P | f c v y U.B.W.Z.*X4X:X4X2X2X2X4X<X1X,X2X2X2X2X2X2X2X2X2X4X2X2X2X8X*XW.c.B.v.f.b z h $.P |  . . .X.O.O...| I P ",
"U U U U U U U U U U U U @.f C b u ;X6X*X2X1X<X5X1X1X2X4X1X1X,X,X3X1X1X1X1X1X1X1X<X5X2X2X2X5X2X=X8X7X6Xd.w z N w.U |  . . ...X.X.| | U U ",
" . . . . . . . . . . . .*.c w y q 6X=X9X5X>X!.<X<X1X2X2X1X1X,X,X,X1X<X<X1X1X1X1X<X5X5X5X5X3X5X5X9X:X6Xs.u v f 5. . . . . . . . .I I  . .",
"........ . . . . ..... .;.c b f.s.6X8X0X>X,X5X>X1X3X2X2X4X2X3X3X3X3X,X,X,X,X,X,X>X1X,X,X3X>X3X5X1X4X7Xs.u n 9 w... . . . . . .| I U ....",
"O.O.O.O... . . .t.6.y.7.8.).k.h.x.7X9X5X>X,X!.,X,X3X2X2X9X2X2X2X3X3X3X,X1X<X<X<X1X5X,X,X5X3X5X5X1X5X7Xx.h.K.)._.7.7.6.t. .| I I  ...O.O.",
"O.O.O.O....... .u.l N z n ].[.N.c.8X8X2X5X!.,X,X,X3X9X9X9X9X2X2X2X3X3X3X2X<X<X<X<X<X>X3X3X3X2X2X5X:X8Xn.M./.].f.n f k y. .| I U  ...X.X.",
"O.O.O.O.O.O... .u.f c v f.I.M.b.S.8X8X2X4X1X,X,X3X5X9X9X8X4X5X5X3X3X3X5X5X1X<X<X:X<X,X3X3X2X0X4X0X2X7Xn.m.M./.f.b z h y. . . . . . .....",
"O.O.O.O.O.O... .u.h c v f.I.N.F.A.&X&XW.W.2X5X,X1X1X2X1X>X>X<X<X1X,X,X3X3X1X<X<X<X1X,X3X-X3X2XW.W.W.&Xn.n.M.M.f.n v k y....... . . . . .",
"O.O.O.O.O.O.O.O.#Xh f t f.v.N.G.A.G.S.Z.c.=X2X2X4X5X5X5X1X<X<X<X<X1X3X3X3X3X5X1X5X,X3X3X3X5X:XZ.c.Z.S.n.S.m.v.f.b z g r.I I I I  . . . .",
"O.O.O.O.O.O.O.O.#Xh f v n I.m.A.G.D.A.S.c.:X8X8X4X4X2X3X1X<X<X<X<X2X3X3X3X3X3X2X2X2X2X9X9X9X:Xc.n.F.A.b.n.B.'.f.v c g w.P P P I ...... .",
"....O.O.O.O.O.O.#Xd e r t I.m.D.D.A.A.S.S.=X=X=X=X=X=X=X=X=XQ.Q.=X=X=X*X*X*X*X*X*X*X*X*X=X=X&XS.m.F.A.S.n.M.'.w 9 e : 5.P P P I U U .. .",
" . .X.O.O.O.O.O.y.+ @ & 7 K.M.F.F.F.F.D.A.S.S.S.S.S.S.Z.Z.Z.Z.Z.c.c.n.Z.S.S.S.S.Z.Z.Z.S.Z.A.G.b.N.(.A.F.n.v.).7 & @ + -.P P P P P I  . .",
" . .X.O.O.O.O.O.u.. + + * ).[.m.m.F.D.A.G.A.A.F.S.F.D.D.D.D.D.S.n.n.n.n.S.F.F.F.F.F.A.F.F.A.F.D.(.F.b.n.n.I.).* @ + . -.P P P P P I  . .",
" . .X.O.O.O.O.O.u.o . . * _.'.M.M.N.N.G.A.A.A.G.b.F.b.D.(.D.b.(.F.S.b.m.(.m.F.F.b.F.F.n.b.m.m.F.(.N.b.n.Y.].`.* + . O -.P P P P P I  . .",
" . ...X.O.O.O.O.u.o   . = c f.d.d.v.m.(.G.G.D.b.F.W.b.D.(.D.&X(.m.F.F.N.N.(.m.m.F.F.n.n.n.N.N.N.m.N.M.d.f.y C > . O   -.P P P I | Q U U ",
" . . ...O.O.O.O.i.. % O # f b q q '.M.m.b.D.F.n.B.n.n.F.F.B.[.V.^.N.M.M.B.&XN.G.S.b.n.n.n.n.n.N.N.M.[.s.u v c @ . O   -.P P P I  .| I P ",
" . . ...&.*.*.-.#X. . . @ g v y y ).'.^.m.F.N.B.n.W.n.n.m.M.'.'.'.'.].'.'.I.M.B.n.S.S.S.n.n.m.M.Y.v.I.b b v f @ + . . r.P I U U  . .U U ",
" . . ...t.o.:.:.+.2.2.8.8.N V V V n f.l.l.M.M.Y.B.n.S.n.M.h.7 7 7 7 7 7 7 8 h.Y.n.S.S.A.b.N.B.l.f.g.n V B N N 8.F 2.2.+.o. .$.-. . . . .",
" . ...X.U   O . g +X X%X|.F G B <.z s a C.v.v.v.Y.n.b.m.v.k.& & @ @ @ @ & & g.'.N.F.F.D.n.[.V.s.q b z G 1.G H |.XX X+Xg .     4  . . . .",
" ...=.5.U     + g |.XXXX|.H G G 1.C v b b k.].'.M.m.m.^.].~.& + + + + . + & V ].^.m.N.M.v.].k.b v t C ( >.,.H }.oX.X Xg . .   4  . . . .",
" ...=.5.4   O . m fXaXXXXXe e p p N C V n j.j.k.l.V.V.V.k.C : ; ; ; ; ; > : C j.k.l.k.k.g.j.j.C M N N d d e e XXaXaXfXg . O   4 |  . . .",
" ...=.5.4 O . + J lXzXxX%X+ + + + 7.( B j.n b a a a a a b v N f h h h f c v v b n a b y y t v <.<.G >.@ + + & %XlXzXPXF . O   4 P I  . .",
" ...=.5.4 . . + F lXlXPX$X. + . # >.F ,.H v v n v v b t t v m c c c c z z z v v v v v v t v m <.B ,.>.+ . . + +XPXPXJXF .     4 P I  . .",
" ...=.5.o.# @ & N fX%XgXy.  . . . >.8.,.B m v c x x M m M M v C v v C C m t M i M M m t t x m B B 1.>.+ .   . 0.%X+XgX2.5 4 5 @.P I I I ",
" ...*.5.y.S >.>.e @ & @ O     . # >.N B <.<.) G H _.XXXXXX|.V V H V B B B M .XXXXX X_.H H G B <.<.1.>.+ o o . % # + . t.X. .P P P P P P ",
"I I Q Q OX>.>.>.d @ + .       . . >.>.1.) ) ) B H _. X.X.X|.V L.H G 1.1.<.D }.}.oXXX_.G G <.B <.G ,.>.+ o     .   O O r.O.X.| | I P P P ",
"P P I I OX,.,.,.e + @ + . X $   . >.>.>.( 1.1.1.G _.uXXX X|.V H H G ) ) <.H }.oXoXXX_.B ,.1.,.1.1.>.+.. . o # .       r.O.X. . .I P P P ",
"P P I I y.,.<.G _.%X+X%XOX5 I P 4 ; # # % # # * & r J J J H B <.G <.1.` ) H J.J.D H r > > * # # * + = j +.j / w.$.-.9.&.....O.X. .| P P ",
"P P I U y.,.G B |.PXJXJXJX~ ~ ~ ~ X o . . . . . + e 2.F F F B <.G ,.` ` ` <.H D H G : @ + . . . o . . +.+.>.+.@.P ..O.X. ...O.O...| I P ",
"| | | X.OX,.<.B +XIXJXJXLX' ] ' ~ $ o . . . . + @ p >.8.>.>.1.( >.>.4.4.4.1.,.G ,.1.: + + .   $ $ $   O.2.2.+.&.| X.O.X.X.X.O.O.X.X.| | ",
" . ...X.y.B ,.1.7.7.7.e.e.] ] ] ' I ! d d d d d h p - - > > : - > ; ; - - - - - - - : d d 5 4 3 R L 3 2 ; = : -. .X.O.O.O.O.O.O.O.X. . .",
"X.X. . .y.,.4._ ^ ! ~ ' E ] ] ] T q.4.) G H ,.>.>.e @ @ @ . + + . . . . . . + + + + : 2.S +.3.! ~ T ~ X o . . w. .X.O.O.O.O.O.O.O.&.&.&.",
"O.O.U I y.>.3.3.%.~ T E W W E E ~ e.) j.j.M H F F e & @ + + @ @ + + + + @ @ @ @ + @ : F J F >./ ~ ' ~ $ $ X X -. .X.O.O.O.O.O.O.O.&.5.5.",
" .| I I u.OX#XAXe.L L L R W W ' ^ 4.~.k.K.L.}.}._.M 8 8 0 8 9 9 8 8 8 9 9 9 9 9 0 9 m L.}.}._.( _ ^ ~ 2 1 1 1 a.i.i.u.t.*.*.*.*.O.&.*.*.",
"P P P P P P I I a.$ $ < 1 W E ' / `.].'.U.;XaXsXxX}.L.K.U.I.]./.I.I.I.I.I.'.].].).K.oXxXxXxX%X,.4._ e.~ T E T 1 X X   a.5.5.5.-.&.O.O.O.",
"P P P P I I P P t.. o o < T E ! / `.'.Y.T.;XaXaXhXR.E.E.T.U.I.I.U.U.Y.Y.Y.Y.U.U.U.E.R.hXiXaXXXH B ( e.~ T E ' $ o .   a.5.5.5.-.&.&.X.X.",
"P P P I I I I I t.; ; ; 3 ! ~ / C {.v.M.T.;XaXaXoXR.P.P.P.P.P.P.P.P.P.P.P.P.P.P.P.P.R.hXiXaXXXD J.V ` / ' ' T 2 * * = u.t.r.t.5.5.=... .",
"I I P P P P I I  .-.5.t.p.3.( 4.~.).[.m.Y.h.J.J.J.hXvXVXNXcXNXcXcXcXVXcXVXcXcXcXVXvXiXH.J.J.K.K.U.].`./ ' E ~ DXfXfXfX2.; % 5 :.5.=... .",
".. .I P P P ..&.X. .| P w.3.>.) ~.k.m.F.Y.h.J.D Z hXVXNXmXnXBXBXBXNXBXBXBXBXNXNXNXCXiXZ D g.h.I.v./.`._ ^ ~ ! JXPXzXPX>..     j 5.=... .",
" . .U I I I ..O.X. .| I ;.+.3.1.j.].M.[.z.g.D A Z iXCXBXnXmXmXmXmXmXBXBXBXmXmXmXmXBXwXZ Z H.h.U.Y.v.~.C / j k fXxXzXlXF . o   j 5.=... .",
" . . .| ..X....... . .| w.% ; & 7 K./.[.U.oXaXdXrXkXBXBXmXmXMXmXMXmXnXnXnXMXMXMXMXMXkXrXoXoX;XU.M.I.{.qXDXJX%XPXzXzXlX>..     o.5.=... .",
" . .....O.O.X... . . . .-.. . + & ).{.].U.;XpXpXpXjXBXBXnXmXMXmXMXmXnXnXnXnXmXmXmXnXjXpXiXhX;XU.I.'.).IXIXIXPXlXzXzXlX>.O X   4 -.*. . .",
" . .X.O.O.O.O.O.X. . . .-.  . . & `.`.).K.hXwXwXwXjXBXBXnXnXBXMXmXmXnXnXnXZXMXmXnXBXjXeXpXhX;XK.).).`.IXPXPXPXlXzXlXPXS       | Q Q  . .",
" . .X.O.O.O.O.O.X. . . .-.    . . ^ _ ` V oXwXwXeXkXkXkXyXjXBXmXMXMXmXMXnXBXjXkXyXkXyXwXpXsXoXM ) ` ( ( k k N m m x F 9.i.i.i.a.I I  . .",
"X.X.O.O.O.O.O.O.O.X.X. .-.      X ~ ^ / c XXpXwXwXwXwXwXwXyXBXBXmXmXBXnXBXBXtXtXtXwXwXwXdXsXXXg / ^ / # + + + + @ + + 9.| | | | | |  . .",
"O.O.O.O.O.O.O.O.O.O.X. .-.    X $ %.E ' / $XfXdXpXpXpXwXwXyXCXBXBXBXCXCXCXCXhXtXwXwXwXdXsXfX Xl ! ~ ! o o . . . . o . -.P P P I  . . . .",
"O.O.O.O.O.O.O.O.O.O.O.X.*.@. .@.#.T E E ~ u.$X XuXuXsXeXwXhXkXbXbXbXbXbXbXbXhXwXtXwXrXK K 0.9.5 5 3 P #... . .......| ;.P I | |  . . . .",
"O.O.O.O.O.O.O.O.O.O.O.O.X. . . .X.R E q.E T Y Q j 0.sXpXpXrXZ Z A D D D D Z iXhXwXpXA @ # . O   X X X P P P P P P 4 4 P P U  . . . . . .",
"O.O.*.*.&.O.O.O.O.O.O.O.O.X.X... .#.T T W { { T [ r.gXdXdXdXD J J J F N G D aXiXsXsXS + .   X X   o   P P P P P P P 4 P P U  . . ...X.X.",
"O.O.-.5.&.O.O.O.O.O.O.O.$.O.O... .Y Y { W } } { T a.HXgXgXuXS 2.F >.>.>.F S uXsXdXfXS . . o O     o o P P P P P P I P P P U  . . ...O.O.",
"O.O.*.*.&.O.O.O.O.O.O.O.O.X.X.X.X.X $ < < SXGXGXGXFXHXHXHXy.= @ @ + + # # # = = , % 9.-.&.;.&.&.@.@...I I U U U U U U U U U | |  ...O.O.",
"O.O.O.O.O.O.O.O.O.O.O.O.X. ...O.O.o X $ < AXFXKXKXFXFXKXKXi.  . . . . . . .   O   . t.P | O.O.O.$. . .I I  . . . . . . . .| P I  ...O.O.",
"O.O.O.O.O.O.O.O.O.O.O.X.X.....O.O.X X $ $ AXKXKXFXKXKXFXFXAXX       .     O     X   t.U  .O.O.O.$... .U I |  . . . . . . .| I U ....O.O.",
"O.O.O.O.O.O.O.O.O.O.X.....O.O.O.O.t.t.i.p.#.6 3 3 3 6 6 3 #.i.a.-.-.t.t.t.t.t.t.-.;.&.O.O.O.O.O.O.O.O... .I I |  . . . . . . ...O.O.O.O.",
"X.X.O.O.O.O.O.O.O.O.X...X.O.O.O.&.&.&.5.5.[   X   X X     4 O.X.I U  . . . . .| U U  .O.O.O.O.O.O.O.O.....U I | |  . . . .......O.O.O.O.",
" ...X.O.O.O.O.O.O.O.O.O.O.O.O.O.&.-.5.r.r.4 X   X X X   X 4  . . . . . . . .I P  .O.O.O.O.O.O.O.O.O.O.O.O... .U I |  . . .X.O.O.O.O.O.O.",
" . .X.O.O.O.O.O.O.O.O.O.O.O.O.O.&.-.5.r.r.i.i.p.i.i.i.p.a.a. . . . . . . . .I P ..O.O.O.O.O.O.$.O.O.O.O.O... .U P |  . . .X.O.O.O.O.O.O."
};
