/* XPM */
static char *rcp02552311062103[] = {
/* columns rows colors chars-per-pixel */
"68 68 169 2 ",
"   c #000000",
".  c #0A0505",
"X  c #0C0C0D",
"o  c #140606",
"O  c #160808",
"+  c #1A0C0C",
"@  c #080811",
"#  c #0C0C19",
"$  c #121212",
"%  c #1A1A1C",
"&  c #260C0C",
"*  c #231313",
"=  c #301313",
"-  c #111124",
";  c #1C1C21",
":  c #181833",
">  c #1C1C3C",
",  c #232225",
"<  c #282727",
"1  c #28272A",
"2  c #3C2020",
"3  c #352D2D",
"4  c #2C2B33",
"5  c #302F37",
"6  c #353439",
"7  c #39363D",
"8  c #3B3A3B",
"9  c #353334",
"0  c #33302F",
"q  c #4A1C1C",
"w  c #572D2E",
"e  c #4A3625",
"r  c #543C20",
"t  c #552E32",
"y  c #44373C",
"u  c #583738",
"i  c #5C3834",
"p  c #422422",
"a  c #612D2E",
"s  c #682828",
"d  c #7E2525",
"f  c #762A2A",
"g  c #7B2C2C",
"h  c #633434",
"j  c #6D3333",
"k  c #6B3B3A",
"l  c #663D3D",
"z  c #743B3B",
"x  c #713636",
"c  c #5A491C",
"v  c #6C4838",
"b  c #664336",
"n  c #764E3D",
"m  c #7E493F",
"M  c #7A4033",
"N  c #785E29",
"B  c #25254E",
"V  c #373640",
"C  c #383740",
"Z  c #3C3B43",
"A  c #2B2B5B",
"S  c #2D2D60",
"D  c #373776",
"F  c #383878",
"G  c #403E45",
"H  c #4A3C43",
"J  c #693E40",
"K  c #503B63",
"L  c #304452",
"P  c #434246",
"I  c #474649",
"U  c #48474A",
"Y  c #4C4B4C",
"T  c #494647",
"R  c #514F4F",
"E  c #534447",
"W  c #4F4C50",
"Q  c #424252",
"!  c #514E51",
"~  c #534F5D",
"^  c #545152",
"/  c #5A5656",
"(  c #5C5857",
")  c #5E5A59",
"_  c #5D5558",
"`  c #644445",
"'  c #6B4444",
"]  c #734343",
"[  c #784040",
"{  c #714848",
"}  c #6F504F",
"|  c #625C5B",
" . c #6C5A59",
".. c #745351",
"X. c #65605F",
"o. c #5E5965",
"O. c #696363",
"+. c #676261",
"@. c #707669",
"#. c #822D2D",
"$. c #9A2D2D",
"%. c #873E3E",
"&. c #9E3232",
"*. c #AC3333",
"=. c #A73B3B",
"-. c #B43636",
";. c #C03838",
":. c #9B5E2E",
">. c #854935",
",. c #855739",
"<. c #B9493A",
"1. c #816B28",
"2. c #886B2E",
"3. c #937A2D",
"4. c #91732E",
"5. c #8C6435",
"6. c #93663D",
"7. c #BC6838",
"8. c #A0773B",
"9. c #A76A3B",
"0. c #CE453C",
"q. c #C04F3C",
"w. c #D3483D",
"e. c #DA4F3F",
"r. c #824845",
"t. c #905C40",
"y. c #9E6D40",
"u. c #976440",
"i. c #866454",
"p. c #A87840",
"a. c #A27E5E",
"s. c #AA7157",
"d. c #AB6B51",
"f. c #B67862",
"g. c #8C6F63",
"h. c #EC5E45",
"j. c #D57444",
"k. c #EF6145",
"l. c #F86848",
"z. c #F06146",
"x. c #C47F66",
"c. c #7B8B7C",
"v. c #AB863A",
"b. c #B18F39",
"n. c #B88438",
"m. c #B89838",
"M. c #C0A03C",
"N. c #B88C4C",
"B. c #BB904C",
"V. c #A79A58",
"C. c #A4924B",
"Z. c #949C7C",
"A. c #B88068",
"S. c #C7A740",
"D. c #D7B648",
"F. c #CA8962",
"G. c #CE886B",
"H. c #D89070",
"J. c #CC967D",
"K. c #F8D858",
"L. c #4F6A8F",
"P. c #567A92",
"I. c #597F98",
"U. c #6081AB",
"Y. c #70A0C0",
"T. c #8F9D86",
"R. c #D0A48B",
"E. c #ECAE84",
"W. c #F8C090",
/* pixels */
"R R R R R R R R R R Y I I I I C Z ) | O.O.| | | | Y C Z I I I I I I I I I I R R R R / | | | | | | | | | | | | Y I Y R R R R R R R Y I I ",
"R R R R R R R R R R Y I I I I C Z ( | O.O.| | | | U C Z I I I I I I I I I I R R R R / | | | | | | | | | | | | Y U Y R R R R R R R Y U U ",
") ) ) ) ) ) ! U P Z P I I I I C C w w h h h h h w a a a a a a a a a a a a a h h h h h h h h h h h h h | | | | ) ( R U Y R R R R U Y / ( ",
"| | | | | | ! U P C Z I I I P C V s s s s s s s s s s s s s s s s s s s s s s s s s s s s s s s s s s | | | | | | ! I Y R R R R U Y | | ",
"O.O.| | | | ) ) ! I I I P C C V V s s s s s s s s s s s s s s s s s s s s s s s s s s s s s s s s s s | | +.O.| | ! I U U Y R ^ ) ) O.O.",
"O.O.| | | | | | ^ I I I H t t t t &.&.&.&.<.q.q.q.q.q.q.q.q.q.q.q.q.q.q.q.q.q.q.q.q.q.q.q.q.<.&.&.&.&.l l l b | | ! I I I Y R ^ | | O.O.",
"O.O.| | | | | | ! Z Z Z y s s s s ;.;.;.;.h.l.l.l.l.l.l.l.l.l.l.l.l.l.l.l.l.l.l.l.l.l.l.l.l.h.;.;.;.;.s s s s E I I I I I I P I | | O.O.",
"O.O.| | | | | | W V V V y s s s s ;.;.;.;.h.l.l.l.l.l.l.l.l.l.l.l.l.l.l.l.l.l.l.l.l.l.l.l.l.h.;.;.;.;.s s s s H V P I I I P V G ) | O.O.",
"^ ^ ! W W W W W P V V V y s s s s w.w.w.w.z.l.l.l.l.l.l.l.l.l.l.l.l.l.l.l.l.l.l.l.l.l.l.l.l.z.w.w.w.w.s s s s H Z P I I I P Z P Y ! ^ ^ ",
"V V V V V V V V V V V V y s s s s l.l.l.l.l.l.l.l.l.l.l.l.l.l.l.l.l.l.l.l.l.l.l.l.l.l.l.l.l.l.l.l.l.l.s s s s H I I I I I I I I C V V V ",
"V V V V V V V V V V V V y s s s s l.l.l.l.l.l.l.l.l.l.l.l.l.l.l.l.l.l.l.l.l.l.l.l.l.l.l.l.l.l.l.l.l.l.s s s s y P I I I I U U U Z Z V V ",
"V V V V V V V V 7 7 7 7 y s s s s l.l.l.l.l.l.l.l.l.l.l.l.l.l.l.l.l.l.l.l.l.l.l.l.l.l.l.l.l.l.l.l.l.l.s s s s y 7 G T U I Y R R U P C V ",
"Z Z Z Z Z Z Z Z t a a a f -.-.-.-.l.l.l.l.l.l.l.l.l.l.l.l.l.l.l.l.l.l.l.l.l.l.l.l.l.l.l.l.l.l.l.l.l.l.-.-.-.-.f a a a u I U Y Y P P Z Z ",
"I I I I I I I I u s s s g ;.;.;.;.l.l.l.l.l.l.l.l.l.l.l.l.l.l.l.l.l.l.l.l.l.l.l.l.l.l.l.l.l.l.l.l.l.l.;.;.;.;.g s s s u I I I I C C I I ",
"U U U U I I I I u s s s g ;.;.;.;.l.l.l.l.l.l.l.l.l.l.l.l.l.l.l.l.l.l.l.l.l.l.l.l.l.l.l.l.l.l.l.l.l.l.;.;.;.;.g s s s u I I I P C Z U U ",
"R R R R U I I I u s s s g ;.;.;.;.0.0.0.0.k.l.l.l.l.l.l.l.l.l.l.l.l.l.l.l.l.l.l.l.l.l.l.l.l.k.0.0.0.0.;.;.;.;.g s s s u I P C C I U R R ",
"R R R R U U U I u s s s g ;.;.;.;.;.;.;.;.h.l.l.l.l.l.l.l.l.l.l.l.l.l.l.l.l.l.l.l.l.l.l.l.l.h.;.;.;.;.;.;.;.;.g s s s u I P C Z I U Y Y ",
"R R R R R R U I u s s s g ;.;.;.;.;.;.;.;.h.l.l.l.l.l.l.l.l.l.l.l.l.l.l.l.l.l.l.l.l.l.l.l.l.h.;.;.;.;.;.;.;.;.g s s s u I I I I I I U U ",
"R R R R R R U I 3 = = = q ;.;.;.;.;.;.;.;.w.e.e.e.e.e.e.e.e.e.e.e.e.e.e.e.e.e.e.e.e.e.e.e.e.w.;.;.;.;.;.;.;.;.q = = = 3 U U U I I I I I ",
"R R R R R R R R <       & ;.;.;.;.;.;.;.;.;.;.;.;.;.;.;.;.;.;.;.;.;.;.;.;.;.;.;.;.;.;.;.;.;.;.;.;.;.;.;.;.;.;.&       ; C C C C I I I I ",
"R R R R R R R R <       & ;.;.;.;.;.;.;.;.;.;.;.;.;.;.;.;.;.;.;.;.;.;.;.;.;.;.;.;.;.;.;.;.;.;.;.;.;.;.;.;.;.;.&       ; V V V C I U U I ",
"U U R R R R R R <       & *.*.*.*.;.;.;.;.;.;.;.;.;.;.;.;.;.;.;.;.;.;.;.;.;.;.;.;.;.;.;.;.;.;.;.;.;.;.*.*.*.*.&       ; V V V C Z Z U I ",
"I I Y R R R R R <       O s s s s ;.;.;.;.;.;.;.;.;.;.;.;.;.;.;.;.;.;.;.;.;.;.;.;.;.;.;.;.;.;.;.;.;.;.s s s s O       ; V V V V V C I I ",
"I I Y R R R R R 1       O s s s s ;.;.;.;.;.;.;.;.;.;.;.;.;.;.;.;.;.;.;.;.;.;.;.;.;.;.;.;.;.;.;.;.;.;.s s s s O       ; V V V V V C I I ",
"I I Y R R R R R 1       O s s s s ;.;.;.;.;.;.;.;.;.;.;.;.;.;.;.;.;.;.;.;.;.;.;.;.;.;.;.;.;.;.;.;.;.;.s s s s O       ; V V V V V C I I ",
"I I U Y % X X X e 5.5.5.,.z z z z f f f f -.;.;.;.;.;.;.;.$.+ + + + + + & & $.;.;.;.;.;.;.;.-.f f f f z z z z ,.5.5.5.e X X X $ P G Z Z ",
"I I I U $       r p.p.p.y.[ [ [ [ s s s s *.;.;.;.;.;.;.;.$.                $.;.;.;.;.;.;.;.*.s s s s [ [ [ [ y.p.p.p.r       X I P C V ",
"I I I U $       r p.p.p.y.[ [ [ [ s s s s *.;.;.;.;.;.;.;.$.                $.;.;.;.;.;.;.;.*.s s s s [ [ [ [ y.p.p.p.r       X I I Z Z ",
"I I I U $       b F.F.F.s.* * * * z z z z g #.#.#.#.#.#.#.f q q q q q q q q f #.#.#.#.#.#.#.g z z z z * * * * s.F.F.F.b       X I I I I ",
"I I U Y $       v H.H.H.s.        [ [ [ [ s s s s s s s s s s s s s s s s s s s s s s s s s s [ [ [ [         s.H.H.H.v       X I I I I ",
"I U ( | $       v H.H.H.s.        [ [ [ [ s s s s s s s s s s s s s s s s s s s s s s s s s s [ [ [ [         s.H.H.H.v       X I I I I ",
"I U ( | 8 3 3 3 u n n n i         [ [ [ [ x j j j M >.>.>.>.j j j j j j j j >.>.>.>.M j j j x [ [ [ [         i n n n e % % % , P I I I ",
"I U ( | O.O.O.O.0                 [ [ [ [ [ [ [ [ t.p.p.p.y.[ [ [ [ [ [ [ [ y.p.p.p.t.[ [ [ [ [ [ [ [                 ; V V V V V C I I ",
"I U ( | O.O.O.O.0                 [ [ [ [ [ [ [ [ t.p.p.p.y.[ [ [ [ [ [ [ [ y.p.p.p.t.[ [ [ [ [ [ [ [                 ; C C V V V C I I ",
"I U ( | | | | | 8 $ $ $ X         h h h h h h h h ,.y.y.y.u.[ [ [ [ [ [ [ [ u.y.y.y.,.h h h h h h h h         X X X X 1 I G V V V C C C ",
"I U ( | | | | | ) / / / y         . . . . . . . . p [ [ [ [ [ [ [ [ [ [ [ [ [ [ [ [ p . . . . . . . .         8 P P P P I P V V V V V V ",
"C C Z G G G G G G G G G 6                         2 [ [ [ [ [ [ [ [ [ [ [ [ [ [ [ [ 2                         6 I I I Y R Y P P C V V V ",
"V V V V V V V V V C C C 5                         2 [ [ [ [ [ [ [ [ [ [ [ [ [ [ [ [ 2                         6 I I I Y R Y I I C V V V ",
"V V V V V V V V 1 X X X - S S S S h h h h 2.3.3.3.c + + + + + + + + + + + + + + + + c 3.3.3.2.h h h h         X X X $ 4 U Y R Y I P V V ",
"V V V V V V V V ;       # F F F F [ [ [ [ v.m.m.m.c                                 c m.m.m.v.[ [ [ [                 < I Y R R U P C V ",
"P P P P P P P P ,       # F F F F [ [ [ [ v.m.m.m.c                                 c m.m.m.v.[ [ [ [                 < Y Y R R Y Y P P ",
"I I I I ` ` ` ` i.a.a.a.g.F F F F =.=.=.=.n.m.m.m.:.d d d d d d d d d d d d d d d d :.m.m.m.n.=.=.=.=.B B B B i.a.a.a.i.' ' ' ` R Y I I ",
"Y Y P P ' [ [ [ A.W.W.W.R.F F F F ;.;.;.;.n.m.m.m.7.;.;.;.;.;.;.;.;.;.;.;.;.;.;.;.;.7.m.m.m.n.;.;.;.;.F F F F R.W.W.W.A.[ [ [ ] R ^ ^ ^ ",
"R R Z V J [ [ [ f.E.W.W.R.F F F F ;.;.;.;.n.m.m.m.7.;.;.;.;.;.;.;.;.;.;.;.;.;.;.;.;.7.m.m.m.n.;.;.;.;.F F F F R.W.W.W.A.[ [ [ ] R ^ | | ",
"P P C V J [ [ [ f.E.E.E.J.K K K K ;.;.;.;.9.8.8.8.p.j.j.j.j.j.j.j.j.j.j.j.j.j.j.j.j.p.8.8.8.9.;.;.;.;.K K K K J.E.E.E.f.[ [ [ ] R ^ / / ",
"V V V V J [ [ [ d.H.H.H.x.[ [ [ [ ;.;.;.;.%.[ [ [ N.K.K.K.K.K.K.K.K.K.K.K.K.K.K.K.K.N.[ [ [ %.;.;.;.;.[ [ [ [ x.H.H.H.d.[ [ [ ] ^ R R R ",
"V V V V J [ [ [ d.H.H.H.x.[ [ [ [ ;.;.;.;.%.[ [ [ N.K.K.K.K.K.K.K.K.K.K.K.K.K.K.K.K.N.[ [ [ %.;.;.;.;.[ [ [ [ x.H.H.H.d.[ [ [ ] ^ ^ Y Y ",
"V V V V J ] ] ] d.G.G.G.f.k k k k *.*.*.*.>.m m m B.K.K.K.K.K.K.K.K.K.K.K.K.K.K.K.K.B.m m m >.*.*.*.*.k k k k f.G.G.G.d.] ] ] { | ( U I ",
"C C V V C C Z G ` r.r.r.k . . . . o o o o 4.b.b.b.D.K.K.K.K.K.K.K.K.K.K.K.K.K.K.K.K.D.b.b.b.4.o o o o . . . . k r.r.r...| | | | | ( U I ",
"U I C V V V U ^ ` [ [ [ i                 3.m.m.m.D.K.K.K.K.K.K.K.K.K.K.K.K.K.K.K.K.D.m.m.m.3.                i [ [ [ } | | | | | ( U I ",
"I I Z C C C U R ` [ [ [ i                 3.m.m.m.D.K.K.K.K.K.K.K.K.K.K.K.K.K.K.K.K.D.m.m.m.3.                i [ [ [ } | | | | | ( U I ",
"I I I P U Y U U Y E E E H A A A A P.P.P.P.C.m.m.m.M.S.S.S.S.S.S.S.S.S.S.S.S.S.S.S.S.M.m.m.m.C.P.P.P.P.A A A A _  . . . .| | O.O.| ( U I ",
"I I U U R R Y U U I I I Q F F F F Y.Y.Y.Y.V.m.m.m.m.m.m.m.m.m.m.m.m.m.m.m.m.m.m.m.m.m.m.m.m.V.Y.Y.Y.Y.F F F F o.O.O.O.X.| | O.O.) / I I ",
"I I Y R R R R R Y I I I Q F F F F Y.Y.Y.Y.V.m.m.m.m.m.m.m.m.m.m.m.m.m.m.m.m.m.m.m.m.m.m.m.m.V.Y.Y.Y.Y.F F F F ~ | | | | | | | ( G G I I ",
"I I Y R R R R R Y I I I Z : : : : L L L L c.T.T.T.V.m.m.m.b.6.6.6.6.6.6.6.6.b.m.m.m.V.T.T.T.c.L L L L : : : : U | | | | | | | / C C I I ",
"Y Y R R R R R R R Y Y I 7                 I.Y.Y.Y.Z.m.m.m.v.[ [ [ [ [ [ [ [ v.m.m.m.Z.Y.Y.Y.I.                5 P P P P P P P P P P I I ",
"R R R R R R R R R R Y I 7                 I.Y.Y.Y.Z.m.m.m.v.[ [ [ [ [ [ [ [ v.m.m.m.Z.Y.Y.Y.I.                4 V V V V V V V C I I I I ",
"R R R R R R R R R R R Y 8         - - - - L.U.U.U.@.1.1.1.N w w w w w w w w N 1.1.1.@.U.U.U.L.- - - -         4 V V V V V C P P I I I I ",
"R R R R R R R R R R R R 8         D D D D F F F F >                                 > F F F F D D D D         4 V V V V V Z I I I I I I ",
"R R / / ^ R R R R R R R 8         F F F F F F F F >                                 > F F F F F F F F         4 V V V V V Z I I I U Y Y ",
"R R ) | ^ R R R R R R R y         D D D D D D D D >                                 > D D D D D D D D         4 V V V V V Z I I I U R R ",
"R R / / ^ R R R R R R R Y P P G G @ @ @ @ @ @ @ @ 1 P P P I U T P P Z 8 6 6 8 8 8 8 , @ @ @ @ @ @ @ @ 5 5 6 6 C Z Z Z Z Z Z P P I U R R ",
"R R R R R R R R R R R R Y I U R R                 < R R R ^ | ) R Y C V P I I I I I ,                 C C I I I I I I I I P V C I U R R ",
"R R R R R R R R R R R Y Y U U R R                 < R R R ^ ) ( Y U Z C I I I I I I ,                 Z C P I I I I I I I P C Z U U R R ",
"R R R R R R R R R R Y U U R R R R 8 8 P P P P y 8 I R R R R ^ Y C C I I I I I I Z C 8 8 8 8 8 8 8 8 8 U I C C P I I I I I I I U R R R R ",
"Y Y R R R R R R R R Y U Y R R R ^ ^ ^ | | | | / ^ ! Y Y Y Y Y Y C Z I I I I I P Z Z I R R R R R R R R U U Z C P P I I I I U U U R R R R ",
"I U Y R R R R R R R R R R R R R ^ ) | O.O.| | | | ^ I I I I I I I I I I I I C V U R R R R R R R R R R R R U I Z C P I I I Y R R R R R R ",
"I I Y R R R R R R R R R R R R R ^ ) | O.O.| | | | ^ I I I I I I I I I I I I C V U R R R R R R R R R R R R U I Z V P I I I Y R R R R R R "
};
