/* XPM */
static char *rcp06281208740496[] = {
/* columns rows colors chars-per-pixel */
"64 64 60 1 ",
"  c #222222",
". c #222224",
"X c #252120",
"o c #463C3B",
"O c #493B3A",
"+ c #493B38",
"@ c #463C3A",
"# c gray13",
"$ c #212322",
"% c #473B3B",
"& c #4A3A3A",
"* c #232122",
"= c #232220",
"- c #262020",
"; c #4A2323",
": c #632F2F",
"> c #473C3A",
", c #281F20",
"< c #252122",
"1 c #26211E",
"2 c #28201E",
"3 c #453D3B",
"4 c #705E5A",
"5 c #715E58",
"6 c #725D58",
"7 c #4C3A38",
"8 c #745D57",
"9 c #775C55",
"0 c #4A3C3B",
"q c #944646",
"w c #F77575",
"e c #493B3B",
"r c #775B57",
"t c #C65E5E",
"y c #202221",
"u c black",
"i c #775C53",
"p c #B1970A",
"a c #4A3B38",
"s c #FDD90F",
"d c #222220",
"f c #282627",
"g c #514C4F",
"h c #785B55",
"j c #755C57",
"k c #6C656A",
"l c #363235",
"z c #877E84",
"x c #7F6D07",
"c c #FFDA0F",
"v c #4C4104",
"b c #4B413C",
"n c #CAAFA2",
"m c #FCDBCB",
"M c #655851",
"N c #291F1D",
"B c #4C3A36",
"V c #4D3A36",
"C c #725E57",
"Z c #745C58",
/* pixels */
"  ..       XoOOoX              XoOOOOOOOOO+@X  XoOOoX           ",
"  ..     # XoOOoX              XoOOOOOOOOO+@X #XoOOoX #         ",
"      $$   XoOOoX              X%&OOOOOOOOOoX* XoO&%X ..    $$  ",
"    =X==XXX-%OO%-XXXXX;;;;;::::::::::;;;;;O>,XX-%O&%-X<<XXXX1112",
"   =3oooooo%OOOO%ooooo;;;;;::::::::::;;;;;+O>oo%OOOO>@oooooO4556",
"   XoOOOOOOOOOOOOOOOOO;;;;;::::::::::;;;;;++OOOOOOOO++OOOOO78999",
"   XoO0OOO++OO&&OOOOOO;;;;;::::::::::;;;;;OOOOOOOOOOOOOOOOO78999",
"XXX-%OOOOO++OOOOOO;;;;qqqqqwwwwwwwwwwqqqqq;;;;OOOOOOOOOOOOO78999",
"ooo%OOOOOOOOOOOOOO;;;;qqqqqwwwwwwwwwwqqqqq;;;;OOOOOO&&OOOOO78999",
"OOOOOOOOOOOOOO>>OO;;;;qqqqqwwwwwwwwwwqqqqq;;;;OOOOOO&&OOOOO78999",
"OOOOOOOOOOOOOOOOOO;;;;qqqqqwwwwwwwwwwqqqqq;;;;OOOOOOOOOOOOO78999",
"OOOOOOOOOOOOO;;;;;qqqqwwwwwwwwwwwwwwwwwwwwqqqq;;;;;OOOOOOOO78999",
"OOOOOOOOOOOOO;;;;;qqqqwwwwwwwwwwwwwwwwwwwwqqqq;;;;;OOOOOOOO78999",
"OOOOOOOOOOOOO;;;;;qqqqwwwwwwwwwwwwwwwwwwwwqqqq;;;;;OOOOOOOO78999",
"OOOOOOOOOOOOO;;;;;qqqqwwwwwwwwwwwwwwwwwwwwqqqq;;;;;eOOOOOOO789rr",
"ooo:::::::::::::::tttttttttttttttttttttttttttt:::::::::::::::9rr",
"==X:::::::::::::::tttttttttttttttttttttttttttt:::::::::::::::999",
"$y :::::::::::::::tttttttttttttttttttttttttttt:::::::::::::::999",
"   :::::ttttttttttttttuuuuuttttttttttuuuuutttttttttttttt:::::999",
"XXX:::::ttttttttttttttuuuuuttttttttttuuuuutttttttttttttt:::::999",
"@@o:::::ttttttttttttttuuuuuttttttttttuuuuutttttttttttttt:::::iii",
"++O:::::ttttttttttttttuuuuuttttttttttuuuuutttttttttttttt:::::iii",
"OOOOOOOO;;;;;pppppqqqquuuuuttttttttttuuuuuqqqq;;;;;;;;;;OOO78999",
"ooo%OOOO;;;;;pppppqqqquuuuuttttttttttuuuuuqqqq;;;;;;;;;;OOOa6888",
"XXX-%OOO;;;;;pppppqqqquuuuuttttttttttuuuuuqqqq;;;;;;;;;;OO++a777",
"   XoOOO;;;;;pppppqqqquuuuuttttttttttuuuuuqqqq;;;;;;;;;;OO++OOOO",
"   XoOOOOOOOOsssss;;;;qqqqqqqqqqqqqqqqqqqq;;;;OOOOOOOOOOOOOOOOOO",
"   XoOOOOOOOOsssss;;;;qqqqqqqqqqqqqqqqqqqq;;;;OOOOOOOOOOOOOOa777",
"   XoOOOOOOOOsssss;;;;qqqqqqqqqqqqqqqqqqqq;;;;OO++OOOOOOOOOa6888",
"   XoOOOOOOOOsssss;;;;qqqqqqqqqqqqqqqqqqqq;;;;OO++OOOOOOOOO78999",
"  dX%&OOOOOOOfffffgggg;;;;;;;;;;;;;;;;;;;;ggggfffffOOOOOOOO789hh",
"  dX%&OOOOOOOfffffgggg;;;;;;;;;;;;;;;;;;;;ggggfffffOOOOOOOOa68jj",
"   XoOOOOOOOOfffffgggg;;;;;;;;;;;;;;;;;;;;ggggfffffOOOOOOOOOa777",
" # XoOOOOOOOOfffffgggg;;;;;;;;;;;;;;;;;;;;ggggfffffOOOOOOOOOOOOO",
"   XoOOOfffffgggggkkkkgggggggggggggggggggggggggggggfffffOOOOOOOO",
"XXX-%OOOfffffgggggkkkkgggggggggggggggggggggggggggggfffffOOOOa777",
"ooo%OOOOfffffgggggkkkkgggggggggggggggggggggggggggggfffffOOOa6888",
"OOOOOOOOfffffgggggkkkkgggggggggggggggggggggggggggggfffffOOO78999",
"OOOOOOOOlllllkkkkkkkkklllllkkkkkkkkkkkkkkkkkkkgggggfffffOOO78999",
"OOOOOOOOlllllkkkkkkkkklllllkkkkkkkkkkkkkkkkkkkgggggfffffOOO78999",
"OOOOOOOOlllllkkkkkkkkklllllkkkkkkkkkkkkkkkkkkkgggggfffffOOO78999",
"OOOOOOOOlllllkkkkkkkkklllllkkkkkkkkkkkkkkkkkkkgggggfffffOOO78999",
"OOOOOOOOlllllzzzzzkkkklllllkkkkkkkkkkkkkkkkkkklllllfffffOOO78999",
"ooo%OOOOlllllzzzzzkkkklllllkkkkkkkkkkkkkkkkkkklllllfffffOOOa6888",
"XXX-%OOOlllllzzzzzkkkklllllkkkkkkkkkkkkkkkkkkklllllfffffOOOOa777",
"   XoOOOlllllzzzzzkkkklllllkkkkkkkkkkkkkkkkkkklllllfffffOOOOOOOO",
" # XoOOOOOOOOlllllllllxxxxxccccccccccxxxxxxxxxvvvvvOOOOOOOOOOOOO",
"   XoOOOOOOOOlllllllllxxxxxccccccccccxxxxxxxxxvvvvvOOOOOOOOOOOOO",
"  .<oOOOOOOOOlllllllllxxxxxccccccccccxxxxxxxxxvvvvvOOOOOOOOOOOOO",
"  .<oOOOOOOOOOeeOObbbbnnnnnnnnnnnnnnnmmmmmmmmmMMMMMOOOOOOOOOOOOO",
"   XoOOOOOOOOOOOOObbbbnnnnnnnnnnnnnnnmmmmmmmmmMMMMMOOOOOOOOOOOOO",
"   XoOOOOOOOOOOOOObbbbnnnnnnnnnnnnnnnmmmmmmmmmMMMMMOOOOOOOOOa777",
"  .<oOOOOOOOOOOOOObbbbnnnnnnnnnnnnnnnmmmmmmmmmMMMMMOOOOOOOOa6888",
"  .<oOOOOOOOOOOOOOOOOObbbbbMMMMMMMMMMnnnnnnnnnbbbbbOOOOOOOO78999",
"   XoOOOOO>>OOOOOOOOOObbbbbMMMMMMMMMMnnnnnnnnnbbbbbOOOOOOOO78999",
"   XoOOOOO>>OOOOOOOOOObbbbbMMMMMMMMMMnnnnnnnnnbbbbbOOOOOOOO78999",
"   XoOOOOOOOOOOOOOOOOObbbbbMMMMMMMMMMnnnnnnnnnbbbbbOOOOOOOO78999",
" # XoO0OOOOOOOOOOOOOOOOOOOOOOOOOOOOOObbbbbbbbbOOOOOOOOOOOOO78999",
"   X@+OOOOOOOOOO++OOOOOOOOOOOOeeOOOOObbbbbbbbbOOOOOOOOOOOOO78999",
"222NaB77777aOOOO++OOa77aOOOOa77777777bbbbbbbbbOOa7777777777Vj999",
"CC6Z88888886a>OOOOOa6886aOOa6888jj888bbbbbbbbbOa68888888888j9999",
"iihh9999ii98a>OOOOO789987OO78999hh99999999987&O78999999999999999",
"9999999999987OOO&&O789987OO789999999rr9999i87OO78999999999999999",
"9999999999987OOO&&O789987OO789999999rr9999i87OO78999999999999999"
};
