/* XPM */
static char *rcp0628026186729[] = {
/* columns rows colors chars-per-pixel */
"64 64 59 1 ",
"  c #222222",
". c #222224",
"X c #252120",
"o c #463C3B",
"O c #493B3A",
"+ c #493B38",
"@ c #463C3A",
"# c gray13",
"$ c #212322",
"% c #473B3B",
"& c #4A3A3A",
"* c #232122",
"= c #232220",
"- c #262020",
"; c #4A2323",
": c #632F2F",
"> c #473C3A",
", c #281F20",
"< c #252122",
"1 c #26211E",
"2 c #28201E",
"3 c #453D3B",
"4 c #705E5A",
"5 c #715E58",
"6 c #725D58",
"7 c #4C3A38",
"8 c #745D57",
"9 c #775C55",
"0 c #4A3C3B",
"q c #944646",
"w c #F77575",
"e c #493B3B",
"r c #775B57",
"t c #C65E5E",
"y c black",
"u c #775C53",
"i c #B1970A",
"p c #4A3B38",
"a c #FDD90F",
"s c #222220",
"d c #785B55",
"f c #282627",
"g c #514C4F",
"h c #755C57",
"j c #6C656A",
"k c #363235",
"l c #877E84",
"z c #4C4104",
"x c #7F6D07",
"c c #FFDA0F",
"v c #655851",
"b c #FCDBCB",
"n c #CAAFA2",
"m c #4B413C",
"M c #291F1D",
"N c #4C3A36",
"B c #4D3A36",
"V c #725E57",
"C c #745C58",
/* pixels */
"  ..       XoOOoX              XoOOOOOOOOO+@X  XoOOoX           ",
"  ..     # XoOOoX              XoOOOOOOOOO+@X #XoOOoX #         ",
"      $$   XoOOoX              X%&OOOOOOOOOoX* XoO&%X ..    $$  ",
"    =X==XXX-%OO%-XXXX;;;;;::::::::::;;;;;OO>,XX-%O&%-X<<XXXX1112",
"   =3oooooo%OOOO%oooo;;;;;::::::::::;;;;;O+O>oo%OOOO>@oooooO4556",
"   XoOOOOOOOOOOOOOOOO;;;;;::::::::::;;;;;O++OOOOOOOO++OOOOO78999",
"   XoO0OOO++OO&&OOOOO;;;;;::::::::::;;;;;OOOOOOOOOOOOOOOOOO78999",
"XXX-%OOOOO++OOOO;;;;;qqqqqwwwwwwwwwwqqqqq;;;;;OOOOOOOOOOOOO78999",
"ooo%OOOOOOOOOOOO;;;;;qqqqqwwwwwwwwwwqqqqq;;;;;OOOOOO&&OOOOO78999",
"OOOOOOOOOOOOOO>>;;;;;qqqqqwwwwwwwwwwqqqqq;;;;;OOOOOO&&OOOOO78999",
"OOOOOOOOOOOOOOOO;;;;;qqqqqwwwwwwwwwwqqqqq;;;;;OOOOOOOOOOOOO78999",
"OOOOOOOOOOO;;;;;qqqqqwwwwwwwwwwwwwwwwwwwwqqqqq;;;;;OOOOOOOO78999",
"OOOOOOOOOOO;;;;;qqqqqwwwwwwwwwwwwwwwwwwwwqqqqq;;;;;OOOOOOOO78999",
"OOOOOOOOOOO;;;;;qqqqqwwwwwwwwwwwwwwwwwwwwqqqqq;;;;;OOOOOOOO78999",
"OOOOOOOOOOO;;;;;qqqqqwwwwwwwwwwwwwwwwwwwwqqqqq;;;;;eOOOOOOO789rr",
"o:::::::::::::::tttttttttttttttttttttttttttttt:::::::::::::::9rr",
"=:::::::::::::::tttttttttttttttttttttttttttttt:::::::::::::::999",
"$:::::::::::::::tttttttttttttttttttttttttttttt:::::::::::::::999",
" :::::::::::::::tttttttttttttttttttttttttttttt:::::::::::::::999",
"X:::::tttttttttttttttyyyyyttttttttttyyyyyttttttttttttttt:::::999",
"@:::::tttttttttttttttyyyyyttttttttttyyyyyttttttttttttttt:::::uuu",
"+:::::tttttttttttttttyyyyyttttttttttyyyyyttttttttttttttt:::::uuu",
"O:::::tttttttttttttttyyyyyttttttttttyyyyyttttttttttttttt:::::999",
"ooo%OO;;;;;iiiiiqqqqqyyyyyttttttttttyyyyyqqqqq;;;;;;;;;;OOOp6888",
"XXX-%O;;;;;iiiiiqqqqqyyyyyttttttttttyyyyyqqqqq;;;;;;;;;;OO++p777",
"   XoO;;;;;iiiiiqqqqqyyyyyttttttttttyyyyyqqqqq;;;;;;;;;;OO++OOOO",
"   XoO;;;;;iiiiiqqqqqyyyyyttttttttttyyyyyqqqqq;;;;;;;;;;OOOOOOOO",
"   XoOOOOOOaaaaa;;;;;qqqqqqqqqqqqqqqqqqqq;;;;;OOOOOOOOOOOOOOp777",
"   XoOOOOOOaaaaa;;;;;qqqqqqqqqqqqqqqqqqqq;;;;;OO++OOOOOOOOOp6888",
"   XoOOOOOOaaaaa;;;;;qqqqqqqqqqqqqqqqqqqq;;;;;OO++OOOOOOOOO78999",
"  sX%&OOOOOaaaaa;;;;;qqqqqqqqqqqqqqqqqqqq;;;;;OOOOOOOOOOOOO789dd",
"  sX%&OOOOOfffffggggg;;;;;;;;;;;;;;;;;;;;gggggfffffOOOOOOOOp68hh",
"   XoOOOOOOfffffggggg;;;;;;;;;;;;;;;;;;;;gggggfffffOOOOOOOOOp777",
" # XoOOOOOOfffffggggg;;;;;;;;;;;;;;;;;;;;gggggfffffOOOOOOOOOOOOO",
"   XoOOOOOOfffffggggg;;;;;;;;;;;;;;;;;;;;gggggfffffOOOOOOOOOOOOO",
"XXX-%OfffffggggggggggggggggggggggggggggggjjjjjgggggfffffOOOOp777",
"ooo%OOfffffggggggggggggggggggggggggggggggjjjjjgggggfffffOOOp6888",
"OOOOOOfffffggggggggggggggggggggggggggggggjjjjjgggggfffffOOO78999",
"OOOOOOfffffggggggggggggggggggggggggggggggjjjjjgggggfffffOOO78999",
"OOOOOOfffffgggggjjjjjjjjjjjjjjjjjjjjkkkkkjjjjjjjjjjkkkkkOOO78999",
"OOOOOOfffffgggggjjjjjjjjjjjjjjjjjjjjkkkkkjjjjjjjjjjkkkkkOOO78999",
"OOOOOOfffffgggggjjjjjjjjjjjjjjjjjjjjkkkkkjjjjjjjjjjkkkkkOOO78999",
"OOOOOOfffffgggggjjjjjjjjjjjjjjjjjjjjkkkkkjjjjjjjjjjkkkkkOOO78999",
"ooo%OOfffffkkkkkjjjjjjjjjjjjjjjjjjjjkkkkkjjjjjlllllkkkkkOOOp6888",
"XXX-%OfffffkkkkkjjjjjjjjjjjjjjjjjjjjkkkkkjjjjjlllllkkkkkOOOOp777",
"   XoOfffffkkkkkjjjjjjjjjjjjjjjjjjjjkkkkkjjjjjlllllkkkkkOOOOOOOO",
" # XoOfffffkkkkkjjjjjjjjjjjjjjjjjjjjkkkkkjjjjjlllllkkkkkOOOOOOOO",
"   XoOOOOOOzzzzzxxxxxxxxxxccccccccccxxxxxkkkkkkkkkkOOOOOOOOOOOOO",
"  .<oOOOOOOzzzzzxxxxxxxxxxccccccccccxxxxxkkkkkkkkkkOOOOOOOOOOOOO",
"  .<oOOOOOOzzzzzxxxxxxxxxxccccccccccxxxxxkkkkkkkkkkOOOOOOOOOOOOO",
"   XoOOOOOOzzzzzxxxxxxxxxxccccccccccxxxxxkkkkkkkkkkOOOOOOOOOOOOO",
"   XoOOOOOOvvvvvbbbbbbbbbbnnnnnnnnnnnnnnnmmmmmOOOOOOOOOOOOOOp777",
"  .<oOOOOOOvvvvvbbbbbbbbbbnnnnnnnnnnnnnnnmmmmmOOOOOOOOOOOOOp6888",
"  .<oOOOOOOvvvvvbbbbbbbbbbnnnnnnnnnnnnnnnmmmmmOOOOOOOOOOOOO78999",
"   XoOOOOO>vvvvvbbbbbbbbbbnnnnnnnnnnnnnnnmmmmmOOOOOOOOOOOOO78999",
"   XoOOOOO>mmmmmnnnnnnnnnnvvvvvvvvvvmmmmmOOOOOOOOOOOOOOOOOO78999",
"   XoOOOOOOmmmmmnnnnnnnnnnvvvvvvvvvvmmmmmOOOOOOOOOOOOOOOOOO78999",
" # XoO0OOOOmmmmmnnnnnnnnnnvvvvvvvvvvmmmmmOOOOOOOOOOOOOOOOOO78999",
"   X@+OOOOOmmmmmnnnnnnnnnnvvvvvvvvvvmmmmmO++OOOOOOOOOOOOOOO78999",
"222MpN77777pOOOOmmmmmmmmmmOOp7777777777777Np&OOOp7777777777Bh999",
"VV6C88888886p>OOmmmmmmmmmmOp6888hh88888888867&Op68888888888h9999",
"uudd9999uu98p>OOmmmmmmmmmmO78999dd99999999987&O78999999999999999",
"9999999999987OOOmmmmmmmmmmO789999999rr9999u87OO78999999999999999",
"9999999999987OOO&&O789987OO789999999rr9999u87OO78999999999999999"
};
