/* XPM */
static char *rcp0627588067104[] = {
/* columns rows colors chars-per-pixel */
"64 64 57 1 ",
"  c #222222",
". c #222224",
"X c #252120",
"o c #463C3B",
"O c #493B3A",
"+ c #493B38",
"@ c #463C3A",
"# c gray13",
"$ c #212322",
"% c #473B3B",
"& c #4A3A3A",
"* c #232122",
"= c #232220",
"- c #262020",
"; c #4A2323",
": c #632F2F",
"> c #252122",
", c #26211E",
"< c #28201E",
"1 c #453D3B",
"2 c #473C3A",
"3 c #705E5A",
"4 c #715E58",
"5 c #725D58",
"6 c #4C3A38",
"7 c #745D57",
"8 c #775C55",
"9 c #4A3C3B",
"0 c #944646",
"q c #F77575",
"w c #775B57",
"e c #C65E5E",
"r c #202221",
"t c black",
"y c #775C53",
"u c #B1970A",
"i c #4A3B38",
"p c #FDD90F",
"a c #222220",
"s c #785B55",
"d c #282627",
"f c #514C4F",
"g c #755C57",
"h c #6C656A",
"j c #363235",
"k c #877E84",
"l c #7F6D07",
"z c #FFDA0F",
"x c #655851",
"c c #FCDBCB",
"v c #CAAFA2",
"b c #4B413C",
"n c #291F1D",
"m c #4C3A36",
"M c #4D3A36",
"N c #725E57",
"B c #745C58",
/* pixels */
"  ..       XoOOoX              XoOOOOOOOOO+@X  XoOOoX           ",
"  ..     # XoOOoX              XoOOOOOOOOO+@X #XoOOoX #         ",
"      $$   XoOOoX              X%&OOOOOOOOOoX* XoO&%X ..    $$  ",
"    =X==XXX-%OO%-XXXXXXX;;;;;:::::::::::;;;;;XX-%O&%-X>>XXXX,,,<",
"   =1oooooo%OOOO%ooooooo;;;;;:::::::::::;;;;;oo%OOOO2@oooooO3445",
"   XoOOOOOOOOOOOOOOOOOOO;;;;;:::::::::::;;;;;OOOOOOO++OOOOO67888",
"   XoO9OOO++OO&&OOOOOOOO;;;;;:::::::::::;;;;;OOOOOOOOOOOOOO67888",
"XXX-%OOOOO++OOOOOOO;;;;;00000qqqqqqqqqqq00000;;;;;OOOOOOOOO67888",
"ooo%OOOOOOOOOOOOOOO;;;;;00000qqqqqqqqqqq00000;;;;;OO&&OOOOO67888",
"OOOOOOOOOOOOOO22OOO;;;;;00000qqqqqqqqqqq00000;;;;;OO&&OOOOO67888",
"OOOOOOOOOOOOOOOOOOO;;;;;00000qqqqqqqqqqq00000;;;;;OOOOOOOOO67888",
"OOOOOOOOOOOOOO;;;;;00000qqqqqqqqqqqqqqqqqqqqq00000;;;;;OOOO67888",
"OOOOOOOOOOOOOO;;;;;00000qqqqqqqqqqqqqqqqqqqqq00000;;;;;OOOO67888",
"OOOOOOOOOOOOOO;;;;;00000qqqqqqqqqqqqqqqqqqqqq00000;;;;;OOOO67888",
"OOOOOOOOOOOOOO;;;;;00000qqqqqqqqqqqqqqqqqqqqq00000;;;;;OOOO678ww",
"ooo%:::::::::::::::eeeeeeeeeeeeeeeeeeeeeeeeeeeeeee:::::::::::::w",
"==X-:::::::::::::::eeeeeeeeeeeeeeeeeeeeeeeeeeeeeee:::::::::::::8",
"$r X:::::::::::::::eeeeeeeeeeeeeeeeeeeeeeeeeeeeeee:::::::::::::8",
"   X:::::::::::::::eeeeeeeeeeeeeeeeeeeeeeeeeeeeeee:::::::::::::8",
"XXX-:::::eeeeeeeeeeeeeeettttteeeeeeeeeeettttteeeeeeeeeeeeeee:::8",
"@@o%:::::eeeeeeeeeeeeeeettttteeeeeeeeeeettttteeeeeeeeeeeeeee:::y",
"++OO:::::eeeeeeeeeeeeeeettttteeeeeeeeeeettttteeeeeeeeeeeeeee:::y",
"OOOO:::::eeeeeeeeeeeeeeettttteeeeeeeeeeettttteeeeeeeeeeeeeee:::8",
"ooo%OOOOO;;;;;uuuuu00000ttttteeeeeeeeeeettttt00000;;;;;;;;;;5777",
"XXX-%OOOO;;;;;uuuuu00000ttttteeeeeeeeeeettttt00000;;;;;;;;;;i666",
"   XoOOOO;;;;;uuuuu00000ttttteeeeeeeeeeettttt00000;;;;;;;;;;OOOO",
"   XoOOOO;;;;;uuuuu00000ttttteeeeeeeeeeettttt00000;;;;;;;;;;OOOO",
"   XoOOOOOOOOOppppp;;;;;000000000000000000000;;;;;OOOOOOOOOOi666",
"   XoOOOOOOOOOppppp;;;;;000000000000000000000;;;;;OOOOOOOOOi5777",
"   XoOOOOOOOOOppppp;;;;;000000000000000000000;;;;;OOOOOOOOO67888",
"  aX%&OOOOOOOOppppp;;;;;000000000000000000000;;;;;OOOOOOOOO678ss",
"  aX%&OOOOOOOOdddddfffff;;;;;;;;;;;;;;;;;;;;;fffffdddddOOOOi57gg",
"   XoOOOOOOOOOdddddfffff;;;;;;;;;;;;;;;;;;;;;fffffdddddOOOOOi666",
" # XoOOOOOOOOOdddddfffff;;;;;;;;;;;;;;;;;;;;;fffffdddddOOOOOOOOO",
"   XoOOOOOOOOOdddddfffff;;;;;;;;;;;;;;;;;;;;;fffffdddddOOOOOOOOO",
"XXX-%OOOOdddddfffffhhhhhfffffffffffffffffffffhhhhhfffffdddddi666",
"ooo%OOOOOdddddfffffhhhhhfffffffffffffffffffffhhhhhfffffddddd5777",
"OOOOOOOOOdddddfffffhhhhhfffffffffffffffffffffhhhhhfffffddddd7888",
"OOOOOOOOOdddddfffffhhhhhfffffffffffffffffffffhhhhhfffffddddd7888",
"OOOOjjjjjhhhhhhhhhhhhhhhhhhhhhhhhhhhhhhhhhhhhhhhhhhhhhhhhhhhjjj8",
"OOOOjjjjjhhhhhhhhhhhhhhhhhhhhhhhhhhhhhhhhhhhhhhhhhhhhhhhhhhhjjj8",
"OOOOjjjjjhhhhhhhhhhhhhhhhhhhhhhhhhhhhhhhhhhhhhhhhhhhhhhhhhhhjjj8",
"OOOOjjjjjhhhhhhhhhhhhhhhhhhhhhhhhhhhhhhhhhhhhhhhhhhhhhhhhhhhjjj8",
"ooo%jjjjjkkkkkhhhhhjjjjjhhhhhhhhhhhhhhhhhhhhhjjjjjhhhhhkkkkkjjj7",
"XXX-jjjjjkkkkkhhhhhjjjjjhhhhhhhhhhhhhhhhhhhhhjjjjjhhhhhkkkkkjjj6",
"   XjjjjjkkkkkhhhhhjjjjjhhhhhhhhhhhhhhhhhhhhhjjjjjhhhhhkkkkkjjjO",
" # XjjjjjkkkkkhhhhhjjjjjhhhhhhhhhhhhhhhhhhhhhjjjjjhhhhhkkkkkjjjO",
"   XoOOOOjjjjjjjjjjllllllllllzzzzzzzzzzzlllllllllljjjjjjjjjjOOOO",
"  .>oOOOOjjjjjjjjjjllllllllllzzzzzzzzzzzlllllllllljjjjjjjjjjOOOO",
"  .>oOOOOjjjjjjjjjjllllllllllzzzzzzzzzzzlllllllllljjjjjjjjjjOOOO",
"   XoOOOOjjjjjjjjjjllllllllllzzzzzzzzzzzlllllllllljjjjjjjjjjOOOO",
"   XoOOOOOOOOOxxxxxccccccccccvvvvvvvvvvvccccccccccxxxxxOOOOOi666",
"  .>oOOOOOOOOOxxxxxccccccccccvvvvvvvvvvvccccccccccxxxxxOOOOi5777",
"  .>oOOOOOOOOOxxxxxccccccccccvvvvvvvvvvvccccccccccxxxxxOOOO67888",
"   XoOOOOO22OOxxxxxccccccccccvvvvvvvvvvvccccccccccxxxxxOOOO67888",
"   XoOOOOO22OObbbbbvvvvvvvvvvxxxxxxxxxxxvvvvvvvvvvbbbbbOOOO67888",
"   XoOOOOOOOOObbbbbvvvvvvvvvvxxxxxxxxxxxvvvvvvvvvvbbbbbOOOO67888",
" # XoO9OOOOOOObbbbbvvvvvvvvvvxxxxxxxxxxxvvvvvvvvvvbbbbbOOOO67888",
"   X@+OOOOOOOObbbbbvvvvvvvvvvxxxxxxxxxxxvvvvvvvvvvbbbbbOOOO67888",
"<<<nim66666iOOOO++Obbbbbbbbbb66666666666bbbbbbbbbb666666666Mg888",
"NN5B77777775i2OOOOObbbbbbbbbb777gg777777bbbbbbbbbb777777777g8888",
"yyss8888yy87i2OOOOObbbbbbbbbb888ss888888bbbbbbbbbb88888888888888",
"8888888888876OOO&&Obbbbbbbbbb8888888ww88bbbbbbbbbb88888888888888",
"8888888888876OOO&&O678876OO678888888ww8888y76OO67888888888888888"
};
