/* XPM */
static char *rcp1055501565862[] = {
/* columns rows colors chars-per-pixel */
"64 64 59 1 ",
"  c #222222",
". c #222224",
"X c #252120",
"o c #463C3B",
"O c #493B3A",
"+ c #493B38",
"@ c #463C3A",
"# c gray13",
"$ c #212322",
"% c #473B3B",
"& c #4A3A3A",
"* c #232122",
"= c #232220",
"- c #262020",
"; c #4A2323",
": c #632F2F",
"> c #473C3A",
", c #281F20",
"< c #252122",
"1 c #26211E",
"2 c #28201E",
"3 c #453D3B",
"4 c #705E5A",
"5 c #715E58",
"6 c #725D58",
"7 c #4C3A38",
"8 c #745D57",
"9 c #775C55",
"0 c #4A3C3B",
"q c #944646",
"w c #F77575",
"e c #493B3B",
"r c #775B57",
"t c #C65E5E",
"y c #202221",
"u c black",
"i c #775C53",
"p c #B1970A",
"a c #4A3B38",
"s c #FDD90F",
"d c #282627",
"f c #222220",
"g c #785B55",
"h c #755C57",
"j c #514C4F",
"k c #6C656A",
"l c #363235",
"z c #877E84",
"x c #7F6D07",
"c c #FFDA0F",
"v c #655851",
"b c #FCDBCB",
"n c #CAAFA2",
"m c #4B413C",
"M c #291F1D",
"N c #4C3A36",
"B c #4D3A36",
"V c #725E57",
"C c #745C58",
/* pixels */
"  ..       XoOOoX              XoOOOOOOOOO+@X  XoOOoX           ",
"  ..     # XoOOoX              XoOOOOOOOOO+@X #XoOOoX #         ",
"      $$   XoOOoX              X%&OOOOOOOOOoX* XoO&%X ..    $$  ",
"    =X==XXX-%OO%-XXXXX;;;;;::::::::::;;;;;O>,XX-%O&%-X<<XXXX1112",
"   =3oooooo%OOOO%ooooo;;;;;::::::::::;;;;;+O>oo%OOOO>@oooooO4556",
"   XoOOOOOOOOOOOOOOOOO;;;;;::::::::::;;;;;++OOOOOOOO++OOOOO78999",
"   XoO0OOO++OO&&OOOOOO;;;;;::::::::::;;;;;OOOOOOOOOOOOOOOOO78999",
"XXX-%OOOOO++OOOOOO;;;;qqqqqwwwwwwwwwwqqqqq;;;;OOOOOOOOOOOOO78999",
"ooo%OOOOOOOOOOOOOO;;;;qqqqqwwwwwwwwwwqqqqq;;;;OOOOOO&&OOOOO78999",
"OOOOOOOOOOOOOO>>OO;;;;qqqqqwwwwwwwwwwqqqqq;;;;OOOOOO&&OOOOO78999",
"OOOOOOOOOOOOOOOOOO;;;;qqqqqwwwwwwwwwwqqqqq;;;;OOOOOOOOOOOOO78999",
"OOOOOOOOOOOOOOOOOO;;;;qqqqqwwwwwwwwwwqqqqq;;;;OOOOOOOOOOOOO78999",
"OOOOOOOOOOOOO;;;;;qqqqwwwwwwwwwwwwwwwwwwwwqqqq;;;;;OOOOOOOO78999",
"OOOOOOOOOOOOO;;;;;qqqqwwwwwwwwwwwwwwwwwwwwqqqq;;;;;OOOOOOOO78999",
"OOOOOOOOOOOOO;;;;;qqqqwwwwwwwwwwwwwwwwwwwwqqqq;;;;;eOOOOOOO789rr",
"ooo%OOOOOOOOO;;;;;qqqqwwwwwwwwwwwwwwwwwwwwqqqq;;;;;eOOOOOOO789rr",
"==X:::::::::::::::tttttttttttttttttttttttttttt:::::::::::::::999",
"$y :::::::::::::::tttttttttttttttttttttttttttt:::::::::::::::999",
"   :::::::::::::::tttttttttttttttttttttttttttt:::::::::::::::999",
"XXX:::::::::::::::tttttttttttttttttttttttttttt:::::::::::::::999",
"@@o:::::ttttttttttttttuuuuuttttttttttuuuuutttttttttttttt:::::iii",
"++O:::::ttttttttttttttuuuuuttttttttttuuuuutttttttttttttt:::::iii",
"OOO:::::ttttttttttttttuuuuuttttttttttuuuuutttttttttttttt:::::999",
"ooo:::::ttttttttttttttuuuuuttttttttttuuuuutttttttttttttt:::::888",
"XXX:::::ttttttttttttttuuuuuttttttttttuuuuutttttttttttttt:::::777",
"   XoOOO;;;;;pppppqqqquuuuuttttttttttuuuuuqqqq;;;;;;;;;;OO++OOOO",
"   XoOOO;;;;;pppppqqqquuuuuttttttttttuuuuuqqqq;;;;;;;;;;OOOOOOOO",
"   XoOOO;;;;;pppppqqqquuuuuttttttttttuuuuuqqqq;;;;;;;;;;OOOOa777",
"   XoOOO;;;;;pppppqqqquuuuuttttttttttuuuuuqqqq;;;;;;;;;;OOOa6888",
"   XoOOOOOOOOsssss;;;;qqqqqqqqqqqqqqqqqqqq;;;;dddddOOOOOOOO78999",
"  fX%&OOOOOOOsssss;;;;qqqqqqqqqqqqqqqqqqqq;;;;dddddOOOOOOOO789gg",
"  fX%&OOOOOOOsssss;;;;qqqqqqqqqqqqqqqqqqqq;;;;dddddOOOOOOOOa68hh",
"   XoOOOOOOOOsssss;;;;qqqqqqqqqqqqqqqqqqqq;;;;dddddOOOOOOOOOa777",
" # XoOOOdddddjjjjjkkkk;;;;;;;;;;;;;;;;;;;;kkkkjjjjjdddddOOOOOOOO",
"   XoOOOdddddjjjjjkkkk;;;;;;;;;;;;;;;;;;;;kkkkjjjjjdddddOOOOOOOO",
"XXX-%OOOdddddjjjjjkkkk;;;;;;;;;;;;;;;;;;;;kkkkjjjjjdddddOOOOa777",
"ooo%OOOOdddddjjjjjkkkk;;;;;;;;;;;;;;;;;;;;kkkkjjjjjdddddOOOa6888",
"OOOlllllkkkkkkkkkkkkkkkkkkkkkkkkkkkkkkkkkkkkkkkkkkkkkkkklllll999",
"OOOlllllkkkkkkkkkkkkkkkkkkkkkkkkkkkkkkkkkkkkkkkkkkkkkkkklllll999",
"OOOlllllkkkkkkkkkkkkkkkkkkkkkkkkkkkkkkkkkkkkkkkkkkkkkkkklllll999",
"OOOlllllkkkkkkkkkkkkkkkkkkkkkkkkkkkkkkkkkkkkkkkkkkkkkkkklllll999",
"OOOlllllkkkkkkkkkkkkkkkkkkkkkkkkkkkkkkkkkkkkkkkkkkkkkkkklllll999",
"OOOlllllzzzzzkkkkkllllkkkkkkkkkkkkkkkkkkkkllllkkkkkzzzzzlllll999",
"ooolllllzzzzzkkkkkllllkkkkkkkkkkkkkkkkkkkkllllkkkkkzzzzzlllll888",
"XXXlllllzzzzzkkkkkllllkkkkkkkkkkkkkkkkkkkkllllkkkkkzzzzzlllll777",
"   lllllzzzzzkkkkkllllkkkkkkkkkkkkkkkkkkkkllllkkkkkzzzzzlllllOOO",
" # XoOOOllllllllllxxxxxxxxxccccccccccxxxxxxxxxllllllllllOOOOOOOO",
"   XoOOOllllllllllxxxxxxxxxccccccccccxxxxxxxxxllllllllllOOOOOOOO",
"  .<oOOOllllllllllxxxxxxxxxccccccccccxxxxxxxxxllllllllllOOOOOOOO",
"  .<oOOOllllllllllxxxxxxxxxccccccccccxxxxxxxxxllllllllllOOOOOOOO",
"   XoOOOOOOOOvvvvvbbbbbbbbbnnnnnnnnnnbbbbbbbbbvvvvvOOOOOOOOOOOOO",
"   XoOOOOOOOOvvvvvbbbbbbbbbnnnnnnnnnnbbbbbbbbbvvvvvOOOOOOOOOa777",
"  .<oOOOOOOOOvvvvvbbbbbbbbbnnnnnnnnnnbbbbbbbbbvvvvvOOOOOOOOa6888",
"  .<oOOOOOOOOvvvvvbbbbbbbbbnnnnnnnnnnbbbbbbbbbvvvvvOOOOOOOO78999",
"   XoOOOOO>>OmmmmmnnnnnnnnnvvvvvvvvvvnnnnnnnnnmmmmmOOOOOOOO78999",
"   XoOOOOO>>OmmmmmnnnnnnnnnvvvvvvvvvvnnnnnnnnnmmmmmOOOOOOOO78999",
"   XoOOOOOOOOmmmmmnnnnnnnnnvvvvvvvvvvnnnnnnnnnmmmmmOOOOOOOO78999",
" # XoO0OOOOOOmmmmmnnnnnnnnnvvvvvvvvvvnnnnnnnnnmmmmmOOOOOOOO78999",
"   X@+OOOOOOOmmmmmnnnnnnnnnvvvvvvvvvvnnnnnnnnnmmmmmOOOOOOOO78999",
"222MaN77777aOOOO++mmmmmmmmmOa77777777mmmmmmmmmOOa7777777777Bh999",
"VV6C88888886a>OOOOmmmmmmmmma6888hh888mmmmmmmmmOa68888888888h9999",
"iigg9999ii98a>OOOOmmmmmmmmm78999gg999mmmmmmmmmO78999999999999999",
"9999999999987OOO&&mmmmmmmmm789999999rmmmmmmmmmO78999999999999999",
"9999999999987OOO&&O789987OO789999999rr9999i87OO78999999999999999"
};
